<svg width="529" height="180" viewBox="0 0 529 180" fill="none" xmlns="http://www.w3.org/2000/svg">
<rect x="0.5" y="0.5" width="528" height="179" rx="4.5" stroke="#8A38F5" stroke-dasharray="10 5"/>
<rect x="20" y="20" width="489" height="60" rx="10" fill="#FFB066"/>
<path d="M208.472 47.5625C208.419 47.0663 208.195 46.6799 207.801 46.4034C207.411 46.1269 206.903 45.9886 206.278 45.9886C205.839 45.9886 205.462 46.0549 205.148 46.1875C204.833 46.3201 204.593 46.5 204.426 46.7273C204.259 46.9545 204.174 47.214 204.17 47.5057C204.17 47.7481 204.225 47.9583 204.335 48.1364C204.449 48.3144 204.602 48.4659 204.795 48.5909C204.989 48.7121 205.203 48.8144 205.438 48.8977C205.672 48.9811 205.909 49.0511 206.148 49.108L207.239 49.3807C207.678 49.483 208.1 49.6212 208.506 49.7955C208.915 49.9697 209.28 50.1894 209.602 50.4545C209.928 50.7197 210.186 51.0398 210.375 51.4148C210.564 51.7898 210.659 52.2292 210.659 52.733C210.659 53.4148 210.485 54.0152 210.136 54.5341C209.788 55.0492 209.284 55.4527 208.625 55.7443C207.97 56.0322 207.176 56.1761 206.244 56.1761C205.339 56.1761 204.553 56.036 203.886 55.7557C203.223 55.4754 202.705 55.0663 202.33 54.5284C201.958 53.9905 201.758 53.3352 201.727 52.5625H203.801C203.831 52.9678 203.956 53.3049 204.176 53.5739C204.396 53.8428 204.682 54.0436 205.034 54.1761C205.39 54.3087 205.788 54.375 206.227 54.375C206.686 54.375 207.087 54.3068 207.432 54.1705C207.78 54.0303 208.053 53.8371 208.25 53.5909C208.447 53.3409 208.547 53.0492 208.551 52.7159C208.547 52.4129 208.458 52.1629 208.284 51.9659C208.11 51.7652 207.866 51.5985 207.551 51.4659C207.241 51.3295 206.877 51.2083 206.46 51.1023L205.136 50.7614C204.178 50.5152 203.42 50.142 202.864 49.642C202.311 49.1383 202.034 48.4697 202.034 47.6364C202.034 46.9508 202.22 46.3504 202.591 45.8352C202.966 45.3201 203.475 44.9205 204.119 44.6364C204.763 44.3485 205.492 44.2045 206.307 44.2045C207.133 44.2045 207.856 44.3485 208.477 44.6364C209.102 44.9205 209.593 45.3163 209.949 45.8239C210.305 46.3277 210.489 46.9072 210.5 47.5625H208.472ZM216.805 47.2727V48.8636H211.788V47.2727H216.805ZM213.027 45.1818H215.084V53.375C215.084 53.6515 215.125 53.8636 215.209 54.0114C215.296 54.1553 215.41 54.2538 215.55 54.3068C215.69 54.3598 215.845 54.3864 216.016 54.3864C216.144 54.3864 216.262 54.3769 216.368 54.358C216.478 54.339 216.561 54.322 216.618 54.3068L216.964 55.9148C216.855 55.9527 216.697 55.9943 216.493 56.0398C216.292 56.0852 216.046 56.1117 215.754 56.1193C215.239 56.1345 214.775 56.0568 214.362 55.8864C213.949 55.7121 213.622 55.4432 213.379 55.0795C213.141 54.7159 213.023 54.2614 213.027 53.7159V45.1818ZM221.037 56.1761C220.484 56.1761 219.986 56.0777 219.543 55.8807C219.103 55.6799 218.755 55.3845 218.497 54.9943C218.243 54.6042 218.116 54.1231 218.116 53.5511C218.116 53.0587 218.207 52.6515 218.389 52.3295C218.571 52.0076 218.819 51.75 219.134 51.5568C219.448 51.3636 219.802 51.2178 220.196 51.1193C220.594 51.017 221.005 50.9432 221.429 50.8977C221.94 50.8447 222.355 50.7973 222.673 50.7557C222.991 50.7102 223.223 50.642 223.366 50.5511C223.514 50.4564 223.588 50.3106 223.588 50.1136V50.0795C223.588 49.6515 223.461 49.3201 223.207 49.0852C222.954 48.8504 222.588 48.733 222.111 48.733C221.607 48.733 221.207 48.8428 220.912 49.0625C220.62 49.2822 220.423 49.5417 220.321 49.8409L218.401 49.5682C218.552 49.0379 218.802 48.5947 219.151 48.2386C219.499 47.8788 219.925 47.6098 220.429 47.4318C220.933 47.25 221.49 47.1591 222.099 47.1591C222.52 47.1591 222.938 47.2083 223.355 47.3068C223.772 47.4053 224.152 47.5682 224.497 47.7955C224.842 48.0189 225.118 48.3239 225.327 48.7102C225.539 49.0966 225.645 49.5795 225.645 50.1591V56H223.668V54.8011H223.599C223.474 55.0436 223.298 55.2708 223.071 55.483C222.848 55.6913 222.565 55.8598 222.224 55.9886C221.887 56.1136 221.491 56.1761 221.037 56.1761ZM221.571 54.6648C221.984 54.6648 222.342 54.5833 222.645 54.4205C222.948 54.2538 223.181 54.0341 223.344 53.7614C223.51 53.4886 223.594 53.1913 223.594 52.8693V51.8409C223.529 51.8939 223.42 51.9432 223.264 51.9886C223.113 52.0341 222.942 52.0739 222.753 52.108C222.563 52.142 222.376 52.1723 222.19 52.1989C222.005 52.2254 221.844 52.2481 221.707 52.267C221.401 52.3087 221.126 52.3769 220.884 52.4716C220.641 52.5663 220.45 52.6989 220.31 52.8693C220.17 53.036 220.099 53.2519 220.099 53.517C220.099 53.8958 220.238 54.1818 220.514 54.375C220.791 54.5682 221.143 54.6648 221.571 54.6648ZM227.713 56V47.2727H229.707V48.7273H229.798C229.957 48.2235 230.23 47.8352 230.616 47.5625C231.007 47.286 231.452 47.1477 231.952 47.1477C232.065 47.1477 232.192 47.1534 232.332 47.1648C232.476 47.1723 232.596 47.1856 232.69 47.2045V49.0966C232.603 49.0663 232.465 49.0398 232.276 49.017C232.09 48.9905 231.91 48.9773 231.736 48.9773C231.361 48.9773 231.024 49.0587 230.724 49.2216C230.429 49.3807 230.196 49.6023 230.026 49.8864C229.855 50.1705 229.77 50.4981 229.77 50.8693V56H227.713ZM238.884 47.2727V48.8636H233.866V47.2727H238.884ZM235.105 45.1818H237.162V53.375C237.162 53.6515 237.204 53.8636 237.287 54.0114C237.374 54.1553 237.488 54.2538 237.628 54.3068C237.768 54.3598 237.923 54.3864 238.094 54.3864C238.223 54.3864 238.34 54.3769 238.446 54.358C238.556 54.339 238.639 54.322 238.696 54.3068L239.043 55.9148C238.933 55.9527 238.776 55.9943 238.571 56.0398C238.37 56.0852 238.124 56.1117 237.832 56.1193C237.317 56.1345 236.853 56.0568 236.44 55.8864C236.027 55.7121 235.7 55.4432 235.457 55.0795C235.219 54.7159 235.101 54.2614 235.105 53.7159V45.1818ZM243.868 44.3636H246.249L249.095 49.5114H249.209L252.055 44.3636H254.436L250.203 51.6591V56H248.101V51.6591L243.868 44.3636ZM258.02 56.1705C257.168 56.1705 256.429 55.983 255.804 55.608C255.179 55.233 254.694 54.7083 254.349 54.0341C254.009 53.3598 253.838 52.572 253.838 51.6705C253.838 50.7689 254.009 49.9792 254.349 49.3011C254.694 48.6231 255.179 48.0966 255.804 47.7216C256.429 47.3466 257.168 47.1591 258.02 47.1591C258.872 47.1591 259.611 47.3466 260.236 47.7216C260.861 48.0966 261.344 48.6231 261.685 49.3011C262.029 49.9792 262.202 50.7689 262.202 51.6705C262.202 52.572 262.029 53.3598 261.685 54.0341C261.344 54.7083 260.861 55.233 260.236 55.608C259.611 55.983 258.872 56.1705 258.02 56.1705ZM258.031 54.5227C258.493 54.5227 258.88 54.3958 259.19 54.142C259.501 53.8845 259.732 53.5398 259.884 53.108C260.039 52.6761 260.116 52.1951 260.116 51.6648C260.116 51.1307 260.039 50.6477 259.884 50.2159C259.732 49.7803 259.501 49.4337 259.19 49.1761C258.88 48.9186 258.493 48.7898 258.031 48.7898C257.558 48.7898 257.164 48.9186 256.849 49.1761C256.539 49.4337 256.306 49.7803 256.151 50.2159C255.999 50.6477 255.923 51.1307 255.923 51.6648C255.923 52.1951 255.999 52.6761 256.151 53.108C256.306 53.5398 256.539 53.8845 256.849 54.142C257.164 54.3958 257.558 54.5227 258.031 54.5227ZM269.51 52.3295V47.2727H271.567V56H269.572V54.4489H269.482C269.285 54.9375 268.961 55.3371 268.51 55.6477C268.063 55.9583 267.512 56.1136 266.857 56.1136C266.285 56.1136 265.779 55.9867 265.339 55.733C264.904 55.4754 264.563 55.1023 264.317 54.6136C264.071 54.1212 263.947 53.5265 263.947 52.8295V47.2727H266.004V52.5114C266.004 53.0644 266.156 53.5038 266.459 53.8295C266.762 54.1553 267.16 54.3182 267.652 54.3182C267.955 54.3182 268.249 54.2443 268.533 54.0966C268.817 53.9489 269.05 53.7292 269.232 53.4375C269.417 53.142 269.51 52.7727 269.51 52.3295ZM273.682 56V47.2727H275.676V48.7273H275.767C275.926 48.2235 276.199 47.8352 276.585 47.5625C276.975 47.286 277.42 47.1477 277.92 47.1477C278.034 47.1477 278.161 47.1534 278.301 47.1648C278.445 47.1723 278.564 47.1856 278.659 47.2045V49.0966C278.572 49.0663 278.434 49.0398 278.244 49.017C278.059 48.9905 277.879 48.9773 277.705 48.9773C277.33 48.9773 276.992 49.0587 276.693 49.2216C276.398 49.3807 276.165 49.6023 275.994 49.8864C275.824 50.1705 275.739 50.4981 275.739 50.8693V56H273.682ZM294.483 50.1818C294.483 51.4356 294.248 52.5095 293.778 53.4034C293.313 54.2936 292.676 54.9754 291.869 55.4489C291.066 55.9223 290.155 56.1591 289.136 56.1591C288.117 56.1591 287.205 55.9223 286.398 55.4489C285.595 54.9716 284.958 54.2879 284.489 53.3977C284.023 52.5038 283.79 51.4318 283.79 50.1818C283.79 48.928 284.023 47.8561 284.489 46.9659C284.958 46.072 285.595 45.3883 286.398 44.9148C287.205 44.4413 288.117 44.2045 289.136 44.2045C290.155 44.2045 291.066 44.4413 291.869 44.9148C292.676 45.3883 293.313 46.072 293.778 46.9659C294.248 47.8561 294.483 48.928 294.483 50.1818ZM292.364 50.1818C292.364 49.2992 292.225 48.5549 291.949 47.9489C291.676 47.339 291.297 46.8788 290.812 46.5682C290.328 46.2538 289.769 46.0966 289.136 46.0966C288.504 46.0966 287.945 46.2538 287.46 46.5682C286.975 46.8788 286.595 47.339 286.318 47.9489C286.045 48.5549 285.909 49.2992 285.909 50.1818C285.909 51.0644 286.045 51.8106 286.318 52.4205C286.595 53.0265 286.975 53.4867 287.46 53.8011C287.945 54.1117 288.504 54.267 289.136 54.267C289.769 54.267 290.328 54.1117 290.812 53.8011C291.297 53.4867 291.676 53.0265 291.949 52.4205C292.225 51.8106 292.364 51.0644 292.364 50.1818ZM296.385 56V47.2727H298.379V48.7273H298.47C298.629 48.2235 298.902 47.8352 299.288 47.5625C299.679 47.286 300.124 47.1477 300.624 47.1477C300.737 47.1477 300.864 47.1534 301.004 47.1648C301.148 47.1723 301.268 47.1856 301.362 47.2045V49.0966C301.275 49.0663 301.137 49.0398 300.947 49.017C300.762 48.9905 300.582 48.9773 300.408 48.9773C300.033 48.9773 299.696 49.0587 299.396 49.2216C299.101 49.3807 298.868 49.6023 298.697 49.8864C298.527 50.1705 298.442 50.4981 298.442 50.8693V56H296.385ZM305.608 56.1534C304.922 56.1534 304.309 55.9773 303.767 55.625C303.225 55.2727 302.797 54.7614 302.483 54.0909C302.169 53.4205 302.011 52.6061 302.011 51.6477C302.011 50.678 302.17 49.8598 302.489 49.1932C302.811 48.5227 303.244 48.017 303.79 47.6761C304.335 47.3314 304.943 47.1591 305.614 47.1591C306.125 47.1591 306.545 47.2462 306.875 47.4205C307.205 47.5909 307.466 47.7973 307.659 48.0398C307.852 48.2784 308.002 48.5038 308.108 48.7159H308.193V44.3636H310.256V56H308.233V54.625H308.108C308.002 54.8371 307.848 55.0625 307.648 55.3011C307.447 55.536 307.182 55.7367 306.852 55.9034C306.523 56.0701 306.108 56.1534 305.608 56.1534ZM306.182 54.4659C306.617 54.4659 306.989 54.3485 307.295 54.1136C307.602 53.875 307.835 53.5436 307.994 53.1193C308.153 52.6951 308.233 52.2008 308.233 51.6364C308.233 51.072 308.153 50.5814 307.994 50.1648C307.839 49.7481 307.608 49.4242 307.301 49.1932C306.998 48.9621 306.625 48.8466 306.182 48.8466C305.723 48.8466 305.341 48.9659 305.034 49.2045C304.727 49.4432 304.496 49.7727 304.341 50.1932C304.186 50.6136 304.108 51.0947 304.108 51.6364C304.108 52.1818 304.186 52.6686 304.341 53.0966C304.5 53.5208 304.733 53.8561 305.04 54.1023C305.35 54.3447 305.731 54.4659 306.182 54.4659ZM316.311 56.1705C315.436 56.1705 314.68 55.9886 314.044 55.625C313.411 55.2576 312.925 54.7386 312.584 54.0682C312.243 53.3939 312.072 52.6004 312.072 51.6875C312.072 50.7898 312.243 50.0019 312.584 49.3239C312.929 48.642 313.41 48.1117 314.027 47.733C314.644 47.3504 315.37 47.1591 316.203 47.1591C316.741 47.1591 317.249 47.2462 317.726 47.4205C318.207 47.5909 318.631 47.8561 318.999 48.2159C319.37 48.5758 319.661 49.0341 319.874 49.5909C320.086 50.1439 320.192 50.803 320.192 51.5682V52.1989H313.038V50.8125H318.22C318.216 50.4186 318.131 50.0682 317.964 49.7614C317.798 49.4508 317.565 49.2064 317.266 49.0284C316.97 48.8504 316.625 48.7614 316.232 48.7614C315.811 48.7614 315.442 48.8636 315.124 49.0682C314.805 49.2689 314.557 49.5341 314.379 49.8636C314.205 50.1894 314.116 50.5473 314.112 50.9375V52.1477C314.112 52.6553 314.205 53.0909 314.391 53.4545C314.576 53.8144 314.836 54.0909 315.169 54.2841C315.502 54.4735 315.893 54.5682 316.339 54.5682C316.639 54.5682 316.91 54.5265 317.152 54.4432C317.394 54.3561 317.605 54.2292 317.783 54.0625C317.961 53.8958 318.095 53.6894 318.186 53.4432L320.107 53.6591C319.985 54.1667 319.754 54.6098 319.413 54.9886C319.076 55.3636 318.644 55.6553 318.118 55.8636C317.591 56.0682 316.989 56.1705 316.311 56.1705ZM321.932 56V47.2727H323.926V48.7273H324.017C324.176 48.2235 324.449 47.8352 324.835 47.5625C325.225 47.286 325.67 47.1477 326.17 47.1477C326.284 47.1477 326.411 47.1534 326.551 47.1648C326.695 47.1723 326.814 47.1856 326.909 47.2045V49.0966C326.822 49.0663 326.684 49.0398 326.494 49.017C326.309 48.9905 326.129 48.9773 325.955 48.9773C325.58 48.9773 325.242 49.0587 324.943 49.2216C324.648 49.3807 324.415 49.6023 324.244 49.8864C324.074 50.1705 323.989 50.4981 323.989 50.8693V56H321.932Z" fill="white"/>
<rect x="20" y="100" width="489" height="60" rx="10" fill="#FF7A18"/>
<path d="M208.472 127.562C208.419 127.066 208.195 126.68 207.801 126.403C207.411 126.127 206.903 125.989 206.278 125.989C205.839 125.989 205.462 126.055 205.148 126.188C204.833 126.32 204.593 126.5 204.426 126.727C204.259 126.955 204.174 127.214 204.17 127.506C204.17 127.748 204.225 127.958 204.335 128.136C204.449 128.314 204.602 128.466 204.795 128.591C204.989 128.712 205.203 128.814 205.438 128.898C205.672 128.981 205.909 129.051 206.148 129.108L207.239 129.381C207.678 129.483 208.1 129.621 208.506 129.795C208.915 129.97 209.28 130.189 209.602 130.455C209.928 130.72 210.186 131.04 210.375 131.415C210.564 131.79 210.659 132.229 210.659 132.733C210.659 133.415 210.485 134.015 210.136 134.534C209.788 135.049 209.284 135.453 208.625 135.744C207.97 136.032 207.176 136.176 206.244 136.176C205.339 136.176 204.553 136.036 203.886 135.756C203.223 135.475 202.705 135.066 202.33 134.528C201.958 133.991 201.758 133.335 201.727 132.562H203.801C203.831 132.968 203.956 133.305 204.176 133.574C204.396 133.843 204.682 134.044 205.034 134.176C205.39 134.309 205.788 134.375 206.227 134.375C206.686 134.375 207.087 134.307 207.432 134.17C207.78 134.03 208.053 133.837 208.25 133.591C208.447 133.341 208.547 133.049 208.551 132.716C208.547 132.413 208.458 132.163 208.284 131.966C208.11 131.765 207.866 131.598 207.551 131.466C207.241 131.33 206.877 131.208 206.46 131.102L205.136 130.761C204.178 130.515 203.42 130.142 202.864 129.642C202.311 129.138 202.034 128.47 202.034 127.636C202.034 126.951 202.22 126.35 202.591 125.835C202.966 125.32 203.475 124.92 204.119 124.636C204.763 124.348 205.492 124.205 206.307 124.205C207.133 124.205 207.856 124.348 208.477 124.636C209.102 124.92 209.593 125.316 209.949 125.824C210.305 126.328 210.489 126.907 210.5 127.562H208.472ZM216.805 127.273V128.864H211.788V127.273H216.805ZM213.027 125.182H215.084V133.375C215.084 133.652 215.125 133.864 215.209 134.011C215.296 134.155 215.41 134.254 215.55 134.307C215.69 134.36 215.845 134.386 216.016 134.386C216.144 134.386 216.262 134.377 216.368 134.358C216.478 134.339 216.561 134.322 216.618 134.307L216.964 135.915C216.855 135.953 216.697 135.994 216.493 136.04C216.292 136.085 216.046 136.112 215.754 136.119C215.239 136.134 214.775 136.057 214.362 135.886C213.949 135.712 213.622 135.443 213.379 135.08C213.141 134.716 213.023 134.261 213.027 133.716V125.182ZM221.037 136.176C220.484 136.176 219.986 136.078 219.543 135.881C219.103 135.68 218.755 135.384 218.497 134.994C218.243 134.604 218.116 134.123 218.116 133.551C218.116 133.059 218.207 132.652 218.389 132.33C218.571 132.008 218.819 131.75 219.134 131.557C219.448 131.364 219.802 131.218 220.196 131.119C220.594 131.017 221.005 130.943 221.429 130.898C221.94 130.845 222.355 130.797 222.673 130.756C222.991 130.71 223.223 130.642 223.366 130.551C223.514 130.456 223.588 130.311 223.588 130.114V130.08C223.588 129.652 223.461 129.32 223.207 129.085C222.954 128.85 222.588 128.733 222.111 128.733C221.607 128.733 221.207 128.843 220.912 129.062C220.62 129.282 220.423 129.542 220.321 129.841L218.401 129.568C218.552 129.038 218.802 128.595 219.151 128.239C219.499 127.879 219.925 127.61 220.429 127.432C220.933 127.25 221.49 127.159 222.099 127.159C222.52 127.159 222.938 127.208 223.355 127.307C223.772 127.405 224.152 127.568 224.497 127.795C224.842 128.019 225.118 128.324 225.327 128.71C225.539 129.097 225.645 129.58 225.645 130.159V136H223.668V134.801H223.599C223.474 135.044 223.298 135.271 223.071 135.483C222.848 135.691 222.565 135.86 222.224 135.989C221.887 136.114 221.491 136.176 221.037 136.176ZM221.571 134.665C221.984 134.665 222.342 134.583 222.645 134.42C222.948 134.254 223.181 134.034 223.344 133.761C223.51 133.489 223.594 133.191 223.594 132.869V131.841C223.529 131.894 223.42 131.943 223.264 131.989C223.113 132.034 222.942 132.074 222.753 132.108C222.563 132.142 222.376 132.172 222.19 132.199C222.005 132.225 221.844 132.248 221.707 132.267C221.401 132.309 221.126 132.377 220.884 132.472C220.641 132.566 220.45 132.699 220.31 132.869C220.17 133.036 220.099 133.252 220.099 133.517C220.099 133.896 220.238 134.182 220.514 134.375C220.791 134.568 221.143 134.665 221.571 134.665ZM227.713 136V127.273H229.707V128.727H229.798C229.957 128.223 230.23 127.835 230.616 127.562C231.007 127.286 231.452 127.148 231.952 127.148C232.065 127.148 232.192 127.153 232.332 127.165C232.476 127.172 232.596 127.186 232.69 127.205V129.097C232.603 129.066 232.465 129.04 232.276 129.017C232.09 128.991 231.91 128.977 231.736 128.977C231.361 128.977 231.024 129.059 230.724 129.222C230.429 129.381 230.196 129.602 230.026 129.886C229.855 130.17 229.77 130.498 229.77 130.869V136H227.713ZM238.884 127.273V128.864H233.866V127.273H238.884ZM235.105 125.182H237.162V133.375C237.162 133.652 237.204 133.864 237.287 134.011C237.374 134.155 237.488 134.254 237.628 134.307C237.768 134.36 237.923 134.386 238.094 134.386C238.223 134.386 238.34 134.377 238.446 134.358C238.556 134.339 238.639 134.322 238.696 134.307L239.043 135.915C238.933 135.953 238.776 135.994 238.571 136.04C238.37 136.085 238.124 136.112 237.832 136.119C237.317 136.134 236.853 136.057 236.44 135.886C236.027 135.712 235.7 135.443 235.457 135.08C235.219 134.716 235.101 134.261 235.105 133.716V125.182ZM243.868 124.364H246.249L249.095 129.511H249.209L252.055 124.364H254.436L250.203 131.659V136H248.101V131.659L243.868 124.364ZM258.02 136.17C257.168 136.17 256.429 135.983 255.804 135.608C255.179 135.233 254.694 134.708 254.349 134.034C254.009 133.36 253.838 132.572 253.838 131.67C253.838 130.769 254.009 129.979 254.349 129.301C254.694 128.623 255.179 128.097 255.804 127.722C256.429 127.347 257.168 127.159 258.02 127.159C258.872 127.159 259.611 127.347 260.236 127.722C260.861 128.097 261.344 128.623 261.685 129.301C262.029 129.979 262.202 130.769 262.202 131.67C262.202 132.572 262.029 133.36 261.685 134.034C261.344 134.708 260.861 135.233 260.236 135.608C259.611 135.983 258.872 136.17 258.02 136.17ZM258.031 134.523C258.493 134.523 258.88 134.396 259.19 134.142C259.501 133.884 259.732 133.54 259.884 133.108C260.039 132.676 260.116 132.195 260.116 131.665C260.116 131.131 260.039 130.648 259.884 130.216C259.732 129.78 259.501 129.434 259.19 129.176C258.88 128.919 258.493 128.79 258.031 128.79C257.558 128.79 257.164 128.919 256.849 129.176C256.539 129.434 256.306 129.78 256.151 130.216C255.999 130.648 255.923 131.131 255.923 131.665C255.923 132.195 255.999 132.676 256.151 133.108C256.306 133.54 256.539 133.884 256.849 134.142C257.164 134.396 257.558 134.523 258.031 134.523ZM269.51 132.33V127.273H271.567V136H269.572V134.449H269.482C269.285 134.937 268.961 135.337 268.51 135.648C268.063 135.958 267.512 136.114 266.857 136.114C266.285 136.114 265.779 135.987 265.339 135.733C264.904 135.475 264.563 135.102 264.317 134.614C264.071 134.121 263.947 133.527 263.947 132.83V127.273H266.004V132.511C266.004 133.064 266.156 133.504 266.459 133.83C266.762 134.155 267.16 134.318 267.652 134.318C267.955 134.318 268.249 134.244 268.533 134.097C268.817 133.949 269.05 133.729 269.232 133.438C269.417 133.142 269.51 132.773 269.51 132.33ZM273.682 136V127.273H275.676V128.727H275.767C275.926 128.223 276.199 127.835 276.585 127.562C276.975 127.286 277.42 127.148 277.92 127.148C278.034 127.148 278.161 127.153 278.301 127.165C278.445 127.172 278.564 127.186 278.659 127.205V129.097C278.572 129.066 278.434 129.04 278.244 129.017C278.059 128.991 277.879 128.977 277.705 128.977C277.33 128.977 276.992 129.059 276.693 129.222C276.398 129.381 276.165 129.602 275.994 129.886C275.824 130.17 275.739 130.498 275.739 130.869V136H273.682ZM294.483 130.182C294.483 131.436 294.248 132.509 293.778 133.403C293.313 134.294 292.676 134.975 291.869 135.449C291.066 135.922 290.155 136.159 289.136 136.159C288.117 136.159 287.205 135.922 286.398 135.449C285.595 134.972 284.958 134.288 284.489 133.398C284.023 132.504 283.79 131.432 283.79 130.182C283.79 128.928 284.023 127.856 284.489 126.966C284.958 126.072 285.595 125.388 286.398 124.915C287.205 124.441 288.117 124.205 289.136 124.205C290.155 124.205 291.066 124.441 291.869 124.915C292.676 125.388 293.313 126.072 293.778 126.966C294.248 127.856 294.483 128.928 294.483 130.182ZM292.364 130.182C292.364 129.299 292.225 128.555 291.949 127.949C291.676 127.339 291.297 126.879 290.812 126.568C290.328 126.254 289.769 126.097 289.136 126.097C288.504 126.097 287.945 126.254 287.46 126.568C286.975 126.879 286.595 127.339 286.318 127.949C286.045 128.555 285.909 129.299 285.909 130.182C285.909 131.064 286.045 131.811 286.318 132.42C286.595 133.027 286.975 133.487 287.46 133.801C287.945 134.112 288.504 134.267 289.136 134.267C289.769 134.267 290.328 134.112 290.812 133.801C291.297 133.487 291.676 133.027 291.949 132.42C292.225 131.811 292.364 131.064 292.364 130.182ZM296.385 136V127.273H298.379V128.727H298.47C298.629 128.223 298.902 127.835 299.288 127.562C299.679 127.286 300.124 127.148 300.624 127.148C300.737 127.148 300.864 127.153 301.004 127.165C301.148 127.172 301.268 127.186 301.362 127.205V129.097C301.275 129.066 301.137 129.04 300.947 129.017C300.762 128.991 300.582 128.977 300.408 128.977C300.033 128.977 299.696 129.059 299.396 129.222C299.101 129.381 298.868 129.602 298.697 129.886C298.527 130.17 298.442 130.498 298.442 130.869V136H296.385ZM305.608 136.153C304.922 136.153 304.309 135.977 303.767 135.625C303.225 135.273 302.797 134.761 302.483 134.091C302.169 133.42 302.011 132.606 302.011 131.648C302.011 130.678 302.17 129.86 302.489 129.193C302.811 128.523 303.244 128.017 303.79 127.676C304.335 127.331 304.943 127.159 305.614 127.159C306.125 127.159 306.545 127.246 306.875 127.42C307.205 127.591 307.466 127.797 307.659 128.04C307.852 128.278 308.002 128.504 308.108 128.716H308.193V124.364H310.256V136H308.233V134.625H308.108C308.002 134.837 307.848 135.062 307.648 135.301C307.447 135.536 307.182 135.737 306.852 135.903C306.523 136.07 306.108 136.153 305.608 136.153ZM306.182 134.466C306.617 134.466 306.989 134.348 307.295 134.114C307.602 133.875 307.835 133.544 307.994 133.119C308.153 132.695 308.233 132.201 308.233 131.636C308.233 131.072 308.153 130.581 307.994 130.165C307.839 129.748 307.608 129.424 307.301 129.193C306.998 128.962 306.625 128.847 306.182 128.847C305.723 128.847 305.341 128.966 305.034 129.205C304.727 129.443 304.496 129.773 304.341 130.193C304.186 130.614 304.108 131.095 304.108 131.636C304.108 132.182 304.186 132.669 304.341 133.097C304.5 133.521 304.733 133.856 305.04 134.102C305.35 134.345 305.731 134.466 306.182 134.466ZM316.311 136.17C315.436 136.17 314.68 135.989 314.044 135.625C313.411 135.258 312.925 134.739 312.584 134.068C312.243 133.394 312.072 132.6 312.072 131.688C312.072 130.79 312.243 130.002 312.584 129.324C312.929 128.642 313.41 128.112 314.027 127.733C314.644 127.35 315.37 127.159 316.203 127.159C316.741 127.159 317.249 127.246 317.726 127.42C318.207 127.591 318.631 127.856 318.999 128.216C319.37 128.576 319.661 129.034 319.874 129.591C320.086 130.144 320.192 130.803 320.192 131.568V132.199H313.038V130.812H318.22C318.216 130.419 318.131 130.068 317.964 129.761C317.798 129.451 317.565 129.206 317.266 129.028C316.97 128.85 316.625 128.761 316.232 128.761C315.811 128.761 315.442 128.864 315.124 129.068C314.805 129.269 314.557 129.534 314.379 129.864C314.205 130.189 314.116 130.547 314.112 130.938V132.148C314.112 132.655 314.205 133.091 314.391 133.455C314.576 133.814 314.836 134.091 315.169 134.284C315.502 134.473 315.893 134.568 316.339 134.568C316.639 134.568 316.91 134.527 317.152 134.443C317.394 134.356 317.605 134.229 317.783 134.062C317.961 133.896 318.095 133.689 318.186 133.443L320.107 133.659C319.985 134.167 319.754 134.61 319.413 134.989C319.076 135.364 318.644 135.655 318.118 135.864C317.591 136.068 316.989 136.17 316.311 136.17ZM321.932 136V127.273H323.926V128.727H324.017C324.176 128.223 324.449 127.835 324.835 127.562C325.225 127.286 325.67 127.148 326.17 127.148C326.284 127.148 326.411 127.153 326.551 127.165C326.695 127.172 326.814 127.186 326.909 127.205V129.097C326.822 129.066 326.684 129.04 326.494 129.017C326.309 128.991 326.129 128.977 325.955 128.977C325.58 128.977 325.242 129.059 324.943 129.222C324.648 129.381 324.415 129.602 324.244 129.886C324.074 130.17 323.989 130.498 323.989 130.869V136H321.932Z" fill="white"/>
</svg>
