<svg width="384" height="108" viewBox="0 0 384 108" fill="none" xmlns="http://www.w3.org/2000/svg">
<path d="M11.5753 8.12926H10.0241C9.96449 7.79782 9.85346 7.50615 9.69105 7.25426C9.52865 7.00237 9.32978 6.78859 9.09446 6.61293C8.85914 6.43726 8.59564 6.30469 8.30398 6.2152C8.01563 6.12571 7.70904 6.08097 7.38423 6.08097C6.79759 6.08097 6.27225 6.22846 5.80824 6.52344C5.34754 6.81842 4.98295 7.25095 4.71449 7.82102C4.44934 8.3911 4.31676 9.08712 4.31676 9.90909C4.31676 10.7377 4.44934 11.437 4.71449 12.0071C4.98295 12.5772 5.3492 13.008 5.81321 13.2997C6.27723 13.5914 6.79924 13.7372 7.37926 13.7372C7.70076 13.7372 8.00568 13.6941 8.29403 13.608C8.5857 13.5185 8.8492 13.3875 9.08452 13.2152C9.31984 13.0429 9.5187 12.8324 9.68111 12.5838C9.84683 12.3319 9.96117 12.0436 10.0241 11.7188L11.5753 11.7237C11.4924 12.2242 11.3317 12.6849 11.093 13.1058C10.8577 13.5234 10.5545 13.8847 10.1832 14.1896C9.81534 14.4912 9.39441 14.7249 8.92045 14.8906C8.4465 15.0563 7.92945 15.1392 7.36932 15.1392C6.48769 15.1392 5.70218 14.9304 5.01278 14.5128C4.32339 14.0919 3.77983 13.4903 3.3821 12.7081C2.98769 11.9259 2.79048 10.9929 2.79048 9.90909C2.79048 8.82197 2.98935 7.88897 3.38707 7.11008C3.7848 6.32789 4.32836 5.72798 5.01776 5.31037C5.70715 4.88944 6.491 4.67898 7.36932 4.67898C7.90956 4.67898 8.41335 4.75687 8.88068 4.91264C9.35133 5.0651 9.77391 5.29048 10.1484 5.58878C10.523 5.88376 10.8329 6.24503 11.0781 6.67258C11.3234 7.09683 11.4891 7.58239 11.5753 8.12926ZM16.5108 15.1541C15.7949 15.1541 15.1702 14.9901 14.6365 14.6619C14.1029 14.3338 13.6886 13.8748 13.3936 13.2848C13.0987 12.6948 12.9512 12.0054 12.9512 11.2166C12.9512 10.4245 13.0987 9.73177 13.3936 9.13849C13.6886 8.54522 14.1029 8.08452 14.6365 7.75639C15.1702 7.42827 15.7949 7.2642 16.5108 7.2642C17.2267 7.2642 17.8515 7.42827 18.3851 7.75639C18.9187 8.08452 19.333 8.54522 19.628 9.13849C19.923 9.73177 20.0705 10.4245 20.0705 11.2166C20.0705 12.0054 19.923 12.6948 19.628 13.2848C19.333 13.8748 18.9187 14.3338 18.3851 14.6619C17.8515 14.9901 17.2267 15.1541 16.5108 15.1541ZM16.5158 13.9062C16.9798 13.9062 17.3643 13.7836 17.6692 13.5384C17.9741 13.2931 18.1995 12.9666 18.3453 12.5589C18.4945 12.1513 18.5691 11.7022 18.5691 11.2116C18.5691 10.7244 18.4945 10.277 18.3453 9.86932C18.1995 9.45833 17.9741 9.12855 17.6692 8.87997C17.3643 8.63139 16.9798 8.5071 16.5158 8.5071C16.0485 8.5071 15.6607 8.63139 15.3525 8.87997C15.0475 9.12855 14.8205 9.45833 14.6713 9.86932C14.5255 10.277 14.4526 10.7244 14.4526 11.2116C14.4526 11.7022 14.5255 12.1513 14.6713 12.5589C14.8205 12.9666 15.0475 13.2931 15.3525 13.5384C15.6607 13.7836 16.0485 13.9062 16.5158 13.9062ZM23.2163 10.4659V15H21.7298V7.36364H23.1566V8.60653H23.2511C23.4267 8.20218 23.7018 7.87737 24.0763 7.6321C24.4542 7.38684 24.9298 7.2642 25.5032 7.2642C26.0236 7.2642 26.4793 7.37358 26.8704 7.59233C27.2615 7.80777 27.5647 8.12926 27.7802 8.55682C27.9956 8.98437 28.1033 9.51302 28.1033 10.1428V15H26.6168V10.3217C26.6168 9.76823 26.4727 9.3357 26.1843 9.02415C25.896 8.70928 25.4999 8.55185 24.9961 8.55185C24.6514 8.55185 24.3448 8.62642 24.0763 8.77557C23.8112 8.92472 23.6007 9.14347 23.445 9.43182C23.2925 9.71686 23.2163 10.0616 23.2163 10.4659ZM33.7312 7.36364V8.55682H29.4158V7.36364H33.7312ZM30.5991 15V6.47869C30.5991 6.00142 30.7035 5.60535 30.9123 5.29048C31.1211 4.9723 31.3978 4.73532 31.7425 4.57955C32.0872 4.42045 32.4618 4.34091 32.8661 4.34091C33.1644 4.34091 33.4196 4.36577 33.6317 4.41548C33.8439 4.46188 34.0013 4.50497 34.104 4.54474L33.756 5.74787C33.6864 5.72798 33.5969 5.70478 33.4876 5.67827C33.3782 5.64844 33.2456 5.63352 33.0898 5.63352C32.7286 5.63352 32.4701 5.72301 32.3143 5.90199C32.1618 6.08097 32.0856 6.33949 32.0856 6.67756V15H30.5991ZM35.2649 15V7.36364H36.7514V15H35.2649ZM36.0156 6.18537C35.7571 6.18537 35.535 6.09919 35.3494 5.92685C35.1671 5.75118 35.076 5.54238 35.076 5.30043C35.076 5.05516 35.1671 4.84635 35.3494 4.67401C35.535 4.49834 35.7571 4.41051 36.0156 4.41051C36.2741 4.41051 36.4946 4.49834 36.6768 4.67401C36.8625 4.84635 36.9553 5.05516 36.9553 5.30043C36.9553 5.54238 36.8625 5.75118 36.6768 5.92685C36.4946 6.09919 36.2741 6.18537 36.0156 6.18537ZM38.7512 15V7.36364H40.188V8.5767H40.2676C40.4068 8.16572 40.652 7.84257 41.0034 7.60724C41.358 7.36861 41.7591 7.24929 42.2065 7.24929C42.2993 7.24929 42.4087 7.2526 42.5346 7.25923C42.6639 7.26586 42.765 7.27415 42.8379 7.28409V8.70597C42.7782 8.68939 42.6722 8.67116 42.5197 8.65128C42.3672 8.62808 42.2148 8.61648 42.0623 8.61648C41.711 8.61648 41.3978 8.69105 41.1227 8.8402C40.8509 8.98603 40.6355 9.18987 40.4764 9.4517C40.3173 9.71023 40.2377 10.0052 40.2377 10.3366V15H38.7512ZM44.1243 15V7.36364H45.5511V8.60653H45.6456C45.8047 8.18561 46.0649 7.85748 46.4261 7.62216C46.7874 7.38352 47.2199 7.2642 47.7237 7.2642C48.2341 7.2642 48.6617 7.38352 49.0064 7.62216C49.3544 7.8608 49.6113 8.18892 49.777 8.60653H49.8565C50.0388 8.19886 50.3288 7.87405 50.7266 7.6321C51.1243 7.38684 51.5982 7.2642 52.1484 7.2642C52.8411 7.2642 53.4062 7.4813 53.8438 7.91548C54.2846 8.34967 54.505 9.00426 54.505 9.87926V15H53.0185V10.0185C53.0185 9.50142 52.8776 9.12689 52.5959 8.89489C52.3142 8.66288 51.9777 8.54688 51.5866 8.54688C51.1027 8.54688 50.7266 8.69602 50.4581 8.99432C50.1896 9.2893 50.0554 9.6688 50.0554 10.1328V15H48.5739V9.92401C48.5739 9.50971 48.4446 9.17661 48.1861 8.92472C47.9276 8.67282 47.5911 8.54688 47.1768 8.54688C46.8951 8.54688 46.6349 8.62145 46.3963 8.7706C46.161 8.91643 45.9704 9.12026 45.8246 9.3821C45.6821 9.64394 45.6108 9.94721 45.6108 10.2919V15H44.1243ZM60.2024 17.8636V7.36364H61.6541V8.60156H61.7784C61.8646 8.44247 61.9889 8.25852 62.1513 8.04972C62.3137 7.84091 62.5391 7.65862 62.8274 7.50284C63.1158 7.34375 63.4969 7.2642 63.9709 7.2642C64.5874 7.2642 65.1375 7.41998 65.6214 7.73153C66.1054 8.04309 66.4848 8.49219 66.7599 9.07884C67.0384 9.66548 67.1776 10.3714 67.1776 11.1967C67.1776 12.022 67.04 12.7296 66.7649 13.3196C66.4898 13.9062 66.112 14.3587 65.6314 14.6768C65.1508 14.9917 64.6023 15.1491 63.9858 15.1491C63.5218 15.1491 63.1423 15.0713 62.8473 14.9155C62.5556 14.7597 62.3269 14.5774 62.1612 14.3686C61.9955 14.1598 61.8679 13.9742 61.7784 13.8118H61.6889V17.8636H60.2024ZM61.6591 11.1818C61.6591 11.7187 61.737 12.1894 61.8928 12.5938C62.0485 12.9981 62.2739 13.3146 62.5689 13.5433C62.8639 13.7687 63.2251 13.8814 63.6527 13.8814C64.0968 13.8814 64.468 13.7637 64.7663 13.5284C65.0646 13.2898 65.29 12.9666 65.4425 12.5589C65.5982 12.1513 65.6761 11.6922 65.6761 11.1818C65.6761 10.678 65.5999 10.2256 65.4474 9.82457C65.2983 9.42353 65.0729 9.10701 64.7713 8.875C64.473 8.64299 64.1001 8.52699 63.6527 8.52699C63.2218 8.52699 62.8572 8.63802 62.5589 8.86009C62.264 9.08215 62.0402 9.39205 61.8878 9.78977C61.7353 10.1875 61.6591 10.6515 61.6591 11.1818ZM71.0653 15.169C70.5814 15.169 70.1439 15.0795 69.7528 14.9006C69.3617 14.7183 69.0518 14.4548 68.8232 14.1101C68.5978 13.7654 68.4851 13.3428 68.4851 12.8423C68.4851 12.4115 68.5679 12.0568 68.7337 11.7784C68.8994 11.5 69.1231 11.2796 69.4048 11.1172C69.6866 10.9548 70.0014 10.8321 70.3494 10.7493C70.6974 10.6664 71.0521 10.6035 71.4134 10.5604C71.8707 10.5073 72.242 10.4643 72.527 10.4311C72.812 10.3946 73.0192 10.3366 73.1484 10.2571C73.2777 10.1776 73.3423 10.0483 73.3423 9.86932V9.83452C73.3423 9.40033 73.2197 9.06392 72.9744 8.82528C72.7325 8.58665 72.3712 8.46733 71.8906 8.46733C71.3902 8.46733 70.9957 8.57836 70.7074 8.80043C70.4223 9.01918 70.2251 9.26278 70.1158 9.53125L68.7188 9.21307C68.8845 8.74905 69.1264 8.37453 69.4446 8.08949C69.7661 7.80114 70.1357 7.59233 70.5533 7.46307C70.9709 7.33049 71.41 7.2642 71.8707 7.2642C72.1757 7.2642 72.4988 7.30066 72.8402 7.37358C73.1849 7.44318 73.5064 7.57244 73.8047 7.76136C74.1063 7.95028 74.3532 8.22041 74.5455 8.57173C74.7377 8.91974 74.8338 9.37216 74.8338 9.92898V15H73.3821V13.956H73.3224C73.2263 14.1482 73.0821 14.3371 72.8899 14.5227C72.6977 14.7083 72.4508 14.8625 72.1491 14.9851C71.8475 15.1077 71.4863 15.169 71.0653 15.169ZM71.3885 13.9759C71.7995 13.9759 72.1508 13.8946 72.4425 13.7322C72.7375 13.5698 72.9612 13.3577 73.1136 13.0959C73.2694 12.8307 73.3473 12.5473 73.3473 12.2457V11.2614C73.2943 11.3144 73.1915 11.3641 73.0391 11.4105C72.8899 11.4536 72.7192 11.4917 72.527 11.5249C72.3348 11.5547 72.1475 11.5829 71.9652 11.6094C71.7829 11.6326 71.6304 11.6525 71.5078 11.669C71.2195 11.7055 70.956 11.7668 70.7173 11.853C70.482 11.9392 70.2931 12.0634 70.1506 12.2259C70.0114 12.3849 69.9418 12.5971 69.9418 12.8622C69.9418 13.2301 70.0777 13.5085 70.3494 13.6974C70.6212 13.883 70.9676 13.9759 71.3885 13.9759ZM82.536 9.22798L81.1887 9.46662C81.1324 9.29427 81.0429 9.13021 80.9203 8.97443C80.801 8.81865 80.6386 8.69105 80.4331 8.59162C80.2276 8.49219 79.9707 8.44247 79.6625 8.44247C79.2415 8.44247 78.8902 8.53693 78.6085 8.72585C78.3268 8.91146 78.1859 9.15175 78.1859 9.44673C78.1859 9.70194 78.2804 9.90743 78.4693 10.0632C78.6582 10.219 78.9631 10.3466 79.3841 10.446L80.5971 10.7244C81.2998 10.8868 81.8234 11.1371 82.1681 11.4751C82.5128 11.8132 82.6852 12.2524 82.6852 12.7926C82.6852 13.25 82.5526 13.6577 82.2875 14.0156C82.0256 14.3703 81.6594 14.6487 81.1887 14.8509C80.7214 15.053 80.1795 15.1541 79.563 15.1541C78.7079 15.1541 78.0102 14.9718 77.47 14.6072C76.9297 14.2393 76.5983 13.7173 76.4757 13.0412L77.9125 12.8224C78.002 13.197 78.1859 13.4804 78.4643 13.6726C78.7427 13.8615 79.1056 13.956 79.5531 13.956C80.0403 13.956 80.4297 13.8549 80.7214 13.6527C81.0131 13.4472 81.1589 13.197 81.1589 12.902C81.1589 12.6634 81.0694 12.4628 80.8904 12.3004C80.7148 12.138 80.4447 12.0154 80.0801 11.9325L78.7875 11.6491C78.0749 11.4867 77.5479 11.2282 77.2065 10.8736C76.8684 10.5189 76.6994 10.0698 76.6994 9.52628C76.6994 9.07552 76.8253 8.68111 77.0772 8.34304C77.3291 8.00497 77.6771 7.74148 78.1213 7.55256C78.5654 7.36032 79.0742 7.2642 79.6475 7.2642C80.4728 7.2642 81.1225 7.44318 81.5964 7.80114C82.0704 8.15578 82.3836 8.63139 82.536 9.22798ZM90.0419 9.22798L88.6946 9.46662C88.6383 9.29427 88.5488 9.13021 88.4261 8.97443C88.3068 8.81865 88.1444 8.69105 87.9389 8.59162C87.7334 8.49219 87.4766 8.44247 87.1683 8.44247C86.7474 8.44247 86.3961 8.53693 86.1143 8.72585C85.8326 8.91146 85.6918 9.15175 85.6918 9.44673C85.6918 9.70194 85.7862 9.90743 85.9751 10.0632C86.1641 10.219 86.469 10.3466 86.8899 10.446L88.103 10.7244C88.8056 10.8868 89.3293 11.1371 89.674 11.4751C90.0187 11.8132 90.1911 12.2524 90.1911 12.7926C90.1911 13.25 90.0585 13.6577 89.7933 14.0156C89.5315 14.3703 89.1652 14.6487 88.6946 14.8509C88.2273 15.053 87.6854 15.1541 87.0689 15.1541C86.2138 15.1541 85.5161 14.9718 84.9759 14.6072C84.4356 14.2393 84.1042 13.7173 83.9815 13.0412L85.4183 12.8224C85.5078 13.197 85.6918 13.4804 85.9702 13.6726C86.2486 13.8615 86.6115 13.956 87.0589 13.956C87.5462 13.956 87.9356 13.8549 88.2273 13.6527C88.5189 13.4472 88.6648 13.197 88.6648 12.902C88.6648 12.6634 88.5753 12.4628 88.3963 12.3004C88.2206 12.138 87.9505 12.0154 87.5859 11.9325L86.2933 11.6491C85.5807 11.4867 85.0537 11.2282 84.7124 10.8736C84.3743 10.5189 84.2053 10.0698 84.2053 9.52628C84.2053 9.07552 84.3312 8.68111 84.5831 8.34304C84.835 8.00497 85.183 7.74148 85.6271 7.55256C86.0713 7.36032 86.58 7.2642 87.1534 7.2642C87.9787 7.2642 88.6283 7.44318 89.1023 7.80114C89.5762 8.15578 89.8894 8.63139 90.0419 9.22798ZM93.481 15L91.2338 7.36364H92.7701L94.2665 12.9716H94.3411L95.8425 7.36364H97.3787L98.8702 12.9467H98.9448L100.431 7.36364H101.968L99.7253 15H98.209L96.6578 9.48651H96.5435L94.9924 15H93.481ZM106.362 15.1541C105.646 15.1541 105.022 14.9901 104.488 14.6619C103.954 14.3338 103.54 13.8748 103.245 13.2848C102.95 12.6948 102.803 12.0054 102.803 11.2166C102.803 10.4245 102.95 9.73177 103.245 9.13849C103.54 8.54522 103.954 8.08452 104.488 7.75639C105.022 7.42827 105.646 7.2642 106.362 7.2642C107.078 7.2642 107.703 7.42827 108.237 7.75639C108.77 8.08452 109.185 8.54522 109.48 9.13849C109.775 9.73177 109.922 10.4245 109.922 11.2166C109.922 12.0054 109.775 12.6948 109.48 13.2848C109.185 13.8748 108.77 14.3338 108.237 14.6619C107.703 14.9901 107.078 15.1541 106.362 15.1541ZM106.367 13.9062C106.831 13.9062 107.216 13.7836 107.521 13.5384C107.826 13.2931 108.051 12.9666 108.197 12.5589C108.346 12.1513 108.421 11.7022 108.421 11.2116C108.421 10.7244 108.346 10.277 108.197 9.86932C108.051 9.45833 107.826 9.12855 107.521 8.87997C107.216 8.63139 106.831 8.5071 106.367 8.5071C105.9 8.5071 105.512 8.63139 105.204 8.87997C104.899 9.12855 104.672 9.45833 104.523 9.86932C104.377 10.277 104.304 10.7244 104.304 11.2116C104.304 11.7022 104.377 12.1513 104.523 12.5589C104.672 12.9666 104.899 13.2931 105.204 13.5384C105.512 13.7836 105.9 13.9062 106.367 13.9062ZM111.581 15V7.36364H113.018V8.5767H113.098C113.237 8.16572 113.482 7.84257 113.833 7.60724C114.188 7.36861 114.589 7.24929 115.037 7.24929C115.129 7.24929 115.239 7.2526 115.365 7.25923C115.494 7.26586 115.595 7.27415 115.668 7.28409V8.70597C115.608 8.68939 115.502 8.67116 115.35 8.65128C115.197 8.62808 115.045 8.61648 114.892 8.61648C114.541 8.61648 114.228 8.69105 113.953 8.8402C113.681 8.98603 113.466 9.18987 113.306 9.4517C113.147 9.71023 113.068 10.0052 113.068 10.3366V15H111.581ZM119.54 15.1491C118.923 15.1491 118.373 14.9917 117.889 14.6768C117.408 14.3587 117.031 13.9062 116.756 13.3196C116.484 12.7296 116.348 12.022 116.348 11.1967C116.348 10.3714 116.485 9.66548 116.76 9.07884C117.039 8.49219 117.42 8.04309 117.904 7.73153C118.388 7.41998 118.936 7.2642 119.55 7.2642C120.023 7.2642 120.405 7.34375 120.693 7.50284C120.985 7.65862 121.21 7.84091 121.369 8.04972C121.532 8.25852 121.657 8.44247 121.747 8.60156H121.836V4.81818H123.323V15H121.871V13.8118H121.747C121.657 13.9742 121.528 14.1598 121.359 14.3686C121.193 14.5774 120.965 14.7597 120.673 14.9155C120.381 15.0713 120.004 15.1491 119.54 15.1491ZM119.868 13.8814C120.295 13.8814 120.657 13.7687 120.952 13.5433C121.25 13.3146 121.475 12.9981 121.628 12.5938C121.783 12.1894 121.861 11.7187 121.861 11.1818C121.861 10.6515 121.785 10.1875 121.633 9.78977C121.48 9.39205 121.256 9.08215 120.961 8.86009C120.666 8.63802 120.302 8.52699 119.868 8.52699C119.42 8.52699 119.047 8.64299 118.749 8.875C118.451 9.10701 118.225 9.42353 118.073 9.82457C117.924 10.2256 117.849 10.678 117.849 11.1818C117.849 11.6922 117.925 12.1513 118.078 12.5589C118.23 12.9666 118.456 13.2898 118.754 13.5284C119.056 13.7637 119.427 13.8814 119.868 13.8814Z" fill="#3B4758"/>
<rect x="1" y="26" width="382" height="56" rx="9" stroke="#292535" stroke-opacity="0.2" stroke-width="2"/>
<mask id="mask0_178_1127" style="mask-type:alpha" maskUnits="userSpaceOnUse" x="18" y="44" width="20" height="20">
<rect x="18" y="44" width="20" height="20" fill="#D9D9D9"/>
</mask>
<g mask="url(#mask0_178_1127)">
<path d="M22.9997 62.3335C22.5413 62.3335 22.1491 62.1704 21.823 61.8443C21.4963 61.5177 21.333 61.1252 21.333 60.6668V52.3335C21.333 51.8752 21.4963 51.4827 21.823 51.156C22.1491 50.8299 22.5413 50.6668 22.9997 50.6668H23.833V49.0002C23.833 47.8474 24.2394 46.8646 25.0522 46.0518C25.8644 45.2396 26.8469 44.8335 27.9997 44.8335C29.1525 44.8335 30.1352 45.2396 30.948 46.0518C31.7602 46.8646 32.1663 47.8474 32.1663 49.0002V50.6668H32.9997C33.458 50.6668 33.8505 50.8299 34.1772 51.156C34.5033 51.4827 34.6663 51.8752 34.6663 52.3335V60.6668C34.6663 61.1252 34.5033 61.5177 34.1772 61.8443C33.8505 62.1704 33.458 62.3335 32.9997 62.3335H22.9997ZM27.9997 58.1668C28.458 58.1668 28.8505 58.0038 29.1772 57.6777C29.5033 57.351 29.6663 56.9585 29.6663 56.5002C29.6663 56.0418 29.5033 55.6493 29.1772 55.3227C28.8505 54.9966 28.458 54.8335 27.9997 54.8335C27.5413 54.8335 27.1491 54.9966 26.823 55.3227C26.4963 55.6493 26.333 56.0418 26.333 56.5002C26.333 56.9585 26.4963 57.351 26.823 57.6777C27.1491 58.0038 27.5413 58.1668 27.9997 58.1668ZM25.4997 50.6668H30.4997V49.0002C30.4997 48.3057 30.2566 47.7154 29.7705 47.2293C29.2844 46.7432 28.6941 46.5002 27.9997 46.5002C27.3052 46.5002 26.715 46.7432 26.2288 47.2293C25.7427 47.7154 25.4997 48.3057 25.4997 49.0002V50.6668Z" fill="#616161"/>
</g>
<path d="M55.6364 56.3636H57.1818L58.4773 58.0682L58.8182 58.5227L60.75 61.0909H59.2045L57.9318 59.3864L57.6136 58.9545L55.6364 56.3636ZM61.2273 54.1818C61.2273 55.4091 61.0057 56.4697 60.5625 57.3636C60.1193 58.2576 59.5114 58.947 58.7386 59.4318C57.9659 59.9167 57.0833 60.1591 56.0909 60.1591C55.0985 60.1591 54.2159 59.9167 53.4432 59.4318C52.6705 58.947 52.0625 58.2576 51.6193 57.3636C51.1761 56.4697 50.9545 55.4091 50.9545 54.1818C50.9545 52.9545 51.1761 51.8939 51.6193 51C52.0625 50.1061 52.6705 49.4167 53.4432 48.9318C54.2159 48.447 55.0985 48.2045 56.0909 48.2045C57.0833 48.2045 57.9659 48.447 58.7386 48.9318C59.5114 49.4167 60.1193 50.1061 60.5625 51C61.0057 51.8939 61.2273 52.9545 61.2273 54.1818ZM59.8636 54.1818C59.8636 53.1742 59.6951 52.3239 59.358 51.6307C59.0246 50.9375 58.572 50.4129 58 50.0568C57.4318 49.7008 56.7955 49.5227 56.0909 49.5227C55.3864 49.5227 54.7481 49.7008 54.1761 50.0568C53.608 50.4129 53.1553 50.9375 52.8182 51.6307C52.4848 52.3239 52.3182 53.1742 52.3182 54.1818C52.3182 55.1894 52.4848 56.0398 52.8182 56.733C53.1553 57.4261 53.608 57.9508 54.1761 58.3068C54.7481 58.6629 55.3864 58.8409 56.0909 58.8409C56.7955 58.8409 57.4318 58.6629 58 58.3068C58.572 57.9508 59.0246 57.4261 59.358 56.733C59.6951 56.0398 59.8636 55.1894 59.8636 54.1818ZM65.3902 60L62.2084 48.3636H63.6402L66.072 57.8409H66.1857L68.663 48.3636H70.2539L72.7311 57.8409H72.8448L75.2766 48.3636H76.7084L73.5266 60H72.072L69.5039 50.7273H69.413L66.8448 60H65.3902ZM78.1441 60V48.3636H85.1668V49.6136H79.5532V53.5455H84.8032V54.7955H79.5532V58.75H85.2577V60H78.1441ZM91.273 48.3636V60H89.8639V49.8409H89.7957L86.9548 51.7273V50.2955L89.8639 48.3636H91.273ZM94.2995 60V58.9773L98.1405 54.7727C98.5912 54.2803 98.9624 53.8523 99.2541 53.4886C99.5458 53.1212 99.7617 52.7765 99.9018 52.4545C100.046 52.1288 100.118 51.7879 100.118 51.4318C100.118 51.0227 100.019 50.6686 99.8223 50.3693C99.6291 50.0701 99.3639 49.839 99.0268 49.6761C98.6897 49.5133 98.3109 49.4318 97.8905 49.4318C97.4435 49.4318 97.0533 49.5246 96.72 49.7102C96.3905 49.892 96.1348 50.1477 95.953 50.4773C95.7749 50.8068 95.6859 51.1932 95.6859 51.6364H94.345C94.345 50.9545 94.5022 50.3561 94.8166 49.8409C95.131 49.3258 95.559 48.9242 96.1007 48.6364C96.6461 48.3485 97.2579 48.2045 97.9359 48.2045C98.6177 48.2045 99.2219 48.3485 99.7484 48.6364C100.275 48.9242 100.688 49.3125 100.987 49.8011C101.286 50.2898 101.436 50.8333 101.436 51.4318C101.436 51.8598 101.358 52.2784 101.203 52.6875C101.051 53.0928 100.786 53.5455 100.408 54.0455C100.033 54.5417 99.5117 55.1477 98.845 55.8636L96.2314 58.6591V58.75H101.64V60H94.2995ZM107.599 60.1591C106.849 60.1591 106.18 60.0303 105.593 59.7727C105.01 59.5152 104.546 59.1572 104.201 58.6989C103.86 58.2367 103.675 57.7008 103.644 57.0909H105.076C105.106 57.4659 105.235 57.7898 105.463 58.0625C105.69 58.3314 105.987 58.5398 106.355 58.6875C106.722 58.8352 107.129 58.9091 107.576 58.9091C108.076 58.9091 108.519 58.822 108.906 58.6477C109.292 58.4735 109.595 58.2311 109.815 57.9205C110.034 57.6098 110.144 57.25 110.144 56.8409C110.144 56.4129 110.038 56.036 109.826 55.7102C109.614 55.3807 109.303 55.1231 108.894 54.9375C108.485 54.7519 107.985 54.6591 107.394 54.6591H106.463V53.4091H107.394C107.856 53.4091 108.262 53.3258 108.61 53.1591C108.963 52.9924 109.237 52.7576 109.434 52.4545C109.635 52.1515 109.735 51.7955 109.735 51.3864C109.735 50.9924 109.648 50.6496 109.474 50.358C109.3 50.0663 109.053 49.839 108.735 49.6761C108.421 49.5133 108.05 49.4318 107.622 49.4318C107.22 49.4318 106.841 49.5057 106.485 49.6534C106.133 49.7973 105.845 50.0076 105.622 50.2841C105.398 50.5568 105.277 50.8864 105.258 51.2727H103.894C103.917 50.6629 104.101 50.1288 104.445 49.6705C104.79 49.2083 105.241 48.8485 105.798 48.5909C106.358 48.3333 106.974 48.2045 107.644 48.2045C108.364 48.2045 108.981 48.3504 109.497 48.642C110.012 48.9299 110.408 49.3106 110.684 49.7841C110.961 50.2576 111.099 50.7689 111.099 51.3182C111.099 51.9735 110.927 52.5322 110.582 52.9943C110.241 53.4564 109.777 53.7765 109.19 53.9545V54.0455C109.925 54.1667 110.498 54.4792 110.911 54.983C111.324 55.483 111.531 56.1023 111.531 56.8409C111.531 57.4735 111.358 58.0417 111.014 58.5455C110.673 59.0455 110.207 59.4394 109.616 59.7273C109.025 60.0152 108.353 60.1591 107.599 60.1591ZM117.898 60L119.807 48.3636H120.944L119.035 60H117.898ZM112.603 56.7727L112.785 55.6364H121.466L121.285 56.7727H112.603ZM113.807 60L115.716 48.3636H116.853L114.944 60H113.807ZM113.285 52.7273L113.466 51.5909H122.148L121.966 52.7273H113.285Z" fill="#292535"/>
<mask id="mask1_178_1127" style="mask-type:alpha" maskUnits="userSpaceOnUse" x="346" y="44" width="20" height="20">
<rect x="346" y="44" width="20" height="20" fill="#D9D9D9"/>
</mask>
<g mask="url(#mask1_178_1127)">
<path d="M356 57.3335C357.042 57.3335 357.928 56.9691 358.657 56.2402C359.386 55.5107 359.75 54.6252 359.75 53.5835C359.75 52.5418 359.386 51.6563 358.657 50.9268C357.928 50.1979 357.042 49.8335 356 49.8335C354.959 49.8335 354.073 50.1979 353.344 50.9268C352.615 51.6563 352.25 52.5418 352.25 53.5835C352.25 54.6252 352.615 55.5107 353.344 56.2402C354.073 56.9691 354.959 57.3335 356 57.3335ZM356 55.8335C355.375 55.8335 354.844 55.6146 354.407 55.1768C353.969 54.7396 353.75 54.2085 353.75 53.5835C353.75 52.9585 353.969 52.4271 354.407 51.9893C354.844 51.5521 355.375 51.3335 356 51.3335C356.625 51.3335 357.157 51.5521 357.594 51.9893C358.032 52.4271 358.25 52.9585 358.25 53.5835C358.25 54.2085 358.032 54.7396 357.594 55.1768C357.157 55.6146 356.625 55.8335 356 55.8335ZM356 59.8335C354.07 59.8335 352.306 59.3232 350.709 58.3027C349.111 57.2816 347.903 55.9029 347.084 54.1668C347.042 54.0974 347.014 54.0104 347 53.906C346.986 53.8021 346.979 53.6946 346.979 53.5835C346.979 53.4724 346.986 53.3646 347 53.2602C347.014 53.1563 347.042 53.0696 347.084 53.0002C347.903 51.2641 349.111 49.8857 350.709 48.8652C352.306 47.8441 354.07 47.3335 356 47.3335C357.931 47.3335 359.695 47.8441 361.292 48.8652C362.889 49.8857 364.098 51.2641 364.917 53.0002C364.959 53.0696 364.986 53.1563 365 53.2602C365.014 53.3646 365.021 53.4724 365.021 53.5835C365.021 53.6946 365.014 53.8021 365 53.906C364.986 54.0104 364.959 54.0974 364.917 54.1668C364.098 55.9029 362.889 57.2816 361.292 58.3027C359.695 59.3232 357.931 59.8335 356 59.8335Z" fill="#616161"/>
</g>
<rect x="2" y="91" width="17" height="17" rx="3" fill="#1C7FF9"/>
<path d="M8 104.4L4 100.4L5.4 99L8 101.6L14.6 95L16 96.4L8 104.4Z" fill="white"/>
<path d="M33.6548 92.8182V103H32.1186V92.8182H33.6548ZM41.7001 103.169C41.2162 103.169 40.7787 103.08 40.3876 102.901C39.9965 102.718 39.6866 102.455 39.4579 102.11C39.2325 101.765 39.1199 101.343 39.1199 100.842C39.1199 100.411 39.2027 100.057 39.3684 99.7784C39.5342 99.5 39.7579 99.2796 40.0396 99.1172C40.3213 98.9548 40.6362 98.8321 40.9842 98.7493C41.3322 98.6664 41.6868 98.6035 42.0481 98.5604C42.5055 98.5073 42.8767 98.4643 43.1618 98.4311C43.4468 98.3946 43.6539 98.3366 43.7832 98.2571C43.9125 98.1776 43.9771 98.0483 43.9771 97.8693V97.8345C43.9771 97.4003 43.8545 97.0639 43.6092 96.8253C43.3672 96.5866 43.006 96.4673 42.5254 96.4673C42.0249 96.4673 41.6305 96.5784 41.3422 96.8004C41.0571 97.0192 40.8599 97.2628 40.7505 97.5312L39.3535 97.2131C39.5192 96.7491 39.7612 96.3745 40.0794 96.0895C40.4009 95.8011 40.7704 95.5923 41.188 95.4631C41.6056 95.3305 42.0448 95.2642 42.5055 95.2642C42.8104 95.2642 43.1336 95.3007 43.475 95.3736C43.8197 95.4432 44.1412 95.5724 44.4395 95.7614C44.7411 95.9503 44.988 96.2204 45.1802 96.5717C45.3725 96.9197 45.4686 97.3722 45.4686 97.929V103H44.0169V101.956H43.9572C43.8611 102.148 43.7169 102.337 43.5247 102.523C43.3324 102.708 43.0855 102.862 42.7839 102.985C42.4823 103.108 42.121 103.169 41.7001 103.169ZM42.0233 101.976C42.4342 101.976 42.7856 101.895 43.0772 101.732C43.3722 101.57 43.5959 101.358 43.7484 101.096C43.9042 100.831 43.9821 100.547 43.9821 100.246V99.2614C43.929 99.3144 43.8263 99.3641 43.6738 99.4105C43.5247 99.4536 43.354 99.4917 43.1618 99.5249C42.9695 99.5547 42.7823 99.5829 42.6 99.6094C42.4177 99.6326 42.2652 99.6525 42.1426 99.669C41.8542 99.7055 41.5907 99.7668 41.3521 99.853C41.1168 99.9392 40.9279 100.063 40.7853 100.226C40.6461 100.385 40.5765 100.597 40.5765 100.862C40.5765 101.23 40.7124 101.509 40.9842 101.697C41.256 101.883 41.6023 101.976 42.0233 101.976ZM50.6502 106.023C50.0437 106.023 49.5217 105.943 49.0842 105.784C48.65 105.625 48.2953 105.415 48.0202 105.153C47.7451 104.891 47.5397 104.604 47.4038 104.293L48.6815 103.766C48.771 103.911 48.8903 104.066 49.0394 104.228C49.1919 104.394 49.3974 104.535 49.6559 104.651C49.9177 104.767 50.2541 104.825 50.6651 104.825C51.2286 104.825 51.6942 104.687 52.0621 104.412C52.43 104.14 52.614 103.706 52.614 103.109V101.608H52.5195C52.43 101.77 52.3008 101.951 52.1317 102.15C51.966 102.349 51.7373 102.521 51.4457 102.667C51.154 102.813 50.7745 102.886 50.3072 102.886C49.704 102.886 49.1604 102.745 48.6765 102.463C48.1959 102.178 47.8147 101.759 47.533 101.205C47.2546 100.648 47.1154 99.964 47.1154 99.152C47.1154 98.34 47.253 97.6439 47.5281 97.0639C47.8065 96.4839 48.1876 96.0398 48.6715 95.7315C49.1554 95.42 49.704 95.2642 50.3171 95.2642C50.7911 95.2642 51.1739 95.3438 51.4656 95.5028C51.7572 95.6586 51.9843 95.8409 52.1467 96.0497C52.3124 96.2585 52.44 96.4425 52.5295 96.6016H52.6388V95.3636H54.0955V103.169C54.0955 103.825 53.9431 104.364 53.6381 104.785C53.3332 105.206 52.9206 105.517 52.4002 105.719C51.8832 105.922 51.2998 106.023 50.6502 106.023ZM50.6353 101.653C51.0629 101.653 51.4241 101.553 51.7191 101.354C52.0174 101.152 52.2428 100.864 52.3952 100.489C52.551 100.112 52.6289 99.6591 52.6289 99.1321C52.6289 98.6184 52.5527 98.166 52.4002 97.7749C52.2478 97.3838 52.024 97.0788 51.729 96.8601C51.4341 96.638 51.0695 96.527 50.6353 96.527C50.1879 96.527 49.815 96.643 49.5167 96.875C49.2184 97.1037 48.993 97.4152 48.8406 97.8097C48.6914 98.2041 48.6168 98.6449 48.6168 99.1321C48.6168 99.6326 48.6931 100.072 48.8455 100.45C48.998 100.827 49.2234 101.122 49.5217 101.335C49.8233 101.547 50.1945 101.653 50.6353 101.653ZM56.0891 103V95.3636H57.5259V96.5767H57.6055C57.7447 96.1657 57.9899 95.8426 58.3413 95.6072C58.6959 95.3686 59.0969 95.2493 59.5444 95.2493C59.6372 95.2493 59.7466 95.2526 59.8725 95.2592C60.0018 95.2659 60.1029 95.2741 60.1758 95.2841V96.706C60.1161 96.6894 60.0101 96.6712 59.8576 96.6513C59.7051 96.6281 59.5527 96.6165 59.4002 96.6165C59.0489 96.6165 58.7357 96.6911 58.4606 96.8402C58.1888 96.986 57.9734 97.1899 57.8143 97.4517C57.6552 97.7102 57.5756 98.0052 57.5756 98.3366V103H56.0891ZM64.4799 103.154C63.7276 103.154 63.0796 102.993 62.536 102.672C61.9958 102.347 61.5782 101.891 61.2832 101.305C60.9915 100.715 60.8457 100.024 60.8457 99.2315C60.8457 98.4493 60.9915 97.7599 61.2832 97.1634C61.5782 96.5668 61.9892 96.1011 62.5162 95.7663C63.0465 95.4316 63.6663 95.2642 64.3755 95.2642C64.8064 95.2642 65.224 95.3355 65.6284 95.478C66.0327 95.6205 66.3957 95.8442 66.7172 96.1491C67.0386 96.4541 67.2922 96.8501 67.4778 97.3374C67.6634 97.8213 67.7562 98.4096 67.7562 99.1023V99.6293H61.6859V98.5156H66.2995C66.2995 98.1245 66.22 97.7782 66.0609 97.4766C65.9018 97.1716 65.6781 96.9313 65.3897 96.7557C65.1047 96.58 64.7699 96.4922 64.3855 96.4922C63.9679 96.4922 63.6033 96.5949 63.2917 96.8004C62.9835 97.0026 62.7449 97.2678 62.5758 97.5959C62.4101 97.9207 62.3272 98.2737 62.3272 98.6548V99.5249C62.3272 100.035 62.4167 100.469 62.5957 100.827C62.778 101.185 63.0315 101.459 63.3564 101.648C63.6812 101.833 64.0607 101.926 64.4949 101.926C64.7766 101.926 65.0334 101.886 65.2654 101.807C65.4975 101.724 65.698 101.601 65.867 101.439C66.036 101.277 66.1653 101.076 66.2548 100.837L67.6618 101.091C67.5491 101.505 67.3469 101.868 67.0552 102.18C66.7669 102.488 66.4039 102.728 65.9664 102.901C65.5323 103.07 65.0368 103.154 64.4799 103.154ZM72.6967 103.154C71.9444 103.154 71.2964 102.993 70.7528 102.672C70.2126 102.347 69.795 101.891 69.5 101.305C69.2083 100.715 69.0625 100.024 69.0625 99.2315C69.0625 98.4493 69.2083 97.7599 69.5 97.1634C69.795 96.5668 70.206 96.1011 70.733 95.7663C71.2633 95.4316 71.883 95.2642 72.5923 95.2642C73.0232 95.2642 73.4408 95.3355 73.8452 95.478C74.2495 95.6205 74.6125 95.8442 74.9339 96.1491C75.2554 96.4541 75.509 96.8501 75.6946 97.3374C75.8802 97.8213 75.973 98.4096 75.973 99.1023V99.6293H69.9027V98.5156H74.5163C74.5163 98.1245 74.4368 97.7782 74.2777 97.4766C74.1186 97.1716 73.8949 96.9313 73.6065 96.7557C73.3215 96.58 72.9867 96.4922 72.6023 96.4922C72.1847 96.4922 71.8201 96.5949 71.5085 96.8004C71.2003 97.0026 70.9616 97.2678 70.7926 97.5959C70.6269 97.9207 70.544 98.2737 70.544 98.6548V99.5249C70.544 100.035 70.6335 100.469 70.8125 100.827C70.9948 101.185 71.2483 101.459 71.5732 101.648C71.898 101.833 72.2775 101.926 72.7116 101.926C72.9934 101.926 73.2502 101.886 73.4822 101.807C73.7143 101.724 73.9148 101.601 74.0838 101.439C74.2528 101.277 74.3821 101.076 74.4716 100.837L75.8786 101.091C75.7659 101.505 75.5637 101.868 75.272 102.18C74.9837 102.488 74.6207 102.728 74.1832 102.901C73.7491 103.07 73.2536 103.154 72.6967 103.154ZM84.892 95.3636V96.5568H80.7209V95.3636H84.892ZM81.8395 93.5341H83.326V100.758C83.326 101.046 83.3691 101.263 83.4553 101.409C83.5414 101.552 83.6525 101.649 83.7884 101.702C83.9276 101.752 84.0784 101.777 84.2408 101.777C84.3601 101.777 84.4645 101.769 84.554 101.752C84.6435 101.736 84.7131 101.722 84.7628 101.712L85.0312 102.94C84.9451 102.973 84.8224 103.007 84.6634 103.04C84.5043 103.076 84.3054 103.096 84.0668 103.099C83.6757 103.106 83.3111 103.036 82.973 102.891C82.6349 102.745 82.3615 102.519 82.1527 102.214C81.9439 101.91 81.8395 101.527 81.8395 101.066V93.5341ZM89.671 103.154C88.9551 103.154 88.3303 102.99 87.7967 102.662C87.2631 102.334 86.8488 101.875 86.5538 101.285C86.2588 100.695 86.1113 100.005 86.1113 99.2166C86.1113 98.4245 86.2588 97.7318 86.5538 97.1385C86.8488 96.5452 87.2631 96.0845 87.7967 95.7564C88.3303 95.4283 88.9551 95.2642 89.671 95.2642C90.3869 95.2642 91.0117 95.4283 91.5453 95.7564C92.0789 96.0845 92.4932 96.5452 92.7882 97.1385C93.0832 97.7318 93.2306 98.4245 93.2306 99.2166C93.2306 100.005 93.0832 100.695 92.7882 101.285C92.4932 101.875 92.0789 102.334 91.5453 102.662C91.0117 102.99 90.3869 103.154 89.671 103.154ZM89.676 101.906C90.14 101.906 90.5244 101.784 90.8294 101.538C91.1343 101.293 91.3597 100.967 91.5055 100.559C91.6547 100.151 91.7292 99.7022 91.7292 99.2116C91.7292 98.7244 91.6547 98.277 91.5055 97.8693C91.3597 97.4583 91.1343 97.1286 90.8294 96.88C90.5244 96.6314 90.14 96.5071 89.676 96.5071C89.2086 96.5071 88.8208 96.6314 88.5126 96.88C88.2077 97.1286 87.9806 97.4583 87.8315 97.8693C87.6857 98.277 87.6127 98.7244 87.6127 99.2116C87.6127 99.7022 87.6857 100.151 87.8315 100.559C87.9806 100.967 88.2077 101.293 88.5126 101.538C88.8208 101.784 89.2086 101.906 89.676 101.906ZM102.16 95.3636V96.5568H97.9885V95.3636H102.16ZM99.1071 93.5341H100.594V100.758C100.594 101.046 100.637 101.263 100.723 101.409C100.809 101.552 100.92 101.649 101.056 101.702C101.195 101.752 101.346 101.777 101.508 101.777C101.628 101.777 101.732 101.769 101.822 101.752C101.911 101.736 101.981 101.722 102.03 101.712L102.299 102.94C102.213 102.973 102.09 103.007 101.931 103.04C101.772 103.076 101.573 103.096 101.334 103.099C100.943 103.106 100.579 103.036 100.241 102.891C99.9025 102.745 99.6291 102.519 99.4203 102.214C99.2115 101.91 99.1071 101.527 99.1071 101.066V93.5341ZM105.455 98.4659V103H103.968V92.8182H105.435V96.6065H105.529C105.708 96.1955 105.982 95.8691 106.349 95.6271C106.717 95.3852 107.198 95.2642 107.791 95.2642C108.315 95.2642 108.772 95.3719 109.163 95.5874C109.558 95.8028 109.863 96.1243 110.078 96.5518C110.297 96.9761 110.406 97.5064 110.406 98.1428V103H108.92V98.3217C108.92 97.7616 108.776 97.3274 108.487 97.0192C108.199 96.7076 107.798 96.5518 107.284 96.5518C106.933 96.5518 106.618 96.6264 106.339 96.7756C106.064 96.9247 105.847 97.1435 105.688 97.4318C105.532 97.7169 105.455 98.0616 105.455 98.4659ZM115.681 103.154C114.929 103.154 114.281 102.993 113.737 102.672C113.197 102.347 112.779 101.891 112.484 101.305C112.193 100.715 112.047 100.024 112.047 99.2315C112.047 98.4493 112.193 97.7599 112.484 97.1634C112.779 96.5668 113.19 96.1011 113.717 95.7663C114.248 95.4316 114.867 95.2642 115.577 95.2642C116.008 95.2642 116.425 95.3355 116.83 95.478C117.234 95.6205 117.597 95.8442 117.918 96.1491C118.24 96.4541 118.493 96.8501 118.679 97.3374C118.865 97.8213 118.957 98.4096 118.957 99.1023V99.6293H112.887V98.5156H117.501C117.501 98.1245 117.421 97.7782 117.262 97.4766C117.103 97.1716 116.879 96.9313 116.591 96.7557C116.306 96.58 115.971 96.4922 115.587 96.4922C115.169 96.4922 114.804 96.5949 114.493 96.8004C114.185 97.0026 113.946 97.2678 113.777 97.5959C113.611 97.9207 113.528 98.2737 113.528 98.6548V99.5249C113.528 100.035 113.618 100.469 113.797 100.827C113.979 101.185 114.233 101.459 114.558 101.648C114.882 101.833 115.262 101.926 115.696 101.926C115.978 101.926 116.235 101.886 116.467 101.807C116.699 101.724 116.899 101.601 117.068 101.439C117.237 101.277 117.366 101.076 117.456 100.837L118.863 101.091C118.75 101.505 118.548 101.868 118.256 102.18C117.968 102.488 117.605 102.728 117.168 102.901C116.733 103.07 116.238 103.154 115.681 103.154ZM260.6 103.169C260.117 103.169 259.679 103.08 259.288 102.901C258.897 102.718 258.587 102.455 258.358 102.11C258.133 101.765 258.02 101.343 258.02 100.842C258.02 100.411 258.103 100.057 258.269 99.7784C258.435 99.5 258.658 99.2796 258.94 99.1172C259.222 98.9548 259.537 98.8321 259.885 98.7493C260.233 98.6664 260.587 98.6035 260.949 98.5604C261.406 98.5073 261.777 98.4643 262.062 98.4311C262.347 98.3946 262.554 98.3366 262.684 98.2571C262.813 98.1776 262.877 98.0483 262.877 97.8693V97.8345C262.877 97.4003 262.755 97.0639 262.51 96.8253C262.268 96.5866 261.906 96.4673 261.426 96.4673C260.925 96.4673 260.531 96.5784 260.243 96.8004C259.958 97.0192 259.76 97.2628 259.651 97.5312L258.254 97.2131C258.42 96.7491 258.662 96.3745 258.98 96.0895C259.301 95.8011 259.671 95.5923 260.088 95.4631C260.506 95.3305 260.945 95.2642 261.406 95.2642C261.711 95.2642 262.034 95.3007 262.375 95.3736C262.72 95.4432 263.042 95.5724 263.34 95.7614C263.641 95.9503 263.888 96.2204 264.081 96.5717C264.273 96.9197 264.369 97.3722 264.369 97.929V103H262.917V101.956H262.858C262.761 102.148 262.617 102.337 262.425 102.523C262.233 102.708 261.986 102.862 261.684 102.985C261.383 103.108 261.021 103.169 260.6 103.169ZM260.924 101.976C261.335 101.976 261.686 101.895 261.978 101.732C262.273 101.57 262.496 101.358 262.649 101.096C262.805 100.831 262.882 100.547 262.882 100.246V99.2614C262.829 99.3144 262.727 99.3641 262.574 99.4105C262.425 99.4536 262.254 99.4917 262.062 99.5249C261.87 99.5547 261.683 99.5829 261.5 99.6094C261.318 99.6326 261.166 99.6525 261.043 99.669C260.755 99.7055 260.491 99.7668 260.252 99.853C260.017 99.9392 259.828 100.063 259.686 100.226C259.547 100.385 259.477 100.597 259.477 100.862C259.477 101.23 259.613 101.509 259.885 101.697C260.156 101.883 260.503 101.976 260.924 101.976ZM267.835 98.4659V103H266.349V95.3636H267.776V96.6065H267.87C268.046 96.2022 268.321 95.8774 268.695 95.6321C269.073 95.3868 269.549 95.2642 270.122 95.2642C270.643 95.2642 271.098 95.3736 271.49 95.5923C271.881 95.8078 272.184 96.1293 272.399 96.5568C272.615 96.9844 272.722 97.513 272.722 98.1428V103H271.236V98.3217C271.236 97.7682 271.092 97.3357 270.803 97.0241C270.515 96.7093 270.119 96.5518 269.615 96.5518C269.271 96.5518 268.964 96.6264 268.695 96.7756C268.43 96.9247 268.22 97.1435 268.064 97.4318C267.912 97.7169 267.835 98.0616 267.835 98.4659ZM277.575 103.149C276.958 103.149 276.408 102.992 275.924 102.677C275.444 102.359 275.066 101.906 274.791 101.32C274.519 100.73 274.383 100.022 274.383 99.1967C274.383 98.3714 274.521 97.6655 274.796 97.0788C275.074 96.4922 275.455 96.0431 275.939 95.7315C276.423 95.42 276.972 95.2642 277.585 95.2642C278.059 95.2642 278.44 95.3438 278.728 95.5028C279.02 95.6586 279.245 95.8409 279.404 96.0497C279.567 96.2585 279.693 96.4425 279.782 96.6016H279.872V92.8182H281.358V103H279.906V101.812H279.782C279.693 101.974 279.563 102.16 279.394 102.369C279.229 102.577 279 102.76 278.708 102.915C278.417 103.071 278.039 103.149 277.575 103.149ZM277.903 101.881C278.33 101.881 278.692 101.769 278.987 101.543C279.285 101.315 279.51 100.998 279.663 100.594C279.819 100.189 279.896 99.7187 279.896 99.1818C279.896 98.6515 279.82 98.1875 279.668 97.7898C279.515 97.392 279.292 97.0821 278.997 96.8601C278.702 96.638 278.337 96.527 277.903 96.527C277.455 96.527 277.083 96.643 276.784 96.875C276.486 97.107 276.261 97.4235 276.108 97.8246C275.959 98.2256 275.884 98.678 275.884 99.1818C275.884 99.6922 275.961 100.151 276.113 100.559C276.266 100.967 276.491 101.29 276.789 101.528C277.091 101.764 277.462 101.881 277.903 101.881Z" fill="#616161"/>
<path d="M123.929 94.1406V92.8182H131.809V94.1406H128.632V103H127.101V94.1406H123.929ZM135.615 103.154C134.862 103.154 134.214 102.993 133.671 102.672C133.131 102.347 132.713 101.891 132.418 101.305C132.126 100.715 131.98 100.024 131.98 99.2315C131.98 98.4493 132.126 97.7599 132.418 97.1634C132.713 96.5668 133.124 96.1011 133.651 95.7663C134.181 95.4316 134.801 95.2642 135.51 95.2642C135.941 95.2642 136.359 95.3355 136.763 95.478C137.167 95.6205 137.53 95.8442 137.852 96.1491C138.173 96.4541 138.427 96.8501 138.613 97.3374C138.798 97.8213 138.891 98.4096 138.891 99.1023V99.6293H132.821V98.5156H137.434C137.434 98.1245 137.355 97.7782 137.196 97.4766C137.037 97.1716 136.813 96.9313 136.525 96.7557C136.239 96.58 135.905 96.4922 135.52 96.4922C135.103 96.4922 134.738 96.5949 134.426 96.8004C134.118 97.0026 133.88 97.2678 133.711 97.5959C133.545 97.9207 133.462 98.2737 133.462 98.6548V99.5249C133.462 100.035 133.551 100.469 133.73 100.827C133.913 101.185 134.166 101.459 134.491 101.648C134.816 101.833 135.195 101.926 135.63 101.926C135.911 101.926 136.168 101.886 136.4 101.807C136.632 101.724 136.833 101.601 137.002 101.439C137.171 101.277 137.3 101.076 137.39 100.837L138.797 101.091C138.684 101.505 138.482 101.868 138.19 102.18C137.902 102.488 137.539 102.728 137.101 102.901C136.667 103.07 136.172 103.154 135.615 103.154ZM140.54 103V95.3636H141.977V96.5767H142.057C142.196 96.1657 142.441 95.8426 142.792 95.6072C143.147 95.3686 143.548 95.2493 143.996 95.2493C144.088 95.2493 144.198 95.2526 144.324 95.2592C144.453 95.2659 144.554 95.2741 144.627 95.2841V96.706C144.567 96.6894 144.461 96.6712 144.309 96.6513C144.156 96.6281 144.004 96.6165 143.851 96.6165C143.5 96.6165 143.187 96.6911 142.912 96.8402C142.64 96.986 142.425 97.1899 142.265 97.4517C142.106 97.7102 142.027 98.0052 142.027 98.3366V103H140.54ZM145.913 103V95.3636H147.34V96.6065H147.435C147.594 96.1856 147.854 95.8575 148.215 95.6222C148.576 95.3835 149.009 95.2642 149.513 95.2642C150.023 95.2642 150.451 95.3835 150.795 95.6222C151.143 95.8608 151.4 96.1889 151.566 96.6065H151.646C151.828 96.1989 152.118 95.8741 152.516 95.6321C152.913 95.3868 153.387 95.2642 153.938 95.2642C154.63 95.2642 155.195 95.4813 155.633 95.9155C156.074 96.3497 156.294 97.0043 156.294 97.8793V103H154.808V98.0185C154.808 97.5014 154.667 97.1269 154.385 96.8949C154.103 96.6629 153.767 96.5469 153.376 96.5469C152.892 96.5469 152.516 96.696 152.247 96.9943C151.979 97.2893 151.844 97.6688 151.844 98.1328V103H150.363V97.924C150.363 97.5097 150.234 97.1766 149.975 96.9247C149.717 96.6728 149.38 96.5469 148.966 96.5469C148.684 96.5469 148.424 96.6214 148.185 96.7706C147.95 96.9164 147.759 97.1203 147.614 97.3821C147.471 97.6439 147.4 97.9472 147.4 98.2919V103H145.913ZM164.009 97.228L162.661 97.4666C162.605 97.2943 162.516 97.1302 162.393 96.9744C162.274 96.8187 162.111 96.6911 161.906 96.5916C161.7 96.4922 161.443 96.4425 161.135 96.4425C160.714 96.4425 160.363 96.5369 160.081 96.7259C159.799 96.9115 159.659 97.1518 159.659 97.4467C159.659 97.7019 159.753 97.9074 159.942 98.0632C160.131 98.219 160.436 98.3466 160.857 98.446L162.07 98.7244C162.772 98.8868 163.296 99.1371 163.641 99.4751C163.985 99.8132 164.158 100.252 164.158 100.793C164.158 101.25 164.025 101.658 163.76 102.016C163.498 102.37 163.132 102.649 162.661 102.851C162.194 103.053 161.652 103.154 161.036 103.154C160.181 103.154 159.483 102.972 158.943 102.607C158.402 102.239 158.071 101.717 157.948 101.041L159.385 100.822C159.475 101.197 159.659 101.48 159.937 101.673C160.215 101.862 160.578 101.956 161.026 101.956C161.513 101.956 161.902 101.855 162.194 101.653C162.486 101.447 162.632 101.197 162.632 100.902C162.632 100.663 162.542 100.463 162.363 100.3C162.187 100.138 161.917 100.015 161.553 99.9325L160.26 99.6491C159.548 99.4867 159.021 99.2282 158.679 98.8736C158.341 98.5189 158.172 98.0698 158.172 97.5263C158.172 97.0755 158.298 96.6811 158.55 96.343C158.802 96.005 159.15 95.7415 159.594 95.5526C160.038 95.3603 160.547 95.2642 161.12 95.2642C161.945 95.2642 162.595 95.4432 163.069 95.8011C163.543 96.1558 163.856 96.6314 164.009 97.228ZM172.46 103.144C171.778 103.144 171.189 103.02 170.695 102.771C170.205 102.523 169.827 102.185 169.562 101.757C169.297 101.326 169.164 100.839 169.164 100.295C169.164 99.8812 169.25 99.5133 169.423 99.1918C169.595 98.867 169.835 98.567 170.144 98.2919C170.452 98.0168 170.808 97.7401 171.213 97.4616L172.853 96.3033C173.132 96.121 173.349 95.9287 173.504 95.7266C173.66 95.5211 173.738 95.2675 173.738 94.9659C173.738 94.7273 173.635 94.4986 173.43 94.2798C173.224 94.0611 172.949 93.9517 172.605 93.9517C172.366 93.9517 172.155 94.0097 171.973 94.1257C171.794 94.2417 171.653 94.3909 171.551 94.5732C171.451 94.7521 171.401 94.9411 171.401 95.1399C171.401 95.3719 171.464 95.6056 171.59 95.8409C171.72 96.0762 171.885 96.3198 172.088 96.5717C172.29 96.8203 172.502 97.0788 172.724 97.3473L177.452 103H175.771L171.859 98.4013C171.531 98.0135 171.226 97.6489 170.944 97.3075C170.662 96.9628 170.434 96.6148 170.258 96.2635C170.086 95.9089 169.999 95.526 169.999 95.1151C169.999 94.6477 170.106 94.2334 170.318 93.8722C170.533 93.5076 170.833 93.2225 171.218 93.017C171.602 92.8116 172.053 92.7088 172.57 92.7088C173.093 92.7088 173.543 92.8116 173.917 93.017C174.295 93.2192 174.585 93.4893 174.787 93.8274C174.993 94.1622 175.095 94.5284 175.095 94.9261C175.095 95.41 174.974 95.8376 174.732 96.2088C174.494 96.5767 174.164 96.9148 173.743 97.223L171.7 98.7294C171.302 99.0211 171.025 99.3094 170.869 99.5945C170.717 99.8762 170.641 100.097 170.641 100.256C170.641 100.547 170.715 100.817 170.865 101.066C171.017 101.315 171.229 101.513 171.501 101.663C171.776 101.812 172.097 101.886 172.465 101.886C172.843 101.886 173.211 101.805 173.569 101.643C173.93 101.477 174.257 101.24 174.548 100.932C174.843 100.624 175.077 100.254 175.249 99.8232C175.422 99.3923 175.508 98.91 175.508 98.3764H176.85C176.85 99.0327 176.776 99.5878 176.627 100.042C176.477 100.493 176.297 100.861 176.085 101.146C175.876 101.427 175.679 101.648 175.493 101.807C175.433 101.86 175.377 101.913 175.324 101.966C175.271 102.019 175.215 102.072 175.155 102.125C174.81 102.473 174.393 102.73 173.902 102.896C173.415 103.061 172.934 103.144 172.46 103.144ZM190.898 96.1293H189.346C189.287 95.7978 189.176 95.5062 189.013 95.2543C188.851 95.0024 188.652 94.7886 188.417 94.6129C188.181 94.4373 187.918 94.3047 187.626 94.2152C187.338 94.1257 187.031 94.081 186.706 94.081C186.12 94.081 185.595 94.2285 185.131 94.5234C184.67 94.8184 184.305 95.2509 184.037 95.821C183.772 96.3911 183.639 97.0871 183.639 97.9091C183.639 98.7377 183.772 99.437 184.037 100.007C184.305 100.577 184.671 101.008 185.135 101.3C185.599 101.591 186.122 101.737 186.702 101.737C187.023 101.737 187.328 101.694 187.616 101.608C187.908 101.518 188.171 101.388 188.407 101.215C188.642 101.043 188.841 100.832 189.003 100.584C189.169 100.332 189.283 100.044 189.346 99.7188L190.898 99.7237C190.815 100.224 190.654 100.685 190.415 101.106C190.18 101.523 189.877 101.885 189.506 102.19C189.138 102.491 188.717 102.725 188.243 102.891C187.769 103.056 187.252 103.139 186.692 103.139C185.81 103.139 185.024 102.93 184.335 102.513C183.646 102.092 183.102 101.49 182.704 100.708C182.31 99.9259 182.113 98.9929 182.113 97.9091C182.113 96.822 182.312 95.889 182.709 95.1101C183.107 94.3279 183.651 93.728 184.34 93.3104C185.029 92.8894 185.813 92.679 186.692 92.679C187.232 92.679 187.736 92.7569 188.203 92.9126C188.674 93.0651 189.096 93.2905 189.471 93.5888C189.845 93.8838 190.155 94.245 190.4 94.6726C190.646 95.0968 190.811 95.5824 190.898 96.1293ZM195.833 103.154C195.117 103.154 194.492 102.99 193.959 102.662C193.425 102.334 193.011 101.875 192.716 101.285C192.421 100.695 192.273 100.005 192.273 99.2166C192.273 98.4245 192.421 97.7318 192.716 97.1385C193.011 96.5452 193.425 96.0845 193.959 95.7564C194.492 95.4283 195.117 95.2642 195.833 95.2642C196.549 95.2642 197.174 95.4283 197.707 95.7564C198.241 96.0845 198.655 96.5452 198.95 97.1385C199.245 97.7318 199.393 98.4245 199.393 99.2166C199.393 100.005 199.245 100.695 198.95 101.285C198.655 101.875 198.241 102.334 197.707 102.662C197.174 102.99 196.549 103.154 195.833 103.154ZM195.838 101.906C196.302 101.906 196.687 101.784 196.991 101.538C197.296 101.293 197.522 100.967 197.668 100.559C197.817 100.151 197.891 99.7022 197.891 99.2116C197.891 98.7244 197.817 98.277 197.668 97.8693C197.522 97.4583 197.296 97.1286 196.991 96.88C196.687 96.6314 196.302 96.5071 195.838 96.5071C195.371 96.5071 194.983 96.6314 194.675 96.88C194.37 97.1286 194.143 97.4583 193.994 97.8693C193.848 98.277 193.775 98.7244 193.775 99.2116C193.775 99.7022 193.848 100.151 193.994 100.559C194.143 100.967 194.37 101.293 194.675 101.538C194.983 101.784 195.371 101.906 195.838 101.906ZM202.539 98.4659V103H201.052V95.3636H202.479V96.6065H202.573C202.749 96.2022 203.024 95.8774 203.399 95.6321C203.776 95.3868 204.252 95.2642 204.825 95.2642C205.346 95.2642 205.802 95.3736 206.193 95.5923C206.584 95.8078 206.887 96.1293 207.102 96.5568C207.318 96.9844 207.426 97.513 207.426 98.1428V103H205.939V98.3217C205.939 97.7682 205.795 97.3357 205.507 97.0241C205.218 96.7093 204.822 96.5518 204.318 96.5518C203.974 96.5518 203.667 96.6264 203.399 96.7756C203.133 96.9247 202.923 97.1435 202.767 97.4318C202.615 97.7169 202.539 98.0616 202.539 98.4659ZM212.278 103.149C211.661 103.149 211.111 102.992 210.627 102.677C210.147 102.359 209.769 101.906 209.494 101.32C209.222 100.73 209.086 100.022 209.086 99.1967C209.086 98.3714 209.224 97.6655 209.499 97.0788C209.777 96.4922 210.158 96.0431 210.642 95.7315C211.126 95.42 211.675 95.2642 212.288 95.2642C212.762 95.2642 213.143 95.3438 213.431 95.5028C213.723 95.6586 213.948 95.8409 214.107 96.0497C214.27 96.2585 214.396 96.4425 214.485 96.6016H214.575V92.8182H216.061V103H214.61V101.812H214.485C214.396 101.974 214.267 102.16 214.097 102.369C213.932 102.577 213.703 102.76 213.411 102.915C213.12 103.071 212.742 103.149 212.278 103.149ZM212.606 101.881C213.034 101.881 213.395 101.769 213.69 101.543C213.988 101.315 214.213 100.998 214.366 100.594C214.522 100.189 214.6 99.7187 214.6 99.1818C214.6 98.6515 214.523 98.1875 214.371 97.7898C214.218 97.392 213.995 97.0821 213.7 96.8601C213.405 96.638 213.04 96.527 212.606 96.527C212.159 96.527 211.786 96.643 211.487 96.875C211.189 97.107 210.964 97.4235 210.811 97.8246C210.662 98.2256 210.588 98.678 210.588 99.1818C210.588 99.6922 210.664 100.151 210.816 100.559C210.969 100.967 211.194 101.29 211.492 101.528C211.794 101.764 212.165 101.881 212.606 101.881ZM218.183 103V95.3636H219.669V103H218.183ZM218.934 94.1854C218.675 94.1854 218.453 94.0992 218.267 93.9268C218.085 93.7512 217.994 93.5424 217.994 93.3004C217.994 93.0552 218.085 92.8464 218.267 92.674C218.453 92.4983 218.675 92.4105 218.934 92.4105C219.192 92.4105 219.413 92.4983 219.595 92.674C219.78 92.8464 219.873 93.0552 219.873 93.3004C219.873 93.5424 219.78 93.7512 219.595 93.9268C219.413 94.0992 219.192 94.1854 218.934 94.1854ZM225.234 95.3636V96.5568H221.063V95.3636H225.234ZM222.181 93.5341H223.668V100.758C223.668 101.046 223.711 101.263 223.797 101.409C223.883 101.552 223.994 101.649 224.13 101.702C224.269 101.752 224.42 101.777 224.583 101.777C224.702 101.777 224.806 101.769 224.896 101.752C224.985 101.736 225.055 101.722 225.105 101.712L225.373 102.94C225.287 102.973 225.164 103.007 225.005 103.04C224.846 103.076 224.647 103.096 224.409 103.099C224.017 103.106 223.653 103.036 223.315 102.891C222.977 102.745 222.703 102.519 222.494 102.214C222.286 101.91 222.181 101.527 222.181 101.066V93.5341ZM226.878 103V95.3636H228.365V103H226.878ZM227.629 94.1854C227.37 94.1854 227.148 94.0992 226.963 93.9268C226.78 93.7512 226.689 93.5424 226.689 93.3004C226.689 93.0552 226.78 92.8464 226.963 92.674C227.148 92.4983 227.37 92.4105 227.629 92.4105C227.887 92.4105 228.108 92.4983 228.29 92.674C228.476 92.8464 228.569 93.0552 228.569 93.3004C228.569 93.5424 228.476 93.7512 228.29 93.9268C228.108 94.0992 227.887 94.1854 227.629 94.1854ZM233.581 103.154C232.865 103.154 232.24 102.99 231.707 102.662C231.173 102.334 230.759 101.875 230.464 101.285C230.169 100.695 230.021 100.005 230.021 99.2166C230.021 98.4245 230.169 97.7318 230.464 97.1385C230.759 96.5452 231.173 96.0845 231.707 95.7564C232.24 95.4283 232.865 95.2642 233.581 95.2642C234.297 95.2642 234.922 95.4283 235.455 95.7564C235.989 96.0845 236.403 96.5452 236.698 97.1385C236.993 97.7318 237.141 98.4245 237.141 99.2166C237.141 100.005 236.993 100.695 236.698 101.285C236.403 101.875 235.989 102.334 235.455 102.662C234.922 102.99 234.297 103.154 233.581 103.154ZM233.586 101.906C234.05 101.906 234.435 101.784 234.74 101.538C235.044 101.293 235.27 100.967 235.416 100.559C235.565 100.151 235.639 99.7022 235.639 99.2116C235.639 98.7244 235.565 98.277 235.416 97.8693C235.27 97.4583 235.044 97.1286 234.74 96.88C234.435 96.6314 234.05 96.5071 233.586 96.5071C233.119 96.5071 232.731 96.6314 232.423 96.88C232.118 97.1286 231.891 97.4583 231.742 97.8693C231.596 98.277 231.523 98.7244 231.523 99.2116C231.523 99.7022 231.596 100.151 231.742 100.559C231.891 100.967 232.118 101.293 232.423 101.538C232.731 101.784 233.119 101.906 233.586 101.906ZM240.287 98.4659V103H238.8V95.3636H240.227V96.6065H240.321C240.497 96.2022 240.772 95.8774 241.147 95.6321C241.525 95.3868 242 95.2642 242.574 95.2642C243.094 95.2642 243.55 95.3736 243.941 95.5923C244.332 95.8078 244.635 96.1293 244.85 96.5568C245.066 96.9844 245.174 97.513 245.174 98.1428V103H243.687V98.3217C243.687 97.7682 243.543 97.3357 243.255 97.0241C242.966 96.7093 242.57 96.5518 242.066 96.5518C241.722 96.5518 241.415 96.6264 241.147 96.7756C240.882 96.9247 240.671 97.1435 240.515 97.4318C240.363 97.7169 240.287 98.0616 240.287 98.4659ZM252.89 97.228L251.542 97.4666C251.486 97.2943 251.396 97.1302 251.274 96.9744C251.154 96.8187 250.992 96.6911 250.787 96.5916C250.581 96.4922 250.324 96.4425 250.016 96.4425C249.595 96.4425 249.244 96.5369 248.962 96.7259C248.68 96.9115 248.539 97.1518 248.539 97.4467C248.539 97.7019 248.634 97.9074 248.823 98.0632C249.012 98.219 249.317 98.3466 249.738 98.446L250.951 98.7244C251.653 98.8868 252.177 99.1371 252.522 99.4751C252.866 99.8132 253.039 100.252 253.039 100.793C253.039 101.25 252.906 101.658 252.641 102.016C252.379 102.37 252.013 102.649 251.542 102.851C251.075 103.053 250.533 103.154 249.917 103.154C249.061 103.154 248.364 102.972 247.824 102.607C247.283 102.239 246.952 101.717 246.829 101.041L248.266 100.822C248.355 101.197 248.539 101.48 248.818 101.673C249.096 101.862 249.459 101.956 249.907 101.956C250.394 101.956 250.783 101.855 251.075 101.653C251.367 101.447 251.512 101.197 251.512 100.902C251.512 100.663 251.423 100.463 251.244 100.3C251.068 100.138 250.798 100.015 250.434 99.9325L249.141 99.6491C248.428 99.4867 247.901 99.2282 247.56 98.8736C247.222 98.5189 247.053 98.0698 247.053 97.5263C247.053 97.0755 247.179 96.6811 247.431 96.343C247.683 96.005 248.031 95.7415 248.475 95.5526C248.919 95.3603 249.428 95.2642 250.001 95.2642C250.826 95.2642 251.476 95.4432 251.95 95.8011C252.424 96.1558 252.737 96.6314 252.89 97.228ZM287.304 103V92.8182H290.933C291.726 92.8182 292.382 92.9624 292.902 93.2507C293.423 93.5391 293.812 93.9335 294.07 94.4339C294.329 94.9311 294.458 95.4912 294.458 96.1143C294.458 96.7408 294.327 97.3042 294.066 97.8047C293.807 98.3018 293.416 98.6963 292.892 98.9879C292.372 99.2763 291.717 99.4205 290.928 99.4205H288.433V98.1179H290.789C291.29 98.1179 291.696 98.0317 292.007 97.8594C292.319 97.6837 292.548 97.4451 292.693 97.1435C292.839 96.8419 292.912 96.4988 292.912 96.1143C292.912 95.7299 292.839 95.3885 292.693 95.0902C292.548 94.7919 292.317 94.5582 292.002 94.3892C291.691 94.2202 291.28 94.1357 290.769 94.1357H288.84V103H287.304ZM296.14 103V95.3636H297.577V96.5767H297.656C297.795 96.1657 298.041 95.8426 298.392 95.6072C298.747 95.3686 299.148 95.2493 299.595 95.2493C299.688 95.2493 299.797 95.2526 299.923 95.2592C300.053 95.2659 300.154 95.2741 300.227 95.2841V96.706C300.167 96.6894 300.061 96.6712 299.908 96.6513C299.756 96.6281 299.603 96.6165 299.451 96.6165C299.1 96.6165 298.786 96.6911 298.511 96.8402C298.24 96.986 298.024 97.1899 297.865 97.4517C297.706 97.7102 297.626 98.0052 297.626 98.3366V103H296.14ZM301.513 103V95.3636H302.999V103H301.513ZM302.264 94.1854C302.005 94.1854 301.783 94.0992 301.597 93.9268C301.415 93.7512 301.324 93.5424 301.324 93.3004C301.324 93.0552 301.415 92.8464 301.597 92.674C301.783 92.4983 302.005 92.4105 302.264 92.4105C302.522 92.4105 302.743 92.4983 302.925 92.674C303.11 92.8464 303.203 93.0552 303.203 93.3004C303.203 93.5424 303.11 93.7512 302.925 93.9268C302.743 94.0992 302.522 94.1854 302.264 94.1854ZM311.532 95.3636L308.763 103H307.172L304.398 95.3636H305.994L307.928 101.24H308.007L309.936 95.3636H311.532ZM314.933 103.169C314.449 103.169 314.011 103.08 313.62 102.901C313.229 102.718 312.919 102.455 312.69 102.11C312.465 101.765 312.352 101.343 312.352 100.842C312.352 100.411 312.435 100.057 312.601 99.7784C312.767 99.5 312.99 99.2796 313.272 99.1172C313.554 98.9548 313.869 98.8321 314.217 98.7493C314.565 98.6664 314.919 98.6035 315.281 98.5604C315.738 98.5073 316.109 98.4643 316.394 98.4311C316.679 98.3946 316.886 98.3366 317.016 98.2571C317.145 98.1776 317.21 98.0483 317.21 97.8693V97.8345C317.21 97.4003 317.087 97.0639 316.842 96.8253C316.6 96.5866 316.238 96.4673 315.758 96.4673C315.257 96.4673 314.863 96.5784 314.575 96.8004C314.29 97.0192 314.092 97.2628 313.983 97.5312L312.586 97.2131C312.752 96.7491 312.994 96.3745 313.312 96.0895C313.633 95.8011 314.003 95.5923 314.42 95.4631C314.838 95.3305 315.277 95.2642 315.738 95.2642C316.043 95.2642 316.366 95.3007 316.707 95.3736C317.052 95.4432 317.374 95.5724 317.672 95.7614C317.973 95.9503 318.22 96.2204 318.413 96.5717C318.605 96.9197 318.701 97.3722 318.701 97.929V103H317.249V101.956H317.19C317.094 102.148 316.949 102.337 316.757 102.523C316.565 102.708 316.318 102.862 316.016 102.985C315.715 103.108 315.353 103.169 314.933 103.169ZM315.256 101.976C315.667 101.976 316.018 101.895 316.31 101.732C316.605 101.57 316.828 101.358 316.981 101.096C317.137 100.831 317.214 100.547 317.214 100.246V99.2614C317.161 99.3144 317.059 99.3641 316.906 99.4105C316.757 99.4536 316.586 99.4917 316.394 99.5249C316.202 99.5547 316.015 99.5829 315.832 99.6094C315.65 99.6326 315.498 99.6525 315.375 99.669C315.087 99.7055 314.823 99.7668 314.585 99.853C314.349 99.9392 314.16 100.063 314.018 100.226C313.879 100.385 313.809 100.597 313.809 100.862C313.809 101.23 313.945 101.509 314.217 101.697C314.488 101.883 314.835 101.976 315.256 101.976ZM323.898 103.154C323.158 103.154 322.522 102.987 321.988 102.652C321.458 102.314 321.05 101.848 320.765 101.255C320.48 100.662 320.338 99.9822 320.338 99.2166C320.338 98.4411 320.484 97.7566 320.775 97.1634C321.067 96.5668 321.478 96.1011 322.008 95.7663C322.539 95.4316 323.163 95.2642 323.883 95.2642C324.463 95.2642 324.98 95.3719 325.434 95.5874C325.888 95.7995 326.254 96.0978 326.532 96.4822C326.814 96.8667 326.982 97.3158 327.035 97.8295H325.588C325.508 97.4716 325.326 97.1634 325.041 96.9048C324.759 96.6463 324.381 96.517 323.907 96.517C323.493 96.517 323.13 96.6264 322.819 96.8452C322.51 97.0606 322.27 97.3688 322.098 97.7699C321.925 98.1676 321.839 98.6383 321.839 99.1818C321.839 99.7386 321.924 100.219 322.093 100.624C322.262 101.028 322.501 101.341 322.809 101.563C323.12 101.785 323.487 101.896 323.907 101.896C324.189 101.896 324.444 101.845 324.673 101.742C324.905 101.636 325.099 101.485 325.255 101.29C325.414 101.094 325.525 100.859 325.588 100.584H327.035C326.982 101.078 326.821 101.518 326.552 101.906C326.284 102.294 325.924 102.599 325.474 102.821C325.026 103.043 324.501 103.154 323.898 103.154ZM329.564 105.864C329.342 105.864 329.14 105.845 328.957 105.809C328.775 105.776 328.639 105.739 328.55 105.7L328.908 104.482C329.179 104.554 329.421 104.586 329.634 104.576C329.846 104.566 330.033 104.487 330.195 104.337C330.361 104.188 330.507 103.945 330.633 103.607L330.817 103.099L328.023 95.3636H329.614L331.548 101.29H331.627L333.561 95.3636H335.157L332.01 104.019C331.864 104.417 331.679 104.753 331.453 105.028C331.228 105.307 330.959 105.516 330.648 105.655C330.336 105.794 329.975 105.864 329.564 105.864ZM340.378 103V92.8182H344.008C344.8 92.8182 345.456 92.9624 345.976 93.2507C346.497 93.5391 346.886 93.9335 347.145 94.4339C347.403 94.9311 347.532 95.4912 347.532 96.1143C347.532 96.7408 347.402 97.3042 347.14 97.8047C346.881 98.3018 346.49 98.6963 345.966 98.9879C345.446 99.2763 344.791 99.4205 344.003 99.4205H341.507V98.1179H343.863C344.364 98.1179 344.77 98.0317 345.081 97.8594C345.393 97.6837 345.622 97.4451 345.768 97.1435C345.913 96.8419 345.986 96.4988 345.986 96.1143C345.986 95.7299 345.913 95.3885 345.768 95.0902C345.622 94.7919 345.391 94.5582 345.077 94.3892C344.765 94.2202 344.354 94.1357 343.844 94.1357H341.915V103H340.378ZM352.335 103.154C351.619 103.154 350.994 102.99 350.461 102.662C349.927 102.334 349.513 101.875 349.218 101.285C348.923 100.695 348.775 100.005 348.775 99.2166C348.775 98.4245 348.923 97.7318 349.218 97.1385C349.513 96.5452 349.927 96.0845 350.461 95.7564C350.994 95.4283 351.619 95.2642 352.335 95.2642C353.051 95.2642 353.676 95.4283 354.209 95.7564C354.743 96.0845 355.157 96.5452 355.452 97.1385C355.747 97.7318 355.895 98.4245 355.895 99.2166C355.895 100.005 355.747 100.695 355.452 101.285C355.157 101.875 354.743 102.334 354.209 102.662C353.676 102.99 353.051 103.154 352.335 103.154ZM352.34 101.906C352.804 101.906 353.189 101.784 353.493 101.538C353.798 101.293 354.024 100.967 354.17 100.559C354.319 100.151 354.393 99.7022 354.393 99.2116C354.393 98.7244 354.319 98.277 354.17 97.8693C354.024 97.4583 353.798 97.1286 353.493 96.88C353.189 96.6314 352.804 96.5071 352.34 96.5071C351.873 96.5071 351.485 96.6314 351.177 96.88C350.872 97.1286 350.645 97.4583 350.496 97.8693C350.35 98.277 350.277 98.7244 350.277 99.2116C350.277 99.7022 350.35 100.151 350.496 100.559C350.645 100.967 350.872 101.293 351.177 101.538C351.485 101.784 351.873 101.906 352.34 101.906ZM359.04 92.8182V103H357.554V92.8182H359.04ZM361.04 103V95.3636H362.527V103H361.04ZM361.791 94.1854C361.532 94.1854 361.31 94.0992 361.125 93.9268C360.943 93.7512 360.851 93.5424 360.851 93.3004C360.851 93.0552 360.943 92.8464 361.125 92.674C361.31 92.4983 361.532 92.4105 361.791 92.4105C362.05 92.4105 362.27 92.4983 362.452 92.674C362.638 92.8464 362.731 93.0552 362.731 93.3004C362.731 93.5424 362.638 93.7512 362.452 93.9268C362.27 94.0992 362.05 94.1854 361.791 94.1854ZM367.743 103.154C367.004 103.154 366.368 102.987 365.834 102.652C365.304 102.314 364.896 101.848 364.611 101.255C364.326 100.662 364.184 99.9822 364.184 99.2166C364.184 98.4411 364.329 97.7566 364.621 97.1634C364.913 96.5668 365.324 96.1011 365.854 95.7663C366.384 95.4316 367.009 95.2642 367.728 95.2642C368.308 95.2642 368.825 95.3719 369.279 95.5874C369.734 95.7995 370.1 96.0978 370.378 96.4822C370.66 96.8667 370.827 97.3158 370.88 97.8295H369.434C369.354 97.4716 369.172 97.1634 368.887 96.9048C368.605 96.6463 368.227 96.517 367.753 96.517C367.339 96.517 366.976 96.6264 366.664 96.8452C366.356 97.0606 366.116 97.3688 365.944 97.7699C365.771 98.1676 365.685 98.6383 365.685 99.1818C365.685 99.7386 365.77 100.219 365.939 100.624C366.108 101.028 366.346 101.341 366.654 101.563C366.966 101.785 367.332 101.896 367.753 101.896C368.035 101.896 368.29 101.845 368.519 101.742C368.751 101.636 368.945 101.485 369.1 101.29C369.26 101.094 369.371 100.859 369.434 100.584H370.88C370.827 101.078 370.667 101.518 370.398 101.906C370.13 102.294 369.77 102.599 369.319 102.821C368.872 103.043 368.346 103.154 367.743 103.154ZM373.41 105.864C373.188 105.864 372.985 105.845 372.803 105.809C372.621 105.776 372.485 105.739 372.395 105.7L372.753 104.482C373.025 104.554 373.267 104.586 373.479 104.576C373.691 104.566 373.879 104.487 374.041 104.337C374.207 104.188 374.353 103.945 374.479 103.607L374.662 103.099L371.868 95.3636H373.459L375.393 101.29H375.473L377.407 95.3636H379.003L375.856 104.019C375.71 104.417 375.524 104.753 375.299 105.028C375.073 105.307 374.805 105.516 374.493 105.655C374.182 105.794 373.821 105.864 373.41 105.864Z" fill="#1C7FF9"/>
</svg>
