<svg width="898" height="579" viewBox="0 0 898 579" fill="none" xmlns="http://www.w3.org/2000/svg">
<rect x="0.5" y="0.5" width="897" height="577.154" rx="4.5" stroke="#8A38F5" stroke-dasharray="10 5"/>
<path d="M36.4148 44.2216H33.7557C33.6534 43.6534 33.4631 43.1534 33.1847 42.7216C32.9063 42.2898 32.5653 41.9233 32.1619 41.6222C31.7585 41.321 31.3068 41.0937 30.8068 40.9403C30.3125 40.7869 29.7869 40.7102 29.2301 40.7102C28.2244 40.7102 27.3239 40.9631 26.5284 41.4688C25.7386 41.9744 25.1136 42.7159 24.6534 43.6932C24.1989 44.6705 23.9716 45.8636 23.9716 47.2727C23.9716 48.6932 24.1989 49.892 24.6534 50.8693C25.1136 51.8466 25.7415 52.5852 26.5369 53.0852C27.3324 53.5852 28.2273 53.8352 29.2216 53.8352C29.7727 53.8352 30.2955 53.7614 30.7898 53.6136C31.2898 53.4602 31.7415 53.2358 32.1449 52.9403C32.5483 52.6449 32.8892 52.2841 33.1676 51.858C33.4517 51.4261 33.6477 50.9318 33.7557 50.375L36.4148 50.3835C36.2727 51.2415 35.9972 52.0312 35.5881 52.7528C35.1847 53.4688 34.6648 54.0881 34.0284 54.6108C33.3977 55.1278 32.6761 55.5284 31.8636 55.8125C31.0511 56.0966 30.1648 56.2386 29.2045 56.2386C27.6932 56.2386 26.3466 55.8807 25.1648 55.1648C23.983 54.4432 23.0511 53.4119 22.3693 52.071C21.6932 50.7301 21.3551 49.1307 21.3551 47.2727C21.3551 45.4091 21.696 43.8097 22.3778 42.4744C23.0597 41.1335 23.9915 40.1051 25.1733 39.3892C26.3551 38.6676 27.6989 38.3068 29.2045 38.3068C30.1307 38.3068 30.9943 38.4403 31.7955 38.7074C32.6023 38.9687 33.3267 39.3551 33.9688 39.8665C34.6108 40.3722 35.142 40.9915 35.5625 41.7244C35.983 42.4517 36.267 43.2841 36.4148 44.2216ZM41.9098 48.2273V56H39.3615V38.5455H41.8757V45.0398H42.0376C42.3445 44.3352 42.8132 43.7756 43.4439 43.3608C44.0746 42.946 44.8984 42.7386 45.9155 42.7386C46.8132 42.7386 47.5973 42.9233 48.2678 43.2926C48.9439 43.6619 49.4666 44.2131 49.8359 44.946C50.2109 45.6733 50.3984 46.5824 50.3984 47.6733V56H47.8501V47.9801C47.8501 47.0199 47.603 46.2756 47.1087 45.7472C46.6143 45.2131 45.9268 44.946 45.0462 44.946C44.4439 44.946 43.9041 45.0739 43.4268 45.3295C42.9553 45.5852 42.5831 45.9602 42.3104 46.4545C42.0433 46.9432 41.9098 47.5341 41.9098 48.2273ZM59.3132 56.2642C58.0859 56.2642 57.0149 55.983 56.1001 55.4205C55.1854 54.858 54.4751 54.071 53.9695 53.0597C53.4638 52.0483 53.2109 50.8665 53.2109 49.5142C53.2109 48.1562 53.4638 46.9687 53.9695 45.9517C54.4751 44.9347 55.1854 44.1449 56.1001 43.5824C57.0149 43.0199 58.0859 42.7386 59.3132 42.7386C60.5405 42.7386 61.6115 43.0199 62.5263 43.5824C63.4411 44.1449 64.1513 44.9347 64.657 45.9517C65.1626 46.9687 65.4155 48.1562 65.4155 49.5142C65.4155 50.8665 65.1626 52.0483 64.657 53.0597C64.1513 54.071 63.4411 54.858 62.5263 55.4205C61.6115 55.983 60.5405 56.2642 59.3132 56.2642ZM59.3217 54.125C60.1172 54.125 60.7763 53.9148 61.299 53.4943C61.8217 53.0739 62.2081 52.5142 62.4581 51.8153C62.7138 51.1165 62.8416 50.3466 62.8416 49.5057C62.8416 48.6705 62.7138 47.9034 62.4581 47.2045C62.2081 46.5 61.8217 45.9347 61.299 45.5085C60.7763 45.0824 60.1172 44.8693 59.3217 44.8693C58.5206 44.8693 57.8558 45.0824 57.3274 45.5085C56.8047 45.9347 56.4155 46.5 56.1598 47.2045C55.9098 47.9034 55.7848 48.6705 55.7848 49.5057C55.7848 50.3466 55.9098 51.1165 56.1598 51.8153C56.4155 52.5142 56.8047 53.0739 57.3274 53.4943C57.8558 53.9148 58.5206 54.125 59.3217 54.125ZM73.7741 56.2642C72.5469 56.2642 71.4759 55.983 70.5611 55.4205C69.6463 54.858 68.9361 54.071 68.4304 53.0597C67.9247 52.0483 67.6719 50.8665 67.6719 49.5142C67.6719 48.1562 67.9247 46.9687 68.4304 45.9517C68.9361 44.9347 69.6463 44.1449 70.5611 43.5824C71.4759 43.0199 72.5469 42.7386 73.7741 42.7386C75.0014 42.7386 76.0724 43.0199 76.9872 43.5824C77.902 44.1449 78.6122 44.9347 79.1179 45.9517C79.6236 46.9687 79.8764 48.1562 79.8764 49.5142C79.8764 50.8665 79.6236 52.0483 79.1179 53.0597C78.6122 54.071 77.902 54.858 76.9872 55.4205C76.0724 55.983 75.0014 56.2642 73.7741 56.2642ZM73.7827 54.125C74.5781 54.125 75.2372 53.9148 75.7599 53.4943C76.2827 53.0739 76.669 52.5142 76.919 51.8153C77.1747 51.1165 77.3026 50.3466 77.3026 49.5057C77.3026 48.6705 77.1747 47.9034 76.919 47.2045C76.669 46.5 76.2827 45.9347 75.7599 45.5085C75.2372 45.0824 74.5781 44.8693 73.7827 44.8693C72.9815 44.8693 72.3168 45.0824 71.7884 45.5085C71.2656 45.9347 70.8764 46.5 70.6207 47.2045C70.3707 47.9034 70.2457 48.6705 70.2457 49.5057C70.2457 50.3466 70.3707 51.1165 70.6207 51.8153C70.8764 52.5142 71.2656 53.0739 71.7884 53.4943C72.3168 53.9148 72.9815 54.125 73.7827 54.125ZM92.5305 46.1051L90.2209 46.5142C90.1243 46.2187 89.9709 45.9375 89.7607 45.6705C89.5561 45.4034 89.2777 45.1847 88.9254 45.0142C88.5732 44.8437 88.1328 44.7585 87.6044 44.7585C86.8828 44.7585 86.2805 44.9205 85.7976 45.2443C85.3146 45.5625 85.0732 45.9744 85.0732 46.4801C85.0732 46.9176 85.2351 47.2699 85.5589 47.5369C85.8828 47.804 86.4055 48.0227 87.1271 48.1932L89.2067 48.6705C90.4112 48.9489 91.3089 49.3778 91.8999 49.9574C92.4908 50.5369 92.7862 51.2898 92.7862 52.2159C92.7862 53 92.5589 53.6989 92.1044 54.3125C91.6555 54.9205 91.0277 55.3977 90.2209 55.7443C89.4197 56.0909 88.4908 56.2642 87.4339 56.2642C85.968 56.2642 84.772 55.9517 83.8459 55.3267C82.9197 54.696 82.3516 53.8011 82.1413 52.642L84.6044 52.267C84.7578 52.9091 85.0732 53.3949 85.5504 53.7244C86.0277 54.0483 86.6499 54.2102 87.4169 54.2102C88.2521 54.2102 88.9197 54.0369 89.4197 53.6903C89.9197 53.3381 90.1697 52.9091 90.1697 52.4034C90.1697 51.9943 90.0163 51.6506 89.7095 51.3722C89.4084 51.0937 88.9453 50.8835 88.3203 50.7415L86.1044 50.2557C84.8828 49.9773 83.9794 49.5341 83.3942 48.9261C82.8146 48.3182 82.5249 47.5483 82.5249 46.6165C82.5249 45.8437 82.7408 45.1676 83.1726 44.5881C83.6044 44.0085 84.201 43.5568 84.9624 43.233C85.7237 42.9034 86.5959 42.7386 87.5788 42.7386C88.9936 42.7386 90.1072 43.0455 90.9197 43.6591C91.7322 44.267 92.2692 45.0824 92.5305 46.1051ZM101.23 56.2642C99.9403 56.2642 98.8295 55.9886 97.8977 55.4375C96.9716 54.8807 96.2557 54.0994 95.75 53.0938C95.25 52.0824 95 50.8977 95 49.5398C95 48.1989 95.25 47.017 95.75 45.9943C96.2557 44.9716 96.9602 44.1733 97.8636 43.5994C98.7727 43.0256 99.8352 42.7386 101.051 42.7386C101.79 42.7386 102.506 42.8608 103.199 43.1051C103.892 43.3494 104.514 43.733 105.065 44.2557C105.616 44.7784 106.051 45.4574 106.369 46.2926C106.688 47.1222 106.847 48.1307 106.847 49.3182V50.2216H96.4403V48.3125H104.349C104.349 47.642 104.213 47.0483 103.94 46.5312C103.668 46.0085 103.284 45.5966 102.79 45.2955C102.301 44.9943 101.727 44.8438 101.068 44.8438C100.352 44.8438 99.7273 45.0199 99.1932 45.3722C98.6648 45.7187 98.2557 46.1733 97.9659 46.7358C97.6818 47.2926 97.5398 47.8977 97.5398 48.5511V50.0426C97.5398 50.9176 97.6932 51.6619 98 52.2756C98.3125 52.8892 98.7472 53.358 99.304 53.6818C99.8608 54 100.511 54.1591 101.256 54.1591C101.739 54.1591 102.179 54.0909 102.577 53.9545C102.974 53.8125 103.318 53.6023 103.608 53.3239C103.898 53.0455 104.119 52.7017 104.273 52.2926L106.685 52.7273C106.491 53.4375 106.145 54.0597 105.645 54.5938C105.151 55.1222 104.528 55.5341 103.778 55.8295C103.034 56.1193 102.185 56.2642 101.23 56.2642ZM114.884 38.5455H117.875L122.435 46.4801H122.622L127.182 38.5455H130.173L123.841 49.1477V56H121.216V49.1477L114.884 38.5455ZM135.813 56.2642C134.586 56.2642 133.515 55.983 132.6 55.4205C131.685 54.858 130.975 54.071 130.469 53.0597C129.964 52.0483 129.711 50.8665 129.711 49.5142C129.711 48.1562 129.964 46.9687 130.469 45.9517C130.975 44.9347 131.685 44.1449 132.6 43.5824C133.515 43.0199 134.586 42.7386 135.813 42.7386C137.04 42.7386 138.112 43.0199 139.026 43.5824C139.941 44.1449 140.651 44.9347 141.157 45.9517C141.663 46.9687 141.915 48.1562 141.915 49.5142C141.915 50.8665 141.663 52.0483 141.157 53.0597C140.651 54.071 139.941 54.858 139.026 55.4205C138.112 55.983 137.04 56.2642 135.813 56.2642ZM135.822 54.125C136.617 54.125 137.276 53.9148 137.799 53.4943C138.322 53.0739 138.708 52.5142 138.958 51.8153C139.214 51.1165 139.342 50.3466 139.342 49.5057C139.342 48.6705 139.214 47.9034 138.958 47.2045C138.708 46.5 138.322 45.9347 137.799 45.5085C137.276 45.0824 136.617 44.8693 135.822 44.8693C135.021 44.8693 134.356 45.0824 133.827 45.5085C133.305 45.9347 132.915 46.5 132.66 47.2045C132.41 47.9034 132.285 48.6705 132.285 49.5057C132.285 50.3466 132.41 51.1165 132.66 51.8153C132.915 52.5142 133.305 53.0739 133.827 53.4943C134.356 53.9148 135.021 54.125 135.822 54.125ZM153.053 50.571V42.9091H155.609V56H153.104V53.733H152.967C152.666 54.4318 152.183 55.0142 151.518 55.4801C150.859 55.9403 150.038 56.1705 149.055 56.1705C148.214 56.1705 147.47 55.9858 146.822 55.6165C146.18 55.2415 145.675 54.6875 145.305 53.9545C144.942 53.2216 144.76 52.3153 144.76 51.2358V42.9091H147.308V50.929C147.308 51.821 147.555 52.5312 148.05 53.0597C148.544 53.5881 149.186 53.8523 149.976 53.8523C150.453 53.8523 150.928 53.733 151.399 53.4943C151.876 53.2557 152.271 52.8949 152.584 52.4119C152.902 51.929 153.058 51.3153 153.053 50.571ZM159.033 56V42.9091H161.496V44.9886H161.633C161.871 44.2841 162.292 43.7301 162.894 43.3267C163.502 42.9176 164.19 42.7131 164.957 42.7131C165.116 42.7131 165.303 42.7187 165.519 42.7301C165.741 42.7415 165.914 42.7557 166.039 42.7727V45.2102C165.937 45.1818 165.755 45.1506 165.494 45.1165C165.232 45.0767 164.971 45.0568 164.71 45.0568C164.107 45.0568 163.57 45.1847 163.099 45.4403C162.633 45.6903 162.263 46.0398 161.991 46.4886C161.718 46.9318 161.582 47.4375 161.582 48.0057V56H159.033ZM174.8 56V38.5455H181.022C182.38 38.5455 183.505 38.7926 184.397 39.2869C185.289 39.7812 185.957 40.4574 186.4 41.3153C186.843 42.1676 187.065 43.1278 187.065 44.196C187.065 45.2699 186.84 46.2358 186.391 47.0938C185.948 47.946 185.278 48.6222 184.38 49.1222C183.488 49.6165 182.366 49.8636 181.013 49.8636H176.735V47.6307H180.775C181.633 47.6307 182.329 47.483 182.863 47.1875C183.397 46.8864 183.789 46.4773 184.039 45.9602C184.289 45.4432 184.414 44.8551 184.414 44.196C184.414 43.5369 184.289 42.9517 184.039 42.4403C183.789 41.929 183.394 41.5284 182.854 41.2386C182.32 40.9489 181.616 40.804 180.741 40.804H177.434V56H174.8ZM189.947 56V42.9091H192.411V44.9886H192.547C192.786 44.2841 193.206 43.7301 193.808 43.3267C194.416 42.9176 195.104 42.7131 195.871 42.7131C196.03 42.7131 196.217 42.7187 196.433 42.7301C196.655 42.7415 196.828 42.7557 196.953 42.7727V45.2102C196.851 45.1818 196.669 45.1506 196.408 45.1165C196.146 45.0767 195.885 45.0568 195.624 45.0568C195.021 45.0568 194.484 45.1847 194.013 45.4403C193.547 45.6903 193.178 46.0398 192.905 46.4886C192.632 46.9318 192.496 47.4375 192.496 48.0057V56H189.947ZM204.204 56.2642C202.977 56.2642 201.906 55.983 200.991 55.4205C200.076 54.858 199.366 54.071 198.86 53.0597C198.354 52.0483 198.102 50.8665 198.102 49.5142C198.102 48.1562 198.354 46.9687 198.86 45.9517C199.366 44.9347 200.076 44.1449 200.991 43.5824C201.906 43.0199 202.977 42.7386 204.204 42.7386C205.431 42.7386 206.502 43.0199 207.417 43.5824C208.332 44.1449 209.042 44.9347 209.548 45.9517C210.053 46.9687 210.306 48.1562 210.306 49.5142C210.306 50.8665 210.053 52.0483 209.548 53.0597C209.042 54.071 208.332 54.858 207.417 55.4205C206.502 55.983 205.431 56.2642 204.204 56.2642ZM204.212 54.125C205.008 54.125 205.667 53.9148 206.19 53.4943C206.712 53.0739 207.099 52.5142 207.349 51.8153C207.604 51.1165 207.732 50.3466 207.732 49.5057C207.732 48.6705 207.604 47.9034 207.349 47.2045C207.099 46.5 206.712 45.9347 206.19 45.5085C205.667 45.0824 205.008 44.8693 204.212 44.8693C203.411 44.8693 202.746 45.0824 202.218 45.5085C201.695 45.9347 201.306 46.5 201.05 47.2045C200.8 47.9034 200.675 48.6705 200.675 49.5057C200.675 50.3466 200.8 51.1165 201.05 51.8153C201.306 52.5142 201.695 53.0739 202.218 53.4943C202.746 53.9148 203.411 54.125 204.212 54.125ZM219.261 42.9091V44.9545H212.111V42.9091H219.261ZM214.028 39.7727H216.577V52.1562C216.577 52.6506 216.651 53.0227 216.798 53.2727C216.946 53.517 217.136 53.6847 217.369 53.7756C217.608 53.8608 217.866 53.9034 218.145 53.9034C218.349 53.9034 218.528 53.8892 218.682 53.8608C218.835 53.8324 218.955 53.8097 219.04 53.7926L219.5 55.8977C219.352 55.9545 219.142 56.0114 218.869 56.0682C218.597 56.1307 218.256 56.1648 217.847 56.1705C217.176 56.1818 216.551 56.0625 215.972 55.8125C215.392 55.5625 214.923 55.1761 214.565 54.6534C214.207 54.1307 214.028 53.4744 214.028 52.6847V39.7727ZM227.582 56.2642C226.292 56.2642 225.181 55.9886 224.249 55.4375C223.323 54.8807 222.607 54.0994 222.102 53.0938C221.602 52.0824 221.352 50.8977 221.352 49.5398C221.352 48.1989 221.602 47.017 222.102 45.9943C222.607 44.9716 223.312 44.1733 224.215 43.5994C225.124 43.0256 226.187 42.7386 227.403 42.7386C228.141 42.7386 228.857 42.8608 229.55 43.1051C230.244 43.3494 230.866 43.733 231.417 44.2557C231.968 44.7784 232.403 45.4574 232.721 46.2926C233.039 47.1222 233.198 48.1307 233.198 49.3182V50.2216H222.792V48.3125H230.701C230.701 47.642 230.565 47.0483 230.292 46.5312C230.019 46.0085 229.636 45.5966 229.141 45.2955C228.653 44.9943 228.079 44.8438 227.42 44.8438C226.704 44.8438 226.079 45.0199 225.545 45.3722C225.016 45.7187 224.607 46.1733 224.317 46.7358C224.033 47.2926 223.891 47.8977 223.891 48.5511V50.0426C223.891 50.9176 224.045 51.6619 224.352 52.2756C224.664 52.8892 225.099 53.358 225.656 53.6818C226.212 54 226.863 54.1591 227.607 54.1591C228.09 54.1591 228.531 54.0909 228.928 53.9545C229.326 53.8125 229.67 53.6023 229.96 53.3239C230.249 53.0455 230.471 52.7017 230.624 52.2926L233.036 52.7273C232.843 53.4375 232.496 54.0597 231.996 54.5938C231.502 55.1222 230.88 55.5341 230.13 55.8295C229.386 56.1193 228.536 56.2642 227.582 56.2642ZM236.026 56V42.9091H238.574V56H236.026ZM237.312 40.8892C236.869 40.8892 236.489 40.7415 236.17 40.446C235.858 40.1449 235.702 39.7869 235.702 39.3722C235.702 38.9517 235.858 38.5937 236.17 38.2983C236.489 37.9972 236.869 37.8466 237.312 37.8466C237.756 37.8466 238.134 37.9972 238.446 38.2983C238.764 38.5937 238.923 38.9517 238.923 39.3722C238.923 39.7869 238.764 40.1449 238.446 40.446C238.134 40.7415 237.756 40.8892 237.312 40.8892ZM244.55 48.2273V56H242.002V42.9091H244.448V45.0398H244.61C244.911 44.3466 245.383 43.7898 246.025 43.3693C246.673 42.9489 247.488 42.7386 248.471 42.7386C249.363 42.7386 250.144 42.9261 250.815 43.3011C251.485 43.6705 252.005 44.2216 252.374 44.9545C252.744 45.6875 252.928 46.5937 252.928 47.6733V56H250.38V47.9801C250.38 47.0312 250.133 46.2898 249.638 45.7557C249.144 45.2159 248.465 44.946 247.602 44.946C247.011 44.946 246.485 45.0739 246.025 45.3295C245.57 45.5852 245.21 45.9602 244.942 46.4545C244.681 46.9432 244.55 47.5341 244.55 48.2273Z" fill="black"/>
<rect x="20.5" y="83.5" width="857" height="48.359" rx="7.5" stroke="#BDBDBD"/>
<rect x="31" y="91" width="33.359" height="33.359" rx="16.5649" fill="#FF7A18"/>
<circle cx="47.6795" cy="107.68" r="10.6795" fill="white"/>
<path d="M73.7682 113.68V102.043H80.7455V103.293H75.1773V107.225H80.2228V108.475H75.1773V113.68H73.7682ZM82.5633 113.68V104.952H83.8587V106.271H83.9496C84.1087 105.839 84.3966 105.488 84.8133 105.219C85.2299 104.951 85.6996 104.816 86.2224 104.816C86.3209 104.816 86.444 104.818 86.5917 104.822C86.7394 104.826 86.8512 104.831 86.9269 104.839V106.202C86.8815 106.191 86.7773 106.174 86.6144 106.151C86.4553 106.125 86.2868 106.112 86.1087 106.112C85.6845 106.112 85.3057 106.201 84.9724 106.379C84.6428 106.553 84.3815 106.795 84.1883 107.106C83.9989 107.413 83.9042 107.763 83.9042 108.157V113.68H82.5633ZM88.1964 113.68V104.952H89.5373V113.68H88.1964ZM88.8782 103.498C88.6169 103.498 88.3915 103.409 88.2021 103.231C88.0165 103.053 87.9237 102.839 87.9237 102.589C87.9237 102.339 88.0165 102.125 88.2021 101.947C88.3915 101.769 88.6169 101.68 88.8782 101.68C89.1396 101.68 89.3631 101.769 89.5487 101.947C89.7381 102.125 89.8328 102.339 89.8328 102.589C89.8328 102.839 89.7381 103.053 89.5487 103.231C89.3631 103.409 89.1396 103.498 88.8782 103.498ZM95.3324 113.862C94.4915 113.862 93.7661 113.676 93.1562 113.305C92.5502 112.93 92.0824 112.407 91.7528 111.737C91.4271 111.062 91.2642 110.278 91.2642 109.384C91.2642 108.49 91.4271 107.702 91.7528 107.021C92.0824 106.335 92.5407 105.801 93.1278 105.418C93.7187 105.032 94.4081 104.839 95.196 104.839C95.6506 104.839 96.0994 104.915 96.5426 105.066C96.9858 105.218 97.3892 105.464 97.7528 105.805C98.1165 106.142 98.4062 106.589 98.6221 107.146C98.8381 107.702 98.946 108.388 98.946 109.202V109.771H92.2187V108.612H97.5824C97.5824 108.119 97.4839 107.68 97.2869 107.293C97.0937 106.907 96.8172 106.602 96.4574 106.379C96.1013 106.155 95.6809 106.043 95.196 106.043C94.6619 106.043 94.1998 106.176 93.8096 106.441C93.4233 106.702 93.1259 107.043 92.9176 107.464C92.7093 107.884 92.6051 108.335 92.6051 108.816V109.589C92.6051 110.248 92.7187 110.807 92.946 111.265C93.1771 111.719 93.4971 112.066 93.9062 112.305C94.3153 112.54 94.7907 112.657 95.3324 112.657C95.6846 112.657 96.0028 112.608 96.2869 112.509C96.5748 112.407 96.8229 112.255 97.0312 112.055C97.2396 111.85 97.4006 111.596 97.5142 111.293L98.8096 111.657C98.6733 112.096 98.4441 112.483 98.1221 112.816C97.8002 113.146 97.4024 113.403 96.929 113.589C96.4555 113.771 95.9233 113.862 95.3324 113.862ZM103.961 113.862C103.234 113.862 102.592 113.678 102.035 113.31C101.478 112.939 101.043 112.416 100.728 111.742C100.414 111.064 100.257 110.263 100.257 109.339C100.257 108.422 100.414 107.627 100.728 106.952C101.043 106.278 101.48 105.757 102.041 105.39C102.601 105.022 103.249 104.839 103.984 104.839C104.552 104.839 105.001 104.933 105.331 105.123C105.664 105.308 105.918 105.521 106.092 105.759C106.27 105.994 106.408 106.187 106.507 106.339H106.62V102.043H107.961V113.68H106.666V112.339H106.507C106.408 112.498 106.268 112.699 106.086 112.941C105.904 113.18 105.645 113.394 105.308 113.583C104.971 113.769 104.522 113.862 103.961 113.862ZM104.143 112.657C104.681 112.657 105.135 112.517 105.507 112.237C105.878 111.952 106.16 111.56 106.353 111.06C106.546 110.557 106.643 109.975 106.643 109.316C106.643 108.665 106.548 108.094 106.359 107.606C106.17 107.113 105.889 106.731 105.518 106.458C105.147 106.182 104.689 106.043 104.143 106.043C103.575 106.043 103.101 106.189 102.723 106.481C102.348 106.769 102.065 107.161 101.876 107.657C101.69 108.149 101.598 108.702 101.598 109.316C101.598 109.937 101.692 110.502 101.882 111.009C102.075 111.513 102.359 111.915 102.734 112.214C103.113 112.509 103.582 112.657 104.143 112.657ZM124.009 105.68H122.6C122.516 105.274 122.37 104.918 122.162 104.612C121.958 104.305 121.708 104.047 121.412 103.839C121.12 103.627 120.797 103.468 120.441 103.362C120.084 103.255 119.713 103.202 119.327 103.202C118.622 103.202 117.984 103.38 117.412 103.737C116.844 104.093 116.391 104.617 116.054 105.31C115.721 106.004 115.554 106.854 115.554 107.862C115.554 108.869 115.721 109.719 116.054 110.413C116.391 111.106 116.844 111.63 117.412 111.987C117.984 112.343 118.622 112.521 119.327 112.521C119.713 112.521 120.084 112.468 120.441 112.362C120.797 112.255 121.12 112.098 121.412 111.89C121.708 111.678 121.958 111.418 122.162 111.112C122.37 110.801 122.516 110.445 122.6 110.043H124.009C123.903 110.638 123.709 111.17 123.429 111.64C123.149 112.11 122.8 112.509 122.384 112.839C121.967 113.165 121.499 113.413 120.98 113.583C120.465 113.754 119.914 113.839 119.327 113.839C118.334 113.839 117.452 113.596 116.679 113.112C115.906 112.627 115.299 111.937 114.855 111.043C114.412 110.149 114.191 109.089 114.191 107.862C114.191 106.634 114.412 105.574 114.855 104.68C115.299 103.786 115.906 103.096 116.679 102.612C117.452 102.127 118.334 101.884 119.327 101.884C119.914 101.884 120.465 101.969 120.98 102.14C121.499 102.31 121.967 102.56 122.384 102.89C122.8 103.216 123.149 103.613 123.429 104.083C123.709 104.549 123.903 105.081 124.009 105.68ZM127.125 108.43V113.68H125.784V102.043H127.125V106.316H127.238C127.443 105.865 127.75 105.507 128.159 105.242C128.572 104.973 129.121 104.839 129.807 104.839C130.401 104.839 130.922 104.958 131.369 105.197C131.816 105.432 132.163 105.793 132.409 106.282C132.659 106.767 132.784 107.384 132.784 108.134V113.68H131.443V108.225C131.443 107.532 131.263 106.996 130.903 106.617C130.547 106.235 130.053 106.043 129.42 106.043C128.981 106.043 128.587 106.136 128.238 106.322C127.894 106.507 127.621 106.778 127.42 107.134C127.223 107.49 127.125 107.922 127.125 108.43ZM134.917 113.68V104.952H136.258V113.68H134.917ZM135.599 103.498C135.337 103.498 135.112 103.409 134.923 103.231C134.737 103.053 134.644 102.839 134.644 102.589C134.644 102.339 134.737 102.125 134.923 101.947C135.112 101.769 135.337 101.68 135.599 101.68C135.86 101.68 136.084 101.769 136.269 101.947C136.459 102.125 136.553 102.339 136.553 102.589C136.553 102.839 136.459 103.053 136.269 103.231C136.084 103.409 135.86 103.498 135.599 103.498ZM141.939 113.862C141.121 113.862 140.417 113.668 139.826 113.282C139.235 112.896 138.78 112.363 138.462 111.685C138.144 111.007 137.985 110.233 137.985 109.362C137.985 108.475 138.148 107.693 138.473 107.015C138.803 106.333 139.261 105.801 139.848 105.418C140.439 105.032 141.129 104.839 141.917 104.839C142.53 104.839 143.083 104.952 143.576 105.18C144.068 105.407 144.472 105.725 144.786 106.134C145.1 106.543 145.295 107.021 145.371 107.566H144.03C143.928 107.168 143.701 106.816 143.348 106.509C143 106.199 142.53 106.043 141.939 106.043C141.417 106.043 140.958 106.18 140.564 106.452C140.174 106.721 139.869 107.102 139.65 107.594C139.434 108.083 139.326 108.657 139.326 109.316C139.326 109.99 139.432 110.577 139.644 111.077C139.86 111.577 140.163 111.966 140.553 112.242C140.947 112.519 141.409 112.657 141.939 112.657C142.288 112.657 142.604 112.596 142.888 112.475C143.172 112.354 143.413 112.18 143.61 111.952C143.807 111.725 143.947 111.452 144.03 111.134H145.371C145.295 111.649 145.108 112.113 144.809 112.526C144.513 112.935 144.121 113.261 143.633 113.504C143.148 113.742 142.583 113.862 141.939 113.862ZM148.261 110.498L148.239 108.839H148.511L152.33 104.952H153.989L149.92 109.066H149.807L148.261 110.498ZM147.011 113.68V102.043H148.352V113.68H147.011ZM152.557 113.68L149.148 109.362L150.102 108.43L154.261 113.68H152.557ZM158.694 113.862C157.853 113.862 157.128 113.676 156.518 113.305C155.912 112.93 155.444 112.407 155.115 111.737C154.789 111.062 154.626 110.278 154.626 109.384C154.626 108.49 154.789 107.702 155.115 107.021C155.444 106.335 155.903 105.801 156.49 105.418C157.081 105.032 157.77 104.839 158.558 104.839C159.012 104.839 159.461 104.915 159.904 105.066C160.348 105.218 160.751 105.464 161.115 105.805C161.478 106.142 161.768 106.589 161.984 107.146C162.2 107.702 162.308 108.388 162.308 109.202V109.771H155.581V108.612H160.944C160.944 108.119 160.846 107.68 160.649 107.293C160.456 106.907 160.179 106.602 159.819 106.379C159.463 106.155 159.043 106.043 158.558 106.043C158.024 106.043 157.562 106.176 157.172 106.441C156.785 106.702 156.488 107.043 156.279 107.464C156.071 107.884 155.967 108.335 155.967 108.816V109.589C155.967 110.248 156.081 110.807 156.308 111.265C156.539 111.719 156.859 112.066 157.268 112.305C157.677 112.54 158.153 112.657 158.694 112.657C159.047 112.657 159.365 112.608 159.649 112.509C159.937 112.407 160.185 112.255 160.393 112.055C160.601 111.85 160.762 111.596 160.876 111.293L162.172 111.657C162.035 112.096 161.806 112.483 161.484 112.816C161.162 113.146 160.764 113.403 160.291 113.589C159.817 113.771 159.285 113.862 158.694 113.862ZM165.369 108.43V113.68H164.028V104.952H165.323V106.316H165.437C165.641 105.873 165.952 105.517 166.369 105.248C166.785 104.975 167.323 104.839 167.982 104.839C168.573 104.839 169.09 104.96 169.533 105.202C169.977 105.441 170.321 105.805 170.567 106.293C170.814 106.778 170.937 107.392 170.937 108.134V113.68H169.596V108.225C169.596 107.54 169.418 107.005 169.062 106.623C168.706 106.237 168.217 106.043 167.596 106.043C167.168 106.043 166.785 106.136 166.448 106.322C166.115 106.507 165.852 106.778 165.658 107.134C165.465 107.49 165.369 107.922 165.369 108.43Z" fill="black"/>
<path d="M804.705 107.862C804.705 106.43 804.89 105.113 805.261 103.913C805.636 102.708 806.17 101.6 806.864 100.589H808.045C807.773 100.964 807.517 101.426 807.278 101.975C807.044 102.521 806.837 103.121 806.659 103.776C806.481 104.428 806.341 105.102 806.239 105.799C806.14 106.496 806.091 107.183 806.091 107.862C806.091 108.763 806.178 109.678 806.352 110.606C806.527 111.534 806.761 112.396 807.057 113.191C807.352 113.987 807.682 114.634 808.045 115.134H806.864C806.17 114.123 805.636 113.017 805.261 111.816C804.89 110.612 804.705 109.293 804.705 107.862ZM813.477 113.68H809.886V102.043H813.636C814.765 102.043 815.731 102.276 816.534 102.742C817.337 103.204 817.952 103.869 818.38 104.737C818.808 105.6 819.022 106.634 819.022 107.839C819.022 109.051 818.806 110.094 818.375 110.969C817.943 111.841 817.314 112.511 816.488 112.981C815.662 113.447 814.659 113.68 813.477 113.68ZM811.295 112.43H813.386C814.348 112.43 815.145 112.244 815.778 111.873C816.411 111.502 816.882 110.973 817.193 110.288C817.503 109.602 817.659 108.786 817.659 107.839C817.659 106.899 817.505 106.091 817.198 105.413C816.892 104.731 816.433 104.208 815.823 103.844C815.214 103.477 814.454 103.293 813.545 103.293H811.295V112.43ZM824.543 113.862C823.702 113.862 822.977 113.676 822.367 113.305C821.761 112.93 821.293 112.407 820.964 111.737C820.638 111.062 820.475 110.278 820.475 109.384C820.475 108.49 820.638 107.702 820.964 107.021C821.293 106.335 821.752 105.801 822.339 105.418C822.93 105.032 823.619 104.839 824.407 104.839C824.861 104.839 825.31 104.915 825.753 105.066C826.197 105.218 826.6 105.464 826.964 105.805C827.327 106.142 827.617 106.589 827.833 107.146C828.049 107.702 828.157 108.388 828.157 109.202V109.771H821.43V108.612H826.793C826.793 108.119 826.695 107.68 826.498 107.293C826.305 106.907 826.028 106.602 825.668 106.379C825.312 106.155 824.892 106.043 824.407 106.043C823.873 106.043 823.411 106.176 823.021 106.441C822.634 106.702 822.337 107.043 822.128 107.464C821.92 107.884 821.816 108.335 821.816 108.816V109.589C821.816 110.248 821.93 110.807 822.157 111.265C822.388 111.719 822.708 112.066 823.117 112.305C823.526 112.54 824.002 112.657 824.543 112.657C824.896 112.657 825.214 112.608 825.498 112.509C825.786 112.407 826.034 112.255 826.242 112.055C826.45 111.85 826.611 111.596 826.725 111.293L828.021 111.657C827.884 112.096 827.655 112.483 827.333 112.816C827.011 113.146 826.613 113.403 826.14 113.589C825.666 113.771 825.134 113.862 824.543 113.862ZM833.763 104.952V106.089H829.058V104.952H833.763ZM830.468 113.68V103.748C830.468 103.248 830.585 102.831 830.82 102.498C831.055 102.165 831.36 101.915 831.735 101.748C832.11 101.581 832.505 101.498 832.922 101.498C833.252 101.498 833.521 101.524 833.729 101.577C833.937 101.63 834.093 101.68 834.195 101.725L833.808 102.884C833.74 102.862 833.646 102.833 833.524 102.799C833.407 102.765 833.252 102.748 833.058 102.748C832.615 102.748 832.295 102.86 832.098 103.083C831.905 103.307 831.808 103.634 831.808 104.066V113.68H830.468ZM837.64 113.884C837.087 113.884 836.586 113.78 836.135 113.572C835.684 113.36 835.326 113.055 835.061 112.657C834.796 112.255 834.663 111.771 834.663 111.202C834.663 110.702 834.762 110.297 834.959 109.987C835.156 109.672 835.419 109.426 835.748 109.248C836.078 109.07 836.442 108.937 836.839 108.85C837.241 108.759 837.644 108.687 838.05 108.634C838.58 108.566 839.01 108.515 839.339 108.481C839.673 108.443 839.915 108.38 840.067 108.293C840.222 108.206 840.3 108.055 840.3 107.839V107.793C840.3 107.233 840.146 106.797 839.839 106.487C839.536 106.176 839.076 106.021 838.459 106.021C837.818 106.021 837.317 106.161 836.953 106.441C836.589 106.721 836.334 107.021 836.186 107.339L834.913 106.884C835.14 106.354 835.443 105.941 835.822 105.646C836.205 105.346 836.622 105.138 837.072 105.021C837.527 104.899 837.974 104.839 838.413 104.839C838.693 104.839 839.015 104.873 839.379 104.941C839.747 105.005 840.101 105.14 840.442 105.344C840.786 105.549 841.072 105.858 841.3 106.271C841.527 106.683 841.64 107.237 841.64 107.93V113.68H840.3V112.498H840.231C840.14 112.687 839.989 112.89 839.777 113.106C839.565 113.322 839.282 113.505 838.93 113.657C838.578 113.808 838.148 113.884 837.64 113.884ZM837.845 112.68C838.375 112.68 838.822 112.576 839.186 112.367C839.553 112.159 839.83 111.89 840.015 111.56C840.205 111.231 840.3 110.884 840.3 110.521V109.293C840.243 109.362 840.118 109.424 839.925 109.481C839.735 109.534 839.515 109.581 839.265 109.623C839.019 109.661 838.779 109.695 838.544 109.725C838.313 109.752 838.125 109.774 837.981 109.793C837.633 109.839 837.307 109.913 837.004 110.015C836.705 110.113 836.462 110.263 836.277 110.464C836.095 110.661 836.004 110.93 836.004 111.271C836.004 111.737 836.176 112.089 836.521 112.327C836.87 112.562 837.311 112.68 837.845 112.68ZM849.268 110.112V104.952H850.609V113.68H849.268V112.202H849.177C848.972 112.646 848.654 113.022 848.222 113.333C847.791 113.64 847.245 113.793 846.586 113.793C846.041 113.793 845.556 113.674 845.132 113.435C844.707 113.193 844.374 112.829 844.132 112.344C843.889 111.856 843.768 111.24 843.768 110.498V104.952H845.109V110.407C845.109 111.043 845.287 111.551 845.643 111.93C846.003 112.308 846.461 112.498 847.018 112.498C847.351 112.498 847.69 112.413 848.035 112.242C848.383 112.072 848.675 111.81 848.91 111.458C849.149 111.106 849.268 110.657 849.268 110.112ZM854.086 102.043V113.68H852.745V102.043H854.086ZM860.017 104.952V106.089H855.494V104.952H860.017ZM856.813 102.862H858.153V111.18C858.153 111.558 858.208 111.843 858.318 112.032C858.432 112.218 858.576 112.343 858.75 112.407C858.928 112.468 859.116 112.498 859.313 112.498C859.46 112.498 859.581 112.49 859.676 112.475C859.771 112.456 859.847 112.441 859.903 112.43L860.176 113.634C860.085 113.668 859.958 113.702 859.796 113.737C859.633 113.774 859.426 113.793 859.176 113.793C858.797 113.793 858.426 113.712 858.063 113.549C857.703 113.386 857.403 113.138 857.165 112.805C856.93 112.471 856.813 112.051 856.813 111.543V102.862ZM864.578 108.771C864.578 110.202 864.39 111.521 864.015 112.725C863.644 113.926 863.112 115.032 862.419 116.043H861.237C861.51 115.668 861.763 115.206 861.998 114.657C862.237 114.112 862.445 113.513 862.623 112.862C862.801 112.206 862.94 111.53 863.038 110.833C863.14 110.132 863.191 109.445 863.191 108.771C863.191 107.869 863.104 106.954 862.93 106.026C862.756 105.098 862.521 104.237 862.226 103.441C861.93 102.646 861.601 101.998 861.237 101.498H862.419C863.112 102.509 863.644 103.617 864.015 104.822C864.39 106.022 864.578 107.339 864.578 108.771Z" fill="black"/>
<rect x="20.5" y="151.859" width="857" height="48.359" rx="7.5" stroke="#BDBDBD"/>
<rect x="31" y="159.359" width="33.359" height="33.359" rx="16.5649" fill="#FF7A18"/>
<circle cx="47.6795" cy="176.039" r="10.6795" fill="white"/>
<path d="M81.7228 174.039C81.5978 173.656 81.433 173.314 81.2284 173.011C81.0277 172.704 80.7872 172.442 80.5069 172.227C80.2303 172.011 79.9159 171.846 79.5637 171.732C79.2114 171.619 78.825 171.562 78.4046 171.562C77.7152 171.562 77.0883 171.74 76.5239 172.096C75.9595 172.452 75.5106 172.977 75.1773 173.67C74.844 174.363 74.6773 175.213 74.6773 176.221C74.6773 177.228 74.8459 178.079 75.183 178.772C75.5201 179.465 75.9766 179.99 76.5523 180.346C77.1281 180.702 77.7758 180.88 78.4955 180.88C79.1622 180.88 79.7493 180.738 80.2569 180.454C80.7682 180.166 81.1659 179.761 81.45 179.238C81.7379 178.711 81.8819 178.092 81.8819 177.38L82.3137 177.471H78.8137V176.221H83.2455V177.471C83.2455 178.429 83.0409 179.263 82.6319 179.971C82.2266 180.679 81.6659 181.228 80.95 181.619C80.2379 182.005 79.4197 182.198 78.4955 182.198C77.4652 182.198 76.5599 181.956 75.7796 181.471C75.0031 180.986 74.397 180.297 73.9614 179.403C73.5296 178.509 73.3137 177.448 73.3137 176.221C73.3137 175.3 73.4368 174.473 73.683 173.738C73.933 172.999 74.2853 172.371 74.7398 171.852C75.1944 171.333 75.7322 170.935 76.3534 170.658C76.9747 170.382 77.6584 170.244 78.4046 170.244C79.0182 170.244 79.5902 170.336 80.1205 170.522C80.6546 170.704 81.13 170.963 81.5466 171.3C81.9671 171.634 82.3175 172.033 82.5978 172.499C82.8781 172.961 83.0713 173.475 83.1773 174.039H81.7228ZM85.157 182.039V173.312H86.4525V174.63H86.5434C86.7025 174.198 86.9904 173.848 87.407 173.579C87.8237 173.31 88.2934 173.175 88.8161 173.175C88.9146 173.175 89.0377 173.177 89.1854 173.181C89.3332 173.185 89.4449 173.191 89.5207 173.198V174.562C89.4752 174.55 89.371 174.533 89.2082 174.511C89.0491 174.484 88.8805 174.471 88.7025 174.471C88.2782 174.471 87.8995 174.56 87.5661 174.738C87.2366 174.912 86.9752 175.155 86.782 175.465C86.5926 175.772 86.4979 176.122 86.4979 176.516V182.039H85.157ZM90.7902 182.039V173.312H92.1311V182.039H90.7902ZM91.472 171.857C91.2106 171.857 90.9852 171.768 90.7958 171.59C90.6102 171.412 90.5174 171.198 90.5174 170.948C90.5174 170.698 90.6102 170.484 90.7958 170.306C90.9852 170.128 91.2106 170.039 91.472 170.039C91.7333 170.039 91.9568 170.128 92.1424 170.306C92.3318 170.484 92.4265 170.698 92.4265 170.948C92.4265 171.198 92.3318 171.412 92.1424 171.59C91.9568 171.768 91.7333 171.857 91.472 171.857ZM95.6079 170.403V182.039H94.267V170.403H95.6079ZM99.0848 170.403V182.039H97.7439V170.403H99.0848ZM104.88 182.221C104.039 182.221 103.314 182.035 102.704 181.664C102.098 181.289 101.63 180.766 101.3 180.096C100.975 179.422 100.812 178.638 100.812 177.744C100.812 176.85 100.975 176.062 101.3 175.38C101.63 174.694 102.088 174.16 102.675 173.778C103.266 173.391 103.956 173.198 104.744 173.198C105.198 173.198 105.647 173.274 106.09 173.425C106.533 173.577 106.937 173.823 107.3 174.164C107.664 174.501 107.954 174.948 108.17 175.505C108.386 176.062 108.494 176.747 108.494 177.562V178.13H101.766V176.971H107.13C107.13 176.478 107.031 176.039 106.834 175.653C106.641 175.266 106.365 174.961 106.005 174.738C105.649 174.514 105.228 174.403 104.744 174.403C104.209 174.403 103.747 174.535 103.357 174.8C102.971 175.062 102.673 175.403 102.465 175.823C102.257 176.244 102.153 176.694 102.153 177.175V177.948C102.153 178.607 102.266 179.166 102.494 179.624C102.725 180.079 103.045 180.425 103.454 180.664C103.863 180.899 104.338 181.016 104.88 181.016C105.232 181.016 105.55 180.967 105.834 180.869C106.122 180.766 106.37 180.615 106.579 180.414C106.787 180.21 106.948 179.956 107.062 179.653L108.357 180.016C108.221 180.456 107.992 180.842 107.67 181.175C107.348 181.505 106.95 181.763 106.476 181.948C106.003 182.13 105.471 182.221 104.88 182.221ZM113.509 182.221C112.781 182.221 112.139 182.037 111.583 181.67C111.026 181.299 110.59 180.776 110.276 180.102C109.961 179.424 109.804 178.622 109.804 177.698C109.804 176.781 109.961 175.986 110.276 175.312C110.59 174.638 111.028 174.117 111.588 173.749C112.149 173.382 112.797 173.198 113.531 173.198C114.1 173.198 114.549 173.293 114.878 173.482C115.211 173.668 115.465 173.88 115.639 174.119C115.817 174.353 115.956 174.547 116.054 174.698H116.168V170.403H117.509V182.039H116.213V180.698H116.054C115.956 180.857 115.816 181.058 115.634 181.3C115.452 181.539 115.192 181.753 114.855 181.942C114.518 182.128 114.069 182.221 113.509 182.221ZM113.691 181.016C114.228 181.016 114.683 180.876 115.054 180.596C115.425 180.312 115.708 179.92 115.901 179.42C116.094 178.916 116.191 178.335 116.191 177.675C116.191 177.024 116.096 176.454 115.906 175.965C115.717 175.473 115.437 175.09 115.066 174.817C114.694 174.541 114.236 174.403 113.691 174.403C113.122 174.403 112.649 174.549 112.27 174.84C111.895 175.128 111.613 175.52 111.424 176.016C111.238 176.509 111.145 177.062 111.145 177.675C111.145 178.297 111.24 178.861 111.429 179.369C111.622 179.872 111.906 180.274 112.281 180.573C112.66 180.869 113.13 181.016 113.691 181.016ZM124.193 182.039V170.403H131.17V171.653H125.602V175.585H130.647V176.835H125.602V182.039H124.193ZM133.081 182.039V173.312H134.422V182.039H133.081ZM133.763 171.857C133.502 171.857 133.276 171.768 133.087 171.59C132.901 171.412 132.809 171.198 132.809 170.948C132.809 170.698 132.901 170.484 133.087 170.306C133.276 170.128 133.502 170.039 133.763 170.039C134.025 170.039 134.248 170.128 134.434 170.306C134.623 170.484 134.718 170.698 134.718 170.948C134.718 171.198 134.623 171.412 134.434 171.59C134.248 171.768 134.025 171.857 133.763 171.857ZM142.74 175.266L141.536 175.607C141.46 175.406 141.348 175.211 141.2 175.022C141.056 174.829 140.859 174.67 140.609 174.545C140.359 174.42 140.039 174.357 139.649 174.357C139.115 174.357 138.67 174.48 138.314 174.727C137.962 174.969 137.786 175.278 137.786 175.653C137.786 175.986 137.907 176.249 138.149 176.442C138.392 176.636 138.77 176.797 139.286 176.925L140.581 177.244C141.361 177.433 141.943 177.723 142.325 178.113C142.708 178.499 142.899 178.997 142.899 179.607C142.899 180.107 142.755 180.554 142.467 180.948C142.183 181.342 141.786 181.653 141.274 181.88C140.763 182.107 140.168 182.221 139.49 182.221C138.6 182.221 137.863 182.028 137.28 181.641C136.697 181.255 136.327 180.691 136.172 179.948L137.445 179.63C137.566 180.1 137.795 180.452 138.132 180.687C138.473 180.922 138.918 181.039 139.467 181.039C140.092 181.039 140.589 180.906 140.956 180.641C141.327 180.372 141.513 180.05 141.513 179.675C141.513 179.372 141.407 179.119 141.195 178.914C140.983 178.706 140.657 178.55 140.217 178.448L138.763 178.107C137.964 177.918 137.376 177.624 137.001 177.227C136.63 176.825 136.445 176.323 136.445 175.721C136.445 175.228 136.583 174.793 136.859 174.414C137.14 174.035 137.52 173.738 138.001 173.522C138.486 173.306 139.036 173.198 139.649 173.198C140.513 173.198 141.191 173.388 141.683 173.766C142.179 174.145 142.532 174.645 142.74 175.266ZM145.939 176.789V182.039H144.598V170.403H145.939V174.675H146.052C146.257 174.225 146.564 173.867 146.973 173.602C147.386 173.333 147.935 173.198 148.62 173.198C149.215 173.198 149.736 173.317 150.183 173.556C150.63 173.791 150.976 174.153 151.223 174.641C151.473 175.126 151.598 175.744 151.598 176.494V182.039H150.257V176.585C150.257 175.891 150.077 175.355 149.717 174.977C149.361 174.594 148.867 174.403 148.234 174.403C147.795 174.403 147.401 174.496 147.052 174.681C146.708 174.867 146.435 175.138 146.234 175.494C146.037 175.85 145.939 176.281 145.939 176.789Z" fill="black"/>
<path d="M819.636 179.994V172.494H820.909V179.994H819.636ZM816.523 176.88V175.607H824.023V176.88H816.523ZM837.181 174.653V175.789H825.591V174.653H837.181ZM837.181 177.107V178.244H825.591V177.107H837.181ZM836 170.403V182.039H834.636L828.295 172.903H828.181V182.039H826.772V170.403H828.136L834.5 179.562H834.613V170.403H836ZM842.06 182.198C841.394 182.198 840.793 182.066 840.259 181.8C839.725 181.535 839.297 181.172 838.975 180.71C838.653 180.247 838.477 179.721 838.447 179.13H839.81C839.863 179.656 840.102 180.092 840.526 180.437C840.954 180.778 841.466 180.948 842.06 180.948C842.538 180.948 842.962 180.836 843.333 180.613C843.708 180.389 844.002 180.083 844.214 179.692C844.43 179.299 844.538 178.853 844.538 178.357C844.538 177.85 844.426 177.397 844.202 176.999C843.983 176.598 843.68 176.281 843.293 176.05C842.907 175.819 842.466 175.702 841.969 175.698C841.613 175.694 841.248 175.749 840.873 175.863C840.498 175.973 840.189 176.115 839.947 176.289L838.628 176.13L839.333 170.403H845.378V171.653H840.515L840.106 175.085H840.174C840.413 174.895 840.712 174.738 841.072 174.613C841.431 174.488 841.806 174.425 842.197 174.425C842.909 174.425 843.543 174.596 844.1 174.937C844.661 175.274 845.1 175.736 845.418 176.323C845.74 176.91 845.901 177.581 845.901 178.335C845.901 179.077 845.735 179.74 845.401 180.323C845.072 180.903 844.617 181.361 844.038 181.698C843.458 182.031 842.799 182.198 842.06 182.198ZM851.634 182.198C850.778 182.198 850.049 181.965 849.446 181.499C848.844 181.03 848.384 180.35 848.066 179.46C847.747 178.566 847.588 177.486 847.588 176.221C847.588 174.963 847.747 173.889 848.066 172.999C848.388 172.105 848.85 171.424 849.452 170.954C850.058 170.48 850.785 170.244 851.634 170.244C852.482 170.244 853.208 170.48 853.81 170.954C854.416 171.424 854.878 172.105 855.196 172.999C855.518 173.889 855.679 174.963 855.679 176.221C855.679 177.486 855.52 178.566 855.202 179.46C854.884 180.35 854.424 181.03 853.821 181.499C853.219 181.965 852.49 182.198 851.634 182.198ZM851.634 180.948C852.482 180.948 853.141 180.539 853.611 179.721C854.081 178.903 854.316 177.736 854.316 176.221C854.316 175.213 854.208 174.355 853.992 173.647C853.78 172.939 853.473 172.399 853.071 172.028C852.674 171.656 852.194 171.471 851.634 171.471C850.793 171.471 850.136 171.886 849.662 172.715C849.189 173.541 848.952 174.71 848.952 176.221C848.952 177.228 849.058 178.085 849.27 178.789C849.482 179.494 849.787 180.03 850.185 180.397C850.586 180.764 851.069 180.948 851.634 180.948ZM861.314 182.198C860.458 182.198 859.729 181.965 859.126 181.499C858.524 181.03 858.064 180.35 857.746 179.46C857.427 178.566 857.268 177.486 857.268 176.221C857.268 174.963 857.427 173.889 857.746 172.999C858.068 172.105 858.53 171.424 859.132 170.954C859.738 170.48 860.465 170.244 861.314 170.244C862.162 170.244 862.888 170.48 863.49 170.954C864.096 171.424 864.558 172.105 864.876 172.999C865.198 173.889 865.359 174.963 865.359 176.221C865.359 177.486 865.2 178.566 864.882 179.46C864.564 180.35 864.104 181.03 863.501 181.499C862.899 181.965 862.17 182.198 861.314 182.198ZM861.314 180.948C862.162 180.948 862.821 180.539 863.291 179.721C863.761 178.903 863.996 177.736 863.996 176.221C863.996 175.213 863.888 174.355 863.672 173.647C863.46 172.939 863.153 172.399 862.751 172.028C862.354 171.656 861.874 171.471 861.314 171.471C860.473 171.471 859.816 171.886 859.342 172.715C858.869 173.541 858.632 174.71 858.632 176.221C858.632 177.228 858.738 178.085 858.95 178.789C859.162 179.494 859.467 180.03 859.865 180.397C860.266 180.764 860.749 180.948 861.314 180.948Z" fill="black"/>
<rect x="20.5" y="220.218" width="857" height="48.359" rx="7.5" stroke="#BDBDBD"/>
<rect x="31" y="227.718" width="33.359" height="33.359" rx="16.5649" fill="#FF7A18"/>
<circle cx="47.6795" cy="244.397" r="10.6795" fill="white"/>
<path d="M73.7682 250.397V238.761H77.8364C78.647 238.761 79.3156 238.901 79.8421 239.182C80.3686 239.458 80.7606 239.831 81.0182 240.301C81.2758 240.767 81.4046 241.284 81.4046 241.852C81.4046 242.352 81.3156 242.765 81.1375 243.091C80.9633 243.416 80.7322 243.674 80.4444 243.863C80.1603 244.053 79.8516 244.193 79.5182 244.284V244.397C79.8743 244.42 80.2322 244.545 80.5921 244.772C80.9519 245 81.2531 245.325 81.4955 245.75C81.7379 246.174 81.8591 246.693 81.8591 247.307C81.8591 247.89 81.7266 248.415 81.4614 248.88C81.1963 249.346 80.7777 249.716 80.2057 249.988C79.6338 250.261 78.8894 250.397 77.9728 250.397H73.7682ZM75.1773 249.147H77.9728C78.8932 249.147 79.5466 248.969 79.933 248.613C80.3231 248.254 80.5182 247.818 80.5182 247.307C80.5182 246.913 80.4178 246.549 80.2171 246.216C80.0163 245.879 79.7303 245.61 79.3591 245.409C78.9879 245.204 78.5485 245.102 78.0409 245.102H75.1773V249.147ZM75.1773 243.875H77.7909C78.2152 243.875 78.5978 243.791 78.9387 243.625C79.2834 243.458 79.5561 243.223 79.7569 242.92C79.9614 242.617 80.0637 242.261 80.0637 241.852C80.0637 241.341 79.8856 240.907 79.5296 240.551C79.1735 240.191 78.6091 240.011 77.8364 240.011H75.1773V243.875ZM87.3317 250.579C86.4908 250.579 85.7655 250.394 85.1556 250.022C84.5495 249.647 84.0817 249.125 83.7522 248.454C83.4264 247.78 83.2636 246.996 83.2636 246.102C83.2636 245.208 83.4264 244.42 83.7522 243.738C84.0817 243.053 84.5401 242.519 85.1272 242.136C85.7181 241.75 86.4075 241.557 87.1954 241.557C87.6499 241.557 88.0988 241.632 88.542 241.784C88.9852 241.935 89.3886 242.182 89.7522 242.522C90.1158 242.86 90.4056 243.307 90.6215 243.863C90.8374 244.42 90.9454 245.106 90.9454 245.92V246.488H84.2181V245.329H89.5817C89.5817 244.837 89.4833 244.397 89.2863 244.011C89.0931 243.625 88.8166 243.32 88.4567 243.096C88.1007 242.873 87.6802 242.761 87.1954 242.761C86.6613 242.761 86.1992 242.894 85.809 243.159C85.4227 243.42 85.1253 243.761 84.917 244.182C84.7086 244.602 84.6045 245.053 84.6045 245.534V246.307C84.6045 246.966 84.7181 247.524 84.9454 247.983C85.1764 248.437 85.4965 248.784 85.9056 249.022C86.3147 249.257 86.7901 249.375 87.3317 249.375C87.684 249.375 88.0022 249.325 88.2863 249.227C88.5742 249.125 88.8223 248.973 89.0306 248.772C89.2389 248.568 89.3999 248.314 89.5136 248.011L90.809 248.375C90.6727 248.814 90.4435 249.2 90.1215 249.534C89.7995 249.863 89.4018 250.121 88.9283 250.307C88.4549 250.488 87.9227 250.579 87.3317 250.579ZM96.3242 250.579C95.4833 250.579 94.758 250.394 94.1481 250.022C93.542 249.647 93.0742 249.125 92.7447 248.454C92.4189 247.78 92.2561 246.996 92.2561 246.102C92.2561 245.208 92.4189 244.42 92.7447 243.738C93.0742 243.053 93.5326 242.519 94.1197 242.136C94.7106 241.75 95.4 241.557 96.1879 241.557C96.6424 241.557 97.0913 241.632 97.5345 241.784C97.9777 241.935 98.3811 242.182 98.7447 242.522C99.1083 242.86 99.3981 243.307 99.614 243.863C99.8299 244.42 99.9379 245.106 99.9379 245.92V246.488H93.2106V245.329H98.5742C98.5742 244.837 98.4758 244.397 98.2788 244.011C98.0856 243.625 97.8091 243.32 97.4492 243.096C97.0932 242.873 96.6727 242.761 96.1879 242.761C95.6538 242.761 95.1917 242.894 94.8015 243.159C94.4152 243.42 94.1178 243.761 93.9095 244.182C93.7011 244.602 93.597 245.053 93.597 245.534V246.307C93.597 246.966 93.7106 247.524 93.9379 247.983C94.1689 248.437 94.489 248.784 94.8981 249.022C95.3072 249.257 95.7826 249.375 96.3242 249.375C96.6765 249.375 96.9947 249.325 97.2788 249.227C97.5667 249.125 97.8148 248.973 98.0231 248.772C98.2314 248.568 98.3924 248.314 98.5061 248.011L99.8015 248.375C99.6652 248.814 99.436 249.2 99.114 249.534C98.792 249.863 98.3943 250.121 97.9208 250.307C97.4474 250.488 96.9152 250.579 96.3242 250.579ZM105.544 241.67V242.807H100.839V241.67H105.544ZM102.249 250.397V240.466C102.249 239.966 102.366 239.549 102.601 239.216C102.836 238.882 103.141 238.632 103.516 238.466C103.891 238.299 104.286 238.216 104.703 238.216C105.033 238.216 105.302 238.242 105.51 238.295C105.718 238.348 105.874 238.397 105.976 238.443L105.589 239.602C105.521 239.579 105.427 239.551 105.305 239.517C105.188 239.483 105.033 239.466 104.839 239.466C104.396 239.466 104.076 239.577 103.879 239.801C103.686 240.024 103.589 240.352 103.589 240.784V250.397H102.249Z" fill="black"/>
<path d="M820.636 248.352V240.852H821.909V248.352H820.636ZM817.523 245.238V243.966H825.023V245.238H817.523ZM838.181 243.011V244.147H826.591V243.011H838.181ZM838.181 245.466V246.602H826.591V245.466H838.181ZM837 238.761V250.397H835.636L829.295 241.261H829.181V250.397H827.772V238.761H829.136L835.5 247.92H835.613V238.761H837ZM839.788 250.397L844.992 240.102V240.011H838.992V238.761H846.447V240.079L841.265 250.397H839.788ZM851.79 250.557C850.934 250.557 850.205 250.324 849.603 249.858C849 249.388 848.54 248.708 848.222 247.818C847.904 246.924 847.745 245.844 847.745 244.579C847.745 243.322 847.904 242.248 848.222 241.358C848.544 240.464 849.006 239.782 849.608 239.312C850.214 238.839 850.942 238.602 851.79 238.602C852.638 238.602 853.364 238.839 853.966 239.312C854.572 239.782 855.034 240.464 855.353 241.358C855.674 242.248 855.835 243.322 855.835 244.579C855.835 245.844 855.676 246.924 855.358 247.818C855.04 248.708 854.58 249.388 853.978 249.858C853.375 250.324 852.646 250.557 851.79 250.557ZM851.79 249.307C852.638 249.307 853.298 248.897 853.767 248.079C854.237 247.261 854.472 246.094 854.472 244.579C854.472 243.572 854.364 242.714 854.148 242.005C853.936 241.297 853.629 240.757 853.228 240.386C852.83 240.015 852.351 239.829 851.79 239.829C850.949 239.829 850.292 240.244 849.818 241.074C849.345 241.899 849.108 243.068 849.108 244.579C849.108 245.587 849.214 246.443 849.426 247.147C849.638 247.852 849.943 248.388 850.341 248.755C850.743 249.123 851.226 249.307 851.79 249.307ZM861.47 250.557C860.614 250.557 859.885 250.324 859.283 249.858C858.68 249.388 858.22 248.708 857.902 247.818C857.584 246.924 857.425 245.844 857.425 244.579C857.425 243.322 857.584 242.248 857.902 241.358C858.224 240.464 858.686 239.782 859.288 239.312C859.894 238.839 860.622 238.602 861.47 238.602C862.318 238.602 863.044 238.839 863.646 239.312C864.252 239.782 864.714 240.464 865.033 241.358C865.354 242.248 865.515 243.322 865.515 244.579C865.515 245.844 865.356 246.924 865.038 247.818C864.72 248.708 864.26 249.388 863.658 249.858C863.055 250.324 862.326 250.557 861.47 250.557ZM861.47 249.307C862.318 249.307 862.978 248.897 863.447 248.079C863.917 247.261 864.152 246.094 864.152 244.579C864.152 243.572 864.044 242.714 863.828 242.005C863.616 241.297 863.309 240.757 862.908 240.386C862.51 240.015 862.031 239.829 861.47 239.829C860.629 239.829 859.972 240.244 859.498 241.074C859.025 241.899 858.788 243.068 858.788 244.579C858.788 245.587 858.894 246.443 859.106 247.147C859.318 247.852 859.623 248.388 860.021 248.755C860.423 249.123 860.906 249.307 861.47 249.307Z" fill="black"/>
<path d="M36.4148 323.222H33.7557C33.6534 322.653 33.4631 322.153 33.1847 321.722C32.9063 321.29 32.5653 320.923 32.1619 320.622C31.7585 320.321 31.3068 320.094 30.8068 319.94C30.3125 319.787 29.7869 319.71 29.2301 319.71C28.2244 319.71 27.3239 319.963 26.5284 320.469C25.7386 320.974 25.1136 321.716 24.6534 322.693C24.1989 323.67 23.9716 324.864 23.9716 326.273C23.9716 327.693 24.1989 328.892 24.6534 329.869C25.1136 330.847 25.7415 331.585 26.5369 332.085C27.3324 332.585 28.2273 332.835 29.2216 332.835C29.7727 332.835 30.2955 332.761 30.7898 332.614C31.2898 332.46 31.7415 332.236 32.1449 331.94C32.5483 331.645 32.8892 331.284 33.1676 330.858C33.4517 330.426 33.6477 329.932 33.7557 329.375L36.4148 329.384C36.2727 330.241 35.9972 331.031 35.5881 331.753C35.1847 332.469 34.6648 333.088 34.0284 333.611C33.3977 334.128 32.6761 334.528 31.8636 334.812C31.0511 335.097 30.1648 335.239 29.2045 335.239C27.6932 335.239 26.3466 334.881 25.1648 334.165C23.983 333.443 23.0511 332.412 22.3693 331.071C21.6932 329.73 21.3551 328.131 21.3551 326.273C21.3551 324.409 21.696 322.81 22.3778 321.474C23.0597 320.134 23.9915 319.105 25.1733 318.389C26.3551 317.668 27.6989 317.307 29.2045 317.307C30.1307 317.307 30.9943 317.44 31.7955 317.707C32.6023 317.969 33.3267 318.355 33.9688 318.866C34.6108 319.372 35.142 319.991 35.5625 320.724C35.983 321.452 36.267 322.284 36.4148 323.222ZM41.9098 327.227V335H39.3615V317.545H41.8757V324.04H42.0376C42.3445 323.335 42.8132 322.776 43.4439 322.361C44.0746 321.946 44.8984 321.739 45.9155 321.739C46.8132 321.739 47.5973 321.923 48.2678 322.293C48.9439 322.662 49.4666 323.213 49.8359 323.946C50.2109 324.673 50.3984 325.582 50.3984 326.673V335H47.8501V326.98C47.8501 326.02 47.603 325.276 47.1087 324.747C46.6143 324.213 45.9268 323.946 45.0462 323.946C44.4439 323.946 43.9041 324.074 43.4268 324.33C42.9553 324.585 42.5831 324.96 42.3104 325.455C42.0433 325.943 41.9098 326.534 41.9098 327.227ZM59.3132 335.264C58.0859 335.264 57.0149 334.983 56.1001 334.42C55.1854 333.858 54.4751 333.071 53.9695 332.06C53.4638 331.048 53.2109 329.866 53.2109 328.514C53.2109 327.156 53.4638 325.969 53.9695 324.952C54.4751 323.935 55.1854 323.145 56.1001 322.582C57.0149 322.02 58.0859 321.739 59.3132 321.739C60.5405 321.739 61.6115 322.02 62.5263 322.582C63.4411 323.145 64.1513 323.935 64.657 324.952C65.1626 325.969 65.4155 327.156 65.4155 328.514C65.4155 329.866 65.1626 331.048 64.657 332.06C64.1513 333.071 63.4411 333.858 62.5263 334.42C61.6115 334.983 60.5405 335.264 59.3132 335.264ZM59.3217 333.125C60.1172 333.125 60.7763 332.915 61.299 332.494C61.8217 332.074 62.2081 331.514 62.4581 330.815C62.7138 330.116 62.8416 329.347 62.8416 328.506C62.8416 327.67 62.7138 326.903 62.4581 326.205C62.2081 325.5 61.8217 324.935 61.299 324.509C60.7763 324.082 60.1172 323.869 59.3217 323.869C58.5206 323.869 57.8558 324.082 57.3274 324.509C56.8047 324.935 56.4155 325.5 56.1598 326.205C55.9098 326.903 55.7848 327.67 55.7848 328.506C55.7848 329.347 55.9098 330.116 56.1598 330.815C56.4155 331.514 56.8047 332.074 57.3274 332.494C57.8558 332.915 58.5206 333.125 59.3217 333.125ZM73.7741 335.264C72.5469 335.264 71.4759 334.983 70.5611 334.42C69.6463 333.858 68.9361 333.071 68.4304 332.06C67.9247 331.048 67.6719 329.866 67.6719 328.514C67.6719 327.156 67.9247 325.969 68.4304 324.952C68.9361 323.935 69.6463 323.145 70.5611 322.582C71.4759 322.02 72.5469 321.739 73.7741 321.739C75.0014 321.739 76.0724 322.02 76.9872 322.582C77.902 323.145 78.6122 323.935 79.1179 324.952C79.6236 325.969 79.8764 327.156 79.8764 328.514C79.8764 329.866 79.6236 331.048 79.1179 332.06C78.6122 333.071 77.902 333.858 76.9872 334.42C76.0724 334.983 75.0014 335.264 73.7741 335.264ZM73.7827 333.125C74.5781 333.125 75.2372 332.915 75.7599 332.494C76.2827 332.074 76.669 331.514 76.919 330.815C77.1747 330.116 77.3026 329.347 77.3026 328.506C77.3026 327.67 77.1747 326.903 76.919 326.205C76.669 325.5 76.2827 324.935 75.7599 324.509C75.2372 324.082 74.5781 323.869 73.7827 323.869C72.9815 323.869 72.3168 324.082 71.7884 324.509C71.2656 324.935 70.8764 325.5 70.6207 326.205C70.3707 326.903 70.2457 327.67 70.2457 328.506C70.2457 329.347 70.3707 330.116 70.6207 330.815C70.8764 331.514 71.2656 332.074 71.7884 332.494C72.3168 332.915 72.9815 333.125 73.7827 333.125ZM92.5305 325.105L90.2209 325.514C90.1243 325.219 89.9709 324.937 89.7607 324.67C89.5561 324.403 89.2777 324.185 88.9254 324.014C88.5732 323.844 88.1328 323.759 87.6044 323.759C86.8828 323.759 86.2805 323.92 85.7976 324.244C85.3146 324.562 85.0732 324.974 85.0732 325.48C85.0732 325.918 85.2351 326.27 85.5589 326.537C85.8828 326.804 86.4055 327.023 87.1271 327.193L89.2067 327.67C90.4112 327.949 91.3089 328.378 91.8999 328.957C92.4908 329.537 92.7862 330.29 92.7862 331.216C92.7862 332 92.5589 332.699 92.1044 333.312C91.6555 333.92 91.0277 334.398 90.2209 334.744C89.4197 335.091 88.4908 335.264 87.4339 335.264C85.968 335.264 84.772 334.952 83.8459 334.327C82.9197 333.696 82.3516 332.801 82.1413 331.642L84.6044 331.267C84.7578 331.909 85.0732 332.395 85.5504 332.724C86.0277 333.048 86.6499 333.21 87.4169 333.21C88.2521 333.21 88.9197 333.037 89.4197 332.69C89.9197 332.338 90.1697 331.909 90.1697 331.403C90.1697 330.994 90.0163 330.651 89.7095 330.372C89.4084 330.094 88.9453 329.884 88.3203 329.741L86.1044 329.256C84.8828 328.977 83.9794 328.534 83.3942 327.926C82.8146 327.318 82.5249 326.548 82.5249 325.616C82.5249 324.844 82.7408 324.168 83.1726 323.588C83.6044 323.009 84.201 322.557 84.9624 322.233C85.7237 321.903 86.5959 321.739 87.5788 321.739C88.9936 321.739 90.1072 322.045 90.9197 322.659C91.7322 323.267 92.2692 324.082 92.5305 325.105ZM101.23 335.264C99.9403 335.264 98.8295 334.989 97.8977 334.438C96.9716 333.881 96.2557 333.099 95.75 332.094C95.25 331.082 95 329.898 95 328.54C95 327.199 95.25 326.017 95.75 324.994C96.2557 323.972 96.9602 323.173 97.8636 322.599C98.7727 322.026 99.8352 321.739 101.051 321.739C101.79 321.739 102.506 321.861 103.199 322.105C103.892 322.349 104.514 322.733 105.065 323.256C105.616 323.778 106.051 324.457 106.369 325.293C106.688 326.122 106.847 327.131 106.847 328.318V329.222H96.4403V327.312H104.349C104.349 326.642 104.213 326.048 103.94 325.531C103.668 325.009 103.284 324.597 102.79 324.295C102.301 323.994 101.727 323.844 101.068 323.844C100.352 323.844 99.7273 324.02 99.1932 324.372C98.6648 324.719 98.2557 325.173 97.9659 325.736C97.6818 326.293 97.5398 326.898 97.5398 327.551V329.043C97.5398 329.918 97.6932 330.662 98 331.276C98.3125 331.889 98.7472 332.358 99.304 332.682C99.8608 333 100.511 333.159 101.256 333.159C101.739 333.159 102.179 333.091 102.577 332.955C102.974 332.812 103.318 332.602 103.608 332.324C103.898 332.045 104.119 331.702 104.273 331.293L106.685 331.727C106.491 332.437 106.145 333.06 105.645 333.594C105.151 334.122 104.528 334.534 103.778 334.83C103.034 335.119 102.185 335.264 101.23 335.264ZM117.636 339.909C117.256 339.909 116.909 339.878 116.597 339.815C116.284 339.759 116.051 339.696 115.898 339.628L116.511 337.54C116.977 337.665 117.392 337.719 117.756 337.702C118.119 337.685 118.44 337.548 118.719 337.293C119.003 337.037 119.253 336.619 119.469 336.04L119.784 335.17L114.994 321.909H117.722L121.037 332.068H121.173L124.489 321.909H127.224L121.83 336.747C121.58 337.429 121.261 338.006 120.875 338.477C120.489 338.955 120.028 339.313 119.494 339.551C118.96 339.79 118.341 339.909 117.636 339.909ZM134.688 335.264C133.461 335.264 132.39 334.983 131.475 334.42C130.56 333.858 129.85 333.071 129.344 332.06C128.839 331.048 128.586 329.866 128.586 328.514C128.586 327.156 128.839 325.969 129.344 324.952C129.85 323.935 130.56 323.145 131.475 322.582C132.39 322.02 133.461 321.739 134.688 321.739C135.915 321.739 136.987 322.02 137.901 322.582C138.816 323.145 139.526 323.935 140.032 324.952C140.538 325.969 140.79 327.156 140.79 328.514C140.79 329.866 140.538 331.048 140.032 332.06C139.526 333.071 138.816 333.858 137.901 334.42C136.987 334.983 135.915 335.264 134.688 335.264ZM134.697 333.125C135.492 333.125 136.151 332.915 136.674 332.494C137.197 332.074 137.583 331.514 137.833 330.815C138.089 330.116 138.217 329.347 138.217 328.506C138.217 327.67 138.089 326.903 137.833 326.205C137.583 325.5 137.197 324.935 136.674 324.509C136.151 324.082 135.492 323.869 134.697 323.869C133.896 323.869 133.231 324.082 132.702 324.509C132.18 324.935 131.79 325.5 131.535 326.205C131.285 326.903 131.16 327.67 131.16 328.506C131.16 329.347 131.285 330.116 131.535 330.815C131.79 331.514 132.18 332.074 132.702 332.494C133.231 332.915 133.896 333.125 134.697 333.125ZM151.928 329.571V321.909H154.484V335H151.979V332.733H151.842C151.541 333.432 151.058 334.014 150.393 334.48C149.734 334.94 148.913 335.17 147.93 335.17C147.089 335.17 146.345 334.986 145.697 334.616C145.055 334.241 144.55 333.688 144.18 332.955C143.817 332.222 143.635 331.315 143.635 330.236V321.909H146.183V329.929C146.183 330.821 146.43 331.531 146.925 332.06C147.419 332.588 148.061 332.852 148.851 332.852C149.328 332.852 149.803 332.733 150.274 332.494C150.751 332.256 151.146 331.895 151.459 331.412C151.777 330.929 151.933 330.315 151.928 329.571ZM157.908 335V321.909H160.371V323.989H160.508C160.746 323.284 161.167 322.73 161.769 322.327C162.377 321.918 163.065 321.713 163.832 321.713C163.991 321.713 164.178 321.719 164.394 321.73C164.616 321.741 164.789 321.756 164.914 321.773V324.21C164.812 324.182 164.63 324.151 164.369 324.116C164.107 324.077 163.846 324.057 163.585 324.057C162.982 324.057 162.445 324.185 161.974 324.44C161.508 324.69 161.138 325.04 160.866 325.489C160.593 325.932 160.457 326.437 160.457 327.006V335H157.908ZM173.675 335V317.545H179.897C181.255 317.545 182.38 317.793 183.272 318.287C184.164 318.781 184.832 319.457 185.275 320.315C185.718 321.168 185.94 322.128 185.94 323.196C185.94 324.27 185.715 325.236 185.266 326.094C184.823 326.946 184.153 327.622 183.255 328.122C182.363 328.616 181.241 328.864 179.888 328.864H175.61V326.631H179.65C180.508 326.631 181.204 326.483 181.738 326.188C182.272 325.886 182.664 325.477 182.914 324.96C183.164 324.443 183.289 323.855 183.289 323.196C183.289 322.537 183.164 321.952 182.914 321.44C182.664 320.929 182.269 320.528 181.729 320.239C181.195 319.949 180.491 319.804 179.616 319.804H176.309V335H173.675ZM188.822 335V321.909H191.286V323.989H191.422C191.661 323.284 192.081 322.73 192.683 322.327C193.291 321.918 193.979 321.713 194.746 321.713C194.905 321.713 195.092 321.719 195.308 321.73C195.53 321.741 195.703 321.756 195.828 321.773V324.21C195.726 324.182 195.544 324.151 195.283 324.116C195.021 324.077 194.76 324.057 194.499 324.057C193.896 324.057 193.359 324.185 192.888 324.44C192.422 324.69 192.053 325.04 191.78 325.489C191.507 325.932 191.371 326.437 191.371 327.006V335H188.822ZM203.079 335.264C201.852 335.264 200.781 334.983 199.866 334.42C198.951 333.858 198.241 333.071 197.735 332.06C197.229 331.048 196.977 329.866 196.977 328.514C196.977 327.156 197.229 325.969 197.735 324.952C198.241 323.935 198.951 323.145 199.866 322.582C200.781 322.02 201.852 321.739 203.079 321.739C204.306 321.739 205.377 322.02 206.292 322.582C207.207 323.145 207.917 323.935 208.423 324.952C208.928 325.969 209.181 327.156 209.181 328.514C209.181 329.866 208.928 331.048 208.423 332.06C207.917 333.071 207.207 333.858 206.292 334.42C205.377 334.983 204.306 335.264 203.079 335.264ZM203.087 333.125C203.883 333.125 204.542 332.915 205.065 332.494C205.587 332.074 205.974 331.514 206.224 330.815C206.479 330.116 206.607 329.347 206.607 328.506C206.607 327.67 206.479 326.903 206.224 326.205C205.974 325.5 205.587 324.935 205.065 324.509C204.542 324.082 203.883 323.869 203.087 323.869C202.286 323.869 201.621 324.082 201.093 324.509C200.57 324.935 200.181 325.5 199.925 326.205C199.675 326.903 199.55 327.67 199.55 328.506C199.55 329.347 199.675 330.116 199.925 330.815C200.181 331.514 200.57 332.074 201.093 332.494C201.621 332.915 202.286 333.125 203.087 333.125ZM218.136 321.909V323.955H210.986V321.909H218.136ZM212.903 318.773H215.452V331.156C215.452 331.651 215.526 332.023 215.673 332.273C215.821 332.517 216.011 332.685 216.244 332.776C216.483 332.861 216.741 332.903 217.02 332.903C217.224 332.903 217.403 332.889 217.557 332.861C217.71 332.832 217.83 332.81 217.915 332.793L218.375 334.898C218.227 334.955 218.017 335.011 217.744 335.068C217.472 335.131 217.131 335.165 216.722 335.17C216.051 335.182 215.426 335.062 214.847 334.812C214.267 334.562 213.798 334.176 213.44 333.653C213.082 333.131 212.903 332.474 212.903 331.685V318.773ZM226.457 335.264C225.167 335.264 224.056 334.989 223.124 334.438C222.198 333.881 221.482 333.099 220.977 332.094C220.477 331.082 220.227 329.898 220.227 328.54C220.227 327.199 220.477 326.017 220.977 324.994C221.482 323.972 222.187 323.173 223.09 322.599C223.999 322.026 225.062 321.739 226.278 321.739C227.016 321.739 227.732 321.861 228.425 322.105C229.119 322.349 229.741 322.733 230.292 323.256C230.843 323.778 231.278 324.457 231.596 325.293C231.914 326.122 232.073 327.131 232.073 328.318V329.222H221.667V327.312H229.576C229.576 326.642 229.44 326.048 229.167 325.531C228.894 325.009 228.511 324.597 228.016 324.295C227.528 323.994 226.954 323.844 226.295 323.844C225.579 323.844 224.954 324.02 224.42 324.372C223.891 324.719 223.482 325.173 223.192 325.736C222.908 326.293 222.766 326.898 222.766 327.551V329.043C222.766 329.918 222.92 330.662 223.227 331.276C223.539 331.889 223.974 332.358 224.531 332.682C225.087 333 225.738 333.159 226.482 333.159C226.965 333.159 227.406 333.091 227.803 332.955C228.201 332.812 228.545 332.602 228.835 332.324C229.124 332.045 229.346 331.702 229.499 331.293L231.911 331.727C231.718 332.437 231.371 333.06 230.871 333.594C230.377 334.122 229.755 334.534 229.005 334.83C228.261 335.119 227.411 335.264 226.457 335.264ZM234.901 335V321.909H237.449V335H234.901ZM236.188 319.889C235.744 319.889 235.364 319.741 235.045 319.446C234.733 319.145 234.577 318.787 234.577 318.372C234.577 317.952 234.733 317.594 235.045 317.298C235.364 316.997 235.744 316.847 236.188 316.847C236.631 316.847 237.009 316.997 237.321 317.298C237.639 317.594 237.798 317.952 237.798 318.372C237.798 318.787 237.639 319.145 237.321 319.446C237.009 319.741 236.631 319.889 236.188 319.889ZM243.425 327.227V335H240.877V321.909H243.323V324.04H243.485C243.786 323.347 244.258 322.79 244.9 322.369C245.548 321.949 246.363 321.739 247.346 321.739C248.238 321.739 249.019 321.926 249.69 322.301C250.36 322.67 250.88 323.222 251.249 323.955C251.619 324.687 251.803 325.594 251.803 326.673V335H249.255V326.98C249.255 326.031 249.008 325.29 248.513 324.756C248.019 324.216 247.34 323.946 246.477 323.946C245.886 323.946 245.36 324.074 244.9 324.33C244.445 324.585 244.085 324.96 243.817 325.455C243.556 325.943 243.425 326.534 243.425 327.227Z" fill="black"/>
<rect x="20.5" y="362.5" width="352" height="43" rx="7.5" stroke="#BDBDBD"/>
<rect x="31" y="370" width="28" height="28" rx="13.9038" fill="#FF7A18"/>
<circle cx="45" cy="384" r="8.96389" fill="white"/>
<path d="M68.4091 390V378.364H75.3864V379.614H69.8182V383.545H74.8636V384.795H69.8182V390H68.4091ZM77.2041 390V381.273H78.4996V382.591H78.5905C78.7496 382.159 79.0375 381.809 79.4541 381.54C79.8708 381.271 80.3405 381.136 80.8632 381.136C80.9617 381.136 81.0848 381.138 81.2326 381.142C81.3803 381.146 81.492 381.152 81.5678 381.159V382.523C81.5223 382.511 81.4182 382.494 81.2553 382.472C81.0962 382.445 80.9276 382.432 80.7496 382.432C80.3254 382.432 79.9466 382.521 79.6132 382.699C79.2837 382.873 79.0223 383.116 78.8291 383.426C78.6398 383.733 78.5451 384.083 78.5451 384.477V390H77.2041ZM82.8373 390V381.273H84.1782V390H82.8373ZM83.5191 379.818C83.2577 379.818 83.0323 379.729 82.843 379.551C82.6573 379.373 82.5645 379.159 82.5645 378.909C82.5645 378.659 82.6573 378.445 82.843 378.267C83.0323 378.089 83.2577 378 83.5191 378C83.7805 378 84.0039 378.089 84.1895 378.267C84.3789 378.445 84.4736 378.659 84.4736 378.909C84.4736 379.159 84.3789 379.373 84.1895 379.551C84.0039 379.729 83.7805 379.818 83.5191 379.818ZM89.9732 390.182C89.1323 390.182 88.407 389.996 87.7971 389.625C87.191 389.25 86.7232 388.727 86.3937 388.057C86.0679 387.383 85.9051 386.598 85.9051 385.705C85.9051 384.811 86.0679 384.023 86.3937 383.341C86.7232 382.655 87.1816 382.121 87.7687 381.739C88.3596 381.352 89.049 381.159 89.8369 381.159C90.2914 381.159 90.7403 381.235 91.1835 381.386C91.6266 381.538 92.0301 381.784 92.3937 382.125C92.7573 382.462 93.0471 382.909 93.263 383.466C93.4789 384.023 93.5869 384.708 93.5869 385.523V386.091H86.8596V384.932H92.2232C92.2232 384.439 92.1248 384 91.9278 383.614C91.7346 383.227 91.4581 382.922 91.0982 382.699C90.7422 382.475 90.3217 382.364 89.8369 382.364C89.3028 382.364 88.8407 382.496 88.4505 382.761C88.0641 383.023 87.7668 383.364 87.5585 383.784C87.3501 384.205 87.246 384.655 87.246 385.136V385.909C87.246 386.568 87.3596 387.127 87.5869 387.585C87.8179 388.04 88.138 388.386 88.5471 388.625C88.9562 388.86 89.4316 388.977 89.9732 388.977C90.3255 388.977 90.6437 388.928 90.9278 388.83C91.2157 388.727 91.4638 388.576 91.6721 388.375C91.8804 388.17 92.0414 387.917 92.1551 387.614L93.4505 387.977C93.3141 388.417 93.085 388.803 92.763 389.136C92.441 389.466 92.0433 389.723 91.5698 389.909C91.0963 390.091 90.5641 390.182 89.9732 390.182ZM98.6021 390.182C97.8748 390.182 97.2328 389.998 96.676 389.631C96.1191 389.259 95.6835 388.737 95.3691 388.062C95.0548 387.384 94.8976 386.583 94.8976 385.659C94.8976 384.742 95.0548 383.947 95.3691 383.273C95.6835 382.598 96.121 382.078 96.6816 381.71C97.2423 381.343 97.89 381.159 98.6248 381.159C99.193 381.159 99.6419 381.254 99.9714 381.443C100.305 381.629 100.559 381.841 100.733 382.08C100.911 382.314 101.049 382.508 101.148 382.659H101.261V378.364H102.602V390H101.307V388.659H101.148C101.049 388.818 100.909 389.019 100.727 389.261C100.545 389.5 100.286 389.714 99.9487 389.903C99.6116 390.089 99.1627 390.182 98.6021 390.182ZM98.7839 388.977C99.3218 388.977 99.7763 388.837 100.148 388.557C100.519 388.273 100.801 387.881 100.994 387.381C101.187 386.877 101.284 386.295 101.284 385.636C101.284 384.985 101.189 384.415 101 383.926C100.81 383.434 100.53 383.051 100.159 382.778C99.7877 382.502 99.3294 382.364 98.7839 382.364C98.2157 382.364 97.7423 382.509 97.3635 382.801C96.9885 383.089 96.7063 383.481 96.5169 383.977C96.3313 384.47 96.2385 385.023 96.2385 385.636C96.2385 386.258 96.3332 386.822 96.5226 387.33C96.7157 387.833 96.9998 388.235 97.3748 388.534C97.7536 388.83 98.2233 388.977 98.7839 388.977ZM118.65 382H117.241C117.157 381.595 117.011 381.239 116.803 380.932C116.598 380.625 116.348 380.367 116.053 380.159C115.761 379.947 115.437 379.788 115.081 379.682C114.725 379.576 114.354 379.523 113.968 379.523C113.263 379.523 112.625 379.701 112.053 380.057C111.485 380.413 111.032 380.938 110.695 381.631C110.362 382.324 110.195 383.174 110.195 384.182C110.195 385.189 110.362 386.04 110.695 386.733C111.032 387.426 111.485 387.951 112.053 388.307C112.625 388.663 113.263 388.841 113.968 388.841C114.354 388.841 114.725 388.788 115.081 388.682C115.437 388.576 115.761 388.419 116.053 388.21C116.348 387.998 116.598 387.739 116.803 387.432C117.011 387.121 117.157 386.765 117.241 386.364H118.65C118.544 386.958 118.35 387.491 118.07 387.96C117.79 388.43 117.441 388.83 117.025 389.159C116.608 389.485 116.14 389.733 115.621 389.903C115.106 390.074 114.555 390.159 113.968 390.159C112.975 390.159 112.093 389.917 111.32 389.432C110.547 388.947 109.939 388.258 109.496 387.364C109.053 386.47 108.831 385.409 108.831 384.182C108.831 382.955 109.053 381.894 109.496 381C109.939 380.106 110.547 379.417 111.32 378.932C112.093 378.447 112.975 378.205 113.968 378.205C114.555 378.205 115.106 378.29 115.621 378.46C116.14 378.631 116.608 378.881 117.025 379.21C117.441 379.536 117.79 379.934 118.07 380.403C118.35 380.869 118.544 381.402 118.65 382ZM121.766 384.75V390H120.425V378.364H121.766V382.636H121.879C122.084 382.186 122.391 381.828 122.8 381.562C123.213 381.294 123.762 381.159 124.447 381.159C125.042 381.159 125.563 381.278 126.01 381.517C126.457 381.752 126.804 382.114 127.05 382.602C127.3 383.087 127.425 383.705 127.425 384.455V390H126.084V384.545C126.084 383.852 125.904 383.316 125.544 382.938C125.188 382.555 124.694 382.364 124.061 382.364C123.622 382.364 123.228 382.456 122.879 382.642C122.535 382.828 122.262 383.098 122.061 383.455C121.864 383.811 121.766 384.242 121.766 384.75ZM129.558 390V381.273H130.899V390H129.558ZM130.24 379.818C129.978 379.818 129.753 379.729 129.564 379.551C129.378 379.373 129.285 379.159 129.285 378.909C129.285 378.659 129.378 378.445 129.564 378.267C129.753 378.089 129.978 378 130.24 378C130.501 378 130.725 378.089 130.91 378.267C131.1 378.445 131.194 378.659 131.194 378.909C131.194 379.159 131.1 379.373 130.91 379.551C130.725 379.729 130.501 379.818 130.24 379.818ZM136.58 390.182C135.762 390.182 135.058 389.989 134.467 389.602C133.876 389.216 133.421 388.684 133.103 388.006C132.785 387.328 132.626 386.553 132.626 385.682C132.626 384.795 132.789 384.013 133.114 383.335C133.444 382.653 133.902 382.121 134.489 381.739C135.08 381.352 135.77 381.159 136.558 381.159C137.171 381.159 137.724 381.273 138.217 381.5C138.709 381.727 139.112 382.045 139.427 382.455C139.741 382.864 139.936 383.341 140.012 383.886H138.671C138.569 383.489 138.342 383.136 137.989 382.83C137.641 382.519 137.171 382.364 136.58 382.364C136.058 382.364 135.599 382.5 135.205 382.773C134.815 383.042 134.51 383.422 134.29 383.915C134.075 384.403 133.967 384.977 133.967 385.636C133.967 386.311 134.073 386.898 134.285 387.398C134.501 387.898 134.804 388.286 135.194 388.562C135.588 388.839 136.05 388.977 136.58 388.977C136.929 388.977 137.245 388.917 137.529 388.795C137.813 388.674 138.054 388.5 138.251 388.273C138.448 388.045 138.588 387.773 138.671 387.455H140.012C139.936 387.97 139.749 388.434 139.45 388.847C139.154 389.256 138.762 389.581 138.273 389.824C137.789 390.062 137.224 390.182 136.58 390.182ZM142.902 386.818L142.88 385.159H143.152L146.97 381.273H148.63L144.561 385.386H144.448L142.902 386.818ZM141.652 390V378.364H142.993V390H141.652ZM147.198 390L143.789 385.682L144.743 384.75L148.902 390H147.198ZM153.335 390.182C152.494 390.182 151.769 389.996 151.159 389.625C150.553 389.25 150.085 388.727 149.756 388.057C149.43 387.383 149.267 386.598 149.267 385.705C149.267 384.811 149.43 384.023 149.756 383.341C150.085 382.655 150.543 382.121 151.131 381.739C151.721 381.352 152.411 381.159 153.199 381.159C153.653 381.159 154.102 381.235 154.545 381.386C154.989 381.538 155.392 381.784 155.756 382.125C156.119 382.462 156.409 382.909 156.625 383.466C156.841 384.023 156.949 384.708 156.949 385.523V386.091H150.221V384.932H155.585C155.585 384.439 155.487 384 155.29 383.614C155.096 383.227 154.82 382.922 154.46 382.699C154.104 382.475 153.684 382.364 153.199 382.364C152.665 382.364 152.203 382.496 151.812 382.761C151.426 383.023 151.129 383.364 150.92 383.784C150.712 384.205 150.608 384.655 150.608 385.136V385.909C150.608 386.568 150.721 387.127 150.949 387.585C151.18 388.04 151.5 388.386 151.909 388.625C152.318 388.86 152.793 388.977 153.335 388.977C153.687 388.977 154.006 388.928 154.29 388.83C154.578 388.727 154.826 388.576 155.034 388.375C155.242 388.17 155.403 387.917 155.517 387.614L156.812 387.977C156.676 388.417 156.447 388.803 156.125 389.136C155.803 389.466 155.405 389.723 154.932 389.909C154.458 390.091 153.926 390.182 153.335 390.182ZM160.009 384.75V390H158.669V381.273H159.964V382.636H160.078C160.282 382.193 160.593 381.837 161.009 381.568C161.426 381.295 161.964 381.159 162.623 381.159C163.214 381.159 163.731 381.28 164.174 381.523C164.617 381.761 164.962 382.125 165.208 382.614C165.455 383.098 165.578 383.712 165.578 384.455V390H164.237V384.545C164.237 383.86 164.059 383.326 163.703 382.943C163.347 382.557 162.858 382.364 162.237 382.364C161.809 382.364 161.426 382.456 161.089 382.642C160.756 382.828 160.492 383.098 160.299 383.455C160.106 383.811 160.009 384.242 160.009 384.75Z" fill="black"/>
<path d="M299.705 384.182C299.705 382.75 299.89 381.434 300.261 380.233C300.636 379.028 301.17 377.92 301.864 376.909H303.045C302.773 377.284 302.517 377.746 302.278 378.295C302.044 378.841 301.837 379.441 301.659 380.097C301.481 380.748 301.341 381.422 301.239 382.119C301.14 382.816 301.091 383.504 301.091 384.182C301.091 385.083 301.178 385.998 301.352 386.926C301.527 387.854 301.761 388.716 302.057 389.511C302.352 390.307 302.682 390.955 303.045 391.455H301.864C301.17 390.443 300.636 389.337 300.261 388.136C299.89 386.932 299.705 385.614 299.705 384.182ZM308.477 390H304.886V378.364H308.636C309.765 378.364 310.731 378.597 311.534 379.062C312.337 379.525 312.952 380.189 313.38 381.057C313.808 381.92 314.022 382.955 314.022 384.159C314.022 385.371 313.806 386.415 313.375 387.29C312.943 388.161 312.314 388.831 311.488 389.301C310.662 389.767 309.659 390 308.477 390ZM306.295 388.75H308.386C309.348 388.75 310.145 388.564 310.778 388.193C311.411 387.822 311.882 387.294 312.193 386.608C312.503 385.922 312.659 385.106 312.659 384.159C312.659 383.22 312.505 382.411 312.198 381.733C311.892 381.051 311.433 380.528 310.823 380.165C310.214 379.797 309.454 379.614 308.545 379.614H306.295V388.75ZM319.543 390.182C318.702 390.182 317.977 389.996 317.367 389.625C316.761 389.25 316.293 388.727 315.964 388.057C315.638 387.383 315.475 386.598 315.475 385.705C315.475 384.811 315.638 384.023 315.964 383.341C316.293 382.655 316.752 382.121 317.339 381.739C317.93 381.352 318.619 381.159 319.407 381.159C319.861 381.159 320.31 381.235 320.753 381.386C321.197 381.538 321.6 381.784 321.964 382.125C322.327 382.462 322.617 382.909 322.833 383.466C323.049 384.023 323.157 384.708 323.157 385.523V386.091H316.43V384.932H321.793C321.793 384.439 321.695 384 321.498 383.614C321.305 383.227 321.028 382.922 320.668 382.699C320.312 382.475 319.892 382.364 319.407 382.364C318.873 382.364 318.411 382.496 318.021 382.761C317.634 383.023 317.337 383.364 317.128 383.784C316.92 384.205 316.816 384.655 316.816 385.136V385.909C316.816 386.568 316.93 387.127 317.157 387.585C317.388 388.04 317.708 388.386 318.117 388.625C318.526 388.86 319.002 388.977 319.543 388.977C319.896 388.977 320.214 388.928 320.498 388.83C320.786 388.727 321.034 388.576 321.242 388.375C321.45 388.17 321.611 387.917 321.725 387.614L323.021 387.977C322.884 388.417 322.655 388.803 322.333 389.136C322.011 389.466 321.613 389.723 321.14 389.909C320.666 390.091 320.134 390.182 319.543 390.182ZM328.763 381.273V382.409H324.058V381.273H328.763ZM325.468 390V380.068C325.468 379.568 325.585 379.152 325.82 378.818C326.055 378.485 326.36 378.235 326.735 378.068C327.11 377.902 327.505 377.818 327.922 377.818C328.252 377.818 328.521 377.845 328.729 377.898C328.937 377.951 329.093 378 329.195 378.045L328.808 379.205C328.74 379.182 328.646 379.153 328.524 379.119C328.407 379.085 328.252 379.068 328.058 379.068C327.615 379.068 327.295 379.18 327.098 379.403C326.905 379.627 326.808 379.955 326.808 380.386V390H325.468ZM332.64 390.205C332.087 390.205 331.586 390.1 331.135 389.892C330.684 389.68 330.326 389.375 330.061 388.977C329.796 388.576 329.663 388.091 329.663 387.523C329.663 387.023 329.762 386.617 329.959 386.307C330.156 385.992 330.419 385.746 330.748 385.568C331.078 385.39 331.442 385.258 331.839 385.17C332.241 385.08 332.644 385.008 333.05 384.955C333.58 384.886 334.01 384.835 334.339 384.801C334.673 384.763 334.915 384.701 335.067 384.614C335.222 384.527 335.3 384.375 335.3 384.159V384.114C335.3 383.553 335.146 383.117 334.839 382.807C334.536 382.496 334.076 382.341 333.459 382.341C332.818 382.341 332.317 382.481 331.953 382.761C331.589 383.042 331.334 383.341 331.186 383.659L329.913 383.205C330.14 382.674 330.443 382.261 330.822 381.966C331.205 381.667 331.622 381.458 332.072 381.341C332.527 381.22 332.974 381.159 333.413 381.159C333.693 381.159 334.015 381.193 334.379 381.261C334.747 381.326 335.101 381.46 335.442 381.665C335.786 381.869 336.072 382.178 336.3 382.591C336.527 383.004 336.64 383.557 336.64 384.25V390H335.3V388.818H335.231C335.14 389.008 334.989 389.21 334.777 389.426C334.565 389.642 334.282 389.826 333.93 389.977C333.578 390.129 333.148 390.205 332.64 390.205ZM332.845 389C333.375 389 333.822 388.896 334.186 388.688C334.553 388.479 334.83 388.21 335.015 387.881C335.205 387.551 335.3 387.205 335.3 386.841V385.614C335.243 385.682 335.118 385.744 334.925 385.801C334.735 385.854 334.515 385.902 334.265 385.943C334.019 385.981 333.779 386.015 333.544 386.045C333.313 386.072 333.125 386.095 332.981 386.114C332.633 386.159 332.307 386.233 332.004 386.335C331.705 386.434 331.462 386.583 331.277 386.784C331.095 386.981 331.004 387.25 331.004 387.591C331.004 388.057 331.176 388.409 331.521 388.648C331.87 388.883 332.311 389 332.845 389ZM344.268 386.432V381.273H345.609V390H344.268V388.523H344.177C343.972 388.966 343.654 389.343 343.222 389.653C342.791 389.96 342.245 390.114 341.586 390.114C341.041 390.114 340.556 389.994 340.132 389.756C339.707 389.513 339.374 389.15 339.132 388.665C338.889 388.176 338.768 387.561 338.768 386.818V381.273H340.109V386.727C340.109 387.364 340.287 387.871 340.643 388.25C341.003 388.629 341.461 388.818 342.018 388.818C342.351 388.818 342.69 388.733 343.035 388.562C343.383 388.392 343.675 388.131 343.91 387.778C344.149 387.426 344.268 386.977 344.268 386.432ZM349.086 378.364V390H347.745V378.364H349.086ZM355.017 381.273V382.409H350.494V381.273H355.017ZM351.813 379.182H353.153V387.5C353.153 387.879 353.208 388.163 353.318 388.352C353.432 388.538 353.576 388.663 353.75 388.727C353.928 388.788 354.116 388.818 354.313 388.818C354.46 388.818 354.581 388.811 354.676 388.795C354.771 388.777 354.847 388.761 354.903 388.75L355.176 389.955C355.085 389.989 354.958 390.023 354.796 390.057C354.633 390.095 354.426 390.114 354.176 390.114C353.797 390.114 353.426 390.032 353.063 389.869C352.703 389.706 352.403 389.458 352.165 389.125C351.93 388.792 351.813 388.371 351.813 387.864V379.182ZM359.578 385.091C359.578 386.523 359.39 387.841 359.015 389.045C358.644 390.246 358.112 391.352 357.419 392.364H356.237C356.51 391.989 356.763 391.527 356.998 390.977C357.237 390.432 357.445 389.833 357.623 389.182C357.801 388.527 357.94 387.85 358.038 387.153C358.14 386.453 358.191 385.765 358.191 385.091C358.191 384.189 358.104 383.275 357.93 382.347C357.756 381.419 357.521 380.557 357.226 379.761C356.93 378.966 356.601 378.318 356.237 377.818H357.419C358.112 378.83 358.644 379.937 359.015 381.142C359.39 382.343 359.578 383.659 359.578 385.091Z" fill="black"/>
<rect x="20.5" y="425.5" width="352" height="43" rx="7.5" stroke="#BDBDBD"/>
<rect x="31" y="433" width="28" height="28" rx="13.9038" fill="#FF7A18"/>
<circle cx="45" cy="447" r="8.96389" fill="white"/>
<path d="M76.3636 445C76.2386 444.617 76.0739 444.275 75.8693 443.972C75.6686 443.665 75.428 443.403 75.1477 443.188C74.8712 442.972 74.5568 442.807 74.2045 442.693C73.8523 442.58 73.4659 442.523 73.0455 442.523C72.3561 442.523 71.7292 442.701 71.1648 443.057C70.6004 443.413 70.1515 443.938 69.8182 444.631C69.4848 445.324 69.3182 446.174 69.3182 447.182C69.3182 448.189 69.4867 449.04 69.8239 449.733C70.161 450.426 70.6174 450.951 71.1932 451.307C71.7689 451.663 72.4167 451.841 73.1364 451.841C73.803 451.841 74.3902 451.699 74.8977 451.415C75.4091 451.127 75.8068 450.722 76.0909 450.199C76.3788 449.672 76.5227 449.053 76.5227 448.341L76.9545 448.432H73.4545V447.182H77.8864V448.432C77.8864 449.39 77.6818 450.223 77.2727 450.932C76.8674 451.64 76.3068 452.189 75.5909 452.58C74.8788 452.966 74.0606 453.159 73.1364 453.159C72.1061 453.159 71.2008 452.917 70.4205 452.432C69.6439 451.947 69.0379 451.258 68.6023 450.364C68.1705 449.47 67.9545 448.409 67.9545 447.182C67.9545 446.261 68.0777 445.434 68.3239 444.699C68.5739 443.96 68.9261 443.331 69.3807 442.812C69.8352 442.294 70.3731 441.896 70.9943 441.619C71.6155 441.343 72.2992 441.205 73.0455 441.205C73.6591 441.205 74.2311 441.297 74.7614 441.483C75.2955 441.665 75.7708 441.924 76.1875 442.261C76.608 442.595 76.9583 442.994 77.2386 443.46C77.5189 443.922 77.7121 444.436 77.8182 445H76.3636ZM79.7979 453V444.273H81.0934V445.591H81.1843C81.3434 445.159 81.6312 444.809 82.0479 444.54C82.4646 444.271 82.9343 444.136 83.457 444.136C83.5555 444.136 83.6786 444.138 83.8263 444.142C83.974 444.146 84.0858 444.152 84.1615 444.159V445.523C84.1161 445.511 84.0119 445.494 83.849 445.472C83.6899 445.445 83.5214 445.432 83.3434 445.432C82.9191 445.432 82.5403 445.521 82.207 445.699C81.8774 445.873 81.6161 446.116 81.4229 446.426C81.2335 446.733 81.1388 447.083 81.1388 447.477V453H79.7979ZM85.431 453V444.273H86.7719V453H85.431ZM86.1128 442.818C85.8515 442.818 85.6261 442.729 85.4367 442.551C85.2511 442.373 85.1583 442.159 85.1583 441.909C85.1583 441.659 85.2511 441.445 85.4367 441.267C85.6261 441.089 85.8515 441 86.1128 441C86.3742 441 86.5977 441.089 86.7833 441.267C86.9727 441.445 87.0674 441.659 87.0674 441.909C87.0674 442.159 86.9727 442.373 86.7833 442.551C86.5977 442.729 86.3742 442.818 86.1128 442.818ZM90.2488 441.364V453H88.9079V441.364H90.2488ZM93.7257 441.364V453H92.3848V441.364H93.7257ZM99.5207 453.182C98.6798 453.182 97.9545 452.996 97.3446 452.625C96.7385 452.25 96.2707 451.727 95.9412 451.057C95.6154 450.383 95.4526 449.598 95.4526 448.705C95.4526 447.811 95.6154 447.023 95.9412 446.341C96.2707 445.655 96.7291 445.121 97.3162 444.739C97.9071 444.352 98.5965 444.159 99.3844 444.159C99.8389 444.159 100.288 444.235 100.731 444.386C101.174 444.538 101.578 444.784 101.941 445.125C102.305 445.462 102.595 445.909 102.811 446.466C103.026 447.023 103.134 447.708 103.134 448.523V449.091H96.4071V447.932H101.771C101.771 447.439 101.672 447 101.475 446.614C101.282 446.227 101.006 445.922 100.646 445.699C100.29 445.475 99.8692 445.364 99.3844 445.364C98.8503 445.364 98.3882 445.496 97.998 445.761C97.6116 446.023 97.3143 446.364 97.106 446.784C96.8976 447.205 96.7935 447.655 96.7935 448.136V448.909C96.7935 449.568 96.9071 450.127 97.1344 450.585C97.3654 451.04 97.6855 451.386 98.0946 451.625C98.5037 451.86 98.9791 451.977 99.5207 451.977C99.873 451.977 100.191 451.928 100.475 451.83C100.763 451.727 101.011 451.576 101.22 451.375C101.428 451.17 101.589 450.917 101.703 450.614L102.998 450.977C102.862 451.417 102.632 451.803 102.311 452.136C101.989 452.466 101.591 452.723 101.117 452.909C100.644 453.091 100.112 453.182 99.5207 453.182ZM108.15 453.182C107.422 453.182 106.78 452.998 106.223 452.631C105.667 452.259 105.231 451.737 104.917 451.062C104.602 450.384 104.445 449.583 104.445 448.659C104.445 447.742 104.602 446.947 104.917 446.273C105.231 445.598 105.669 445.078 106.229 444.71C106.79 444.343 107.437 444.159 108.172 444.159C108.741 444.159 109.189 444.254 109.519 444.443C109.852 444.629 110.106 444.841 110.28 445.08C110.458 445.314 110.597 445.508 110.695 445.659H110.809V441.364H112.15V453H110.854V451.659H110.695C110.597 451.818 110.456 452.019 110.275 452.261C110.093 452.5 109.833 452.714 109.496 452.903C109.159 453.089 108.71 453.182 108.15 453.182ZM108.331 451.977C108.869 451.977 109.324 451.837 109.695 451.557C110.066 451.273 110.348 450.881 110.542 450.381C110.735 449.877 110.831 449.295 110.831 448.636C110.831 447.985 110.737 447.415 110.547 446.926C110.358 446.434 110.078 446.051 109.706 445.778C109.335 445.502 108.877 445.364 108.331 445.364C107.763 445.364 107.29 445.509 106.911 445.801C106.536 446.089 106.254 446.481 106.064 446.977C105.879 447.47 105.786 448.023 105.786 448.636C105.786 449.258 105.881 449.822 106.07 450.33C106.263 450.833 106.547 451.235 106.922 451.534C107.301 451.83 107.771 451.977 108.331 451.977ZM118.833 453V441.364H125.811V442.614H120.243V446.545H125.288V447.795H120.243V453H118.833ZM127.722 453V444.273H129.063V453H127.722ZM128.404 442.818C128.143 442.818 127.917 442.729 127.728 442.551C127.542 442.373 127.45 442.159 127.45 441.909C127.45 441.659 127.542 441.445 127.728 441.267C127.917 441.089 128.143 441 128.404 441C128.665 441 128.889 441.089 129.075 441.267C129.264 441.445 129.359 441.659 129.359 441.909C129.359 442.159 129.264 442.373 129.075 442.551C128.889 442.729 128.665 442.818 128.404 442.818ZM137.381 446.227L136.176 446.568C136.101 446.367 135.989 446.172 135.841 445.983C135.697 445.79 135.5 445.631 135.25 445.506C135 445.381 134.68 445.318 134.29 445.318C133.756 445.318 133.311 445.441 132.955 445.688C132.603 445.93 132.426 446.239 132.426 446.614C132.426 446.947 132.548 447.21 132.79 447.403C133.032 447.597 133.411 447.758 133.926 447.886L135.222 448.205C136.002 448.394 136.584 448.684 136.966 449.074C137.349 449.46 137.54 449.958 137.54 450.568C137.54 451.068 137.396 451.515 137.108 451.909C136.824 452.303 136.426 452.614 135.915 452.841C135.404 453.068 134.809 453.182 134.131 453.182C133.241 453.182 132.504 452.989 131.921 452.602C131.337 452.216 130.968 451.652 130.813 450.909L132.086 450.591C132.207 451.061 132.436 451.413 132.773 451.648C133.114 451.883 133.559 452 134.108 452C134.733 452 135.229 451.867 135.597 451.602C135.968 451.333 136.154 451.011 136.154 450.636C136.154 450.333 136.048 450.08 135.836 449.875C135.623 449.667 135.298 449.511 134.858 449.409L133.404 449.068C132.604 448.879 132.017 448.585 131.642 448.188C131.271 447.786 131.086 447.284 131.086 446.682C131.086 446.189 131.224 445.754 131.5 445.375C131.781 444.996 132.161 444.699 132.642 444.483C133.127 444.267 133.676 444.159 134.29 444.159C135.154 444.159 135.832 444.348 136.324 444.727C136.82 445.106 137.173 445.606 137.381 446.227ZM140.579 447.75V453H139.239V441.364H140.579V445.636H140.693C140.898 445.186 141.204 444.828 141.614 444.562C142.026 444.294 142.576 444.159 143.261 444.159C143.856 444.159 144.377 444.278 144.824 444.517C145.271 444.752 145.617 445.114 145.864 445.602C146.114 446.087 146.239 446.705 146.239 447.455V453H144.898V447.545C144.898 446.852 144.718 446.316 144.358 445.938C144.002 445.555 143.507 445.364 142.875 445.364C142.435 445.364 142.042 445.456 141.693 445.642C141.348 445.828 141.076 446.098 140.875 446.455C140.678 446.811 140.579 447.242 140.579 447.75Z" fill="black"/>
<path d="M314.636 450.955V443.455H315.909V450.955H314.636ZM311.523 447.841V446.568H319.023V447.841H311.523ZM332.181 445.614V446.75H320.591V445.614H332.181ZM332.181 448.068V449.205H320.591V448.068H332.181ZM331 441.364V453H329.636L323.295 443.864H323.181V453H321.772V441.364H323.136L329.5 450.523H329.613V441.364H331ZM337.06 453.159C336.394 453.159 335.793 453.027 335.259 452.761C334.725 452.496 334.297 452.133 333.975 451.67C333.653 451.208 333.477 450.682 333.447 450.091H334.81C334.863 450.617 335.102 451.053 335.526 451.398C335.954 451.739 336.466 451.909 337.06 451.909C337.538 451.909 337.962 451.797 338.333 451.574C338.708 451.35 339.002 451.044 339.214 450.653C339.43 450.259 339.538 449.814 339.538 449.318C339.538 448.811 339.426 448.358 339.202 447.96C338.983 447.559 338.68 447.242 338.293 447.011C337.907 446.78 337.466 446.663 336.969 446.659C336.613 446.655 336.248 446.71 335.873 446.824C335.498 446.934 335.189 447.076 334.947 447.25L333.628 447.091L334.333 441.364H340.378V442.614H335.515L335.106 446.045H335.174C335.413 445.856 335.712 445.699 336.072 445.574C336.431 445.449 336.806 445.386 337.197 445.386C337.909 445.386 338.543 445.557 339.1 445.898C339.661 446.235 340.1 446.697 340.418 447.284C340.74 447.871 340.901 448.542 340.901 449.295C340.901 450.038 340.735 450.701 340.401 451.284C340.072 451.864 339.617 452.322 339.038 452.659C338.458 452.992 337.799 453.159 337.06 453.159ZM346.634 453.159C345.778 453.159 345.049 452.926 344.446 452.46C343.844 451.991 343.384 451.311 343.066 450.42C342.747 449.527 342.588 448.447 342.588 447.182C342.588 445.924 342.747 444.85 343.066 443.96C343.388 443.066 343.85 442.384 344.452 441.915C345.058 441.441 345.785 441.205 346.634 441.205C347.482 441.205 348.208 441.441 348.81 441.915C349.416 442.384 349.878 443.066 350.196 443.96C350.518 444.85 350.679 445.924 350.679 447.182C350.679 448.447 350.52 449.527 350.202 450.42C349.884 451.311 349.424 451.991 348.821 452.46C348.219 452.926 347.49 453.159 346.634 453.159ZM346.634 451.909C347.482 451.909 348.141 451.5 348.611 450.682C349.081 449.864 349.316 448.697 349.316 447.182C349.316 446.174 349.208 445.316 348.992 444.608C348.78 443.9 348.473 443.36 348.071 442.989C347.674 442.617 347.194 442.432 346.634 442.432C345.793 442.432 345.136 442.847 344.662 443.676C344.189 444.502 343.952 445.67 343.952 447.182C343.952 448.189 344.058 449.045 344.27 449.75C344.482 450.455 344.787 450.991 345.185 451.358C345.586 451.725 346.069 451.909 346.634 451.909ZM356.314 453.159C355.458 453.159 354.729 452.926 354.126 452.46C353.524 451.991 353.064 451.311 352.746 450.42C352.427 449.527 352.268 448.447 352.268 447.182C352.268 445.924 352.427 444.85 352.746 443.96C353.068 443.066 353.53 442.384 354.132 441.915C354.738 441.441 355.465 441.205 356.314 441.205C357.162 441.205 357.888 441.441 358.49 441.915C359.096 442.384 359.558 443.066 359.876 443.96C360.198 444.85 360.359 445.924 360.359 447.182C360.359 448.447 360.2 449.527 359.882 450.42C359.564 451.311 359.104 451.991 358.501 452.46C357.899 452.926 357.17 453.159 356.314 453.159ZM356.314 451.909C357.162 451.909 357.821 451.5 358.291 450.682C358.761 449.864 358.996 448.697 358.996 447.182C358.996 446.174 358.888 445.316 358.672 444.608C358.46 443.9 358.153 443.36 357.751 442.989C357.354 442.617 356.874 442.432 356.314 442.432C355.473 442.432 354.816 442.847 354.342 443.676C353.869 444.502 353.632 445.67 353.632 447.182C353.632 448.189 353.738 449.045 353.95 449.75C354.162 450.455 354.467 450.991 354.865 451.358C355.266 451.725 355.749 451.909 356.314 451.909Z" fill="black"/>
<rect x="20.5" y="488.5" width="352" height="43" rx="7.5" stroke="#BDBDBD"/>
<rect x="31" y="496" width="28" height="28" rx="13.9038" fill="#FF7A18"/>
<circle cx="45" cy="510" r="8.96389" fill="white"/>
<path d="M68.4091 516V504.364H72.4773C73.2879 504.364 73.9564 504.504 74.483 504.784C75.0095 505.061 75.4015 505.434 75.6591 505.903C75.9167 506.369 76.0455 506.886 76.0455 507.455C76.0455 507.955 75.9564 508.367 75.7784 508.693C75.6042 509.019 75.3731 509.277 75.0852 509.466C74.8011 509.655 74.4924 509.795 74.1591 509.886V510C74.5152 510.023 74.8731 510.148 75.233 510.375C75.5928 510.602 75.8939 510.928 76.1364 511.352C76.3788 511.777 76.5 512.295 76.5 512.909C76.5 513.492 76.3674 514.017 76.1023 514.483C75.8371 514.949 75.4186 515.318 74.8466 515.591C74.2746 515.864 73.5303 516 72.6136 516H68.4091ZM69.8182 514.75H72.6136C73.5341 514.75 74.1875 514.572 74.5739 514.216C74.964 513.856 75.1591 513.42 75.1591 512.909C75.1591 512.515 75.0587 512.152 74.858 511.818C74.6572 511.481 74.3712 511.212 74 511.011C73.6288 510.807 73.1894 510.705 72.6818 510.705H69.8182V514.75ZM69.8182 509.477H72.4318C72.8561 509.477 73.2386 509.394 73.5795 509.227C73.9242 509.061 74.197 508.826 74.3977 508.523C74.6023 508.22 74.7045 507.864 74.7045 507.455C74.7045 506.943 74.5265 506.509 74.1705 506.153C73.8144 505.794 73.25 505.614 72.4773 505.614H69.8182V509.477ZM81.9726 516.182C81.1317 516.182 80.4063 515.996 79.7965 515.625C79.1904 515.25 78.7226 514.727 78.3931 514.057C78.0673 513.383 77.9044 512.598 77.9044 511.705C77.9044 510.811 78.0673 510.023 78.3931 509.341C78.7226 508.655 79.1809 508.121 79.7681 507.739C80.359 507.352 81.0484 507.159 81.8363 507.159C82.2908 507.159 82.7397 507.235 83.1828 507.386C83.626 507.538 84.0294 507.784 84.3931 508.125C84.7567 508.462 85.0465 508.909 85.2624 509.466C85.4783 510.023 85.5863 510.708 85.5863 511.523V512.091H78.859V510.932H84.2226C84.2226 510.439 84.1241 510 83.9272 509.614C83.734 509.227 83.4575 508.922 83.0976 508.699C82.7416 508.475 82.3211 508.364 81.8363 508.364C81.3022 508.364 80.84 508.496 80.4499 508.761C80.0635 509.023 79.7662 509.364 79.5578 509.784C79.3495 510.205 79.2453 510.655 79.2453 511.136V511.909C79.2453 512.568 79.359 513.127 79.5863 513.585C79.8173 514.04 80.1374 514.386 80.5465 514.625C80.9556 514.86 81.4309 514.977 81.9726 514.977C82.3249 514.977 82.6431 514.928 82.9272 514.83C83.215 514.727 83.4631 514.576 83.6715 514.375C83.8798 514.17 84.0408 513.917 84.1544 513.614L85.4499 513.977C85.3135 514.417 85.0844 514.803 84.7624 515.136C84.4404 515.466 84.0427 515.723 83.5692 515.909C83.0957 516.091 82.5635 516.182 81.9726 516.182ZM90.9651 516.182C90.1242 516.182 89.3988 515.996 88.789 515.625C88.1829 515.25 87.7151 514.727 87.3856 514.057C87.0598 513.383 86.8969 512.598 86.8969 511.705C86.8969 510.811 87.0598 510.023 87.3856 509.341C87.7151 508.655 88.1734 508.121 88.7606 507.739C89.3515 507.352 90.0409 507.159 90.8288 507.159C91.2833 507.159 91.7322 507.235 92.1753 507.386C92.6185 507.538 93.0219 507.784 93.3856 508.125C93.7492 508.462 94.039 508.909 94.2549 509.466C94.4708 510.023 94.5788 510.708 94.5788 511.523V512.091H87.8515V510.932H93.2151C93.2151 510.439 93.1166 510 92.9197 509.614C92.7265 509.227 92.45 508.922 92.0901 508.699C91.7341 508.475 91.3136 508.364 90.8288 508.364C90.2947 508.364 89.8325 508.496 89.4424 508.761C89.056 509.023 88.7587 509.364 88.5503 509.784C88.342 510.205 88.2378 510.655 88.2378 511.136V511.909C88.2378 512.568 88.3515 513.127 88.5788 513.585C88.8098 514.04 89.1299 514.386 89.539 514.625C89.9481 514.86 90.4234 514.977 90.9651 514.977C91.3174 514.977 91.6356 514.928 91.9197 514.83C92.2075 514.727 92.4556 514.576 92.664 514.375C92.8723 514.17 93.0333 513.917 93.1469 513.614L94.4424 513.977C94.306 514.417 94.0769 514.803 93.7549 515.136C93.4329 515.466 93.0352 515.723 92.5617 515.909C92.0882 516.091 91.556 516.182 90.9651 516.182ZM100.185 507.273V508.409H95.4803V507.273H100.185ZM96.8894 516V506.068C96.8894 505.568 97.0069 505.152 97.2417 504.818C97.4766 504.485 97.7815 504.235 98.1565 504.068C98.5315 503.902 98.9273 503.818 99.344 503.818C99.6735 503.818 99.9425 503.845 100.151 503.898C100.359 503.951 100.514 504 100.617 504.045L100.23 505.205C100.162 505.182 100.067 505.153 99.9463 505.119C99.8288 505.085 99.6735 505.068 99.4803 505.068C99.0372 505.068 98.7171 505.18 98.5201 505.403C98.3269 505.627 98.2303 505.955 98.2303 506.386V516H96.8894Z" fill="black"/>
<path d="M315.636 513.955V506.455H316.909V513.955H315.636ZM312.523 510.841V509.568H320.023V510.841H312.523ZM333.181 508.614V509.75H321.591V508.614H333.181ZM333.181 511.068V512.205H321.591V511.068H333.181ZM332 504.364V516H330.636L324.295 506.864H324.181V516H322.772V504.364H324.136L330.5 513.523H330.613V504.364H332ZM334.788 516L339.992 505.705V505.614H333.992V504.364H341.447V505.682L336.265 516H334.788ZM346.79 516.159C345.934 516.159 345.205 515.926 344.603 515.46C344 514.991 343.54 514.311 343.222 513.42C342.904 512.527 342.745 511.447 342.745 510.182C342.745 508.924 342.904 507.85 343.222 506.96C343.544 506.066 344.006 505.384 344.608 504.915C345.214 504.441 345.942 504.205 346.79 504.205C347.638 504.205 348.364 504.441 348.966 504.915C349.572 505.384 350.034 506.066 350.353 506.96C350.674 507.85 350.835 508.924 350.835 510.182C350.835 511.447 350.676 512.527 350.358 513.42C350.04 514.311 349.58 514.991 348.978 515.46C348.375 515.926 347.646 516.159 346.79 516.159ZM346.79 514.909C347.638 514.909 348.298 514.5 348.767 513.682C349.237 512.864 349.472 511.697 349.472 510.182C349.472 509.174 349.364 508.316 349.148 507.608C348.936 506.9 348.629 506.36 348.228 505.989C347.83 505.617 347.351 505.432 346.79 505.432C345.949 505.432 345.292 505.847 344.818 506.676C344.345 507.502 344.108 508.67 344.108 510.182C344.108 511.189 344.214 512.045 344.426 512.75C344.638 513.455 344.943 513.991 345.341 514.358C345.743 514.725 346.226 514.909 346.79 514.909ZM356.47 516.159C355.614 516.159 354.885 515.926 354.283 515.46C353.68 514.991 353.22 514.311 352.902 513.42C352.584 512.527 352.425 511.447 352.425 510.182C352.425 508.924 352.584 507.85 352.902 506.96C353.224 506.066 353.686 505.384 354.288 504.915C354.894 504.441 355.622 504.205 356.47 504.205C357.318 504.205 358.044 504.441 358.646 504.915C359.252 505.384 359.714 506.066 360.033 506.96C360.354 507.85 360.515 508.924 360.515 510.182C360.515 511.447 360.356 512.527 360.038 513.42C359.72 514.311 359.26 514.991 358.658 515.46C358.055 515.926 357.326 516.159 356.47 516.159ZM356.47 514.909C357.318 514.909 357.978 514.5 358.447 513.682C358.917 512.864 359.152 511.697 359.152 510.182C359.152 509.174 359.044 508.316 358.828 507.608C358.616 506.9 358.309 506.36 357.908 505.989C357.51 505.617 357.031 505.432 356.47 505.432C355.629 505.432 354.972 505.847 354.498 506.676C354.025 507.502 353.788 508.67 353.788 510.182C353.788 511.189 353.894 512.045 354.106 512.75C354.318 513.455 354.623 513.991 355.021 514.358C355.423 514.725 355.906 514.909 356.47 514.909Z" fill="black"/>
</svg>
