<svg width="858" height="260" viewBox="0 0 858 260" fill="none" xmlns="http://www.w3.org/2000/svg">
<path d="M1.91761 36V18.5455H12.8608V20.8125H4.55114V26.1307H12.2898V28.3892H4.55114V33.733H12.9631V36H1.91761ZM18.1854 22.9091L21.0746 28.0057L23.9893 22.9091H26.7763L22.6939 29.4545L26.8104 36H24.0234L21.0746 31.108L18.1342 36H15.3388L19.4126 29.4545L15.3899 22.9091H18.1854ZM35.5036 22.9091V24.9545H28.353V22.9091H35.5036ZM30.2706 19.7727H32.8189V32.1562C32.8189 32.6506 32.8928 33.0227 33.0405 33.2727C33.1882 33.517 33.3786 33.6847 33.6115 33.7756C33.8501 33.8608 34.1087 33.9034 34.3871 33.9034C34.5916 33.9034 34.7706 33.8892 34.924 33.8608C35.0774 33.8324 35.1967 33.8097 35.282 33.7926L35.7422 35.8977C35.5945 35.9545 35.3842 36.0114 35.1115 36.0682C34.8388 36.1307 34.4979 36.1648 34.0888 36.1705C33.4183 36.1818 32.7933 36.0625 32.2138 35.8125C31.6342 35.5625 31.1655 35.1761 30.8075 34.6534C30.4496 34.1307 30.2706 33.4744 30.2706 32.6847V19.7727ZM38.3224 36V22.9091H40.7855V24.9886H40.9219C41.1605 24.2841 41.581 23.7301 42.1832 23.3267C42.7912 22.9176 43.4787 22.7131 44.2457 22.7131C44.4048 22.7131 44.5923 22.7187 44.8082 22.7301C45.0298 22.7415 45.2031 22.7557 45.3281 22.7727V25.2102C45.2259 25.1818 45.044 25.1506 44.7827 25.1165C44.5213 25.0767 44.2599 25.0568 43.9986 25.0568C43.3963 25.0568 42.8594 25.1847 42.3878 25.4403C41.9219 25.6903 41.5526 26.0398 41.2798 26.4886C41.0071 26.9318 40.8707 27.4375 40.8707 28.0057V36H38.3224ZM51.2259 36.2898C50.3963 36.2898 49.6463 36.1364 48.9759 35.8295C48.3054 35.517 47.7741 35.0653 47.3821 34.4744C46.9957 33.8835 46.8026 33.1591 46.8026 32.3011C46.8026 31.5625 46.9446 30.9545 47.2287 30.4773C47.5128 30 47.8963 29.6222 48.3793 29.3438C48.8622 29.0653 49.402 28.8551 49.9986 28.7131C50.5952 28.571 51.2031 28.4631 51.8224 28.3892C52.6065 28.2983 53.2429 28.2244 53.7315 28.1676C54.2202 28.1051 54.5753 28.0057 54.7969 27.8693C55.0185 27.733 55.1293 27.5114 55.1293 27.2045V27.1449C55.1293 26.4006 54.919 25.8239 54.4986 25.4148C54.0838 25.0057 53.4645 24.8011 52.6406 24.8011C51.7827 24.8011 51.1065 24.9915 50.6122 25.3722C50.1236 25.7472 49.7855 26.1648 49.598 26.625L47.2031 26.0795C47.4872 25.2841 47.902 24.642 48.4474 24.1534C48.9986 23.6591 49.6321 23.3011 50.348 23.0795C51.0639 22.8523 51.8168 22.7386 52.6065 22.7386C53.1293 22.7386 53.6832 22.8011 54.2685 22.9261C54.8594 23.0455 55.4105 23.267 55.9219 23.5909C56.4389 23.9148 56.8622 24.3778 57.1918 24.9801C57.5213 25.5767 57.6861 26.3523 57.6861 27.3068V36H55.1974V34.2102H55.0952C54.9304 34.5398 54.6832 34.8636 54.3537 35.1818C54.0241 35.5 53.6009 35.7642 53.0838 35.9744C52.5668 36.1847 51.9474 36.2898 51.2259 36.2898ZM51.7798 34.2443C52.4844 34.2443 53.0866 34.1051 53.5866 33.8267C54.0923 33.5483 54.4759 33.1847 54.7372 32.7358C55.0043 32.2812 55.1378 31.7955 55.1378 31.2784V29.5909C55.0469 29.6818 54.8707 29.767 54.6094 29.8466C54.3537 29.9205 54.0611 29.9858 53.7315 30.0426C53.402 30.0937 53.081 30.142 52.7685 30.1875C52.456 30.2273 52.1946 30.2614 51.9844 30.2898C51.4901 30.3523 51.0384 30.4574 50.6293 30.6051C50.2259 30.7528 49.902 30.9659 49.6577 31.2443C49.419 31.517 49.2997 31.8807 49.2997 32.3352C49.2997 32.9659 49.5327 33.4432 49.9986 33.767C50.4645 34.0852 51.0582 34.2443 51.7798 34.2443ZM77.1562 23.1307C77.0653 22.3239 76.6903 21.6989 76.0312 21.2557C75.3722 20.8068 74.5426 20.5824 73.5426 20.5824C72.8267 20.5824 72.2074 20.696 71.6847 20.9233C71.1619 21.1449 70.7557 21.4517 70.4659 21.8438C70.1818 22.2301 70.0398 22.6705 70.0398 23.1648C70.0398 23.5795 70.1364 23.9375 70.3295 24.2386C70.5284 24.5398 70.7869 24.7926 71.1051 24.9972C71.429 25.196 71.7756 25.3636 72.1449 25.5C72.5142 25.6307 72.8693 25.7386 73.2102 25.8239L74.9148 26.267C75.4716 26.4034 76.0426 26.5881 76.6278 26.821C77.2131 27.054 77.7557 27.3608 78.2557 27.7415C78.7557 28.1222 79.1591 28.5938 79.4659 29.1562C79.7784 29.7188 79.9347 30.392 79.9347 31.1761C79.9347 32.1648 79.679 33.0426 79.1676 33.8097C78.6619 34.5767 77.9261 35.1818 76.9602 35.625C76 36.0682 74.8381 36.2898 73.4744 36.2898C72.1676 36.2898 71.0369 36.0824 70.0824 35.6676C69.1278 35.2528 68.3807 34.6648 67.8409 33.9034C67.3011 33.1364 67.0028 32.2273 66.946 31.1761H69.5881C69.6392 31.8068 69.8438 32.3324 70.2017 32.7528C70.5653 33.1676 71.0284 33.4773 71.5909 33.6818C72.1591 33.8807 72.7812 33.9801 73.4574 33.9801C74.2017 33.9801 74.8636 33.8636 75.4432 33.6307C76.0284 33.392 76.4886 33.0625 76.8239 32.642C77.1591 32.2159 77.3267 31.7187 77.3267 31.1506C77.3267 30.6335 77.179 30.2102 76.8835 29.8807C76.5938 29.5511 76.1989 29.2784 75.6989 29.0625C75.2045 28.8466 74.6449 28.6562 74.0199 28.4915L71.9574 27.929C70.5597 27.5483 69.4517 26.9886 68.6335 26.25C67.821 25.5114 67.4148 24.5341 67.4148 23.3182C67.4148 22.3125 67.6875 21.4347 68.233 20.6847C68.7784 19.9347 69.517 19.3523 70.4489 18.9375C71.3807 18.517 72.4318 18.3068 73.6023 18.3068C74.7841 18.3068 75.8267 18.5142 76.7301 18.929C77.6392 19.3438 78.3551 19.9148 78.8778 20.642C79.4006 21.3636 79.6733 22.1932 79.696 23.1307H77.1562ZM82.8771 36V22.9091H85.4254V36H82.8771ZM84.1641 20.8892C83.7209 20.8892 83.3402 20.7415 83.022 20.446C82.7095 20.1449 82.5533 19.7869 82.5533 19.3722C82.5533 18.9517 82.7095 18.5937 83.022 18.2983C83.3402 17.9972 83.7209 17.8466 84.1641 17.8466C84.6072 17.8466 84.9851 17.9972 85.2976 18.2983C85.6158 18.5937 85.7749 18.9517 85.7749 19.3722C85.7749 19.7869 85.6158 20.1449 85.2976 20.446C84.9851 20.7415 84.6072 20.8892 84.1641 20.8892ZM93.7543 36.2557C92.6974 36.2557 91.7543 35.9858 90.9247 35.446C90.1009 34.9006 89.4531 34.125 88.9815 33.1193C88.5156 32.108 88.2827 30.8949 88.2827 29.4801C88.2827 28.0653 88.5185 26.8551 88.9901 25.8494C89.4673 24.8437 90.1207 24.0739 90.9503 23.5398C91.7798 23.0057 92.7202 22.7386 93.7713 22.7386C94.5838 22.7386 95.2372 22.875 95.7315 23.1477C96.2315 23.4148 96.6179 23.7273 96.8906 24.0852C97.169 24.4432 97.3849 24.7585 97.5384 25.0312H97.6918V18.5455H100.24V36H97.7514V33.9631H97.5384C97.3849 34.2415 97.1634 34.5597 96.8736 34.9176C96.5895 35.2756 96.1974 35.5881 95.6974 35.8551C95.1974 36.1222 94.5497 36.2557 93.7543 36.2557ZM94.3168 34.0824C95.0497 34.0824 95.669 33.8892 96.1747 33.5028C96.6861 33.1108 97.0724 32.5682 97.3338 31.875C97.6009 31.1818 97.7344 30.375 97.7344 29.4545C97.7344 28.5455 97.6037 27.75 97.3423 27.0682C97.081 26.3864 96.6974 25.8551 96.1918 25.4744C95.6861 25.0937 95.0611 24.9034 94.3168 24.9034C93.5497 24.9034 92.9105 25.1023 92.3991 25.5C91.8878 25.8977 91.5014 26.4403 91.2401 27.1278C90.9844 27.8153 90.8565 28.5909 90.8565 29.4545C90.8565 30.3295 90.9872 31.1165 91.2486 31.8153C91.5099 32.5142 91.8963 33.0682 92.4077 33.4773C92.9247 33.8807 93.5611 34.0824 94.3168 34.0824ZM109.519 36.2642C108.229 36.2642 107.119 35.9886 106.187 35.4375C105.261 34.8807 104.545 34.0994 104.039 33.0938C103.539 32.0824 103.289 30.8977 103.289 29.5398C103.289 28.1989 103.539 27.017 104.039 25.9943C104.545 24.9716 105.249 24.1733 106.153 23.5994C107.062 23.0256 108.124 22.7386 109.34 22.7386C110.079 22.7386 110.795 22.8608 111.488 23.1051C112.181 23.3494 112.803 23.733 113.354 24.2557C113.906 24.7784 114.34 25.4574 114.658 26.2926C114.977 27.1222 115.136 28.1307 115.136 29.3182V30.2216H104.729V28.3125H112.638C112.638 27.642 112.502 27.0483 112.229 26.5312C111.957 26.0085 111.573 25.5966 111.079 25.2955C110.59 24.9943 110.016 24.8438 109.357 24.8438C108.641 24.8438 108.016 25.0199 107.482 25.3722C106.954 25.7187 106.545 26.1733 106.255 26.7358C105.971 27.2926 105.829 27.8977 105.829 28.5511V30.0426C105.829 30.9176 105.982 31.6619 106.289 32.2756C106.602 32.8892 107.036 33.358 107.593 33.6818C108.15 34 108.8 34.1591 109.545 34.1591C110.028 34.1591 110.468 34.0909 110.866 33.9545C111.263 33.8125 111.607 33.6023 111.897 33.3239C112.187 33.0455 112.408 32.7017 112.562 32.2926L114.974 32.7273C114.781 33.4375 114.434 34.0597 113.934 34.5938C113.44 35.1222 112.817 35.5341 112.067 35.8295C111.323 36.1193 110.474 36.2642 109.519 36.2642ZM127.773 26.1051L125.463 26.5142C125.366 26.2187 125.213 25.9375 125.003 25.6705C124.798 25.4034 124.52 25.1847 124.168 25.0142C123.815 24.8437 123.375 24.7585 122.847 24.7585C122.125 24.7585 121.523 24.9205 121.04 25.2443C120.557 25.5625 120.315 25.9744 120.315 26.4801C120.315 26.9176 120.477 27.2699 120.801 27.5369C121.125 27.804 121.648 28.0227 122.369 28.1932L124.449 28.6705C125.653 28.9489 126.551 29.3778 127.142 29.9574C127.733 30.5369 128.028 31.2898 128.028 32.2159C128.028 33 127.801 33.6989 127.347 34.3125C126.898 34.9205 126.27 35.3977 125.463 35.7443C124.662 36.0909 123.733 36.2642 122.676 36.2642C121.21 36.2642 120.014 35.9517 119.088 35.3267C118.162 34.696 117.594 33.8011 117.384 32.642L119.847 32.267C120 32.9091 120.315 33.3949 120.793 33.7244C121.27 34.0483 121.892 34.2102 122.659 34.2102C123.494 34.2102 124.162 34.0369 124.662 33.6903C125.162 33.3381 125.412 32.9091 125.412 32.4034C125.412 31.9943 125.259 31.6506 124.952 31.3722C124.651 31.0937 124.188 30.8835 123.562 30.7415L121.347 30.2557C120.125 29.9773 119.222 29.5341 118.636 28.9261C118.057 28.3182 117.767 27.5483 117.767 26.6165C117.767 25.8437 117.983 25.1676 118.415 24.5881C118.847 24.0085 119.443 23.5568 120.205 23.233C120.966 22.9034 121.838 22.7386 122.821 22.7386C124.236 22.7386 125.349 23.0455 126.162 23.6591C126.974 24.267 127.511 25.0824 127.773 26.1051ZM137.923 27.2727C137.923 25.1364 138.205 23.1705 138.767 21.375C139.33 19.5795 140.151 17.9233 141.23 16.4062H143.565C143.145 16.9688 142.753 17.6591 142.389 18.4773C142.026 19.2955 141.707 20.1932 141.435 21.1705C141.162 22.142 140.949 23.1506 140.795 24.196C140.642 25.2358 140.565 26.2614 140.565 27.2727C140.565 28.625 140.699 29.9943 140.966 31.3807C141.233 32.767 141.594 34.054 142.048 35.2415C142.503 36.429 143.009 37.3977 143.565 38.1477H141.23C140.151 36.6307 139.33 34.9744 138.767 33.179C138.205 31.3835 137.923 29.4148 137.923 27.2727ZM161.619 27.2727C161.619 29.1364 161.278 30.7386 160.596 32.0795C159.914 33.4148 158.979 34.4432 157.792 35.1648C156.61 35.8807 155.266 36.2386 153.761 36.2386C152.249 36.2386 150.9 35.8807 149.712 35.1648C148.531 34.4432 147.599 33.4119 146.917 32.071C146.235 30.7301 145.894 29.1307 145.894 27.2727C145.894 25.4091 146.235 23.8097 146.917 22.4744C147.599 21.1335 148.531 20.1051 149.712 19.3892C150.9 18.6676 152.249 18.3068 153.761 18.3068C155.266 18.3068 156.61 18.6676 157.792 19.3892C158.979 20.1051 159.914 21.1335 160.596 22.4744C161.278 23.8097 161.619 25.4091 161.619 27.2727ZM159.011 27.2727C159.011 25.8523 158.781 24.6562 158.32 23.6847C157.866 22.7074 157.241 21.9688 156.445 21.4688C155.656 20.9631 154.761 20.7102 153.761 20.7102C152.755 20.7102 151.857 20.9631 151.067 21.4688C150.278 21.9688 149.653 22.7074 149.192 23.6847C148.738 24.6562 148.511 25.8523 148.511 27.2727C148.511 28.6932 148.738 29.892 149.192 30.8693C149.653 31.8409 150.278 32.5795 151.067 33.0852C151.857 33.5852 152.755 33.8352 153.761 33.8352C154.761 33.8352 155.656 33.5852 156.445 33.0852C157.241 32.5795 157.866 31.8409 158.32 30.8693C158.781 29.892 159.011 28.6932 159.011 27.2727ZM164.697 40.9091V22.9091H167.186V25.0312H167.399C167.547 24.7585 167.76 24.4432 168.038 24.0852C168.317 23.7273 168.703 23.4148 169.197 23.1477C169.692 22.875 170.345 22.7386 171.158 22.7386C172.214 22.7386 173.158 23.0057 173.987 23.5398C174.817 24.0739 175.467 24.8437 175.939 25.8494C176.416 26.8551 176.655 28.0653 176.655 29.4801C176.655 30.8949 176.419 32.108 175.947 33.1193C175.476 34.125 174.828 34.9006 174.004 35.446C173.18 35.9858 172.24 36.2557 171.183 36.2557C170.388 36.2557 169.737 36.1222 169.232 35.8551C168.732 35.5881 168.339 35.2756 168.055 34.9176C167.771 34.5597 167.553 34.2415 167.399 33.9631H167.246V40.9091H164.697ZM167.195 29.4545C167.195 30.375 167.328 31.1818 167.595 31.875C167.862 32.5682 168.249 33.1108 168.754 33.5028C169.26 33.8892 169.879 34.0824 170.612 34.0824C171.374 34.0824 172.01 33.8807 172.521 33.4773C173.033 33.0682 173.419 32.5142 173.68 31.8153C173.947 31.1165 174.081 30.3295 174.081 29.4545C174.081 28.5909 173.95 27.8153 173.689 27.1278C173.433 26.4403 173.047 25.8977 172.53 25.5C172.018 25.1023 171.379 24.9034 170.612 24.9034C169.874 24.9034 169.249 25.0937 168.737 25.4744C168.232 25.8551 167.848 26.3864 167.587 27.0682C167.325 27.75 167.195 28.5455 167.195 29.4545ZM185.621 22.9091V24.9545H178.47V22.9091H185.621ZM180.388 19.7727H182.936V32.1562C182.936 32.6506 183.01 33.0227 183.158 33.2727C183.305 33.517 183.496 33.6847 183.729 33.7756C183.967 33.8608 184.226 33.9034 184.504 33.9034C184.709 33.9034 184.888 33.8892 185.041 33.8608C185.195 33.8324 185.314 33.8097 185.399 33.7926L185.859 35.8977C185.712 35.9545 185.501 36.0114 185.229 36.0682C184.956 36.1307 184.615 36.1648 184.206 36.1705C183.536 36.1818 182.911 36.0625 182.331 35.8125C181.751 35.5625 181.283 35.1761 180.925 34.6534C180.567 34.1307 180.388 33.4744 180.388 32.6847V19.7727ZM188.44 36V22.9091H190.988V36H188.44ZM189.727 20.8892C189.283 20.8892 188.903 20.7415 188.585 20.446C188.272 20.1449 188.116 19.7869 188.116 19.3722C188.116 18.9517 188.272 18.5937 188.585 18.2983C188.903 17.9972 189.283 17.8466 189.727 17.8466C190.17 17.8466 190.548 17.9972 190.86 18.2983C191.178 18.5937 191.337 18.9517 191.337 19.3722C191.337 19.7869 191.178 20.1449 190.86 20.446C190.548 20.7415 190.17 20.8892 189.727 20.8892ZM199.93 36.2642C198.703 36.2642 197.632 35.983 196.717 35.4205C195.803 34.858 195.092 34.071 194.587 33.0597C194.081 32.0483 193.828 30.8665 193.828 29.5142C193.828 28.1562 194.081 26.9687 194.587 25.9517C195.092 24.9347 195.803 24.1449 196.717 23.5824C197.632 23.0199 198.703 22.7386 199.93 22.7386C201.158 22.7386 202.229 23.0199 203.143 23.5824C204.058 24.1449 204.768 24.9347 205.274 25.9517C205.78 26.9687 206.033 28.1562 206.033 29.5142C206.033 30.8665 205.78 32.0483 205.274 33.0597C204.768 34.071 204.058 34.858 203.143 35.4205C202.229 35.983 201.158 36.2642 199.93 36.2642ZM199.939 34.125C200.734 34.125 201.393 33.9148 201.916 33.4943C202.439 33.0739 202.825 32.5142 203.075 31.8153C203.331 31.1165 203.459 30.3466 203.459 29.5057C203.459 28.6705 203.331 27.9034 203.075 27.2045C202.825 26.5 202.439 25.9347 201.916 25.5085C201.393 25.0824 200.734 24.8693 199.939 24.8693C199.138 24.8693 198.473 25.0824 197.945 25.5085C197.422 25.9347 197.033 26.5 196.777 27.2045C196.527 27.9034 196.402 28.6705 196.402 29.5057C196.402 30.3466 196.527 31.1165 196.777 31.8153C197.033 32.5142 197.422 33.0739 197.945 33.4943C198.473 33.9148 199.138 34.125 199.939 34.125ZM211.425 28.2273V36H208.877V22.9091H211.323V25.0398H211.485C211.786 24.3466 212.258 23.7898 212.9 23.3693C213.548 22.9489 214.363 22.7386 215.346 22.7386C216.238 22.7386 217.019 22.9261 217.69 23.3011C218.36 23.6705 218.88 24.2216 219.249 24.9545C219.619 25.6875 219.803 26.5937 219.803 27.6733V36H217.255V27.9801C217.255 27.0312 217.008 26.2898 216.513 25.7557C216.019 25.2159 215.34 24.946 214.477 24.946C213.886 24.946 213.36 25.0739 212.9 25.3295C212.445 25.5852 212.085 25.9602 211.817 26.4545C211.556 26.9432 211.425 27.5341 211.425 28.2273ZM227.031 36.2898C226.201 36.2898 225.451 36.1364 224.781 35.8295C224.11 35.517 223.579 35.0653 223.187 34.4744C222.8 33.8835 222.607 33.1591 222.607 32.3011C222.607 31.5625 222.749 30.9545 223.033 30.4773C223.317 30 223.701 29.6222 224.184 29.3438C224.667 29.0653 225.207 28.8551 225.803 28.7131C226.4 28.571 227.008 28.4631 227.627 28.3892C228.411 28.2983 229.048 28.2244 229.536 28.1676C230.025 28.1051 230.38 28.0057 230.602 27.8693C230.823 27.733 230.934 27.5114 230.934 27.2045V27.1449C230.934 26.4006 230.724 25.8239 230.303 25.4148C229.888 25.0057 229.269 24.8011 228.445 24.8011C227.587 24.8011 226.911 24.9915 226.417 25.3722C225.928 25.7472 225.59 26.1648 225.403 26.625L223.008 26.0795C223.292 25.2841 223.707 24.642 224.252 24.1534C224.803 23.6591 225.437 23.3011 226.153 23.0795C226.869 22.8523 227.621 22.7386 228.411 22.7386C228.934 22.7386 229.488 22.8011 230.073 22.9261C230.664 23.0455 231.215 23.267 231.727 23.5909C232.244 23.9148 232.667 24.3778 232.996 24.9801C233.326 25.5767 233.491 26.3523 233.491 27.3068V36H231.002V34.2102H230.9C230.735 34.5398 230.488 34.8636 230.158 35.1818C229.829 35.5 229.406 35.7642 228.888 35.9744C228.371 36.1847 227.752 36.2898 227.031 36.2898ZM227.585 34.2443C228.289 34.2443 228.891 34.1051 229.391 33.8267C229.897 33.5483 230.281 33.1847 230.542 32.7358C230.809 32.2812 230.942 31.7955 230.942 31.2784V29.5909C230.852 29.6818 230.675 29.767 230.414 29.8466C230.158 29.9205 229.866 29.9858 229.536 30.0426C229.207 30.0937 228.886 30.142 228.573 30.1875C228.261 30.2273 227.999 30.2614 227.789 30.2898C227.295 30.3523 226.843 30.4574 226.434 30.6051C226.031 30.7528 225.707 30.9659 225.462 31.2443C225.224 31.517 225.104 31.8807 225.104 32.3352C225.104 32.9659 225.337 33.4432 225.803 33.767C226.269 34.0852 226.863 34.2443 227.585 34.2443ZM239.433 18.5455V36H236.885V18.5455H239.433ZM247.762 28.7557C247.762 30.8977 247.481 32.8665 246.918 34.6619C246.356 36.4574 245.535 38.1136 244.455 39.6307H242.12C242.54 39.0682 242.933 38.3778 243.296 37.5597C243.66 36.7415 243.978 35.8466 244.251 34.875C244.523 33.8977 244.737 32.8864 244.89 31.8409C245.043 30.7955 245.12 29.767 245.12 28.7557C245.12 27.4091 244.987 26.0426 244.719 24.6562C244.452 23.2699 244.092 21.983 243.637 20.7955C243.183 19.608 242.677 18.6392 242.12 17.8892H244.455C245.535 19.4062 246.356 21.0625 246.918 22.858C247.481 24.6534 247.762 26.6193 247.762 28.7557Z" fill="black"/>
<rect x="0.5" y="63.5" width="857" height="48.359" rx="7.5" stroke="#BDBDBD"/>
<rect x="11.5" y="71.5" width="32.359" height="32.359" rx="11.5" fill="white"/>
<rect x="11.5" y="71.5" width="32.359" height="32.359" rx="11.5" stroke="#BDBDBD"/>
<path d="M53.768 93.6797V82.0433H60.7453V83.2933H55.1771V87.2251H60.2225V88.4751H55.1771V93.6797H53.768ZM62.563 93.6797V84.9524H63.8585V86.2706H63.9494C64.1085 85.8388 64.3964 85.4884 64.813 85.2195C65.2297 84.9505 65.6994 84.8161 66.2221 84.8161C66.3206 84.8161 66.4437 84.8179 66.5914 84.8217C66.7392 84.8255 66.8509 84.8312 66.9267 84.8388V86.2024C66.8812 86.1911 66.7771 86.174 66.6142 86.1513C66.4551 86.1248 66.2865 86.1115 66.1085 86.1115C65.6842 86.1115 65.3055 86.2005 64.9721 86.3786C64.6426 86.5528 64.3812 86.7952 64.188 87.1058C63.9986 87.4126 63.9039 87.763 63.9039 88.157V93.6797H62.563ZM68.1962 93.6797V84.9524H69.5371V93.6797H68.1962ZM68.878 83.4979C68.6166 83.4979 68.3912 83.4089 68.2018 83.2308C68.0162 83.0528 67.9234 82.8388 67.9234 82.5888C67.9234 82.3388 68.0162 82.1248 68.2018 81.9467C68.3912 81.7687 68.6166 81.6797 68.878 81.6797C69.1393 81.6797 69.3628 81.7687 69.5484 81.9467C69.7378 82.1248 69.8325 82.3388 69.8325 82.5888C69.8325 82.8388 69.7378 83.0528 69.5484 83.2308C69.3628 83.4089 69.1393 83.4979 68.878 83.4979ZM75.3321 93.8615C74.4912 93.8615 73.7658 93.6759 73.156 93.3047C72.5499 92.9297 72.0821 92.407 71.7526 91.7365C71.4268 91.0623 71.2639 90.2782 71.2639 89.3842C71.2639 88.4903 71.4268 87.7024 71.7526 87.0206C72.0821 86.335 72.5405 85.8009 73.1276 85.4183C73.7185 85.032 74.4079 84.8388 75.1958 84.8388C75.6503 84.8388 76.0992 84.9145 76.5424 85.0661C76.9855 85.2176 77.3889 85.4638 77.7526 85.8047C78.1162 86.1418 78.406 86.5888 78.6219 87.1456C78.8378 87.7024 78.9458 88.388 78.9458 89.2024V89.7706H72.2185V88.6115H77.5821C77.5821 88.1191 77.4836 87.6797 77.2867 87.2933C77.0935 86.907 76.817 86.602 76.4571 86.3786C76.1011 86.1551 75.6806 86.0433 75.1958 86.0433C74.6617 86.0433 74.1996 86.1759 73.8094 86.4411C73.423 86.7024 73.1257 87.0433 72.9174 87.4638C72.709 87.8842 72.6049 88.335 72.6049 88.8161V89.5888C72.6049 90.2479 72.7185 90.8066 72.9458 91.2649C73.1768 91.7195 73.4969 92.0661 73.906 92.3047C74.3151 92.5395 74.7905 92.657 75.3321 92.657C75.6844 92.657 76.0026 92.6077 76.2867 92.5092C76.5746 92.407 76.8227 92.2554 77.031 92.0547C77.2393 91.8501 77.4003 91.5964 77.5139 91.2933L78.8094 91.657C78.673 92.0964 78.4439 92.4827 78.1219 92.8161C77.7999 93.1456 77.4022 93.4032 76.9287 93.5888C76.4552 93.7706 75.923 93.8615 75.3321 93.8615ZM83.961 93.8615C83.2337 93.8615 82.5917 93.6778 82.0349 93.3104C81.478 92.9392 81.0424 92.4164 80.728 91.7422C80.4136 91.0642 80.2564 90.263 80.2564 89.3388C80.2564 88.4221 80.4136 87.6267 80.728 86.9524C81.0424 86.2782 81.4799 85.7573 82.0405 85.3899C82.6011 85.0225 83.2489 84.8388 83.9837 84.8388C84.5519 84.8388 85.0008 84.9335 85.3303 85.1229C85.6636 85.3085 85.9174 85.5206 86.0917 85.7592C86.2697 85.9941 86.408 86.1873 86.5064 86.3388H86.6201V82.0433H87.961V93.6797H86.6655V92.3388H86.5064C86.408 92.4979 86.2678 92.6986 86.086 92.9411C85.9042 93.1797 85.6447 93.3937 85.3076 93.5831C84.9705 93.7687 84.5216 93.8615 83.961 93.8615ZM84.1428 92.657C84.6807 92.657 85.1352 92.5168 85.5064 92.2365C85.8777 91.9524 86.1599 91.5604 86.353 91.0604C86.5462 90.5566 86.6428 89.9751 86.6428 89.3161C86.6428 88.6645 86.5481 88.0945 86.3587 87.6058C86.1693 87.1134 85.889 86.7308 85.5178 86.4581C85.1466 86.1816 84.6883 86.0433 84.1428 86.0433C83.5746 86.0433 83.1011 86.1892 82.7224 86.4808C82.3474 86.7687 82.0652 87.1607 81.8758 87.657C81.6902 88.1494 81.5974 88.7024 81.5974 89.3161C81.5974 89.9373 81.692 90.5017 81.8814 91.0092C82.0746 91.513 82.3587 91.9145 82.7337 92.2138C83.1125 92.5092 83.5822 92.657 84.1428 92.657ZM94.6449 93.6797V82.0433H98.5767C99.4896 82.0433 100.236 82.2081 100.815 82.5376C101.399 82.8634 101.83 83.3047 102.111 83.8615C102.391 84.4183 102.531 85.0395 102.531 85.7251C102.531 86.4107 102.391 87.0339 102.111 87.5945C101.834 88.1551 101.406 88.602 100.827 88.9354C100.247 89.2649 99.5047 89.4297 98.5994 89.4297H95.7812V88.1797H98.5539C99.1789 88.1797 99.6808 88.0717 100.06 87.8558C100.438 87.6399 100.713 87.3482 100.883 86.9808C101.058 86.6096 101.145 86.1911 101.145 85.7251C101.145 85.2592 101.058 84.8426 100.883 84.4751C100.713 84.1077 100.437 83.8198 100.054 83.6115C99.6714 83.3994 99.1638 83.2933 98.5312 83.2933H96.0539V93.6797H94.6449ZM105.64 82.0433V93.6797H104.299V82.0433H105.64ZM110.344 93.8842C109.791 93.8842 109.289 93.7801 108.839 93.5717C108.388 93.3596 108.03 93.0547 107.765 92.657C107.5 92.2554 107.367 91.7706 107.367 91.2024C107.367 90.7024 107.466 90.2971 107.663 89.9865C107.859 89.6721 108.123 89.4259 108.452 89.2479C108.782 89.0698 109.145 88.9373 109.543 88.8501C109.945 88.7592 110.348 88.6873 110.753 88.6342C111.284 88.5661 111.714 88.5149 112.043 88.4808C112.377 88.4429 112.619 88.3804 112.77 88.2933C112.926 88.2062 113.003 88.0547 113.003 87.8388V87.7933C113.003 87.2327 112.85 86.7971 112.543 86.4865C112.24 86.1759 111.78 86.0206 111.163 86.0206C110.522 86.0206 110.02 86.1607 109.657 86.4411C109.293 86.7214 109.038 87.0206 108.89 87.3388L107.617 86.8842C107.844 86.3539 108.147 85.9411 108.526 85.6456C108.909 85.3464 109.325 85.138 109.776 85.0206C110.231 84.8994 110.678 84.8388 111.117 84.8388C111.397 84.8388 111.719 84.8729 112.083 84.9411C112.45 85.0054 112.805 85.1399 113.145 85.3445C113.49 85.549 113.776 85.8577 114.003 86.2706C114.231 86.6835 114.344 87.2365 114.344 87.9297V93.6797H113.003V92.4979H112.935C112.844 92.6873 112.693 92.8899 112.481 93.1058C112.269 93.3217 111.986 93.5054 111.634 93.657C111.282 93.8085 110.852 93.8842 110.344 93.8842ZM110.549 92.6797C111.079 92.6797 111.526 92.5755 111.89 92.3672C112.257 92.1589 112.534 91.8899 112.719 91.5604C112.909 91.2308 113.003 90.8842 113.003 90.5206V89.2933C112.947 89.3615 112.822 89.424 112.628 89.4808C112.439 89.5339 112.219 89.5812 111.969 89.6229C111.723 89.6607 111.483 89.6948 111.248 89.7251C111.017 89.7517 110.829 89.7744 110.685 89.7933C110.337 89.8388 110.011 89.9126 109.708 90.0149C109.409 90.1134 109.166 90.263 108.981 90.4638C108.799 90.6607 108.708 90.9297 108.708 91.2706C108.708 91.7365 108.88 92.0888 109.225 92.3274C109.574 92.5623 110.015 92.6797 110.549 92.6797ZM117.813 88.4297V93.6797H116.472V84.9524H117.767V86.3161H117.881C118.085 85.8729 118.396 85.5168 118.813 85.2479C119.229 84.9751 119.767 84.8388 120.426 84.8388C121.017 84.8388 121.534 84.96 121.977 85.2024C122.421 85.4411 122.765 85.8047 123.012 86.2933C123.258 86.7782 123.381 87.3918 123.381 88.1342V93.6797H122.04V88.2251C122.04 87.5395 121.862 87.0054 121.506 86.6229C121.15 86.2365 120.661 86.0433 120.04 86.0433C119.612 86.0433 119.229 86.1361 118.892 86.3217C118.559 86.5073 118.296 86.7782 118.102 87.1342C117.909 87.4903 117.813 87.9221 117.813 88.4297ZM129.307 84.9524V86.0888H124.784V84.9524H129.307ZM126.102 82.8615H127.443V91.1797C127.443 91.5585 127.498 91.8426 127.608 92.032C127.721 92.2176 127.865 92.3426 128.04 92.407C128.218 92.4676 128.405 92.4979 128.602 92.4979C128.75 92.4979 128.871 92.4903 128.966 92.4751C129.06 92.4562 129.136 92.4411 129.193 92.4297L129.466 93.6342C129.375 93.6683 129.248 93.7024 129.085 93.7365C128.922 93.7744 128.716 93.7933 128.466 93.7933C128.087 93.7933 127.716 93.7119 127.352 93.549C126.992 93.3861 126.693 93.138 126.454 92.8047C126.219 92.4714 126.102 92.0509 126.102 91.5433V82.8615ZM133.572 93.8842C133.019 93.8842 132.517 93.7801 132.066 93.5717C131.615 93.3596 131.257 93.0547 130.992 92.657C130.727 92.2554 130.595 91.7706 130.595 91.2024C130.595 90.7024 130.693 90.2971 130.89 89.9865C131.087 89.6721 131.35 89.4259 131.68 89.2479C132.009 89.0698 132.373 88.9373 132.771 88.8501C133.172 88.7592 133.576 88.6873 133.981 88.6342C134.511 88.5661 134.941 88.5149 135.271 88.4808C135.604 88.4429 135.846 88.3804 135.998 88.2933C136.153 88.2062 136.231 88.0547 136.231 87.8388V87.7933C136.231 87.2327 136.078 86.7971 135.771 86.4865C135.468 86.1759 135.007 86.0206 134.39 86.0206C133.75 86.0206 133.248 86.1607 132.884 86.4411C132.521 86.7214 132.265 87.0206 132.117 87.3388L130.845 86.8842C131.072 86.3539 131.375 85.9411 131.754 85.6456C132.136 85.3464 132.553 85.138 133.004 85.0206C133.458 84.8994 133.905 84.8388 134.345 84.8388C134.625 84.8388 134.947 84.8729 135.31 84.9411C135.678 85.0054 136.032 85.1399 136.373 85.3445C136.718 85.549 137.004 85.8577 137.231 86.2706C137.458 86.6835 137.572 87.2365 137.572 87.9297V93.6797H136.231V92.4979H136.163C136.072 92.6873 135.92 92.8899 135.708 93.1058C135.496 93.3217 135.214 93.5054 134.862 93.657C134.509 93.8085 134.079 93.8842 133.572 93.8842ZM133.776 92.6797C134.307 92.6797 134.754 92.5755 135.117 92.3672C135.485 92.1589 135.761 91.8899 135.947 91.5604C136.136 91.2308 136.231 90.8842 136.231 90.5206V89.2933C136.174 89.3615 136.049 89.424 135.856 89.4808C135.667 89.5339 135.447 89.5812 135.197 89.6229C134.951 89.6607 134.71 89.6948 134.475 89.7251C134.244 89.7517 134.057 89.7744 133.913 89.7933C133.564 89.8388 133.239 89.9126 132.935 90.0149C132.636 90.1134 132.394 90.263 132.208 90.4638C132.026 90.6607 131.935 90.9297 131.935 91.2706C131.935 91.7365 132.108 92.0888 132.453 92.3274C132.801 92.5623 133.242 92.6797 133.776 92.6797ZM139.699 93.6797V84.9524H141.04V93.6797H139.699ZM140.381 83.4979C140.12 83.4979 139.894 83.4089 139.705 83.2308C139.519 83.0528 139.427 82.8388 139.427 82.5888C139.427 82.3388 139.519 82.1248 139.705 81.9467C139.894 81.7687 140.12 81.6797 140.381 81.6797C140.642 81.6797 140.866 81.7687 141.052 81.9467C141.241 82.1248 141.336 82.3388 141.336 82.5888C141.336 82.8388 141.241 83.0528 141.052 83.2308C140.866 83.4089 140.642 83.4979 140.381 83.4979ZM144.517 88.4297V93.6797H143.176V84.9524H144.472V86.3161H144.585C144.79 85.8729 145.1 85.5168 145.517 85.2479C145.934 84.9751 146.472 84.8388 147.131 84.8388C147.722 84.8388 148.239 84.96 148.682 85.2024C149.125 85.4411 149.47 85.8047 149.716 86.2933C149.962 86.7782 150.085 87.3918 150.085 88.1342V93.6797H148.744V88.2251C148.744 87.5395 148.566 87.0054 148.21 86.6229C147.854 86.2365 147.366 86.0433 146.744 86.0433C146.316 86.0433 145.934 86.1361 145.597 86.3217C145.263 86.5073 145 86.7782 144.807 87.1342C144.614 87.4903 144.517 87.9221 144.517 88.4297Z" fill="black"/>
<path d="M800.636 91.6342V84.1342H801.909V91.6342H800.636ZM797.523 88.5206V87.2479H805.023V88.5206H797.523ZM818.181 86.2933V87.4297H806.591V86.2933H818.181ZM818.181 88.7479V89.8842H806.591V88.7479H818.181ZM817 82.0433V93.6797H815.636L809.295 84.5433H809.181V93.6797H807.772V82.0433H809.136L815.5 91.2024H815.613V82.0433H817ZM819.788 93.6797L824.992 83.3842V83.2933H818.992V82.0433H826.447V83.3615L821.265 93.6797H819.788ZM831.79 93.8388C830.934 93.8388 830.205 93.6058 829.603 93.1399C829 92.6702 828.54 91.9903 828.222 91.1001C827.904 90.2062 827.745 89.1267 827.745 87.8615C827.745 86.6039 827.904 85.5301 828.222 84.6399C828.544 83.746 829.006 83.0642 829.608 82.5945C830.214 82.121 830.942 81.8842 831.79 81.8842C832.638 81.8842 833.364 82.121 833.966 82.5945C834.572 83.0642 835.034 83.746 835.353 84.6399C835.674 85.5301 835.835 86.6039 835.835 87.8615C835.835 89.1267 835.676 90.2062 835.358 91.1001C835.04 91.9903 834.58 92.6702 833.978 93.1399C833.375 93.6058 832.646 93.8388 831.79 93.8388ZM831.79 92.5888C832.638 92.5888 833.298 92.1797 833.767 91.3615C834.237 90.5433 834.472 89.3767 834.472 87.8615C834.472 86.8539 834.364 85.996 834.148 85.2876C833.936 84.5793 833.629 84.0395 833.228 83.6683C832.83 83.2971 832.351 83.1115 831.79 83.1115C830.949 83.1115 830.292 83.5263 829.818 84.3558C829.345 85.1816 829.108 86.3501 829.108 87.8615C829.108 88.8691 829.214 89.7251 829.426 90.4297C829.638 91.1342 829.943 91.6702 830.341 92.0376C830.743 92.4051 831.226 92.5888 831.79 92.5888ZM841.47 93.8388C840.614 93.8388 839.885 93.6058 839.283 93.1399C838.68 92.6702 838.22 91.9903 837.902 91.1001C837.584 90.2062 837.425 89.1267 837.425 87.8615C837.425 86.6039 837.584 85.5301 837.902 84.6399C838.224 83.746 838.686 83.0642 839.288 82.5945C839.894 82.121 840.622 81.8842 841.47 81.8842C842.318 81.8842 843.044 82.121 843.646 82.5945C844.252 83.0642 844.714 83.746 845.033 84.6399C845.354 85.5301 845.515 86.6039 845.515 87.8615C845.515 89.1267 845.356 90.2062 845.038 91.1001C844.72 91.9903 844.26 92.6702 843.658 93.1399C843.055 93.6058 842.326 93.8388 841.47 93.8388ZM841.47 92.5888C842.318 92.5888 842.978 92.1797 843.447 91.3615C843.917 90.5433 844.152 89.3767 844.152 87.8615C844.152 86.8539 844.044 85.996 843.828 85.2876C843.616 84.5793 843.309 84.0395 842.908 83.6683C842.51 83.2971 842.031 83.1115 841.47 83.1115C840.629 83.1115 839.972 83.5263 839.498 84.3558C839.025 85.1816 838.788 86.3501 838.788 87.8615C838.788 88.8691 838.894 89.7251 839.106 90.4297C839.318 91.1342 839.623 91.6702 840.021 92.0376C840.423 92.4051 840.906 92.5888 841.47 92.5888Z" fill="black"/>
<rect x="0.5" y="131.859" width="857" height="48.359" rx="7.5" stroke="#BDBDBD"/>
<rect x="11.5" y="139.859" width="32.359" height="32.359" rx="11.5" fill="white"/>
<rect x="11.5" y="139.859" width="32.359" height="32.359" rx="11.5" stroke="#BDBDBD"/>
<path d="M63.1316 154.039H61.7225C61.6392 153.633 61.4934 153.277 61.285 152.97C61.0805 152.664 60.8305 152.406 60.535 152.198C60.2434 151.986 59.9195 151.826 59.5634 151.72C59.2074 151.614 58.8362 151.561 58.4498 151.561C57.7453 151.561 57.107 151.739 56.535 152.095C55.9668 152.451 55.5142 152.976 55.1771 153.669C54.8437 154.362 54.6771 155.213 54.6771 156.22C54.6771 157.228 54.8437 158.078 55.1771 158.772C55.5142 159.465 55.9668 159.989 56.535 160.345C57.107 160.701 57.7453 160.879 58.4498 160.879C58.8362 160.879 59.2074 160.826 59.5634 160.72C59.9195 160.614 60.2434 160.457 60.535 160.249C60.8305 160.037 61.0805 159.777 61.285 159.47C61.4934 159.16 61.6392 158.804 61.7225 158.402H63.1316C63.0256 158.997 62.8324 159.529 62.5521 159.999C62.2718 160.468 61.9233 160.868 61.5066 161.198C61.0899 161.523 60.6221 161.772 60.1032 161.942C59.5881 162.112 59.0369 162.198 58.4498 162.198C57.4574 162.198 56.5748 161.955 55.8021 161.47C55.0293 160.986 54.4214 160.296 53.9782 159.402C53.535 158.508 53.3134 157.448 53.3134 156.22C53.3134 154.993 53.535 153.933 53.9782 153.039C54.4214 152.145 55.0293 151.455 55.8021 150.97C56.5748 150.486 57.4574 150.243 58.4498 150.243C59.0369 150.243 59.5881 150.328 60.1032 150.499C60.6221 150.669 61.0899 150.919 61.5066 151.249C61.9233 151.575 62.2718 151.972 62.5521 152.442C62.8324 152.908 63.0256 153.44 63.1316 154.039ZM68.4522 162.22C67.6644 162.22 66.9731 162.033 66.3784 161.658C65.7875 161.283 65.3253 160.758 64.992 160.084C64.6625 159.41 64.4977 158.622 64.4977 157.72C64.4977 156.811 64.6625 156.018 64.992 155.34C65.3253 154.662 65.7875 154.135 66.3784 153.76C66.9731 153.385 67.6644 153.198 68.4522 153.198C69.2401 153.198 69.9295 153.385 70.5204 153.76C71.1151 154.135 71.5772 154.662 71.9068 155.34C72.2401 156.018 72.4068 156.811 72.4068 157.72C72.4068 158.622 72.2401 159.41 71.9068 160.084C71.5772 160.758 71.1151 161.283 70.5204 161.658C69.9295 162.033 69.2401 162.22 68.4522 162.22ZM68.4522 161.016C69.0507 161.016 69.5431 160.862 69.9295 160.556C70.3159 160.249 70.6019 159.845 70.7875 159.345C70.9731 158.845 71.0659 158.304 71.0659 157.72C71.0659 157.137 70.9731 156.593 70.7875 156.09C70.6019 155.586 70.3159 155.179 69.9295 154.868C69.5431 154.558 69.0507 154.402 68.4522 154.402C67.8538 154.402 67.3613 154.558 66.975 154.868C66.5886 155.179 66.3026 155.586 66.117 156.09C65.9314 156.593 65.8386 157.137 65.8386 157.72C65.8386 158.304 65.9314 158.845 66.117 159.345C66.3026 159.845 66.5886 160.249 66.975 160.556C67.3613 160.862 67.8538 161.016 68.4522 161.016ZM75.4746 150.402V162.039H74.1337V150.402H75.4746ZM81.2696 162.22C80.4287 162.22 79.7033 162.035 79.0935 161.664C78.4874 161.289 78.0196 160.766 77.6901 160.095C77.3643 159.421 77.2014 158.637 77.2014 157.743C77.2014 156.849 77.3643 156.061 77.6901 155.379C78.0196 154.694 78.478 154.16 79.0651 153.777C79.656 153.391 80.3454 153.198 81.1333 153.198C81.5878 153.198 82.0367 153.273 82.4799 153.425C82.923 153.576 83.3264 153.823 83.6901 154.164C84.0537 154.501 84.3435 154.948 84.5594 155.504C84.7753 156.061 84.8833 156.747 84.8833 157.561V158.129H78.156V156.97H83.5196C83.5196 156.478 83.4211 156.039 83.2242 155.652C83.031 155.266 82.7545 154.961 82.3946 154.737C82.0386 154.514 81.6181 154.402 81.1333 154.402C80.5992 154.402 80.1371 154.535 79.7469 154.8C79.3605 155.061 79.0632 155.402 78.8549 155.823C78.6465 156.243 78.5424 156.694 78.5424 157.175V157.948C78.5424 158.607 78.656 159.165 78.8833 159.624C79.1143 160.078 79.4344 160.425 79.8435 160.664C80.2526 160.898 80.728 161.016 81.2696 161.016C81.6219 161.016 81.9401 160.967 82.2242 160.868C82.5121 160.766 82.7602 160.614 82.9685 160.414C83.1768 160.209 83.3378 159.955 83.4514 159.652L84.7469 160.016C84.6105 160.455 84.3814 160.842 84.0594 161.175C83.7374 161.504 83.3397 161.762 82.8662 161.948C82.3927 162.129 81.8605 162.22 81.2696 162.22ZM92.7849 155.266L91.5803 155.607C91.5046 155.406 91.3928 155.211 91.2451 155.022C91.1011 154.828 90.9042 154.669 90.6542 154.544C90.4042 154.419 90.0841 154.357 89.6939 154.357C89.1599 154.357 88.7148 154.48 88.3587 154.726C88.0064 154.968 87.8303 155.277 87.8303 155.652C87.8303 155.986 87.9515 156.249 88.1939 156.442C88.4364 156.635 88.8152 156.796 89.3303 156.925L90.6258 157.243C91.4061 157.433 91.9875 157.722 92.3701 158.112C92.7527 158.499 92.9439 158.997 92.9439 159.607C92.9439 160.107 92.8 160.554 92.5121 160.948C92.228 161.342 91.8303 161.652 91.3189 161.879C90.8076 162.107 90.2129 162.22 89.5349 162.22C88.6447 162.22 87.908 162.027 87.3246 161.641C86.7413 161.254 86.372 160.69 86.2167 159.948L87.4894 159.629C87.6106 160.099 87.8398 160.451 88.1769 160.686C88.5178 160.921 88.9629 161.039 89.5121 161.039C90.1371 161.039 90.6333 160.906 91.0008 160.641C91.372 160.372 91.5576 160.05 91.5576 159.675C91.5576 159.372 91.4515 159.118 91.2394 158.914C91.0273 158.705 90.7015 158.55 90.2621 158.448L88.8076 158.107C88.0083 157.917 87.4212 157.624 87.0462 157.226C86.675 156.825 86.4894 156.323 86.4894 155.72C86.4894 155.228 86.6277 154.792 86.9042 154.414C87.1845 154.035 87.5652 153.737 88.0462 153.522C88.5311 153.306 89.0803 153.198 89.6939 153.198C90.5576 153.198 91.2356 153.387 91.728 153.766C92.2242 154.145 92.5765 154.645 92.7849 155.266ZM95.9833 150.402V162.039H94.6424V150.402H95.9833ZM100.687 162.243C100.134 162.243 99.6325 162.139 99.1818 161.931C98.731 161.718 98.3731 161.414 98.1079 161.016C97.8428 160.614 97.7102 160.129 97.7102 159.561C97.7102 159.061 97.8087 158.656 98.0056 158.345C98.2026 158.031 98.4659 157.785 98.7954 157.607C99.125 157.429 99.4886 157.296 99.8863 157.209C100.288 157.118 100.691 157.046 101.097 156.993C101.627 156.925 102.057 156.874 102.386 156.84C102.72 156.802 102.962 156.739 103.114 156.652C103.269 156.565 103.347 156.414 103.347 156.198V156.152C103.347 155.592 103.193 155.156 102.886 154.845C102.583 154.535 102.123 154.379 101.506 154.379C100.865 154.379 100.364 154.52 100 154.8C99.6363 155.08 99.3806 155.379 99.2329 155.698L97.9602 155.243C98.1875 154.713 98.4905 154.3 98.8693 154.004C99.2519 153.705 99.6685 153.497 100.119 153.379C100.574 153.258 101.021 153.198 101.46 153.198C101.74 153.198 102.062 153.232 102.426 153.3C102.794 153.364 103.148 153.499 103.489 153.703C103.833 153.908 104.119 154.217 104.347 154.629C104.574 155.042 104.687 155.595 104.687 156.289V162.039H103.347V160.857H103.278C103.187 161.046 103.036 161.249 102.824 161.465C102.612 161.681 102.33 161.864 101.977 162.016C101.625 162.167 101.195 162.243 100.687 162.243ZM100.892 161.039C101.422 161.039 101.869 160.934 102.233 160.726C102.6 160.518 102.877 160.249 103.062 159.919C103.252 159.59 103.347 159.243 103.347 158.879V157.652C103.29 157.72 103.165 157.783 102.972 157.84C102.782 157.893 102.562 157.94 102.312 157.982C102.066 158.02 101.826 158.054 101.591 158.084C101.36 158.111 101.172 158.133 101.028 158.152C100.68 158.198 100.354 158.272 100.051 158.374C99.7519 158.472 99.5094 158.622 99.3238 158.823C99.142 159.02 99.0511 159.289 99.0511 159.629C99.0511 160.095 99.2235 160.448 99.5682 160.686C99.9166 160.921 100.358 161.039 100.892 161.039ZM108.792 162.039L106.133 153.311H107.542L109.429 159.993H109.519L111.383 153.311H112.815L114.656 159.97H114.747L116.633 153.311H118.042L115.383 162.039H114.065L112.156 155.334H112.019L110.11 162.039H108.792Z" fill="black"/>
<path d="M799.636 159.993V152.493H800.909V159.993H799.636ZM796.523 156.879V155.607H804.023V156.879H796.523ZM817.181 154.652V155.789H805.591V154.652H817.181ZM817.181 157.107V158.243H805.591V157.107H817.181ZM816 150.402V162.039H814.636L808.295 152.902H808.181V162.039H806.772V150.402H808.136L814.5 159.561H814.613V150.402H816ZM822.06 162.198C821.394 162.198 820.793 162.065 820.259 161.8C819.725 161.535 819.297 161.171 818.975 160.709C818.653 160.247 818.477 159.72 818.447 159.129H819.81C819.863 159.656 820.102 160.092 820.526 160.436C820.954 160.777 821.466 160.948 822.06 160.948C822.538 160.948 822.962 160.836 823.333 160.612C823.708 160.389 824.002 160.082 824.214 159.692C824.43 159.298 824.538 158.853 824.538 158.357C824.538 157.849 824.426 157.397 824.202 156.999C823.983 156.597 823.68 156.281 823.293 156.05C822.907 155.819 822.466 155.701 821.969 155.698C821.613 155.694 821.248 155.749 820.873 155.862C820.498 155.972 820.189 156.114 819.947 156.289L818.628 156.129L819.333 150.402H825.378V151.652H820.515L820.106 155.084H820.174C820.413 154.895 820.712 154.737 821.072 154.612C821.431 154.487 821.806 154.425 822.197 154.425C822.909 154.425 823.543 154.595 824.1 154.936C824.661 155.273 825.1 155.736 825.418 156.323C825.74 156.91 825.901 157.58 825.901 158.334C825.901 159.076 825.735 159.739 825.401 160.323C825.072 160.902 824.617 161.361 824.038 161.698C823.458 162.031 822.799 162.198 822.06 162.198ZM831.634 162.198C830.778 162.198 830.049 161.965 829.446 161.499C828.844 161.029 828.384 160.349 828.066 159.459C827.747 158.565 827.588 157.486 827.588 156.22C827.588 154.963 827.747 153.889 828.066 152.999C828.388 152.105 828.85 151.423 829.452 150.953C830.058 150.48 830.785 150.243 831.634 150.243C832.482 150.243 833.208 150.48 833.81 150.953C834.416 151.423 834.878 152.105 835.196 152.999C835.518 153.889 835.679 154.963 835.679 156.22C835.679 157.486 835.52 158.565 835.202 159.459C834.884 160.349 834.424 161.029 833.821 161.499C833.219 161.965 832.49 162.198 831.634 162.198ZM831.634 160.948C832.482 160.948 833.141 160.539 833.611 159.72C834.081 158.902 834.316 157.736 834.316 156.22C834.316 155.213 834.208 154.355 833.992 153.647C833.78 152.938 833.473 152.398 833.071 152.027C832.674 151.656 832.194 151.47 831.634 151.47C830.793 151.47 830.136 151.885 829.662 152.715C829.189 153.54 828.952 154.709 828.952 156.22C828.952 157.228 829.058 158.084 829.27 158.789C829.482 159.493 829.787 160.029 830.185 160.397C830.586 160.764 831.069 160.948 831.634 160.948ZM841.314 162.198C840.458 162.198 839.729 161.965 839.126 161.499C838.524 161.029 838.064 160.349 837.746 159.459C837.427 158.565 837.268 157.486 837.268 156.22C837.268 154.963 837.427 153.889 837.746 152.999C838.068 152.105 838.53 151.423 839.132 150.953C839.738 150.48 840.465 150.243 841.314 150.243C842.162 150.243 842.888 150.48 843.49 150.953C844.096 151.423 844.558 152.105 844.876 152.999C845.198 153.889 845.359 154.963 845.359 156.22C845.359 157.486 845.2 158.565 844.882 159.459C844.564 160.349 844.104 161.029 843.501 161.499C842.899 161.965 842.17 162.198 841.314 162.198ZM841.314 160.948C842.162 160.948 842.821 160.539 843.291 159.72C843.761 158.902 843.996 157.736 843.996 156.22C843.996 155.213 843.888 154.355 843.672 153.647C843.46 152.938 843.153 152.398 842.751 152.027C842.354 151.656 841.874 151.47 841.314 151.47C840.473 151.47 839.816 151.885 839.342 152.715C838.869 153.54 838.632 154.709 838.632 156.22C838.632 157.228 838.738 158.084 838.95 158.789C839.162 159.493 839.467 160.029 839.865 160.397C840.266 160.764 840.749 160.948 841.314 160.948Z" fill="black"/>
<rect x="0.5" y="200.218" width="857" height="48.359" rx="7.5" stroke="#BDBDBD"/>
<rect x="11.5" y="208.218" width="32.359" height="32.359" rx="11.5" fill="white"/>
<rect x="11.5" y="208.218" width="32.359" height="32.359" rx="11.5" stroke="#BDBDBD"/>
<path d="M53.768 230.398V218.762H60.7907V220.012H55.1771V223.943H60.4271V225.193H55.1771V229.148H60.8816V230.398H53.768ZM63.8287 221.671L65.9196 225.239L68.0105 221.671H69.5559L66.7378 226.034L69.5559 230.398H68.0105L65.9196 227.012L63.8287 230.398H62.2832L65.0559 226.034L62.2832 221.671H63.8287ZM74.9447 221.671V222.807H70.422V221.671H74.9447ZM71.7402 219.58H73.0811V227.898C73.0811 228.277 73.136 228.561 73.2459 228.75C73.3595 228.936 73.5035 229.061 73.6777 229.125C73.8557 229.186 74.0432 229.216 74.2402 229.216C74.3879 229.216 74.5091 229.209 74.6038 229.193C74.6985 229.174 74.7743 229.159 74.8311 229.148L75.1038 230.352C75.0129 230.387 74.886 230.421 74.7231 230.455C74.5603 230.493 74.3538 230.512 74.1038 230.512C73.725 230.512 73.3538 230.43 72.9902 230.267C72.6303 230.104 72.3311 229.856 72.0925 229.523C71.8576 229.19 71.7402 228.769 71.7402 228.262V219.58ZM76.6418 230.398V221.671H77.9372V222.989H78.0281C78.1872 222.557 78.4751 222.207 78.8918 221.938C79.3085 221.669 79.7781 221.534 80.3009 221.534C80.3994 221.534 80.5225 221.536 80.6702 221.54C80.8179 221.544 80.9297 221.549 81.0054 221.557V222.921C80.96 222.909 80.8558 222.892 80.6929 222.87C80.5338 222.843 80.3653 222.83 80.1872 222.83C79.763 222.83 79.3842 222.919 79.0509 223.097C78.7213 223.271 78.46 223.513 78.2668 223.824C78.0774 224.131 77.9827 224.481 77.9827 224.875V230.398H76.6418ZM84.8431 230.602C84.2901 230.602 83.7882 230.498 83.3374 230.29C82.8867 230.078 82.5287 229.773 82.2635 229.375C81.9984 228.974 81.8658 228.489 81.8658 227.921C81.8658 227.421 81.9643 227.015 82.1613 226.705C82.3582 226.39 82.6215 226.144 82.951 225.966C83.2806 225.788 83.6442 225.656 84.042 225.568C84.4435 225.477 84.8469 225.406 85.2522 225.352C85.7825 225.284 86.2124 225.233 86.542 225.199C86.8753 225.161 87.1177 225.099 87.2692 225.012C87.4245 224.924 87.5022 224.773 87.5022 224.557V224.512C87.5022 223.951 87.3488 223.515 87.042 223.205C86.7389 222.894 86.2787 222.739 85.6613 222.739C85.0211 222.739 84.5192 222.879 84.1556 223.159C83.792 223.44 83.5363 223.739 83.3885 224.057L82.1158 223.602C82.3431 223.072 82.6461 222.659 83.0249 222.364C83.4075 222.065 83.8242 221.856 84.2749 221.739C84.7295 221.618 85.1764 221.557 85.6158 221.557C85.8961 221.557 86.2181 221.591 86.5817 221.659C86.9492 221.724 87.3033 221.858 87.6442 222.063C87.9889 222.267 88.2749 222.576 88.5022 222.989C88.7295 223.402 88.8431 223.955 88.8431 224.648V230.398H87.5022V229.216H87.434C87.3431 229.406 87.1916 229.608 86.9795 229.824C86.7673 230.04 86.4851 230.224 86.1329 230.375C85.7806 230.527 85.3507 230.602 84.8431 230.602ZM85.0476 229.398C85.5779 229.398 86.0249 229.294 86.3885 229.085C86.756 228.877 87.0325 228.608 87.2181 228.279C87.4075 227.949 87.5022 227.602 87.5022 227.239V226.012C87.4454 226.08 87.3204 226.142 87.1272 226.199C86.9378 226.252 86.7181 226.299 86.4681 226.341C86.2219 226.379 85.9813 226.413 85.7465 226.443C85.5154 226.47 85.3279 226.493 85.184 226.512C84.8355 226.557 84.5098 226.631 84.2067 226.733C83.9075 226.832 83.6651 226.981 83.4795 227.182C83.2976 227.379 83.2067 227.648 83.2067 227.989C83.2067 228.455 83.3791 228.807 83.7238 229.046C84.0723 229.281 84.5135 229.398 85.0476 229.398ZM95.3324 230.398V218.762H99.2642C100.177 218.762 100.923 218.926 101.503 219.256C102.086 219.582 102.518 220.023 102.798 220.58C103.079 221.137 103.219 221.758 103.219 222.443C103.219 223.129 103.079 223.752 102.798 224.313C102.522 224.873 102.094 225.32 101.514 225.654C100.935 225.983 100.192 226.148 99.2869 226.148H96.4687V224.898H99.2414C99.8664 224.898 100.368 224.79 100.747 224.574C101.126 224.358 101.401 224.067 101.571 223.699C101.745 223.328 101.832 222.909 101.832 222.443C101.832 221.977 101.745 221.561 101.571 221.193C101.401 220.826 101.124 220.538 100.741 220.33C100.359 220.118 99.8513 220.012 99.2187 220.012H96.7414V230.398H95.3324ZM108.552 230.58C107.711 230.58 106.986 230.394 106.376 230.023C105.77 229.648 105.302 229.125 104.973 228.455C104.647 227.781 104.484 226.996 104.484 226.102C104.484 225.209 104.647 224.421 104.973 223.739C105.302 223.053 105.76 222.519 106.348 222.137C106.938 221.75 107.628 221.557 108.416 221.557C108.87 221.557 109.319 221.633 109.762 221.784C110.206 221.936 110.609 222.182 110.973 222.523C111.336 222.86 111.626 223.307 111.842 223.864C112.058 224.421 112.166 225.106 112.166 225.921V226.489H105.438V225.33H110.802C110.802 224.837 110.704 224.398 110.507 224.012C110.313 223.625 110.037 223.32 109.677 223.097C109.321 222.873 108.901 222.762 108.416 222.762C107.882 222.762 107.42 222.894 107.029 223.159C106.643 223.421 106.346 223.762 106.137 224.182C105.929 224.602 105.825 225.053 105.825 225.534V226.307C105.825 226.966 105.938 227.525 106.166 227.983C106.397 228.438 106.717 228.784 107.126 229.023C107.535 229.258 108.01 229.375 108.552 229.375C108.904 229.375 109.223 229.326 109.507 229.227C109.795 229.125 110.043 228.974 110.251 228.773C110.459 228.568 110.62 228.315 110.734 228.012L112.029 228.375C111.893 228.815 111.664 229.201 111.342 229.534C111.02 229.864 110.622 230.121 110.149 230.307C109.675 230.489 109.143 230.58 108.552 230.58ZM113.886 233.671V221.671H115.181V223.057H115.34C115.439 222.906 115.575 222.712 115.749 222.477C115.927 222.239 116.181 222.027 116.511 221.841C116.844 221.652 117.295 221.557 117.863 221.557C118.598 221.557 119.245 221.741 119.806 222.108C120.367 222.476 120.804 222.996 121.118 223.671C121.433 224.345 121.59 225.14 121.59 226.057C121.59 226.981 121.433 227.782 121.118 228.46C120.804 229.135 120.368 229.657 119.812 230.029C119.255 230.396 118.613 230.58 117.886 230.58C117.325 230.58 116.876 230.487 116.539 230.301C116.202 230.112 115.942 229.898 115.761 229.659C115.579 229.417 115.439 229.216 115.34 229.057H115.226V233.671H113.886ZM115.204 226.034C115.204 226.693 115.3 227.275 115.493 227.779C115.687 228.279 115.969 228.671 116.34 228.955C116.711 229.235 117.166 229.375 117.704 229.375C118.264 229.375 118.732 229.227 119.107 228.932C119.486 228.633 119.77 228.231 119.959 227.727C120.153 227.22 120.249 226.656 120.249 226.034C120.249 225.421 120.154 224.868 119.965 224.375C119.779 223.879 119.497 223.487 119.118 223.199C118.743 222.907 118.272 222.762 117.704 222.762C117.158 222.762 116.7 222.9 116.329 223.176C115.958 223.449 115.677 223.832 115.488 224.324C115.298 224.813 115.204 225.383 115.204 226.034ZM123.316 233.671V221.671H124.611V223.057H124.77C124.869 222.906 125.005 222.712 125.179 222.477C125.357 222.239 125.611 222.027 125.941 221.841C126.274 221.652 126.725 221.557 127.293 221.557C128.028 221.557 128.675 221.741 129.236 222.108C129.797 222.476 130.234 222.996 130.548 223.671C130.863 224.345 131.02 225.14 131.02 226.057C131.02 226.981 130.863 227.782 130.548 228.46C130.234 229.135 129.798 229.657 129.242 230.029C128.685 230.396 128.043 230.58 127.316 230.58C126.755 230.58 126.306 230.487 125.969 230.301C125.632 230.112 125.372 229.898 125.191 229.659C125.009 229.417 124.869 229.216 124.77 229.057H124.656V233.671H123.316ZM124.634 226.034C124.634 226.693 124.73 227.275 124.923 227.779C125.117 228.279 125.399 228.671 125.77 228.955C126.141 229.235 126.596 229.375 127.134 229.375C127.694 229.375 128.162 229.227 128.537 228.932C128.916 228.633 129.2 228.231 129.389 227.727C129.583 227.22 129.679 226.656 129.679 226.034C129.679 225.421 129.584 224.868 129.395 224.375C129.209 223.879 128.927 223.487 128.548 223.199C128.173 222.907 127.702 222.762 127.134 222.762C126.588 222.762 126.13 222.9 125.759 223.176C125.388 223.449 125.107 223.832 124.918 224.324C124.728 224.813 124.634 225.383 124.634 226.034ZM136.405 230.58C135.564 230.58 134.838 230.394 134.228 230.023C133.622 229.648 133.155 229.125 132.825 228.455C132.499 227.781 132.336 226.996 132.336 226.102C132.336 225.209 132.499 224.421 132.825 223.739C133.155 223.053 133.613 222.519 134.2 222.137C134.791 221.75 135.48 221.557 136.268 221.557C136.723 221.557 137.172 221.633 137.615 221.784C138.058 221.936 138.461 222.182 138.825 222.523C139.189 222.86 139.478 223.307 139.694 223.864C139.91 224.421 140.018 225.106 140.018 225.921V226.489H133.291V225.33H138.655C138.655 224.837 138.556 224.398 138.359 224.012C138.166 223.625 137.889 223.32 137.53 223.097C137.174 222.873 136.753 222.762 136.268 222.762C135.734 222.762 135.272 222.894 134.882 223.159C134.496 223.421 134.198 223.762 133.99 224.182C133.782 224.602 133.677 225.053 133.677 225.534V226.307C133.677 226.966 133.791 227.525 134.018 227.983C134.249 228.438 134.569 228.784 134.978 229.023C135.388 229.258 135.863 229.375 136.405 229.375C136.757 229.375 137.075 229.326 137.359 229.227C137.647 229.125 137.895 228.974 138.103 228.773C138.312 228.568 138.473 228.315 138.586 228.012L139.882 228.375C139.746 228.815 139.516 229.201 139.194 229.534C138.872 229.864 138.475 230.121 138.001 230.307C137.528 230.489 136.996 230.58 136.405 230.58ZM141.738 230.398V221.671H143.033V222.989H143.124C143.283 222.557 143.571 222.207 143.988 221.938C144.405 221.669 144.874 221.534 145.397 221.534C145.496 221.534 145.619 221.536 145.766 221.54C145.914 221.544 146.026 221.549 146.102 221.557V222.921C146.056 222.909 145.952 222.892 145.789 222.87C145.63 222.843 145.462 222.83 145.283 222.83C144.859 222.83 144.48 222.919 144.147 223.097C143.818 223.271 143.556 223.513 143.363 223.824C143.174 224.131 143.079 224.481 143.079 224.875V230.398H141.738ZM158.097 221.671C158.028 221.095 157.752 220.648 157.267 220.33C156.782 220.012 156.188 219.852 155.483 219.852C154.968 219.852 154.517 219.936 154.131 220.102C153.748 220.269 153.449 220.498 153.233 220.79C153.021 221.082 152.915 221.413 152.915 221.784C152.915 222.095 152.989 222.362 153.136 222.585C153.288 222.805 153.481 222.989 153.716 223.137C153.951 223.281 154.197 223.4 154.455 223.495C154.712 223.585 154.949 223.659 155.165 223.716L156.347 224.034C156.65 224.114 156.987 224.224 157.358 224.364C157.733 224.504 158.091 224.695 158.432 224.938C158.777 225.176 159.061 225.483 159.284 225.858C159.508 226.233 159.619 226.693 159.619 227.239C159.619 227.868 159.455 228.436 159.125 228.943C158.799 229.451 158.322 229.854 157.693 230.154C157.068 230.453 156.309 230.602 155.415 230.602C154.581 230.602 153.86 230.468 153.25 230.199C152.644 229.93 152.167 229.555 151.818 229.074C151.474 228.593 151.278 228.034 151.233 227.398H152.688C152.725 227.837 152.873 228.201 153.131 228.489C153.392 228.773 153.722 228.985 154.119 229.125C154.521 229.262 154.953 229.33 155.415 229.33C155.953 229.33 156.436 229.243 156.864 229.068C157.292 228.89 157.631 228.644 157.881 228.33C158.131 228.012 158.256 227.64 158.256 227.216C158.256 226.83 158.148 226.515 157.932 226.273C157.716 226.031 157.432 225.834 157.08 225.682C156.727 225.531 156.347 225.398 155.938 225.284L154.506 224.875C153.597 224.614 152.877 224.241 152.347 223.756C151.816 223.271 151.551 222.637 151.551 221.852C151.551 221.201 151.727 220.633 152.08 220.148C152.436 219.659 152.913 219.281 153.511 219.012C154.114 218.739 154.786 218.602 155.528 218.602C156.278 218.602 156.945 218.737 157.528 219.006C158.112 219.271 158.574 219.635 158.915 220.097C159.259 220.559 159.441 221.084 159.46 221.671H158.097ZM164.002 230.602C163.449 230.602 162.948 230.498 162.497 230.29C162.046 230.078 161.688 229.773 161.423 229.375C161.158 228.974 161.025 228.489 161.025 227.921C161.025 227.421 161.124 227.015 161.321 226.705C161.518 226.39 161.781 226.144 162.11 225.966C162.44 225.788 162.804 225.656 163.201 225.568C163.603 225.477 164.006 225.406 164.412 225.352C164.942 225.284 165.372 225.233 165.701 225.199C166.035 225.161 166.277 225.099 166.429 225.012C166.584 224.924 166.662 224.773 166.662 224.557V224.512C166.662 223.951 166.508 223.515 166.201 223.205C165.898 222.894 165.438 222.739 164.821 222.739C164.18 222.739 163.679 222.879 163.315 223.159C162.951 223.44 162.696 223.739 162.548 224.057L161.275 223.602C161.502 223.072 161.805 222.659 162.184 222.364C162.567 222.065 162.984 221.856 163.434 221.739C163.889 221.618 164.336 221.557 164.775 221.557C165.055 221.557 165.377 221.591 165.741 221.659C166.109 221.724 166.463 221.858 166.804 222.063C167.148 222.267 167.434 222.576 167.662 222.989C167.889 223.402 168.002 223.955 168.002 224.648V230.398H166.662V229.216H166.593C166.502 229.406 166.351 229.608 166.139 229.824C165.927 230.04 165.645 230.224 165.292 230.375C164.94 230.527 164.51 230.602 164.002 230.602ZM164.207 229.398C164.737 229.398 165.184 229.294 165.548 229.085C165.915 228.877 166.192 228.608 166.377 228.279C166.567 227.949 166.662 227.602 166.662 227.239V226.012C166.605 226.08 166.48 226.142 166.287 226.199C166.097 226.252 165.877 226.299 165.627 226.341C165.381 226.379 165.141 226.413 164.906 226.443C164.675 226.47 164.487 226.493 164.343 226.512C163.995 226.557 163.669 226.631 163.366 226.733C163.067 226.832 162.824 226.981 162.639 227.182C162.457 227.379 162.366 227.648 162.366 227.989C162.366 228.455 162.538 228.807 162.883 229.046C163.232 229.281 163.673 229.398 164.207 229.398ZM175.63 226.83V221.671H176.971V230.398H175.63V228.921H175.539C175.334 229.364 175.016 229.741 174.584 230.051C174.153 230.358 173.607 230.512 172.948 230.512C172.403 230.512 171.918 230.392 171.494 230.154C171.069 229.911 170.736 229.548 170.494 229.063C170.251 228.574 170.13 227.959 170.13 227.216V221.671H171.471V227.125C171.471 227.762 171.649 228.269 172.005 228.648C172.365 229.027 172.823 229.216 173.38 229.216C173.713 229.216 174.052 229.131 174.397 228.96C174.745 228.79 175.037 228.529 175.272 228.176C175.511 227.824 175.63 227.375 175.63 226.83ZM182.652 230.58C181.834 230.58 181.13 230.387 180.539 230C179.948 229.614 179.493 229.082 179.175 228.404C178.857 227.726 178.698 226.951 178.698 226.08C178.698 225.193 178.861 224.411 179.186 223.733C179.516 223.051 179.974 222.519 180.561 222.137C181.152 221.75 181.842 221.557 182.63 221.557C183.243 221.557 183.796 221.671 184.289 221.898C184.781 222.125 185.184 222.443 185.499 222.852C185.813 223.262 186.008 223.739 186.084 224.284H184.743C184.641 223.887 184.414 223.534 184.061 223.227C183.713 222.917 183.243 222.762 182.652 222.762C182.13 222.762 181.671 222.898 181.277 223.171C180.887 223.44 180.582 223.82 180.362 224.313C180.147 224.801 180.039 225.375 180.039 226.034C180.039 226.709 180.145 227.296 180.357 227.796C180.573 228.296 180.876 228.684 181.266 228.96C181.66 229.237 182.122 229.375 182.652 229.375C183.001 229.375 183.317 229.315 183.601 229.193C183.885 229.072 184.126 228.898 184.323 228.671C184.52 228.443 184.66 228.171 184.743 227.852H186.084C186.008 228.368 185.821 228.832 185.522 229.245C185.226 229.654 184.834 229.979 184.345 230.222C183.861 230.46 183.296 230.58 182.652 230.58ZM191.383 230.58C190.542 230.58 189.817 230.394 189.207 230.023C188.601 229.648 188.133 229.125 187.804 228.455C187.478 227.781 187.315 226.996 187.315 226.102C187.315 225.209 187.478 224.421 187.804 223.739C188.133 223.053 188.592 222.519 189.179 222.137C189.77 221.75 190.459 221.557 191.247 221.557C191.702 221.557 192.15 221.633 192.594 221.784C193.037 221.936 193.44 222.182 193.804 222.523C194.167 222.86 194.457 223.307 194.673 223.864C194.889 224.421 194.997 225.106 194.997 225.921V226.489H188.27V225.33H193.633C193.633 224.837 193.535 224.398 193.338 224.012C193.145 223.625 192.868 223.32 192.508 223.097C192.152 222.873 191.732 222.762 191.247 222.762C190.713 222.762 190.251 222.894 189.861 223.159C189.474 223.421 189.177 223.762 188.969 224.182C188.76 224.602 188.656 225.053 188.656 225.534V226.307C188.656 226.966 188.77 227.525 188.997 227.983C189.228 228.438 189.548 228.784 189.957 229.023C190.366 229.258 190.842 229.375 191.383 229.375C191.736 229.375 192.054 229.326 192.338 229.227C192.626 229.125 192.874 228.974 193.082 228.773C193.291 228.568 193.452 228.315 193.565 228.012L194.861 228.375C194.724 228.815 194.495 229.201 194.173 229.534C193.851 229.864 193.453 230.121 192.98 230.307C192.506 230.489 191.974 230.58 191.383 230.58Z" fill="black"/>
<path d="M799.636 228.352V220.852H800.909V228.352H799.636ZM796.523 225.239V223.966H804.023V225.239H796.523ZM817.181 223.012V224.148H805.591V223.012H817.181ZM817.181 225.466V226.602H805.591V225.466H817.181ZM816 218.762V230.398H814.636L808.295 221.262H808.181V230.398H806.772V218.762H808.136L814.5 227.921H814.613V218.762H816ZM822.356 230.557C821.606 230.557 820.937 230.428 820.35 230.171C819.767 229.913 819.303 229.555 818.958 229.097C818.617 228.635 818.431 228.099 818.401 227.489H819.833C819.863 227.864 819.992 228.188 820.219 228.46C820.447 228.729 820.744 228.938 821.111 229.085C821.479 229.233 821.886 229.307 822.333 229.307C822.833 229.307 823.276 229.22 823.663 229.046C824.049 228.871 824.352 228.629 824.572 228.318C824.791 228.008 824.901 227.648 824.901 227.239C824.901 226.811 824.795 226.434 824.583 226.108C824.371 225.779 824.06 225.521 823.651 225.335C823.242 225.15 822.742 225.057 822.151 225.057H821.219V223.807H822.151C822.613 223.807 823.019 223.724 823.367 223.557C823.719 223.39 823.994 223.156 824.191 222.852C824.392 222.549 824.492 222.193 824.492 221.784C824.492 221.39 824.405 221.048 824.231 220.756C824.056 220.464 823.81 220.237 823.492 220.074C823.178 219.911 822.806 219.83 822.378 219.83C821.977 219.83 821.598 219.904 821.242 220.051C820.89 220.195 820.602 220.406 820.378 220.682C820.155 220.955 820.034 221.284 820.015 221.671H818.651C818.674 221.061 818.858 220.527 819.202 220.068C819.547 219.606 819.998 219.246 820.555 218.989C821.115 218.731 821.731 218.602 822.401 218.602C823.121 218.602 823.738 218.748 824.253 219.04C824.769 219.328 825.164 219.709 825.441 220.182C825.717 220.656 825.856 221.167 825.856 221.716C825.856 222.371 825.683 222.93 825.339 223.392C824.998 223.854 824.534 224.174 823.947 224.352V224.443C824.681 224.565 825.255 224.877 825.668 225.381C826.081 225.881 826.288 226.5 826.288 227.239C826.288 227.871 826.115 228.44 825.771 228.943C825.43 229.443 824.964 229.837 824.373 230.125C823.782 230.413 823.11 230.557 822.356 230.557ZM832.087 230.557C831.231 230.557 830.502 230.324 829.899 229.858C829.297 229.388 828.837 228.709 828.519 227.818C828.201 226.924 828.041 225.845 828.041 224.58C828.041 223.322 828.201 222.248 828.519 221.358C828.841 220.464 829.303 219.782 829.905 219.313C830.511 218.839 831.238 218.602 832.087 218.602C832.935 218.602 833.661 218.839 834.263 219.313C834.869 219.782 835.331 220.464 835.649 221.358C835.971 222.248 836.132 223.322 836.132 224.58C836.132 225.845 835.973 226.924 835.655 227.818C835.337 228.709 834.877 229.388 834.274 229.858C833.672 230.324 832.943 230.557 832.087 230.557ZM832.087 229.307C832.935 229.307 833.594 228.898 834.064 228.08C834.534 227.262 834.769 226.095 834.769 224.58C834.769 223.572 834.661 222.714 834.445 222.006C834.233 221.298 833.926 220.758 833.524 220.387C833.127 220.015 832.647 219.83 832.087 219.83C831.246 219.83 830.589 220.245 830.115 221.074C829.642 221.9 829.405 223.068 829.405 224.58C829.405 225.587 829.511 226.443 829.723 227.148C829.935 227.852 830.24 228.388 830.638 228.756C831.04 229.123 831.522 229.307 832.087 229.307ZM841.767 230.557C840.911 230.557 840.182 230.324 839.579 229.858C838.977 229.388 838.517 228.709 838.199 227.818C837.881 226.924 837.721 225.845 837.721 224.58C837.721 223.322 837.881 222.248 838.199 221.358C838.521 220.464 838.983 219.782 839.585 219.313C840.191 218.839 840.918 218.602 841.767 218.602C842.615 218.602 843.341 218.839 843.943 219.313C844.549 219.782 845.011 220.464 845.329 221.358C845.651 222.248 845.812 223.322 845.812 224.58C845.812 225.845 845.653 226.924 845.335 227.818C845.017 228.709 844.557 229.388 843.954 229.858C843.352 230.324 842.623 230.557 841.767 230.557ZM841.767 229.307C842.615 229.307 843.274 228.898 843.744 228.08C844.214 227.262 844.449 226.095 844.449 224.58C844.449 223.572 844.341 222.714 844.125 222.006C843.913 221.298 843.606 220.758 843.204 220.387C842.807 220.015 842.327 219.83 841.767 219.83C840.926 219.83 840.269 220.245 839.795 221.074C839.322 221.9 839.085 223.068 839.085 224.58C839.085 225.587 839.191 226.443 839.403 227.148C839.615 227.852 839.92 228.388 840.318 228.756C840.72 229.123 841.202 229.307 841.767 229.307Z" fill="black"/>
</svg>
