<svg width="858" height="260" viewBox="0 0 858 260" fill="none" xmlns="http://www.w3.org/2000/svg">
<path d="M16.4148 24.2216H13.7557C13.6534 23.6534 13.4631 23.1534 13.1847 22.7216C12.9063 22.2898 12.5653 21.9233 12.1619 21.6222C11.7585 21.321 11.3068 21.0937 10.8068 20.9403C10.3125 20.7869 9.78693 20.7102 9.23011 20.7102C8.22443 20.7102 7.32386 20.9631 6.52841 21.4688C5.73864 21.9744 5.11364 22.7159 4.65341 23.6932C4.19886 24.6705 3.97159 25.8636 3.97159 27.2727C3.97159 28.6932 4.19886 29.892 4.65341 30.8693C5.11364 31.8466 5.74148 32.5852 6.53693 33.0852C7.33239 33.5852 8.22727 33.8352 9.22159 33.8352C9.77273 33.8352 10.2955 33.7614 10.7898 33.6136C11.2898 33.4602 11.7415 33.2358 12.1449 32.9403C12.5483 32.6449 12.8892 32.2841 13.1676 31.858C13.4517 31.4261 13.6477 30.9318 13.7557 30.375L16.4148 30.3835C16.2727 31.2415 15.9972 32.0312 15.5881 32.7528C15.1847 33.4688 14.6648 34.0881 14.0284 34.6108C13.3977 35.1278 12.6761 35.5284 11.8636 35.8125C11.0511 36.0966 10.1648 36.2386 9.20455 36.2386C7.69318 36.2386 6.34659 35.8807 5.16477 35.1648C3.98295 34.4432 3.05114 33.4119 2.36932 32.071C1.69318 30.7301 1.35511 29.1307 1.35511 27.2727C1.35511 25.4091 1.69602 23.8097 2.37784 22.4744C3.05966 21.1335 3.99148 20.1051 5.1733 19.3892C6.35511 18.6676 7.69886 18.3068 9.20455 18.3068C10.1307 18.3068 10.9943 18.4403 11.7955 18.7074C12.6023 18.9687 13.3267 19.3551 13.9688 19.8665C14.6108 20.3722 15.142 20.9915 15.5625 21.7244C15.983 22.4517 16.267 23.2841 16.4148 24.2216ZM21.9098 28.2273V36H19.3615V18.5455H21.8757V25.0398H22.0376C22.3445 24.3352 22.8132 23.7756 23.4439 23.3608C24.0746 22.946 24.8984 22.7386 25.9155 22.7386C26.8132 22.7386 27.5973 22.9233 28.2678 23.2926C28.9439 23.6619 29.4666 24.2131 29.8359 24.946C30.2109 25.6733 30.3984 26.5824 30.3984 27.6733V36H27.8501V27.9801C27.8501 27.0199 27.603 26.2756 27.1087 25.7472C26.6143 25.2131 25.9268 24.946 25.0462 24.946C24.4439 24.946 23.9041 25.0739 23.4268 25.3295C22.9553 25.5852 22.5831 25.9602 22.3104 26.4545C22.0433 26.9432 21.9098 27.5341 21.9098 28.2273ZM39.3132 36.2642C38.0859 36.2642 37.0149 35.983 36.1001 35.4205C35.1854 34.858 34.4751 34.071 33.9695 33.0597C33.4638 32.0483 33.2109 30.8665 33.2109 29.5142C33.2109 28.1562 33.4638 26.9687 33.9695 25.9517C34.4751 24.9347 35.1854 24.1449 36.1001 23.5824C37.0149 23.0199 38.0859 22.7386 39.3132 22.7386C40.5405 22.7386 41.6115 23.0199 42.5263 23.5824C43.4411 24.1449 44.1513 24.9347 44.657 25.9517C45.1626 26.9687 45.4155 28.1562 45.4155 29.5142C45.4155 30.8665 45.1626 32.0483 44.657 33.0597C44.1513 34.071 43.4411 34.858 42.5263 35.4205C41.6115 35.983 40.5405 36.2642 39.3132 36.2642ZM39.3217 34.125C40.1172 34.125 40.7763 33.9148 41.299 33.4943C41.8217 33.0739 42.2081 32.5142 42.4581 31.8153C42.7138 31.1165 42.8416 30.3466 42.8416 29.5057C42.8416 28.6705 42.7138 27.9034 42.4581 27.2045C42.2081 26.5 41.8217 25.9347 41.299 25.5085C40.7763 25.0824 40.1172 24.8693 39.3217 24.8693C38.5206 24.8693 37.8558 25.0824 37.3274 25.5085C36.8047 25.9347 36.4155 26.5 36.1598 27.2045C35.9098 27.9034 35.7848 28.6705 35.7848 29.5057C35.7848 30.3466 35.9098 31.1165 36.1598 31.8153C36.4155 32.5142 36.8047 33.0739 37.3274 33.4943C37.8558 33.9148 38.5206 34.125 39.3217 34.125ZM53.7741 36.2642C52.5469 36.2642 51.4759 35.983 50.5611 35.4205C49.6463 34.858 48.9361 34.071 48.4304 33.0597C47.9247 32.0483 47.6719 30.8665 47.6719 29.5142C47.6719 28.1562 47.9247 26.9687 48.4304 25.9517C48.9361 24.9347 49.6463 24.1449 50.5611 23.5824C51.4759 23.0199 52.5469 22.7386 53.7741 22.7386C55.0014 22.7386 56.0724 23.0199 56.9872 23.5824C57.902 24.1449 58.6122 24.9347 59.1179 25.9517C59.6236 26.9687 59.8764 28.1562 59.8764 29.5142C59.8764 30.8665 59.6236 32.0483 59.1179 33.0597C58.6122 34.071 57.902 34.858 56.9872 35.4205C56.0724 35.983 55.0014 36.2642 53.7741 36.2642ZM53.7827 34.125C54.5781 34.125 55.2372 33.9148 55.7599 33.4943C56.2827 33.0739 56.669 32.5142 56.919 31.8153C57.1747 31.1165 57.3026 30.3466 57.3026 29.5057C57.3026 28.6705 57.1747 27.9034 56.919 27.2045C56.669 26.5 56.2827 25.9347 55.7599 25.5085C55.2372 25.0824 54.5781 24.8693 53.7827 24.8693C52.9815 24.8693 52.3168 25.0824 51.7884 25.5085C51.2656 25.9347 50.8764 26.5 50.6207 27.2045C50.3707 27.9034 50.2457 28.6705 50.2457 29.5057C50.2457 30.3466 50.3707 31.1165 50.6207 31.8153C50.8764 32.5142 51.2656 33.0739 51.7884 33.4943C52.3168 33.9148 52.9815 34.125 53.7827 34.125ZM72.5305 26.1051L70.2209 26.5142C70.1243 26.2187 69.9709 25.9375 69.7607 25.6705C69.5561 25.4034 69.2777 25.1847 68.9254 25.0142C68.5732 24.8437 68.1328 24.7585 67.6044 24.7585C66.8828 24.7585 66.2805 24.9205 65.7976 25.2443C65.3146 25.5625 65.0732 25.9744 65.0732 26.4801C65.0732 26.9176 65.2351 27.2699 65.5589 27.5369C65.8828 27.804 66.4055 28.0227 67.1271 28.1932L69.2067 28.6705C70.4112 28.9489 71.3089 29.3778 71.8999 29.9574C72.4908 30.5369 72.7862 31.2898 72.7862 32.2159C72.7862 33 72.5589 33.6989 72.1044 34.3125C71.6555 34.9205 71.0277 35.3977 70.2209 35.7443C69.4197 36.0909 68.4908 36.2642 67.4339 36.2642C65.968 36.2642 64.772 35.9517 63.8459 35.3267C62.9197 34.696 62.3516 33.8011 62.1413 32.642L64.6044 32.267C64.7578 32.9091 65.0732 33.3949 65.5504 33.7244C66.0277 34.0483 66.6499 34.2102 67.4169 34.2102C68.2521 34.2102 68.9197 34.0369 69.4197 33.6903C69.9197 33.3381 70.1697 32.9091 70.1697 32.4034C70.1697 31.9943 70.0163 31.6506 69.7095 31.3722C69.4084 31.0937 68.9453 30.8835 68.3203 30.7415L66.1044 30.2557C64.8828 29.9773 63.9794 29.5341 63.3942 28.9261C62.8146 28.3182 62.5249 27.5483 62.5249 26.6165C62.5249 25.8437 62.7408 25.1676 63.1726 24.5881C63.6044 24.0085 64.201 23.5568 64.9624 23.233C65.7237 22.9034 66.5959 22.7386 67.5788 22.7386C68.9936 22.7386 70.1072 23.0455 70.9197 23.6591C71.7322 24.267 72.2692 25.0824 72.5305 26.1051ZM81.2301 36.2642C79.9403 36.2642 78.8295 35.9886 77.8977 35.4375C76.9716 34.8807 76.2557 34.0994 75.75 33.0938C75.25 32.0824 75 30.8977 75 29.5398C75 28.1989 75.25 27.017 75.75 25.9943C76.2557 24.9716 76.9602 24.1733 77.8636 23.5994C78.7727 23.0256 79.8352 22.7386 81.0511 22.7386C81.7898 22.7386 82.5057 22.8608 83.1989 23.1051C83.892 23.3494 84.5142 23.733 85.0653 24.2557C85.6165 24.7784 86.0511 25.4574 86.3693 26.2926C86.6875 27.1222 86.8466 28.1307 86.8466 29.3182V30.2216H76.4403V28.3125H84.3494C84.3494 27.642 84.2131 27.0483 83.9403 26.5312C83.6676 26.0085 83.2841 25.5966 82.7898 25.2955C82.3011 24.9943 81.7273 24.8438 81.0682 24.8438C80.3523 24.8438 79.7273 25.0199 79.1932 25.3722C78.6648 25.7187 78.2557 26.1733 77.9659 26.7358C77.6818 27.2926 77.5398 27.8977 77.5398 28.5511V30.0426C77.5398 30.9176 77.6932 31.6619 78 32.2756C78.3125 32.8892 78.7472 33.358 79.304 33.6818C79.8608 34 80.5114 34.1591 81.2557 34.1591C81.7386 34.1591 82.179 34.0909 82.5767 33.9545C82.9744 33.8125 83.3182 33.6023 83.608 33.3239C83.8977 33.0455 84.1193 32.7017 84.2727 32.2926L86.6847 32.7273C86.4915 33.4375 86.1449 34.0597 85.6449 34.5938C85.1506 35.1222 84.5284 35.5341 83.7784 35.8295C83.0341 36.1193 82.1847 36.2642 81.2301 36.2642ZM94.8835 18.5455H97.875L102.435 26.4801H102.622L107.182 18.5455H110.173L103.841 29.1477V36H101.216V29.1477L94.8835 18.5455ZM115.813 36.2642C114.586 36.2642 113.515 35.983 112.6 35.4205C111.685 34.858 110.975 34.071 110.469 33.0597C109.964 32.0483 109.711 30.8665 109.711 29.5142C109.711 28.1562 109.964 26.9687 110.469 25.9517C110.975 24.9347 111.685 24.1449 112.6 23.5824C113.515 23.0199 114.586 22.7386 115.813 22.7386C117.04 22.7386 118.112 23.0199 119.026 23.5824C119.941 24.1449 120.651 24.9347 121.157 25.9517C121.663 26.9687 121.915 28.1562 121.915 29.5142C121.915 30.8665 121.663 32.0483 121.157 33.0597C120.651 34.071 119.941 34.858 119.026 35.4205C118.112 35.983 117.04 36.2642 115.813 36.2642ZM115.822 34.125C116.617 34.125 117.276 33.9148 117.799 33.4943C118.322 33.0739 118.708 32.5142 118.958 31.8153C119.214 31.1165 119.342 30.3466 119.342 29.5057C119.342 28.6705 119.214 27.9034 118.958 27.2045C118.708 26.5 118.322 25.9347 117.799 25.5085C117.276 25.0824 116.617 24.8693 115.822 24.8693C115.021 24.8693 114.356 25.0824 113.827 25.5085C113.305 25.9347 112.915 26.5 112.66 27.2045C112.41 27.9034 112.285 28.6705 112.285 29.5057C112.285 30.3466 112.41 31.1165 112.66 31.8153C112.915 32.5142 113.305 33.0739 113.827 33.4943C114.356 33.9148 115.021 34.125 115.822 34.125ZM133.053 30.571V22.9091H135.609V36H133.104V33.733H132.967C132.666 34.4318 132.183 35.0142 131.518 35.4801C130.859 35.9403 130.038 36.1705 129.055 36.1705C128.214 36.1705 127.47 35.9858 126.822 35.6165C126.18 35.2415 125.675 34.6875 125.305 33.9545C124.942 33.2216 124.76 32.3153 124.76 31.2358V22.9091H127.308V30.929C127.308 31.821 127.555 32.5312 128.05 33.0597C128.544 33.5881 129.186 33.8523 129.976 33.8523C130.453 33.8523 130.928 33.733 131.399 33.4943C131.876 33.2557 132.271 32.8949 132.584 32.4119C132.902 31.929 133.058 31.3153 133.053 30.571ZM139.033 36V22.9091H141.496V24.9886H141.633C141.871 24.2841 142.292 23.7301 142.894 23.3267C143.502 22.9176 144.19 22.7131 144.957 22.7131C145.116 22.7131 145.303 22.7187 145.519 22.7301C145.741 22.7415 145.914 22.7557 146.039 22.7727V25.2102C145.937 25.1818 145.755 25.1506 145.494 25.1165C145.232 25.0767 144.971 25.0568 144.71 25.0568C144.107 25.0568 143.57 25.1847 143.099 25.4403C142.633 25.6903 142.263 26.0398 141.991 26.4886C141.718 26.9318 141.582 27.4375 141.582 28.0057V36H139.033ZM154.8 36V18.5455H161.022C162.38 18.5455 163.505 18.7926 164.397 19.2869C165.289 19.7812 165.957 20.4574 166.4 21.3153C166.843 22.1676 167.065 23.1278 167.065 24.196C167.065 25.2699 166.84 26.2358 166.391 27.0938C165.948 27.946 165.278 28.6222 164.38 29.1222C163.488 29.6165 162.366 29.8636 161.013 29.8636H156.735V27.6307H160.775C161.633 27.6307 162.329 27.483 162.863 27.1875C163.397 26.8864 163.789 26.4773 164.039 25.9602C164.289 25.4432 164.414 24.8551 164.414 24.196C164.414 23.5369 164.289 22.9517 164.039 22.4403C163.789 21.929 163.394 21.5284 162.854 21.2386C162.32 20.9489 161.616 20.804 160.741 20.804H157.434V36H154.8ZM169.947 36V22.9091H172.411V24.9886H172.547C172.786 24.2841 173.206 23.7301 173.808 23.3267C174.416 22.9176 175.104 22.7131 175.871 22.7131C176.03 22.7131 176.217 22.7187 176.433 22.7301C176.655 22.7415 176.828 22.7557 176.953 22.7727V25.2102C176.851 25.1818 176.669 25.1506 176.408 25.1165C176.146 25.0767 175.885 25.0568 175.624 25.0568C175.021 25.0568 174.484 25.1847 174.013 25.4403C173.547 25.6903 173.178 26.0398 172.905 26.4886C172.632 26.9318 172.496 27.4375 172.496 28.0057V36H169.947ZM184.204 36.2642C182.977 36.2642 181.906 35.983 180.991 35.4205C180.076 34.858 179.366 34.071 178.86 33.0597C178.354 32.0483 178.102 30.8665 178.102 29.5142C178.102 28.1562 178.354 26.9687 178.86 25.9517C179.366 24.9347 180.076 24.1449 180.991 23.5824C181.906 23.0199 182.977 22.7386 184.204 22.7386C185.431 22.7386 186.502 23.0199 187.417 23.5824C188.332 24.1449 189.042 24.9347 189.548 25.9517C190.053 26.9687 190.306 28.1562 190.306 29.5142C190.306 30.8665 190.053 32.0483 189.548 33.0597C189.042 34.071 188.332 34.858 187.417 35.4205C186.502 35.983 185.431 36.2642 184.204 36.2642ZM184.212 34.125C185.008 34.125 185.667 33.9148 186.19 33.4943C186.712 33.0739 187.099 32.5142 187.349 31.8153C187.604 31.1165 187.732 30.3466 187.732 29.5057C187.732 28.6705 187.604 27.9034 187.349 27.2045C187.099 26.5 186.712 25.9347 186.19 25.5085C185.667 25.0824 185.008 24.8693 184.212 24.8693C183.411 24.8693 182.746 25.0824 182.218 25.5085C181.695 25.9347 181.306 26.5 181.05 27.2045C180.8 27.9034 180.675 28.6705 180.675 29.5057C180.675 30.3466 180.8 31.1165 181.05 31.8153C181.306 32.5142 181.695 33.0739 182.218 33.4943C182.746 33.9148 183.411 34.125 184.212 34.125ZM199.261 22.9091V24.9545H192.111V22.9091H199.261ZM194.028 19.7727H196.577V32.1562C196.577 32.6506 196.651 33.0227 196.798 33.2727C196.946 33.517 197.136 33.6847 197.369 33.7756C197.608 33.8608 197.866 33.9034 198.145 33.9034C198.349 33.9034 198.528 33.8892 198.682 33.8608C198.835 33.8324 198.955 33.8097 199.04 33.7926L199.5 35.8977C199.352 35.9545 199.142 36.0114 198.869 36.0682C198.597 36.1307 198.256 36.1648 197.847 36.1705C197.176 36.1818 196.551 36.0625 195.972 35.8125C195.392 35.5625 194.923 35.1761 194.565 34.6534C194.207 34.1307 194.028 33.4744 194.028 32.6847V19.7727ZM207.582 36.2642C206.292 36.2642 205.181 35.9886 204.249 35.4375C203.323 34.8807 202.607 34.0994 202.102 33.0938C201.602 32.0824 201.352 30.8977 201.352 29.5398C201.352 28.1989 201.602 27.017 202.102 25.9943C202.607 24.9716 203.312 24.1733 204.215 23.5994C205.124 23.0256 206.187 22.7386 207.403 22.7386C208.141 22.7386 208.857 22.8608 209.55 23.1051C210.244 23.3494 210.866 23.733 211.417 24.2557C211.968 24.7784 212.403 25.4574 212.721 26.2926C213.039 27.1222 213.198 28.1307 213.198 29.3182V30.2216H202.792V28.3125H210.701C210.701 27.642 210.565 27.0483 210.292 26.5312C210.019 26.0085 209.636 25.5966 209.141 25.2955C208.653 24.9943 208.079 24.8438 207.42 24.8438C206.704 24.8438 206.079 25.0199 205.545 25.3722C205.016 25.7187 204.607 26.1733 204.317 26.7358C204.033 27.2926 203.891 27.8977 203.891 28.5511V30.0426C203.891 30.9176 204.045 31.6619 204.352 32.2756C204.664 32.8892 205.099 33.358 205.656 33.6818C206.212 34 206.863 34.1591 207.607 34.1591C208.09 34.1591 208.531 34.0909 208.928 33.9545C209.326 33.8125 209.67 33.6023 209.96 33.3239C210.249 33.0455 210.471 32.7017 210.624 32.2926L213.036 32.7273C212.843 33.4375 212.496 34.0597 211.996 34.5938C211.502 35.1222 210.88 35.5341 210.13 35.8295C209.386 36.1193 208.536 36.2642 207.582 36.2642ZM216.026 36V22.9091H218.574V36H216.026ZM217.312 20.8892C216.869 20.8892 216.489 20.7415 216.17 20.446C215.858 20.1449 215.702 19.7869 215.702 19.3722C215.702 18.9517 215.858 18.5937 216.17 18.2983C216.489 17.9972 216.869 17.8466 217.312 17.8466C217.756 17.8466 218.134 17.9972 218.446 18.2983C218.764 18.5937 218.923 18.9517 218.923 19.3722C218.923 19.7869 218.764 20.1449 218.446 20.446C218.134 20.7415 217.756 20.8892 217.312 20.8892ZM224.55 28.2273V36H222.002V22.9091H224.448V25.0398H224.61C224.911 24.3466 225.383 23.7898 226.025 23.3693C226.673 22.9489 227.488 22.7386 228.471 22.7386C229.363 22.7386 230.144 22.9261 230.815 23.3011C231.485 23.6705 232.005 24.2216 232.374 24.9545C232.744 25.6875 232.928 26.5937 232.928 27.6733V36H230.38V27.9801C230.38 27.0312 230.133 26.2898 229.638 25.7557C229.144 25.2159 228.465 24.946 227.602 24.946C227.011 24.946 226.485 25.0739 226.025 25.3295C225.57 25.5852 225.21 25.9602 224.942 26.4545C224.681 26.9432 224.55 27.5341 224.55 28.2273Z" fill="black"/>
<rect x="0.5" y="63.5" width="857" height="48.359" rx="7.5" stroke="#BDBDBD"/>
<rect x="11" y="71" width="33.359" height="33.359" rx="16.5649" fill="#FF7A18"/>
<circle cx="27.6795" cy="87.6795" r="10.6795" fill="white"/>
<path d="M53.768 93.6797V82.0433H60.7453V83.2933H55.1771V87.2251H60.2225V88.4751H55.1771V93.6797H53.768ZM62.563 93.6797V84.9524H63.8585V86.2706H63.9494C64.1085 85.8388 64.3964 85.4884 64.813 85.2195C65.2297 84.9505 65.6994 84.8161 66.2221 84.8161C66.3206 84.8161 66.4437 84.8179 66.5914 84.8217C66.7392 84.8255 66.8509 84.8312 66.9267 84.8388V86.2024C66.8812 86.1911 66.7771 86.174 66.6142 86.1513C66.4551 86.1248 66.2865 86.1115 66.1085 86.1115C65.6842 86.1115 65.3055 86.2005 64.9721 86.3786C64.6426 86.5528 64.3812 86.7952 64.188 87.1058C63.9986 87.4126 63.9039 87.763 63.9039 88.157V93.6797H62.563ZM68.1962 93.6797V84.9524H69.5371V93.6797H68.1962ZM68.878 83.4979C68.6166 83.4979 68.3912 83.4089 68.2018 83.2308C68.0162 83.0528 67.9234 82.8388 67.9234 82.5888C67.9234 82.3388 68.0162 82.1248 68.2018 81.9467C68.3912 81.7687 68.6166 81.6797 68.878 81.6797C69.1393 81.6797 69.3628 81.7687 69.5484 81.9467C69.7378 82.1248 69.8325 82.3388 69.8325 82.5888C69.8325 82.8388 69.7378 83.0528 69.5484 83.2308C69.3628 83.4089 69.1393 83.4979 68.878 83.4979ZM75.3321 93.8615C74.4912 93.8615 73.7658 93.6759 73.156 93.3047C72.5499 92.9297 72.0821 92.407 71.7526 91.7365C71.4268 91.0623 71.2639 90.2782 71.2639 89.3842C71.2639 88.4903 71.4268 87.7024 71.7526 87.0206C72.0821 86.335 72.5405 85.8009 73.1276 85.4183C73.7185 85.032 74.4079 84.8388 75.1958 84.8388C75.6503 84.8388 76.0992 84.9145 76.5424 85.0661C76.9855 85.2176 77.3889 85.4638 77.7526 85.8047C78.1162 86.1418 78.406 86.5888 78.6219 87.1456C78.8378 87.7024 78.9458 88.388 78.9458 89.2024V89.7706H72.2185V88.6115H77.5821C77.5821 88.1191 77.4836 87.6797 77.2867 87.2933C77.0935 86.907 76.817 86.602 76.4571 86.3786C76.1011 86.1551 75.6806 86.0433 75.1958 86.0433C74.6617 86.0433 74.1996 86.1759 73.8094 86.4411C73.423 86.7024 73.1257 87.0433 72.9174 87.4638C72.709 87.8842 72.6049 88.335 72.6049 88.8161V89.5888C72.6049 90.2479 72.7185 90.8066 72.9458 91.2649C73.1768 91.7195 73.4969 92.0661 73.906 92.3047C74.3151 92.5395 74.7905 92.657 75.3321 92.657C75.6844 92.657 76.0026 92.6077 76.2867 92.5092C76.5746 92.407 76.8227 92.2554 77.031 92.0547C77.2393 91.8501 77.4003 91.5964 77.5139 91.2933L78.8094 91.657C78.673 92.0964 78.4439 92.4827 78.1219 92.8161C77.7999 93.1456 77.4022 93.4032 76.9287 93.5888C76.4552 93.7706 75.923 93.8615 75.3321 93.8615ZM83.961 93.8615C83.2337 93.8615 82.5917 93.6778 82.0349 93.3104C81.478 92.9392 81.0424 92.4164 80.728 91.7422C80.4136 91.0642 80.2564 90.263 80.2564 89.3388C80.2564 88.4221 80.4136 87.6267 80.728 86.9524C81.0424 86.2782 81.4799 85.7573 82.0405 85.3899C82.6011 85.0225 83.2489 84.8388 83.9837 84.8388C84.5519 84.8388 85.0008 84.9335 85.3303 85.1229C85.6636 85.3085 85.9174 85.5206 86.0917 85.7592C86.2697 85.9941 86.408 86.1873 86.5064 86.3388H86.6201V82.0433H87.961V93.6797H86.6655V92.3388H86.5064C86.408 92.4979 86.2678 92.6986 86.086 92.9411C85.9042 93.1797 85.6447 93.3937 85.3076 93.5831C84.9705 93.7687 84.5216 93.8615 83.961 93.8615ZM84.1428 92.657C84.6807 92.657 85.1352 92.5168 85.5064 92.2365C85.8777 91.9524 86.1599 91.5604 86.353 91.0604C86.5462 90.5566 86.6428 89.9751 86.6428 89.3161C86.6428 88.6645 86.5481 88.0945 86.3587 87.6058C86.1693 87.1134 85.889 86.7308 85.5178 86.4581C85.1466 86.1816 84.6883 86.0433 84.1428 86.0433C83.5746 86.0433 83.1011 86.1892 82.7224 86.4808C82.3474 86.7687 82.0652 87.1607 81.8758 87.657C81.6902 88.1494 81.5974 88.7024 81.5974 89.3161C81.5974 89.9373 81.692 90.5017 81.8814 91.0092C82.0746 91.513 82.3587 91.9145 82.7337 92.2138C83.1125 92.5092 83.5822 92.657 84.1428 92.657ZM104.008 85.6797H102.599C102.516 85.2744 102.37 84.9183 102.162 84.6115C101.957 84.3047 101.707 84.0471 101.412 83.8388C101.12 83.6267 100.796 83.4676 100.44 83.3615C100.084 83.2554 99.713 83.2024 99.3267 83.2024C98.6221 83.2024 97.9839 83.3804 97.4119 83.7365C96.8437 84.0926 96.3911 84.6172 96.0539 85.3104C95.7206 86.0036 95.5539 86.8539 95.5539 87.8615C95.5539 88.8691 95.7206 89.7195 96.0539 90.4126C96.3911 91.1058 96.8437 91.6304 97.4119 91.9865C97.9839 92.3426 98.6221 92.5206 99.3267 92.5206C99.713 92.5206 100.084 92.4676 100.44 92.3615C100.796 92.2554 101.12 92.0982 101.412 91.8899C101.707 91.6778 101.957 91.4183 102.162 91.1115C102.37 90.8009 102.516 90.4448 102.599 90.0433H104.008C103.902 90.638 103.709 91.1702 103.429 91.6399C103.149 92.1096 102.8 92.5092 102.383 92.8388C101.967 93.1645 101.499 93.4126 100.98 93.5831C100.465 93.7536 99.9138 93.8388 99.3267 93.8388C98.3342 93.8388 97.4517 93.5964 96.6789 93.1115C95.9062 92.6267 95.2983 91.9373 94.8551 91.0433C94.4119 90.1494 94.1903 89.0888 94.1903 87.8615C94.1903 86.6342 94.4119 85.5736 94.8551 84.6797C95.2983 83.7857 95.9062 83.0964 96.6789 82.6115C97.4517 82.1267 98.3342 81.8842 99.3267 81.8842C99.9138 81.8842 100.465 81.9695 100.98 82.1399C101.499 82.3104 101.967 82.5604 102.383 82.8899C102.8 83.2157 103.149 83.6134 103.429 84.0831C103.709 84.549 103.902 85.0812 104.008 85.6797ZM107.125 88.4297V93.6797H105.784V82.0433H107.125V86.3161H107.238C107.443 85.8653 107.75 85.5073 108.159 85.2422C108.572 84.9732 109.121 84.8388 109.806 84.8388C110.401 84.8388 110.922 84.9581 111.369 85.1967C111.816 85.4316 112.162 85.7933 112.409 86.282C112.659 86.7668 112.784 87.3842 112.784 88.1342V93.6797H111.443V88.2251C111.443 87.532 111.263 86.996 110.903 86.6172C110.547 86.2346 110.053 86.0433 109.42 86.0433C108.981 86.0433 108.587 86.1361 108.238 86.3217C107.894 86.5073 107.621 86.7782 107.42 87.1342C107.223 87.4903 107.125 87.9221 107.125 88.4297ZM114.917 93.6797V84.9524H116.258V93.6797H114.917ZM115.599 83.4979C115.337 83.4979 115.112 83.4089 114.922 83.2308C114.737 83.0528 114.644 82.8388 114.644 82.5888C114.644 82.3388 114.737 82.1248 114.922 81.9467C115.112 81.7687 115.337 81.6797 115.599 81.6797C115.86 81.6797 116.083 81.7687 116.269 81.9467C116.458 82.1248 116.553 82.3388 116.553 82.5888C116.553 82.8388 116.458 83.0528 116.269 83.2308C116.083 83.4089 115.86 83.4979 115.599 83.4979ZM121.939 93.8615C121.121 93.8615 120.416 93.6683 119.825 93.282C119.235 92.8956 118.78 92.3634 118.462 91.6854C118.144 91.0073 117.985 90.2327 117.985 89.3615C117.985 88.4751 118.147 87.6929 118.473 87.0149C118.803 86.3331 119.261 85.8009 119.848 85.4183C120.439 85.032 121.129 84.8388 121.916 84.8388C122.53 84.8388 123.083 84.9524 123.575 85.1797C124.068 85.407 124.471 85.7251 124.786 86.1342C125.1 86.5433 125.295 87.0206 125.371 87.5661H124.03C123.928 87.1683 123.7 86.8161 123.348 86.5092C123 86.1986 122.53 86.0433 121.939 86.0433C121.416 86.0433 120.958 86.1797 120.564 86.4524C120.174 86.7214 119.869 87.102 119.649 87.5945C119.433 88.0831 119.325 88.657 119.325 89.3161C119.325 89.9903 119.432 90.5774 119.644 91.0774C119.86 91.5774 120.163 91.9657 120.553 92.2422C120.947 92.5187 121.409 92.657 121.939 92.657C122.288 92.657 122.604 92.5964 122.888 92.4751C123.172 92.3539 123.413 92.1797 123.61 91.9524C123.807 91.7251 123.947 91.4524 124.03 91.1342H125.371C125.295 91.6494 125.108 92.1134 124.808 92.5263C124.513 92.9354 124.121 93.2611 123.632 93.5036C123.147 93.7422 122.583 93.8615 121.939 93.8615ZM128.261 90.4979L128.238 88.8388H128.511L132.329 84.9524H133.988L129.92 89.0661H129.807L128.261 90.4979ZM127.011 93.6797V82.0433H128.352V93.6797H127.011ZM132.557 93.6797L129.148 89.3615L130.102 88.4297L134.261 93.6797H132.557ZM138.694 93.8615C137.853 93.8615 137.128 93.6759 136.518 93.3047C135.912 92.9297 135.444 92.407 135.114 91.7365C134.789 91.0623 134.626 90.2782 134.626 89.3842C134.626 88.4903 134.789 87.7024 135.114 87.0206C135.444 86.335 135.902 85.8009 136.489 85.4183C137.08 85.032 137.77 84.8388 138.558 84.8388C139.012 84.8388 139.461 84.9145 139.904 85.0661C140.347 85.2176 140.751 85.4638 141.114 85.8047C141.478 86.1418 141.768 86.5888 141.984 87.1456C142.2 87.7024 142.308 88.388 142.308 89.2024V89.7706H135.58V88.6115H140.944C140.944 88.1191 140.846 87.6797 140.649 87.2933C140.455 86.907 140.179 86.602 139.819 86.3786C139.463 86.1551 139.042 86.0433 138.558 86.0433C138.024 86.0433 137.561 86.1759 137.171 86.4411C136.785 86.7024 136.488 87.0433 136.279 87.4638C136.071 87.8842 135.967 88.335 135.967 88.8161V89.5888C135.967 90.2479 136.08 90.8066 136.308 91.2649C136.539 91.7195 136.859 92.0661 137.268 92.3047C137.677 92.5395 138.152 92.657 138.694 92.657C139.046 92.657 139.364 92.6077 139.649 92.5092C139.936 92.407 140.185 92.2554 140.393 92.0547C140.601 91.8501 140.762 91.5964 140.876 91.2933L142.171 91.657C142.035 92.0964 141.806 92.4827 141.484 92.8161C141.162 93.1456 140.764 93.4032 140.291 93.5888C139.817 93.7706 139.285 93.8615 138.694 93.8615ZM145.368 88.4297V93.6797H144.027V84.9524H145.323V86.3161H145.437C145.641 85.8729 145.952 85.5168 146.368 85.2479C146.785 84.9751 147.323 84.8388 147.982 84.8388C148.573 84.8388 149.09 84.96 149.533 85.2024C149.976 85.4411 150.321 85.8047 150.567 86.2933C150.813 86.7782 150.937 87.3918 150.937 88.1342V93.6797H149.596V88.2251C149.596 87.5395 149.418 87.0054 149.062 86.6229C148.705 86.2365 148.217 86.0433 147.596 86.0433C147.168 86.0433 146.785 86.1361 146.448 86.3217C146.115 86.5073 145.851 86.7782 145.658 87.1342C145.465 87.4903 145.368 87.9221 145.368 88.4297Z" fill="black"/>
<path d="M784.705 87.8615C784.705 86.4297 784.89 85.1134 785.261 83.9126C785.636 82.7081 786.17 81.6001 786.864 80.5888H788.045C787.773 80.9638 787.517 81.4259 787.278 81.9751C787.044 82.5206 786.837 83.121 786.659 83.7763C786.481 84.4278 786.341 85.102 786.239 85.799C786.14 86.496 786.091 87.1835 786.091 87.8615C786.091 88.763 786.178 89.6778 786.352 90.6058C786.527 91.5339 786.761 92.3956 787.057 93.1911C787.352 93.9865 787.682 94.6342 788.045 95.1342H786.864C786.17 94.1229 785.636 93.0168 785.261 91.8161C784.89 90.6115 784.705 89.2933 784.705 87.8615ZM793.477 93.6797H789.886V82.0433H793.636C794.765 82.0433 795.731 82.2763 796.534 82.7422C797.337 83.2043 797.952 83.8691 798.38 84.7365C798.808 85.6001 799.022 86.6342 799.022 87.8388C799.022 89.0509 798.806 90.0945 798.375 90.9695C797.943 91.8407 797.314 92.5111 796.488 92.9808C795.662 93.4467 794.659 93.6797 793.477 93.6797ZM791.295 92.4297H793.386C794.348 92.4297 795.145 92.2441 795.778 91.8729C796.411 91.5017 796.882 90.9732 797.193 90.2876C797.503 89.602 797.659 88.7857 797.659 87.8388C797.659 86.8994 797.505 86.0907 797.198 85.4126C796.892 84.7308 796.433 84.2081 795.823 83.8445C795.214 83.477 794.454 83.2933 793.545 83.2933H791.295V92.4297ZM804.543 93.8615C803.702 93.8615 802.977 93.6759 802.367 93.3047C801.761 92.9297 801.293 92.407 800.964 91.7365C800.638 91.0623 800.475 90.2782 800.475 89.3842C800.475 88.4903 800.638 87.7024 800.964 87.0206C801.293 86.335 801.752 85.8009 802.339 85.4183C802.93 85.032 803.619 84.8388 804.407 84.8388C804.861 84.8388 805.31 84.9145 805.753 85.0661C806.197 85.2176 806.6 85.4638 806.964 85.8047C807.327 86.1418 807.617 86.5888 807.833 87.1456C808.049 87.7024 808.157 88.388 808.157 89.2024V89.7706H801.43V88.6115H806.793C806.793 88.1191 806.695 87.6797 806.498 87.2933C806.305 86.907 806.028 86.602 805.668 86.3786C805.312 86.1551 804.892 86.0433 804.407 86.0433C803.873 86.0433 803.411 86.1759 803.021 86.4411C802.634 86.7024 802.337 87.0433 802.128 87.4638C801.92 87.8842 801.816 88.335 801.816 88.8161V89.5888C801.816 90.2479 801.93 90.8066 802.157 91.2649C802.388 91.7195 802.708 92.0661 803.117 92.3047C803.526 92.5395 804.002 92.657 804.543 92.657C804.896 92.657 805.214 92.6077 805.498 92.5092C805.786 92.407 806.034 92.2554 806.242 92.0547C806.45 91.8501 806.611 91.5964 806.725 91.2933L808.021 91.657C807.884 92.0964 807.655 92.4827 807.333 92.8161C807.011 93.1456 806.613 93.4032 806.14 93.5888C805.666 93.7706 805.134 93.8615 804.543 93.8615ZM813.763 84.9524V86.0888H809.058V84.9524H813.763ZM810.468 93.6797V83.7479C810.468 83.2479 810.585 82.8312 810.82 82.4979C811.055 82.1645 811.36 81.9145 811.735 81.7479C812.11 81.5812 812.505 81.4979 812.922 81.4979C813.252 81.4979 813.521 81.5244 813.729 81.5774C813.937 81.6304 814.093 81.6797 814.195 81.7251L813.808 82.8842C813.74 82.8615 813.646 82.8331 813.524 82.799C813.407 82.7649 813.252 82.7479 813.058 82.7479C812.615 82.7479 812.295 82.8596 812.098 83.0831C811.905 83.3066 811.808 83.6342 811.808 84.0661V93.6797H810.468ZM817.64 93.8842C817.087 93.8842 816.586 93.7801 816.135 93.5717C815.684 93.3596 815.326 93.0547 815.061 92.657C814.796 92.2554 814.663 91.7706 814.663 91.2024C814.663 90.7024 814.762 90.2971 814.959 89.9865C815.156 89.6721 815.419 89.4259 815.748 89.2479C816.078 89.0698 816.442 88.9373 816.839 88.8501C817.241 88.7592 817.644 88.6873 818.05 88.6342C818.58 88.5661 819.01 88.5149 819.339 88.4808C819.673 88.4429 819.915 88.3804 820.067 88.2933C820.222 88.2062 820.3 88.0547 820.3 87.8388V87.7933C820.3 87.2327 820.146 86.7971 819.839 86.4865C819.536 86.1759 819.076 86.0206 818.459 86.0206C817.818 86.0206 817.317 86.1607 816.953 86.4411C816.589 86.7214 816.334 87.0206 816.186 87.3388L814.913 86.8842C815.14 86.3539 815.443 85.9411 815.822 85.6456C816.205 85.3464 816.622 85.138 817.072 85.0206C817.527 84.8994 817.974 84.8388 818.413 84.8388C818.693 84.8388 819.015 84.8729 819.379 84.9411C819.747 85.0054 820.101 85.1399 820.442 85.3445C820.786 85.549 821.072 85.8577 821.3 86.2706C821.527 86.6835 821.64 87.2365 821.64 87.9297V93.6797H820.3V92.4979H820.231C820.14 92.6873 819.989 92.8899 819.777 93.1058C819.565 93.3217 819.282 93.5054 818.93 93.657C818.578 93.8085 818.148 93.8842 817.64 93.8842ZM817.845 92.6797C818.375 92.6797 818.822 92.5755 819.186 92.3672C819.553 92.1589 819.83 91.8899 820.015 91.5604C820.205 91.2308 820.3 90.8842 820.3 90.5206V89.2933C820.243 89.3615 820.118 89.424 819.925 89.4808C819.735 89.5339 819.515 89.5812 819.265 89.6229C819.019 89.6607 818.779 89.6948 818.544 89.7251C818.313 89.7517 818.125 89.7744 817.981 89.7933C817.633 89.8388 817.307 89.9126 817.004 90.0149C816.705 90.1134 816.462 90.263 816.277 90.4638C816.095 90.6607 816.004 90.9297 816.004 91.2706C816.004 91.7365 816.176 92.0888 816.521 92.3274C816.87 92.5623 817.311 92.6797 817.845 92.6797ZM829.268 90.1115V84.9524H830.609V93.6797H829.268V92.2024H829.177C828.972 92.6456 828.654 93.0225 828.222 93.3331C827.791 93.6399 827.245 93.7933 826.586 93.7933C826.041 93.7933 825.556 93.674 825.132 93.4354C824.707 93.1929 824.374 92.8293 824.132 92.3445C823.889 91.8558 823.768 91.2403 823.768 90.4979V84.9524H825.109V90.407C825.109 91.0433 825.287 91.5509 825.643 91.9297C826.003 92.3085 826.461 92.4979 827.018 92.4979C827.351 92.4979 827.69 92.4126 828.035 92.2422C828.383 92.0717 828.675 91.8104 828.91 91.4581C829.149 91.1058 829.268 90.657 829.268 90.1115ZM834.086 82.0433V93.6797H832.745V82.0433H834.086ZM840.017 84.9524V86.0888H835.494V84.9524H840.017ZM836.813 82.8615H838.153V91.1797C838.153 91.5585 838.208 91.8426 838.318 92.032C838.432 92.2176 838.576 92.3426 838.75 92.407C838.928 92.4676 839.116 92.4979 839.313 92.4979C839.46 92.4979 839.581 92.4903 839.676 92.4751C839.771 92.4562 839.847 92.4411 839.903 92.4297L840.176 93.6342C840.085 93.6683 839.958 93.7024 839.796 93.7365C839.633 93.7744 839.426 93.7933 839.176 93.7933C838.797 93.7933 838.426 93.7119 838.063 93.549C837.703 93.3861 837.403 93.138 837.165 92.8047C836.93 92.4714 836.813 92.0509 836.813 91.5433V82.8615ZM844.578 88.7706C844.578 90.2024 844.39 91.5206 844.015 92.7251C843.644 93.9259 843.112 95.032 842.419 96.0433H841.237C841.51 95.6683 841.763 95.2062 841.998 94.657C842.237 94.1115 842.445 93.513 842.623 92.8615C842.801 92.2062 842.94 91.5301 843.038 90.8331C843.14 90.1323 843.191 89.4448 843.191 88.7706C843.191 87.8691 843.104 86.9543 842.93 86.0263C842.756 85.0982 842.521 84.2365 842.226 83.4411C841.93 82.6456 841.601 81.9979 841.237 81.4979H842.419C843.112 82.5092 843.644 83.6172 844.015 84.8217C844.39 86.0225 844.578 87.3388 844.578 88.7706Z" fill="black"/>
<rect x="0.5" y="131.859" width="857" height="48.359" rx="7.5" stroke="#BDBDBD"/>
<rect x="11" y="139.359" width="33.359" height="33.359" rx="16.5649" fill="#FF7A18"/>
<circle cx="27.6795" cy="156.038" r="10.6795" fill="white"/>
<path d="M61.7225 154.039C61.5975 153.656 61.4328 153.313 61.2282 153.01C61.0274 152.703 60.7869 152.442 60.5066 152.226C60.2301 152.01 59.9157 151.845 59.5634 151.732C59.2112 151.618 58.8248 151.561 58.4043 151.561C57.7149 151.561 57.0881 151.739 56.5237 152.095C55.9593 152.451 55.5104 152.976 55.1771 153.669C54.8437 154.362 54.6771 155.213 54.6771 156.22C54.6771 157.228 54.8456 158.078 55.1828 158.772C55.5199 159.465 55.9763 159.989 56.5521 160.345C57.1278 160.701 57.7756 160.879 58.4953 160.879C59.1619 160.879 59.749 160.737 60.2566 160.453C60.768 160.165 61.1657 159.76 61.4498 159.237C61.7377 158.711 61.8816 158.092 61.8816 157.379L62.3134 157.47H58.8134V156.22H63.2453V157.47C63.2453 158.429 63.0407 159.262 62.6316 159.97C62.2263 160.679 61.6657 161.228 60.9498 161.618C60.2377 162.004 59.4195 162.198 58.4953 162.198C57.4649 162.198 56.5596 161.955 55.7793 161.47C55.0028 160.986 54.3968 160.296 53.9612 159.402C53.5293 158.508 53.3134 157.448 53.3134 156.22C53.3134 155.3 53.4365 154.472 53.6828 153.737C53.9328 152.999 54.285 152.37 54.7396 151.851C55.1941 151.332 55.732 150.934 56.3532 150.658C56.9744 150.381 57.6581 150.243 58.4043 150.243C59.018 150.243 59.5899 150.336 60.1203 150.522C60.6543 150.703 61.1297 150.963 61.5464 151.3C61.9668 151.633 62.3172 152.033 62.5975 152.499C62.8778 152.961 63.071 153.474 63.1771 154.039H61.7225ZM65.1568 162.039V153.311H66.4522V154.629H66.5431C66.7022 154.198 66.9901 153.847 67.4068 153.578C67.8235 153.309 68.2931 153.175 68.8159 153.175C68.9144 153.175 69.0375 153.177 69.1852 153.181C69.3329 153.184 69.4447 153.19 69.5204 153.198V154.561C69.475 154.55 69.3708 154.533 69.2079 154.51C69.0488 154.484 68.8803 154.47 68.7022 154.47C68.278 154.47 67.8992 154.559 67.5659 154.737C67.2363 154.912 66.975 155.154 66.7818 155.465C66.5924 155.772 66.4977 156.122 66.4977 156.516V162.039H65.1568ZM70.7899 162.039V153.311H72.1308V162.039H70.7899ZM71.4717 151.857C71.2104 151.857 70.985 151.768 70.7956 151.59C70.61 151.412 70.5172 151.198 70.5172 150.948C70.5172 150.698 70.61 150.484 70.7956 150.306C70.985 150.128 71.2104 150.039 71.4717 150.039C71.7331 150.039 71.9566 150.128 72.1422 150.306C72.3316 150.484 72.4263 150.698 72.4263 150.948C72.4263 151.198 72.3316 151.412 72.1422 151.59C71.9566 151.768 71.7331 151.857 71.4717 151.857ZM75.6077 150.402V162.039H74.2668V150.402H75.6077ZM79.0846 150.402V162.039H77.7437V150.402H79.0846ZM84.8796 162.22C84.0387 162.22 83.3133 162.035 82.7035 161.664C82.0974 161.289 81.6296 160.766 81.3001 160.095C80.9743 159.421 80.8114 158.637 80.8114 157.743C80.8114 156.849 80.9743 156.061 81.3001 155.379C81.6296 154.694 82.088 154.16 82.6751 153.777C83.266 153.391 83.9554 153.198 84.7433 153.198C85.1978 153.198 85.6467 153.273 86.0899 153.425C86.533 153.576 86.9364 153.823 87.3001 154.164C87.6637 154.501 87.9535 154.948 88.1694 155.504C88.3853 156.061 88.4933 156.747 88.4933 157.561V158.129H81.766V156.97H87.1296C87.1296 156.478 87.0311 156.039 86.8342 155.652C86.641 155.266 86.3645 154.961 86.0046 154.737C85.6486 154.514 85.2281 154.402 84.7433 154.402C84.2092 154.402 83.747 154.535 83.3569 154.8C82.9705 155.061 82.6732 155.402 82.4649 155.823C82.2565 156.243 82.1524 156.694 82.1524 157.175V157.948C82.1524 158.607 82.266 159.165 82.4933 159.624C82.7243 160.078 83.0444 160.425 83.4535 160.664C83.8626 160.898 84.338 161.016 84.8796 161.016C85.2319 161.016 85.5501 160.967 85.8342 160.868C86.122 160.766 86.3702 160.614 86.5785 160.414C86.7868 160.209 86.9478 159.955 87.0614 159.652L88.3569 160.016C88.2205 160.455 87.9914 160.842 87.6694 161.175C87.3474 161.504 86.9497 161.762 86.4762 161.948C86.0027 162.129 85.4705 162.22 84.8796 162.22ZM93.5085 162.22C92.7812 162.22 92.1392 162.037 91.5824 161.669C91.0255 161.298 90.5899 160.775 90.2755 160.101C89.9611 159.423 89.8039 158.622 89.8039 157.698C89.8039 156.781 89.9611 155.986 90.2755 155.311C90.5899 154.637 91.0274 154.116 91.588 153.749C92.1486 153.381 92.7964 153.198 93.5312 153.198C94.0994 153.198 94.5483 153.292 94.8778 153.482C95.2111 153.667 95.4649 153.879 95.6392 154.118C95.8172 154.353 95.9555 154.546 96.0539 154.698H96.1676V150.402H97.5085V162.039H96.213V160.698H96.0539C95.9555 160.857 95.8153 161.058 95.6335 161.3C95.4517 161.539 95.1922 161.753 94.8551 161.942C94.518 162.128 94.0691 162.22 93.5085 162.22ZM93.6903 161.016C94.2282 161.016 94.6827 160.876 95.0539 160.595C95.4252 160.311 95.7074 159.919 95.9005 159.419C96.0937 158.915 96.1903 158.334 96.1903 157.675C96.1903 157.023 96.0956 156.453 95.9062 155.965C95.7168 155.472 95.4365 155.09 95.0653 154.817C94.6941 154.54 94.2358 154.402 93.6903 154.402C93.1221 154.402 92.6486 154.548 92.2699 154.84C91.8949 155.128 91.6127 155.52 91.4233 156.016C91.2377 156.508 91.1449 157.061 91.1449 157.675C91.1449 158.296 91.2396 158.861 91.4289 159.368C91.6221 159.872 91.9062 160.273 92.2812 160.573C92.66 160.868 93.1297 161.016 93.6903 161.016ZM104.192 162.039V150.402H111.17V151.652H105.601V155.584H110.647V156.834H105.601V162.039H104.192ZM113.081 162.039V153.311H114.422V162.039H113.081ZM113.763 151.857C113.502 151.857 113.276 151.768 113.087 151.59C112.901 151.412 112.808 151.198 112.808 150.948C112.808 150.698 112.901 150.484 113.087 150.306C113.276 150.128 113.502 150.039 113.763 150.039C114.024 150.039 114.248 150.128 114.433 150.306C114.623 150.484 114.718 150.698 114.718 150.948C114.718 151.198 114.623 151.412 114.433 151.59C114.248 151.768 114.024 151.857 113.763 151.857ZM122.74 155.266L121.535 155.607C121.46 155.406 121.348 155.211 121.2 155.022C121.056 154.828 120.859 154.669 120.609 154.544C120.359 154.419 120.039 154.357 119.649 154.357C119.115 154.357 118.67 154.48 118.314 154.726C117.961 154.968 117.785 155.277 117.785 155.652C117.785 155.986 117.907 156.249 118.149 156.442C118.391 156.635 118.77 156.796 119.285 156.925L120.581 157.243C121.361 157.433 121.943 157.722 122.325 158.112C122.708 158.499 122.899 158.997 122.899 159.607C122.899 160.107 122.755 160.554 122.467 160.948C122.183 161.342 121.785 161.652 121.274 161.879C120.763 162.107 120.168 162.22 119.49 162.22C118.6 162.22 117.863 162.027 117.28 161.641C116.696 161.254 116.327 160.69 116.172 159.948L117.444 159.629C117.566 160.099 117.795 160.451 118.132 160.686C118.473 160.921 118.918 161.039 119.467 161.039C120.092 161.039 120.588 160.906 120.956 160.641C121.327 160.372 121.513 160.05 121.513 159.675C121.513 159.372 121.407 159.118 121.194 158.914C120.982 158.705 120.657 158.55 120.217 158.448L118.763 158.107C117.963 157.917 117.376 157.624 117.001 157.226C116.63 156.825 116.444 156.323 116.444 155.72C116.444 155.228 116.583 154.792 116.859 154.414C117.139 154.035 117.52 153.737 118.001 153.522C118.486 153.306 119.035 153.198 119.649 153.198C120.513 153.198 121.191 153.387 121.683 153.766C122.179 154.145 122.532 154.645 122.74 155.266ZM125.938 156.789V162.039H124.597V150.402H125.938V154.675H126.052C126.257 154.224 126.563 153.866 126.972 153.601C127.385 153.332 127.935 153.198 128.62 153.198C129.215 153.198 129.736 153.317 130.183 153.556C130.63 153.79 130.976 154.152 131.222 154.641C131.472 155.126 131.597 155.743 131.597 156.493V162.039H130.257V156.584C130.257 155.891 130.077 155.355 129.717 154.976C129.361 154.593 128.866 154.402 128.234 154.402C127.794 154.402 127.4 154.495 127.052 154.681C126.707 154.866 126.435 155.137 126.234 155.493C126.037 155.849 125.938 156.281 125.938 156.789Z" fill="black"/>
<path d="M799.636 159.993V152.493H800.909V159.993H799.636ZM796.523 156.879V155.607H804.023V156.879H796.523ZM817.181 154.652V155.789H805.591V154.652H817.181ZM817.181 157.107V158.243H805.591V157.107H817.181ZM816 150.402V162.039H814.636L808.295 152.902H808.181V162.039H806.772V150.402H808.136L814.5 159.561H814.613V150.402H816ZM822.06 162.198C821.394 162.198 820.793 162.065 820.259 161.8C819.725 161.535 819.297 161.171 818.975 160.709C818.653 160.247 818.477 159.72 818.447 159.129H819.81C819.863 159.656 820.102 160.092 820.526 160.436C820.954 160.777 821.466 160.948 822.06 160.948C822.538 160.948 822.962 160.836 823.333 160.612C823.708 160.389 824.002 160.082 824.214 159.692C824.43 159.298 824.538 158.853 824.538 158.357C824.538 157.849 824.426 157.397 824.202 156.999C823.983 156.597 823.68 156.281 823.293 156.05C822.907 155.819 822.466 155.701 821.969 155.698C821.613 155.694 821.248 155.749 820.873 155.862C820.498 155.972 820.189 156.114 819.947 156.289L818.628 156.129L819.333 150.402H825.378V151.652H820.515L820.106 155.084H820.174C820.413 154.895 820.712 154.737 821.072 154.612C821.431 154.487 821.806 154.425 822.197 154.425C822.909 154.425 823.543 154.595 824.1 154.936C824.661 155.273 825.1 155.736 825.418 156.323C825.74 156.91 825.901 157.58 825.901 158.334C825.901 159.076 825.735 159.739 825.401 160.323C825.072 160.902 824.617 161.361 824.038 161.698C823.458 162.031 822.799 162.198 822.06 162.198ZM831.634 162.198C830.778 162.198 830.049 161.965 829.446 161.499C828.844 161.029 828.384 160.349 828.066 159.459C827.747 158.565 827.588 157.486 827.588 156.22C827.588 154.963 827.747 153.889 828.066 152.999C828.388 152.105 828.85 151.423 829.452 150.953C830.058 150.48 830.785 150.243 831.634 150.243C832.482 150.243 833.208 150.48 833.81 150.953C834.416 151.423 834.878 152.105 835.196 152.999C835.518 153.889 835.679 154.963 835.679 156.22C835.679 157.486 835.52 158.565 835.202 159.459C834.884 160.349 834.424 161.029 833.821 161.499C833.219 161.965 832.49 162.198 831.634 162.198ZM831.634 160.948C832.482 160.948 833.141 160.539 833.611 159.72C834.081 158.902 834.316 157.736 834.316 156.22C834.316 155.213 834.208 154.355 833.992 153.647C833.78 152.938 833.473 152.398 833.071 152.027C832.674 151.656 832.194 151.47 831.634 151.47C830.793 151.47 830.136 151.885 829.662 152.715C829.189 153.54 828.952 154.709 828.952 156.22C828.952 157.228 829.058 158.084 829.27 158.789C829.482 159.493 829.787 160.029 830.185 160.397C830.586 160.764 831.069 160.948 831.634 160.948ZM841.314 162.198C840.458 162.198 839.729 161.965 839.126 161.499C838.524 161.029 838.064 160.349 837.746 159.459C837.427 158.565 837.268 157.486 837.268 156.22C837.268 154.963 837.427 153.889 837.746 152.999C838.068 152.105 838.53 151.423 839.132 150.953C839.738 150.48 840.465 150.243 841.314 150.243C842.162 150.243 842.888 150.48 843.49 150.953C844.096 151.423 844.558 152.105 844.876 152.999C845.198 153.889 845.359 154.963 845.359 156.22C845.359 157.486 845.2 158.565 844.882 159.459C844.564 160.349 844.104 161.029 843.501 161.499C842.899 161.965 842.17 162.198 841.314 162.198ZM841.314 160.948C842.162 160.948 842.821 160.539 843.291 159.72C843.761 158.902 843.996 157.736 843.996 156.22C843.996 155.213 843.888 154.355 843.672 153.647C843.46 152.938 843.153 152.398 842.751 152.027C842.354 151.656 841.874 151.47 841.314 151.47C840.473 151.47 839.816 151.885 839.342 152.715C838.869 153.54 838.632 154.709 838.632 156.22C838.632 157.228 838.738 158.084 838.95 158.789C839.162 159.493 839.467 160.029 839.865 160.397C840.266 160.764 840.749 160.948 841.314 160.948Z" fill="black"/>
<rect x="0.5" y="200.218" width="857" height="48.359" rx="7.5" stroke="#BDBDBD"/>
<rect x="11" y="207.718" width="33.359" height="33.359" rx="16.5649" fill="#FF7A18"/>
<circle cx="27.6795" cy="224.398" r="10.6795" fill="white"/>
<path d="M53.768 230.398V218.762H57.8362C58.6468 218.762 59.3153 218.902 59.8418 219.182C60.3684 219.459 60.7604 219.832 61.018 220.301C61.2756 220.767 61.4043 221.284 61.4043 221.852C61.4043 222.352 61.3153 222.765 61.1373 223.091C60.9631 223.417 60.732 223.674 60.4441 223.864C60.16 224.053 59.8513 224.193 59.518 224.284V224.398C59.874 224.421 60.232 224.546 60.5918 224.773C60.9517 225 61.2528 225.326 61.4953 225.75C61.7377 226.174 61.8589 226.693 61.8589 227.307C61.8589 227.89 61.7263 228.415 61.4612 228.881C61.196 229.347 60.7774 229.716 60.2055 229.989C59.6335 230.262 58.8892 230.398 57.9725 230.398H53.768ZM55.1771 229.148H57.9725C58.893 229.148 59.5464 228.97 59.9328 228.614C60.3229 228.254 60.518 227.818 60.518 227.307C60.518 226.913 60.4176 226.549 60.2168 226.216C60.0161 225.879 59.7301 225.61 59.3589 225.409C58.9877 225.205 58.5483 225.102 58.0407 225.102H55.1771V229.148ZM55.1771 223.875H57.7907C58.2149 223.875 58.5975 223.792 58.9384 223.625C59.2831 223.459 59.5559 223.224 59.7566 222.921C59.9612 222.618 60.0634 222.262 60.0634 221.852C60.0634 221.341 59.8854 220.907 59.5293 220.551C59.1733 220.192 58.6089 220.012 57.8362 220.012H55.1771V223.875ZM67.3315 230.58C66.4906 230.58 65.7652 230.394 65.1554 230.023C64.5493 229.648 64.0815 229.125 63.752 228.455C63.4262 227.781 63.2633 226.996 63.2633 226.102C63.2633 225.209 63.4262 224.421 63.752 223.739C64.0815 223.053 64.5398 222.519 65.127 222.137C65.7179 221.75 66.4073 221.557 67.1951 221.557C67.6497 221.557 68.0985 221.633 68.5417 221.784C68.9849 221.936 69.3883 222.182 69.752 222.523C70.1156 222.86 70.4054 223.307 70.6213 223.864C70.8372 224.421 70.9451 225.106 70.9451 225.921V226.489H64.2179V225.33H69.5815C69.5815 224.837 69.483 224.398 69.286 224.012C69.0929 223.625 68.8163 223.32 68.4565 223.097C68.1004 222.873 67.68 222.762 67.1951 222.762C66.661 222.762 66.1989 222.894 65.8088 223.159C65.4224 223.421 65.1251 223.762 64.9167 224.182C64.7084 224.602 64.6042 225.053 64.6042 225.534V226.307C64.6042 226.966 64.7179 227.525 64.9451 227.983C65.1762 228.438 65.4963 228.784 65.9054 229.023C66.3145 229.258 66.7898 229.375 67.3315 229.375C67.6838 229.375 68.002 229.326 68.286 229.227C68.5739 229.125 68.822 228.974 69.0304 228.773C69.2387 228.568 69.3997 228.315 69.5133 228.012L70.8088 228.375C70.6724 228.815 70.4432 229.201 70.1213 229.534C69.7993 229.864 69.4016 230.121 68.9281 230.307C68.4546 230.489 67.9224 230.58 67.3315 230.58ZM76.324 230.58C75.4831 230.58 74.7577 230.394 74.1479 230.023C73.5418 229.648 73.074 229.125 72.7445 228.455C72.4187 227.781 72.2558 226.996 72.2558 226.102C72.2558 225.209 72.4187 224.421 72.7445 223.739C73.074 223.053 73.5323 222.519 74.1195 222.137C74.7104 221.75 75.3998 221.557 76.1876 221.557C76.6422 221.557 77.091 221.633 77.5342 221.784C77.9774 221.936 78.3808 222.182 78.7445 222.523C79.1081 222.86 79.3979 223.307 79.6138 223.864C79.8297 224.421 79.9376 225.106 79.9376 225.921V226.489H73.2104V225.33H78.574C78.574 224.837 78.4755 224.398 78.2785 224.012C78.0854 223.625 77.8088 223.32 77.449 223.097C77.0929 222.873 76.6725 222.762 76.1876 222.762C75.6535 222.762 75.1914 222.894 74.8013 223.159C74.4149 223.421 74.1176 223.762 73.9092 224.182C73.7009 224.602 73.5967 225.053 73.5967 225.534V226.307C73.5967 226.966 73.7104 227.525 73.9376 227.983C74.1687 228.438 74.4888 228.784 74.8979 229.023C75.307 229.258 75.7823 229.375 76.324 229.375C76.6763 229.375 76.9945 229.326 77.2785 229.227C77.5664 229.125 77.8145 228.974 78.0229 228.773C78.2312 228.568 78.3922 228.315 78.5058 228.012L79.8013 228.375C79.6649 228.815 79.4357 229.201 79.1138 229.534C78.7918 229.864 78.3941 230.121 77.9206 230.307C77.4471 230.489 76.9149 230.58 76.324 230.58ZM85.5438 221.671V222.807H80.8392V221.671H85.5438ZM82.2483 230.398V220.466C82.2483 219.966 82.3657 219.549 82.6006 219.216C82.8354 218.883 83.1404 218.633 83.5154 218.466C83.8904 218.299 84.2862 218.216 84.7029 218.216C85.0324 218.216 85.3013 218.243 85.5097 218.296C85.718 218.349 85.8733 218.398 85.9756 218.443L85.5892 219.602C85.521 219.58 85.4263 219.551 85.3051 219.517C85.1877 219.483 85.0324 219.466 84.8392 219.466C84.396 219.466 84.076 219.578 83.879 219.801C83.6858 220.025 83.5892 220.352 83.5892 220.784V230.398H82.2483Z" fill="black"/>
<path d="M800.636 228.352V220.852H801.909V228.352H800.636ZM797.523 225.239V223.966H805.023V225.239H797.523ZM818.181 223.012V224.148H806.591V223.012H818.181ZM818.181 225.466V226.602H806.591V225.466H818.181ZM817 218.762V230.398H815.636L809.295 221.262H809.181V230.398H807.772V218.762H809.136L815.5 227.921H815.613V218.762H817ZM819.788 230.398L824.992 220.102V220.012H818.992V218.762H826.447V220.08L821.265 230.398H819.788ZM831.79 230.557C830.934 230.557 830.205 230.324 829.603 229.858C829 229.388 828.54 228.709 828.222 227.818C827.904 226.924 827.745 225.845 827.745 224.58C827.745 223.322 827.904 222.248 828.222 221.358C828.544 220.464 829.006 219.782 829.608 219.313C830.214 218.839 830.942 218.602 831.79 218.602C832.638 218.602 833.364 218.839 833.966 219.313C834.572 219.782 835.034 220.464 835.353 221.358C835.674 222.248 835.835 223.322 835.835 224.58C835.835 225.845 835.676 226.924 835.358 227.818C835.04 228.709 834.58 229.388 833.978 229.858C833.375 230.324 832.646 230.557 831.79 230.557ZM831.79 229.307C832.638 229.307 833.298 228.898 833.767 228.08C834.237 227.262 834.472 226.095 834.472 224.58C834.472 223.572 834.364 222.714 834.148 222.006C833.936 221.298 833.629 220.758 833.228 220.387C832.83 220.015 832.351 219.83 831.79 219.83C830.949 219.83 830.292 220.245 829.818 221.074C829.345 221.9 829.108 223.068 829.108 224.58C829.108 225.587 829.214 226.443 829.426 227.148C829.638 227.852 829.943 228.388 830.341 228.756C830.743 229.123 831.226 229.307 831.79 229.307ZM841.47 230.557C840.614 230.557 839.885 230.324 839.283 229.858C838.68 229.388 838.22 228.709 837.902 227.818C837.584 226.924 837.425 225.845 837.425 224.58C837.425 223.322 837.584 222.248 837.902 221.358C838.224 220.464 838.686 219.782 839.288 219.313C839.894 218.839 840.622 218.602 841.47 218.602C842.318 218.602 843.044 218.839 843.646 219.313C844.252 219.782 844.714 220.464 845.033 221.358C845.354 222.248 845.515 223.322 845.515 224.58C845.515 225.845 845.356 226.924 845.038 227.818C844.72 228.709 844.26 229.388 843.658 229.858C843.055 230.324 842.326 230.557 841.47 230.557ZM841.47 229.307C842.318 229.307 842.978 228.898 843.447 228.08C843.917 227.262 844.152 226.095 844.152 224.58C844.152 223.572 844.044 222.714 843.828 222.006C843.616 221.298 843.309 220.758 842.908 220.387C842.51 220.015 842.031 219.83 841.47 219.83C840.629 219.83 839.972 220.245 839.498 221.074C839.025 221.9 838.788 223.068 838.788 224.58C838.788 225.587 838.894 226.443 839.106 227.148C839.318 227.852 839.623 228.388 840.021 228.756C840.423 229.123 840.906 229.307 841.47 229.307Z" fill="black"/>
</svg>
