<svg width="342" height="25" viewBox="0 0 342 25" fill="none" xmlns="http://www.w3.org/2000/svg">
<path d="M-8.88109e-05 19.5605V2.106H11.3522V4.75657H3.16184V9.49521H10.7641V12.1458H3.16184V16.91H11.4204V19.5605H-8.88109e-05ZM14.578 19.5605V2.106H17.6633V8.63441H17.7911C17.9502 8.31623 18.1746 7.97816 18.4644 7.62021C18.7542 7.25657 19.1462 6.94691 19.6405 6.69123C20.1349 6.42986 20.7655 6.29918 21.5326 6.29918C22.5439 6.29918 23.4559 6.55771 24.2684 7.07475C25.0866 7.58611 25.7343 8.34464 26.2116 9.35032C26.6945 10.3503 26.936 11.5776 26.936 13.0321C26.936 14.4696 26.7002 15.6912 26.2286 16.6969C25.757 17.7026 25.115 18.4696 24.3025 18.998C23.49 19.5265 22.5695 19.7907 21.5411 19.7907C20.7911 19.7907 20.1689 19.6657 19.6746 19.4157C19.1803 19.1657 18.7826 18.8645 18.4814 18.5123C18.186 18.1543 17.9559 17.8162 17.7911 17.498H17.6121V19.5605H14.578ZM17.6036 13.0151C17.6036 13.8617 17.7229 14.6032 17.9616 15.2395C18.2059 15.8759 18.5553 16.373 19.0099 16.731C19.4701 17.0833 20.0269 17.2594 20.6803 17.2594C21.3621 17.2594 21.9332 17.0776 22.3934 16.714C22.8536 16.3446 23.2002 15.8418 23.4332 15.2054C23.6718 14.5634 23.7911 13.8333 23.7911 13.0151C23.7911 12.2026 23.6746 11.481 23.4417 10.8503C23.2087 10.2196 22.8621 9.72532 22.4019 9.36736C21.9417 9.00941 21.3678 8.83043 20.6803 8.83043C20.0212 8.83043 19.4616 9.00373 19.0013 9.35032C18.5411 9.69691 18.1917 10.1827 17.953 10.8077C17.7201 11.4327 17.6036 12.1685 17.6036 13.0151ZM33.3259 19.8248C32.4964 19.8248 31.7492 19.677 31.0844 19.3816C30.4253 19.0804 29.9026 18.6373 29.5162 18.052C29.1356 17.4668 28.9452 16.7452 28.9452 15.8873C28.9452 15.1486 29.0816 14.5378 29.3543 14.0549C29.627 13.5719 29.9992 13.1855 30.4708 12.8958C30.9424 12.606 31.4736 12.3873 32.0645 12.2395C32.6611 12.0861 33.2776 11.9753 33.914 11.9071C34.681 11.8276 35.3032 11.7566 35.7805 11.6941C36.2577 11.6259 36.6043 11.5236 36.8202 11.3873C37.0418 11.2452 37.1526 11.0265 37.1526 10.731V10.6799C37.1526 10.0378 36.9623 9.54066 36.5816 9.18839C36.2009 8.83611 35.6526 8.65998 34.9367 8.65998C34.181 8.65998 33.5816 8.82475 33.1384 9.1543C32.7009 9.48384 32.4055 9.87305 32.252 10.3219L29.3714 9.91282C29.5986 9.11736 29.9736 8.45259 30.4964 7.9185C31.0191 7.37873 31.6583 6.97532 32.414 6.70827C33.1697 6.43555 34.0049 6.29918 34.9197 6.29918C35.5503 6.29918 36.1782 6.37305 36.8032 6.52077C37.4282 6.6685 37.9992 6.91282 38.5162 7.25373C39.0333 7.58896 39.4481 8.04634 39.7606 8.62589C40.0787 9.20543 40.2378 9.92986 40.2378 10.7992V19.5605H37.2719V17.7623H37.1697C36.9822 18.1259 36.718 18.4668 36.377 18.785C36.0418 19.0975 35.6185 19.3503 35.1072 19.5435C34.6015 19.731 34.0077 19.8248 33.3259 19.8248ZM34.127 17.5577C34.7464 17.5577 35.2833 17.4355 35.7378 17.1912C36.1924 16.9412 36.5418 16.6117 36.7861 16.2026C37.0361 15.7935 37.1611 15.3475 37.1611 14.8645V13.3219C37.0645 13.4015 36.8998 13.4753 36.6668 13.5435C36.4395 13.6117 36.1839 13.6713 35.8998 13.7225C35.6157 13.7736 35.3344 13.8191 35.056 13.8588C34.7776 13.8986 34.5361 13.9327 34.3316 13.9611C33.8714 14.0236 33.4594 14.1259 33.0958 14.2679C32.7322 14.41 32.4452 14.6088 32.235 14.8645C32.0248 15.1145 31.9197 15.4384 31.9197 15.8361C31.9197 16.4043 32.127 16.8333 32.5418 17.123C32.9566 17.4128 33.485 17.5577 34.127 17.5577ZM54.5091 19.8162C53.316 19.8162 52.2904 19.6003 51.4324 19.1685C50.5745 18.7367 49.9126 18.1543 49.4466 17.4213C48.9864 16.6827 48.7563 15.8503 48.7563 14.9242C48.7563 14.2253 48.8983 13.606 49.1824 13.0662C49.4722 12.5265 49.8699 12.0265 50.3756 11.5662C50.887 11.106 51.4779 10.6486 52.1483 10.1941L55.2421 8.08896C55.6966 7.7935 56.0404 7.481 56.2733 7.15145C56.512 6.82191 56.6313 6.43555 56.6313 5.99236C56.6313 5.61736 56.4722 5.26225 56.154 4.92702C55.8415 4.5918 55.4097 4.42418 54.8586 4.42418C54.4893 4.42418 54.1626 4.51225 53.8785 4.68839C53.6001 4.85884 53.3813 5.08327 53.2222 5.36168C53.0688 5.64009 52.9921 5.93555 52.9921 6.24805C52.9921 6.62873 53.0972 7.01509 53.3074 7.40714C53.5233 7.79918 53.8018 8.20543 54.1427 8.62589C54.4893 9.04634 54.8586 9.49236 55.2506 9.96396L63.441 19.5605H60.1001L53.2989 11.7708C52.7932 11.1799 52.3046 10.5975 51.833 10.0236C51.3671 9.44975 50.9836 8.85316 50.6824 8.23384C50.387 7.60884 50.2393 6.93271 50.2393 6.20543C50.2393 5.38157 50.4296 4.64577 50.8103 3.99805C51.191 3.34464 51.7222 2.83043 52.404 2.45543C53.0915 2.08043 53.8955 1.89293 54.816 1.89293C55.7364 1.89293 56.5262 2.07475 57.1853 2.43839C57.8444 2.80202 58.3529 3.28498 58.7108 3.88725C59.0688 4.48952 59.2478 5.14577 59.2478 5.856C59.2478 6.67986 59.0432 7.4185 58.6341 8.07191C58.2251 8.71964 57.6569 9.30771 56.9296 9.83612L53.4012 12.4185C52.8216 12.839 52.4069 13.2651 52.1569 13.6969C51.9069 14.123 51.7819 14.4867 51.7819 14.7878C51.7819 15.248 51.8983 15.6657 52.1313 16.0407C52.3643 16.4157 52.691 16.7168 53.1114 16.9441C53.5376 17.1657 54.0347 17.2765 54.6029 17.2765C55.2279 17.2765 55.8444 17.1373 56.4523 16.8588C57.0603 16.5748 57.6143 16.1713 58.1143 15.6486C58.6143 15.1259 59.012 14.5009 59.3074 13.7736C59.6029 13.0407 59.7506 12.2282 59.7506 11.3361H62.4012C62.4012 12.4384 62.279 13.3986 62.0347 14.2168C61.7904 15.0293 61.4751 15.7168 61.0887 16.2793C60.7023 16.8361 60.2932 17.2821 59.8614 17.6174C59.7251 17.714 59.5944 17.8105 59.4694 17.9071C59.3444 18.0037 59.2137 18.1003 59.0773 18.1969C58.4637 18.7537 57.7449 19.1628 56.9211 19.4242C56.1029 19.6855 55.2989 19.8162 54.5091 19.8162ZM71.2968 19.5605V2.106H82.6491V4.75657H74.4587V9.49521H82.061V12.1458H74.4587V16.91H82.7172V19.5605H71.2968ZM91.4317 24.7424C90.3238 24.7424 89.3721 24.5918 88.5766 24.2907C87.7812 23.9952 87.142 23.5975 86.659 23.0975C86.176 22.5975 85.8408 22.0435 85.6533 21.4355L88.4317 20.7623C88.5567 21.0179 88.7385 21.2708 88.9772 21.5208C89.2158 21.7765 89.5368 21.9867 89.9403 22.1515C90.3493 22.3219 90.8635 22.4071 91.4829 22.4071C92.3579 22.4071 93.0823 22.1941 93.6562 21.7679C94.23 21.3475 94.517 20.6543 94.517 19.6884V17.2083H94.3635C94.2045 17.5265 93.9715 17.8532 93.6647 18.1884C93.3635 18.5236 92.963 18.8049 92.463 19.0321C91.9687 19.2594 91.3465 19.373 90.5965 19.373C89.5908 19.373 88.6789 19.1373 87.8607 18.6657C87.0482 18.1884 86.4005 17.4782 85.9175 16.535C85.4403 15.5861 85.2016 14.3986 85.2016 12.9725C85.2016 11.535 85.4403 10.3219 85.9175 9.33327C86.4005 8.33896 87.051 7.58611 87.8692 7.07475C88.6874 6.55771 89.5993 6.29918 90.605 6.29918C91.3721 6.29918 92.0028 6.42986 92.4971 6.69123C92.9971 6.94691 93.3948 7.25657 93.6903 7.62021C93.9857 7.97816 94.2101 8.31623 94.3635 8.63441H94.534V6.46964H97.5766V19.7736C97.5766 20.8929 97.3096 21.8191 96.7755 22.552C96.2414 23.285 95.5113 23.8333 94.5851 24.1969C93.659 24.5605 92.6079 24.7424 91.4317 24.7424ZM91.4573 16.9526C92.1107 16.9526 92.6675 16.7935 93.1278 16.4753C93.588 16.1571 93.9374 15.6998 94.176 15.1032C94.4147 14.5066 94.534 13.7907 94.534 12.9554C94.534 12.1316 94.4147 11.41 94.176 10.7907C93.9431 10.1713 93.5965 9.69123 93.1363 9.35032C92.6817 9.00373 92.1221 8.83043 91.4573 8.83043C90.7698 8.83043 90.1959 9.00941 89.7357 9.36736C89.2755 9.72532 88.9289 10.2168 88.6959 10.8418C88.463 11.4611 88.3465 12.1657 88.3465 12.9554C88.3465 13.7566 88.463 14.4583 88.6959 15.0605C88.9346 15.6571 89.284 16.123 89.7442 16.4583C90.2101 16.7878 90.7812 16.9526 91.4573 16.9526ZM109.082 14.0549V6.46964H112.168V19.5605H109.176V17.2338H109.04C108.744 17.9668 108.258 18.5662 107.582 19.0321C106.912 19.498 106.085 19.731 105.102 19.731C104.244 19.731 103.486 19.5407 102.827 19.16C102.173 18.7736 101.662 18.214 101.293 17.481C100.923 16.7424 100.739 15.8503 100.739 14.8049V6.46964H103.824V14.3276C103.824 15.1571 104.051 15.8162 104.506 16.3049C104.96 16.7935 105.557 17.0378 106.295 17.0378C106.75 17.0378 107.19 16.927 107.616 16.7054C108.043 16.4838 108.392 16.1543 108.665 15.7168C108.943 15.2736 109.082 14.7196 109.082 14.0549ZM125.687 9.92987L122.874 10.2367C122.795 9.95259 122.655 9.68555 122.457 9.43555C122.263 9.18555 122.002 8.98384 121.672 8.83043C121.343 8.67702 120.94 8.60032 120.462 8.60032C119.82 8.60032 119.28 8.73952 118.843 9.01793C118.411 9.29634 118.198 9.65714 118.204 10.1003C118.198 10.481 118.337 10.7907 118.621 11.0293C118.911 11.2679 119.388 11.464 120.053 11.6174L122.286 12.0946C123.525 12.3617 124.445 12.785 125.047 13.3645C125.655 13.9441 125.962 14.7026 125.968 15.6401C125.962 16.464 125.721 17.1912 125.244 17.8219C124.772 18.4469 124.116 18.9355 123.275 19.2878C122.434 19.6401 121.468 19.8162 120.377 19.8162C118.775 19.8162 117.485 19.481 116.508 18.8105C115.53 18.1344 114.948 17.1941 114.761 15.9895L117.769 15.6998C117.905 16.2907 118.195 16.7367 118.638 17.0378C119.082 17.339 119.658 17.4895 120.369 17.4895C121.101 17.4895 121.69 17.339 122.133 17.0378C122.582 16.7367 122.806 16.3645 122.806 15.9213C122.806 15.5463 122.661 15.2367 122.371 14.9924C122.087 14.748 121.644 14.5605 121.042 14.4299L118.809 13.9611C117.553 13.6998 116.624 13.2594 116.022 12.6401C115.42 12.0151 115.121 11.2253 115.127 10.2708C115.121 9.46396 115.34 8.76509 115.783 8.17418C116.232 7.57759 116.854 7.11736 117.65 6.7935C118.451 6.46396 119.374 6.29918 120.42 6.29918C121.954 6.29918 123.161 6.62589 124.042 7.2793C124.928 7.93271 125.476 8.81623 125.687 9.92987ZM128.512 19.5605V6.46964H131.597V19.5605H128.512ZM130.063 4.61168C129.574 4.61168 129.154 4.44975 128.802 4.12589C128.449 3.79634 128.273 3.40145 128.273 2.94123C128.273 2.47532 128.449 2.08043 128.802 1.75657C129.154 1.42702 129.574 1.26225 130.063 1.26225C130.557 1.26225 130.978 1.42702 131.324 1.75657C131.677 2.08043 131.853 2.47532 131.853 2.94123C131.853 3.40145 131.677 3.79634 131.324 4.12589C130.978 4.44975 130.557 4.61168 130.063 4.61168ZM150.345 6.9043C150.266 6.15998 149.93 5.58043 149.339 5.16566C148.754 4.75089 147.993 4.5435 147.055 4.5435C146.396 4.5435 145.831 4.64293 145.359 4.8418C144.888 5.04066 144.527 5.31055 144.277 5.65145C144.027 5.99236 143.899 6.38157 143.893 6.81907C143.893 7.18271 143.976 7.49805 144.141 7.76509C144.311 8.03214 144.541 8.25941 144.831 8.44691C145.121 8.62873 145.442 8.78214 145.794 8.90714C146.146 9.03214 146.501 9.13725 146.859 9.22248L148.496 9.63157C149.155 9.78498 149.788 9.99236 150.396 10.2537C151.01 10.5151 151.558 10.8446 152.041 11.2424C152.53 11.6401 152.916 12.1202 153.2 12.6827C153.484 13.2452 153.626 13.9043 153.626 14.66C153.626 15.6827 153.365 16.5833 152.842 17.3617C152.32 18.1344 151.564 18.7395 150.575 19.177C149.592 19.6088 148.402 19.8248 147.004 19.8248C145.646 19.8248 144.467 19.6145 143.467 19.1941C142.473 18.7736 141.695 18.16 141.132 17.3532C140.575 16.5463 140.274 15.5634 140.229 14.4043H143.339C143.385 15.0123 143.572 15.5179 143.902 15.9213C144.231 16.3248 144.66 16.6259 145.189 16.8248C145.723 17.0236 146.32 17.123 146.979 17.123C147.666 17.123 148.268 17.0208 148.785 16.8162C149.308 16.606 149.717 16.3162 150.013 15.9469C150.308 15.5719 150.459 15.1344 150.464 14.6344C150.459 14.1799 150.325 13.8049 150.064 13.5094C149.802 13.2083 149.436 12.9583 148.964 12.7594C148.498 12.5549 147.953 12.373 147.328 12.214L145.342 11.7026C143.905 11.3333 142.768 10.7736 141.933 10.0236C141.104 9.26793 140.689 8.26509 140.689 7.01509C140.689 5.98668 140.967 5.08611 141.524 4.31339C142.087 3.54066 142.851 2.94123 143.817 2.51509C144.783 2.08327 145.876 1.86736 147.098 1.86736C148.337 1.86736 149.422 2.08327 150.354 2.51509C151.291 2.94123 152.027 3.53498 152.561 4.29634C153.095 5.05202 153.371 5.92134 153.388 6.9043H150.345ZM162.019 19.8162C160.741 19.8162 159.633 19.535 158.695 18.9725C157.758 18.41 157.03 17.623 156.513 16.6117C156.002 15.6003 155.746 14.4185 155.746 13.0662C155.746 11.714 156.002 10.5293 156.513 9.51225C157.03 8.49521 157.758 7.70543 158.695 7.14293C159.633 6.58043 160.741 6.29918 162.019 6.29918C163.297 6.29918 164.405 6.58043 165.343 7.14293C166.28 7.70543 167.005 8.49521 167.516 9.51225C168.033 10.5293 168.292 11.714 168.292 13.0662C168.292 14.4185 168.033 15.6003 167.516 16.6117C167.005 17.623 166.28 18.41 165.343 18.9725C164.405 19.535 163.297 19.8162 162.019 19.8162ZM162.036 17.3446C162.729 17.3446 163.309 17.1543 163.775 16.7736C164.241 16.3873 164.587 15.8702 164.815 15.2225C165.047 14.5748 165.164 13.8532 165.164 13.0577C165.164 12.2566 165.047 11.5321 164.815 10.8844C164.587 10.231 164.241 9.71111 163.775 9.32475C163.309 8.93839 162.729 8.74521 162.036 8.74521C161.326 8.74521 160.735 8.93839 160.263 9.32475C159.797 9.71111 159.448 10.231 159.215 10.8844C158.988 11.5321 158.874 12.2566 158.874 13.0577C158.874 13.8532 158.988 14.5748 159.215 15.2225C159.448 15.8702 159.797 16.3873 160.263 16.7736C160.735 17.1543 161.326 17.3446 162.036 17.3446ZM179.254 14.0549V6.46964H182.339V19.5605H179.348V17.2338H179.212C178.916 17.9668 178.43 18.5662 177.754 19.0321C177.084 19.498 176.257 19.731 175.274 19.731C174.416 19.731 173.658 19.5407 172.998 19.16C172.345 18.7736 171.834 18.214 171.464 17.481C171.095 16.7424 170.91 15.8503 170.91 14.8049V6.46964H173.996V14.3276C173.996 15.1571 174.223 15.8162 174.677 16.3049C175.132 16.7935 175.729 17.0378 176.467 17.0378C176.922 17.0378 177.362 16.927 177.788 16.7054C178.214 16.4838 178.564 16.1543 178.837 15.7168C179.115 15.2736 179.254 14.7196 179.254 14.0549ZM185.512 24.4696V6.46964H188.546V8.63441H188.725C188.884 8.31623 189.109 7.97816 189.398 7.62021C189.688 7.25657 190.08 6.94691 190.574 6.69123C191.069 6.42986 191.699 6.29918 192.467 6.29918C193.478 6.29918 194.39 6.55771 195.202 7.07475C196.021 7.58611 196.668 8.34464 197.146 9.35032C197.628 10.3503 197.87 11.5776 197.87 13.0321C197.87 14.4696 197.634 15.6912 197.163 16.6969C196.691 17.7026 196.049 18.4696 195.236 18.998C194.424 19.5265 193.503 19.7907 192.475 19.7907C191.725 19.7907 191.103 19.6657 190.609 19.4157C190.114 19.1657 189.717 18.8645 189.415 18.5123C189.12 18.1543 188.89 17.8162 188.725 17.498H188.597V24.4696H185.512ZM188.538 13.0151C188.538 13.8617 188.657 14.6032 188.896 15.2395C189.14 15.8759 189.489 16.373 189.944 16.731C190.404 17.0833 190.961 17.2594 191.614 17.2594C192.296 17.2594 192.867 17.0776 193.327 16.714C193.788 16.3446 194.134 15.8418 194.367 15.2054C194.606 14.5634 194.725 13.8333 194.725 13.0151C194.725 12.2026 194.609 11.481 194.376 10.8503C194.143 10.2196 193.796 9.72532 193.336 9.36736C192.876 9.00941 192.302 8.83043 191.614 8.83043C190.955 8.83043 190.396 9.00373 189.935 9.35032C189.475 9.69691 189.126 10.1827 188.887 10.8077C188.654 11.4327 188.538 12.1685 188.538 13.0151ZM207.232 10.8333C207.232 8.70259 207.513 6.74521 208.076 4.96111C208.644 3.17134 209.488 1.51793 210.607 0.000887394H213.513C213.082 0.563387 212.678 1.25373 212.303 2.07191C211.928 2.88441 211.601 3.77646 211.323 4.74805C211.05 5.71396 210.834 6.7168 210.675 7.75657C210.522 8.79634 210.445 9.82191 210.445 10.8333C210.445 12.1799 210.579 13.5435 210.846 14.9242C211.119 16.3049 211.485 17.5861 211.945 18.7679C212.411 19.9441 212.934 20.9071 213.513 21.6571H210.607C209.488 20.1401 208.644 18.4895 208.076 16.7054C207.513 14.9157 207.232 12.9583 207.232 10.8333ZM227.74 7.67986C227.598 7.21964 227.402 6.80771 227.152 6.44407C226.908 6.07475 226.612 5.75941 226.266 5.49805C225.925 5.23668 225.533 5.04066 225.089 4.90998C224.646 4.77361 224.163 4.70543 223.641 4.70543C222.703 4.70543 221.868 4.94123 221.135 5.41282C220.402 5.88441 219.825 6.57759 219.405 7.49236C218.99 8.40146 218.783 9.50941 218.783 10.8162C218.783 12.1344 218.99 13.2509 219.405 14.1657C219.82 15.0804 220.396 15.7765 221.135 16.2537C221.873 16.7253 222.731 16.9611 223.709 16.9611C224.595 16.9611 225.362 16.7907 226.01 16.4498C226.663 16.1088 227.166 15.6259 227.518 15.0009C227.871 14.3702 228.047 13.6316 228.047 12.785L228.763 12.8958H224.024V10.4242H231.106V12.5208C231.106 14.0151 230.788 15.3077 230.152 16.3986C229.516 17.4895 228.641 18.3304 227.527 18.9213C226.413 19.5066 225.135 19.7992 223.692 19.7992C222.084 19.7992 220.672 19.4384 219.456 18.7168C218.246 17.9895 217.3 16.9583 216.618 15.623C215.942 14.2821 215.604 12.6912 215.604 10.8503C215.604 9.44123 215.802 8.18271 216.2 7.07475C216.604 5.9668 217.166 5.02646 217.888 4.25373C218.609 3.47532 219.456 2.88441 220.427 2.481C221.399 2.07191 222.456 1.86736 223.598 1.86736C224.564 1.86736 225.464 2.00941 226.3 2.2935C227.135 2.57191 227.876 2.96964 228.524 3.48668C229.177 4.00373 229.714 4.61736 230.135 5.32759C230.555 6.03782 230.831 6.82191 230.962 7.67986H227.74ZM239.738 19.8162C238.459 19.8162 237.351 19.535 236.414 18.9725C235.476 18.41 234.749 17.623 234.232 16.6117C233.721 15.6003 233.465 14.4185 233.465 13.0662C233.465 11.714 233.721 10.5293 234.232 9.51225C234.749 8.49521 235.476 7.70543 236.414 7.14293C237.351 6.58043 238.459 6.29918 239.738 6.29918C241.016 6.29918 242.124 6.58043 243.062 7.14293C243.999 7.70543 244.724 8.49521 245.235 9.51225C245.752 10.5293 246.011 11.714 246.011 13.0662C246.011 14.4185 245.752 15.6003 245.235 16.6117C244.724 17.623 243.999 18.41 243.062 18.9725C242.124 19.535 241.016 19.8162 239.738 19.8162ZM239.755 17.3446C240.448 17.3446 241.028 17.1543 241.494 16.7736C241.959 16.3873 242.306 15.8702 242.533 15.2225C242.766 14.5748 242.883 13.8532 242.883 13.0577C242.883 12.2566 242.766 11.5321 242.533 10.8844C242.306 10.231 241.959 9.71111 241.494 9.32475C241.028 8.93839 240.448 8.74521 239.755 8.74521C239.045 8.74521 238.454 8.93839 237.982 9.32475C237.516 9.71111 237.167 10.231 236.934 10.8844C236.707 11.5321 236.593 12.2566 236.593 13.0577C236.593 13.8532 236.707 14.5748 236.934 15.2225C237.167 15.8702 237.516 16.3873 237.982 16.7736C238.454 17.1543 239.045 17.3446 239.755 17.3446ZM252.396 19.8248C251.567 19.8248 250.82 19.677 250.155 19.3816C249.496 19.0804 248.973 18.6373 248.587 18.052C248.206 17.4668 248.016 16.7452 248.016 15.8873C248.016 15.1486 248.152 14.5378 248.425 14.0549C248.697 13.5719 249.07 13.1855 249.541 12.8958C250.013 12.606 250.544 12.3873 251.135 12.2395C251.731 12.0861 252.348 11.9753 252.984 11.9071C253.751 11.8276 254.373 11.7566 254.851 11.6941C255.328 11.6259 255.675 11.5236 255.891 11.3873C256.112 11.2452 256.223 11.0265 256.223 10.731V10.6799C256.223 10.0378 256.033 9.54066 255.652 9.18839C255.271 8.83611 254.723 8.65998 254.007 8.65998C253.251 8.65998 252.652 8.82475 252.209 9.1543C251.771 9.48384 251.476 9.87305 251.322 10.3219L248.442 9.91282C248.669 9.11736 249.044 8.45259 249.567 7.9185C250.089 7.37873 250.729 6.97532 251.484 6.70827C252.24 6.43555 253.075 6.29918 253.99 6.29918C254.621 6.29918 255.248 6.37305 255.873 6.52077C256.498 6.6685 257.07 6.91282 257.587 7.25373C258.104 7.58896 258.518 8.04634 258.831 8.62589C259.149 9.20543 259.308 9.92986 259.308 10.7992V19.5605H256.342V17.7623H256.24C256.052 18.1259 255.788 18.4668 255.447 18.785C255.112 19.0975 254.689 19.3503 254.177 19.5435C253.672 19.731 253.078 19.8248 252.396 19.8248ZM253.197 17.5577C253.817 17.5577 254.354 17.4355 254.808 17.1912C255.263 16.9412 255.612 16.6117 255.856 16.2026C256.106 15.7935 256.231 15.3475 256.231 14.8645V13.3219C256.135 13.4015 255.97 13.4753 255.737 13.5435C255.51 13.6117 255.254 13.6713 254.97 13.7225C254.686 13.7736 254.405 13.8191 254.126 13.8588C253.848 13.8986 253.606 13.9327 253.402 13.9611C252.942 14.0236 252.53 14.1259 252.166 14.2679C251.802 14.41 251.516 14.6088 251.305 14.8645C251.095 15.1145 250.99 15.4384 250.99 15.8361C250.99 16.4043 251.197 16.8333 251.612 17.123C252.027 17.4128 252.555 17.5577 253.197 17.5577ZM268.947 6.46964V8.856H261.422V6.46964H268.947ZM263.28 3.33327H266.365V15.623C266.365 16.0378 266.427 16.356 266.552 16.5776C266.683 16.7935 266.854 16.9412 267.064 17.0208C267.274 17.1003 267.507 17.1401 267.763 17.1401C267.956 17.1401 268.132 17.1259 268.291 17.0975C268.456 17.0691 268.581 17.0435 268.666 17.0208L269.186 19.4327C269.021 19.4895 268.785 19.552 268.479 19.6202C268.177 19.6884 267.808 19.7282 267.371 19.7395C266.598 19.7623 265.902 19.6458 265.283 19.3901C264.663 19.1287 264.172 18.7253 263.808 18.1799C263.45 17.6344 263.274 16.9526 263.28 16.1344V3.33327ZM277.617 2.106H281.486L286.668 14.7537H286.873L292.055 2.106H295.924V19.5605H292.89V7.56907H292.728L287.904 19.5094H285.637L280.813 7.5435H280.651V19.5605H277.617V2.106ZM305.026 19.8162C303.714 19.8162 302.58 19.5435 301.626 18.998C300.677 18.4469 299.947 17.6685 299.435 16.6628C298.924 15.6515 298.668 14.4611 298.668 13.0918C298.668 11.7452 298.924 10.5634 299.435 9.54634C299.952 8.52361 300.674 7.72816 301.6 7.15998C302.526 6.58611 303.614 6.29918 304.864 6.29918C305.671 6.29918 306.432 6.42986 307.148 6.69123C307.87 6.94691 308.506 7.34464 309.057 7.88441C309.614 8.42418 310.052 9.11168 310.37 9.94691C310.688 10.7765 310.847 11.7651 310.847 12.9128V13.8588H300.117V11.7793H307.89C307.884 11.1884 307.756 10.6628 307.506 10.2026C307.256 9.73668 306.907 9.37021 306.458 9.10316C306.015 8.83611 305.498 8.70259 304.907 8.70259C304.276 8.70259 303.722 8.856 303.245 9.16282C302.768 9.46396 302.396 9.86168 302.128 10.356C301.867 10.8446 301.734 11.3816 301.728 11.9668V13.7821C301.728 14.5435 301.867 15.1969 302.146 15.7424C302.424 16.2821 302.813 16.6969 303.313 16.9867C303.813 17.2708 304.398 17.4128 305.069 17.4128C305.518 17.4128 305.924 17.3503 306.288 17.2253C306.651 17.0946 306.967 16.9043 307.234 16.6543C307.501 16.4043 307.702 16.0946 307.839 15.7253L310.719 16.0492C310.538 16.8105 310.191 17.4753 309.68 18.0435C309.174 18.606 308.526 19.0435 307.736 19.356C306.947 19.6628 306.043 19.8162 305.026 19.8162ZM317.224 19.8248C316.395 19.8248 315.648 19.677 314.983 19.3816C314.324 19.0804 313.801 18.6373 313.415 18.052C313.034 17.4668 312.844 16.7452 312.844 15.8873C312.844 15.1486 312.98 14.5378 313.253 14.0549C313.525 13.5719 313.898 13.1855 314.369 12.8958C314.841 12.606 315.372 12.3873 315.963 12.2395C316.56 12.0861 317.176 11.9753 317.812 11.9071C318.579 11.8276 319.202 11.7566 319.679 11.6941C320.156 11.6259 320.503 11.5236 320.719 11.3873C320.94 11.2452 321.051 11.0265 321.051 10.731V10.6799C321.051 10.0378 320.861 9.54066 320.48 9.18839C320.099 8.83611 319.551 8.65998 318.835 8.65998C318.079 8.65998 317.48 8.82475 317.037 9.1543C316.599 9.48384 316.304 9.87305 316.15 10.3219L313.27 9.91282C313.497 9.11736 313.872 8.45259 314.395 7.9185C314.918 7.37873 315.557 6.97532 316.312 6.70827C317.068 6.43555 317.903 6.29918 318.818 6.29918C319.449 6.29918 320.077 6.37305 320.702 6.52077C321.327 6.6685 321.898 6.91282 322.415 7.25373C322.932 7.58896 323.347 8.04634 323.659 8.62589C323.977 9.20543 324.136 9.92986 324.136 10.7992V19.5605H321.17V17.7623H321.068C320.881 18.1259 320.616 18.4668 320.275 18.785C319.94 19.0975 319.517 19.3503 319.006 19.5435C318.5 19.731 317.906 19.8248 317.224 19.8248ZM318.025 17.5577C318.645 17.5577 319.182 17.4355 319.636 17.1912C320.091 16.9412 320.44 16.6117 320.685 16.2026C320.935 15.7935 321.06 15.3475 321.06 14.8645V13.3219C320.963 13.4015 320.798 13.4753 320.565 13.5435C320.338 13.6117 320.082 13.6713 319.798 13.7225C319.514 13.7736 319.233 13.8191 318.954 13.8588C318.676 13.8986 318.435 13.9327 318.23 13.9611C317.77 14.0236 317.358 14.1259 316.994 14.2679C316.631 14.41 316.344 14.6088 316.133 14.8645C315.923 15.1145 315.818 15.4384 315.818 15.8361C315.818 16.4043 316.025 16.8333 316.44 17.123C316.855 17.4128 317.383 17.5577 318.025 17.5577ZM333.775 6.46964V8.856H326.25V6.46964H333.775ZM328.108 3.33327H331.193V15.623C331.193 16.0378 331.256 16.356 331.381 16.5776C331.511 16.7935 331.682 16.9412 331.892 17.0208C332.102 17.1003 332.335 17.1401 332.591 17.1401C332.784 17.1401 332.96 17.1259 333.119 17.0975C333.284 17.0691 333.409 17.0435 333.494 17.0208L334.014 19.4327C333.849 19.4895 333.614 19.552 333.307 19.6202C333.006 19.6884 332.636 19.7282 332.199 19.7395C331.426 19.7623 330.73 19.6458 330.111 19.3901C329.491 19.1287 329 18.7253 328.636 18.1799C328.278 17.6344 328.102 16.9526 328.108 16.1344V3.33327ZM341.861 12.4441C341.861 14.5691 341.577 16.5265 341.009 18.3162C340.447 20.1003 339.606 21.7509 338.486 23.2679H335.58C336.018 22.7054 336.421 22.0179 336.79 21.2054C337.165 20.3929 337.489 19.5009 337.762 18.5293C338.04 17.5577 338.256 16.552 338.41 15.5123C338.569 14.4725 338.648 13.4498 338.648 12.4441C338.648 11.0975 338.512 9.73384 338.239 8.35316C337.972 6.97248 337.606 5.69123 337.14 4.50941C336.68 3.32759 336.16 2.36168 335.58 1.61168H338.486C339.606 3.12873 340.447 4.78214 341.009 6.57191C341.577 8.356 341.861 10.3134 341.861 12.4441Z" fill="#1F2937"/>
</svg>
