<svg width="64" height="108" viewBox="0 0 64 108" fill="none" xmlns="http://www.w3.org/2000/svg">
<rect x="0.5" y="0.5" width="63" height="107" rx="4.5" stroke="#8A38F5" stroke-dasharray="10 5"/>
<path d="M40.25 23.75V41C40.25 41.1989 40.171 41.3896 40.0303 41.5303C39.8897 41.6709 39.6989 41.75 39.5 41.75C39.3011 41.75 39.1103 41.6709 38.9697 41.5303C38.829 41.3896 38.75 41.1989 38.75 41V36.5H34.25C34.0511 36.5 33.8603 36.4209 33.7197 36.2803C33.579 36.1396 33.5 35.9489 33.5 35.75C33.5349 33.9534 33.7618 32.1657 34.1769 30.4175C35.0938 26.6215 36.8319 24.0771 39.2047 23.0609C39.3187 23.012 39.4431 22.9922 39.5667 23.0033C39.6903 23.0143 39.8092 23.0558 39.9128 23.1241C40.0164 23.1924 40.1014 23.2853 40.1603 23.3945C40.2191 23.5038 40.2499 23.6259 40.25 23.75ZM31.2397 23.6271C31.225 23.5287 31.1908 23.4341 31.1392 23.349C31.0876 23.2638 31.0195 23.1898 30.939 23.1312C30.8585 23.0727 30.7671 23.0307 30.6702 23.0079C30.5733 22.985 30.4728 22.9816 30.3746 22.998C30.2764 23.0144 30.1824 23.0501 30.0982 23.1032C30.0139 23.1563 29.9411 23.2256 29.8839 23.3071C29.8267 23.3886 29.7863 23.4807 29.7651 23.578C29.7439 23.6753 29.7423 23.7758 29.7603 23.8737L30.4897 28.25H28.25V23.75C28.25 23.551 28.171 23.3603 28.0303 23.2196C27.8897 23.079 27.6989 23 27.5 23C27.3011 23 27.1103 23.079 26.9697 23.2196C26.829 23.3603 26.75 23.551 26.75 23.75V28.25H24.5103L25.2397 23.8737C25.2577 23.7758 25.2561 23.6753 25.2349 23.578C25.2137 23.4807 25.1733 23.3886 25.1161 23.3071C25.0589 23.2256 24.9861 23.1563 24.9018 23.1032C24.8176 23.0501 24.7236 23.0144 24.6254 22.998C24.5272 22.9816 24.4267 22.985 24.3298 23.0079C24.2329 23.0307 24.1415 23.0727 24.061 23.1312C23.9805 23.1898 23.9124 23.2638 23.8608 23.349C23.8092 23.4341 23.775 23.5287 23.7603 23.6271L23.0103 28.1271C23.0035 28.1677 23.0001 28.2088 23 28.25C23.0015 29.3129 23.3787 30.3411 24.0649 31.1529C24.7511 31.9647 25.7021 32.5078 26.75 32.6862V41C26.75 41.1989 26.829 41.3896 26.9697 41.5303C27.1103 41.6709 27.3011 41.75 27.5 41.75C27.6989 41.75 27.8897 41.6709 28.0303 41.5303C28.171 41.3896 28.25 41.1989 28.25 41V32.6862C29.2979 32.5078 30.2489 31.9647 30.9351 31.1529C31.6213 30.3411 31.9985 29.3129 32 28.25C31.9999 28.2088 31.9965 28.1677 31.9897 28.1271L31.2397 23.6271Z" fill="#FF7A18"/>
<g clip-path="url(#clip0_159_740)">
<g clip-path="url(#clip1_159_740)">
<path d="M43.9456 74.9688L42.6331 71.6875C42.5218 71.4099 42.3296 71.1721 42.0816 71.0049C41.8335 70.8378 41.541 70.749 41.2419 70.75H38V70C38 69.8011 37.921 69.6103 37.7803 69.4697C37.6397 69.329 37.4489 69.25 37.25 69.25H23C22.6022 69.25 22.2206 69.408 21.9393 69.6893C21.658 69.9706 21.5 70.3522 21.5 70.75V81.25C21.5 81.6478 21.658 82.0294 21.9393 82.3107C22.2206 82.592 22.6022 82.75 23 82.75H24.5938C24.759 83.3953 25.1343 83.9673 25.6605 84.3757C26.1867 84.7842 26.8339 85.0059 27.5 85.0059C28.1661 85.0059 28.8133 84.7842 29.3395 84.3757C29.8657 83.9673 30.241 83.3953 30.4062 82.75H35.0938C35.259 83.3953 35.6343 83.9673 36.1605 84.3757C36.6867 84.7842 37.3339 85.0059 38 85.0059C38.6661 85.0059 39.3133 84.7842 39.8395 84.3757C40.3657 83.9673 40.741 83.3953 40.9062 82.75H42.5C42.8978 82.75 43.2794 82.592 43.5607 82.3107C43.842 82.0294 44 81.6478 44 81.25V75.25C44.0004 75.1536 43.9819 75.0581 43.9456 74.9688ZM38 72.25H41.2419L42.1419 74.5H38V72.25ZM23 70.75H36.5V76.75H23V70.75ZM27.5 83.5C27.2033 83.5 26.9133 83.412 26.6666 83.2472C26.42 83.0824 26.2277 82.8481 26.1142 82.574C26.0006 82.2999 25.9709 81.9983 26.0288 81.7074C26.0867 81.4164 26.2296 81.1491 26.4393 80.9393C26.6491 80.7296 26.9164 80.5867 27.2074 80.5288C27.4983 80.4709 27.7999 80.5006 28.074 80.6142C28.3481 80.7277 28.5824 80.92 28.7472 81.1666C28.912 81.4133 29 81.7033 29 82C29 82.3978 28.842 82.7794 28.5607 83.0607C28.2794 83.342 27.8978 83.5 27.5 83.5ZM35.0938 81.25H30.4062C30.241 80.6047 29.8657 80.0327 29.3395 79.6243C28.8133 79.2158 28.1661 78.9941 27.5 78.9941C26.8339 78.9941 26.1867 79.2158 25.6605 79.6243C25.1343 80.0327 24.759 80.6047 24.5938 81.25H23V78.25H36.5V79.4041C36.1551 79.6034 35.8532 79.8692 35.6118 80.186C35.3704 80.5029 35.1943 80.8646 35.0938 81.25ZM38 83.5C37.7033 83.5 37.4133 83.412 37.1666 83.2472C36.92 83.0824 36.7277 82.8481 36.6142 82.574C36.5006 82.2999 36.4709 81.9983 36.5288 81.7074C36.5867 81.4164 36.7296 81.1491 36.9393 80.9393C37.1491 80.7296 37.4164 80.5867 37.7074 80.5288C37.9983 80.4709 38.2999 80.5006 38.574 80.6142C38.8481 80.7277 39.0824 80.92 39.2472 81.1666C39.412 81.4133 39.5 81.7033 39.5 82C39.5 82.3978 39.342 82.7794 39.0607 83.0607C38.7794 83.342 38.3978 83.5 38 83.5ZM42.5 81.25H40.9062C40.739 80.6063 40.363 80.0362 39.8371 79.629C39.3112 79.2218 38.6651 79.0006 38 79V76H42.5V81.25Z" fill="#FF7A18"/>
</g>
</g>
<defs>
<clipPath id="clip0_159_740">
<rect width="24" height="24" fill="white" transform="translate(20 64)"/>
</clipPath>
<clipPath id="clip1_159_740">
<rect width="24" height="24" fill="white" transform="translate(20 64)"/>
</clipPath>
</defs>
</svg>
