<svg width="681" height="44" viewBox="0 0 681 44" fill="none" xmlns="http://www.w3.org/2000/svg">
<path d="M22 13.75C20.22 13.75 18.4799 14.2778 16.9999 15.2668C15.5198 16.2557 14.3663 17.6613 13.6851 19.3059C13.0039 20.9504 12.8257 22.76 13.1729 24.5058C13.5202 26.2516 14.3774 27.8553 15.636 29.114C16.8947 30.3726 18.4984 31.2298 20.2442 31.5771C21.99 31.9243 23.7996 31.7461 25.4442 31.0649C27.0887 30.3837 28.4943 29.2302 29.4832 27.7501C30.4722 26.2701 31 24.53 31 22.75C30.9973 20.3639 30.0482 18.0763 28.361 16.3891C26.6737 14.7018 24.3861 13.7527 22 13.75ZM22 30.25C20.5166 30.25 19.0666 29.8101 17.8332 28.986C16.5999 28.1619 15.6386 26.9906 15.0709 25.6201C14.5033 24.2497 14.3547 22.7417 14.6441 21.2868C14.9335 19.832 15.6478 18.4956 16.6967 17.4467C17.7456 16.3978 19.082 15.6835 20.5368 15.3941C21.9917 15.1047 23.4997 15.2532 24.8701 15.8209C26.2406 16.3886 27.4119 17.3499 28.236 18.5832C29.0601 19.8166 29.5 21.2666 29.5 22.75C29.4978 24.7384 28.7069 26.6448 27.3008 28.0508C25.8948 29.4569 23.9884 30.2478 22 30.25ZM26.2806 18.4694C26.3504 18.539 26.4057 18.6217 26.4434 18.7128C26.4812 18.8038 26.5006 18.9014 26.5006 19C26.5006 19.0986 26.4812 19.1962 26.4434 19.2872C26.4057 19.3783 26.3504 19.461 26.2806 19.5306L22.5306 23.2806C22.4609 23.3503 22.3782 23.4056 22.2872 23.4433C22.1961 23.481 22.0986 23.5004 22 23.5004C21.9015 23.5004 21.8039 23.481 21.7128 23.4433C21.6218 23.4056 21.5391 23.3503 21.4694 23.2806C21.3997 23.2109 21.3444 23.1282 21.3067 23.0372C21.269 22.9461 21.2496 22.8485 21.2496 22.75C21.2496 22.6515 21.269 22.5539 21.3067 22.4628C21.3444 22.3718 21.3997 22.2891 21.4694 22.2194L25.2194 18.4694C25.289 18.3996 25.3718 18.3443 25.4628 18.3066C25.5538 18.2688 25.6514 18.2494 25.75 18.2494C25.8486 18.2494 25.9462 18.2688 26.0372 18.3066C26.1283 18.3443 26.211 18.3996 26.2806 18.4694ZM19 11.5C19 11.3011 19.079 11.1103 19.2197 10.9697C19.3603 10.829 19.5511 10.75 19.75 10.75H24.25C24.4489 10.75 24.6397 10.829 24.7803 10.9697C24.921 11.1103 25 11.3011 25 11.5C25 11.6989 24.921 11.8897 24.7803 12.0303C24.6397 12.171 24.4489 12.25 24.25 12.25H19.75C19.5511 12.25 19.3603 12.171 19.2197 12.0303C19.079 11.8897 19 11.6989 19 11.5Z" fill="#FF7A18"/>
<path d="M44.4091 16.3636H46.0909L50.0455 26.0227H50.1818L54.1364 16.3636H55.8182V28H54.5V19.1591H54.3864L50.75 28H49.4773L45.8409 19.1591H45.7273V28H44.4091V16.3636ZM58.1416 28V19.2727H59.4826V28H58.1416ZM58.8235 17.8182C58.5621 17.8182 58.3367 17.7292 58.1473 17.5511C57.9617 17.3731 57.8689 17.1591 57.8689 16.9091C57.8689 16.6591 57.9617 16.4451 58.1473 16.267C58.3367 16.089 58.5621 16 58.8235 16C59.0848 16 59.3083 16.089 59.4939 16.267C59.6833 16.4451 59.778 16.6591 59.778 16.9091C59.778 17.1591 59.6833 17.3731 59.4939 17.5511C59.3083 17.7292 59.0848 17.8182 58.8235 17.8182ZM62.9594 16.3636V28H61.6185V16.3636H62.9594ZM68.3909 28.1818C67.6636 28.1818 67.0215 27.9981 66.4647 27.6307C65.9079 27.2595 65.4723 26.7367 65.1579 26.0625C64.8435 25.3845 64.6863 24.5833 64.6863 23.6591C64.6863 22.7424 64.8435 21.947 65.1579 21.2727C65.4723 20.5985 65.9098 20.0777 66.4704 19.7102C67.031 19.3428 67.6787 19.1591 68.4136 19.1591C68.9818 19.1591 69.4306 19.2538 69.7602 19.4432C70.0935 19.6288 70.3473 19.8409 70.5215 20.0795C70.6996 20.3144 70.8378 20.5076 70.9363 20.6591H71.0499V16.3636H72.3909V28H71.0954V26.6591H70.9363C70.8378 26.8182 70.6977 27.0189 70.5159 27.2614C70.334 27.5 70.0746 27.714 69.7374 27.9034C69.4003 28.089 68.9515 28.1818 68.3909 28.1818ZM68.5727 26.9773C69.1106 26.9773 69.5651 26.8371 69.9363 26.5568C70.3075 26.2727 70.5897 25.8807 70.7829 25.3807C70.9761 24.8769 71.0727 24.2955 71.0727 23.6364C71.0727 22.9848 70.978 22.4148 70.7886 21.9261C70.5992 21.4337 70.3189 21.0511 69.9477 20.7784C69.5765 20.5019 69.1181 20.3636 68.5727 20.3636C68.0045 20.3636 67.531 20.5095 67.1522 20.8011C66.7772 21.089 66.495 21.4811 66.3056 21.9773C66.12 22.4697 66.0272 23.0227 66.0272 23.6364C66.0272 24.2576 66.1219 24.822 66.3113 25.3295C66.5045 25.8333 66.7886 26.2348 67.1636 26.5341C67.5424 26.8295 68.0121 26.9773 68.5727 26.9773ZM76.0538 16.3636V28H74.7129V16.3636H76.0538ZM79.0534 31.2727C78.8261 31.2727 78.6235 31.2538 78.4455 31.2159C78.2674 31.1818 78.1443 31.1477 78.0761 31.1136L78.417 29.9318C78.7428 30.0152 79.0307 30.0455 79.2807 30.0227C79.5307 30 79.7523 29.8883 79.9455 29.6875C80.1424 29.4905 80.3224 29.1705 80.4852 28.7273L80.7352 28.0455L77.508 19.2727H78.9625L81.3716 26.2273H81.4625L83.8716 19.2727H85.3261L81.6216 29.2727C81.4549 29.7235 81.2485 30.0966 81.0023 30.392C80.7561 30.6913 80.4701 30.9129 80.1443 31.0568C79.8224 31.2008 79.4587 31.2727 79.0534 31.2727ZM97.1378 21.2273L95.9333 21.5682C95.8575 21.3674 95.7458 21.1723 95.5981 20.983C95.4541 20.7898 95.2572 20.6307 95.0072 20.5057C94.7572 20.3807 94.4371 20.3182 94.0469 20.3182C93.5128 20.3182 93.0678 20.4413 92.7117 20.6875C92.3594 20.9299 92.1833 21.2386 92.1833 21.6136C92.1833 21.947 92.3045 22.2102 92.5469 22.4034C92.7894 22.5966 93.1681 22.7576 93.6833 22.8864L94.9787 23.2045C95.7591 23.3939 96.3405 23.6837 96.7231 24.0739C97.1056 24.4602 97.2969 24.9583 97.2969 25.5682C97.2969 26.0682 97.153 26.5152 96.8651 26.9091C96.581 27.303 96.1833 27.6136 95.6719 27.8409C95.1606 28.0682 94.5659 28.1818 93.8878 28.1818C92.9977 28.1818 92.2609 27.9886 91.6776 27.6023C91.0943 27.2159 90.725 26.6515 90.5697 25.9091L91.8424 25.5909C91.9636 26.0606 92.1928 26.4129 92.5299 26.6477C92.8708 26.8826 93.3159 27 93.8651 27C94.4901 27 94.9863 26.8674 95.3537 26.6023C95.725 26.3333 95.9106 26.0114 95.9106 25.6364C95.9106 25.3333 95.8045 25.0795 95.5924 24.875C95.3803 24.6667 95.0545 24.5114 94.6151 24.4091L93.1606 24.0682C92.3613 23.8788 91.7742 23.5852 91.3992 23.1875C91.028 22.786 90.8424 22.2841 90.8424 21.6818C90.8424 21.1894 90.9806 20.7538 91.2572 20.375C91.5375 19.9962 91.9181 19.6989 92.3992 19.483C92.8841 19.267 93.4333 19.1591 94.0469 19.1591C94.9106 19.1591 95.5886 19.3485 96.081 19.7273C96.5772 20.1061 96.9295 20.6061 97.1378 21.2273ZM98.9954 31.2727V19.2727H100.291V20.6591H100.45C100.548 20.5076 100.685 20.3144 100.859 20.0795C101.037 19.8409 101.291 19.6288 101.62 19.4432C101.954 19.2538 102.404 19.1591 102.973 19.1591C103.708 19.1591 104.355 19.3428 104.916 19.7102C105.476 20.0777 105.914 20.5985 106.228 21.2727C106.543 21.947 106.7 22.7424 106.7 23.6591C106.7 24.5833 106.543 25.3845 106.228 26.0625C105.914 26.7367 105.478 27.2595 104.922 27.6307C104.365 27.9981 103.723 28.1818 102.995 28.1818C102.435 28.1818 101.986 28.089 101.649 27.9034C101.312 27.714 101.052 27.5 100.87 27.2614C100.689 27.0189 100.548 26.8182 100.45 26.6591H100.336V31.2727H98.9954ZM100.314 23.6364C100.314 24.2955 100.41 24.8769 100.603 25.3807C100.797 25.8807 101.079 26.2727 101.45 26.5568C101.821 26.8371 102.276 26.9773 102.814 26.9773C103.374 26.9773 103.842 26.8295 104.217 26.5341C104.596 26.2348 104.88 25.8333 105.069 25.3295C105.262 24.822 105.359 24.2576 105.359 23.6364C105.359 23.0227 105.264 22.4697 105.075 21.9773C104.889 21.4811 104.607 21.089 104.228 20.8011C103.853 20.5095 103.382 20.3636 102.814 20.3636C102.268 20.3636 101.81 20.5019 101.439 20.7784C101.067 21.0511 100.787 21.4337 100.598 21.9261C100.408 22.4148 100.314 22.9848 100.314 23.6364ZM108.425 28V19.2727H109.766V28H108.425ZM109.107 17.8182C108.846 17.8182 108.62 17.7292 108.431 17.5511C108.245 17.3731 108.153 17.1591 108.153 16.9091C108.153 16.6591 108.245 16.4451 108.431 16.267C108.62 16.089 108.846 16 109.107 16C109.369 16 109.592 16.089 109.778 16.267C109.967 16.4451 110.062 16.6591 110.062 16.9091C110.062 17.1591 109.967 17.3731 109.778 17.5511C109.592 17.7292 109.369 17.8182 109.107 17.8182ZM115.448 28.1818C114.63 28.1818 113.925 27.9886 113.334 27.6023C112.743 27.2159 112.289 26.6837 111.97 26.0057C111.652 25.3277 111.493 24.553 111.493 23.6818C111.493 22.7955 111.656 22.0133 111.982 21.3352C112.311 20.6534 112.77 20.1212 113.357 19.7386C113.948 19.3523 114.637 19.1591 115.425 19.1591C116.039 19.1591 116.592 19.2727 117.084 19.5C117.577 19.7273 117.98 20.0455 118.294 20.4545C118.609 20.8636 118.804 21.3409 118.88 21.8864H117.539C117.436 21.4886 117.209 21.1364 116.857 20.8295C116.508 20.5189 116.039 20.3636 115.448 20.3636C114.925 20.3636 114.467 20.5 114.073 20.7727C113.683 21.0417 113.378 21.4223 113.158 21.9148C112.942 22.4034 112.834 22.9773 112.834 23.6364C112.834 24.3106 112.94 24.8977 113.152 25.3977C113.368 25.8977 113.671 26.286 114.061 26.5625C114.455 26.839 114.917 26.9773 115.448 26.9773C115.796 26.9773 116.113 26.9167 116.397 26.7955C116.681 26.6742 116.921 26.5 117.118 26.2727C117.315 26.0455 117.455 25.7727 117.539 25.4545H118.88C118.804 25.9697 118.616 26.4337 118.317 26.8466C118.022 27.2557 117.63 27.5814 117.141 27.8239C116.656 28.0625 116.092 28.1818 115.448 28.1818ZM121.383 31.2727C121.156 31.2727 120.953 31.2538 120.775 31.2159C120.597 31.1818 120.474 31.1477 120.406 31.1136L120.747 29.9318C121.073 30.0152 121.361 30.0455 121.611 30.0227C121.861 30 122.082 29.8883 122.275 29.6875C122.472 29.4905 122.652 29.1705 122.815 28.7273L123.065 28.0455L119.838 19.2727H121.293L123.702 26.2273H123.793L126.202 19.2727H127.656L123.952 29.2727C123.785 29.7235 123.578 30.0966 123.332 30.392C123.086 30.6913 122.8 30.9129 122.474 31.0568C122.152 31.2008 121.789 31.2727 121.383 31.2727Z" fill="#4B5563"/>
<path d="M177 13.75C175.22 13.75 173.48 14.2778 172 15.2668C170.52 16.2557 169.366 17.6613 168.685 19.3059C168.004 20.9504 167.826 22.76 168.173 24.5058C168.52 26.2516 169.377 27.8553 170.636 29.114C171.895 30.3726 173.498 31.2298 175.244 31.5771C176.99 31.9243 178.8 31.7461 180.444 31.0649C182.089 30.3837 183.494 29.2302 184.483 27.7501C185.472 26.2701 186 24.53 186 22.75C185.997 20.3639 185.048 18.0763 183.361 16.3891C181.674 14.7018 179.386 13.7527 177 13.75ZM177 30.25C175.517 30.25 174.067 29.8101 172.833 28.986C171.6 28.1619 170.639 26.9906 170.071 25.6201C169.503 24.2497 169.355 22.7417 169.644 21.2868C169.934 19.832 170.648 18.4956 171.697 17.4467C172.746 16.3978 174.082 15.6835 175.537 15.3941C176.992 15.1047 178.5 15.2532 179.87 15.8209C181.241 16.3886 182.412 17.3499 183.236 18.5832C184.06 19.8166 184.5 21.2666 184.5 22.75C184.498 24.7384 183.707 26.6448 182.301 28.0508C180.895 29.4569 178.988 30.2478 177 30.25ZM181.281 18.4694C181.35 18.539 181.406 18.6217 181.443 18.7128C181.481 18.8038 181.501 18.9014 181.501 19C181.501 19.0986 181.481 19.1962 181.443 19.2872C181.406 19.3783 181.35 19.461 181.281 19.5306L177.531 23.2806C177.461 23.3503 177.378 23.4056 177.287 23.4433C177.196 23.481 177.099 23.5004 177 23.5004C176.901 23.5004 176.804 23.481 176.713 23.4433C176.622 23.4056 176.539 23.3503 176.469 23.2806C176.4 23.2109 176.344 23.1282 176.307 23.0372C176.269 22.9461 176.25 22.8485 176.25 22.75C176.25 22.6515 176.269 22.5539 176.307 22.4628C176.344 22.3718 176.4 22.2891 176.469 22.2194L180.219 18.4694C180.289 18.3996 180.372 18.3443 180.463 18.3066C180.554 18.2688 180.651 18.2494 180.75 18.2494C180.849 18.2494 180.946 18.2688 181.037 18.3066C181.128 18.3443 181.211 18.3996 181.281 18.4694ZM174 11.5C174 11.3011 174.079 11.1103 174.22 10.9697C174.36 10.829 174.551 10.75 174.75 10.75H179.25C179.449 10.75 179.64 10.829 179.78 10.9697C179.921 11.1103 180 11.3011 180 11.5C180 11.6989 179.921 11.8897 179.78 12.0303C179.64 12.171 179.449 12.25 179.25 12.25H174.75C174.551 12.25 174.36 12.171 174.22 12.0303C174.079 11.8897 174 11.6989 174 11.5Z" fill="#FF7A18"/>
<path d="M202.886 16.3636L206.341 26.1591H206.477L209.932 16.3636H211.409L207.136 28H205.682L201.409 16.3636H202.886ZM215.566 28.1818C214.725 28.1818 214 27.9962 213.39 27.625C212.784 27.25 212.316 26.7273 211.987 26.0568C211.661 25.3826 211.498 24.5985 211.498 23.7045C211.498 22.8106 211.661 22.0227 211.987 21.3409C212.316 20.6553 212.775 20.1212 213.362 19.7386C213.953 19.3523 214.642 19.1591 215.43 19.1591C215.885 19.1591 216.333 19.2348 216.777 19.3864C217.22 19.5379 217.623 19.7841 217.987 20.125C218.35 20.4621 218.64 20.9091 218.856 21.4659C219.072 22.0227 219.18 22.7083 219.18 23.5227V24.0909H212.453V22.9318H217.816C217.816 22.4394 217.718 22 217.521 21.6136C217.328 21.2273 217.051 20.9223 216.691 20.6989C216.335 20.4754 215.915 20.3636 215.43 20.3636C214.896 20.3636 214.434 20.4962 214.044 20.7614C213.657 21.0227 213.36 21.3636 213.152 21.7841C212.943 22.2045 212.839 22.6553 212.839 23.1364V23.9091C212.839 24.5682 212.953 25.1269 213.18 25.5852C213.411 26.0398 213.731 26.3864 214.14 26.625C214.549 26.8598 215.025 26.9773 215.566 26.9773C215.919 26.9773 216.237 26.928 216.521 26.8295C216.809 26.7273 217.057 26.5758 217.265 26.375C217.474 26.1705 217.635 25.9167 217.748 25.6136L219.044 25.9773C218.907 26.4167 218.678 26.803 218.356 27.1364C218.034 27.4659 217.636 27.7235 217.163 27.9091C216.689 28.0909 216.157 28.1818 215.566 28.1818ZM224.423 31.4545C223.775 31.4545 223.218 31.3712 222.752 31.2045C222.286 31.0417 221.898 30.8258 221.587 30.5568C221.28 30.2917 221.036 30.0076 220.854 29.7045L221.923 28.9545C222.044 29.1136 222.197 29.2955 222.383 29.5C222.568 29.7083 222.822 29.8883 223.144 30.0398C223.47 30.1951 223.896 30.2727 224.423 30.2727C225.127 30.2727 225.708 30.1023 226.167 29.7614C226.625 29.4205 226.854 28.8864 226.854 28.1591V26.3864H226.741C226.642 26.5455 226.502 26.7424 226.32 26.9773C226.142 27.2083 225.885 27.4148 225.548 27.5966C225.214 27.7746 224.763 27.8636 224.195 27.8636C223.491 27.8636 222.858 27.697 222.298 27.3636C221.741 27.0303 221.299 26.5455 220.974 25.9091C220.652 25.2727 220.491 24.5 220.491 23.5909C220.491 22.697 220.648 21.9186 220.962 21.2557C221.277 20.589 221.714 20.0739 222.275 19.7102C222.835 19.3428 223.483 19.1591 224.218 19.1591C224.786 19.1591 225.237 19.2538 225.57 19.4432C225.907 19.6288 226.165 19.8409 226.343 20.0795C226.525 20.3144 226.665 20.5076 226.763 20.6591H226.9V19.2727H228.195V28.25C228.195 29 228.025 29.6098 227.684 30.0795C227.347 30.553 226.892 30.8996 226.32 31.1193C225.752 31.3428 225.119 31.4545 224.423 31.4545ZM224.377 26.6591C224.915 26.6591 225.369 26.536 225.741 26.2898C226.112 26.0436 226.394 25.6894 226.587 25.2273C226.78 24.7652 226.877 24.2121 226.877 23.5682C226.877 22.9394 226.782 22.3845 226.593 21.9034C226.404 21.4223 226.123 21.0455 225.752 20.7727C225.381 20.5 224.923 20.3636 224.377 20.3636C223.809 20.3636 223.335 20.5076 222.957 20.7955C222.582 21.0833 222.299 21.4697 222.11 21.9545C221.924 22.4394 221.832 22.9773 221.832 23.5682C221.832 24.1742 221.926 24.7102 222.116 25.1761C222.309 25.6383 222.593 26.0019 222.968 26.267C223.347 26.5284 223.816 26.6591 224.377 26.6591ZM233.989 28.1818C233.148 28.1818 232.423 27.9962 231.813 27.625C231.207 27.25 230.739 26.7273 230.409 26.0568C230.084 25.3826 229.921 24.5985 229.921 23.7045C229.921 22.8106 230.084 22.0227 230.409 21.3409C230.739 20.6553 231.197 20.1212 231.784 19.7386C232.375 19.3523 233.065 19.1591 233.853 19.1591C234.307 19.1591 234.756 19.2348 235.199 19.3864C235.642 19.5379 236.046 19.7841 236.409 20.125C236.773 20.4621 237.063 20.9091 237.279 21.4659C237.495 22.0227 237.603 22.7083 237.603 23.5227V24.0909H230.875V22.9318H236.239C236.239 22.4394 236.14 22 235.943 21.6136C235.75 21.2273 235.474 20.9223 235.114 20.6989C234.758 20.4754 234.337 20.3636 233.853 20.3636C233.318 20.3636 232.856 20.4962 232.466 20.7614C232.08 21.0227 231.782 21.3636 231.574 21.7841C231.366 22.2045 231.262 22.6553 231.262 23.1364V23.9091C231.262 24.5682 231.375 25.1269 231.603 25.5852C231.834 26.0398 232.154 26.3864 232.563 26.625C232.972 26.8598 233.447 26.9773 233.989 26.9773C234.341 26.9773 234.659 26.928 234.943 26.8295C235.231 26.7273 235.479 26.5758 235.688 26.375C235.896 26.1705 236.057 25.9167 236.171 25.6136L237.466 25.9773C237.33 26.4167 237.101 26.803 236.779 27.1364C236.457 27.4659 236.059 27.7235 235.585 27.9091C235.112 28.0909 234.58 28.1818 233.989 28.1818ZM243.118 19.2727V20.4091H238.595V19.2727H243.118ZM239.913 17.1818H241.254V25.5C241.254 25.8788 241.309 26.1629 241.419 26.3523C241.533 26.5379 241.676 26.6629 241.851 26.7273C242.029 26.7879 242.216 26.8182 242.413 26.8182C242.561 26.8182 242.682 26.8106 242.777 26.7955C242.872 26.7765 242.947 26.7614 243.004 26.75L243.277 27.9545C243.186 27.9886 243.059 28.0227 242.896 28.0568C242.733 28.0947 242.527 28.1136 242.277 28.1136C241.898 28.1136 241.527 28.0322 241.163 27.8693C240.803 27.7064 240.504 27.4583 240.265 27.125C240.031 26.7917 239.913 26.3712 239.913 25.8636V17.1818ZM247.383 28.2045C246.83 28.2045 246.328 28.1004 245.877 27.892C245.427 27.6799 245.069 27.375 244.803 26.9773C244.538 26.5758 244.406 26.0909 244.406 25.5227C244.406 25.0227 244.504 24.6174 244.701 24.3068C244.898 23.9924 245.161 23.7462 245.491 23.5682C245.82 23.3902 246.184 23.2576 246.582 23.1705C246.983 23.0795 247.387 23.0076 247.792 22.9545C248.322 22.8864 248.752 22.8352 249.082 22.8011C249.415 22.7633 249.658 22.7008 249.809 22.6136C249.964 22.5265 250.042 22.375 250.042 22.1591V22.1136C250.042 21.553 249.889 21.1174 249.582 20.8068C249.279 20.4962 248.819 20.3409 248.201 20.3409C247.561 20.3409 247.059 20.4811 246.695 20.7614C246.332 21.0417 246.076 21.3409 245.928 21.6591L244.656 21.2045C244.883 20.6742 245.186 20.2614 245.565 19.9659C245.947 19.6667 246.364 19.4583 246.815 19.3409C247.269 19.2197 247.716 19.1591 248.156 19.1591C248.436 19.1591 248.758 19.1932 249.122 19.2614C249.489 19.3258 249.843 19.4602 250.184 19.6648C250.529 19.8693 250.815 20.178 251.042 20.5909C251.269 21.0038 251.383 21.5568 251.383 22.25V28H250.042V26.8182H249.974C249.883 27.0076 249.731 27.2102 249.519 27.4261C249.307 27.642 249.025 27.8258 248.673 27.9773C248.32 28.1288 247.891 28.2045 247.383 28.2045ZM247.588 27C248.118 27 248.565 26.8958 248.928 26.6875C249.296 26.4792 249.572 26.2102 249.758 25.8807C249.947 25.5511 250.042 25.2045 250.042 24.8409V23.6136C249.985 23.6818 249.86 23.7443 249.667 23.8011C249.478 23.8542 249.258 23.9015 249.008 23.9432C248.762 23.9811 248.521 24.0152 248.286 24.0455C248.055 24.072 247.868 24.0947 247.724 24.1136C247.375 24.1591 247.05 24.233 246.747 24.3352C246.447 24.4337 246.205 24.5833 246.019 24.7841C245.838 24.9811 245.747 25.25 245.747 25.5909C245.747 26.0568 245.919 26.4091 246.264 26.6477C246.612 26.8826 247.053 27 247.588 27ZM253.51 28V19.2727H254.806V20.5909H254.897C255.056 20.1591 255.344 19.8087 255.76 19.5398C256.177 19.2708 256.647 19.1364 257.169 19.1364C257.268 19.1364 257.391 19.1383 257.539 19.142C257.687 19.1458 257.798 19.1515 257.874 19.1591V20.5227C257.829 20.5114 257.724 20.4943 257.562 20.4716C257.402 20.4451 257.234 20.4318 257.056 20.4318C256.632 20.4318 256.253 20.5208 255.919 20.6989C255.59 20.8731 255.329 21.1155 255.135 21.4261C254.946 21.733 254.851 22.0833 254.851 22.4773V28H253.51ZM259.144 28V19.2727H260.484V28H259.144ZM259.825 17.8182C259.564 17.8182 259.339 17.7292 259.149 17.5511C258.964 17.3731 258.871 17.1591 258.871 16.9091C258.871 16.6591 258.964 16.4451 259.149 16.267C259.339 16.089 259.564 16 259.825 16C260.087 16 260.31 16.089 260.496 16.267C260.685 16.4451 260.78 16.6591 260.78 16.9091C260.78 17.1591 260.685 17.3731 260.496 17.5511C260.31 17.7292 260.087 17.8182 259.825 17.8182ZM265.189 28.2045C264.636 28.2045 264.134 28.1004 263.683 27.892C263.232 27.6799 262.874 27.375 262.609 26.9773C262.344 26.5758 262.211 26.0909 262.211 25.5227C262.211 25.0227 262.31 24.6174 262.507 24.3068C262.704 23.9924 262.967 23.7462 263.297 23.5682C263.626 23.3902 263.99 23.2576 264.387 23.1705C264.789 23.0795 265.192 23.0076 265.598 22.9545C266.128 22.8864 266.558 22.8352 266.887 22.8011C267.221 22.7633 267.463 22.7008 267.615 22.6136C267.77 22.5265 267.848 22.375 267.848 22.1591V22.1136C267.848 21.553 267.694 21.1174 267.387 20.8068C267.084 20.4962 266.624 20.3409 266.007 20.3409C265.367 20.3409 264.865 20.4811 264.501 20.7614C264.137 21.0417 263.882 21.3409 263.734 21.6591L262.461 21.2045C262.689 20.6742 262.992 20.2614 263.37 19.9659C263.753 19.6667 264.17 19.4583 264.62 19.3409C265.075 19.2197 265.522 19.1591 265.961 19.1591C266.242 19.1591 266.564 19.1932 266.927 19.2614C267.295 19.3258 267.649 19.4602 267.99 19.6648C268.334 19.8693 268.62 20.178 268.848 20.5909C269.075 21.0038 269.189 21.5568 269.189 22.25V28H267.848V26.8182H267.779C267.689 27.0076 267.537 27.2102 267.325 27.4261C267.113 27.642 266.831 27.8258 266.478 27.9773C266.126 28.1288 265.696 28.2045 265.189 28.2045ZM265.393 27C265.923 27 266.37 26.8958 266.734 26.6875C267.101 26.4792 267.378 26.2102 267.564 25.8807C267.753 25.5511 267.848 25.2045 267.848 24.8409V23.6136C267.791 23.6818 267.666 23.7443 267.473 23.8011C267.283 23.8542 267.064 23.9015 266.814 23.9432C266.567 23.9811 266.327 24.0152 266.092 24.0455C265.861 24.072 265.673 24.0947 265.529 24.1136C265.181 24.1591 264.855 24.233 264.552 24.3352C264.253 24.4337 264.011 24.5833 263.825 24.7841C263.643 24.9811 263.552 25.25 263.552 25.5909C263.552 26.0568 263.725 26.4091 264.069 26.6477C264.418 26.8826 264.859 27 265.393 27ZM272.657 22.75V28H271.316V19.2727H272.611V20.6364H272.725C272.93 20.1932 273.24 19.8371 273.657 19.5682C274.074 19.2955 274.611 19.1591 275.271 19.1591C275.861 19.1591 276.379 19.2803 276.822 19.5227C277.265 19.7614 277.61 20.125 277.856 20.6136C278.102 21.0985 278.225 21.7121 278.225 22.4545V28H276.884V22.5455C276.884 21.8598 276.706 21.3258 276.35 20.9432C275.994 20.5568 275.505 20.3636 274.884 20.3636C274.456 20.3636 274.074 20.4564 273.736 20.642C273.403 20.8277 273.14 21.0985 272.947 21.4545C272.754 21.8106 272.657 22.2424 272.657 22.75ZM288.081 28.1818C287.293 28.1818 286.602 27.9943 286.007 27.6193C285.416 27.2443 284.954 26.7197 284.621 26.0455C284.291 25.3712 284.126 24.5833 284.126 23.6818C284.126 22.7727 284.291 21.9792 284.621 21.3011C284.954 20.6231 285.416 20.0966 286.007 19.7216C286.602 19.3466 287.293 19.1591 288.081 19.1591C288.869 19.1591 289.558 19.3466 290.149 19.7216C290.744 20.0966 291.206 20.6231 291.535 21.3011C291.869 21.9792 292.035 22.7727 292.035 23.6818C292.035 24.5833 291.869 25.3712 291.535 26.0455C291.206 26.7197 290.744 27.2443 290.149 27.6193C289.558 27.9943 288.869 28.1818 288.081 28.1818ZM288.081 26.9773C288.679 26.9773 289.172 26.8239 289.558 26.517C289.944 26.2102 290.23 25.8068 290.416 25.3068C290.602 24.8068 290.694 24.2652 290.694 23.6818C290.694 23.0985 290.602 22.5549 290.416 22.0511C290.23 21.5473 289.944 21.1402 289.558 20.8295C289.172 20.5189 288.679 20.3636 288.081 20.3636C287.482 20.3636 286.99 20.5189 286.604 20.8295C286.217 21.1402 285.931 21.5473 285.746 22.0511C285.56 22.5549 285.467 23.0985 285.467 23.6818C285.467 24.2652 285.56 24.8068 285.746 25.3068C285.931 25.8068 286.217 26.2102 286.604 26.517C286.99 26.8239 287.482 26.9773 288.081 26.9773ZM293.762 31.2727V19.2727H295.058V20.6591H295.217C295.315 20.5076 295.452 20.3144 295.626 20.0795C295.804 19.8409 296.058 19.6288 296.387 19.4432C296.721 19.2538 297.171 19.1591 297.74 19.1591C298.474 19.1591 299.122 19.3428 299.683 19.7102C300.243 20.0777 300.681 20.5985 300.995 21.2727C301.31 21.947 301.467 22.7424 301.467 23.6591C301.467 24.5833 301.31 25.3845 300.995 26.0625C300.681 26.7367 300.245 27.2595 299.688 27.6307C299.132 27.9981 298.49 28.1818 297.762 28.1818C297.202 28.1818 296.753 28.089 296.416 27.9034C296.079 27.714 295.819 27.5 295.637 27.2614C295.455 27.0189 295.315 26.8182 295.217 26.6591H295.103V31.2727H293.762ZM295.08 23.6364C295.08 24.2955 295.177 24.8769 295.37 25.3807C295.563 25.8807 295.846 26.2727 296.217 26.5568C296.588 26.8371 297.043 26.9773 297.58 26.9773C298.141 26.9773 298.609 26.8295 298.984 26.5341C299.363 26.2348 299.647 25.8333 299.836 25.3295C300.029 24.822 300.126 24.2576 300.126 23.6364C300.126 23.0227 300.031 22.4697 299.842 21.9773C299.656 21.4811 299.374 21.089 298.995 20.8011C298.62 20.5095 298.149 20.3636 297.58 20.3636C297.035 20.3636 296.577 20.5019 296.205 20.7784C295.834 21.0511 295.554 21.4337 295.365 21.9261C295.175 22.4148 295.08 22.9848 295.08 23.6364ZM306.988 19.2727V20.4091H302.465V19.2727H306.988ZM303.783 17.1818H305.124V25.5C305.124 25.8788 305.179 26.1629 305.289 26.3523C305.402 26.5379 305.546 26.6629 305.721 26.7273C305.899 26.7879 306.086 26.8182 306.283 26.8182C306.431 26.8182 306.552 26.8106 306.647 26.7955C306.742 26.7765 306.817 26.7614 306.874 26.75L307.147 27.9545C307.056 27.9886 306.929 28.0227 306.766 28.0568C306.603 28.0947 306.397 28.1136 306.147 28.1136C305.768 28.1136 305.397 28.0322 305.033 27.8693C304.673 27.7064 304.374 27.4583 304.135 27.125C303.901 26.7917 303.783 26.3712 303.783 25.8636V17.1818ZM308.685 28V19.2727H310.026V28H308.685ZM309.367 17.8182C309.105 17.8182 308.88 17.7292 308.69 17.5511C308.505 17.3731 308.412 17.1591 308.412 16.9091C308.412 16.6591 308.505 16.4451 308.69 16.267C308.88 16.089 309.105 16 309.367 16C309.628 16 309.851 16.089 310.037 16.267C310.226 16.4451 310.321 16.6591 310.321 16.9091C310.321 17.1591 310.226 17.3731 310.037 17.5511C309.851 17.7292 309.628 17.8182 309.367 17.8182ZM315.707 28.1818C314.919 28.1818 314.228 27.9943 313.633 27.6193C313.042 27.2443 312.58 26.7197 312.247 26.0455C311.917 25.3712 311.753 24.5833 311.753 23.6818C311.753 22.7727 311.917 21.9792 312.247 21.3011C312.58 20.6231 313.042 20.0966 313.633 19.7216C314.228 19.3466 314.919 19.1591 315.707 19.1591C316.495 19.1591 317.184 19.3466 317.775 19.7216C318.37 20.0966 318.832 20.6231 319.162 21.3011C319.495 21.9792 319.662 22.7727 319.662 23.6818C319.662 24.5833 319.495 25.3712 319.162 26.0455C318.832 26.7197 318.37 27.2443 317.775 27.6193C317.184 27.9943 316.495 28.1818 315.707 28.1818ZM315.707 26.9773C316.306 26.9773 316.798 26.8239 317.184 26.517C317.571 26.2102 317.857 25.8068 318.042 25.3068C318.228 24.8068 318.321 24.2652 318.321 23.6818C318.321 23.0985 318.228 22.5549 318.042 22.0511C317.857 21.5473 317.571 21.1402 317.184 20.8295C316.798 20.5189 316.306 20.3636 315.707 20.3636C315.109 20.3636 314.616 20.5189 314.23 20.8295C313.843 21.1402 313.557 21.5473 313.372 22.0511C313.186 22.5549 313.093 23.0985 313.093 23.6818C313.093 24.2652 313.186 24.8068 313.372 25.3068C313.557 25.8068 313.843 26.2102 314.23 26.517C314.616 26.8239 315.109 26.9773 315.707 26.9773ZM322.729 22.75V28H321.389V19.2727H322.684V20.6364H322.798C323.002 20.1932 323.313 19.8371 323.729 19.5682C324.146 19.2955 324.684 19.1591 325.343 19.1591C325.934 19.1591 326.451 19.2803 326.894 19.5227C327.337 19.7614 327.682 20.125 327.928 20.6136C328.175 21.0985 328.298 21.7121 328.298 22.4545V28H326.957V22.5455C326.957 21.8598 326.779 21.3258 326.423 20.9432C326.067 20.5568 325.578 20.3636 324.957 20.3636C324.529 20.3636 324.146 20.4564 323.809 20.642C323.476 20.8277 323.212 21.0985 323.019 21.4545C322.826 21.8106 322.729 22.2424 322.729 22.75ZM337.176 28.2045C336.623 28.2045 336.121 28.1004 335.67 27.892C335.22 27.6799 334.862 27.375 334.597 26.9773C334.331 26.5758 334.199 26.0909 334.199 25.5227C334.199 25.0227 334.297 24.6174 334.494 24.3068C334.691 23.9924 334.954 23.7462 335.284 23.5682C335.614 23.3902 335.977 23.2576 336.375 23.1705C336.776 23.0795 337.18 23.0076 337.585 22.9545C338.115 22.8864 338.545 22.8352 338.875 22.8011C339.208 22.7633 339.451 22.7008 339.602 22.6136C339.758 22.5265 339.835 22.375 339.835 22.1591V22.1136C339.835 21.553 339.682 21.1174 339.375 20.8068C339.072 20.4962 338.612 20.3409 337.994 20.3409C337.354 20.3409 336.852 20.4811 336.489 20.7614C336.125 21.0417 335.869 21.3409 335.722 21.6591L334.449 21.2045C334.676 20.6742 334.979 20.2614 335.358 19.9659C335.74 19.6667 336.157 19.4583 336.608 19.3409C337.062 19.2197 337.509 19.1591 337.949 19.1591C338.229 19.1591 338.551 19.1932 338.915 19.2614C339.282 19.3258 339.636 19.4602 339.977 19.6648C340.322 19.8693 340.608 20.178 340.835 20.5909C341.062 21.0038 341.176 21.5568 341.176 22.25V28H339.835V26.8182H339.767C339.676 27.0076 339.525 27.2102 339.312 27.4261C339.1 27.642 338.818 27.8258 338.466 27.9773C338.114 28.1288 337.684 28.2045 337.176 28.2045ZM337.381 27C337.911 27 338.358 26.8958 338.722 26.6875C339.089 26.4792 339.365 26.2102 339.551 25.8807C339.74 25.5511 339.835 25.2045 339.835 24.8409V23.6136C339.778 23.6818 339.653 23.7443 339.46 23.8011C339.271 23.8542 339.051 23.9015 338.801 23.9432C338.555 23.9811 338.314 24.0152 338.079 24.0455C337.848 24.072 337.661 24.0947 337.517 24.1136C337.169 24.1591 336.843 24.233 336.54 24.3352C336.24 24.4337 335.998 24.5833 335.812 24.7841C335.631 24.9811 335.54 25.25 335.54 25.5909C335.54 26.0568 335.712 26.4091 336.057 26.6477C336.405 26.8826 336.847 27 337.381 27ZM350.127 19.2727L346.9 28H345.536L342.309 19.2727H343.764L346.173 26.2273H346.264L348.673 19.2727H350.127ZM353.88 28.2045C353.327 28.2045 352.825 28.1004 352.374 27.892C351.923 27.6799 351.565 27.375 351.3 26.9773C351.035 26.5758 350.903 26.0909 350.903 25.5227C350.903 25.0227 351.001 24.6174 351.198 24.3068C351.395 23.9924 351.658 23.7462 351.988 23.5682C352.317 23.3902 352.681 23.2576 353.079 23.1705C353.48 23.0795 353.884 23.0076 354.289 22.9545C354.819 22.8864 355.249 22.8352 355.579 22.8011C355.912 22.7633 356.154 22.7008 356.306 22.6136C356.461 22.5265 356.539 22.375 356.539 22.1591V22.1136C356.539 21.553 356.386 21.1174 356.079 20.8068C355.776 20.4962 355.315 20.3409 354.698 20.3409C354.058 20.3409 353.556 20.4811 353.192 20.7614C352.829 21.0417 352.573 21.3409 352.425 21.6591L351.153 21.2045C351.38 20.6742 351.683 20.2614 352.062 19.9659C352.444 19.6667 352.861 19.4583 353.312 19.3409C353.766 19.2197 354.213 19.1591 354.653 19.1591C354.933 19.1591 355.255 19.1932 355.618 19.2614C355.986 19.3258 356.34 19.4602 356.681 19.6648C357.026 19.8693 357.312 20.178 357.539 20.5909C357.766 21.0038 357.88 21.5568 357.88 22.25V28H356.539V26.8182H356.471C356.38 27.0076 356.228 27.2102 356.016 27.4261C355.804 27.642 355.522 27.8258 355.17 27.9773C354.817 28.1288 354.387 28.2045 353.88 28.2045ZM354.084 27C354.615 27 355.062 26.8958 355.425 26.6875C355.793 26.4792 356.069 26.2102 356.255 25.8807C356.444 25.5511 356.539 25.2045 356.539 24.8409V23.6136C356.482 23.6818 356.357 23.7443 356.164 23.8011C355.975 23.8542 355.755 23.9015 355.505 23.9432C355.259 23.9811 355.018 24.0152 354.783 24.0455C354.552 24.072 354.365 24.0947 354.221 24.1136C353.872 24.1591 353.547 24.233 353.243 24.3352C352.944 24.4337 352.702 24.5833 352.516 24.7841C352.334 24.9811 352.243 25.25 352.243 25.5909C352.243 26.0568 352.416 26.4091 352.761 26.6477C353.109 26.8826 353.55 27 354.084 27ZM360.007 28V19.2727H361.348V28H360.007ZM360.689 17.8182C360.428 17.8182 360.202 17.7292 360.013 17.5511C359.827 17.3731 359.735 17.1591 359.735 16.9091C359.735 16.6591 359.827 16.4451 360.013 16.267C360.202 16.089 360.428 16 360.689 16C360.95 16 361.174 16.089 361.36 16.267C361.549 16.4451 361.644 16.6591 361.644 16.9091C361.644 17.1591 361.549 17.3731 361.36 17.5511C361.174 17.7292 360.95 17.8182 360.689 17.8182ZM364.825 16.3636V28H363.484V16.3636H364.825ZM369.529 28.2045C368.976 28.2045 368.474 28.1004 368.024 27.892C367.573 27.6799 367.215 27.375 366.95 26.9773C366.685 26.5758 366.552 26.0909 366.552 25.5227C366.552 25.0227 366.65 24.6174 366.847 24.3068C367.044 23.9924 367.308 23.7462 367.637 23.5682C367.967 23.3902 368.33 23.2576 368.728 23.1705C369.13 23.0795 369.533 23.0076 369.938 22.9545C370.469 22.8864 370.899 22.8352 371.228 22.8011C371.561 22.7633 371.804 22.7008 371.955 22.6136C372.111 22.5265 372.188 22.375 372.188 22.1591V22.1136C372.188 21.553 372.035 21.1174 371.728 20.8068C371.425 20.4962 370.965 20.3409 370.347 20.3409C369.707 20.3409 369.205 20.4811 368.842 20.7614C368.478 21.0417 368.222 21.3409 368.075 21.6591L366.802 21.2045C367.029 20.6742 367.332 20.2614 367.711 19.9659C368.094 19.6667 368.51 19.4583 368.961 19.3409C369.416 19.2197 369.863 19.1591 370.302 19.1591C370.582 19.1591 370.904 19.1932 371.268 19.2614C371.635 19.3258 371.989 19.4602 372.33 19.6648C372.675 19.8693 372.961 20.178 373.188 20.5909C373.416 21.0038 373.529 21.5568 373.529 22.25V28H372.188V26.8182H372.12C372.029 27.0076 371.878 27.2102 371.666 27.4261C371.453 27.642 371.171 27.8258 370.819 27.9773C370.467 28.1288 370.037 28.2045 369.529 28.2045ZM369.734 27C370.264 27 370.711 26.8958 371.075 26.6875C371.442 26.4792 371.719 26.2102 371.904 25.8807C372.094 25.5511 372.188 25.2045 372.188 24.8409V23.6136C372.131 23.6818 372.006 23.7443 371.813 23.8011C371.624 23.8542 371.404 23.9015 371.154 23.9432C370.908 23.9811 370.667 24.0152 370.433 24.0455C370.202 24.072 370.014 24.0947 369.87 24.1136C369.522 24.1591 369.196 24.233 368.893 24.3352C368.594 24.4337 368.351 24.5833 368.166 24.7841C367.984 24.9811 367.893 25.25 367.893 25.5909C367.893 26.0568 368.065 26.4091 368.41 26.6477C368.758 26.8826 369.2 27 369.734 27ZM375.838 28V16.3636H377.179V20.6591H377.293C377.392 20.5076 377.528 20.3144 377.702 20.0795C377.88 19.8409 378.134 19.6288 378.463 19.4432C378.797 19.2538 379.248 19.1591 379.816 19.1591C380.551 19.1591 381.198 19.3428 381.759 19.7102C382.32 20.0777 382.757 20.5985 383.071 21.2727C383.386 21.947 383.543 22.7424 383.543 23.6591C383.543 24.5833 383.386 25.3845 383.071 26.0625C382.757 26.7367 382.321 27.2595 381.765 27.6307C381.208 27.9981 380.566 28.1818 379.838 28.1818C379.278 28.1818 378.829 28.089 378.492 27.9034C378.155 27.714 377.895 27.5 377.713 27.2614C377.532 27.0189 377.392 26.8182 377.293 26.6591H377.134V28H375.838ZM377.157 23.6364C377.157 24.2955 377.253 24.8769 377.446 25.3807C377.64 25.8807 377.922 26.2727 378.293 26.5568C378.664 26.8371 379.119 26.9773 379.657 26.9773C380.217 26.9773 380.685 26.8295 381.06 26.5341C381.439 26.2348 381.723 25.8333 381.912 25.3295C382.106 24.822 382.202 24.2576 382.202 23.6364C382.202 23.0227 382.107 22.4697 381.918 21.9773C381.732 21.4811 381.45 21.089 381.071 20.8011C380.696 20.5095 380.225 20.3636 379.657 20.3636C379.111 20.3636 378.653 20.5019 378.282 20.7784C377.91 21.0511 377.63 21.4337 377.441 21.9261C377.251 22.4148 377.157 22.9848 377.157 23.6364ZM386.615 16.3636V28H385.274V16.3636H386.615ZM392.41 28.1818C391.569 28.1818 390.844 27.9962 390.234 27.625C389.628 27.25 389.16 26.7273 388.831 26.0568C388.505 25.3826 388.342 24.5985 388.342 23.7045C388.342 22.8106 388.505 22.0227 388.831 21.3409C389.16 20.6553 389.618 20.1212 390.206 19.7386C390.796 19.3523 391.486 19.1591 392.274 19.1591C392.728 19.1591 393.177 19.2348 393.62 19.3864C394.064 19.5379 394.467 19.7841 394.831 20.125C395.194 20.4621 395.484 20.9091 395.7 21.4659C395.916 22.0227 396.024 22.7083 396.024 23.5227V24.0909H389.296V22.9318H394.66C394.66 22.4394 394.562 22 394.365 21.6136C394.171 21.2273 393.895 20.9223 393.535 20.6989C393.179 20.4754 392.759 20.3636 392.274 20.3636C391.74 20.3636 391.278 20.4962 390.887 20.7614C390.501 21.0227 390.204 21.3636 389.995 21.7841C389.787 22.2045 389.683 22.6553 389.683 23.1364V23.9091C389.683 24.5682 389.796 25.1269 390.024 25.5852C390.255 26.0398 390.575 26.3864 390.984 26.625C391.393 26.8598 391.868 26.9773 392.41 26.9773C392.762 26.9773 393.081 26.928 393.365 26.8295C393.653 26.7273 393.901 26.5758 394.109 26.375C394.317 26.1705 394.478 25.9167 394.592 25.6136L395.887 25.9773C395.751 26.4167 395.522 26.803 395.2 27.1364C394.878 27.4659 394.48 27.7235 394.007 27.9091C393.533 28.0909 393.001 28.1818 392.41 28.1818Z" fill="#4B5563"/>
<path d="M435 13.75C433.22 13.75 431.48 14.2778 430 15.2668C428.52 16.2557 427.366 17.6613 426.685 19.3059C426.004 20.9504 425.826 22.76 426.173 24.5058C426.52 26.2516 427.377 27.8553 428.636 29.114C429.895 30.3726 431.498 31.2298 433.244 31.5771C434.99 31.9243 436.8 31.7461 438.444 31.0649C440.089 30.3837 441.494 29.2302 442.483 27.7501C443.472 26.2701 444 24.53 444 22.75C443.997 20.3639 443.048 18.0763 441.361 16.3891C439.674 14.7018 437.386 13.7527 435 13.75ZM435 30.25C433.517 30.25 432.067 29.8101 430.833 28.986C429.6 28.1619 428.639 26.9906 428.071 25.6201C427.503 24.2497 427.355 22.7417 427.644 21.2868C427.934 19.832 428.648 18.4956 429.697 17.4467C430.746 16.3978 432.082 15.6835 433.537 15.3941C434.992 15.1047 436.5 15.2532 437.87 15.8209C439.241 16.3886 440.412 17.3499 441.236 18.5832C442.06 19.8166 442.5 21.2666 442.5 22.75C442.498 24.7384 441.707 26.6448 440.301 28.0508C438.895 29.4569 436.988 30.2478 435 30.25ZM439.281 18.4694C439.35 18.539 439.406 18.6217 439.443 18.7128C439.481 18.8038 439.501 18.9014 439.501 19C439.501 19.0986 439.481 19.1962 439.443 19.2872C439.406 19.3783 439.35 19.461 439.281 19.5306L435.531 23.2806C435.461 23.3503 435.378 23.4056 435.287 23.4433C435.196 23.481 435.099 23.5004 435 23.5004C434.901 23.5004 434.804 23.481 434.713 23.4433C434.622 23.4056 434.539 23.3503 434.469 23.2806C434.4 23.2109 434.344 23.1282 434.307 23.0372C434.269 22.9461 434.25 22.8485 434.25 22.75C434.25 22.6515 434.269 22.5539 434.307 22.4628C434.344 22.3718 434.4 22.2891 434.469 22.2194L438.219 18.4694C438.289 18.3996 438.372 18.3443 438.463 18.3066C438.554 18.2688 438.651 18.2494 438.75 18.2494C438.849 18.2494 438.946 18.2688 439.037 18.3066C439.128 18.3443 439.211 18.3996 439.281 18.4694ZM432 11.5C432 11.3011 432.079 11.1103 432.22 10.9697C432.36 10.829 432.551 10.75 432.75 10.75H437.25C437.449 10.75 437.64 10.829 437.78 10.9697C437.921 11.1103 438 11.3011 438 11.5C438 11.6989 437.921 11.8897 437.78 12.0303C437.64 12.171 437.449 12.25 437.25 12.25H432.75C432.551 12.25 432.36 12.171 432.22 12.0303C432.079 11.8897 432 11.6989 432 11.5Z" fill="#FF7A18"/>
<path d="M460.886 16.3636L464.341 26.1591H464.477L467.932 16.3636H469.409L465.136 28H463.682L459.409 16.3636H460.886ZM470.72 28V19.2727H472.061V28H470.72ZM471.402 17.8182C471.14 17.8182 470.915 17.7292 470.725 17.5511C470.54 17.3731 470.447 17.1591 470.447 16.9091C470.447 16.6591 470.54 16.4451 470.725 16.267C470.915 16.089 471.14 16 471.402 16C471.663 16 471.886 16.089 472.072 16.267C472.261 16.4451 472.356 16.6591 472.356 16.9091C472.356 17.1591 472.261 17.3731 472.072 17.5511C471.886 17.7292 471.663 17.8182 471.402 17.8182ZM477.856 28.1818C477.015 28.1818 476.289 27.9962 475.68 27.625C475.074 27.25 474.606 26.7273 474.276 26.0568C473.95 25.3826 473.788 24.5985 473.788 23.7045C473.788 22.8106 473.95 22.0227 474.276 21.3409C474.606 20.6553 475.064 20.1212 475.651 19.7386C476.242 19.3523 476.931 19.1591 477.719 19.1591C478.174 19.1591 478.623 19.2348 479.066 19.3864C479.509 19.5379 479.913 19.7841 480.276 20.125C480.64 20.4621 480.93 20.9091 481.146 21.4659C481.361 22.0227 481.469 22.7083 481.469 23.5227V24.0909H474.742V22.9318H480.106C480.106 22.4394 480.007 22 479.81 21.6136C479.617 21.2273 479.341 20.9223 478.981 20.6989C478.625 20.4754 478.204 20.3636 477.719 20.3636C477.185 20.3636 476.723 20.4962 476.333 20.7614C475.947 21.0227 475.649 21.3636 475.441 21.7841C475.233 22.2045 475.128 22.6553 475.128 23.1364V23.9091C475.128 24.5682 475.242 25.1269 475.469 25.5852C475.7 26.0398 476.021 26.3864 476.43 26.625C476.839 26.8598 477.314 26.9773 477.856 26.9773C478.208 26.9773 478.526 26.928 478.81 26.8295C479.098 26.7273 479.346 26.5758 479.555 26.375C479.763 26.1705 479.924 25.9167 480.038 25.6136L481.333 25.9773C481.197 26.4167 480.967 26.803 480.646 27.1364C480.324 27.4659 479.926 27.7235 479.452 27.9091C478.979 28.0909 478.447 28.1818 477.856 28.1818ZM485.166 28L482.507 19.2727H483.916L485.803 25.9545H485.894L487.757 19.2727H489.189L491.03 25.9318H491.121L493.007 19.2727H494.416L491.757 28H490.439L488.53 21.2955H488.394L486.485 28H485.166ZM500.708 28H499.231L503.504 16.3636H504.958L509.231 28H507.754L504.276 18.2045H504.186L500.708 28ZM501.254 23.4545H507.208V24.7045H501.254V23.4545ZM511.883 16.3636V28H510.542V16.3636H511.883ZM515.359 16.3636V28H514.019V16.3636H515.359ZM521.154 28.1818C520.314 28.1818 519.588 27.9962 518.978 27.625C518.372 27.25 517.904 26.7273 517.575 26.0568C517.249 25.3826 517.086 24.5985 517.086 23.7045C517.086 22.8106 517.249 22.0227 517.575 21.3409C517.904 20.6553 518.363 20.1212 518.95 19.7386C519.541 19.3523 520.23 19.1591 521.018 19.1591C521.473 19.1591 521.922 19.2348 522.365 19.3864C522.808 19.5379 523.211 19.7841 523.575 20.125C523.939 20.4621 524.228 20.9091 524.444 21.4659C524.66 22.0227 524.768 22.7083 524.768 23.5227V24.0909H518.041V22.9318H523.404C523.404 22.4394 523.306 22 523.109 21.6136C522.916 21.2273 522.639 20.9223 522.279 20.6989C521.923 20.4754 521.503 20.3636 521.018 20.3636C520.484 20.3636 520.022 20.4962 519.632 20.7614C519.245 21.0227 518.948 21.3636 518.74 21.7841C518.531 22.2045 518.427 22.6553 518.427 23.1364V23.9091C518.427 24.5682 518.541 25.1269 518.768 25.5852C518.999 26.0398 519.319 26.3864 519.728 26.625C520.137 26.8598 520.613 26.9773 521.154 26.9773C521.507 26.9773 521.825 26.928 522.109 26.8295C522.397 26.7273 522.645 26.5758 522.853 26.375C523.062 26.1705 523.223 25.9167 523.336 25.6136L524.632 25.9773C524.495 26.4167 524.266 26.803 523.944 27.1364C523.622 27.4659 523.225 27.7235 522.751 27.9091C522.278 28.0909 521.745 28.1818 521.154 28.1818ZM526.488 28V19.2727H527.783V20.5909H527.874C528.033 20.1591 528.321 19.8087 528.738 19.5398C529.155 19.2708 529.624 19.1364 530.147 19.1364C530.245 19.1364 530.369 19.1383 530.516 19.142C530.664 19.1458 530.776 19.1515 530.852 19.1591V20.5227C530.806 20.5114 530.702 20.4943 530.539 20.4716C530.38 20.4451 530.211 20.4318 530.033 20.4318C529.609 20.4318 529.23 20.5208 528.897 20.6989C528.567 20.8731 528.306 21.1155 528.113 21.4261C527.924 21.733 527.829 22.0833 527.829 22.4773V28H526.488ZM535.378 31.4545C534.73 31.4545 534.174 31.3712 533.708 31.2045C533.242 31.0417 532.854 30.8258 532.543 30.5568C532.236 30.2917 531.992 30.0076 531.81 29.7045L532.878 28.9545C532.999 29.1136 533.153 29.2955 533.338 29.5C533.524 29.7083 533.778 29.8883 534.1 30.0398C534.425 30.1951 534.852 30.2727 535.378 30.2727C536.083 30.2727 536.664 30.1023 537.122 29.7614C537.581 29.4205 537.81 28.8864 537.81 28.1591V26.3864H537.696C537.598 26.5455 537.458 26.7424 537.276 26.9773C537.098 27.2083 536.84 27.4148 536.503 27.5966C536.17 27.7746 535.719 27.8636 535.151 27.8636C534.446 27.8636 533.814 27.697 533.253 27.3636C532.696 27.0303 532.255 26.5455 531.929 25.9091C531.607 25.2727 531.446 24.5 531.446 23.5909C531.446 22.697 531.604 21.9186 531.918 21.2557C532.232 20.589 532.67 20.0739 533.23 19.7102C533.791 19.3428 534.439 19.1591 535.174 19.1591C535.742 19.1591 536.193 19.2538 536.526 19.4432C536.863 19.6288 537.121 19.8409 537.299 20.0795C537.48 20.3144 537.621 20.5076 537.719 20.6591H537.855V19.2727H539.151V28.25C539.151 29 538.98 29.6098 538.639 30.0795C538.302 30.553 537.848 30.8996 537.276 31.1193C536.708 31.3428 536.075 31.4545 535.378 31.4545ZM535.333 26.6591C535.871 26.6591 536.325 26.536 536.696 26.2898C537.068 26.0436 537.35 25.6894 537.543 25.2273C537.736 24.7652 537.833 24.2121 537.833 23.5682C537.833 22.9394 537.738 22.3845 537.549 21.9034C537.359 21.4223 537.079 21.0455 536.708 20.7727C536.336 20.5 535.878 20.3636 535.333 20.3636C534.764 20.3636 534.291 20.5076 533.912 20.7955C533.537 21.0833 533.255 21.4697 533.066 21.9545C532.88 22.4394 532.787 22.9773 532.787 23.5682C532.787 24.1742 532.882 24.7102 533.071 25.1761C533.264 25.6383 533.549 26.0019 533.924 26.267C534.302 26.5284 534.772 26.6591 535.333 26.6591ZM541.285 28V19.2727H542.626V28H541.285ZM541.967 17.8182C541.706 17.8182 541.48 17.7292 541.291 17.5511C541.105 17.3731 541.013 17.1591 541.013 16.9091C541.013 16.6591 541.105 16.4451 541.291 16.267C541.48 16.089 541.706 16 541.967 16C542.229 16 542.452 16.089 542.638 16.267C542.827 16.4451 542.922 16.6591 542.922 16.9091C542.922 17.1591 542.827 17.3731 542.638 17.5511C542.452 17.7292 542.229 17.8182 541.967 17.8182ZM548.421 28.1818C547.58 28.1818 546.855 27.9962 546.245 27.625C545.639 27.25 545.171 26.7273 544.842 26.0568C544.516 25.3826 544.353 24.5985 544.353 23.7045C544.353 22.8106 544.516 22.0227 544.842 21.3409C545.171 20.6553 545.63 20.1212 546.217 19.7386C546.808 19.3523 547.497 19.1591 548.285 19.1591C548.74 19.1591 549.188 19.2348 549.632 19.3864C550.075 19.5379 550.478 19.7841 550.842 20.125C551.205 20.4621 551.495 20.9091 551.711 21.4659C551.927 22.0227 552.035 22.7083 552.035 23.5227V24.0909H545.308V22.9318H550.671C550.671 22.4394 550.573 22 550.376 21.6136C550.183 21.2273 549.906 20.9223 549.546 20.6989C549.19 20.4754 548.77 20.3636 548.285 20.3636C547.751 20.3636 547.289 20.4962 546.899 20.7614C546.512 21.0227 546.215 21.3636 546.007 21.7841C545.798 22.2045 545.694 22.6553 545.694 23.1364V23.9091C545.694 24.5682 545.808 25.1269 546.035 25.5852C546.266 26.0398 546.586 26.3864 546.995 26.625C547.404 26.8598 547.88 26.9773 548.421 26.9773C548.774 26.9773 549.092 26.928 549.376 26.8295C549.664 26.7273 549.912 26.5758 550.12 26.375C550.329 26.1705 550.49 25.9167 550.603 25.6136L551.899 25.9773C551.762 26.4167 551.533 26.803 551.211 27.1364C550.889 27.4659 550.491 27.7235 550.018 27.9091C549.544 28.0909 549.012 28.1818 548.421 28.1818ZM559.937 21.2273L558.732 21.5682C558.656 21.3674 558.545 21.1723 558.397 20.983C558.253 20.7898 558.056 20.6307 557.806 20.5057C557.556 20.3807 557.236 20.3182 556.846 20.3182C556.312 20.3182 555.867 20.4413 555.51 20.6875C555.158 20.9299 554.982 21.2386 554.982 21.6136C554.982 21.947 555.103 22.2102 555.346 22.4034C555.588 22.5966 555.967 22.7576 556.482 22.8864L557.777 23.2045C558.558 23.3939 559.139 23.6837 559.522 24.0739C559.904 24.4602 560.096 24.9583 560.096 25.5682C560.096 26.0682 559.952 26.5152 559.664 26.9091C559.38 27.303 558.982 27.6136 558.471 27.8409C557.959 28.0682 557.365 28.1818 556.687 28.1818C555.796 28.1818 555.06 27.9886 554.476 27.6023C553.893 27.2159 553.524 26.6515 553.368 25.9091L554.641 25.5909C554.762 26.0606 554.992 26.4129 555.329 26.6477C555.67 26.8826 556.115 27 556.664 27C557.289 27 557.785 26.8674 558.152 26.6023C558.524 26.3333 558.709 26.0114 558.709 25.6364C558.709 25.3333 558.603 25.0795 558.391 24.875C558.179 24.6667 557.853 24.5114 557.414 24.4091L555.959 24.0682C555.16 23.8788 554.573 23.5852 554.198 23.1875C553.827 22.786 553.641 22.2841 553.641 21.6818C553.641 21.1894 553.779 20.7538 554.056 20.375C554.336 19.9962 554.717 19.6989 555.198 19.483C555.683 19.267 556.232 19.1591 556.846 19.1591C557.709 19.1591 558.387 19.3485 558.88 19.7273C559.376 20.1061 559.728 20.6061 559.937 21.2273Z" fill="#1E88E5"/>
</svg>
