<svg width="372" height="235" viewBox="0 0 372 235" fill="none" xmlns="http://www.w3.org/2000/svg">
<path d="M12.4432 6.14773H10.6705C10.6023 5.76894 10.4754 5.43561 10.2898 5.14773C10.1042 4.85985 9.87689 4.61553 9.60795 4.41477C9.33902 4.21401 9.03788 4.0625 8.70455 3.96023C8.375 3.85795 8.02462 3.80682 7.65341 3.80682C6.98295 3.80682 6.38258 3.97538 5.85227 4.3125C5.32576 4.64962 4.90909 5.14394 4.60227 5.79545C4.29924 6.44697 4.14773 7.24242 4.14773 8.18182C4.14773 9.12879 4.29924 9.92803 4.60227 10.5795C4.90909 11.2311 5.32765 11.7235 5.85795 12.0568C6.38826 12.3902 6.98485 12.5568 7.64773 12.5568C8.01515 12.5568 8.36364 12.5076 8.69318 12.4091C9.02652 12.3068 9.32765 12.1572 9.59659 11.9602C9.86553 11.7633 10.0928 11.5227 10.2784 11.2386C10.4678 10.9508 10.5985 10.6212 10.6705 10.25L12.4432 10.2557C12.3485 10.8277 12.1648 11.3542 11.892 11.8352C11.6231 12.3125 11.2765 12.7254 10.8523 13.0739C10.4318 13.4186 9.95076 13.6856 9.40909 13.875C8.86742 14.0644 8.27652 14.1591 7.63636 14.1591C6.62879 14.1591 5.73106 13.9205 4.94318 13.4432C4.1553 12.9621 3.53409 12.2746 3.07955 11.3807C2.62879 10.4867 2.40341 9.42045 2.40341 8.18182C2.40341 6.93939 2.63068 5.87311 3.08523 4.98295C3.53977 4.08901 4.16098 3.40341 4.94886 2.92614C5.73674 2.44508 6.63258 2.20455 7.63636 2.20455C8.25379 2.20455 8.82955 2.29356 9.36364 2.47159C9.90152 2.64583 10.3845 2.90341 10.8125 3.24432C11.2405 3.58144 11.5947 3.99432 11.875 4.48295C12.1553 4.9678 12.3447 5.52273 12.4432 6.14773ZM16.9474 14.1932C16.3944 14.1932 15.8944 14.0909 15.4474 13.8864C15.0005 13.678 14.6463 13.3769 14.3849 12.983C14.1274 12.589 13.9986 12.1061 13.9986 11.5341C13.9986 11.0417 14.0933 10.6364 14.2827 10.3182C14.4721 10 14.7277 9.74811 15.0497 9.5625C15.3717 9.37689 15.7315 9.23674 16.1293 9.14205C16.527 9.04735 16.9323 8.97538 17.3452 8.92614C17.8679 8.86553 18.2921 8.81629 18.6179 8.77841C18.9437 8.73674 19.1804 8.67045 19.3281 8.57955C19.4759 8.48864 19.5497 8.34091 19.5497 8.13636V8.09659C19.5497 7.60038 19.4096 7.21591 19.1293 6.94318C18.8527 6.67045 18.4399 6.53409 17.8906 6.53409C17.3187 6.53409 16.8679 6.66098 16.5384 6.91477C16.2126 7.16477 15.9872 7.44318 15.8622 7.75L14.2656 7.38636C14.455 6.85606 14.7315 6.42803 15.0952 6.10227C15.4626 5.77273 15.8849 5.53409 16.3622 5.38636C16.8395 5.23485 17.3414 5.15909 17.8679 5.15909C18.2164 5.15909 18.5857 5.20076 18.9759 5.28409C19.3698 5.36364 19.7372 5.51136 20.0781 5.72727C20.4228 5.94318 20.705 6.25189 20.9247 6.65341C21.1444 7.05114 21.2543 7.56818 21.2543 8.20455V14H19.5952V12.8068H19.527C19.4171 13.0265 19.2524 13.2424 19.0327 13.4545C18.813 13.6667 18.5308 13.8428 18.1861 13.983C17.8414 14.1231 17.4285 14.1932 16.9474 14.1932ZM17.3168 12.8295C17.7865 12.8295 18.188 12.7367 18.5213 12.5511C18.8584 12.3655 19.1141 12.1231 19.2884 11.8239C19.4664 11.5208 19.5554 11.197 19.5554 10.8523V9.72727C19.4948 9.78788 19.3774 9.8447 19.2031 9.89773C19.0327 9.94697 18.8376 9.99053 18.6179 10.0284C18.3982 10.0625 18.1842 10.0947 17.9759 10.125C17.7675 10.1515 17.5933 10.1742 17.4531 10.1932C17.1236 10.2348 16.8224 10.3049 16.5497 10.4034C16.2808 10.5019 16.0649 10.6439 15.902 10.8295C15.7429 11.0114 15.6634 11.2538 15.6634 11.5568C15.6634 11.9773 15.8187 12.2955 16.1293 12.5114C16.4399 12.7235 16.8357 12.8295 17.3168 12.8295ZM23.517 14V5.27273H25.1591V6.65909H25.25C25.4091 6.18939 25.6894 5.82008 26.0909 5.55114C26.4962 5.27841 26.9545 5.14205 27.4659 5.14205C27.572 5.14205 27.697 5.14583 27.8409 5.15341C27.9886 5.16098 28.1042 5.17045 28.1875 5.18182V6.80682C28.1193 6.78788 27.9981 6.76705 27.8239 6.74432C27.6496 6.7178 27.4754 6.70455 27.3011 6.70455C26.8996 6.70455 26.5417 6.78977 26.2273 6.96023C25.9167 7.12689 25.6705 7.35985 25.4886 7.65909C25.3068 7.95455 25.2159 8.29167 25.2159 8.67045V14H23.517ZM32.6122 14.1705C31.9077 14.1705 31.2789 13.9905 30.7259 13.6307C30.1766 13.267 29.7448 12.75 29.4304 12.0795C29.1198 11.4053 28.9645 10.5966 28.9645 9.65341C28.9645 8.71023 29.1217 7.90341 29.4361 7.23295C29.7543 6.5625 30.1899 6.04924 30.7429 5.69318C31.2959 5.33712 31.9228 5.15909 32.6236 5.15909C33.1652 5.15909 33.6009 5.25 33.9304 5.43182C34.2637 5.60985 34.5213 5.81818 34.7031 6.05682C34.8887 6.29545 35.0327 6.50568 35.1349 6.6875H35.2372V2.36364H36.9361V14H35.277V12.642H35.1349C35.0327 12.8277 34.8849 13.0398 34.6918 13.2784C34.5024 13.517 34.241 13.7254 33.9077 13.9034C33.5743 14.0814 33.1425 14.1705 32.6122 14.1705ZM32.9872 12.7216C33.4759 12.7216 33.8887 12.5928 34.2259 12.3352C34.5668 12.0739 34.8243 11.7121 34.9986 11.25C35.1766 10.7879 35.2656 10.25 35.2656 9.63636C35.2656 9.0303 35.1785 8.5 35.0043 8.04545C34.83 7.59091 34.5743 7.23674 34.2372 6.98295C33.9001 6.72917 33.4834 6.60227 32.9872 6.60227C32.4759 6.60227 32.0497 6.73485 31.7088 7C31.3679 7.26515 31.1103 7.62689 30.9361 8.08523C30.7656 8.54356 30.6804 9.06061 30.6804 9.63636C30.6804 10.2197 30.7675 10.7443 30.9418 11.2102C31.116 11.6761 31.3736 12.0455 31.7145 12.3182C32.0592 12.5871 32.4834 12.7216 32.9872 12.7216ZM53.1236 2.36364V14H51.5099L45.5952 5.46591H45.4872V14H43.7315V2.36364H45.3565L51.277 10.9091H51.3849V2.36364H53.1236ZM61.0767 10.3807V5.27273H62.7812V14H61.1108V12.4886H61.0199C60.8191 12.9545 60.4972 13.3428 60.054 13.6534C59.6146 13.9602 59.0672 14.1136 58.4119 14.1136C57.8513 14.1136 57.3551 13.9905 56.9233 13.7443C56.4953 13.4943 56.1581 13.125 55.9119 12.6364C55.6695 12.1477 55.5483 11.5436 55.5483 10.8239V5.27273H57.2472V10.6193C57.2472 11.214 57.4119 11.6875 57.7415 12.0398C58.071 12.392 58.4991 12.5682 59.0256 12.5682C59.3438 12.5682 59.66 12.4886 59.9744 12.3295C60.2926 12.1705 60.5559 11.9299 60.7642 11.608C60.9763 11.286 61.0805 10.8769 61.0767 10.3807ZM65.0639 14V5.27273H66.6946V6.69318H66.8026C66.9844 6.21212 67.2817 5.83712 67.6946 5.56818C68.1075 5.29545 68.6018 5.15909 69.1776 5.15909C69.7609 5.15909 70.2495 5.29545 70.6435 5.56818C71.0412 5.84091 71.3348 6.21591 71.5241 6.69318H71.6151C71.8234 6.22727 72.1548 5.85606 72.6094 5.57955C73.0639 5.29924 73.6056 5.15909 74.2344 5.15909C75.026 5.15909 75.6719 5.4072 76.1719 5.90341C76.6757 6.39962 76.9276 7.14773 76.9276 8.14773V14H75.2287V8.30682C75.2287 7.71591 75.0677 7.28788 74.7457 7.02273C74.4238 6.75758 74.0393 6.625 73.5923 6.625C73.0393 6.625 72.6094 6.79545 72.3026 7.13636C71.9957 7.47348 71.8423 7.9072 71.8423 8.4375V14H70.1491V8.19886C70.1491 7.72538 70.0014 7.3447 69.706 7.05682C69.4105 6.76894 69.026 6.625 68.5526 6.625C68.2306 6.625 67.9332 6.71023 67.6605 6.88068C67.3916 7.04735 67.1738 7.2803 67.0071 7.57955C66.8442 7.87879 66.7628 8.22538 66.7628 8.61932V14H65.0639ZM79.3409 14V2.36364H81.0398V6.6875H81.142C81.2405 6.50568 81.3826 6.29545 81.5682 6.05682C81.7538 5.81818 82.0114 5.60985 82.3409 5.43182C82.6705 5.25 83.1061 5.15909 83.6477 5.15909C84.3523 5.15909 84.9811 5.33712 85.5341 5.69318C86.0871 6.04924 86.5208 6.5625 86.8352 7.23295C87.1534 7.90341 87.3125 8.71023 87.3125 9.65341C87.3125 10.5966 87.1553 11.4053 86.8409 12.0795C86.5265 12.75 86.0947 13.267 85.5455 13.6307C84.9962 13.9905 84.3693 14.1705 83.6648 14.1705C83.1345 14.1705 82.7008 14.0814 82.3636 13.9034C82.0303 13.7254 81.7689 13.517 81.5795 13.2784C81.3902 13.0398 81.2443 12.8277 81.142 12.642H81V14H79.3409ZM81.0057 9.63636C81.0057 10.25 81.0947 10.7879 81.2727 11.25C81.4508 11.7121 81.7083 12.0739 82.0455 12.3352C82.3826 12.5928 82.7955 12.7216 83.2841 12.7216C83.7917 12.7216 84.2159 12.5871 84.5568 12.3182C84.8977 12.0455 85.1553 11.6761 85.3295 11.2102C85.5076 10.7443 85.5966 10.2197 85.5966 9.63636C85.5966 9.06061 85.5095 8.54356 85.3352 8.08523C85.1648 7.62689 84.9072 7.26515 84.5625 7C84.2216 6.73485 83.7955 6.60227 83.2841 6.60227C82.7917 6.60227 82.375 6.72917 82.0341 6.98295C81.697 7.23674 81.4413 7.59091 81.267 8.04545C81.0928 8.5 81.0057 9.0303 81.0057 9.63636ZM92.9815 14.1761C92.1217 14.1761 91.3812 13.9924 90.7599 13.625C90.1425 13.2538 89.6652 12.733 89.3281 12.0625C88.9948 11.3883 88.8281 10.5985 88.8281 9.69318C88.8281 8.79924 88.9948 8.01136 89.3281 7.32955C89.6652 6.64773 90.1349 6.11553 90.7372 5.73295C91.3433 5.35038 92.0516 5.15909 92.8622 5.15909C93.3546 5.15909 93.8319 5.24053 94.294 5.40341C94.7562 5.56629 95.1709 5.82197 95.5384 6.17045C95.9058 6.51894 96.1955 6.97159 96.4077 7.52841C96.6198 8.08144 96.7259 8.75379 96.7259 9.54545V10.1477H89.7884V8.875H95.0611C95.0611 8.42803 94.9702 8.0322 94.7884 7.6875C94.6065 7.33902 94.3509 7.06439 94.0213 6.86364C93.6955 6.66288 93.313 6.5625 92.8736 6.5625C92.3963 6.5625 91.9796 6.67992 91.6236 6.91477C91.2713 7.14583 90.9986 7.44886 90.8054 7.82386C90.616 8.19508 90.5213 8.59848 90.5213 9.03409V10.0284C90.5213 10.6117 90.6236 11.108 90.8281 11.517C91.0365 11.9261 91.3262 12.2386 91.6974 12.4545C92.0687 12.6667 92.5024 12.7727 92.9986 12.7727C93.3205 12.7727 93.6141 12.7273 93.8793 12.6364C94.1444 12.5417 94.3736 12.4015 94.5668 12.2159C94.7599 12.0303 94.9077 11.8011 95.0099 11.5284L96.6179 11.8182C96.4891 12.2917 96.258 12.7064 95.9247 13.0625C95.5952 13.4148 95.1804 13.6894 94.6804 13.8864C94.1842 14.0795 93.6179 14.1761 92.9815 14.1761ZM98.6108 14V5.27273H100.253V6.65909H100.344C100.503 6.18939 100.783 5.82008 101.185 5.55114C101.59 5.27841 102.048 5.14205 102.56 5.14205C102.666 5.14205 102.791 5.14583 102.935 5.15341C103.082 5.16098 103.198 5.17045 103.281 5.18182V6.80682C103.213 6.78788 103.092 6.76705 102.918 6.74432C102.743 6.7178 102.569 6.70455 102.395 6.70455C101.993 6.70455 101.635 6.78977 101.321 6.96023C101.01 7.12689 100.764 7.35985 100.582 7.65909C100.401 7.95455 100.31 8.29167 100.31 8.67045V14H98.6108Z" fill="#0A0D13"/>
<rect x="0.75" y="32.25" width="370.5" height="47.5" rx="4.75" stroke="#ACACAC" stroke-width="1.5"/>
<path d="M22.7955 50.3636V62H21.3864V51.8409H21.3182L18.4773 53.7273V52.2955L21.3864 50.3636H22.7955ZM25.822 62V60.9773L29.663 56.7727C30.1137 56.2803 30.4849 55.8523 30.7766 55.4886C31.0683 55.1212 31.2842 54.7765 31.4243 54.4545C31.5683 54.1288 31.6402 53.7879 31.6402 53.4318C31.6402 53.0227 31.5417 52.6686 31.3448 52.3693C31.1516 52.0701 30.8864 51.839 30.5493 51.6761C30.2122 51.5133 29.8334 51.4318 29.413 51.4318C28.966 51.4318 28.5758 51.5246 28.2425 51.7102C27.913 51.892 27.6573 52.1477 27.4755 52.4773C27.2974 52.8068 27.2084 53.1932 27.2084 53.6364H25.8675C25.8675 52.9545 26.0247 52.3561 26.3391 51.8409C26.6535 51.3258 27.0815 50.9242 27.6232 50.6364C28.1686 50.3485 28.7804 50.2045 29.4584 50.2045C30.1402 50.2045 30.7444 50.3485 31.2709 50.6364C31.7974 50.9242 32.2103 51.3125 32.5095 51.8011C32.8088 52.2898 32.9584 52.8333 32.9584 53.4318C32.9584 53.8598 32.8808 54.2784 32.7255 54.6875C32.5739 55.0928 32.3088 55.5455 31.93 56.0455C31.555 56.5417 31.0342 57.1477 30.3675 57.8636L27.7539 60.6591V60.75H33.163V62H25.822ZM39.1214 62.1591C38.3714 62.1591 37.7028 62.0303 37.1157 61.7727C36.5323 61.5152 36.0683 61.1572 35.7236 60.6989C35.3827 60.2367 35.1971 59.7008 35.1668 59.0909H36.5986C36.6289 59.4659 36.7577 59.7898 36.985 60.0625C37.2123 60.3314 37.5096 60.5398 37.877 60.6875C38.2445 60.8352 38.6517 60.9091 39.0986 60.9091C39.5986 60.9091 40.0418 60.822 40.4282 60.6477C40.8145 60.4735 41.1176 60.2311 41.3373 59.9205C41.557 59.6098 41.6668 59.25 41.6668 58.8409C41.6668 58.4129 41.5608 58.036 41.3486 57.7102C41.1365 57.3807 40.8259 57.1231 40.4168 56.9375C40.0077 56.7519 39.5077 56.6591 38.9168 56.6591H37.985V55.4091H38.9168C39.3789 55.4091 39.7842 55.3258 40.1327 55.1591C40.485 54.9924 40.7596 54.7576 40.9566 54.4545C41.1573 54.1515 41.2577 53.7955 41.2577 53.3864C41.2577 52.9924 41.1706 52.6496 40.9964 52.358C40.8221 52.0663 40.5759 51.839 40.2577 51.6761C39.9433 51.5133 39.5721 51.4318 39.1441 51.4318C38.7426 51.4318 38.3638 51.5057 38.0077 51.6534C37.6555 51.7973 37.3676 52.0076 37.1441 52.2841C36.9206 52.5568 36.7994 52.8864 36.7805 53.2727H35.4168C35.4395 52.6629 35.6233 52.1288 35.968 51.6705C36.3127 51.2083 36.7634 50.8485 37.3202 50.5909C37.8808 50.3333 38.4964 50.2045 39.1668 50.2045C39.8865 50.2045 40.5039 50.3504 41.0191 50.642C41.5342 50.9299 41.9301 51.3106 42.2066 51.7841C42.4831 52.2576 42.6214 52.7689 42.6214 53.3182C42.6214 53.9735 42.449 54.5322 42.1043 54.9943C41.7634 55.4564 41.2994 55.7765 40.7123 55.9545V56.0455C41.4471 56.1667 42.021 56.4792 42.4339 56.983C42.8467 57.483 43.0532 58.1023 43.0532 58.8409C43.0532 59.4735 42.8808 60.0417 42.5361 60.5455C42.1952 61.0455 41.7293 61.4394 41.1384 61.7273C40.5475 62.0152 39.8752 62.1591 39.1214 62.1591ZM44.7843 59.6136V58.4545L49.898 50.3636H50.7389V52.1591H50.1707L46.307 58.2727V58.3636H53.1934V59.6136H44.7843ZM50.2616 62V59.2614V58.7216V50.3636H51.6025V62H50.2616ZM66.999 62.1591C66.3324 62.1591 65.732 62.0265 65.1979 61.7614C64.6638 61.4962 64.2358 61.1326 63.9138 60.6705C63.5918 60.2083 63.4157 59.6818 63.3854 59.0909H64.749C64.8021 59.6174 65.0407 60.053 65.4649 60.3977C65.893 60.7386 66.4043 60.9091 66.999 60.9091C67.4763 60.9091 67.9006 60.7973 68.2718 60.5739C68.6468 60.3504 68.9403 60.0436 69.1524 59.6534C69.3684 59.2595 69.4763 58.8144 69.4763 58.3182C69.4763 57.8106 69.3646 57.358 69.1411 56.9602C68.9214 56.5587 68.6184 56.2424 68.232 56.0114C67.8456 55.7803 67.4043 55.6629 66.9081 55.6591C66.5521 55.6553 66.1865 55.7102 65.8115 55.8239C65.4365 55.9337 65.1278 56.0758 64.8854 56.25L63.5672 56.0909L64.2718 50.3636H70.3172V51.6136H65.4536L65.0445 55.0455H65.1127C65.3513 54.8561 65.6506 54.6989 66.0104 54.5739C66.3702 54.4489 66.7452 54.3864 67.1354 54.3864C67.8475 54.3864 68.482 54.5568 69.0388 54.8977C69.5994 55.2348 70.0388 55.697 70.357 56.2841C70.679 56.8712 70.8399 57.5417 70.8399 58.2955C70.8399 59.0379 70.6733 59.7008 70.3399 60.2841C70.0104 60.8636 69.5559 61.322 68.9763 61.6591C68.3968 61.9924 67.7377 62.1591 66.999 62.1591ZM76.6407 62.1591C76.1634 62.1515 75.6861 62.0606 75.2089 61.8864C74.7316 61.7121 74.296 61.4186 73.902 61.0057C73.5081 60.589 73.1918 60.0265 72.9532 59.3182C72.7145 58.6061 72.5952 57.7121 72.5952 56.6364C72.5952 55.6061 72.6918 54.6932 72.885 53.8977C73.0782 53.0985 73.3585 52.4261 73.7259 51.8807C74.0933 51.3314 74.5365 50.9148 75.0555 50.6307C75.5782 50.3466 76.1672 50.2045 76.8225 50.2045C77.474 50.2045 78.0536 50.3352 78.5611 50.5966C79.0725 50.8542 79.4892 51.214 79.8111 51.6761C80.1331 52.1383 80.3414 52.6705 80.4361 53.2727H79.0498C78.921 52.75 78.671 52.3163 78.2998 51.9716C77.9286 51.6269 77.4361 51.4545 76.8225 51.4545C75.921 51.4545 75.2108 51.8466 74.6918 52.6307C74.1767 53.4148 73.9172 54.5152 73.9134 55.9318H74.0043C74.2164 55.6098 74.4683 55.3352 74.76 55.108C75.0555 54.8769 75.3812 54.6989 75.7373 54.5739C76.0933 54.4489 76.4702 54.3864 76.868 54.3864C77.5346 54.3864 78.1445 54.553 78.6975 54.8864C79.2505 55.2159 79.6937 55.6723 80.027 56.2557C80.3604 56.8352 80.527 57.5 80.527 58.25C80.527 58.9697 80.3661 59.6288 80.0441 60.2273C79.7221 60.822 79.2695 61.2955 78.6861 61.6477C78.1066 61.9962 77.4248 62.1667 76.6407 62.1591ZM76.6407 60.9091C77.118 60.9091 77.546 60.7898 77.9248 60.5511C78.3073 60.3125 78.6085 59.9924 78.8282 59.5909C79.0517 59.1894 79.1634 58.7424 79.1634 58.25C79.1634 57.7689 79.0555 57.3314 78.8395 56.9375C78.6274 56.5398 78.3339 56.2235 77.9589 55.9886C77.5876 55.7538 77.1634 55.6364 76.6861 55.6364C76.3263 55.6364 75.9911 55.7083 75.6805 55.8523C75.3698 55.9924 75.0971 56.1856 74.8623 56.4318C74.6312 56.678 74.4494 56.9602 74.3168 57.2784C74.1842 57.5928 74.118 57.9242 74.118 58.2727C74.118 58.7348 74.2259 59.1667 74.4418 59.5682C74.6615 59.9697 74.9608 60.2936 75.3395 60.5398C75.7221 60.786 76.1558 60.9091 76.6407 60.9091ZM82.8051 62L88.0096 51.7045V51.6136H82.0096V50.3636H89.4641V51.6818L84.2823 62H82.8051ZM94.7549 62.1591C93.9746 62.1591 93.2852 62.0208 92.6868 61.7443C92.0921 61.464 91.6281 61.0795 91.2947 60.5909C90.9614 60.0985 90.7966 59.5379 90.8004 58.9091C90.7966 58.4167 90.8932 57.9621 91.0902 57.5455C91.2871 57.125 91.5561 56.7746 91.897 56.4943C92.2417 56.2102 92.6262 56.0303 93.0504 55.9545V55.8864C92.4936 55.7424 92.0504 55.4299 91.7209 54.9489C91.3913 54.464 91.2284 53.9129 91.2322 53.2955C91.2284 52.7045 91.3781 52.1761 91.6811 51.7102C91.9841 51.2443 92.4008 50.8769 92.9311 50.608C93.4652 50.339 94.0731 50.2045 94.7549 50.2045C95.4292 50.2045 96.0315 50.339 96.5618 50.608C97.0921 50.8769 97.5087 51.2443 97.8118 51.7102C98.1186 52.1761 98.2739 52.7045 98.2777 53.2955C98.2739 53.9129 98.1053 54.464 97.772 54.9489C97.4424 55.4299 97.0049 55.7424 96.4595 55.8864V55.9545C96.8799 56.0303 97.2587 56.2102 97.5959 56.4943C97.933 56.7746 98.2019 57.125 98.4027 57.5455C98.6034 57.9621 98.7057 58.4167 98.7095 58.9091C98.7057 59.5379 98.5352 60.0985 98.1981 60.5909C97.8648 61.0795 97.4008 61.464 96.8061 61.7443C96.2152 62.0208 95.5315 62.1591 94.7549 62.1591ZM94.7549 60.9091C95.2815 60.9091 95.736 60.8239 96.1186 60.6534C96.5012 60.483 96.7966 60.2424 97.0049 59.9318C97.2133 59.6212 97.3193 59.2576 97.3231 58.8409C97.3193 58.4015 97.2057 58.0133 96.9822 57.6761C96.7587 57.339 96.4538 57.0739 96.0674 56.8807C95.6849 56.6875 95.2474 56.5909 94.7549 56.5909C94.2587 56.5909 93.8156 56.6875 93.4254 56.8807C93.039 57.0739 92.7341 57.339 92.5106 57.6761C92.2909 58.0133 92.183 58.4015 92.1868 58.8409C92.183 59.2576 92.2834 59.6212 92.4879 59.9318C92.6962 60.2424 92.9936 60.483 93.3799 60.6534C93.7663 60.8239 94.2246 60.9091 94.7549 60.9091ZM94.7549 55.3864C95.1716 55.3864 95.5409 55.303 95.8629 55.1364C96.1887 54.9697 96.4443 54.7367 96.6299 54.4375C96.8156 54.1383 96.9102 53.7879 96.914 53.3864C96.9102 52.9924 96.8174 52.6496 96.6356 52.358C96.4538 52.0625 96.2019 51.8352 95.8799 51.6761C95.558 51.5133 95.183 51.4318 94.7549 51.4318C94.3193 51.4318 93.9387 51.5133 93.6129 51.6761C93.2871 51.8352 93.0352 52.0625 92.8572 52.358C92.6792 52.6496 92.5921 52.9924 92.5959 53.3864C92.5921 53.7879 92.6811 54.1383 92.8629 54.4375C93.0485 54.7367 93.3042 54.9697 93.6299 55.1364C93.9557 55.303 94.3307 55.3864 94.7549 55.3864ZM112.632 50.2045C113.109 50.2083 113.586 50.2992 114.063 50.4773C114.541 50.6553 114.976 50.9508 115.37 51.3636C115.764 51.7727 116.08 52.3314 116.319 53.0398C116.558 53.7481 116.677 54.6364 116.677 55.7045C116.677 56.7386 116.579 57.6572 116.382 58.4602C116.188 59.2595 115.908 59.9337 115.541 60.483C115.177 61.0322 114.734 61.4489 114.211 61.733C113.692 62.017 113.105 62.1591 112.45 62.1591C111.798 62.1591 111.217 62.0303 110.705 61.7727C110.198 61.5114 109.781 61.1496 109.455 60.6875C109.133 60.2216 108.927 59.6818 108.836 59.0682H110.223C110.348 59.6023 110.596 60.0436 110.967 60.392C111.342 60.7367 111.836 60.9091 112.45 60.9091C113.348 60.9091 114.056 60.517 114.575 59.733C115.098 58.9489 115.359 57.8409 115.359 56.4091H115.268C115.056 56.7273 114.804 57.0019 114.512 57.233C114.221 57.464 113.897 57.642 113.541 57.767C113.185 57.892 112.806 57.9545 112.404 57.9545C111.738 57.9545 111.126 57.7898 110.569 57.4602C110.016 57.1269 109.573 56.6705 109.24 56.0909C108.91 55.5076 108.745 54.8409 108.745 54.0909C108.745 53.3788 108.904 52.7273 109.223 52.1364C109.544 51.5417 109.995 51.0682 110.575 50.7159C111.158 50.3636 111.844 50.1932 112.632 50.2045ZM112.632 51.4545C112.154 51.4545 111.724 51.5739 111.342 51.8125C110.963 52.0473 110.662 52.3655 110.438 52.767C110.219 53.1648 110.109 53.6061 110.109 54.0909C110.109 54.5758 110.215 55.017 110.427 55.4148C110.643 55.8087 110.937 56.1231 111.308 56.358C111.683 56.589 112.109 56.7045 112.586 56.7045C112.946 56.7045 113.281 56.6345 113.592 56.4943C113.902 56.3504 114.173 56.1553 114.404 55.9091C114.639 55.6591 114.823 55.3769 114.955 55.0625C115.088 54.7443 115.154 54.4129 115.154 54.0682C115.154 53.6136 115.044 53.1875 114.825 52.7898C114.609 52.392 114.31 52.0701 113.927 51.8239C113.548 51.5777 113.116 51.4545 112.632 51.4545ZM122.682 50.3636V62H121.273V51.8409H121.205L118.364 53.7273V52.2955L121.273 50.3636H122.682ZM129.504 62.1591C128.648 62.1591 127.919 61.9261 127.317 61.4602C126.715 60.9905 126.254 60.3106 125.936 59.4205C125.618 58.5265 125.459 57.447 125.459 56.1818C125.459 54.9242 125.618 53.8504 125.936 52.9602C126.258 52.0663 126.72 51.3845 127.323 50.9148C127.929 50.4413 128.656 50.2045 129.504 50.2045C130.353 50.2045 131.078 50.4413 131.681 50.9148C132.287 51.3845 132.749 52.0663 133.067 52.9602C133.389 53.8504 133.55 54.9242 133.55 56.1818C133.55 57.447 133.391 58.5265 133.073 59.4205C132.754 60.3106 132.294 60.9905 131.692 61.4602C131.09 61.9261 130.36 62.1591 129.504 62.1591ZM129.504 60.9091C130.353 60.9091 131.012 60.5 131.482 59.6818C131.951 58.8636 132.186 57.697 132.186 56.1818C132.186 55.1742 132.078 54.3163 131.862 53.608C131.65 52.8996 131.343 52.3598 130.942 51.9886C130.544 51.6174 130.065 51.4318 129.504 51.4318C128.663 51.4318 128.006 51.8466 127.533 52.6761C127.059 53.5019 126.823 54.6705 126.823 56.1818C126.823 57.1894 126.929 58.0455 127.141 58.75C127.353 59.4545 127.658 59.9905 128.056 60.358C128.457 60.7254 128.94 60.9091 129.504 60.9091ZM139.48 50.3636V62H138.071V51.8409H138.003L135.162 53.7273V52.2955L138.071 50.3636H139.48ZM154.957 50.3636V62H153.548V51.8409H153.48L150.639 53.7273V52.2955L153.548 50.3636H154.957ZM162.075 50.3636V62H160.666V51.8409H160.598L157.757 53.7273V52.2955L160.666 50.3636H162.075ZM165.101 62V60.9773L168.942 56.7727C169.393 56.2803 169.764 55.8523 170.056 55.4886C170.348 55.1212 170.564 54.7765 170.704 54.4545C170.848 54.1288 170.92 53.7879 170.92 53.4318C170.92 53.0227 170.821 52.6686 170.624 52.3693C170.431 52.0701 170.166 51.839 169.829 51.6761C169.492 51.5133 169.113 51.4318 168.692 51.4318C168.245 51.4318 167.855 51.5246 167.522 51.7102C167.192 51.892 166.937 52.1477 166.755 52.4773C166.577 52.8068 166.488 53.1932 166.488 53.6364H165.147C165.147 52.9545 165.304 52.3561 165.618 51.8409C165.933 51.3258 166.361 50.9242 166.903 50.6364C167.448 50.3485 168.06 50.2045 168.738 50.2045C169.42 50.2045 170.024 50.3485 170.55 50.6364C171.077 50.9242 171.49 51.3125 171.789 51.8011C172.088 52.2898 172.238 52.8333 172.238 53.4318C172.238 53.8598 172.16 54.2784 172.005 54.6875C171.853 55.0928 171.588 55.5455 171.209 56.0455C170.834 56.5417 170.314 57.1477 169.647 57.8636L167.033 60.6591V60.75H172.442V62H165.101ZM178.56 50.3636V62H177.151V51.8409H177.083L174.242 53.7273V52.2955L177.151 50.3636H178.56Z" fill="#ACACAC"/>
<path d="M2.77841 121V109.364H10.0739V110.875H4.53409V114.42H9.69318V115.926H4.53409V119.489H10.142V121H2.77841ZM13.6236 112.273L15.5497 115.67L17.4929 112.273H19.3509L16.6293 116.636L19.3736 121H17.5156L15.5497 117.739L13.5895 121H11.7259L14.4418 116.636L11.7599 112.273H13.6236ZM21.0952 124.273V112.273H22.7543V113.688H22.8963C22.9948 113.506 23.1368 113.295 23.3224 113.057C23.508 112.818 23.7656 112.61 24.0952 112.432C24.4247 112.25 24.8603 112.159 25.402 112.159C26.1065 112.159 26.7353 112.337 27.2884 112.693C27.8414 113.049 28.2751 113.562 28.5895 114.233C28.9077 114.903 29.0668 115.71 29.0668 116.653C29.0668 117.597 28.9096 118.405 28.5952 119.08C28.2808 119.75 27.849 120.267 27.2997 120.631C26.7505 120.991 26.1236 121.17 25.419 121.17C24.8887 121.17 24.455 121.081 24.1179 120.903C23.7846 120.725 23.5232 120.517 23.3338 120.278C23.1444 120.04 22.9986 119.828 22.8963 119.642H22.794V124.273H21.0952ZM22.7599 116.636C22.7599 117.25 22.849 117.788 23.027 118.25C23.205 118.712 23.4626 119.074 23.7997 119.335C24.1368 119.593 24.5497 119.722 25.0384 119.722C25.5459 119.722 25.9702 119.587 26.3111 119.318C26.652 119.045 26.9096 118.676 27.0838 118.21C27.2618 117.744 27.3509 117.22 27.3509 116.636C27.3509 116.061 27.2637 115.544 27.0895 115.085C26.919 114.627 26.6615 114.265 26.3168 114C25.9759 113.735 25.5497 113.602 25.0384 113.602C24.5459 113.602 24.1293 113.729 23.7884 113.983C23.4512 114.237 23.1955 114.591 23.0213 115.045C22.8471 115.5 22.7599 116.03 22.7599 116.636ZM30.9702 121V112.273H32.669V121H30.9702ZM31.8281 110.926C31.5327 110.926 31.2789 110.828 31.0668 110.631C30.8584 110.43 30.7543 110.191 30.7543 109.915C30.7543 109.634 30.8584 109.396 31.0668 109.199C31.2789 108.998 31.5327 108.898 31.8281 108.898C32.1236 108.898 32.3755 108.998 32.5838 109.199C32.7959 109.396 32.902 109.634 32.902 109.915C32.902 110.191 32.7959 110.43 32.5838 110.631C32.3755 110.828 32.1236 110.926 31.8281 110.926ZM34.9545 121V112.273H36.5966V113.659H36.6875C36.8466 113.189 37.1269 112.82 37.5284 112.551C37.9337 112.278 38.392 112.142 38.9034 112.142C39.0095 112.142 39.1345 112.146 39.2784 112.153C39.4261 112.161 39.5417 112.17 39.625 112.182V113.807C39.5568 113.788 39.4356 113.767 39.2614 113.744C39.0871 113.718 38.9129 113.705 38.7386 113.705C38.3371 113.705 37.9792 113.79 37.6648 113.96C37.3542 114.127 37.108 114.36 36.9261 114.659C36.7443 114.955 36.6534 115.292 36.6534 115.67V121H34.9545ZM43.5568 121.193C43.0038 121.193 42.5038 121.091 42.0568 120.886C41.6098 120.678 41.2557 120.377 40.9943 119.983C40.7367 119.589 40.608 119.106 40.608 118.534C40.608 118.042 40.7027 117.636 40.892 117.318C41.0814 117 41.3371 116.748 41.6591 116.562C41.9811 116.377 42.3409 116.237 42.7386 116.142C43.1364 116.047 43.5417 115.975 43.9545 115.926C44.4773 115.866 44.9015 115.816 45.2273 115.778C45.553 115.737 45.7898 115.67 45.9375 115.58C46.0852 115.489 46.1591 115.341 46.1591 115.136V115.097C46.1591 114.6 46.0189 114.216 45.7386 113.943C45.4621 113.67 45.0492 113.534 44.5 113.534C43.928 113.534 43.4773 113.661 43.1477 113.915C42.822 114.165 42.5966 114.443 42.4716 114.75L40.875 114.386C41.0644 113.856 41.3409 113.428 41.7045 113.102C42.072 112.773 42.4943 112.534 42.9716 112.386C43.4489 112.235 43.9508 112.159 44.4773 112.159C44.8258 112.159 45.1951 112.201 45.5852 112.284C45.9792 112.364 46.3466 112.511 46.6875 112.727C47.0322 112.943 47.3144 113.252 47.5341 113.653C47.7538 114.051 47.8636 114.568 47.8636 115.205V121H46.2045V119.807H46.1364C46.0265 120.027 45.8617 120.242 45.642 120.455C45.4223 120.667 45.1402 120.843 44.7955 120.983C44.4508 121.123 44.0379 121.193 43.5568 121.193ZM43.9261 119.83C44.3958 119.83 44.7973 119.737 45.1307 119.551C45.4678 119.366 45.7235 119.123 45.8977 118.824C46.0758 118.521 46.1648 118.197 46.1648 117.852V116.727C46.1042 116.788 45.9867 116.845 45.8125 116.898C45.642 116.947 45.447 116.991 45.2273 117.028C45.0076 117.062 44.7936 117.095 44.5852 117.125C44.3769 117.152 44.2027 117.174 44.0625 117.193C43.733 117.235 43.4318 117.305 43.1591 117.403C42.8902 117.502 42.6742 117.644 42.5114 117.83C42.3523 118.011 42.2727 118.254 42.2727 118.557C42.2727 118.977 42.428 119.295 42.7386 119.511C43.0492 119.723 43.4451 119.83 43.9261 119.83ZM54.2003 112.273V113.636H49.4332V112.273H54.2003ZM50.7116 110.182H52.4105V118.438C52.4105 118.767 52.4598 119.015 52.5582 119.182C52.6567 119.345 52.7836 119.456 52.9389 119.517C53.098 119.574 53.2704 119.602 53.456 119.602C53.5923 119.602 53.7116 119.593 53.8139 119.574C53.9162 119.555 53.9957 119.54 54.0526 119.528L54.3594 120.932C54.2609 120.97 54.1207 121.008 53.9389 121.045C53.7571 121.087 53.5298 121.11 53.2571 121.114C52.8101 121.121 52.3935 121.042 52.0071 120.875C51.6207 120.708 51.3082 120.451 51.0696 120.102C50.831 119.754 50.7116 119.316 50.7116 118.79V110.182ZM56.0795 121V112.273H57.7784V121H56.0795ZM56.9375 110.926C56.642 110.926 56.3883 110.828 56.1761 110.631C55.9678 110.43 55.8636 110.191 55.8636 109.915C55.8636 109.634 55.9678 109.396 56.1761 109.199C56.3883 108.998 56.642 108.898 56.9375 108.898C57.233 108.898 57.4848 108.998 57.6932 109.199C57.9053 109.396 58.0114 109.634 58.0114 109.915C58.0114 110.191 57.9053 110.43 57.6932 110.631C57.4848 110.828 57.233 110.926 56.9375 110.926ZM63.7401 121.176C62.9219 121.176 62.2079 120.989 61.598 120.614C60.9882 120.239 60.5147 119.714 60.1776 119.04C59.8404 118.366 59.6719 117.578 59.6719 116.676C59.6719 115.771 59.8404 114.979 60.1776 114.301C60.5147 113.623 60.9882 113.097 61.598 112.722C62.2079 112.347 62.9219 112.159 63.7401 112.159C64.5582 112.159 65.2723 112.347 65.8821 112.722C66.492 113.097 66.9654 113.623 67.3026 114.301C67.6397 114.979 67.8082 115.771 67.8082 116.676C67.8082 117.578 67.6397 118.366 67.3026 119.04C66.9654 119.714 66.492 120.239 65.8821 120.614C65.2723 120.989 64.5582 121.176 63.7401 121.176ZM63.7457 119.75C64.276 119.75 64.7154 119.61 65.0639 119.33C65.4124 119.049 65.67 118.676 65.8366 118.21C66.0071 117.744 66.0923 117.231 66.0923 116.67C66.0923 116.114 66.0071 115.602 65.8366 115.136C65.67 114.667 65.4124 114.29 65.0639 114.006C64.7154 113.722 64.276 113.58 63.7457 113.58C63.2116 113.58 62.7685 113.722 62.4162 114.006C62.0677 114.29 61.8082 114.667 61.6378 115.136C61.4711 115.602 61.3878 116.114 61.3878 116.67C61.3878 117.231 61.4711 117.744 61.6378 118.21C61.8082 118.676 62.0677 119.049 62.4162 119.33C62.7685 119.61 63.2116 119.75 63.7457 119.75ZM71.4034 115.818V121H69.7045V112.273H71.3352V113.693H71.4432C71.6439 113.231 71.9583 112.86 72.3864 112.58C72.8182 112.299 73.3617 112.159 74.017 112.159C74.6117 112.159 75.1326 112.284 75.5795 112.534C76.0265 112.78 76.3731 113.148 76.6193 113.636C76.8655 114.125 76.9886 114.729 76.9886 115.449V121H75.2898V115.653C75.2898 115.021 75.125 114.527 74.7955 114.17C74.4659 113.811 74.0133 113.631 73.4375 113.631C73.0436 113.631 72.6932 113.716 72.3864 113.886C72.0833 114.057 71.8428 114.307 71.6648 114.636C71.4905 114.962 71.4034 115.356 71.4034 115.818ZM87.4048 121H83.6378V109.364H87.5241C88.6643 109.364 89.6435 109.597 90.4616 110.062C91.2798 110.525 91.9067 111.189 92.3423 112.057C92.7817 112.92 93.0014 113.956 93.0014 115.165C93.0014 116.377 92.7798 117.419 92.3366 118.29C91.8973 119.161 91.2609 119.831 90.4276 120.301C89.5942 120.767 88.5866 121 87.4048 121ZM85.3935 119.466H87.3082C88.1946 119.466 88.9313 119.299 89.5185 118.966C90.1056 118.629 90.545 118.142 90.8366 117.506C91.1283 116.866 91.2741 116.085 91.2741 115.165C91.2741 114.252 91.1283 113.477 90.8366 112.841C90.5488 112.205 90.1188 111.722 89.5469 111.392C88.9749 111.062 88.2647 110.898 87.4162 110.898H85.3935V119.466ZM97.5881 121.193C97.035 121.193 96.535 121.091 96.0881 120.886C95.6411 120.678 95.2869 120.377 95.0256 119.983C94.768 119.589 94.6392 119.106 94.6392 118.534C94.6392 118.042 94.7339 117.636 94.9233 117.318C95.1127 117 95.3684 116.748 95.6903 116.562C96.0123 116.377 96.3722 116.237 96.7699 116.142C97.1676 116.047 97.5729 115.975 97.9858 115.926C98.5085 115.866 98.9328 115.816 99.2585 115.778C99.5843 115.737 99.821 115.67 99.9688 115.58C100.116 115.489 100.19 115.341 100.19 115.136V115.097C100.19 114.6 100.05 114.216 99.7699 113.943C99.4934 113.67 99.0805 113.534 98.5312 113.534C97.9593 113.534 97.5085 113.661 97.179 113.915C96.8532 114.165 96.6278 114.443 96.5028 114.75L94.9062 114.386C95.0956 113.856 95.3722 113.428 95.7358 113.102C96.1032 112.773 96.5256 112.534 97.0028 112.386C97.4801 112.235 97.982 112.159 98.5085 112.159C98.857 112.159 99.2263 112.201 99.6165 112.284C100.01 112.364 100.378 112.511 100.719 112.727C101.063 112.943 101.346 113.252 101.565 113.653C101.785 114.051 101.895 114.568 101.895 115.205V121H100.236V119.807H100.168C100.058 120.027 99.893 120.242 99.6733 120.455C99.4536 120.667 99.1714 120.843 98.8267 120.983C98.482 121.123 98.0691 121.193 97.5881 121.193ZM97.9574 119.83C98.4271 119.83 98.8286 119.737 99.1619 119.551C99.4991 119.366 99.7547 119.123 99.929 118.824C100.107 118.521 100.196 118.197 100.196 117.852V116.727C100.135 116.788 100.018 116.845 99.8438 116.898C99.6733 116.947 99.4782 116.991 99.2585 117.028C99.0388 117.062 98.8248 117.095 98.6165 117.125C98.4081 117.152 98.2339 117.174 98.0938 117.193C97.7642 117.235 97.4631 117.305 97.1903 117.403C96.9214 117.502 96.7055 117.644 96.5426 117.83C96.3835 118.011 96.304 118.254 96.304 118.557C96.304 118.977 96.4593 119.295 96.7699 119.511C97.0805 119.723 97.4763 119.83 97.9574 119.83ZM108.232 112.273V113.636H103.464V112.273H108.232ZM104.743 110.182H106.442V118.438C106.442 118.767 106.491 119.015 106.589 119.182C106.688 119.345 106.815 119.456 106.97 119.517C107.129 119.574 107.302 119.602 107.487 119.602C107.624 119.602 107.743 119.593 107.845 119.574C107.947 119.555 108.027 119.54 108.084 119.528L108.391 120.932C108.292 120.97 108.152 121.008 107.97 121.045C107.788 121.087 107.561 121.11 107.288 121.114C106.841 121.121 106.425 121.042 106.038 120.875C105.652 120.708 105.339 120.451 105.101 120.102C104.862 119.754 104.743 119.316 104.743 118.79V110.182ZM113.778 121.176C112.919 121.176 112.178 120.992 111.557 120.625C110.939 120.254 110.462 119.733 110.125 119.062C109.792 118.388 109.625 117.598 109.625 116.693C109.625 115.799 109.792 115.011 110.125 114.33C110.462 113.648 110.932 113.116 111.534 112.733C112.14 112.35 112.848 112.159 113.659 112.159C114.152 112.159 114.629 112.241 115.091 112.403C115.553 112.566 115.968 112.822 116.335 113.17C116.703 113.519 116.992 113.972 117.205 114.528C117.417 115.081 117.523 115.754 117.523 116.545V117.148H110.585V115.875H115.858C115.858 115.428 115.767 115.032 115.585 114.688C115.403 114.339 115.148 114.064 114.818 113.864C114.492 113.663 114.11 113.562 113.67 113.562C113.193 113.562 112.777 113.68 112.42 113.915C112.068 114.146 111.795 114.449 111.602 114.824C111.413 115.195 111.318 115.598 111.318 116.034V117.028C111.318 117.612 111.42 118.108 111.625 118.517C111.833 118.926 112.123 119.239 112.494 119.455C112.866 119.667 113.299 119.773 113.795 119.773C114.117 119.773 114.411 119.727 114.676 119.636C114.941 119.542 115.17 119.402 115.364 119.216C115.557 119.03 115.705 118.801 115.807 118.528L117.415 118.818C117.286 119.292 117.055 119.706 116.722 120.062C116.392 120.415 115.977 120.689 115.477 120.886C114.981 121.08 114.415 121.176 113.778 121.176Z" fill="#0A0D13"/>
<rect x="0.75" y="142.25" width="182.5" height="47.5" rx="4.75" stroke="#ACACAC" stroke-width="1.5"/>
<path d="M18.9091 160.364H20.5909L24.5455 170.023H24.6818L28.6364 160.364H30.3182V172H29V163.159H28.8864L25.25 172H23.9773L20.3409 163.159H20.2273V172H18.9091V160.364ZM32.8235 160.364H34.5053L38.4598 170.023H38.5962L42.5507 160.364H44.2326V172H42.9144V163.159H42.8007L39.1644 172H37.8916L34.2553 163.159H34.1416V172H32.8235V160.364ZM50.6697 159.818L46.9197 173.75H45.6924L49.4424 159.818H50.6697ZM51.121 160.364H52.7346L55.9619 165.795H56.0982L59.3255 160.364H60.9391L56.7346 167.205V172H55.3255V167.205L51.121 160.364ZM61.4416 160.364H63.0552L66.2825 165.795H66.4189L69.6461 160.364H71.2598L67.0552 167.205V172H65.6461V167.205L61.4416 160.364Z" fill="#ACACAC"/>
<path d="M211.443 113.148H209.67C209.602 112.769 209.475 112.436 209.29 112.148C209.104 111.86 208.877 111.616 208.608 111.415C208.339 111.214 208.038 111.062 207.705 110.96C207.375 110.858 207.025 110.807 206.653 110.807C205.983 110.807 205.383 110.975 204.852 111.312C204.326 111.65 203.909 112.144 203.602 112.795C203.299 113.447 203.148 114.242 203.148 115.182C203.148 116.129 203.299 116.928 203.602 117.58C203.909 118.231 204.328 118.723 204.858 119.057C205.388 119.39 205.985 119.557 206.648 119.557C207.015 119.557 207.364 119.508 207.693 119.409C208.027 119.307 208.328 119.157 208.597 118.96C208.866 118.763 209.093 118.523 209.278 118.239C209.468 117.951 209.598 117.621 209.67 117.25L211.443 117.256C211.348 117.828 211.165 118.354 210.892 118.835C210.623 119.312 210.277 119.725 209.852 120.074C209.432 120.419 208.951 120.686 208.409 120.875C207.867 121.064 207.277 121.159 206.636 121.159C205.629 121.159 204.731 120.92 203.943 120.443C203.155 119.962 202.534 119.275 202.08 118.381C201.629 117.487 201.403 116.42 201.403 115.182C201.403 113.939 201.631 112.873 202.085 111.983C202.54 111.089 203.161 110.403 203.949 109.926C204.737 109.445 205.633 109.205 206.636 109.205C207.254 109.205 207.83 109.294 208.364 109.472C208.902 109.646 209.384 109.903 209.812 110.244C210.241 110.581 210.595 110.994 210.875 111.483C211.155 111.968 211.345 112.523 211.443 113.148ZM214.561 109.364L217.8 118.841H217.93L221.169 109.364H223.067L218.879 121H216.851L212.663 109.364H214.561ZM225.764 109.364L229.003 118.841H229.134L232.372 109.364H234.27L230.082 121H228.054L223.866 109.364H225.764Z" fill="#0A0D13"/>
<rect x="199.75" y="142.25" width="171.5" height="47.5" rx="4.75" stroke="#ACACAC" stroke-width="1.5"/>
<path d="M221.795 160.364V172H220.386V161.841H220.318L217.477 163.727V162.295L220.386 160.364H221.795ZM224.822 172V170.977L228.663 166.773C229.114 166.28 229.485 165.852 229.777 165.489C230.068 165.121 230.284 164.777 230.424 164.455C230.568 164.129 230.64 163.788 230.64 163.432C230.64 163.023 230.542 162.669 230.345 162.369C230.152 162.07 229.886 161.839 229.549 161.676C229.212 161.513 228.833 161.432 228.413 161.432C227.966 161.432 227.576 161.525 227.242 161.71C226.913 161.892 226.657 162.148 226.475 162.477C226.297 162.807 226.208 163.193 226.208 163.636H224.867C224.867 162.955 225.025 162.356 225.339 161.841C225.653 161.326 226.082 160.924 226.623 160.636C227.169 160.348 227.78 160.205 228.458 160.205C229.14 160.205 229.744 160.348 230.271 160.636C230.797 160.924 231.21 161.312 231.51 161.801C231.809 162.29 231.958 162.833 231.958 163.432C231.958 163.86 231.881 164.278 231.725 164.688C231.574 165.093 231.309 165.545 230.93 166.045C230.555 166.542 230.034 167.148 229.367 167.864L226.754 170.659V170.75H232.163V172H224.822ZM238.121 172.159C237.371 172.159 236.703 172.03 236.116 171.773C235.532 171.515 235.068 171.157 234.724 170.699C234.383 170.237 234.197 169.701 234.167 169.091H235.599C235.629 169.466 235.758 169.79 235.985 170.062C236.212 170.331 236.51 170.54 236.877 170.688C237.244 170.835 237.652 170.909 238.099 170.909C238.599 170.909 239.042 170.822 239.428 170.648C239.815 170.473 240.118 170.231 240.337 169.92C240.557 169.61 240.667 169.25 240.667 168.841C240.667 168.413 240.561 168.036 240.349 167.71C240.137 167.381 239.826 167.123 239.417 166.938C239.008 166.752 238.508 166.659 237.917 166.659H236.985V165.409H237.917C238.379 165.409 238.784 165.326 239.133 165.159C239.485 164.992 239.76 164.758 239.957 164.455C240.157 164.152 240.258 163.795 240.258 163.386C240.258 162.992 240.171 162.65 239.996 162.358C239.822 162.066 239.576 161.839 239.258 161.676C238.943 161.513 238.572 161.432 238.144 161.432C237.743 161.432 237.364 161.506 237.008 161.653C236.655 161.797 236.368 162.008 236.144 162.284C235.921 162.557 235.799 162.886 235.78 163.273H234.417C234.44 162.663 234.623 162.129 234.968 161.67C235.313 161.208 235.763 160.848 236.32 160.591C236.881 160.333 237.496 160.205 238.167 160.205C238.887 160.205 239.504 160.35 240.019 160.642C240.534 160.93 240.93 161.311 241.207 161.784C241.483 162.258 241.621 162.769 241.621 163.318C241.621 163.973 241.449 164.532 241.104 164.994C240.763 165.456 240.299 165.777 239.712 165.955V166.045C240.447 166.167 241.021 166.479 241.434 166.983C241.847 167.483 242.053 168.102 242.053 168.841C242.053 169.473 241.881 170.042 241.536 170.545C241.195 171.045 240.729 171.439 240.138 171.727C239.548 172.015 238.875 172.159 238.121 172.159Z" fill="#ACACAC"/>
<rect x="0.75" y="215.25" width="17.5" height="17.5" rx="2.75" stroke="#ACACAC" stroke-width="1.5"/>
<path d="M41.2727 221.273C41.2045 220.697 40.928 220.25 40.4432 219.932C39.9583 219.614 39.3636 219.455 38.6591 219.455C38.1439 219.455 37.6932 219.538 37.3068 219.705C36.9242 219.871 36.625 220.1 36.4091 220.392C36.197 220.684 36.0909 221.015 36.0909 221.386C36.0909 221.697 36.1648 221.964 36.3125 222.188C36.464 222.407 36.6572 222.591 36.892 222.739C37.1269 222.883 37.3731 223.002 37.6307 223.097C37.8883 223.187 38.125 223.261 38.3409 223.318L39.5227 223.636C39.8258 223.716 40.1629 223.826 40.5341 223.966C40.9091 224.106 41.267 224.297 41.608 224.54C41.9527 224.778 42.2367 225.085 42.4602 225.46C42.6837 225.835 42.7955 226.295 42.7955 226.841C42.7955 227.47 42.6307 228.038 42.3011 228.545C41.9754 229.053 41.4981 229.456 40.8693 229.756C40.2443 230.055 39.4848 230.205 38.5909 230.205C37.7576 230.205 37.036 230.07 36.4261 229.801C35.8201 229.532 35.3428 229.157 34.9943 228.676C34.6496 228.195 34.4545 227.636 34.4091 227H35.8636C35.9015 227.439 36.0492 227.803 36.3068 228.091C36.5682 228.375 36.8977 228.587 37.2955 228.727C37.697 228.864 38.1288 228.932 38.5909 228.932C39.1288 228.932 39.6117 228.845 40.0398 228.67C40.4678 228.492 40.8068 228.246 41.0568 227.932C41.3068 227.614 41.4318 227.242 41.4318 226.818C41.4318 226.432 41.3239 226.117 41.108 225.875C40.892 225.633 40.608 225.436 40.2557 225.284C39.9034 225.133 39.5227 225 39.1136 224.886L37.6818 224.477C36.7727 224.216 36.053 223.843 35.5227 223.358C34.9924 222.873 34.7273 222.239 34.7273 221.455C34.7273 220.803 34.9034 220.235 35.2557 219.75C35.6117 219.261 36.089 218.883 36.6875 218.614C37.2898 218.341 37.9621 218.205 38.7045 218.205C39.4545 218.205 40.1212 218.339 40.7045 218.608C41.2879 218.873 41.75 219.237 42.0909 219.699C42.4356 220.161 42.6174 220.686 42.6364 221.273H41.2727ZM47.1786 230.205C46.6255 230.205 46.1237 230.1 45.6729 229.892C45.2221 229.68 44.8642 229.375 44.599 228.977C44.3339 228.576 44.2013 228.091 44.2013 227.523C44.2013 227.023 44.2998 226.617 44.4968 226.307C44.6937 225.992 44.957 225.746 45.2865 225.568C45.6161 225.39 45.9797 225.258 46.3774 225.17C46.779 225.08 47.1824 225.008 47.5877 224.955C48.118 224.886 48.5479 224.835 48.8774 224.801C49.2108 224.763 49.4532 224.701 49.6047 224.614C49.76 224.527 49.8377 224.375 49.8377 224.159V224.114C49.8377 223.553 49.6843 223.117 49.3774 222.807C49.0744 222.496 48.6142 222.341 47.9968 222.341C47.3566 222.341 46.8547 222.481 46.4911 222.761C46.1274 223.042 45.8718 223.341 45.724 223.659L44.4513 223.205C44.6786 222.674 44.9816 222.261 45.3604 221.966C45.743 221.667 46.1596 221.458 46.6104 221.341C47.0649 221.22 47.5119 221.159 47.9513 221.159C48.2316 221.159 48.5536 221.193 48.9172 221.261C49.2846 221.326 49.6388 221.46 49.9797 221.665C50.3244 221.869 50.6104 222.178 50.8377 222.591C51.0649 223.004 51.1786 223.557 51.1786 224.25V230H49.8377V228.818H49.7695C49.6786 229.008 49.5271 229.21 49.3149 229.426C49.1028 229.642 48.8206 229.826 48.4684 229.977C48.1161 230.129 47.6862 230.205 47.1786 230.205ZM47.3831 229C47.9134 229 48.3604 228.896 48.724 228.688C49.0915 228.479 49.368 228.21 49.5536 227.881C49.743 227.551 49.8377 227.205 49.8377 226.841V225.614C49.7809 225.682 49.6559 225.744 49.4627 225.801C49.2733 225.854 49.0536 225.902 48.8036 225.943C48.5574 225.981 48.3168 226.015 48.082 226.045C47.8509 226.072 47.6634 226.095 47.5195 226.114C47.171 226.159 46.8452 226.233 46.5422 226.335C46.243 226.434 46.0005 226.583 45.8149 226.784C45.6331 226.981 45.5422 227.25 45.5422 227.591C45.5422 228.057 45.7146 228.409 46.0593 228.648C46.4077 228.883 46.849 229 47.3831 229ZM60.1299 221.273L56.9026 230H55.539L52.3117 221.273H53.7663L56.1753 228.227H56.2663L58.6753 221.273H60.1299ZM64.9264 230.182C64.0855 230.182 63.3601 229.996 62.7502 229.625C62.1442 229.25 61.6764 228.727 61.3468 228.057C61.0211 227.383 60.8582 226.598 60.8582 225.705C60.8582 224.811 61.0211 224.023 61.3468 223.341C61.6764 222.655 62.1347 222.121 62.7218 221.739C63.3127 221.352 64.0021 221.159 64.79 221.159C65.2445 221.159 65.6934 221.235 66.1366 221.386C66.5798 221.538 66.9832 221.784 67.3468 222.125C67.7105 222.462 68.0002 222.909 68.2161 223.466C68.432 224.023 68.54 224.708 68.54 225.523V226.091H61.8127V224.932H67.1764C67.1764 224.439 67.0779 224 66.8809 223.614C66.6877 223.227 66.4112 222.922 66.0514 222.699C65.6953 222.475 65.2748 222.364 64.79 222.364C64.2559 222.364 63.7938 222.496 63.4036 222.761C63.0173 223.023 62.7199 223.364 62.5116 223.784C62.3033 224.205 62.1991 224.655 62.1991 225.136V225.909C62.1991 226.568 62.3127 227.127 62.54 227.585C62.7711 228.04 63.0911 228.386 63.5002 228.625C63.9093 228.86 64.3847 228.977 64.9264 228.977C65.2786 228.977 65.5968 228.928 65.8809 228.83C66.1688 228.727 66.4169 228.576 66.6252 228.375C66.8336 228.17 66.9945 227.917 67.1082 227.614L68.4036 227.977C68.2673 228.417 68.0381 228.803 67.7161 229.136C67.3942 229.466 66.9964 229.723 66.523 229.909C66.0495 230.091 65.5173 230.182 64.9264 230.182ZM77.9852 230.182C77.167 230.182 76.4625 229.989 75.8716 229.602C75.2807 229.216 74.8261 228.684 74.508 228.006C74.1898 227.328 74.0307 226.553 74.0307 225.682C74.0307 224.795 74.1936 224.013 74.5193 223.335C74.8489 222.653 75.3072 222.121 75.8943 221.739C76.4852 221.352 77.1746 221.159 77.9625 221.159C78.5761 221.159 79.1292 221.273 79.6216 221.5C80.114 221.727 80.5174 222.045 80.8318 222.455C81.1462 222.864 81.3413 223.341 81.417 223.886H80.0761C79.9739 223.489 79.7466 223.136 79.3943 222.83C79.0458 222.519 78.5761 222.364 77.9852 222.364C77.4625 222.364 77.0042 222.5 76.6102 222.773C76.2201 223.042 75.9152 223.422 75.6955 223.915C75.4795 224.403 75.3716 224.977 75.3716 225.636C75.3716 226.311 75.4777 226.898 75.6898 227.398C75.9057 227.898 76.2087 228.286 76.5989 228.562C76.9928 228.839 77.4549 228.977 77.9852 228.977C78.3337 228.977 78.65 228.917 78.9341 228.795C79.2182 228.674 79.4587 228.5 79.6557 228.273C79.8527 228.045 79.9928 227.773 80.0761 227.455H81.417C81.3413 227.97 81.1538 228.434 80.8545 228.847C80.5591 229.256 80.167 229.581 79.6784 229.824C79.1936 230.062 78.6292 230.182 77.9852 230.182ZM85.6255 230.205C85.0724 230.205 84.5705 230.1 84.1198 229.892C83.669 229.68 83.3111 229.375 83.0459 228.977C82.7808 228.576 82.6482 228.091 82.6482 227.523C82.6482 227.023 82.7467 226.617 82.9436 226.307C83.1406 225.992 83.4039 225.746 83.7334 225.568C84.063 225.39 84.4266 225.258 84.8243 225.17C85.2258 225.08 85.6292 225.008 86.0345 224.955C86.5649 224.886 86.9948 224.835 87.3243 224.801C87.6577 224.763 87.9001 224.701 88.0516 224.614C88.2069 224.527 88.2845 224.375 88.2845 224.159V224.114C88.2845 223.553 88.1311 223.117 87.8243 222.807C87.5213 222.496 87.0611 222.341 86.4436 222.341C85.8035 222.341 85.3016 222.481 84.938 222.761C84.5743 223.042 84.3186 223.341 84.1709 223.659L82.8982 223.205C83.1255 222.674 83.4285 222.261 83.8073 221.966C84.1899 221.667 84.6065 221.458 85.0573 221.341C85.5118 221.22 85.9588 221.159 86.3982 221.159C86.6785 221.159 87.0005 221.193 87.3641 221.261C87.7315 221.326 88.0857 221.46 88.4266 221.665C88.7713 221.869 89.0573 222.178 89.2845 222.591C89.5118 223.004 89.6255 223.557 89.6255 224.25V230H88.2845V228.818H88.2164C88.1255 229.008 87.9739 229.21 87.7618 229.426C87.5497 229.642 87.2675 229.826 86.9152 229.977C86.563 230.129 86.133 230.205 85.6255 230.205ZM85.83 229C86.3603 229 86.8073 228.896 87.1709 228.688C87.5383 228.479 87.8149 228.21 88.0005 227.881C88.1899 227.551 88.2845 227.205 88.2845 226.841V225.614C88.2277 225.682 88.1027 225.744 87.9095 225.801C87.7202 225.854 87.5005 225.902 87.2505 225.943C87.0042 225.981 86.7637 226.015 86.5289 226.045C86.2978 226.072 86.1103 226.095 85.9664 226.114C85.6179 226.159 85.2921 226.233 84.9891 226.335C84.6899 226.434 84.4474 226.583 84.2618 226.784C84.08 226.981 83.9891 227.25 83.9891 227.591C83.9891 228.057 84.1614 228.409 84.5061 228.648C84.8546 228.883 85.2959 229 85.83 229ZM91.7529 230V221.273H93.0484V222.591H93.1393C93.2984 222.159 93.5862 221.809 94.0029 221.54C94.4196 221.271 94.8893 221.136 95.412 221.136C95.5105 221.136 95.6336 221.138 95.7813 221.142C95.929 221.146 96.0408 221.152 96.1165 221.159V222.523C96.0711 222.511 95.9669 222.494 95.804 222.472C95.6449 222.445 95.4764 222.432 95.2984 222.432C94.8741 222.432 94.4953 222.521 94.162 222.699C93.8324 222.873 93.5711 223.116 93.3779 223.426C93.1885 223.733 93.0938 224.083 93.0938 224.477V230H91.7529ZM100.416 230.182C99.6886 230.182 99.0465 229.998 98.4897 229.631C97.9329 229.259 97.4973 228.737 97.1829 228.062C96.8685 227.384 96.7113 226.583 96.7113 225.659C96.7113 224.742 96.8685 223.947 97.1829 223.273C97.4973 222.598 97.9348 222.078 98.4954 221.71C99.056 221.343 99.7037 221.159 100.439 221.159C101.007 221.159 101.456 221.254 101.785 221.443C102.119 221.629 102.372 221.841 102.547 222.08C102.725 222.314 102.863 222.508 102.961 222.659H103.075V218.364H104.416V230H103.12V228.659H102.961C102.863 228.818 102.723 229.019 102.541 229.261C102.359 229.5 102.1 229.714 101.762 229.903C101.425 230.089 100.976 230.182 100.416 230.182ZM100.598 228.977C101.136 228.977 101.59 228.837 101.961 228.557C102.333 228.273 102.615 227.881 102.808 227.381C103.001 226.877 103.098 226.295 103.098 225.636C103.098 224.985 103.003 224.415 102.814 223.926C102.624 223.434 102.344 223.051 101.973 222.778C101.601 222.502 101.143 222.364 100.598 222.364C100.029 222.364 99.556 222.509 99.1772 222.801C98.8022 223.089 98.52 223.481 98.3306 223.977C98.145 224.47 98.0522 225.023 98.0522 225.636C98.0522 226.258 98.1469 226.822 98.3363 227.33C98.5295 227.833 98.8136 228.235 99.1886 228.534C99.5674 228.83 100.037 228.977 100.598 228.977ZM114.213 230.182C113.486 230.182 112.844 229.998 112.287 229.631C111.73 229.259 111.295 228.737 110.98 228.062C110.666 227.384 110.509 226.583 110.509 225.659C110.509 224.742 110.666 223.947 110.98 223.273C111.295 222.598 111.732 222.078 112.293 221.71C112.854 221.343 113.501 221.159 114.236 221.159C114.804 221.159 115.253 221.254 115.583 221.443C115.916 221.629 116.17 221.841 116.344 222.08C116.522 222.314 116.66 222.508 116.759 222.659H116.872V218.364H118.213V230H116.918V228.659H116.759C116.66 228.818 116.52 229.019 116.338 229.261C116.157 229.5 115.897 229.714 115.56 229.903C115.223 230.089 114.774 230.182 114.213 230.182ZM114.395 228.977C114.933 228.977 115.388 228.837 115.759 228.557C116.13 228.273 116.412 227.881 116.605 227.381C116.799 226.877 116.895 226.295 116.895 225.636C116.895 224.985 116.8 224.415 116.611 223.926C116.422 223.434 116.141 223.051 115.77 222.778C115.399 222.502 114.941 222.364 114.395 222.364C113.827 222.364 113.354 222.509 112.975 222.801C112.6 223.089 112.318 223.481 112.128 223.977C111.943 224.47 111.85 225.023 111.85 225.636C111.85 226.258 111.944 226.822 112.134 227.33C112.327 227.833 112.611 228.235 112.986 228.534C113.365 228.83 113.835 228.977 114.395 228.977ZM124.194 230.182C123.354 230.182 122.628 229.996 122.018 229.625C121.412 229.25 120.944 228.727 120.615 228.057C120.289 227.383 120.126 226.598 120.126 225.705C120.126 224.811 120.289 224.023 120.615 223.341C120.944 222.655 121.403 222.121 121.99 221.739C122.581 221.352 123.27 221.159 124.058 221.159C124.513 221.159 124.962 221.235 125.405 221.386C125.848 221.538 126.251 221.784 126.615 222.125C126.979 222.462 127.268 222.909 127.484 223.466C127.7 224.023 127.808 224.708 127.808 225.523V226.091H121.081V224.932H126.444C126.444 224.439 126.346 224 126.149 223.614C125.956 223.227 125.679 222.922 125.319 222.699C124.963 222.475 124.543 222.364 124.058 222.364C123.524 222.364 123.062 222.496 122.672 222.761C122.285 223.023 121.988 223.364 121.78 223.784C121.571 224.205 121.467 224.655 121.467 225.136V225.909C121.467 226.568 121.581 227.127 121.808 227.585C122.039 228.04 122.359 228.386 122.768 228.625C123.177 228.86 123.653 228.977 124.194 228.977C124.547 228.977 124.865 228.928 125.149 228.83C125.437 228.727 125.685 228.576 125.893 228.375C126.102 228.17 126.263 227.917 126.376 227.614L127.672 227.977C127.535 228.417 127.306 228.803 126.984 229.136C126.662 229.466 126.265 229.723 125.791 229.909C125.318 230.091 124.785 230.182 124.194 230.182ZM133.323 221.273V222.409H128.801V221.273H133.323ZM130.119 219.182H131.46V227.5C131.46 227.879 131.515 228.163 131.624 228.352C131.738 228.538 131.882 228.663 132.056 228.727C132.234 228.788 132.422 228.818 132.619 228.818C132.767 228.818 132.888 228.811 132.982 228.795C133.077 228.777 133.153 228.761 133.21 228.75L133.482 229.955C133.392 229.989 133.265 230.023 133.102 230.057C132.939 230.095 132.732 230.114 132.482 230.114C132.104 230.114 131.732 230.032 131.369 229.869C131.009 229.706 130.71 229.458 130.471 229.125C130.236 228.792 130.119 228.371 130.119 227.864V219.182ZM137.589 230.205C137.036 230.205 136.534 230.1 136.083 229.892C135.632 229.68 135.274 229.375 135.009 228.977C134.744 228.576 134.611 228.091 134.611 227.523C134.611 227.023 134.71 226.617 134.907 226.307C135.104 225.992 135.367 225.746 135.697 225.568C136.026 225.39 136.39 225.258 136.787 225.17C137.189 225.08 137.592 225.008 137.998 224.955C138.528 224.886 138.958 224.835 139.287 224.801C139.621 224.763 139.863 224.701 140.015 224.614C140.17 224.527 140.248 224.375 140.248 224.159V224.114C140.248 223.553 140.094 223.117 139.787 222.807C139.484 222.496 139.024 222.341 138.407 222.341C137.767 222.341 137.265 222.481 136.901 222.761C136.537 223.042 136.282 223.341 136.134 223.659L134.861 223.205C135.089 222.674 135.392 222.261 135.77 221.966C136.153 221.667 136.57 221.458 137.02 221.341C137.475 221.22 137.922 221.159 138.361 221.159C138.642 221.159 138.964 221.193 139.327 221.261C139.695 221.326 140.049 221.46 140.39 221.665C140.734 221.869 141.02 222.178 141.248 222.591C141.475 223.004 141.589 223.557 141.589 224.25V230H140.248V228.818H140.179C140.089 229.008 139.937 229.21 139.725 229.426C139.513 229.642 139.231 229.826 138.878 229.977C138.526 230.129 138.096 230.205 137.589 230.205ZM137.793 229C138.323 229 138.77 228.896 139.134 228.688C139.501 228.479 139.778 228.21 139.964 227.881C140.153 227.551 140.248 227.205 140.248 226.841V225.614C140.191 225.682 140.066 225.744 139.873 225.801C139.683 225.854 139.464 225.902 139.214 225.943C138.967 225.981 138.727 226.015 138.492 226.045C138.261 226.072 138.073 226.095 137.929 226.114C137.581 226.159 137.255 226.233 136.952 226.335C136.653 226.434 136.411 226.583 136.225 226.784C136.043 226.981 135.952 227.25 135.952 227.591C135.952 228.057 136.125 228.409 136.469 228.648C136.818 228.883 137.259 229 137.793 229ZM143.716 230V221.273H145.057V230H143.716ZM144.398 219.818C144.136 219.818 143.911 219.729 143.722 219.551C143.536 219.373 143.443 219.159 143.443 218.909C143.443 218.659 143.536 218.445 143.722 218.267C143.911 218.089 144.136 218 144.398 218C144.659 218 144.883 218.089 145.068 218.267C145.258 218.445 145.352 218.659 145.352 218.909C145.352 219.159 145.258 219.373 145.068 219.551C144.883 219.729 144.659 219.818 144.398 219.818ZM148.534 218.364V230H147.193V218.364H148.534ZM156.852 223.227L155.647 223.568C155.571 223.367 155.46 223.172 155.312 222.983C155.168 222.79 154.971 222.631 154.721 222.506C154.471 222.381 154.151 222.318 153.761 222.318C153.227 222.318 152.782 222.441 152.425 222.688C152.073 222.93 151.897 223.239 151.897 223.614C151.897 223.947 152.018 224.21 152.261 224.403C152.503 224.597 152.882 224.758 153.397 224.886L154.692 225.205C155.473 225.394 156.054 225.684 156.437 226.074C156.819 226.46 157.011 226.958 157.011 227.568C157.011 228.068 156.867 228.515 156.579 228.909C156.295 229.303 155.897 229.614 155.386 229.841C154.874 230.068 154.28 230.182 153.602 230.182C152.711 230.182 151.975 229.989 151.391 229.602C150.808 229.216 150.439 228.652 150.283 227.909L151.556 227.591C151.677 228.061 151.907 228.413 152.244 228.648C152.585 228.883 153.03 229 153.579 229C154.204 229 154.7 228.867 155.067 228.602C155.439 228.333 155.624 228.011 155.624 227.636C155.624 227.333 155.518 227.08 155.306 226.875C155.094 226.667 154.768 226.511 154.329 226.409L152.874 226.068C152.075 225.879 151.488 225.585 151.113 225.188C150.742 224.786 150.556 224.284 150.556 223.682C150.556 223.189 150.694 222.754 150.971 222.375C151.251 221.996 151.632 221.699 152.113 221.483C152.598 221.267 153.147 221.159 153.761 221.159C154.624 221.159 155.302 221.348 155.795 221.727C156.291 222.106 156.643 222.606 156.852 223.227Z" fill="#ACACAC"/>
</svg>
