<svg width="404" height="164" viewBox="0 0 404 164" fill="none" xmlns="http://www.w3.org/2000/svg">
<rect x="0.5" y="0.5" width="403" height="163" rx="4.5" stroke="#8A38F5" stroke-dasharray="10 5"/>
<rect x="20" y="24" width="44" height="44" rx="13" fill="#FFE1C4"/>
<path d="M50.25 37.7504V55.0005C50.25 55.1994 50.171 55.3901 50.0303 55.5308C49.8897 55.6714 49.6989 55.7505 49.5 55.7505C49.3011 55.7505 49.1103 55.6714 48.9697 55.5308C48.829 55.3901 48.75 55.1994 48.75 55.0005V50.5005H44.25C44.0511 50.5005 43.8603 50.4214 43.7197 50.2808C43.579 50.1401 43.5 49.9494 43.5 49.7505C43.5349 47.9539 43.7618 46.1662 44.1769 44.418C45.0938 40.622 46.8319 38.0776 49.2047 37.0614C49.3187 37.0125 49.4431 36.9927 49.5667 37.0038C49.6903 37.0148 49.8092 37.0563 49.9128 37.1246C50.0164 37.1929 50.1014 37.2858 50.1603 37.395C50.2191 37.5043 50.2499 37.6264 50.25 37.7504ZM41.2397 37.6276C41.225 37.5292 41.1908 37.4346 41.1392 37.3494C41.0876 37.2643 41.0195 37.1903 40.939 37.1317C40.8585 37.0732 40.7671 37.0312 40.6702 37.0083C40.5733 36.9855 40.4728 36.9821 40.3746 36.9985C40.2764 37.0149 40.1824 37.0506 40.0982 37.1037C40.0139 37.1568 39.9411 37.2261 39.8839 37.3076C39.8267 37.3891 39.7863 37.4812 39.7651 37.5785C39.7439 37.6757 39.7423 37.7763 39.7603 37.8742L40.4897 42.2505H38.25V37.7504C38.25 37.5515 38.171 37.3608 38.0303 37.2201C37.8897 37.0795 37.6989 37.0004 37.5 37.0004C37.3011 37.0004 37.1103 37.0795 36.9697 37.2201C36.829 37.3608 36.75 37.5515 36.75 37.7504V42.2505H34.5103L35.2397 37.8742C35.2577 37.7763 35.2561 37.6757 35.2349 37.5785C35.2137 37.4812 35.1733 37.3891 35.1161 37.3076C35.0589 37.2261 34.9861 37.1568 34.9018 37.1037C34.8176 37.0506 34.7236 37.0149 34.6254 36.9985C34.5272 36.9821 34.4267 36.9855 34.3298 37.0083C34.2329 37.0312 34.1415 37.0732 34.061 37.1317C33.9805 37.1903 33.9124 37.2643 33.8608 37.3494C33.8092 37.4346 33.775 37.5292 33.7603 37.6276L33.0103 42.1276C33.0035 42.1682 33.0001 42.2093 33 42.2505C33.0015 43.3134 33.3787 44.3416 34.0649 45.1534C34.7511 45.9652 35.7021 46.5083 36.75 46.6867V55.0005C36.75 55.1994 36.829 55.3901 36.9697 55.5308C37.1103 55.6714 37.3011 55.7505 37.5 55.7505C37.6989 55.7505 37.8897 55.6714 38.0303 55.5308C38.171 55.3901 38.25 55.1994 38.25 55.0005V46.6867C39.2979 46.5083 40.2489 45.9652 40.9351 45.1534C41.6213 44.3416 41.9985 43.3134 42 42.2505C41.9999 42.2093 41.9965 42.1682 41.9897 42.1276L41.2397 37.6276Z" fill="#FF7A18"/>
<path d="M76.2784 52V40.3636H83.4943V41.875H78.0341V45.4205H82.9773V46.9261H78.0341V52H76.2784ZM85.4077 52V43.2727H87.0497V44.6591H87.1406C87.2997 44.1894 87.58 43.8201 87.9815 43.5511C88.3868 43.2784 88.8452 43.142 89.3565 43.142C89.4626 43.142 89.5876 43.1458 89.7315 43.1534C89.8793 43.161 89.9948 43.1705 90.0781 43.1818V44.8068C90.0099 44.7879 89.8887 44.767 89.7145 44.7443C89.5402 44.7178 89.366 44.7045 89.1918 44.7045C88.7902 44.7045 88.4323 44.7898 88.1179 44.9602C87.8073 45.1269 87.5611 45.3598 87.3793 45.6591C87.1974 45.9545 87.1065 46.2917 87.1065 46.6705V52H85.4077ZM94.9972 52.1761C94.1373 52.1761 93.3968 51.9924 92.7756 51.625C92.1581 51.2538 91.6809 50.733 91.3438 50.0625C91.0104 49.3883 90.8438 48.5985 90.8438 47.6932C90.8438 46.7992 91.0104 46.0114 91.3438 45.3295C91.6809 44.6477 92.1506 44.1155 92.7528 43.733C93.3589 43.3504 94.0672 43.1591 94.8778 43.1591C95.3703 43.1591 95.8475 43.2405 96.3097 43.4034C96.7718 43.5663 97.1866 43.822 97.554 44.1705C97.9214 44.5189 98.2112 44.9716 98.4233 45.5284C98.6354 46.0814 98.7415 46.7538 98.7415 47.5455V48.1477H91.804V46.875H97.0767C97.0767 46.428 96.9858 46.0322 96.804 45.6875C96.6222 45.339 96.3665 45.0644 96.0369 44.8636C95.7112 44.6629 95.3286 44.5625 94.8892 44.5625C94.4119 44.5625 93.9953 44.6799 93.6392 44.9148C93.2869 45.1458 93.0142 45.4489 92.821 45.8239C92.6316 46.1951 92.5369 46.5985 92.5369 47.0341V48.0284C92.5369 48.6117 92.6392 49.108 92.8438 49.517C93.0521 49.9261 93.3419 50.2386 93.7131 50.4545C94.0843 50.6667 94.518 50.7727 95.0142 50.7727C95.3362 50.7727 95.6297 50.7273 95.8949 50.6364C96.16 50.5417 96.3892 50.4015 96.5824 50.2159C96.7756 50.0303 96.9233 49.8011 97.0256 49.5284L98.6335 49.8182C98.5047 50.2917 98.2737 50.7064 97.9403 51.0625C97.6108 51.4148 97.196 51.6894 96.696 51.8864C96.1998 52.0795 95.6335 52.1761 94.9972 52.1761ZM107.166 45.4034L105.626 45.6761C105.562 45.4792 105.46 45.2917 105.32 45.1136C105.183 44.9356 104.998 44.7898 104.763 44.6761C104.528 44.5625 104.234 44.5057 103.882 44.5057C103.401 44.5057 103 44.6136 102.678 44.8295C102.356 45.0417 102.195 45.3163 102.195 45.6534C102.195 45.9451 102.303 46.1799 102.518 46.358C102.734 46.536 103.083 46.6818 103.564 46.7955L104.95 47.1136C105.753 47.2992 106.352 47.5852 106.746 47.9716C107.14 48.358 107.337 48.8598 107.337 49.4773C107.337 50 107.185 50.4659 106.882 50.875C106.583 51.2803 106.164 51.5985 105.626 51.8295C105.092 52.0606 104.473 52.1761 103.768 52.1761C102.791 52.1761 101.994 51.9678 101.376 51.5511C100.759 51.1307 100.38 50.5341 100.24 49.7614L101.882 49.5114C101.984 49.9394 102.195 50.2633 102.513 50.483C102.831 50.6989 103.246 50.8068 103.757 50.8068C104.314 50.8068 104.759 50.6913 105.092 50.4602C105.426 50.2254 105.592 49.9394 105.592 49.6023C105.592 49.3295 105.49 49.1004 105.286 48.9148C105.085 48.7292 104.776 48.589 104.359 48.4943L102.882 48.1705C102.068 47.9848 101.465 47.6894 101.075 47.2841C100.689 46.8788 100.496 46.3655 100.496 45.7443C100.496 45.2292 100.64 44.7784 100.928 44.392C101.215 44.0057 101.613 43.7045 102.121 43.4886C102.628 43.2689 103.21 43.1591 103.865 43.1591C104.808 43.1591 105.551 43.3636 106.092 43.7727C106.634 44.178 106.992 44.7216 107.166 45.4034ZM110.903 46.8182V52H109.205V40.3636H110.881V44.6932H110.989C111.193 44.2235 111.506 43.8504 111.926 43.5739C112.347 43.2973 112.896 43.1591 113.574 43.1591C114.172 43.1591 114.695 43.2822 115.142 43.5284C115.593 43.7746 115.941 44.142 116.188 44.6307C116.438 45.1155 116.562 45.7216 116.562 46.4489V52H114.864V46.6534C114.864 46.0133 114.699 45.517 114.369 45.1648C114.04 44.8087 113.581 44.6307 112.994 44.6307C112.593 44.6307 112.233 44.7159 111.915 44.8864C111.6 45.0568 111.352 45.3068 111.17 45.6364C110.992 45.9621 110.903 46.3561 110.903 46.8182ZM120.528 40.3636V52H118.83V40.3636H120.528ZM123.888 55.2727C123.634 55.2727 123.403 55.2519 123.195 55.2102C122.986 55.1723 122.831 55.1307 122.729 55.0852L123.138 53.6932C123.448 53.7765 123.725 53.8125 123.967 53.8011C124.21 53.7898 124.424 53.6989 124.609 53.5284C124.799 53.358 124.965 53.0795 125.109 52.6932L125.32 52.1136L122.126 43.2727H123.945L126.155 50.0455H126.246L128.456 43.2727H130.28L126.683 53.1648C126.517 53.6193 126.304 54.0038 126.047 54.3182C125.789 54.6364 125.482 54.875 125.126 55.0341C124.77 55.1932 124.357 55.2727 123.888 55.2727ZM136.247 52V40.3636H140.395C141.3 40.3636 142.05 40.5284 142.645 40.858C143.24 41.1875 143.685 41.6383 143.98 42.2102C144.276 42.7784 144.423 43.4186 144.423 44.1307C144.423 44.8466 144.274 45.4905 143.974 46.0625C143.679 46.6307 143.232 47.0814 142.634 47.4148C142.039 47.7443 141.291 47.9091 140.389 47.9091H137.537V46.4205H140.23C140.802 46.4205 141.266 46.322 141.622 46.125C141.978 45.9242 142.24 45.6515 142.406 45.3068C142.573 44.9621 142.656 44.5701 142.656 44.1307C142.656 43.6913 142.573 43.3011 142.406 42.9602C142.24 42.6193 141.976 42.3523 141.616 42.1591C141.26 41.9659 140.791 41.8693 140.207 41.8693H138.003V52H136.247ZM146.345 52V43.2727H147.987V44.6591H148.078C148.237 44.1894 148.518 43.8201 148.919 43.5511C149.324 43.2784 149.783 43.142 150.294 43.142C150.4 43.142 150.525 43.1458 150.669 43.1534C150.817 43.161 150.932 43.1705 151.016 43.1818V44.8068C150.947 44.7879 150.826 44.767 150.652 44.7443C150.478 44.7178 150.304 44.7045 150.129 44.7045C149.728 44.7045 149.37 44.7898 149.055 44.9602C148.745 45.1269 148.499 45.3598 148.317 45.6591C148.135 45.9545 148.044 46.2917 148.044 46.6705V52H146.345ZM155.935 52.1761C155.075 52.1761 154.334 51.9924 153.713 51.625C153.096 51.2538 152.618 50.733 152.281 50.0625C151.948 49.3883 151.781 48.5985 151.781 47.6932C151.781 46.7992 151.948 46.0114 152.281 45.3295C152.618 44.6477 153.088 44.1155 153.69 43.733C154.296 43.3504 155.005 43.1591 155.815 43.1591C156.308 43.1591 156.785 43.2405 157.247 43.4034C157.709 43.5663 158.124 43.822 158.491 44.1705C158.859 44.5189 159.149 44.9716 159.361 45.5284C159.573 46.0814 159.679 46.7538 159.679 47.5455V48.1477H152.741V46.875H158.014C158.014 46.428 157.923 46.0322 157.741 45.6875C157.56 45.339 157.304 45.0644 156.974 44.8636C156.649 44.6629 156.266 44.5625 155.827 44.5625C155.349 44.5625 154.933 44.6799 154.577 44.9148C154.224 45.1458 153.952 45.4489 153.759 45.8239C153.569 46.1951 153.474 46.5985 153.474 47.0341V48.0284C153.474 48.6117 153.577 49.108 153.781 49.517C153.99 49.9261 154.279 50.2386 154.651 50.4545C155.022 50.6667 155.455 50.7727 155.952 50.7727C156.274 50.7727 156.567 50.7273 156.832 50.6364C157.098 50.5417 157.327 50.4015 157.52 50.2159C157.713 50.0303 157.861 49.8011 157.963 49.5284L159.571 49.8182C159.442 50.2917 159.211 50.7064 158.878 51.0625C158.548 51.4148 158.134 51.6894 157.634 51.8864C157.137 52.0795 156.571 52.1761 155.935 52.1761ZM161.564 55.2727V43.2727H163.223V44.6875H163.365C163.464 44.5057 163.606 44.2955 163.791 44.0568C163.977 43.8182 164.234 43.6098 164.564 43.4318C164.893 43.25 165.329 43.1591 165.871 43.1591C166.575 43.1591 167.204 43.3371 167.757 43.6932C168.31 44.0492 168.744 44.5625 169.058 45.233C169.376 45.9034 169.536 46.7102 169.536 47.6534C169.536 48.5966 169.378 49.4053 169.064 50.0795C168.75 50.75 168.318 51.267 167.768 51.6307C167.219 51.9905 166.592 52.1705 165.888 52.1705C165.357 52.1705 164.924 52.0814 164.587 51.9034C164.253 51.7254 163.992 51.517 163.803 51.2784C163.613 51.0398 163.467 50.8277 163.365 50.642H163.263V55.2727H161.564ZM163.229 47.6364C163.229 48.25 163.318 48.7879 163.496 49.25C163.674 49.7121 163.931 50.0739 164.268 50.3352C164.606 50.5928 165.018 50.7216 165.507 50.7216C166.015 50.7216 166.439 50.5871 166.78 50.3182C167.121 50.0455 167.378 49.6761 167.553 49.2102C167.731 48.7443 167.82 48.2197 167.82 47.6364C167.82 47.0606 167.732 46.5436 167.558 46.0852C167.388 45.6269 167.13 45.2652 166.786 45C166.445 44.7348 166.018 44.6023 165.507 44.6023C165.015 44.6023 164.598 44.7292 164.257 44.983C163.92 45.2367 163.664 45.5909 163.49 46.0455C163.316 46.5 163.229 47.0303 163.229 47.6364ZM173.979 52.1932C173.426 52.1932 172.926 52.0909 172.479 51.8864C172.032 51.678 171.678 51.3769 171.416 50.983C171.159 50.589 171.03 50.1061 171.03 49.5341C171.03 49.0417 171.125 48.6364 171.314 48.3182C171.503 48 171.759 47.7481 172.081 47.5625C172.403 47.3769 172.763 47.2367 173.161 47.142C173.558 47.0473 173.964 46.9754 174.376 46.9261C174.899 46.8655 175.323 46.8163 175.649 46.7784C175.975 46.7367 176.212 46.6705 176.359 46.5795C176.507 46.4886 176.581 46.3409 176.581 46.1364V46.0966C176.581 45.6004 176.441 45.2159 176.161 44.9432C175.884 44.6705 175.471 44.5341 174.922 44.5341C174.35 44.5341 173.899 44.661 173.57 44.9148C173.244 45.1648 173.018 45.4432 172.893 45.75L171.297 45.3864C171.486 44.8561 171.763 44.428 172.126 44.1023C172.494 43.7727 172.916 43.5341 173.393 43.3864C173.871 43.2348 174.373 43.1591 174.899 43.1591C175.248 43.1591 175.617 43.2008 176.007 43.2841C176.401 43.3636 176.768 43.5114 177.109 43.7273C177.454 43.9432 177.736 44.2519 177.956 44.6534C178.176 45.0511 178.286 45.5682 178.286 46.2045V52H176.626V50.8068H176.558C176.448 51.0265 176.284 51.2424 176.064 51.4545C175.844 51.6667 175.562 51.8428 175.217 51.983C174.873 52.1231 174.46 52.1932 173.979 52.1932ZM174.348 50.8295C174.818 50.8295 175.219 50.7367 175.553 50.5511C175.89 50.3655 176.145 50.1231 176.32 49.8239C176.498 49.5208 176.587 49.197 176.587 48.8523V47.7273C176.526 47.7879 176.409 47.8447 176.234 47.8977C176.064 47.947 175.869 47.9905 175.649 48.0284C175.429 48.0625 175.215 48.0947 175.007 48.125C174.799 48.1515 174.625 48.1742 174.484 48.1932C174.155 48.2348 173.854 48.3049 173.581 48.4034C173.312 48.5019 173.096 48.6439 172.933 48.8295C172.774 49.0114 172.695 49.2538 172.695 49.5568C172.695 49.9773 172.85 50.2955 173.161 50.5114C173.471 50.7235 173.867 50.8295 174.348 50.8295ZM180.548 52V43.2727H182.19V44.6591H182.281C182.44 44.1894 182.721 43.8201 183.122 43.5511C183.527 43.2784 183.986 43.142 184.497 43.142C184.603 43.142 184.728 43.1458 184.872 43.1534C185.02 43.161 185.135 43.1705 185.219 43.1818V44.8068C185.151 44.7879 185.029 44.767 184.855 44.7443C184.681 44.7178 184.507 44.7045 184.332 44.7045C183.931 44.7045 183.573 44.7898 183.259 44.9602C182.948 45.1269 182.702 45.3598 182.52 45.6591C182.338 45.9545 182.247 46.2917 182.247 46.6705V52H180.548ZM190.138 52.1761C189.278 52.1761 188.537 51.9924 187.916 51.625C187.299 51.2538 186.821 50.733 186.484 50.0625C186.151 49.3883 185.984 48.5985 185.984 47.6932C185.984 46.7992 186.151 46.0114 186.484 45.3295C186.821 44.6477 187.291 44.1155 187.893 43.733C188.5 43.3504 189.208 43.1591 190.018 43.1591C190.511 43.1591 190.988 43.2405 191.45 43.4034C191.912 43.5663 192.327 43.822 192.695 44.1705C193.062 44.5189 193.352 44.9716 193.564 45.5284C193.776 46.0814 193.882 46.7538 193.882 47.5455V48.1477H186.945V46.875H192.217C192.217 46.428 192.126 46.0322 191.945 45.6875C191.763 45.339 191.507 45.0644 191.178 44.8636C190.852 44.6629 190.469 44.5625 190.03 44.5625C189.553 44.5625 189.136 44.6799 188.78 44.9148C188.428 45.1458 188.155 45.4489 187.962 45.8239C187.772 46.1951 187.678 46.5985 187.678 47.0341V48.0284C187.678 48.6117 187.78 49.108 187.984 49.517C188.193 49.9261 188.482 50.2386 188.854 50.4545C189.225 50.6667 189.659 50.7727 190.155 50.7727C190.477 50.7727 190.77 50.7273 191.036 50.6364C191.301 50.5417 191.53 50.4015 191.723 50.2159C191.916 50.0303 192.064 49.8011 192.166 49.5284L193.774 49.8182C193.645 50.2917 193.414 50.7064 193.081 51.0625C192.751 51.4148 192.337 51.6894 191.837 51.8864C191.34 52.0795 190.774 52.1761 190.138 52.1761ZM199.034 52.1705C198.33 52.1705 197.701 51.9905 197.148 51.6307C196.598 51.267 196.167 50.75 195.852 50.0795C195.542 49.4053 195.386 48.5966 195.386 47.6534C195.386 46.7102 195.544 45.9034 195.858 45.233C196.176 44.5625 196.612 44.0492 197.165 43.6932C197.718 43.3371 198.345 43.1591 199.045 43.1591C199.587 43.1591 200.023 43.25 200.352 43.4318C200.686 43.6098 200.943 43.8182 201.125 44.0568C201.311 44.2955 201.455 44.5057 201.557 44.6875H201.659V40.3636H203.358V52H201.699V50.642H201.557C201.455 50.8277 201.307 51.0398 201.114 51.2784C200.924 51.517 200.663 51.7254 200.33 51.9034C199.996 52.0814 199.564 52.1705 199.034 52.1705ZM199.409 50.7216C199.898 50.7216 200.311 50.5928 200.648 50.3352C200.989 50.0739 201.246 49.7121 201.42 49.25C201.598 48.7879 201.688 48.25 201.688 47.6364C201.688 47.0303 201.6 46.5 201.426 46.0455C201.252 45.5909 200.996 45.2367 200.659 44.983C200.322 44.7292 199.905 44.6023 199.409 44.6023C198.898 44.6023 198.472 44.7348 198.131 45C197.79 45.2652 197.532 45.6269 197.358 46.0852C197.188 46.5436 197.102 47.0606 197.102 47.6364C197.102 48.2197 197.189 48.7443 197.364 49.2102C197.538 49.6761 197.795 50.0455 198.136 50.3182C198.481 50.5871 198.905 50.7216 199.409 50.7216Z" fill="black"/>
<rect x="20" y="92" width="345" height="56" rx="8" fill="#F3F4F6"/>
<rect x="29" y="98" width="44" height="44" rx="13" fill="#FFE1C4"/>
<path d="M59.25 111.75V129C59.25 129.199 59.171 129.39 59.0303 129.531C58.8897 129.671 58.6989 129.75 58.5 129.75C58.3011 129.75 58.1103 129.671 57.9697 129.531C57.829 129.39 57.75 129.199 57.75 129V124.5H53.25C53.0511 124.5 52.8603 124.421 52.7197 124.281C52.579 124.14 52.5 123.949 52.5 123.75C52.5349 121.954 52.7618 120.166 53.1769 118.418C54.0938 114.622 55.8319 112.078 58.2047 111.061C58.3187 111.013 58.4431 110.993 58.5667 111.004C58.6903 111.015 58.8092 111.056 58.9128 111.125C59.0164 111.193 59.1014 111.286 59.1603 111.395C59.2191 111.504 59.2499 111.626 59.25 111.75ZM50.2397 111.628C50.225 111.529 50.1908 111.435 50.1392 111.349C50.0876 111.264 50.0195 111.19 49.939 111.132C49.8585 111.073 49.7671 111.031 49.6702 111.008C49.5733 110.985 49.4728 110.982 49.3746 110.998C49.2764 111.015 49.1824 111.051 49.0982 111.104C49.0139 111.157 48.9411 111.226 48.8839 111.308C48.8267 111.389 48.7863 111.481 48.7651 111.578C48.7439 111.676 48.7423 111.776 48.7603 111.874L49.4897 116.25H47.25V111.75C47.25 111.552 47.171 111.361 47.0303 111.22C46.8897 111.079 46.6989 111 46.5 111C46.3011 111 46.1103 111.079 45.9697 111.22C45.829 111.361 45.75 111.552 45.75 111.75V116.25H43.5103L44.2397 111.874C44.2577 111.776 44.2561 111.676 44.2349 111.578C44.2137 111.481 44.1733 111.389 44.1161 111.308C44.0589 111.226 43.9861 111.157 43.9018 111.104C43.8176 111.051 43.7236 111.015 43.6254 110.998C43.5272 110.982 43.4267 110.985 43.3298 111.008C43.2329 111.031 43.1415 111.073 43.061 111.132C42.9805 111.19 42.9124 111.264 42.8608 111.349C42.8092 111.435 42.775 111.529 42.7603 111.628L42.0103 116.128C42.0035 116.168 42.0001 116.209 42 116.25C42.0015 117.313 42.3787 118.342 43.0649 119.153C43.7511 119.965 44.7021 120.508 45.75 120.687V129C45.75 129.199 45.829 129.39 45.9697 129.531C46.1103 129.671 46.3011 129.75 46.5 129.75C46.6989 129.75 46.8897 129.671 47.0303 129.531C47.171 129.39 47.25 129.199 47.25 129V120.687C48.2979 120.508 49.2489 119.965 49.9351 119.153C50.6213 118.342 50.9985 117.313 51 116.25C50.9999 116.209 50.9965 116.168 50.9897 116.128L50.2397 111.628Z" fill="#FF7A18"/>
<path d="M85.2784 126V114.364H92.4943V115.875H87.0341V119.42H91.9773V120.926H87.0341V126H85.2784ZM94.4077 126V117.273H96.0497V118.659H96.1406C96.2997 118.189 96.58 117.82 96.9815 117.551C97.3868 117.278 97.8452 117.142 98.3565 117.142C98.4626 117.142 98.5876 117.146 98.7315 117.153C98.8793 117.161 98.9948 117.17 99.0781 117.182V118.807C99.0099 118.788 98.8887 118.767 98.7145 118.744C98.5402 118.718 98.366 118.705 98.1918 118.705C97.7902 118.705 97.4323 118.79 97.1179 118.96C96.8073 119.127 96.5611 119.36 96.3793 119.659C96.1974 119.955 96.1065 120.292 96.1065 120.67V126H94.4077ZM103.997 126.176C103.137 126.176 102.397 125.992 101.776 125.625C101.158 125.254 100.681 124.733 100.344 124.062C100.01 123.388 99.8438 122.598 99.8438 121.693C99.8438 120.799 100.01 120.011 100.344 119.33C100.681 118.648 101.151 118.116 101.753 117.733C102.359 117.35 103.067 117.159 103.878 117.159C104.37 117.159 104.848 117.241 105.31 117.403C105.772 117.566 106.187 117.822 106.554 118.17C106.921 118.519 107.211 118.972 107.423 119.528C107.635 120.081 107.741 120.754 107.741 121.545V122.148H100.804V120.875H106.077C106.077 120.428 105.986 120.032 105.804 119.688C105.622 119.339 105.366 119.064 105.037 118.864C104.711 118.663 104.329 118.562 103.889 118.562C103.412 118.562 102.995 118.68 102.639 118.915C102.287 119.146 102.014 119.449 101.821 119.824C101.632 120.195 101.537 120.598 101.537 121.034V122.028C101.537 122.612 101.639 123.108 101.844 123.517C102.052 123.926 102.342 124.239 102.713 124.455C103.084 124.667 103.518 124.773 104.014 124.773C104.336 124.773 104.63 124.727 104.895 124.636C105.16 124.542 105.389 124.402 105.582 124.216C105.776 124.03 105.923 123.801 106.026 123.528L107.634 123.818C107.505 124.292 107.274 124.706 106.94 125.062C106.611 125.415 106.196 125.689 105.696 125.886C105.2 126.08 104.634 126.176 103.997 126.176ZM116.166 119.403L114.626 119.676C114.562 119.479 114.46 119.292 114.32 119.114C114.183 118.936 113.998 118.79 113.763 118.676C113.528 118.562 113.234 118.506 112.882 118.506C112.401 118.506 112 118.614 111.678 118.83C111.356 119.042 111.195 119.316 111.195 119.653C111.195 119.945 111.303 120.18 111.518 120.358C111.734 120.536 112.083 120.682 112.564 120.795L113.95 121.114C114.753 121.299 115.352 121.585 115.746 121.972C116.14 122.358 116.337 122.86 116.337 123.477C116.337 124 116.185 124.466 115.882 124.875C115.583 125.28 115.164 125.598 114.626 125.83C114.092 126.061 113.473 126.176 112.768 126.176C111.791 126.176 110.994 125.968 110.376 125.551C109.759 125.131 109.38 124.534 109.24 123.761L110.882 123.511C110.984 123.939 111.195 124.263 111.513 124.483C111.831 124.699 112.246 124.807 112.757 124.807C113.314 124.807 113.759 124.691 114.092 124.46C114.426 124.225 114.592 123.939 114.592 123.602C114.592 123.33 114.49 123.1 114.286 122.915C114.085 122.729 113.776 122.589 113.359 122.494L111.882 122.17C111.068 121.985 110.465 121.689 110.075 121.284C109.689 120.879 109.496 120.366 109.496 119.744C109.496 119.229 109.64 118.778 109.928 118.392C110.215 118.006 110.613 117.705 111.121 117.489C111.628 117.269 112.21 117.159 112.865 117.159C113.808 117.159 114.551 117.364 115.092 117.773C115.634 118.178 115.992 118.722 116.166 119.403ZM119.903 120.818V126H118.205V114.364H119.881V118.693H119.989C120.193 118.223 120.506 117.85 120.926 117.574C121.347 117.297 121.896 117.159 122.574 117.159C123.172 117.159 123.695 117.282 124.142 117.528C124.593 117.775 124.941 118.142 125.188 118.631C125.438 119.116 125.562 119.722 125.562 120.449V126H123.864V120.653C123.864 120.013 123.699 119.517 123.369 119.165C123.04 118.809 122.581 118.631 121.994 118.631C121.593 118.631 121.233 118.716 120.915 118.886C120.6 119.057 120.352 119.307 120.17 119.636C119.992 119.962 119.903 120.356 119.903 120.818ZM129.528 114.364V126H127.83V114.364H129.528ZM132.888 129.273C132.634 129.273 132.403 129.252 132.195 129.21C131.986 129.172 131.831 129.131 131.729 129.085L132.138 127.693C132.448 127.777 132.725 127.813 132.967 127.801C133.21 127.79 133.424 127.699 133.609 127.528C133.799 127.358 133.965 127.08 134.109 126.693L134.32 126.114L131.126 117.273H132.945L135.155 124.045H135.246L137.456 117.273H139.28L135.683 127.165C135.517 127.619 135.304 128.004 135.047 128.318C134.789 128.636 134.482 128.875 134.126 129.034C133.77 129.193 133.357 129.273 132.888 129.273ZM145.247 126V114.364H149.395C150.3 114.364 151.05 114.528 151.645 114.858C152.24 115.187 152.685 115.638 152.98 116.21C153.276 116.778 153.423 117.419 153.423 118.131C153.423 118.847 153.274 119.491 152.974 120.062C152.679 120.631 152.232 121.081 151.634 121.415C151.039 121.744 150.291 121.909 149.389 121.909H146.537V120.42H149.23C149.802 120.42 150.266 120.322 150.622 120.125C150.978 119.924 151.24 119.652 151.406 119.307C151.573 118.962 151.656 118.57 151.656 118.131C151.656 117.691 151.573 117.301 151.406 116.96C151.24 116.619 150.976 116.352 150.616 116.159C150.26 115.966 149.791 115.869 149.207 115.869H147.003V126H145.247ZM155.345 126V117.273H156.987V118.659H157.078C157.237 118.189 157.518 117.82 157.919 117.551C158.324 117.278 158.783 117.142 159.294 117.142C159.4 117.142 159.525 117.146 159.669 117.153C159.817 117.161 159.932 117.17 160.016 117.182V118.807C159.947 118.788 159.826 118.767 159.652 118.744C159.478 118.718 159.304 118.705 159.129 118.705C158.728 118.705 158.37 118.79 158.055 118.96C157.745 119.127 157.499 119.36 157.317 119.659C157.135 119.955 157.044 120.292 157.044 120.67V126H155.345ZM164.935 126.176C164.075 126.176 163.334 125.992 162.713 125.625C162.096 125.254 161.618 124.733 161.281 124.062C160.948 123.388 160.781 122.598 160.781 121.693C160.781 120.799 160.948 120.011 161.281 119.33C161.618 118.648 162.088 118.116 162.69 117.733C163.296 117.35 164.005 117.159 164.815 117.159C165.308 117.159 165.785 117.241 166.247 117.403C166.709 117.566 167.124 117.822 167.491 118.17C167.859 118.519 168.149 118.972 168.361 119.528C168.573 120.081 168.679 120.754 168.679 121.545V122.148H161.741V120.875H167.014C167.014 120.428 166.923 120.032 166.741 119.688C166.56 119.339 166.304 119.064 165.974 118.864C165.649 118.663 165.266 118.562 164.827 118.562C164.349 118.562 163.933 118.68 163.577 118.915C163.224 119.146 162.952 119.449 162.759 119.824C162.569 120.195 162.474 120.598 162.474 121.034V122.028C162.474 122.612 162.577 123.108 162.781 123.517C162.99 123.926 163.279 124.239 163.651 124.455C164.022 124.667 164.455 124.773 164.952 124.773C165.274 124.773 165.567 124.727 165.832 124.636C166.098 124.542 166.327 124.402 166.52 124.216C166.713 124.03 166.861 123.801 166.963 123.528L168.571 123.818C168.442 124.292 168.211 124.706 167.878 125.062C167.548 125.415 167.134 125.689 166.634 125.886C166.137 126.08 165.571 126.176 164.935 126.176ZM170.564 129.273V117.273H172.223V118.688H172.365C172.464 118.506 172.606 118.295 172.791 118.057C172.977 117.818 173.234 117.61 173.564 117.432C173.893 117.25 174.329 117.159 174.871 117.159C175.575 117.159 176.204 117.337 176.757 117.693C177.31 118.049 177.744 118.562 178.058 119.233C178.376 119.903 178.536 120.71 178.536 121.653C178.536 122.597 178.378 123.405 178.064 124.08C177.75 124.75 177.318 125.267 176.768 125.631C176.219 125.991 175.592 126.17 174.888 126.17C174.357 126.17 173.924 126.081 173.587 125.903C173.253 125.725 172.992 125.517 172.803 125.278C172.613 125.04 172.467 124.828 172.365 124.642H172.263V129.273H170.564ZM172.229 121.636C172.229 122.25 172.318 122.788 172.496 123.25C172.674 123.712 172.931 124.074 173.268 124.335C173.606 124.593 174.018 124.722 174.507 124.722C175.015 124.722 175.439 124.587 175.78 124.318C176.121 124.045 176.378 123.676 176.553 123.21C176.731 122.744 176.82 122.22 176.82 121.636C176.82 121.061 176.732 120.544 176.558 120.085C176.388 119.627 176.13 119.265 175.786 119C175.445 118.735 175.018 118.602 174.507 118.602C174.015 118.602 173.598 118.729 173.257 118.983C172.92 119.237 172.664 119.591 172.49 120.045C172.316 120.5 172.229 121.03 172.229 121.636ZM182.979 126.193C182.426 126.193 181.926 126.091 181.479 125.886C181.032 125.678 180.678 125.377 180.416 124.983C180.159 124.589 180.03 124.106 180.03 123.534C180.03 123.042 180.125 122.636 180.314 122.318C180.503 122 180.759 121.748 181.081 121.562C181.403 121.377 181.763 121.237 182.161 121.142C182.558 121.047 182.964 120.975 183.376 120.926C183.899 120.866 184.323 120.816 184.649 120.778C184.975 120.737 185.212 120.67 185.359 120.58C185.507 120.489 185.581 120.341 185.581 120.136V120.097C185.581 119.6 185.441 119.216 185.161 118.943C184.884 118.67 184.471 118.534 183.922 118.534C183.35 118.534 182.899 118.661 182.57 118.915C182.244 119.165 182.018 119.443 181.893 119.75L180.297 119.386C180.486 118.856 180.763 118.428 181.126 118.102C181.494 117.773 181.916 117.534 182.393 117.386C182.871 117.235 183.373 117.159 183.899 117.159C184.248 117.159 184.617 117.201 185.007 117.284C185.401 117.364 185.768 117.511 186.109 117.727C186.454 117.943 186.736 118.252 186.956 118.653C187.176 119.051 187.286 119.568 187.286 120.205V126H185.626V124.807H185.558C185.448 125.027 185.284 125.242 185.064 125.455C184.844 125.667 184.562 125.843 184.217 125.983C183.873 126.123 183.46 126.193 182.979 126.193ZM183.348 124.83C183.818 124.83 184.219 124.737 184.553 124.551C184.89 124.366 185.145 124.123 185.32 123.824C185.498 123.521 185.587 123.197 185.587 122.852V121.727C185.526 121.788 185.409 121.845 185.234 121.898C185.064 121.947 184.869 121.991 184.649 122.028C184.429 122.062 184.215 122.095 184.007 122.125C183.799 122.152 183.625 122.174 183.484 122.193C183.155 122.235 182.854 122.305 182.581 122.403C182.312 122.502 182.096 122.644 181.933 122.83C181.774 123.011 181.695 123.254 181.695 123.557C181.695 123.977 181.85 124.295 182.161 124.511C182.471 124.723 182.867 124.83 183.348 124.83ZM189.548 126V117.273H191.19V118.659H191.281C191.44 118.189 191.721 117.82 192.122 117.551C192.527 117.278 192.986 117.142 193.497 117.142C193.603 117.142 193.728 117.146 193.872 117.153C194.02 117.161 194.135 117.17 194.219 117.182V118.807C194.151 118.788 194.029 118.767 193.855 118.744C193.681 118.718 193.507 118.705 193.332 118.705C192.931 118.705 192.573 118.79 192.259 118.96C191.948 119.127 191.702 119.36 191.52 119.659C191.338 119.955 191.247 120.292 191.247 120.67V126H189.548ZM199.138 126.176C198.278 126.176 197.537 125.992 196.916 125.625C196.299 125.254 195.821 124.733 195.484 124.062C195.151 123.388 194.984 122.598 194.984 121.693C194.984 120.799 195.151 120.011 195.484 119.33C195.821 118.648 196.291 118.116 196.893 117.733C197.5 117.35 198.208 117.159 199.018 117.159C199.511 117.159 199.988 117.241 200.45 117.403C200.912 117.566 201.327 117.822 201.695 118.17C202.062 118.519 202.352 118.972 202.564 119.528C202.776 120.081 202.882 120.754 202.882 121.545V122.148H195.945V120.875H201.217C201.217 120.428 201.126 120.032 200.945 119.688C200.763 119.339 200.507 119.064 200.178 118.864C199.852 118.663 199.469 118.562 199.03 118.562C198.553 118.562 198.136 118.68 197.78 118.915C197.428 119.146 197.155 119.449 196.962 119.824C196.772 120.195 196.678 120.598 196.678 121.034V122.028C196.678 122.612 196.78 123.108 196.984 123.517C197.193 123.926 197.482 124.239 197.854 124.455C198.225 124.667 198.659 124.773 199.155 124.773C199.477 124.773 199.77 124.727 200.036 124.636C200.301 124.542 200.53 124.402 200.723 124.216C200.916 124.03 201.064 123.801 201.166 123.528L202.774 123.818C202.645 124.292 202.414 124.706 202.081 125.062C201.751 125.415 201.337 125.689 200.837 125.886C200.34 126.08 199.774 126.176 199.138 126.176ZM208.034 126.17C207.33 126.17 206.701 125.991 206.148 125.631C205.598 125.267 205.167 124.75 204.852 124.08C204.542 123.405 204.386 122.597 204.386 121.653C204.386 120.71 204.544 119.903 204.858 119.233C205.176 118.562 205.612 118.049 206.165 117.693C206.718 117.337 207.345 117.159 208.045 117.159C208.587 117.159 209.023 117.25 209.352 117.432C209.686 117.61 209.943 117.818 210.125 118.057C210.311 118.295 210.455 118.506 210.557 118.688H210.659V114.364H212.358V126H210.699V124.642H210.557C210.455 124.828 210.307 125.04 210.114 125.278C209.924 125.517 209.663 125.725 209.33 125.903C208.996 126.081 208.564 126.17 208.034 126.17ZM208.409 124.722C208.898 124.722 209.311 124.593 209.648 124.335C209.989 124.074 210.246 123.712 210.42 123.25C210.598 122.788 210.688 122.25 210.688 121.636C210.688 121.03 210.6 120.5 210.426 120.045C210.252 119.591 209.996 119.237 209.659 118.983C209.322 118.729 208.905 118.602 208.409 118.602C207.898 118.602 207.472 118.735 207.131 119C206.79 119.265 206.532 119.627 206.358 120.085C206.188 120.544 206.102 121.061 206.102 121.636C206.102 122.22 206.189 122.744 206.364 123.21C206.538 123.676 206.795 124.045 207.136 124.318C207.481 124.587 207.905 124.722 208.409 124.722Z" fill="black"/>
</svg>
