<svg width="372" height="88" viewBox="0 0 372 88" fill="none" xmlns="http://www.w3.org/2000/svg">
<path d="M2.77841 18V6.36364H10.0739V7.875H4.53409V11.4205H9.69318V12.9261H4.53409V16.4886H10.142V18H2.77841ZM13.6236 9.27273L15.5497 12.6705L17.4929 9.27273H19.3509L16.6293 13.6364L19.3736 18H17.5156L15.5497 14.7386L13.5895 18H11.7259L14.4418 13.6364L11.7599 9.27273H13.6236ZM21.0952 21.2727V9.27273H22.7543V10.6875H22.8963C22.9948 10.5057 23.1368 10.2955 23.3224 10.0568C23.508 9.81818 23.7656 9.60985 24.0952 9.43182C24.4247 9.25 24.8603 9.15909 25.402 9.15909C26.1065 9.15909 26.7353 9.33712 27.2884 9.69318C27.8414 10.0492 28.2751 10.5625 28.5895 11.233C28.9077 11.9034 29.0668 12.7102 29.0668 13.6534C29.0668 14.5966 28.9096 15.4053 28.5952 16.0795C28.2808 16.75 27.849 17.267 27.2997 17.6307C26.7505 17.9905 26.1236 18.1705 25.419 18.1705C24.8887 18.1705 24.455 18.0814 24.1179 17.9034C23.7846 17.7254 23.5232 17.517 23.3338 17.2784C23.1444 17.0398 22.9986 16.8277 22.8963 16.642H22.794V21.2727H21.0952ZM22.7599 13.6364C22.7599 14.25 22.849 14.7879 23.027 15.25C23.205 15.7121 23.4626 16.0739 23.7997 16.3352C24.1368 16.5928 24.5497 16.7216 25.0384 16.7216C25.5459 16.7216 25.9702 16.5871 26.3111 16.3182C26.652 16.0455 26.9096 15.6761 27.0838 15.2102C27.2618 14.7443 27.3509 14.2197 27.3509 13.6364C27.3509 13.0606 27.2637 12.5436 27.0895 12.0852C26.919 11.6269 26.6615 11.2652 26.3168 11C25.9759 10.7348 25.5497 10.6023 25.0384 10.6023C24.5459 10.6023 24.1293 10.7292 23.7884 10.983C23.4512 11.2367 23.1955 11.5909 23.0213 12.0455C22.8471 12.5 22.7599 13.0303 22.7599 13.6364ZM30.9702 18V9.27273H32.669V18H30.9702ZM31.8281 7.92614C31.5327 7.92614 31.2789 7.82765 31.0668 7.63068C30.8584 7.42992 30.7543 7.19129 30.7543 6.91477C30.7543 6.63447 30.8584 6.39583 31.0668 6.19886C31.2789 5.99811 31.5327 5.89773 31.8281 5.89773C32.1236 5.89773 32.3755 5.99811 32.5838 6.19886C32.7959 6.39583 32.902 6.63447 32.902 6.91477C32.902 7.19129 32.7959 7.42992 32.5838 7.63068C32.3755 7.82765 32.1236 7.92614 31.8281 7.92614ZM34.9545 18V9.27273H36.5966V10.6591H36.6875C36.8466 10.1894 37.1269 9.82008 37.5284 9.55114C37.9337 9.27841 38.392 9.14205 38.9034 9.14205C39.0095 9.14205 39.1345 9.14583 39.2784 9.15341C39.4261 9.16098 39.5417 9.17045 39.625 9.18182V10.8068C39.5568 10.7879 39.4356 10.767 39.2614 10.7443C39.0871 10.7178 38.9129 10.7045 38.7386 10.7045C38.3371 10.7045 37.9792 10.7898 37.6648 10.9602C37.3542 11.1269 37.108 11.3598 36.9261 11.6591C36.7443 11.9545 36.6534 12.2917 36.6534 12.6705V18H34.9545ZM43.5568 18.1932C43.0038 18.1932 42.5038 18.0909 42.0568 17.8864C41.6098 17.678 41.2557 17.3769 40.9943 16.983C40.7367 16.589 40.608 16.1061 40.608 15.5341C40.608 15.0417 40.7027 14.6364 40.892 14.3182C41.0814 14 41.3371 13.7481 41.6591 13.5625C41.9811 13.3769 42.3409 13.2367 42.7386 13.142C43.1364 13.0473 43.5417 12.9754 43.9545 12.9261C44.4773 12.8655 44.9015 12.8163 45.2273 12.7784C45.553 12.7367 45.7898 12.6705 45.9375 12.5795C46.0852 12.4886 46.1591 12.3409 46.1591 12.1364V12.0966C46.1591 11.6004 46.0189 11.2159 45.7386 10.9432C45.4621 10.6705 45.0492 10.5341 44.5 10.5341C43.928 10.5341 43.4773 10.661 43.1477 10.9148C42.822 11.1648 42.5966 11.4432 42.4716 11.75L40.875 11.3864C41.0644 10.8561 41.3409 10.428 41.7045 10.1023C42.072 9.77273 42.4943 9.53409 42.9716 9.38636C43.4489 9.23485 43.9508 9.15909 44.4773 9.15909C44.8258 9.15909 45.1951 9.20076 45.5852 9.28409C45.9792 9.36364 46.3466 9.51136 46.6875 9.72727C47.0322 9.94318 47.3144 10.2519 47.5341 10.6534C47.7538 11.0511 47.8636 11.5682 47.8636 12.2045V18H46.2045V16.8068H46.1364C46.0265 17.0265 45.8617 17.2424 45.642 17.4545C45.4223 17.6667 45.1402 17.8428 44.7955 17.983C44.4508 18.1231 44.0379 18.1932 43.5568 18.1932ZM43.9261 16.8295C44.3958 16.8295 44.7973 16.7367 45.1307 16.5511C45.4678 16.3655 45.7235 16.1231 45.8977 15.8239C46.0758 15.5208 46.1648 15.197 46.1648 14.8523V13.7273C46.1042 13.7879 45.9867 13.8447 45.8125 13.8977C45.642 13.947 45.447 13.9905 45.2273 14.0284C45.0076 14.0625 44.7936 14.0947 44.5852 14.125C44.3769 14.1515 44.2027 14.1742 44.0625 14.1932C43.733 14.2348 43.4318 14.3049 43.1591 14.4034C42.8902 14.5019 42.6742 14.6439 42.5114 14.8295C42.3523 15.0114 42.2727 15.2538 42.2727 15.5568C42.2727 15.9773 42.428 16.2955 42.7386 16.5114C43.0492 16.7235 43.4451 16.8295 43.9261 16.8295ZM54.2003 9.27273V10.6364H49.4332V9.27273H54.2003ZM50.7116 7.18182H52.4105V15.4375C52.4105 15.767 52.4598 16.0152 52.5582 16.1818C52.6567 16.3447 52.7836 16.4564 52.9389 16.517C53.098 16.5739 53.2704 16.6023 53.456 16.6023C53.5923 16.6023 53.7116 16.5928 53.8139 16.5739C53.9162 16.5549 53.9957 16.5398 54.0526 16.5284L54.3594 17.9318C54.2609 17.9697 54.1207 18.0076 53.9389 18.0455C53.7571 18.0871 53.5298 18.1098 53.2571 18.1136C52.8101 18.1212 52.3935 18.0417 52.0071 17.875C51.6207 17.7083 51.3082 17.4508 51.0696 17.1023C50.831 16.7538 50.7116 16.3163 50.7116 15.7898V7.18182ZM56.0795 18V9.27273H57.7784V18H56.0795ZM56.9375 7.92614C56.642 7.92614 56.3883 7.82765 56.1761 7.63068C55.9678 7.42992 55.8636 7.19129 55.8636 6.91477C55.8636 6.63447 55.9678 6.39583 56.1761 6.19886C56.3883 5.99811 56.642 5.89773 56.9375 5.89773C57.233 5.89773 57.4848 5.99811 57.6932 6.19886C57.9053 6.39583 58.0114 6.63447 58.0114 6.91477C58.0114 7.19129 57.9053 7.42992 57.6932 7.63068C57.4848 7.82765 57.233 7.92614 56.9375 7.92614ZM63.7401 18.1761C62.9219 18.1761 62.2079 17.9886 61.598 17.6136C60.9882 17.2386 60.5147 16.714 60.1776 16.0398C59.8404 15.3655 59.6719 14.5777 59.6719 13.6761C59.6719 12.7708 59.8404 11.9792 60.1776 11.3011C60.5147 10.6231 60.9882 10.0966 61.598 9.72159C62.2079 9.34659 62.9219 9.15909 63.7401 9.15909C64.5582 9.15909 65.2723 9.34659 65.8821 9.72159C66.492 10.0966 66.9654 10.6231 67.3026 11.3011C67.6397 11.9792 67.8082 12.7708 67.8082 13.6761C67.8082 14.5777 67.6397 15.3655 67.3026 16.0398C66.9654 16.714 66.492 17.2386 65.8821 17.6136C65.2723 17.9886 64.5582 18.1761 63.7401 18.1761ZM63.7457 16.75C64.276 16.75 64.7154 16.6098 65.0639 16.3295C65.4124 16.0492 65.67 15.6761 65.8366 15.2102C66.0071 14.7443 66.0923 14.2311 66.0923 13.6705C66.0923 13.1136 66.0071 12.6023 65.8366 12.1364C65.67 11.6667 65.4124 11.2898 65.0639 11.0057C64.7154 10.7216 64.276 10.5795 63.7457 10.5795C63.2116 10.5795 62.7685 10.7216 62.4162 11.0057C62.0677 11.2898 61.8082 11.6667 61.6378 12.1364C61.4711 12.6023 61.3878 13.1136 61.3878 13.6705C61.3878 14.2311 61.4711 14.7443 61.6378 15.2102C61.8082 15.6761 62.0677 16.0492 62.4162 16.3295C62.7685 16.6098 63.2116 16.75 63.7457 16.75ZM71.4034 12.8182V18H69.7045V9.27273H71.3352V10.6932H71.4432C71.6439 10.2311 71.9583 9.85985 72.3864 9.57955C72.8182 9.29924 73.3617 9.15909 74.017 9.15909C74.6117 9.15909 75.1326 9.28409 75.5795 9.53409C76.0265 9.7803 76.3731 10.1477 76.6193 10.6364C76.8655 11.125 76.9886 11.7292 76.9886 12.4489V18H75.2898V12.6534C75.2898 12.0208 75.125 11.5265 74.7955 11.1705C74.4659 10.8106 74.0133 10.6307 73.4375 10.6307C73.0436 10.6307 72.6932 10.7159 72.3864 10.8864C72.0833 11.0568 71.8428 11.3068 71.6648 11.6364C71.4905 11.9621 71.4034 12.3561 71.4034 12.8182ZM87.4048 18H83.6378V6.36364H87.5241C88.6643 6.36364 89.6435 6.59659 90.4616 7.0625C91.2798 7.52462 91.9067 8.18939 92.3423 9.05682C92.7817 9.92045 93.0014 10.9564 93.0014 12.1648C93.0014 13.3769 92.7798 14.4186 92.3366 15.2898C91.8973 16.161 91.2609 16.8314 90.4276 17.3011C89.5942 17.767 88.5866 18 87.4048 18ZM85.3935 16.4659H87.3082C88.1946 16.4659 88.9313 16.2992 89.5185 15.9659C90.1056 15.6288 90.545 15.142 90.8366 14.5057C91.1283 13.8655 91.2741 13.0852 91.2741 12.1648C91.2741 11.2519 91.1283 10.4773 90.8366 9.84091C90.5488 9.20455 90.1188 8.72159 89.5469 8.39205C88.9749 8.0625 88.2647 7.89773 87.4162 7.89773H85.3935V16.4659ZM97.5881 18.1932C97.035 18.1932 96.535 18.0909 96.0881 17.8864C95.6411 17.678 95.2869 17.3769 95.0256 16.983C94.768 16.589 94.6392 16.1061 94.6392 15.5341C94.6392 15.0417 94.7339 14.6364 94.9233 14.3182C95.1127 14 95.3684 13.7481 95.6903 13.5625C96.0123 13.3769 96.3722 13.2367 96.7699 13.142C97.1676 13.0473 97.5729 12.9754 97.9858 12.9261C98.5085 12.8655 98.9328 12.8163 99.2585 12.7784C99.5843 12.7367 99.821 12.6705 99.9688 12.5795C100.116 12.4886 100.19 12.3409 100.19 12.1364V12.0966C100.19 11.6004 100.05 11.2159 99.7699 10.9432C99.4934 10.6705 99.0805 10.5341 98.5312 10.5341C97.9593 10.5341 97.5085 10.661 97.179 10.9148C96.8532 11.1648 96.6278 11.4432 96.5028 11.75L94.9062 11.3864C95.0956 10.8561 95.3722 10.428 95.7358 10.1023C96.1032 9.77273 96.5256 9.53409 97.0028 9.38636C97.4801 9.23485 97.982 9.15909 98.5085 9.15909C98.857 9.15909 99.2263 9.20076 99.6165 9.28409C100.01 9.36364 100.378 9.51136 100.719 9.72727C101.063 9.94318 101.346 10.2519 101.565 10.6534C101.785 11.0511 101.895 11.5682 101.895 12.2045V18H100.236V16.8068H100.168C100.058 17.0265 99.893 17.2424 99.6733 17.4545C99.4536 17.6667 99.1714 17.8428 98.8267 17.983C98.482 18.1231 98.0691 18.1932 97.5881 18.1932ZM97.9574 16.8295C98.4271 16.8295 98.8286 16.7367 99.1619 16.5511C99.4991 16.3655 99.7547 16.1231 99.929 15.8239C100.107 15.5208 100.196 15.197 100.196 14.8523V13.7273C100.135 13.7879 100.018 13.8447 99.8438 13.8977C99.6733 13.947 99.4782 13.9905 99.2585 14.0284C99.0388 14.0625 98.8248 14.0947 98.6165 14.125C98.4081 14.1515 98.2339 14.1742 98.0938 14.1932C97.7642 14.2348 97.4631 14.3049 97.1903 14.4034C96.9214 14.5019 96.7055 14.6439 96.5426 14.8295C96.3835 15.0114 96.304 15.2538 96.304 15.5568C96.304 15.9773 96.4593 16.2955 96.7699 16.5114C97.0805 16.7235 97.4763 16.8295 97.9574 16.8295ZM108.232 9.27273V10.6364H103.464V9.27273H108.232ZM104.743 7.18182H106.442V15.4375C106.442 15.767 106.491 16.0152 106.589 16.1818C106.688 16.3447 106.815 16.4564 106.97 16.517C107.129 16.5739 107.302 16.6023 107.487 16.6023C107.624 16.6023 107.743 16.5928 107.845 16.5739C107.947 16.5549 108.027 16.5398 108.084 16.5284L108.391 17.9318C108.292 17.9697 108.152 18.0076 107.97 18.0455C107.788 18.0871 107.561 18.1098 107.288 18.1136C106.841 18.1212 106.425 18.0417 106.038 17.875C105.652 17.7083 105.339 17.4508 105.101 17.1023C104.862 16.7538 104.743 16.3163 104.743 15.7898V7.18182ZM113.778 18.1761C112.919 18.1761 112.178 17.9924 111.557 17.625C110.939 17.2538 110.462 16.733 110.125 16.0625C109.792 15.3883 109.625 14.5985 109.625 13.6932C109.625 12.7992 109.792 12.0114 110.125 11.3295C110.462 10.6477 110.932 10.1155 111.534 9.73295C112.14 9.35038 112.848 9.15909 113.659 9.15909C114.152 9.15909 114.629 9.24053 115.091 9.40341C115.553 9.56629 115.968 9.82197 116.335 10.1705C116.703 10.5189 116.992 10.9716 117.205 11.5284C117.417 12.0814 117.523 12.7538 117.523 13.5455V14.1477H110.585V12.875H115.858C115.858 12.428 115.767 12.0322 115.585 11.6875C115.403 11.339 115.148 11.0644 114.818 10.8636C114.492 10.6629 114.11 10.5625 113.67 10.5625C113.193 10.5625 112.777 10.6799 112.42 10.9148C112.068 11.1458 111.795 11.4489 111.602 11.8239C111.413 12.1951 111.318 12.5985 111.318 13.0341V14.0284C111.318 14.6117 111.42 15.108 111.625 15.517C111.833 15.9261 112.123 16.2386 112.494 16.4545C112.866 16.6667 113.299 16.7727 113.795 16.7727C114.117 16.7727 114.411 16.7273 114.676 16.6364C114.941 16.5417 115.17 16.4015 115.364 16.2159C115.557 16.0303 115.705 15.8011 115.807 15.5284L117.415 15.8182C117.286 16.2917 117.055 16.7064 116.722 17.0625C116.392 17.4148 115.977 17.6894 115.477 17.8864C114.981 18.0795 114.415 18.1761 113.778 18.1761Z" fill="#0A0D13"/>
<rect x="0.75" y="39.25" width="177" height="47.5" rx="4.75" stroke="#ACACAC" stroke-width="1.5"/>
<path d="M18.9091 57.3636H20.5909L24.5455 67.0227H24.6818L28.6364 57.3636H30.3182V69H29V60.1591H28.8864L25.25 69H23.9773L20.3409 60.1591H20.2273V69H18.9091V57.3636ZM32.8235 57.3636H34.5053L38.4598 67.0227H38.5962L42.5507 57.3636H44.2326V69H42.9144V60.1591H42.8007L39.1644 69H37.8916L34.2553 60.1591H34.1416V69H32.8235V57.3636ZM50.6697 56.8182L46.9197 70.75H45.6924L49.4424 56.8182H50.6697ZM51.121 57.3636H52.7346L55.9619 62.7955H56.0982L59.3255 57.3636H60.9391L56.7346 64.2045V69H55.3255V64.2045L51.121 57.3636ZM61.4416 57.3636H63.0552L66.2825 62.7955H66.4189L69.6461 57.3636H71.2598L67.0552 64.2045V69H65.6461V64.2045L61.4416 57.3636Z" fill="#ACACAC"/>
<path d="M205.943 10.1477H204.17C204.102 9.76894 203.975 9.43561 203.79 9.14773C203.604 8.85985 203.377 8.61553 203.108 8.41477C202.839 8.21401 202.538 8.0625 202.205 7.96023C201.875 7.85795 201.525 7.80682 201.153 7.80682C200.483 7.80682 199.883 7.97538 199.352 8.3125C198.826 8.64962 198.409 9.14394 198.102 9.79545C197.799 10.447 197.648 11.2424 197.648 12.1818C197.648 13.1288 197.799 13.928 198.102 14.5795C198.409 15.2311 198.828 15.7235 199.358 16.0568C199.888 16.3902 200.485 16.5568 201.148 16.5568C201.515 16.5568 201.864 16.5076 202.193 16.4091C202.527 16.3068 202.828 16.1572 203.097 15.9602C203.366 15.7633 203.593 15.5227 203.778 15.2386C203.968 14.9508 204.098 14.6212 204.17 14.25L205.943 14.2557C205.848 14.8277 205.665 15.3542 205.392 15.8352C205.123 16.3125 204.777 16.7254 204.352 17.0739C203.932 17.4186 203.451 17.6856 202.909 17.875C202.367 18.0644 201.777 18.1591 201.136 18.1591C200.129 18.1591 199.231 17.9205 198.443 17.4432C197.655 16.9621 197.034 16.2746 196.58 15.3807C196.129 14.4867 195.903 13.4205 195.903 12.1818C195.903 10.9394 196.131 9.87311 196.585 8.98295C197.04 8.08901 197.661 7.40341 198.449 6.92614C199.237 6.44508 200.133 6.20455 201.136 6.20455C201.754 6.20455 202.33 6.29356 202.864 6.47159C203.402 6.64583 203.884 6.90341 204.312 7.24432C204.741 7.58144 205.095 7.99432 205.375 8.48295C205.655 8.9678 205.845 9.52273 205.943 10.1477ZM209.061 6.36364L212.3 15.8409H212.43L215.669 6.36364H217.567L213.379 18H211.351L207.163 6.36364H209.061ZM220.264 6.36364L223.503 15.8409H223.634L226.872 6.36364H228.77L224.582 18H222.554L218.366 6.36364H220.264Z" fill="#0A0D13"/>
<rect x="194.25" y="39.25" width="177" height="47.5" rx="4.75" stroke="#ACACAC" stroke-width="1.5"/>
<path d="M216.295 57.3636V69H214.886V58.8409H214.818L211.977 60.7273V59.2955L214.886 57.3636H216.295ZM219.322 69V67.9773L223.163 63.7727C223.614 63.2803 223.985 62.8523 224.277 62.4886C224.568 62.1212 224.784 61.7765 224.924 61.4545C225.068 61.1288 225.14 60.7879 225.14 60.4318C225.14 60.0227 225.042 59.6686 224.845 59.3693C224.652 59.0701 224.386 58.839 224.049 58.6761C223.712 58.5133 223.333 58.4318 222.913 58.4318C222.466 58.4318 222.076 58.5246 221.742 58.7102C221.413 58.892 221.157 59.1477 220.975 59.4773C220.797 59.8068 220.708 60.1932 220.708 60.6364H219.367C219.367 59.9545 219.525 59.3561 219.839 58.8409C220.153 58.3258 220.582 57.9242 221.123 57.6364C221.669 57.3485 222.28 57.2045 222.958 57.2045C223.64 57.2045 224.244 57.3485 224.771 57.6364C225.297 57.9242 225.71 58.3125 226.01 58.8011C226.309 59.2898 226.458 59.8333 226.458 60.4318C226.458 60.8598 226.381 61.2784 226.225 61.6875C226.074 62.0928 225.809 62.5455 225.43 63.0455C225.055 63.5417 224.534 64.1477 223.867 64.8636L221.254 67.6591V67.75H226.663V69H219.322ZM232.621 69.1591C231.871 69.1591 231.203 69.0303 230.616 68.7727C230.032 68.5152 229.568 68.1572 229.224 67.6989C228.883 67.2367 228.697 66.7008 228.667 66.0909H230.099C230.129 66.4659 230.258 66.7898 230.485 67.0625C230.712 67.3314 231.01 67.5398 231.377 67.6875C231.744 67.8352 232.152 67.9091 232.599 67.9091C233.099 67.9091 233.542 67.822 233.928 67.6477C234.315 67.4735 234.618 67.2311 234.837 66.9205C235.057 66.6098 235.167 66.25 235.167 65.8409C235.167 65.4129 235.061 65.036 234.849 64.7102C234.637 64.3807 234.326 64.1231 233.917 63.9375C233.508 63.7519 233.008 63.6591 232.417 63.6591H231.485V62.4091H232.417C232.879 62.4091 233.284 62.3258 233.633 62.1591C233.985 61.9924 234.26 61.7576 234.457 61.4545C234.657 61.1515 234.758 60.7955 234.758 60.3864C234.758 59.9924 234.671 59.6496 234.496 59.358C234.322 59.0663 234.076 58.839 233.758 58.6761C233.443 58.5133 233.072 58.4318 232.644 58.4318C232.243 58.4318 231.864 58.5057 231.508 58.6534C231.155 58.7973 230.868 59.0076 230.644 59.2841C230.421 59.5568 230.299 59.8864 230.28 60.2727H228.917C228.94 59.6629 229.123 59.1288 229.468 58.6705C229.813 58.2083 230.263 57.8485 230.82 57.5909C231.381 57.3333 231.996 57.2045 232.667 57.2045C233.387 57.2045 234.004 57.3504 234.519 57.642C235.034 57.9299 235.43 58.3106 235.707 58.7841C235.983 59.2576 236.121 59.7689 236.121 60.3182C236.121 60.9735 235.949 61.5322 235.604 61.9943C235.263 62.4564 234.799 62.7765 234.212 62.9545V63.0455C234.947 63.1667 235.521 63.4792 235.934 63.983C236.347 64.483 236.553 65.1023 236.553 65.8409C236.553 66.4735 236.381 67.0417 236.036 67.5455C235.695 68.0455 235.229 68.4394 234.638 68.7273C234.048 69.0152 233.375 69.1591 232.621 69.1591Z" fill="#ACACAC"/>
</svg>
