<svg width="365" height="208" viewBox="0 0 365 208" fill="none" xmlns="http://www.w3.org/2000/svg">
<rect y="10" width="365" height="56" rx="8" fill="#F3F4F6"/>
<rect x="9" y="16" width="44" height="44" rx="13" fill="#FFE1C4"/>
<path d="M39.25 29.7504V47.0005C39.25 47.1994 39.171 47.3901 39.0303 47.5308C38.8897 47.6714 38.6989 47.7505 38.5 47.7505C38.3011 47.7505 38.1103 47.6714 37.9697 47.5308C37.829 47.3901 37.75 47.1994 37.75 47.0005V42.5005H33.25C33.0511 42.5005 32.8603 42.4214 32.7197 42.2808C32.579 42.1401 32.5 41.9494 32.5 41.7505C32.5349 39.9539 32.7618 38.1662 33.1769 36.418C34.0938 32.622 35.8319 30.0776 38.2047 29.0614C38.3187 29.0125 38.4431 28.9927 38.5667 29.0038C38.6903 29.0148 38.8092 29.0563 38.9128 29.1246C39.0164 29.1929 39.1014 29.2858 39.1603 29.395C39.2191 29.5043 39.2499 29.6264 39.25 29.7504ZM30.2397 29.6276C30.225 29.5292 30.1908 29.4346 30.1392 29.3494C30.0876 29.2643 30.0195 29.1903 29.939 29.1317C29.8585 29.0732 29.7671 29.0312 29.6702 29.0083C29.5733 28.9855 29.4728 28.9821 29.3746 28.9985C29.2764 29.0149 29.1824 29.0506 29.0982 29.1037C29.0139 29.1568 28.9411 29.2261 28.8839 29.3076C28.8267 29.3891 28.7863 29.4812 28.7651 29.5785C28.7439 29.6757 28.7423 29.7763 28.7603 29.8742L29.4897 34.2505H27.25V29.7504C27.25 29.5515 27.171 29.3608 27.0303 29.2201C26.8897 29.0795 26.6989 29.0004 26.5 29.0004C26.3011 29.0004 26.1103 29.0795 25.9697 29.2201C25.829 29.3608 25.75 29.5515 25.75 29.7504V34.2505H23.5103L24.2397 29.8742C24.2577 29.7763 24.2561 29.6757 24.2349 29.5785C24.2137 29.4812 24.1733 29.3891 24.1161 29.3076C24.0589 29.2261 23.9861 29.1568 23.9018 29.1037C23.8176 29.0506 23.7236 29.0149 23.6254 28.9985C23.5272 28.9821 23.4267 28.9855 23.3298 29.0083C23.2329 29.0312 23.1415 29.0732 23.061 29.1317C22.9805 29.1903 22.9124 29.2643 22.8608 29.3494C22.8092 29.4346 22.775 29.5292 22.7603 29.6276L22.0103 34.1276C22.0035 34.1682 22.0001 34.2093 22 34.2505C22.0015 35.3134 22.3787 36.3416 23.0649 37.1534C23.7511 37.9652 24.7021 38.5083 25.75 38.6867V47.0005C25.75 47.1994 25.829 47.3901 25.9697 47.5308C26.1103 47.6714 26.3011 47.7505 26.5 47.7505C26.6989 47.7505 26.8897 47.6714 27.0303 47.5308C27.171 47.3901 27.25 47.1994 27.25 47.0005V38.6867C28.2979 38.5083 29.2489 37.9652 29.9351 37.1534C30.6213 36.3416 30.9985 35.3134 31 34.2505C30.9999 34.2093 30.9965 34.1682 30.9897 34.1276L30.2397 29.6276Z" fill="#FF7A18"/>
<path d="M65.2784 44V32.3636H72.4943V33.875H67.0341V37.4205H71.9773V38.9261H67.0341V44H65.2784ZM74.4077 44V35.2727H76.0497V36.6591H76.1406C76.2997 36.1894 76.58 35.8201 76.9815 35.5511C77.3868 35.2784 77.8452 35.142 78.3565 35.142C78.4626 35.142 78.5876 35.1458 78.7315 35.1534C78.8793 35.161 78.9948 35.1705 79.0781 35.1818V36.8068C79.0099 36.7879 78.8887 36.767 78.7145 36.7443C78.5402 36.7178 78.366 36.7045 78.1918 36.7045C77.7902 36.7045 77.4323 36.7898 77.1179 36.9602C76.8073 37.1269 76.5611 37.3598 76.3793 37.6591C76.1974 37.9545 76.1065 38.2917 76.1065 38.6705V44H74.4077ZM83.9972 44.1761C83.1373 44.1761 82.3968 43.9924 81.7756 43.625C81.1581 43.2538 80.6809 42.733 80.3438 42.0625C80.0104 41.3883 79.8438 40.5985 79.8438 39.6932C79.8438 38.7992 80.0104 38.0114 80.3438 37.3295C80.6809 36.6477 81.1506 36.1155 81.7528 35.733C82.3589 35.3504 83.0672 35.1591 83.8778 35.1591C84.3703 35.1591 84.8475 35.2405 85.3097 35.4034C85.7718 35.5663 86.1866 35.822 86.554 36.1705C86.9214 36.5189 87.2112 36.9716 87.4233 37.5284C87.6354 38.0814 87.7415 38.7538 87.7415 39.5455V40.1477H80.804V38.875H86.0767C86.0767 38.428 85.9858 38.0322 85.804 37.6875C85.6222 37.339 85.3665 37.0644 85.0369 36.8636C84.7112 36.6629 84.3286 36.5625 83.8892 36.5625C83.4119 36.5625 82.9953 36.6799 82.6392 36.9148C82.2869 37.1458 82.0142 37.4489 81.821 37.8239C81.6316 38.1951 81.5369 38.5985 81.5369 39.0341V40.0284C81.5369 40.6117 81.6392 41.108 81.8438 41.517C82.0521 41.9261 82.3419 42.2386 82.7131 42.4545C83.0843 42.6667 83.518 42.7727 84.0142 42.7727C84.3362 42.7727 84.6297 42.7273 84.8949 42.6364C85.16 42.5417 85.3892 42.4015 85.5824 42.2159C85.7756 42.0303 85.9233 41.8011 86.0256 41.5284L87.6335 41.8182C87.5047 42.2917 87.2737 42.7064 86.9403 43.0625C86.6108 43.4148 86.196 43.6894 85.696 43.8864C85.1998 44.0795 84.6335 44.1761 83.9972 44.1761ZM96.1662 37.4034L94.6264 37.6761C94.562 37.4792 94.4598 37.2917 94.3196 37.1136C94.1832 36.9356 93.9976 36.7898 93.7628 36.6761C93.5279 36.5625 93.2344 36.5057 92.8821 36.5057C92.401 36.5057 91.9995 36.6136 91.6776 36.8295C91.3556 37.0417 91.1946 37.3163 91.1946 37.6534C91.1946 37.9451 91.3026 38.1799 91.5185 38.358C91.7344 38.536 92.0829 38.6818 92.5639 38.7955L93.9503 39.1136C94.7533 39.2992 95.3518 39.5852 95.7457 39.9716C96.1397 40.358 96.3366 40.8598 96.3366 41.4773C96.3366 42 96.1851 42.4659 95.8821 42.875C95.5829 43.2803 95.1643 43.5985 94.6264 43.8295C94.0923 44.0606 93.473 44.1761 92.7685 44.1761C91.7912 44.1761 90.9938 43.9678 90.3764 43.5511C89.759 43.1307 89.3802 42.5341 89.2401 41.7614L90.8821 41.5114C90.9844 41.9394 91.1946 42.2633 91.5128 42.483C91.831 42.6989 92.2457 42.8068 92.7571 42.8068C93.3139 42.8068 93.759 42.6913 94.0923 42.4602C94.4257 42.2254 94.5923 41.9394 94.5923 41.6023C94.5923 41.3295 94.4901 41.1004 94.2855 40.9148C94.0848 40.7292 93.776 40.589 93.3594 40.4943L91.8821 40.1705C91.0677 39.9848 90.4654 39.6894 90.0753 39.2841C89.6889 38.8788 89.4957 38.3655 89.4957 37.7443C89.4957 37.2292 89.6397 36.7784 89.9276 36.392C90.2154 36.0057 90.6132 35.7045 91.1207 35.4886C91.6283 35.2689 92.2098 35.1591 92.8651 35.1591C93.8082 35.1591 94.5507 35.3636 95.0923 35.7727C95.634 36.178 95.992 36.7216 96.1662 37.4034ZM99.9034 38.8182V44H98.2045V32.3636H99.8807V36.6932H99.9886C100.193 36.2235 100.506 35.8504 100.926 35.5739C101.347 35.2973 101.896 35.1591 102.574 35.1591C103.172 35.1591 103.695 35.2822 104.142 35.5284C104.593 35.7746 104.941 36.142 105.188 36.6307C105.438 37.1155 105.562 37.7216 105.562 38.4489V44H103.864V38.6534C103.864 38.0133 103.699 37.517 103.369 37.1648C103.04 36.8087 102.581 36.6307 101.994 36.6307C101.593 36.6307 101.233 36.7159 100.915 36.8864C100.6 37.0568 100.352 37.3068 100.17 37.6364C99.9924 37.9621 99.9034 38.3561 99.9034 38.8182ZM109.528 32.3636V44H107.83V32.3636H109.528ZM112.888 47.2727C112.634 47.2727 112.403 47.2519 112.195 47.2102C111.986 47.1723 111.831 47.1307 111.729 47.0852L112.138 45.6932C112.448 45.7765 112.725 45.8125 112.967 45.8011C113.21 45.7898 113.424 45.6989 113.609 45.5284C113.799 45.358 113.965 45.0795 114.109 44.6932L114.32 44.1136L111.126 35.2727H112.945L115.155 42.0455H115.246L117.456 35.2727H119.28L115.683 45.1648C115.517 45.6193 115.304 46.0038 115.047 46.3182C114.789 46.6364 114.482 46.875 114.126 47.0341C113.77 47.1932 113.357 47.2727 112.888 47.2727ZM125.247 44V32.3636H129.395C130.3 32.3636 131.05 32.5284 131.645 32.858C132.24 33.1875 132.685 33.6383 132.98 34.2102C133.276 34.7784 133.423 35.4186 133.423 36.1307C133.423 36.8466 133.274 37.4905 132.974 38.0625C132.679 38.6307 132.232 39.0814 131.634 39.4148C131.039 39.7443 130.291 39.9091 129.389 39.9091H126.537V38.4205H129.23C129.802 38.4205 130.266 38.322 130.622 38.125C130.978 37.9242 131.24 37.6515 131.406 37.3068C131.573 36.9621 131.656 36.5701 131.656 36.1307C131.656 35.6913 131.573 35.3011 131.406 34.9602C131.24 34.6193 130.976 34.3523 130.616 34.1591C130.26 33.9659 129.791 33.8693 129.207 33.8693H127.003V44H125.247ZM135.345 44V35.2727H136.987V36.6591H137.078C137.237 36.1894 137.518 35.8201 137.919 35.5511C138.324 35.2784 138.783 35.142 139.294 35.142C139.4 35.142 139.525 35.1458 139.669 35.1534C139.817 35.161 139.932 35.1705 140.016 35.1818V36.8068C139.947 36.7879 139.826 36.767 139.652 36.7443C139.478 36.7178 139.304 36.7045 139.129 36.7045C138.728 36.7045 138.37 36.7898 138.055 36.9602C137.745 37.1269 137.499 37.3598 137.317 37.6591C137.135 37.9545 137.044 38.2917 137.044 38.6705V44H135.345ZM144.935 44.1761C144.075 44.1761 143.334 43.9924 142.713 43.625C142.096 43.2538 141.618 42.733 141.281 42.0625C140.948 41.3883 140.781 40.5985 140.781 39.6932C140.781 38.7992 140.948 38.0114 141.281 37.3295C141.618 36.6477 142.088 36.1155 142.69 35.733C143.296 35.3504 144.005 35.1591 144.815 35.1591C145.308 35.1591 145.785 35.2405 146.247 35.4034C146.709 35.5663 147.124 35.822 147.491 36.1705C147.859 36.5189 148.149 36.9716 148.361 37.5284C148.573 38.0814 148.679 38.7538 148.679 39.5455V40.1477H141.741V38.875H147.014C147.014 38.428 146.923 38.0322 146.741 37.6875C146.56 37.339 146.304 37.0644 145.974 36.8636C145.649 36.6629 145.266 36.5625 144.827 36.5625C144.349 36.5625 143.933 36.6799 143.577 36.9148C143.224 37.1458 142.952 37.4489 142.759 37.8239C142.569 38.1951 142.474 38.5985 142.474 39.0341V40.0284C142.474 40.6117 142.577 41.108 142.781 41.517C142.99 41.9261 143.279 42.2386 143.651 42.4545C144.022 42.6667 144.455 42.7727 144.952 42.7727C145.274 42.7727 145.567 42.7273 145.832 42.6364C146.098 42.5417 146.327 42.4015 146.52 42.2159C146.713 42.0303 146.861 41.8011 146.963 41.5284L148.571 41.8182C148.442 42.2917 148.211 42.7064 147.878 43.0625C147.548 43.4148 147.134 43.6894 146.634 43.8864C146.137 44.0795 145.571 44.1761 144.935 44.1761ZM150.564 47.2727V35.2727H152.223V36.6875H152.365C152.464 36.5057 152.606 36.2955 152.791 36.0568C152.977 35.8182 153.234 35.6098 153.564 35.4318C153.893 35.25 154.329 35.1591 154.871 35.1591C155.575 35.1591 156.204 35.3371 156.757 35.6932C157.31 36.0492 157.744 36.5625 158.058 37.233C158.376 37.9034 158.536 38.7102 158.536 39.6534C158.536 40.5966 158.378 41.4053 158.064 42.0795C157.75 42.75 157.318 43.267 156.768 43.6307C156.219 43.9905 155.592 44.1705 154.888 44.1705C154.357 44.1705 153.924 44.0814 153.587 43.9034C153.253 43.7254 152.992 43.517 152.803 43.2784C152.613 43.0398 152.467 42.8277 152.365 42.642H152.263V47.2727H150.564ZM152.229 39.6364C152.229 40.25 152.318 40.7879 152.496 41.25C152.674 41.7121 152.931 42.0739 153.268 42.3352C153.606 42.5928 154.018 42.7216 154.507 42.7216C155.015 42.7216 155.439 42.5871 155.78 42.3182C156.121 42.0455 156.378 41.6761 156.553 41.2102C156.731 40.7443 156.82 40.2197 156.82 39.6364C156.82 39.0606 156.732 38.5436 156.558 38.0852C156.388 37.6269 156.13 37.2652 155.786 37C155.445 36.7348 155.018 36.6023 154.507 36.6023C154.015 36.6023 153.598 36.7292 153.257 36.983C152.92 37.2367 152.664 37.5909 152.49 38.0455C152.316 38.5 152.229 39.0303 152.229 39.6364ZM162.979 44.1932C162.426 44.1932 161.926 44.0909 161.479 43.8864C161.032 43.678 160.678 43.3769 160.416 42.983C160.159 42.589 160.03 42.1061 160.03 41.5341C160.03 41.0417 160.125 40.6364 160.314 40.3182C160.503 40 160.759 39.7481 161.081 39.5625C161.403 39.3769 161.763 39.2367 162.161 39.142C162.558 39.0473 162.964 38.9754 163.376 38.9261C163.899 38.8655 164.323 38.8163 164.649 38.7784C164.975 38.7367 165.212 38.6705 165.359 38.5795C165.507 38.4886 165.581 38.3409 165.581 38.1364V38.0966C165.581 37.6004 165.441 37.2159 165.161 36.9432C164.884 36.6705 164.471 36.5341 163.922 36.5341C163.35 36.5341 162.899 36.661 162.57 36.9148C162.244 37.1648 162.018 37.4432 161.893 37.75L160.297 37.3864C160.486 36.8561 160.763 36.428 161.126 36.1023C161.494 35.7727 161.916 35.5341 162.393 35.3864C162.871 35.2348 163.373 35.1591 163.899 35.1591C164.248 35.1591 164.617 35.2008 165.007 35.2841C165.401 35.3636 165.768 35.5114 166.109 35.7273C166.454 35.9432 166.736 36.2519 166.956 36.6534C167.176 37.0511 167.286 37.5682 167.286 38.2045V44H165.626V42.8068H165.558C165.448 43.0265 165.284 43.2424 165.064 43.4545C164.844 43.6667 164.562 43.8428 164.217 43.983C163.873 44.1231 163.46 44.1932 162.979 44.1932ZM163.348 42.8295C163.818 42.8295 164.219 42.7367 164.553 42.5511C164.89 42.3655 165.145 42.1231 165.32 41.8239C165.498 41.5208 165.587 41.197 165.587 40.8523V39.7273C165.526 39.7879 165.409 39.8447 165.234 39.8977C165.064 39.947 164.869 39.9905 164.649 40.0284C164.429 40.0625 164.215 40.0947 164.007 40.125C163.799 40.1515 163.625 40.1742 163.484 40.1932C163.155 40.2348 162.854 40.3049 162.581 40.4034C162.312 40.5019 162.096 40.6439 161.933 40.8295C161.774 41.0114 161.695 41.2538 161.695 41.5568C161.695 41.9773 161.85 42.2955 162.161 42.5114C162.471 42.7235 162.867 42.8295 163.348 42.8295ZM169.548 44V35.2727H171.19V36.6591H171.281C171.44 36.1894 171.721 35.8201 172.122 35.5511C172.527 35.2784 172.986 35.142 173.497 35.142C173.603 35.142 173.728 35.1458 173.872 35.1534C174.02 35.161 174.135 35.1705 174.219 35.1818V36.8068C174.151 36.7879 174.029 36.767 173.855 36.7443C173.681 36.7178 173.507 36.7045 173.332 36.7045C172.931 36.7045 172.573 36.7898 172.259 36.9602C171.948 37.1269 171.702 37.3598 171.52 37.6591C171.338 37.9545 171.247 38.2917 171.247 38.6705V44H169.548ZM179.138 44.1761C178.278 44.1761 177.537 43.9924 176.916 43.625C176.299 43.2538 175.821 42.733 175.484 42.0625C175.151 41.3883 174.984 40.5985 174.984 39.6932C174.984 38.7992 175.151 38.0114 175.484 37.3295C175.821 36.6477 176.291 36.1155 176.893 35.733C177.5 35.3504 178.208 35.1591 179.018 35.1591C179.511 35.1591 179.988 35.2405 180.45 35.4034C180.912 35.5663 181.327 35.822 181.695 36.1705C182.062 36.5189 182.352 36.9716 182.564 37.5284C182.776 38.0814 182.882 38.7538 182.882 39.5455V40.1477H175.945V38.875H181.217C181.217 38.428 181.126 38.0322 180.945 37.6875C180.763 37.339 180.507 37.0644 180.178 36.8636C179.852 36.6629 179.469 36.5625 179.03 36.5625C178.553 36.5625 178.136 36.6799 177.78 36.9148C177.428 37.1458 177.155 37.4489 176.962 37.8239C176.772 38.1951 176.678 38.5985 176.678 39.0341V40.0284C176.678 40.6117 176.78 41.108 176.984 41.517C177.193 41.9261 177.482 42.2386 177.854 42.4545C178.225 42.6667 178.659 42.7727 179.155 42.7727C179.477 42.7727 179.77 42.7273 180.036 42.6364C180.301 42.5417 180.53 42.4015 180.723 42.2159C180.916 42.0303 181.064 41.8011 181.166 41.5284L182.774 41.8182C182.645 42.2917 182.414 42.7064 182.081 43.0625C181.751 43.4148 181.337 43.6894 180.837 43.8864C180.34 44.0795 179.774 44.1761 179.138 44.1761ZM188.034 44.1705C187.33 44.1705 186.701 43.9905 186.148 43.6307C185.598 43.267 185.167 42.75 184.852 42.0795C184.542 41.4053 184.386 40.5966 184.386 39.6534C184.386 38.7102 184.544 37.9034 184.858 37.233C185.176 36.5625 185.612 36.0492 186.165 35.6932C186.718 35.3371 187.345 35.1591 188.045 35.1591C188.587 35.1591 189.023 35.25 189.352 35.4318C189.686 35.6098 189.943 35.8182 190.125 36.0568C190.311 36.2955 190.455 36.5057 190.557 36.6875H190.659V32.3636H192.358V44H190.699V42.642H190.557C190.455 42.8277 190.307 43.0398 190.114 43.2784C189.924 43.517 189.663 43.7254 189.33 43.9034C188.996 44.0814 188.564 44.1705 188.034 44.1705ZM188.409 42.7216C188.898 42.7216 189.311 42.5928 189.648 42.3352C189.989 42.0739 190.246 41.7121 190.42 41.25C190.598 40.7879 190.688 40.25 190.688 39.6364C190.688 39.0303 190.6 38.5 190.426 38.0455C190.252 37.5909 189.996 37.2367 189.659 36.983C189.322 36.7292 188.905 36.6023 188.409 36.6023C187.898 36.6023 187.472 36.7348 187.131 37C186.79 37.2652 186.532 37.6269 186.358 38.0852C186.188 38.5436 186.102 39.0606 186.102 39.6364C186.102 40.2197 186.189 40.7443 186.364 41.2102C186.538 41.6761 186.795 42.0455 187.136 42.3182C187.481 42.5871 187.905 42.7216 188.409 42.7216Z" fill="black"/>
<rect y="76" width="365" height="56" rx="8" fill="#F3F4F6"/>
<rect x="9" y="82" width="44" height="44" rx="13" fill="#FFE1C4"/>
<path d="M39.25 95.7504V113C39.25 113.199 39.171 113.39 39.0303 113.531C38.8897 113.671 38.6989 113.75 38.5 113.75C38.3011 113.75 38.1103 113.671 37.9697 113.531C37.829 113.39 37.75 113.199 37.75 113V108.5H33.25C33.0511 108.5 32.8603 108.421 32.7197 108.281C32.579 108.14 32.5 107.949 32.5 107.75C32.5349 105.954 32.7618 104.166 33.1769 102.418C34.0938 98.622 35.8319 96.0776 38.2047 95.0614C38.3187 95.0125 38.4431 94.9927 38.5667 95.0038C38.6903 95.0148 38.8092 95.0563 38.9128 95.1246C39.0164 95.1929 39.1014 95.2858 39.1603 95.395C39.2191 95.5043 39.2499 95.6264 39.25 95.7504ZM30.2397 95.6276C30.225 95.5292 30.1908 95.4346 30.1392 95.3494C30.0876 95.2643 30.0195 95.1903 29.939 95.1317C29.8585 95.0732 29.7671 95.0312 29.6702 95.0083C29.5733 94.9855 29.4728 94.9821 29.3746 94.9985C29.2764 95.0149 29.1824 95.0506 29.0982 95.1037C29.0139 95.1568 28.9411 95.2261 28.8839 95.3076C28.8267 95.3891 28.7863 95.4812 28.7651 95.5785C28.7439 95.6757 28.7423 95.7763 28.7603 95.8742L29.4897 100.25H27.25V95.7504C27.25 95.5515 27.171 95.3608 27.0303 95.2201C26.8897 95.0795 26.6989 95.0004 26.5 95.0004C26.3011 95.0004 26.1103 95.0795 25.9697 95.2201C25.829 95.3608 25.75 95.5515 25.75 95.7504V100.25H23.5103L24.2397 95.8742C24.2577 95.7763 24.2561 95.6757 24.2349 95.5785C24.2137 95.4812 24.1733 95.3891 24.1161 95.3076C24.0589 95.2261 23.9861 95.1568 23.9018 95.1037C23.8176 95.0506 23.7236 95.0149 23.6254 94.9985C23.5272 94.9821 23.4267 94.9855 23.3298 95.0083C23.2329 95.0312 23.1415 95.0732 23.061 95.1317C22.9805 95.1903 22.9124 95.2643 22.8608 95.3494C22.8092 95.4346 22.775 95.5292 22.7603 95.6276L22.0103 100.128C22.0035 100.168 22.0001 100.209 22 100.25C22.0015 101.313 22.3787 102.342 23.0649 103.153C23.7511 103.965 24.7021 104.508 25.75 104.687V113C25.75 113.199 25.829 113.39 25.9697 113.531C26.1103 113.671 26.3011 113.75 26.5 113.75C26.6989 113.75 26.8897 113.671 27.0303 113.531C27.171 113.39 27.25 113.199 27.25 113V104.687C28.2979 104.508 29.2489 103.965 29.9351 103.153C30.6213 102.342 30.9985 101.313 31 100.25C30.9999 100.209 30.9965 100.168 30.9897 100.128L30.2397 95.6276Z" fill="#FF7A18"/>
<path d="M65.2784 110V98.3636H72.4943V99.875H67.0341V103.42H71.9773V104.926H67.0341V110H65.2784ZM74.4077 110V101.273H76.0497V102.659H76.1406C76.2997 102.189 76.58 101.82 76.9815 101.551C77.3868 101.278 77.8452 101.142 78.3565 101.142C78.4626 101.142 78.5876 101.146 78.7315 101.153C78.8793 101.161 78.9948 101.17 79.0781 101.182V102.807C79.0099 102.788 78.8887 102.767 78.7145 102.744C78.5402 102.718 78.366 102.705 78.1918 102.705C77.7902 102.705 77.4323 102.79 77.1179 102.96C76.8073 103.127 76.5611 103.36 76.3793 103.659C76.1974 103.955 76.1065 104.292 76.1065 104.67V110H74.4077ZM83.9972 110.176C83.1373 110.176 82.3968 109.992 81.7756 109.625C81.1581 109.254 80.6809 108.733 80.3438 108.062C80.0104 107.388 79.8438 106.598 79.8438 105.693C79.8438 104.799 80.0104 104.011 80.3438 103.33C80.6809 102.648 81.1506 102.116 81.7528 101.733C82.3589 101.35 83.0672 101.159 83.8778 101.159C84.3703 101.159 84.8475 101.241 85.3097 101.403C85.7718 101.566 86.1866 101.822 86.554 102.17C86.9214 102.519 87.2112 102.972 87.4233 103.528C87.6354 104.081 87.7415 104.754 87.7415 105.545V106.148H80.804V104.875H86.0767C86.0767 104.428 85.9858 104.032 85.804 103.688C85.6222 103.339 85.3665 103.064 85.0369 102.864C84.7112 102.663 84.3286 102.562 83.8892 102.562C83.4119 102.562 82.9953 102.68 82.6392 102.915C82.2869 103.146 82.0142 103.449 81.821 103.824C81.6316 104.195 81.5369 104.598 81.5369 105.034V106.028C81.5369 106.612 81.6392 107.108 81.8438 107.517C82.0521 107.926 82.3419 108.239 82.7131 108.455C83.0843 108.667 83.518 108.773 84.0142 108.773C84.3362 108.773 84.6297 108.727 84.8949 108.636C85.16 108.542 85.3892 108.402 85.5824 108.216C85.7756 108.03 85.9233 107.801 86.0256 107.528L87.6335 107.818C87.5047 108.292 87.2737 108.706 86.9403 109.062C86.6108 109.415 86.196 109.689 85.696 109.886C85.1998 110.08 84.6335 110.176 83.9972 110.176ZM96.1662 103.403L94.6264 103.676C94.562 103.479 94.4598 103.292 94.3196 103.114C94.1832 102.936 93.9976 102.79 93.7628 102.676C93.5279 102.562 93.2344 102.506 92.8821 102.506C92.401 102.506 91.9995 102.614 91.6776 102.83C91.3556 103.042 91.1946 103.316 91.1946 103.653C91.1946 103.945 91.3026 104.18 91.5185 104.358C91.7344 104.536 92.0829 104.682 92.5639 104.795L93.9503 105.114C94.7533 105.299 95.3518 105.585 95.7457 105.972C96.1397 106.358 96.3366 106.86 96.3366 107.477C96.3366 108 96.1851 108.466 95.8821 108.875C95.5829 109.28 95.1643 109.598 94.6264 109.83C94.0923 110.061 93.473 110.176 92.7685 110.176C91.7912 110.176 90.9938 109.968 90.3764 109.551C89.759 109.131 89.3802 108.534 89.2401 107.761L90.8821 107.511C90.9844 107.939 91.1946 108.263 91.5128 108.483C91.831 108.699 92.2457 108.807 92.7571 108.807C93.3139 108.807 93.759 108.691 94.0923 108.46C94.4257 108.225 94.5923 107.939 94.5923 107.602C94.5923 107.33 94.4901 107.1 94.2855 106.915C94.0848 106.729 93.776 106.589 93.3594 106.494L91.8821 106.17C91.0677 105.985 90.4654 105.689 90.0753 105.284C89.6889 104.879 89.4957 104.366 89.4957 103.744C89.4957 103.229 89.6397 102.778 89.9276 102.392C90.2154 102.006 90.6132 101.705 91.1207 101.489C91.6283 101.269 92.2098 101.159 92.8651 101.159C93.8082 101.159 94.5507 101.364 95.0923 101.773C95.634 102.178 95.992 102.722 96.1662 103.403ZM99.9034 104.818V110H98.2045V98.3636H99.8807V102.693H99.9886C100.193 102.223 100.506 101.85 100.926 101.574C101.347 101.297 101.896 101.159 102.574 101.159C103.172 101.159 103.695 101.282 104.142 101.528C104.593 101.775 104.941 102.142 105.188 102.631C105.438 103.116 105.562 103.722 105.562 104.449V110H103.864V104.653C103.864 104.013 103.699 103.517 103.369 103.165C103.04 102.809 102.581 102.631 101.994 102.631C101.593 102.631 101.233 102.716 100.915 102.886C100.6 103.057 100.352 103.307 100.17 103.636C99.9924 103.962 99.9034 104.356 99.9034 104.818ZM109.528 98.3636V110H107.83V98.3636H109.528ZM112.888 113.273C112.634 113.273 112.403 113.252 112.195 113.21C111.986 113.172 111.831 113.131 111.729 113.085L112.138 111.693C112.448 111.777 112.725 111.813 112.967 111.801C113.21 111.79 113.424 111.699 113.609 111.528C113.799 111.358 113.965 111.08 114.109 110.693L114.32 110.114L111.126 101.273H112.945L115.155 108.045H115.246L117.456 101.273H119.28L115.683 111.165C115.517 111.619 115.304 112.004 115.047 112.318C114.789 112.636 114.482 112.875 114.126 113.034C113.77 113.193 113.357 113.273 112.888 113.273ZM125.247 110V98.3636H129.395C130.3 98.3636 131.05 98.5284 131.645 98.858C132.24 99.1875 132.685 99.6383 132.98 100.21C133.276 100.778 133.423 101.419 133.423 102.131C133.423 102.847 133.274 103.491 132.974 104.062C132.679 104.631 132.232 105.081 131.634 105.415C131.039 105.744 130.291 105.909 129.389 105.909H126.537V104.42H129.23C129.802 104.42 130.266 104.322 130.622 104.125C130.978 103.924 131.24 103.652 131.406 103.307C131.573 102.962 131.656 102.57 131.656 102.131C131.656 101.691 131.573 101.301 131.406 100.96C131.24 100.619 130.976 100.352 130.616 100.159C130.26 99.9659 129.791 99.8693 129.207 99.8693H127.003V110H125.247ZM135.345 110V101.273H136.987V102.659H137.078C137.237 102.189 137.518 101.82 137.919 101.551C138.324 101.278 138.783 101.142 139.294 101.142C139.4 101.142 139.525 101.146 139.669 101.153C139.817 101.161 139.932 101.17 140.016 101.182V102.807C139.947 102.788 139.826 102.767 139.652 102.744C139.478 102.718 139.304 102.705 139.129 102.705C138.728 102.705 138.37 102.79 138.055 102.96C137.745 103.127 137.499 103.36 137.317 103.659C137.135 103.955 137.044 104.292 137.044 104.67V110H135.345ZM144.935 110.176C144.075 110.176 143.334 109.992 142.713 109.625C142.096 109.254 141.618 108.733 141.281 108.062C140.948 107.388 140.781 106.598 140.781 105.693C140.781 104.799 140.948 104.011 141.281 103.33C141.618 102.648 142.088 102.116 142.69 101.733C143.296 101.35 144.005 101.159 144.815 101.159C145.308 101.159 145.785 101.241 146.247 101.403C146.709 101.566 147.124 101.822 147.491 102.17C147.859 102.519 148.149 102.972 148.361 103.528C148.573 104.081 148.679 104.754 148.679 105.545V106.148H141.741V104.875H147.014C147.014 104.428 146.923 104.032 146.741 103.688C146.56 103.339 146.304 103.064 145.974 102.864C145.649 102.663 145.266 102.562 144.827 102.562C144.349 102.562 143.933 102.68 143.577 102.915C143.224 103.146 142.952 103.449 142.759 103.824C142.569 104.195 142.474 104.598 142.474 105.034V106.028C142.474 106.612 142.577 107.108 142.781 107.517C142.99 107.926 143.279 108.239 143.651 108.455C144.022 108.667 144.455 108.773 144.952 108.773C145.274 108.773 145.567 108.727 145.832 108.636C146.098 108.542 146.327 108.402 146.52 108.216C146.713 108.03 146.861 107.801 146.963 107.528L148.571 107.818C148.442 108.292 148.211 108.706 147.878 109.062C147.548 109.415 147.134 109.689 146.634 109.886C146.137 110.08 145.571 110.176 144.935 110.176ZM150.564 113.273V101.273H152.223V102.688H152.365C152.464 102.506 152.606 102.295 152.791 102.057C152.977 101.818 153.234 101.61 153.564 101.432C153.893 101.25 154.329 101.159 154.871 101.159C155.575 101.159 156.204 101.337 156.757 101.693C157.31 102.049 157.744 102.562 158.058 103.233C158.376 103.903 158.536 104.71 158.536 105.653C158.536 106.597 158.378 107.405 158.064 108.08C157.75 108.75 157.318 109.267 156.768 109.631C156.219 109.991 155.592 110.17 154.888 110.17C154.357 110.17 153.924 110.081 153.587 109.903C153.253 109.725 152.992 109.517 152.803 109.278C152.613 109.04 152.467 108.828 152.365 108.642H152.263V113.273H150.564ZM152.229 105.636C152.229 106.25 152.318 106.788 152.496 107.25C152.674 107.712 152.931 108.074 153.268 108.335C153.606 108.593 154.018 108.722 154.507 108.722C155.015 108.722 155.439 108.587 155.78 108.318C156.121 108.045 156.378 107.676 156.553 107.21C156.731 106.744 156.82 106.22 156.82 105.636C156.82 105.061 156.732 104.544 156.558 104.085C156.388 103.627 156.13 103.265 155.786 103C155.445 102.735 155.018 102.602 154.507 102.602C154.015 102.602 153.598 102.729 153.257 102.983C152.92 103.237 152.664 103.591 152.49 104.045C152.316 104.5 152.229 105.03 152.229 105.636ZM162.979 110.193C162.426 110.193 161.926 110.091 161.479 109.886C161.032 109.678 160.678 109.377 160.416 108.983C160.159 108.589 160.03 108.106 160.03 107.534C160.03 107.042 160.125 106.636 160.314 106.318C160.503 106 160.759 105.748 161.081 105.562C161.403 105.377 161.763 105.237 162.161 105.142C162.558 105.047 162.964 104.975 163.376 104.926C163.899 104.866 164.323 104.816 164.649 104.778C164.975 104.737 165.212 104.67 165.359 104.58C165.507 104.489 165.581 104.341 165.581 104.136V104.097C165.581 103.6 165.441 103.216 165.161 102.943C164.884 102.67 164.471 102.534 163.922 102.534C163.35 102.534 162.899 102.661 162.57 102.915C162.244 103.165 162.018 103.443 161.893 103.75L160.297 103.386C160.486 102.856 160.763 102.428 161.126 102.102C161.494 101.773 161.916 101.534 162.393 101.386C162.871 101.235 163.373 101.159 163.899 101.159C164.248 101.159 164.617 101.201 165.007 101.284C165.401 101.364 165.768 101.511 166.109 101.727C166.454 101.943 166.736 102.252 166.956 102.653C167.176 103.051 167.286 103.568 167.286 104.205V110H165.626V108.807H165.558C165.448 109.027 165.284 109.242 165.064 109.455C164.844 109.667 164.562 109.843 164.217 109.983C163.873 110.123 163.46 110.193 162.979 110.193ZM163.348 108.83C163.818 108.83 164.219 108.737 164.553 108.551C164.89 108.366 165.145 108.123 165.32 107.824C165.498 107.521 165.587 107.197 165.587 106.852V105.727C165.526 105.788 165.409 105.845 165.234 105.898C165.064 105.947 164.869 105.991 164.649 106.028C164.429 106.062 164.215 106.095 164.007 106.125C163.799 106.152 163.625 106.174 163.484 106.193C163.155 106.235 162.854 106.305 162.581 106.403C162.312 106.502 162.096 106.644 161.933 106.83C161.774 107.011 161.695 107.254 161.695 107.557C161.695 107.977 161.85 108.295 162.161 108.511C162.471 108.723 162.867 108.83 163.348 108.83ZM169.548 110V101.273H171.19V102.659H171.281C171.44 102.189 171.721 101.82 172.122 101.551C172.527 101.278 172.986 101.142 173.497 101.142C173.603 101.142 173.728 101.146 173.872 101.153C174.02 101.161 174.135 101.17 174.219 101.182V102.807C174.151 102.788 174.029 102.767 173.855 102.744C173.681 102.718 173.507 102.705 173.332 102.705C172.931 102.705 172.573 102.79 172.259 102.96C171.948 103.127 171.702 103.36 171.52 103.659C171.338 103.955 171.247 104.292 171.247 104.67V110H169.548ZM179.138 110.176C178.278 110.176 177.537 109.992 176.916 109.625C176.299 109.254 175.821 108.733 175.484 108.062C175.151 107.388 174.984 106.598 174.984 105.693C174.984 104.799 175.151 104.011 175.484 103.33C175.821 102.648 176.291 102.116 176.893 101.733C177.5 101.35 178.208 101.159 179.018 101.159C179.511 101.159 179.988 101.241 180.45 101.403C180.912 101.566 181.327 101.822 181.695 102.17C182.062 102.519 182.352 102.972 182.564 103.528C182.776 104.081 182.882 104.754 182.882 105.545V106.148H175.945V104.875H181.217C181.217 104.428 181.126 104.032 180.945 103.688C180.763 103.339 180.507 103.064 180.178 102.864C179.852 102.663 179.469 102.562 179.03 102.562C178.553 102.562 178.136 102.68 177.78 102.915C177.428 103.146 177.155 103.449 176.962 103.824C176.772 104.195 176.678 104.598 176.678 105.034V106.028C176.678 106.612 176.78 107.108 176.984 107.517C177.193 107.926 177.482 108.239 177.854 108.455C178.225 108.667 178.659 108.773 179.155 108.773C179.477 108.773 179.77 108.727 180.036 108.636C180.301 108.542 180.53 108.402 180.723 108.216C180.916 108.03 181.064 107.801 181.166 107.528L182.774 107.818C182.645 108.292 182.414 108.706 182.081 109.062C181.751 109.415 181.337 109.689 180.837 109.886C180.34 110.08 179.774 110.176 179.138 110.176ZM188.034 110.17C187.33 110.17 186.701 109.991 186.148 109.631C185.598 109.267 185.167 108.75 184.852 108.08C184.542 107.405 184.386 106.597 184.386 105.653C184.386 104.71 184.544 103.903 184.858 103.233C185.176 102.562 185.612 102.049 186.165 101.693C186.718 101.337 187.345 101.159 188.045 101.159C188.587 101.159 189.023 101.25 189.352 101.432C189.686 101.61 189.943 101.818 190.125 102.057C190.311 102.295 190.455 102.506 190.557 102.688H190.659V98.3636H192.358V110H190.699V108.642H190.557C190.455 108.828 190.307 109.04 190.114 109.278C189.924 109.517 189.663 109.725 189.33 109.903C188.996 110.081 188.564 110.17 188.034 110.17ZM188.409 108.722C188.898 108.722 189.311 108.593 189.648 108.335C189.989 108.074 190.246 107.712 190.42 107.25C190.598 106.788 190.688 106.25 190.688 105.636C190.688 105.03 190.6 104.5 190.426 104.045C190.252 103.591 189.996 103.237 189.659 102.983C189.322 102.729 188.905 102.602 188.409 102.602C187.898 102.602 187.472 102.735 187.131 103C186.79 103.265 186.532 103.627 186.358 104.085C186.188 104.544 186.102 105.061 186.102 105.636C186.102 106.22 186.189 106.744 186.364 107.21C186.538 107.676 186.795 108.045 187.136 108.318C187.481 108.587 187.905 108.722 188.409 108.722Z" fill="black"/>
<rect y="142" width="365" height="56" rx="8" fill="#F3F4F6"/>
<rect x="9" y="148" width="44" height="44" rx="13" fill="#FFE1C4"/>
<path d="M39.25 161.75V179C39.25 179.199 39.171 179.39 39.0303 179.531C38.8897 179.671 38.6989 179.75 38.5 179.75C38.3011 179.75 38.1103 179.671 37.9697 179.531C37.829 179.39 37.75 179.199 37.75 179V174.5H33.25C33.0511 174.5 32.8603 174.421 32.7197 174.281C32.579 174.14 32.5 173.949 32.5 173.75C32.5349 171.954 32.7618 170.166 33.1769 168.418C34.0938 164.622 35.8319 162.078 38.2047 161.061C38.3187 161.013 38.4431 160.993 38.5667 161.004C38.6903 161.015 38.8092 161.056 38.9128 161.125C39.0164 161.193 39.1014 161.286 39.1603 161.395C39.2191 161.504 39.2499 161.626 39.25 161.75ZM30.2397 161.628C30.225 161.529 30.1908 161.435 30.1392 161.349C30.0876 161.264 30.0195 161.19 29.939 161.132C29.8585 161.073 29.7671 161.031 29.6702 161.008C29.5733 160.985 29.4728 160.982 29.3746 160.998C29.2764 161.015 29.1824 161.051 29.0982 161.104C29.0139 161.157 28.9411 161.226 28.8839 161.308C28.8267 161.389 28.7863 161.481 28.7651 161.578C28.7439 161.676 28.7423 161.776 28.7603 161.874L29.4897 166.25H27.25V161.75C27.25 161.552 27.171 161.361 27.0303 161.22C26.8897 161.079 26.6989 161 26.5 161C26.3011 161 26.1103 161.079 25.9697 161.22C25.829 161.361 25.75 161.552 25.75 161.75V166.25H23.5103L24.2397 161.874C24.2577 161.776 24.2561 161.676 24.2349 161.578C24.2137 161.481 24.1733 161.389 24.1161 161.308C24.0589 161.226 23.9861 161.157 23.9018 161.104C23.8176 161.051 23.7236 161.015 23.6254 160.998C23.5272 160.982 23.4267 160.985 23.3298 161.008C23.2329 161.031 23.1415 161.073 23.061 161.132C22.9805 161.19 22.9124 161.264 22.8608 161.349C22.8092 161.435 22.775 161.529 22.7603 161.628L22.0103 166.128C22.0035 166.168 22.0001 166.209 22 166.25C22.0015 167.313 22.3787 168.342 23.0649 169.153C23.7511 169.965 24.7021 170.508 25.75 170.687V179C25.75 179.199 25.829 179.39 25.9697 179.531C26.1103 179.671 26.3011 179.75 26.5 179.75C26.6989 179.75 26.8897 179.671 27.0303 179.531C27.171 179.39 27.25 179.199 27.25 179V170.687C28.2979 170.508 29.2489 169.965 29.9351 169.153C30.6213 168.342 30.9985 167.313 31 166.25C30.9999 166.209 30.9965 166.168 30.9897 166.128L30.2397 161.628Z" fill="#FF7A18"/>
<path d="M65.2784 176V164.364H72.4943V165.875H67.0341V169.42H71.9773V170.926H67.0341V176H65.2784ZM74.4077 176V167.273H76.0497V168.659H76.1406C76.2997 168.189 76.58 167.82 76.9815 167.551C77.3868 167.278 77.8452 167.142 78.3565 167.142C78.4626 167.142 78.5876 167.146 78.7315 167.153C78.8793 167.161 78.9948 167.17 79.0781 167.182V168.807C79.0099 168.788 78.8887 168.767 78.7145 168.744C78.5402 168.718 78.366 168.705 78.1918 168.705C77.7902 168.705 77.4323 168.79 77.1179 168.96C76.8073 169.127 76.5611 169.36 76.3793 169.659C76.1974 169.955 76.1065 170.292 76.1065 170.67V176H74.4077ZM83.9972 176.176C83.1373 176.176 82.3968 175.992 81.7756 175.625C81.1581 175.254 80.6809 174.733 80.3438 174.062C80.0104 173.388 79.8438 172.598 79.8438 171.693C79.8438 170.799 80.0104 170.011 80.3438 169.33C80.6809 168.648 81.1506 168.116 81.7528 167.733C82.3589 167.35 83.0672 167.159 83.8778 167.159C84.3703 167.159 84.8475 167.241 85.3097 167.403C85.7718 167.566 86.1866 167.822 86.554 168.17C86.9214 168.519 87.2112 168.972 87.4233 169.528C87.6354 170.081 87.7415 170.754 87.7415 171.545V172.148H80.804V170.875H86.0767C86.0767 170.428 85.9858 170.032 85.804 169.688C85.6222 169.339 85.3665 169.064 85.0369 168.864C84.7112 168.663 84.3286 168.562 83.8892 168.562C83.4119 168.562 82.9953 168.68 82.6392 168.915C82.2869 169.146 82.0142 169.449 81.821 169.824C81.6316 170.195 81.5369 170.598 81.5369 171.034V172.028C81.5369 172.612 81.6392 173.108 81.8438 173.517C82.0521 173.926 82.3419 174.239 82.7131 174.455C83.0843 174.667 83.518 174.773 84.0142 174.773C84.3362 174.773 84.6297 174.727 84.8949 174.636C85.16 174.542 85.3892 174.402 85.5824 174.216C85.7756 174.03 85.9233 173.801 86.0256 173.528L87.6335 173.818C87.5047 174.292 87.2737 174.706 86.9403 175.062C86.6108 175.415 86.196 175.689 85.696 175.886C85.1998 176.08 84.6335 176.176 83.9972 176.176ZM96.1662 169.403L94.6264 169.676C94.562 169.479 94.4598 169.292 94.3196 169.114C94.1832 168.936 93.9976 168.79 93.7628 168.676C93.5279 168.562 93.2344 168.506 92.8821 168.506C92.401 168.506 91.9995 168.614 91.6776 168.83C91.3556 169.042 91.1946 169.316 91.1946 169.653C91.1946 169.945 91.3026 170.18 91.5185 170.358C91.7344 170.536 92.0829 170.682 92.5639 170.795L93.9503 171.114C94.7533 171.299 95.3518 171.585 95.7457 171.972C96.1397 172.358 96.3366 172.86 96.3366 173.477C96.3366 174 96.1851 174.466 95.8821 174.875C95.5829 175.28 95.1643 175.598 94.6264 175.83C94.0923 176.061 93.473 176.176 92.7685 176.176C91.7912 176.176 90.9938 175.968 90.3764 175.551C89.759 175.131 89.3802 174.534 89.2401 173.761L90.8821 173.511C90.9844 173.939 91.1946 174.263 91.5128 174.483C91.831 174.699 92.2457 174.807 92.7571 174.807C93.3139 174.807 93.759 174.691 94.0923 174.46C94.4257 174.225 94.5923 173.939 94.5923 173.602C94.5923 173.33 94.4901 173.1 94.2855 172.915C94.0848 172.729 93.776 172.589 93.3594 172.494L91.8821 172.17C91.0677 171.985 90.4654 171.689 90.0753 171.284C89.6889 170.879 89.4957 170.366 89.4957 169.744C89.4957 169.229 89.6397 168.778 89.9276 168.392C90.2154 168.006 90.6132 167.705 91.1207 167.489C91.6283 167.269 92.2098 167.159 92.8651 167.159C93.8082 167.159 94.5507 167.364 95.0923 167.773C95.634 168.178 95.992 168.722 96.1662 169.403ZM99.9034 170.818V176H98.2045V164.364H99.8807V168.693H99.9886C100.193 168.223 100.506 167.85 100.926 167.574C101.347 167.297 101.896 167.159 102.574 167.159C103.172 167.159 103.695 167.282 104.142 167.528C104.593 167.775 104.941 168.142 105.188 168.631C105.438 169.116 105.562 169.722 105.562 170.449V176H103.864V170.653C103.864 170.013 103.699 169.517 103.369 169.165C103.04 168.809 102.581 168.631 101.994 168.631C101.593 168.631 101.233 168.716 100.915 168.886C100.6 169.057 100.352 169.307 100.17 169.636C99.9924 169.962 99.9034 170.356 99.9034 170.818ZM109.528 164.364V176H107.83V164.364H109.528ZM112.888 179.273C112.634 179.273 112.403 179.252 112.195 179.21C111.986 179.172 111.831 179.131 111.729 179.085L112.138 177.693C112.448 177.777 112.725 177.813 112.967 177.801C113.21 177.79 113.424 177.699 113.609 177.528C113.799 177.358 113.965 177.08 114.109 176.693L114.32 176.114L111.126 167.273H112.945L115.155 174.045H115.246L117.456 167.273H119.28L115.683 177.165C115.517 177.619 115.304 178.004 115.047 178.318C114.789 178.636 114.482 178.875 114.126 179.034C113.77 179.193 113.357 179.273 112.888 179.273ZM125.247 176V164.364H129.395C130.3 164.364 131.05 164.528 131.645 164.858C132.24 165.187 132.685 165.638 132.98 166.21C133.276 166.778 133.423 167.419 133.423 168.131C133.423 168.847 133.274 169.491 132.974 170.062C132.679 170.631 132.232 171.081 131.634 171.415C131.039 171.744 130.291 171.909 129.389 171.909H126.537V170.42H129.23C129.802 170.42 130.266 170.322 130.622 170.125C130.978 169.924 131.24 169.652 131.406 169.307C131.573 168.962 131.656 168.57 131.656 168.131C131.656 167.691 131.573 167.301 131.406 166.96C131.24 166.619 130.976 166.352 130.616 166.159C130.26 165.966 129.791 165.869 129.207 165.869H127.003V176H125.247ZM135.345 176V167.273H136.987V168.659H137.078C137.237 168.189 137.518 167.82 137.919 167.551C138.324 167.278 138.783 167.142 139.294 167.142C139.4 167.142 139.525 167.146 139.669 167.153C139.817 167.161 139.932 167.17 140.016 167.182V168.807C139.947 168.788 139.826 168.767 139.652 168.744C139.478 168.718 139.304 168.705 139.129 168.705C138.728 168.705 138.37 168.79 138.055 168.96C137.745 169.127 137.499 169.36 137.317 169.659C137.135 169.955 137.044 170.292 137.044 170.67V176H135.345ZM144.935 176.176C144.075 176.176 143.334 175.992 142.713 175.625C142.096 175.254 141.618 174.733 141.281 174.062C140.948 173.388 140.781 172.598 140.781 171.693C140.781 170.799 140.948 170.011 141.281 169.33C141.618 168.648 142.088 168.116 142.69 167.733C143.296 167.35 144.005 167.159 144.815 167.159C145.308 167.159 145.785 167.241 146.247 167.403C146.709 167.566 147.124 167.822 147.491 168.17C147.859 168.519 148.149 168.972 148.361 169.528C148.573 170.081 148.679 170.754 148.679 171.545V172.148H141.741V170.875H147.014C147.014 170.428 146.923 170.032 146.741 169.688C146.56 169.339 146.304 169.064 145.974 168.864C145.649 168.663 145.266 168.562 144.827 168.562C144.349 168.562 143.933 168.68 143.577 168.915C143.224 169.146 142.952 169.449 142.759 169.824C142.569 170.195 142.474 170.598 142.474 171.034V172.028C142.474 172.612 142.577 173.108 142.781 173.517C142.99 173.926 143.279 174.239 143.651 174.455C144.022 174.667 144.455 174.773 144.952 174.773C145.274 174.773 145.567 174.727 145.832 174.636C146.098 174.542 146.327 174.402 146.52 174.216C146.713 174.03 146.861 173.801 146.963 173.528L148.571 173.818C148.442 174.292 148.211 174.706 147.878 175.062C147.548 175.415 147.134 175.689 146.634 175.886C146.137 176.08 145.571 176.176 144.935 176.176ZM150.564 179.273V167.273H152.223V168.688H152.365C152.464 168.506 152.606 168.295 152.791 168.057C152.977 167.818 153.234 167.61 153.564 167.432C153.893 167.25 154.329 167.159 154.871 167.159C155.575 167.159 156.204 167.337 156.757 167.693C157.31 168.049 157.744 168.562 158.058 169.233C158.376 169.903 158.536 170.71 158.536 171.653C158.536 172.597 158.378 173.405 158.064 174.08C157.75 174.75 157.318 175.267 156.768 175.631C156.219 175.991 155.592 176.17 154.888 176.17C154.357 176.17 153.924 176.081 153.587 175.903C153.253 175.725 152.992 175.517 152.803 175.278C152.613 175.04 152.467 174.828 152.365 174.642H152.263V179.273H150.564ZM152.229 171.636C152.229 172.25 152.318 172.788 152.496 173.25C152.674 173.712 152.931 174.074 153.268 174.335C153.606 174.593 154.018 174.722 154.507 174.722C155.015 174.722 155.439 174.587 155.78 174.318C156.121 174.045 156.378 173.676 156.553 173.21C156.731 172.744 156.82 172.22 156.82 171.636C156.82 171.061 156.732 170.544 156.558 170.085C156.388 169.627 156.13 169.265 155.786 169C155.445 168.735 155.018 168.602 154.507 168.602C154.015 168.602 153.598 168.729 153.257 168.983C152.92 169.237 152.664 169.591 152.49 170.045C152.316 170.5 152.229 171.03 152.229 171.636ZM162.979 176.193C162.426 176.193 161.926 176.091 161.479 175.886C161.032 175.678 160.678 175.377 160.416 174.983C160.159 174.589 160.03 174.106 160.03 173.534C160.03 173.042 160.125 172.636 160.314 172.318C160.503 172 160.759 171.748 161.081 171.562C161.403 171.377 161.763 171.237 162.161 171.142C162.558 171.047 162.964 170.975 163.376 170.926C163.899 170.866 164.323 170.816 164.649 170.778C164.975 170.737 165.212 170.67 165.359 170.58C165.507 170.489 165.581 170.341 165.581 170.136V170.097C165.581 169.6 165.441 169.216 165.161 168.943C164.884 168.67 164.471 168.534 163.922 168.534C163.35 168.534 162.899 168.661 162.57 168.915C162.244 169.165 162.018 169.443 161.893 169.75L160.297 169.386C160.486 168.856 160.763 168.428 161.126 168.102C161.494 167.773 161.916 167.534 162.393 167.386C162.871 167.235 163.373 167.159 163.899 167.159C164.248 167.159 164.617 167.201 165.007 167.284C165.401 167.364 165.768 167.511 166.109 167.727C166.454 167.943 166.736 168.252 166.956 168.653C167.176 169.051 167.286 169.568 167.286 170.205V176H165.626V174.807H165.558C165.448 175.027 165.284 175.242 165.064 175.455C164.844 175.667 164.562 175.843 164.217 175.983C163.873 176.123 163.46 176.193 162.979 176.193ZM163.348 174.83C163.818 174.83 164.219 174.737 164.553 174.551C164.89 174.366 165.145 174.123 165.32 173.824C165.498 173.521 165.587 173.197 165.587 172.852V171.727C165.526 171.788 165.409 171.845 165.234 171.898C165.064 171.947 164.869 171.991 164.649 172.028C164.429 172.062 164.215 172.095 164.007 172.125C163.799 172.152 163.625 172.174 163.484 172.193C163.155 172.235 162.854 172.305 162.581 172.403C162.312 172.502 162.096 172.644 161.933 172.83C161.774 173.011 161.695 173.254 161.695 173.557C161.695 173.977 161.85 174.295 162.161 174.511C162.471 174.723 162.867 174.83 163.348 174.83ZM169.548 176V167.273H171.19V168.659H171.281C171.44 168.189 171.721 167.82 172.122 167.551C172.527 167.278 172.986 167.142 173.497 167.142C173.603 167.142 173.728 167.146 173.872 167.153C174.02 167.161 174.135 167.17 174.219 167.182V168.807C174.151 168.788 174.029 168.767 173.855 168.744C173.681 168.718 173.507 168.705 173.332 168.705C172.931 168.705 172.573 168.79 172.259 168.96C171.948 169.127 171.702 169.36 171.52 169.659C171.338 169.955 171.247 170.292 171.247 170.67V176H169.548ZM179.138 176.176C178.278 176.176 177.537 175.992 176.916 175.625C176.299 175.254 175.821 174.733 175.484 174.062C175.151 173.388 174.984 172.598 174.984 171.693C174.984 170.799 175.151 170.011 175.484 169.33C175.821 168.648 176.291 168.116 176.893 167.733C177.5 167.35 178.208 167.159 179.018 167.159C179.511 167.159 179.988 167.241 180.45 167.403C180.912 167.566 181.327 167.822 181.695 168.17C182.062 168.519 182.352 168.972 182.564 169.528C182.776 170.081 182.882 170.754 182.882 171.545V172.148H175.945V170.875H181.217C181.217 170.428 181.126 170.032 180.945 169.688C180.763 169.339 180.507 169.064 180.178 168.864C179.852 168.663 179.469 168.562 179.03 168.562C178.553 168.562 178.136 168.68 177.78 168.915C177.428 169.146 177.155 169.449 176.962 169.824C176.772 170.195 176.678 170.598 176.678 171.034V172.028C176.678 172.612 176.78 173.108 176.984 173.517C177.193 173.926 177.482 174.239 177.854 174.455C178.225 174.667 178.659 174.773 179.155 174.773C179.477 174.773 179.77 174.727 180.036 174.636C180.301 174.542 180.53 174.402 180.723 174.216C180.916 174.03 181.064 173.801 181.166 173.528L182.774 173.818C182.645 174.292 182.414 174.706 182.081 175.062C181.751 175.415 181.337 175.689 180.837 175.886C180.34 176.08 179.774 176.176 179.138 176.176ZM188.034 176.17C187.33 176.17 186.701 175.991 186.148 175.631C185.598 175.267 185.167 174.75 184.852 174.08C184.542 173.405 184.386 172.597 184.386 171.653C184.386 170.71 184.544 169.903 184.858 169.233C185.176 168.562 185.612 168.049 186.165 167.693C186.718 167.337 187.345 167.159 188.045 167.159C188.587 167.159 189.023 167.25 189.352 167.432C189.686 167.61 189.943 167.818 190.125 168.057C190.311 168.295 190.455 168.506 190.557 168.688H190.659V164.364H192.358V176H190.699V174.642H190.557C190.455 174.828 190.307 175.04 190.114 175.278C189.924 175.517 189.663 175.725 189.33 175.903C188.996 176.081 188.564 176.17 188.034 176.17ZM188.409 174.722C188.898 174.722 189.311 174.593 189.648 174.335C189.989 174.074 190.246 173.712 190.42 173.25C190.598 172.788 190.688 172.25 190.688 171.636C190.688 171.03 190.6 170.5 190.426 170.045C190.252 169.591 189.996 169.237 189.659 168.983C189.322 168.729 188.905 168.602 188.409 168.602C187.898 168.602 187.472 168.735 187.131 169C186.79 169.265 186.532 169.627 186.358 170.085C186.188 170.544 186.102 171.061 186.102 171.636C186.102 172.22 186.189 172.744 186.364 173.21C186.538 173.676 186.795 174.045 187.136 174.318C187.481 174.587 187.905 174.722 188.409 174.722Z" fill="black"/>
</svg>
