<svg width="336" height="70" viewBox="0 0 336 70" fill="none" xmlns="http://www.w3.org/2000/svg">
<rect width="336" height="70" rx="30" fill="white"/>
<path d="M43 33L37.0001 27M39 22C39 25.866 35.866 29 32 29C28.134 29 25 25.866 25 22C25 18.134 28.134 15 32 15C35.866 15 39 18.134 39 22Z" stroke="#807373" stroke-width="2" stroke-linecap="round" stroke-linejoin="round"/>
<path d="M99.5455 29.0455C99.4091 27.8939 98.8561 27 97.8864 26.3636C96.9167 25.7273 95.7273 25.4091 94.3182 25.4091C93.2879 25.4091 92.3864 25.5758 91.6136 25.9091C90.8485 26.2424 90.25 26.7008 89.8182 27.2841C89.3939 27.8674 89.1818 28.5303 89.1818 29.2727C89.1818 29.8939 89.3295 30.428 89.625 30.875C89.928 31.3144 90.3144 31.6818 90.7841 31.9773C91.2538 32.2652 91.7462 32.5038 92.2614 32.6932C92.7765 32.875 93.25 33.0227 93.6818 33.1364L96.0455 33.7727C96.6515 33.9318 97.3258 34.1515 98.0682 34.4318C98.8182 34.7121 99.5341 35.0947 100.216 35.5795C100.905 36.0568 101.473 36.6705 101.92 37.4205C102.367 38.1705 102.591 39.0909 102.591 40.1818C102.591 41.4394 102.261 42.5758 101.602 43.5909C100.951 44.6061 99.9962 45.4129 98.7386 46.0114C97.4886 46.6098 95.9697 46.9091 94.1818 46.9091C92.5152 46.9091 91.072 46.6402 89.8523 46.1023C88.6402 45.5644 87.6856 44.8144 86.9886 43.8523C86.2992 42.8902 85.9091 41.7727 85.8182 40.5H88.7273C88.803 41.3788 89.0985 42.1061 89.6136 42.6818C90.1364 43.25 90.7955 43.6742 91.5909 43.9545C92.3939 44.2273 93.2576 44.3636 94.1818 44.3636C95.2576 44.3636 96.2235 44.1894 97.0795 43.8409C97.9356 43.4848 98.6136 42.9924 99.1136 42.3636C99.6136 41.7273 99.8636 40.9848 99.8636 40.1364C99.8636 39.3636 99.6477 38.7348 99.2159 38.25C98.7841 37.7652 98.2159 37.3712 97.5114 37.0682C96.8068 36.7652 96.0455 36.5 95.2273 36.2727L92.3636 35.4545C90.5455 34.9318 89.1061 34.1856 88.0455 33.2159C86.9848 32.2462 86.4545 30.9773 86.4545 29.4091C86.4545 28.1061 86.8068 26.9697 87.5114 26C88.2235 25.0227 89.178 24.2652 90.375 23.7273C91.5795 23.1818 92.9242 22.9091 94.4091 22.9091C95.9091 22.9091 97.2424 23.178 98.4091 23.7159C99.5758 24.2462 100.5 24.9735 101.182 25.8977C101.871 26.822 102.235 27.8712 102.273 29.0455H99.5455ZM113.539 46.8636C111.857 46.8636 110.406 46.4924 109.187 45.75C107.975 45 107.039 43.9545 106.38 42.6136C105.728 41.2652 105.403 39.697 105.403 37.9091C105.403 36.1212 105.728 34.5455 106.38 33.1818C107.039 31.8106 107.956 30.7424 109.13 29.9773C110.312 29.2045 111.69 28.8182 113.266 28.8182C114.175 28.8182 115.073 28.9697 115.959 29.2727C116.846 29.5758 117.653 30.0682 118.38 30.75C119.107 31.4242 119.687 32.3182 120.119 33.4318C120.55 34.5455 120.766 35.9167 120.766 37.5455V38.6818H107.312V36.3636H118.039C118.039 35.3788 117.842 34.5 117.448 33.7273C117.062 32.9545 116.509 32.3447 115.789 31.8977C115.077 31.4508 114.236 31.2273 113.266 31.2273C112.198 31.2273 111.274 31.4924 110.494 32.0227C109.721 32.5455 109.126 33.2273 108.709 34.0682C108.293 34.9091 108.084 35.8106 108.084 36.7727V38.3182C108.084 39.6364 108.312 40.7538 108.766 41.6705C109.228 42.5795 109.869 43.2727 110.687 43.75C111.505 44.2197 112.456 44.4545 113.539 44.4545C114.244 44.4545 114.88 44.3561 115.448 44.1591C116.024 43.9545 116.52 43.6515 116.937 43.25C117.353 42.8409 117.675 42.3333 117.903 41.7273L120.494 42.4545C120.221 43.3333 119.762 44.1061 119.119 44.7727C118.475 45.4318 117.679 45.947 116.732 46.3182C115.785 46.6818 114.721 46.8636 113.539 46.8636ZM129.342 46.9091C128.236 46.9091 127.232 46.7008 126.331 46.2841C125.429 45.8598 124.713 45.25 124.183 44.4545C123.653 43.6515 123.388 42.6818 123.388 41.5455C123.388 40.5455 123.585 39.7348 123.979 39.1136C124.372 38.4848 124.899 37.9924 125.558 37.6364C126.217 37.2803 126.944 37.0152 127.74 36.8409C128.543 36.6591 129.35 36.5152 130.16 36.4091C131.221 36.2727 132.081 36.1705 132.74 36.1023C133.407 36.0265 133.891 35.9015 134.194 35.7273C134.505 35.553 134.66 35.25 134.66 34.8182V34.7273C134.66 33.6061 134.354 32.7348 133.74 32.1136C133.134 31.4924 132.213 31.1818 130.979 31.1818C129.698 31.1818 128.694 31.4621 127.967 32.0227C127.24 32.5833 126.729 33.1818 126.433 33.8182L123.888 32.9091C124.342 31.8485 124.948 31.0227 125.706 30.4318C126.471 29.8333 127.304 29.4167 128.206 29.1818C129.115 28.9394 130.009 28.8182 130.888 28.8182C131.448 28.8182 132.092 28.8864 132.819 29.0227C133.554 29.1515 134.263 29.4205 134.944 29.8295C135.634 30.2386 136.206 30.8561 136.66 31.6818C137.115 32.5076 137.342 33.6136 137.342 35V46.5H134.66V44.1364H134.524C134.342 44.5152 134.039 44.9205 133.615 45.3523C133.191 45.7841 132.626 46.1515 131.922 46.4545C131.217 46.7576 130.357 46.9091 129.342 46.9091ZM129.751 44.5C130.812 44.5 131.706 44.2917 132.433 43.875C133.168 43.4583 133.721 42.9205 134.092 42.2614C134.471 41.6023 134.66 40.9091 134.66 40.1818V37.7273C134.547 37.8636 134.297 37.9886 133.91 38.1023C133.532 38.2083 133.092 38.303 132.592 38.3864C132.1 38.4621 131.619 38.5303 131.149 38.5909C130.687 38.6439 130.312 38.6894 130.024 38.7273C129.327 38.8182 128.675 38.9659 128.069 39.1705C127.471 39.3674 126.986 39.6667 126.615 40.0682C126.251 40.4621 126.069 41 126.069 41.6818C126.069 42.6136 126.414 43.3182 127.104 43.7955C127.8 44.2652 128.683 44.5 129.751 44.5ZM141.597 46.5V29.0455H144.188V31.6818H144.37C144.688 30.8182 145.264 30.1174 146.097 29.5795C146.93 29.0417 147.87 28.7727 148.915 28.7727C149.112 28.7727 149.358 28.7765 149.654 28.7841C149.949 28.7917 150.173 28.803 150.324 28.8182V31.5455C150.233 31.5227 150.025 31.4886 149.699 31.4432C149.381 31.3902 149.044 31.3636 148.688 31.3636C147.839 31.3636 147.082 31.5417 146.415 31.8977C145.756 32.2462 145.233 32.7311 144.847 33.3523C144.468 33.9659 144.279 34.6667 144.279 35.4545V46.5H141.597ZM159.423 46.8636C157.787 46.8636 156.378 46.4773 155.196 45.7045C154.014 44.9318 153.105 43.8674 152.468 42.5114C151.832 41.1553 151.514 39.6061 151.514 37.8636C151.514 36.0909 151.84 34.5265 152.491 33.1705C153.15 31.8068 154.067 30.7424 155.241 29.9773C156.423 29.2045 157.802 28.8182 159.378 28.8182C160.605 28.8182 161.711 29.0455 162.696 29.5C163.681 29.9545 164.487 30.5909 165.116 31.4091C165.745 32.2273 166.135 33.1818 166.287 34.2727H163.605C163.4 33.4773 162.946 32.7727 162.241 32.1591C161.544 31.5379 160.605 31.2273 159.423 31.2273C158.378 31.2273 157.461 31.5 156.673 32.0455C155.893 32.5833 155.283 33.3447 154.843 34.3295C154.412 35.3068 154.196 36.4545 154.196 37.7727C154.196 39.1212 154.408 40.2955 154.832 41.2955C155.264 42.2955 155.87 43.072 156.65 43.625C157.438 44.178 158.362 44.4545 159.423 44.4545C160.12 44.4545 160.753 44.3333 161.321 44.0909C161.889 43.8485 162.37 43.5 162.764 43.0455C163.158 42.5909 163.438 42.0455 163.605 41.4091H166.287C166.135 42.4394 165.76 43.3674 165.162 44.1932C164.571 45.0114 163.787 45.6629 162.809 46.1477C161.84 46.625 160.711 46.8636 159.423 46.8636ZM172.249 36V46.5H169.567V23.2273H172.249V31.7727H172.476C172.885 30.8712 173.499 30.1553 174.317 29.625C175.143 29.0871 176.241 28.8182 177.613 28.8182C178.802 28.8182 179.844 29.0568 180.738 29.5341C181.631 30.0038 182.325 30.7273 182.817 31.7045C183.317 32.6742 183.567 33.9091 183.567 35.4091V46.5H180.885V35.5909C180.885 34.2045 180.525 33.1326 179.806 32.375C179.094 31.6098 178.105 31.2273 176.84 31.2273C175.961 31.2273 175.173 31.4129 174.476 31.7841C173.787 32.1553 173.241 32.697 172.84 33.4091C172.446 34.1212 172.249 34.9848 172.249 36ZM189.788 46.6818C189.227 46.6818 188.746 46.4811 188.345 46.0795C187.943 45.678 187.742 45.197 187.742 44.6364C187.742 44.0758 187.943 43.5947 188.345 43.1932C188.746 42.7917 189.227 42.5909 189.788 42.5909C190.348 42.5909 190.83 42.7917 191.231 43.1932C191.633 43.5947 191.833 44.0758 191.833 44.6364C191.833 45.0076 191.739 45.3485 191.549 45.6591C191.367 45.9697 191.121 46.2197 190.811 46.4091C190.508 46.5909 190.167 46.6818 189.788 46.6818ZM197.96 46.6818C197.4 46.6818 196.919 46.4811 196.517 46.0795C196.116 45.678 195.915 45.197 195.915 44.6364C195.915 44.0758 196.116 43.5947 196.517 43.1932C196.919 42.7917 197.4 42.5909 197.96 42.5909C198.521 42.5909 199.002 42.7917 199.404 43.1932C199.805 43.5947 200.006 44.0758 200.006 44.6364C200.006 45.0076 199.911 45.3485 199.722 45.6591C199.54 45.9697 199.294 46.2197 198.983 46.4091C198.68 46.5909 198.339 46.6818 197.96 46.6818ZM206.133 46.6818C205.572 46.6818 205.091 46.4811 204.69 46.0795C204.288 45.678 204.087 45.197 204.087 44.6364C204.087 44.0758 204.288 43.5947 204.69 43.1932C205.091 42.7917 205.572 42.5909 206.133 42.5909C206.693 42.5909 207.175 42.7917 207.576 43.1932C207.978 43.5947 208.178 44.0758 208.178 44.6364C208.178 45.0076 208.084 45.3485 207.894 45.6591C207.712 45.9697 207.466 46.2197 207.156 46.4091C206.853 46.5909 206.512 46.6818 206.133 46.6818Z" fill="#807373"/>
</svg>
