<svg width="73" height="20" viewBox="0 0 73 20" fill="none" xmlns="http://www.w3.org/2000/svg">
<rect width="73" height="20" rx="10" fill="white"/>
<path d="M10.374 4.39551C13.3994 4.39569 15.8516 6.84862 15.8516 9.87402C15.8515 11.2312 15.3565 12.4719 14.5391 13.4287L16.0986 14.9854C16.3369 15.223 16.3373 15.6084 16.0996 15.8467C15.8619 16.0848 15.4765 16.0853 15.2383 15.8477L13.6494 14.2637C12.7358 14.9465 11.6024 15.3515 10.374 15.3516C7.34862 15.3516 4.89569 12.8994 4.89551 9.87402C4.89551 6.84851 7.34851 4.39551 10.374 4.39551ZM10.374 5.61426C8.02161 5.61426 6.11426 7.52161 6.11426 9.87402C6.11444 12.2263 8.02172 14.1328 10.374 14.1328C12.7262 14.1326 14.6326 12.2262 14.6328 9.87402C14.6328 7.52172 12.7263 5.61444 10.374 5.61426Z" fill="#BDBBC1"/>
<path d="M27.8295 7.45455C27.7784 7.02273 27.571 6.6875 27.2074 6.44886C26.8438 6.21023 26.3977 6.09091 25.8693 6.09091C25.483 6.09091 25.1449 6.15341 24.8551 6.27841C24.5682 6.40341 24.3438 6.57528 24.1818 6.79403C24.0227 7.01278 23.9432 7.26136 23.9432 7.53977C23.9432 7.77273 23.9986 7.97301 24.1094 8.14062C24.223 8.3054 24.3679 8.44318 24.544 8.55398C24.7202 8.66193 24.9048 8.75142 25.098 8.82244C25.2912 8.89062 25.4688 8.94602 25.6307 8.98864L26.517 9.22727C26.7443 9.28693 26.9972 9.36932 27.2756 9.47443C27.5568 9.57955 27.8253 9.72301 28.081 9.90483C28.3395 10.0838 28.5526 10.3139 28.7202 10.5952C28.8878 10.8764 28.9716 11.2216 28.9716 11.6307C28.9716 12.1023 28.848 12.5284 28.6009 12.9091C28.3565 13.2898 27.9986 13.5923 27.527 13.8168C27.0582 14.0412 26.4886 14.1534 25.8182 14.1534C25.1932 14.1534 24.652 14.0526 24.1946 13.8509C23.7401 13.6491 23.3821 13.3679 23.1207 13.0071C22.8622 12.6463 22.7159 12.2273 22.6818 11.75H23.7727C23.8011 12.0795 23.9119 12.3523 24.1051 12.5682C24.3011 12.7812 24.5483 12.9403 24.8466 13.0455C25.1477 13.1477 25.4716 13.1989 25.8182 13.1989C26.2216 13.1989 26.5838 13.1335 26.9048 13.0028C27.2259 12.8693 27.4801 12.6847 27.6676 12.4489C27.8551 12.2102 27.9489 11.9318 27.9489 11.6136C27.9489 11.3239 27.8679 11.0881 27.706 10.9062C27.544 10.7244 27.331 10.5767 27.0668 10.4631C26.8026 10.3494 26.517 10.25 26.2102 10.1648L25.1364 9.85795C24.4545 9.66193 23.9148 9.3821 23.517 9.01847C23.1193 8.65483 22.9205 8.17898 22.9205 7.59091C22.9205 7.10227 23.0526 6.67614 23.3168 6.3125C23.5838 5.94602 23.9418 5.66193 24.3906 5.46023C24.8423 5.25568 25.3466 5.15341 25.9034 5.15341C26.4659 5.15341 26.9659 5.25426 27.4034 5.45597C27.8409 5.65483 28.1875 5.92756 28.4432 6.27415C28.7017 6.62074 28.8381 7.0142 28.8523 7.45455H27.8295ZM33.3171 14.1364C32.6864 14.1364 32.1424 13.9972 31.685 13.7188C31.2305 13.4375 30.8796 13.0455 30.6325 12.5426C30.3881 12.0369 30.266 11.4489 30.266 10.7784C30.266 10.108 30.3881 9.51705 30.6325 9.00568C30.8796 8.49148 31.2234 8.09091 31.6637 7.80398C32.1069 7.5142 32.6239 7.36932 33.2148 7.36932C33.5558 7.36932 33.8924 7.42614 34.2248 7.53977C34.5572 7.65341 34.8597 7.83807 35.1325 8.09375C35.4052 8.34659 35.6225 8.68182 35.7844 9.09943C35.9464 9.51705 36.0273 10.0312 36.0273 10.642V11.0682H30.9819V10.1989H35.0046C35.0046 9.82955 34.9308 9.5 34.783 9.21023C34.6381 8.92045 34.4308 8.69176 34.1609 8.52415C33.8938 8.35653 33.5785 8.27273 33.2148 8.27273C32.8143 8.27273 32.4677 8.37216 32.1751 8.57102C31.8853 8.76705 31.6623 9.02273 31.506 9.33807C31.3498 9.65341 31.2717 9.99148 31.2717 10.3523V10.9318C31.2717 11.4261 31.3569 11.8452 31.5273 12.1889C31.7006 12.5298 31.9407 12.7898 32.2475 12.9688C32.5543 13.1449 32.9109 13.233 33.3171 13.233C33.5813 13.233 33.82 13.196 34.033 13.1222C34.2489 13.0455 34.435 12.9318 34.5913 12.7812C34.7475 12.6278 34.8683 12.4375 34.9535 12.2102L35.9251 12.483C35.8228 12.8125 35.6509 13.1023 35.4094 13.3523C35.168 13.5994 34.8697 13.7926 34.5146 13.9318C34.1594 14.0682 33.7603 14.1364 33.3171 14.1364ZM39.4833 14.1534C39.0685 14.1534 38.6921 14.0753 38.354 13.919C38.016 13.7599 37.7475 13.5312 37.5487 13.233C37.3498 12.9318 37.2504 12.5682 37.2504 12.142C37.2504 11.767 37.3242 11.4631 37.4719 11.2301C37.6197 10.9943 37.8171 10.8097 38.0643 10.6761C38.3114 10.5426 38.5842 10.4432 38.8825 10.3778C39.1836 10.3097 39.4862 10.2557 39.7901 10.2159C40.1879 10.1648 40.5103 10.1264 40.7575 10.1009C41.0075 10.0724 41.1893 10.0256 41.3029 9.96023C41.4194 9.89489 41.4776 9.78125 41.4776 9.61932V9.58523C41.4776 9.16477 41.3626 8.83807 41.1325 8.60511C40.9052 8.37216 40.56 8.25568 40.0969 8.25568C39.6168 8.25568 39.2404 8.3608 38.9677 8.57102C38.695 8.78125 38.5032 9.00568 38.3924 9.24432L37.4379 8.90341C37.6083 8.50568 37.8356 8.19602 38.1197 7.97443C38.4066 7.75 38.7191 7.59375 39.0572 7.50568C39.3981 7.41477 39.7333 7.36932 40.0629 7.36932C40.2731 7.36932 40.5146 7.39489 40.7873 7.44602C41.0629 7.49432 41.3285 7.59517 41.5842 7.74858C41.8427 7.90199 42.0572 8.13352 42.2276 8.44318C42.3981 8.75284 42.4833 9.16761 42.4833 9.6875V14H41.4776V13.1136H41.4265C41.3583 13.2557 41.2447 13.4077 41.0856 13.5696C40.9265 13.7315 40.7148 13.8693 40.4506 13.983C40.1864 14.0966 39.864 14.1534 39.4833 14.1534ZM39.6367 13.25C40.0344 13.25 40.3697 13.1719 40.6424 13.0156C40.918 12.8594 41.1254 12.6577 41.2646 12.4105C41.4066 12.1634 41.4776 11.9034 41.4776 11.6307V10.7102C41.435 10.7614 41.3413 10.8082 41.1964 10.8509C41.0543 10.8906 40.8896 10.9261 40.7021 10.9574C40.5174 10.9858 40.337 11.0114 40.1609 11.0341C39.9876 11.054 39.8469 11.071 39.739 11.0852C39.4776 11.1193 39.2333 11.1747 39.006 11.2514C38.7816 11.3253 38.5998 11.4375 38.4606 11.5881C38.3242 11.7358 38.256 11.9375 38.256 12.1932C38.256 12.5426 38.3853 12.8068 38.6438 12.9858C38.9052 13.1619 39.2362 13.25 39.6367 13.25ZM44.3189 14V7.45455H45.2905V8.44318H45.3587C45.478 8.11932 45.6939 7.85653 46.0064 7.65483C46.3189 7.45312 46.6712 7.35227 47.0632 7.35227C47.1371 7.35227 47.2294 7.35369 47.3402 7.35653C47.451 7.35937 47.5348 7.36364 47.5916 7.36932V8.39205C47.5575 8.38352 47.4794 8.37074 47.3572 8.35369C47.2379 8.33381 47.1115 8.32386 46.978 8.32386C46.6598 8.32386 46.3757 8.39062 46.1257 8.52415C45.8786 8.65483 45.6825 8.83665 45.5376 9.0696C45.3956 9.29972 45.3246 9.5625 45.3246 9.85795V14H44.3189ZM51.2436 14.1364C50.63 14.1364 50.1016 13.9915 49.6584 13.7017C49.2152 13.4119 48.8743 13.0128 48.6357 12.5043C48.397 11.9957 48.2777 11.4148 48.2777 10.7614C48.2777 10.0966 48.3999 9.50994 48.6442 9.00142C48.8913 8.49006 49.2351 8.09091 49.6754 7.80398C50.1186 7.5142 50.6357 7.36932 51.2266 7.36932C51.6868 7.36932 52.1016 7.45455 52.4709 7.625C52.8402 7.79545 53.1428 8.03409 53.3786 8.34091C53.6143 8.64773 53.7607 9.00568 53.8175 9.41477H52.8118C52.7351 9.11648 52.5646 8.85227 52.3004 8.62216C52.0391 8.3892 51.6868 8.27273 51.2436 8.27273C50.8516 8.27273 50.5078 8.375 50.2124 8.57955C49.9197 8.78125 49.6911 9.06676 49.5263 9.43608C49.3643 9.80256 49.2834 10.233 49.2834 10.7273C49.2834 11.233 49.3629 11.6733 49.522 12.0483C49.6839 12.4233 49.9112 12.7145 50.2038 12.9219C50.4993 13.1293 50.8459 13.233 51.2436 13.233C51.505 13.233 51.7422 13.1875 51.9553 13.0966C52.1683 13.0057 52.3487 12.875 52.4964 12.7045C52.6442 12.5341 52.7493 12.3295 52.8118 12.0909H53.8175C53.7607 12.4773 53.62 12.8253 53.3956 13.1349C53.174 13.4418 52.88 13.6861 52.5135 13.8679C52.1499 14.0469 51.7266 14.1364 51.2436 14.1364ZM56.2933 10.0625V14H55.2876V5.27273H56.2933V8.47727H56.3786C56.532 8.1392 56.7621 7.87074 57.0689 7.67188C57.3786 7.47017 57.7905 7.36932 58.3047 7.36932C58.7507 7.36932 59.1413 7.45881 59.4766 7.63778C59.8118 7.81392 60.0717 8.08523 60.2564 8.4517C60.4439 8.81534 60.5376 9.27841 60.5376 9.84091V14H59.532V9.90909C59.532 9.3892 59.397 8.98722 59.1271 8.70312C58.8601 8.41619 58.4893 8.27273 58.0149 8.27273C57.6854 8.27273 57.3899 8.34233 57.1286 8.48153C56.87 8.62074 56.6655 8.82386 56.5149 9.09091C56.3672 9.35795 56.2933 9.68182 56.2933 10.0625ZM63.1104 14.0682C62.9002 14.0682 62.7198 13.9929 62.5692 13.8423C62.4187 13.6918 62.3434 13.5114 62.3434 13.3011C62.3434 13.0909 62.4187 12.9105 62.5692 12.7599C62.7198 12.6094 62.9002 12.5341 63.1104 12.5341C63.3207 12.5341 63.5011 12.6094 63.6516 12.7599C63.8022 12.9105 63.8775 13.0909 63.8775 13.3011C63.8775 13.4403 63.842 13.5682 63.771 13.6847C63.7028 13.8011 63.6104 13.8949 63.494 13.9659C63.3803 14.0341 63.2525 14.0682 63.1104 14.0682ZM66.4151 14.0682C66.2049 14.0682 66.0245 13.9929 65.8739 13.8423C65.7234 13.6918 65.6481 13.5114 65.6481 13.3011C65.6481 13.0909 65.7234 12.9105 65.8739 12.7599C66.0245 12.6094 66.2049 12.5341 66.4151 12.5341C66.6254 12.5341 66.8058 12.6094 66.9563 12.7599C67.1069 12.9105 67.1822 13.0909 67.1822 13.3011C67.1822 13.4403 67.1467 13.5682 67.0756 13.6847C67.0075 13.8011 66.9151 13.8949 66.7987 13.9659C66.685 14.0341 66.5572 14.0682 66.4151 14.0682Z" fill="#BDBBC1"/>
</svg>
