<svg width="738" height="54" viewBox="0 0 738 54" fill="none" xmlns="http://www.w3.org/2000/svg">
<path d="M22 18.75C20.22 18.75 18.4799 19.2778 16.9999 20.2668C15.5198 21.2557 14.3663 22.6613 13.6851 24.3059C13.0039 25.9504 12.8257 27.76 13.1729 29.5058C13.5202 31.2516 14.3774 32.8553 15.636 34.114C16.8947 35.3726 18.4984 36.2298 20.2442 36.5771C21.99 36.9243 23.7996 36.7461 25.4442 36.0649C27.0887 35.3837 28.4943 34.2302 29.4832 32.7501C30.4722 31.2701 31 29.53 31 27.75C30.9973 25.3639 30.0482 23.0763 28.361 21.3891C26.6737 19.7018 24.3861 18.7527 22 18.75ZM22 35.25C20.5166 35.25 19.0666 34.8101 17.8332 33.986C16.5999 33.1619 15.6386 31.9906 15.0709 30.6201C14.5033 29.2497 14.3547 27.7417 14.6441 26.2868C14.9335 24.832 15.6478 23.4956 16.6967 22.4467C17.7456 21.3978 19.082 20.6835 20.5368 20.3941C21.9917 20.1047 23.4997 20.2532 24.8701 20.8209C26.2406 21.3886 27.4119 22.3499 28.236 23.5832C29.0601 24.8166 29.5 26.2666 29.5 27.75C29.4978 29.7384 28.7069 31.6448 27.3008 33.0508C25.8948 34.4569 23.9884 35.2478 22 35.25ZM26.2806 23.4694C26.3504 23.539 26.4057 23.6217 26.4434 23.7128C26.4812 23.8038 26.5006 23.9014 26.5006 24C26.5006 24.0986 26.4812 24.1962 26.4434 24.2872C26.4057 24.3783 26.3504 24.461 26.2806 24.5306L22.5306 28.2806C22.4609 28.3503 22.3782 28.4056 22.2872 28.4433C22.1961 28.481 22.0986 28.5004 22 28.5004C21.9015 28.5004 21.8039 28.481 21.7128 28.4433C21.6218 28.4056 21.5391 28.3503 21.4694 28.2806C21.3997 28.2109 21.3444 28.1282 21.3067 28.0372C21.269 27.9461 21.2496 27.8485 21.2496 27.75C21.2496 27.6515 21.269 27.5539 21.3067 27.4628C21.3444 27.3718 21.3997 27.2891 21.4694 27.2194L25.2194 23.4694C25.289 23.3996 25.3718 23.3443 25.4628 23.3066C25.5538 23.2688 25.6514 23.2494 25.75 23.2494C25.8486 23.2494 25.9462 23.2688 26.0372 23.3066C26.1283 23.3443 26.211 23.3996 26.2806 23.4694ZM19 16.5C19 16.3011 19.079 16.1103 19.2197 15.9697C19.3603 15.829 19.5511 15.75 19.75 15.75H24.25C24.4489 15.75 24.6397 15.829 24.7803 15.9697C24.921 16.1103 25 16.3011 25 16.5C25 16.6989 24.921 16.8897 24.7803 17.0303C24.6397 17.171 24.4489 17.25 24.25 17.25H19.75C19.5511 17.25 19.3603 17.171 19.2197 17.0303C19.079 16.8897 19 16.6989 19 16.5Z" fill="#1E88E5"/>
<path d="M53.7557 36.2386C52.5852 36.2386 51.5398 36.0369 50.6193 35.6335C49.7045 35.2301 48.9801 34.6705 48.446 33.9545C47.9176 33.233 47.6335 32.3977 47.5938 31.4489H50.2699C50.304 31.9659 50.4773 32.4148 50.7898 32.7955C51.108 33.1705 51.5227 33.4602 52.0341 33.6648C52.5455 33.8693 53.1136 33.9716 53.7386 33.9716C54.4261 33.9716 55.0341 33.8523 55.5625 33.6136C56.0966 33.375 56.5142 33.0426 56.8153 32.6165C57.1165 32.1847 57.267 31.6875 57.267 31.125C57.267 30.5398 57.1165 30.0256 56.8153 29.5824C56.5199 29.1335 56.0852 28.7812 55.5114 28.5256C54.9432 28.2699 54.2557 28.142 53.4489 28.142H51.9744V25.9943H53.4489C54.0966 25.9943 54.6648 25.8778 55.1534 25.6449C55.6477 25.4119 56.0341 25.0881 56.3125 24.6733C56.5909 24.2528 56.7301 23.7614 56.7301 23.1989C56.7301 22.6591 56.608 22.1903 56.3636 21.7926C56.125 21.3892 55.7841 21.0739 55.3409 20.8466C54.9034 20.6193 54.3864 20.5057 53.7898 20.5057C53.2216 20.5057 52.6903 20.6108 52.196 20.821C51.7074 21.0256 51.3097 21.321 51.0028 21.7074C50.696 22.0881 50.5313 22.5455 50.5085 23.0795H47.9602C47.9886 22.1364 48.267 21.3068 48.7955 20.5909C49.3295 19.875 50.0341 19.3153 50.9091 18.9119C51.7841 18.5085 52.7557 18.3068 53.8239 18.3068C54.9432 18.3068 55.9091 18.5256 56.7216 18.9631C57.5398 19.3949 58.1705 19.9716 58.6136 20.6932C59.0625 21.4148 59.2841 22.2045 59.2784 23.0625C59.2841 24.0398 59.0114 24.8693 58.4602 25.5511C57.9148 26.233 57.1875 26.6903 56.2784 26.9233V27.0597C57.4375 27.2358 58.3352 27.696 58.9716 28.4403C59.6136 29.1847 59.9318 30.108 59.9261 31.2102C59.9318 32.1705 59.6648 33.0312 59.125 33.7926C58.5909 34.554 57.8608 35.1534 56.9347 35.5909C56.0085 36.0227 54.9489 36.2386 53.7557 36.2386ZM69.2244 36.2898C67.8778 36.2841 66.7273 35.929 65.7727 35.2244C64.8182 34.5199 64.0881 33.4943 63.5824 32.1477C63.0767 30.8011 62.8239 29.179 62.8239 27.2812C62.8239 25.3892 63.0767 23.7727 63.5824 22.4318C64.0938 21.0909 64.8267 20.0682 65.7812 19.3636C66.7415 18.6591 67.8892 18.3068 69.2244 18.3068C70.5597 18.3068 71.7045 18.6619 72.6591 19.3722C73.6136 20.0767 74.3438 21.0994 74.8494 22.4403C75.3608 23.7756 75.6165 25.3892 75.6165 27.2812C75.6165 29.1847 75.3636 30.8097 74.858 32.1562C74.3523 33.4972 73.6222 34.5227 72.6676 35.233C71.7131 35.9375 70.5653 36.2898 69.2244 36.2898ZM69.2244 34.0142C70.4063 34.0142 71.3295 33.4375 71.9943 32.2841C72.6648 31.1307 73 29.4631 73 27.2812C73 25.8324 72.8466 24.608 72.5398 23.608C72.2386 22.6023 71.804 21.8409 71.2358 21.3239C70.6733 20.8011 70.0028 20.5398 69.2244 20.5398C68.0483 20.5398 67.125 21.1193 66.4545 22.2784C65.7841 23.4375 65.446 25.1051 65.4403 27.2812C65.4403 28.7358 65.5909 29.9659 65.892 30.9716C66.1989 31.9716 66.6335 32.7301 67.196 33.2472C67.7585 33.7585 68.4347 34.0142 69.2244 34.0142ZM86.3871 26.1648V28.3807H78.6484V26.1648H86.3871ZM89.3828 32.5909V30.4602L96.9254 18.5455H98.6044V21.6818H97.5391L92.1442 30.2216V30.358H102.482V32.5909H89.3828ZM97.6584 36V31.9432L97.6754 30.9716V18.5455H100.173V36H97.6584ZM111.529 36.2898C110.183 36.2841 109.032 35.929 108.077 35.2244C107.123 34.5199 106.393 33.4943 105.887 32.1477C105.381 30.8011 105.129 29.179 105.129 27.2812C105.129 25.3892 105.381 23.7727 105.887 22.4318C106.398 21.0909 107.131 20.0682 108.086 19.3636C109.046 18.6591 110.194 18.3068 111.529 18.3068C112.864 18.3068 114.009 18.6619 114.964 19.3722C115.918 20.0767 116.648 21.0994 117.154 22.4403C117.665 23.7756 117.921 25.3892 117.921 27.2812C117.921 29.1847 117.668 30.8097 117.163 32.1562C116.657 33.4972 115.927 34.5227 114.972 35.233C114.018 35.9375 112.87 36.2898 111.529 36.2898ZM111.529 34.0142C112.711 34.0142 113.634 33.4375 114.299 32.2841C114.969 31.1307 115.305 29.4631 115.305 27.2812C115.305 25.8324 115.151 24.608 114.844 23.608C114.543 22.6023 114.109 21.8409 113.54 21.3239C112.978 20.8011 112.308 20.5398 111.529 20.5398C110.353 20.5398 109.43 21.1193 108.759 22.2784C108.089 23.4375 107.751 25.1051 107.745 27.2812C107.745 28.7358 107.896 29.9659 108.197 30.9716C108.504 31.9716 108.938 32.7301 109.501 33.2472C110.063 33.7585 110.739 34.0142 111.529 34.0142ZM127.33 36V22.9091H129.776V25.0398H129.938C130.211 24.3182 130.657 23.7557 131.276 23.3523C131.896 22.9432 132.637 22.7386 133.501 22.7386C134.376 22.7386 135.109 22.9432 135.7 23.3523C136.296 23.7614 136.737 24.3239 137.021 25.0398H137.157C137.469 24.3409 137.967 23.7841 138.648 23.3693C139.33 22.9489 140.143 22.7386 141.086 22.7386C142.273 22.7386 143.242 23.1108 143.992 23.8551C144.748 24.5994 145.126 25.7216 145.126 27.2216V36H142.577V27.4602C142.577 26.5739 142.336 25.9318 141.853 25.5341C141.37 25.1364 140.793 24.9375 140.123 24.9375C139.293 24.9375 138.648 25.1932 138.188 25.7045C137.728 26.2102 137.498 26.8608 137.498 27.6562V36H134.958V27.2983C134.958 26.5881 134.737 26.017 134.293 25.5852C133.85 25.1534 133.273 24.9375 132.563 24.9375C132.08 24.9375 131.634 25.0653 131.225 25.321C130.822 25.571 130.495 25.9205 130.245 26.3693C130.001 26.8182 129.879 27.3381 129.879 27.929V36H127.33ZM148.541 36V22.9091H151.089V36H148.541ZM149.828 20.8892C149.385 20.8892 149.004 20.7415 148.686 20.446C148.374 20.1449 148.217 19.7869 148.217 19.3722C148.217 18.9517 148.374 18.5937 148.686 18.2983C149.004 17.9972 149.385 17.8466 149.828 17.8466C150.271 17.8466 150.649 17.9972 150.962 18.2983C151.28 18.5937 151.439 18.9517 151.439 19.3722C151.439 19.7869 151.28 20.1449 150.962 20.446C150.649 20.7415 150.271 20.8892 149.828 20.8892ZM157.066 28.2273V36H154.518V22.9091H156.964V25.0398H157.126C157.427 24.3466 157.898 23.7898 158.54 23.3693C159.188 22.9489 160.004 22.7386 160.987 22.7386C161.879 22.7386 162.66 22.9261 163.33 23.3011C164.001 23.6705 164.521 24.2216 164.89 24.9545C165.259 25.6875 165.444 26.5937 165.444 27.6733V36H162.896V27.9801C162.896 27.0312 162.648 26.2898 162.154 25.7557C161.66 25.2159 160.981 24.946 160.117 24.946C159.526 24.946 159.001 25.0739 158.54 25.3295C158.086 25.5852 157.725 25.9602 157.458 26.4545C157.197 26.9432 157.066 27.5341 157.066 28.2273Z" fill="#4B5563"/>
<path d="M204 18.75C202.22 18.75 200.48 19.2778 199 20.2668C197.52 21.2557 196.366 22.6613 195.685 24.3059C195.004 25.9504 194.826 27.76 195.173 29.5058C195.52 31.2516 196.377 32.8553 197.636 34.114C198.895 35.3726 200.498 36.2298 202.244 36.5771C203.99 36.9243 205.8 36.7461 207.444 36.0649C209.089 35.3837 210.494 34.2302 211.483 32.7501C212.472 31.2701 213 29.53 213 27.75C212.997 25.3639 212.048 23.0763 210.361 21.3891C208.674 19.7018 206.386 18.7527 204 18.75ZM204 35.25C202.517 35.25 201.067 34.8101 199.833 33.986C198.6 33.1619 197.639 31.9906 197.071 30.6201C196.503 29.2497 196.355 27.7417 196.644 26.2868C196.934 24.832 197.648 23.4956 198.697 22.4467C199.746 21.3978 201.082 20.6835 202.537 20.3941C203.992 20.1047 205.5 20.2532 206.87 20.8209C208.241 21.3886 209.412 22.3499 210.236 23.5832C211.06 24.8166 211.5 26.2666 211.5 27.75C211.498 29.7384 210.707 31.6448 209.301 33.0508C207.895 34.4569 205.988 35.2478 204 35.25ZM208.281 23.4694C208.35 23.539 208.406 23.6217 208.443 23.7128C208.481 23.8038 208.501 23.9014 208.501 24C208.501 24.0986 208.481 24.1962 208.443 24.2872C208.406 24.3783 208.35 24.461 208.281 24.5306L204.531 28.2806C204.461 28.3503 204.378 28.4056 204.287 28.4433C204.196 28.481 204.099 28.5004 204 28.5004C203.901 28.5004 203.804 28.481 203.713 28.4433C203.622 28.4056 203.539 28.3503 203.469 28.2806C203.4 28.2109 203.344 28.1282 203.307 28.0372C203.269 27.9461 203.25 27.8485 203.25 27.75C203.25 27.6515 203.269 27.5539 203.307 27.4628C203.344 27.3718 203.4 27.2891 203.469 27.2194L207.219 23.4694C207.289 23.3996 207.372 23.3443 207.463 23.3066C207.554 23.2688 207.651 23.2494 207.75 23.2494C207.849 23.2494 207.946 23.2688 208.037 23.3066C208.128 23.3443 208.211 23.3996 208.281 23.4694ZM201 16.5C201 16.3011 201.079 16.1103 201.22 15.9697C201.36 15.829 201.551 15.75 201.75 15.75H206.25C206.449 15.75 206.64 15.829 206.78 15.9697C206.921 16.1103 207 16.3011 207 16.5C207 16.6989 206.921 16.8897 206.78 17.0303C206.64 17.171 206.449 17.25 206.25 17.25H201.75C201.551 17.25 201.36 17.171 201.22 17.0303C201.079 16.8897 201 16.6989 201 16.5Z" fill="#1E88E5"/>
<path d="M229.679 36V34.0909L235.585 27.9716C236.216 27.3068 236.736 26.7244 237.145 26.2244C237.56 25.7187 237.869 25.2386 238.074 24.7841C238.278 24.3295 238.381 23.8466 238.381 23.3352C238.381 22.7557 238.244 22.2557 237.972 21.8352C237.699 21.4091 237.327 21.0824 236.855 20.8551C236.384 20.6222 235.852 20.5057 235.261 20.5057C234.636 20.5057 234.091 20.6335 233.625 20.8892C233.159 21.1449 232.801 21.5057 232.551 21.9716C232.301 22.4375 232.176 22.983 232.176 23.608H229.662C229.662 22.5455 229.906 21.6165 230.395 20.821C230.884 20.0256 231.554 19.4091 232.406 18.9716C233.259 18.5284 234.227 18.3068 235.312 18.3068C236.409 18.3068 237.375 18.5256 238.21 18.9631C239.051 19.3949 239.707 19.9858 240.179 20.7358C240.651 21.4801 240.886 22.321 240.886 23.2585C240.886 23.9062 240.764 24.5398 240.52 25.1591C240.281 25.7784 239.864 26.4687 239.267 27.2301C238.67 27.9858 237.841 28.9034 236.778 29.983L233.31 33.6136V33.7415H241.168V36H229.679ZM246.111 36.1619C245.645 36.1619 245.244 35.9972 244.909 35.6676C244.574 35.3324 244.406 34.929 244.406 34.4574C244.406 33.9915 244.574 33.5937 244.909 33.2642C245.244 32.929 245.645 32.7614 246.111 32.7614C246.577 32.7614 246.977 32.929 247.312 33.2642C247.648 33.5937 247.815 33.9915 247.815 34.4574C247.815 34.7699 247.736 35.0568 247.577 35.3182C247.423 35.5739 247.219 35.7784 246.963 35.9318C246.707 36.0852 246.423 36.1619 246.111 36.1619ZM256.675 36.2386C255.607 36.2386 254.646 36.0341 253.794 35.625C252.947 35.2102 252.271 34.642 251.766 33.9205C251.26 33.1989 250.99 32.375 250.956 31.4489H253.513C253.575 32.1989 253.908 32.8153 254.51 33.2983C255.112 33.7812 255.834 34.0227 256.675 34.0227C257.345 34.0227 257.939 33.8693 258.456 33.5625C258.979 33.25 259.388 32.821 259.683 32.2756C259.984 31.7301 260.135 31.108 260.135 30.4091C260.135 29.6989 259.982 29.0653 259.675 28.5085C259.368 27.9517 258.945 27.5142 258.405 27.196C257.871 26.8778 257.257 26.7159 256.564 26.7102C256.036 26.7102 255.504 26.8011 254.97 26.983C254.436 27.1648 254.004 27.4034 253.675 27.6989L251.263 27.3409L252.243 18.5455H261.839V20.804H254.433L253.879 25.6875H253.982C254.322 25.358 254.774 25.0824 255.337 24.8608C255.905 24.6392 256.513 24.5284 257.161 24.5284C258.223 24.5284 259.169 24.7812 259.999 25.2869C260.834 25.7926 261.49 26.483 261.967 27.358C262.45 28.2273 262.689 29.2273 262.683 30.358C262.689 31.4886 262.433 32.4972 261.916 33.3835C261.405 34.2699 260.695 34.9687 259.786 35.4801C258.882 35.9858 257.845 36.2386 256.675 36.2386ZM274.526 31.5597L274.509 28.4489H274.952L280.168 22.9091H283.219L277.27 29.2159H276.869L274.526 31.5597ZM272.182 36V18.5455H274.73V36H272.182ZM280.449 36L275.761 29.7784L277.517 27.9972L283.577 36H280.449ZM285.541 36V22.9091H287.987V25.0398H288.149C288.422 24.3182 288.868 23.7557 289.487 23.3523C290.107 22.9432 290.848 22.7386 291.712 22.7386C292.587 22.7386 293.32 22.9432 293.911 23.3523C294.507 23.7614 294.947 24.3239 295.232 25.0398H295.368C295.68 24.3409 296.178 23.7841 296.859 23.3693C297.541 22.9489 298.354 22.7386 299.297 22.7386C300.484 22.7386 301.453 23.1108 302.203 23.8551C302.959 24.5994 303.337 25.7216 303.337 27.2216V36H300.788V27.4602C300.788 26.5739 300.547 25.9318 300.064 25.5341C299.581 25.1364 299.004 24.9375 298.334 24.9375C297.504 24.9375 296.859 25.1932 296.399 25.7045C295.939 26.2102 295.709 26.8608 295.709 27.6562V36H293.169V27.2983C293.169 26.5881 292.947 26.017 292.504 25.5852C292.061 25.1534 291.484 24.9375 290.774 24.9375C290.291 24.9375 289.845 25.0653 289.436 25.321C289.033 25.571 288.706 25.9205 288.456 26.3693C288.212 26.8182 288.089 27.3381 288.089 27.929V36H285.541Z" fill="#4B5563"/>
<path d="M386 18.75C384.22 18.75 382.48 19.2778 381 20.2668C379.52 21.2557 378.366 22.6613 377.685 24.3059C377.004 25.9504 376.826 27.76 377.173 29.5058C377.52 31.2516 378.377 32.8553 379.636 34.114C380.895 35.3726 382.498 36.2298 384.244 36.5771C385.99 36.9243 387.8 36.7461 389.444 36.0649C391.089 35.3837 392.494 34.2302 393.483 32.7501C394.472 31.2701 395 29.53 395 27.75C394.997 25.3639 394.048 23.0763 392.361 21.3891C390.674 19.7018 388.386 18.7527 386 18.75ZM386 35.25C384.517 35.25 383.067 34.8101 381.833 33.986C380.6 33.1619 379.639 31.9906 379.071 30.6201C378.503 29.2497 378.355 27.7417 378.644 26.2868C378.934 24.832 379.648 23.4956 380.697 22.4467C381.746 21.3978 383.082 20.6835 384.537 20.3941C385.992 20.1047 387.5 20.2532 388.87 20.8209C390.241 21.3886 391.412 22.3499 392.236 23.5832C393.06 24.8166 393.5 26.2666 393.5 27.75C393.498 29.7384 392.707 31.6448 391.301 33.0508C389.895 34.4569 387.988 35.2478 386 35.25ZM390.281 23.4694C390.35 23.539 390.406 23.6217 390.443 23.7128C390.481 23.8038 390.501 23.9014 390.501 24C390.501 24.0986 390.481 24.1962 390.443 24.2872C390.406 24.3783 390.35 24.461 390.281 24.5306L386.531 28.2806C386.461 28.3503 386.378 28.4056 386.287 28.4433C386.196 28.481 386.099 28.5004 386 28.5004C385.901 28.5004 385.804 28.481 385.713 28.4433C385.622 28.4056 385.539 28.3503 385.469 28.2806C385.4 28.2109 385.344 28.1282 385.307 28.0372C385.269 27.9461 385.25 27.8485 385.25 27.75C385.25 27.6515 385.269 27.5539 385.307 27.4628C385.344 27.3718 385.4 27.2891 385.469 27.2194L389.219 23.4694C389.289 23.3996 389.372 23.3443 389.463 23.3066C389.554 23.2688 389.651 23.2494 389.75 23.2494C389.849 23.2494 389.946 23.2688 390.037 23.3066C390.128 23.3443 390.211 23.3996 390.281 23.4694ZM383 16.5C383 16.3011 383.079 16.1103 383.22 15.9697C383.36 15.829 383.551 15.75 383.75 15.75H388.25C388.449 15.75 388.64 15.829 388.78 15.9697C388.921 16.1103 389 16.3011 389 16.5C389 16.6989 388.921 16.8897 388.78 17.0303C388.64 17.171 388.449 17.25 388.25 17.25H383.75C383.551 17.25 383.36 17.171 383.22 17.0303C383.079 16.8897 383 16.6989 383 16.5Z" fill="#1E88E5"/>
<path d="M417.756 36.2386C416.585 36.2386 415.54 36.0369 414.619 35.6335C413.705 35.2301 412.98 34.6705 412.446 33.9545C411.918 33.233 411.634 32.3977 411.594 31.4489H414.27C414.304 31.9659 414.477 32.4148 414.79 32.7955C415.108 33.1705 415.523 33.4602 416.034 33.6648C416.545 33.8693 417.114 33.9716 417.739 33.9716C418.426 33.9716 419.034 33.8523 419.562 33.6136C420.097 33.375 420.514 33.0426 420.815 32.6165C421.116 32.1847 421.267 31.6875 421.267 31.125C421.267 30.5398 421.116 30.0256 420.815 29.5824C420.52 29.1335 420.085 28.7812 419.511 28.5256C418.943 28.2699 418.256 28.142 417.449 28.142H415.974V25.9943H417.449C418.097 25.9943 418.665 25.8778 419.153 25.6449C419.648 25.4119 420.034 25.0881 420.312 24.6733C420.591 24.2528 420.73 23.7614 420.73 23.1989C420.73 22.6591 420.608 22.1903 420.364 21.7926C420.125 21.3892 419.784 21.0739 419.341 20.8466C418.903 20.6193 418.386 20.5057 417.79 20.5057C417.222 20.5057 416.69 20.6108 416.196 20.821C415.707 21.0256 415.31 21.321 415.003 21.7074C414.696 22.0881 414.531 22.5455 414.509 23.0795H411.96C411.989 22.1364 412.267 21.3068 412.795 20.5909C413.33 19.875 414.034 19.3153 414.909 18.9119C415.784 18.5085 416.756 18.3068 417.824 18.3068C418.943 18.3068 419.909 18.5256 420.722 18.9631C421.54 19.3949 422.17 19.9716 422.614 20.6932C423.063 21.4148 423.284 22.2045 423.278 23.0625C423.284 24.0398 423.011 24.8693 422.46 25.5511C421.915 26.233 421.188 26.6903 420.278 26.9233V27.0597C421.438 27.2358 422.335 27.696 422.972 28.4403C423.614 29.1847 423.932 30.108 423.926 31.2102C423.932 32.1705 423.665 33.0312 423.125 33.7926C422.591 34.554 421.861 35.1534 420.935 35.5909C420.009 36.0227 418.949 36.2386 417.756 36.2386ZM433.224 36.2898C431.878 36.2841 430.727 35.929 429.773 35.2244C428.818 34.5199 428.088 33.4943 427.582 32.1477C427.077 30.8011 426.824 29.179 426.824 27.2812C426.824 25.3892 427.077 23.7727 427.582 22.4318C428.094 21.0909 428.827 20.0682 429.781 19.3636C430.741 18.6591 431.889 18.3068 433.224 18.3068C434.56 18.3068 435.705 18.6619 436.659 19.3722C437.614 20.0767 438.344 21.0994 438.849 22.4403C439.361 23.7756 439.616 25.3892 439.616 27.2812C439.616 29.1847 439.364 30.8097 438.858 32.1562C438.352 33.4972 437.622 34.5227 436.668 35.233C435.713 35.9375 434.565 36.2898 433.224 36.2898ZM433.224 34.0142C434.406 34.0142 435.33 33.4375 435.994 32.2841C436.665 31.1307 437 29.4631 437 27.2812C437 25.8324 436.847 24.608 436.54 23.608C436.239 22.6023 435.804 21.8409 435.236 21.3239C434.673 20.8011 434.003 20.5398 433.224 20.5398C432.048 20.5398 431.125 21.1193 430.455 22.2784C429.784 23.4375 429.446 25.1051 429.44 27.2812C429.44 28.7358 429.591 29.9659 429.892 30.9716C430.199 31.9716 430.634 32.7301 431.196 33.2472C431.759 33.7585 432.435 34.0142 433.224 34.0142ZM450.387 26.1648V28.3807H442.648V26.1648H450.387ZM453.383 32.5909V30.4602L460.925 18.5455H462.604V21.6818H461.539L456.144 30.2216V30.358H466.482V32.5909H453.383ZM461.658 36V31.9432L461.675 30.9716V18.5455H464.173V36H461.658ZM475.529 36.2898C474.183 36.2841 473.032 35.929 472.077 35.2244C471.123 34.5199 470.393 33.4943 469.887 32.1477C469.381 30.8011 469.129 29.179 469.129 27.2812C469.129 25.3892 469.381 23.7727 469.887 22.4318C470.398 21.0909 471.131 20.0682 472.086 19.3636C473.046 18.6591 474.194 18.3068 475.529 18.3068C476.864 18.3068 478.009 18.6619 478.964 19.3722C479.918 20.0767 480.648 21.0994 481.154 22.4403C481.665 23.7756 481.921 25.3892 481.921 27.2812C481.921 29.1847 481.668 30.8097 481.163 32.1562C480.657 33.4972 479.927 34.5227 478.972 35.233C478.018 35.9375 476.87 36.2898 475.529 36.2898ZM475.529 34.0142C476.711 34.0142 477.634 33.4375 478.299 32.2841C478.969 31.1307 479.305 29.4631 479.305 27.2812C479.305 25.8324 479.151 24.608 478.844 23.608C478.543 22.6023 478.109 21.8409 477.54 21.3239C476.978 20.8011 476.308 20.5398 475.529 20.5398C474.353 20.5398 473.43 21.1193 472.759 22.2784C472.089 23.4375 471.751 25.1051 471.745 27.2812C471.745 28.7358 471.896 29.9659 472.197 30.9716C472.504 31.9716 472.938 32.7301 473.501 33.2472C474.063 33.7585 474.739 34.0142 475.529 34.0142ZM491.33 36V22.9091H493.776V25.0398H493.938C494.211 24.3182 494.657 23.7557 495.276 23.3523C495.896 22.9432 496.637 22.7386 497.501 22.7386C498.376 22.7386 499.109 22.9432 499.7 23.3523C500.296 23.7614 500.737 24.3239 501.021 25.0398H501.157C501.469 24.3409 501.967 23.7841 502.648 23.3693C503.33 22.9489 504.143 22.7386 505.086 22.7386C506.273 22.7386 507.242 23.1108 507.992 23.8551C508.748 24.5994 509.126 25.7216 509.126 27.2216V36H506.577V27.4602C506.577 26.5739 506.336 25.9318 505.853 25.5341C505.37 25.1364 504.793 24.9375 504.123 24.9375C503.293 24.9375 502.648 25.1932 502.188 25.7045C501.728 26.2102 501.498 26.8608 501.498 27.6562V36H498.958V27.2983C498.958 26.5881 498.737 26.017 498.293 25.5852C497.85 25.1534 497.273 24.9375 496.563 24.9375C496.08 24.9375 495.634 25.0653 495.225 25.321C494.822 25.571 494.495 25.9205 494.245 26.3693C494.001 26.8182 493.879 27.3381 493.879 27.929V36H491.33ZM512.541 36V22.9091H515.089V36H512.541ZM513.828 20.8892C513.385 20.8892 513.004 20.7415 512.686 20.446C512.374 20.1449 512.217 19.7869 512.217 19.3722C512.217 18.9517 512.374 18.5937 512.686 18.2983C513.004 17.9972 513.385 17.8466 513.828 17.8466C514.271 17.8466 514.649 17.9972 514.962 18.2983C515.28 18.5937 515.439 18.9517 515.439 19.3722C515.439 19.7869 515.28 20.1449 514.962 20.446C514.649 20.7415 514.271 20.8892 513.828 20.8892ZM521.066 28.2273V36H518.518V22.9091H520.964V25.0398H521.126C521.427 24.3466 521.898 23.7898 522.54 23.3693C523.188 22.9489 524.004 22.7386 524.987 22.7386C525.879 22.7386 526.66 22.9261 527.33 23.3011C528.001 23.6705 528.521 24.2216 528.89 24.9545C529.259 25.6875 529.444 26.5937 529.444 27.6733V36H526.896V27.9801C526.896 27.0312 526.648 26.2898 526.154 25.7557C525.66 25.2159 524.981 24.946 524.117 24.946C523.526 24.946 523.001 25.0739 522.54 25.3295C522.086 25.5852 521.725 25.9602 521.458 26.4545C521.197 26.9432 521.066 27.5341 521.066 28.2273Z" fill="#4B5563"/>
<path d="M568 18.75C566.22 18.75 564.48 19.2778 563 20.2668C561.52 21.2557 560.366 22.6613 559.685 24.3059C559.004 25.9504 558.826 27.76 559.173 29.5058C559.52 31.2516 560.377 32.8553 561.636 34.114C562.895 35.3726 564.498 36.2298 566.244 36.5771C567.99 36.9243 569.8 36.7461 571.444 36.0649C573.089 35.3837 574.494 34.2302 575.483 32.7501C576.472 31.2701 577 29.53 577 27.75C576.997 25.3639 576.048 23.0763 574.361 21.3891C572.674 19.7018 570.386 18.7527 568 18.75ZM568 35.25C566.517 35.25 565.067 34.8101 563.833 33.986C562.6 33.1619 561.639 31.9906 561.071 30.6201C560.503 29.2497 560.355 27.7417 560.644 26.2868C560.934 24.832 561.648 23.4956 562.697 22.4467C563.746 21.3978 565.082 20.6835 566.537 20.3941C567.992 20.1047 569.5 20.2532 570.87 20.8209C572.241 21.3886 573.412 22.3499 574.236 23.5832C575.06 24.8166 575.5 26.2666 575.5 27.75C575.498 29.7384 574.707 31.6448 573.301 33.0508C571.895 34.4569 569.988 35.2478 568 35.25ZM572.281 23.4694C572.35 23.539 572.406 23.6217 572.443 23.7128C572.481 23.8038 572.501 23.9014 572.501 24C572.501 24.0986 572.481 24.1962 572.443 24.2872C572.406 24.3783 572.35 24.461 572.281 24.5306L568.531 28.2806C568.461 28.3503 568.378 28.4056 568.287 28.4433C568.196 28.481 568.099 28.5004 568 28.5004C567.901 28.5004 567.804 28.481 567.713 28.4433C567.622 28.4056 567.539 28.3503 567.469 28.2806C567.4 28.2109 567.344 28.1282 567.307 28.0372C567.269 27.9461 567.25 27.8485 567.25 27.75C567.25 27.6515 567.269 27.5539 567.307 27.4628C567.344 27.3718 567.4 27.2891 567.469 27.2194L571.219 23.4694C571.289 23.3996 571.372 23.3443 571.463 23.3066C571.554 23.2688 571.651 23.2494 571.75 23.2494C571.849 23.2494 571.946 23.2688 572.037 23.3066C572.128 23.3443 572.211 23.3996 572.281 23.4694ZM565 16.5C565 16.3011 565.079 16.1103 565.22 15.9697C565.36 15.829 565.551 15.75 565.75 15.75H570.25C570.449 15.75 570.64 15.829 570.78 15.9697C570.921 16.1103 571 16.3011 571 16.5C571 16.6989 570.921 16.8897 570.78 17.0303C570.64 17.171 570.449 17.25 570.25 17.25H565.75C565.551 17.25 565.36 17.171 565.22 17.0303C565.079 16.8897 565 16.6989 565 16.5Z" fill="#1E88E5"/>
<path d="M599.756 36.2386C598.585 36.2386 597.54 36.0369 596.619 35.6335C595.705 35.2301 594.98 34.6705 594.446 33.9545C593.918 33.233 593.634 32.3977 593.594 31.4489H596.27C596.304 31.9659 596.477 32.4148 596.79 32.7955C597.108 33.1705 597.523 33.4602 598.034 33.6648C598.545 33.8693 599.114 33.9716 599.739 33.9716C600.426 33.9716 601.034 33.8523 601.562 33.6136C602.097 33.375 602.514 33.0426 602.815 32.6165C603.116 32.1847 603.267 31.6875 603.267 31.125C603.267 30.5398 603.116 30.0256 602.815 29.5824C602.52 29.1335 602.085 28.7812 601.511 28.5256C600.943 28.2699 600.256 28.142 599.449 28.142H597.974V25.9943H599.449C600.097 25.9943 600.665 25.8778 601.153 25.6449C601.648 25.4119 602.034 25.0881 602.312 24.6733C602.591 24.2528 602.73 23.7614 602.73 23.1989C602.73 22.6591 602.608 22.1903 602.364 21.7926C602.125 21.3892 601.784 21.0739 601.341 20.8466C600.903 20.6193 600.386 20.5057 599.79 20.5057C599.222 20.5057 598.69 20.6108 598.196 20.821C597.707 21.0256 597.31 21.321 597.003 21.7074C596.696 22.0881 596.531 22.5455 596.509 23.0795H593.96C593.989 22.1364 594.267 21.3068 594.795 20.5909C595.33 19.875 596.034 19.3153 596.909 18.9119C597.784 18.5085 598.756 18.3068 599.824 18.3068C600.943 18.3068 601.909 18.5256 602.722 18.9631C603.54 19.3949 604.17 19.9716 604.614 20.6932C605.063 21.4148 605.284 22.2045 605.278 23.0625C605.284 24.0398 605.011 24.8693 604.46 25.5511C603.915 26.233 603.188 26.6903 602.278 26.9233V27.0597C603.438 27.2358 604.335 27.696 604.972 28.4403C605.614 29.1847 605.932 30.108 605.926 31.2102C605.932 32.1705 605.665 33.0312 605.125 33.7926C604.591 34.554 603.861 35.1534 602.935 35.5909C602.009 36.0227 600.949 36.2386 599.756 36.2386ZM615.224 36.2898C613.878 36.2841 612.727 35.929 611.773 35.2244C610.818 34.5199 610.088 33.4943 609.582 32.1477C609.077 30.8011 608.824 29.179 608.824 27.2812C608.824 25.3892 609.077 23.7727 609.582 22.4318C610.094 21.0909 610.827 20.0682 611.781 19.3636C612.741 18.6591 613.889 18.3068 615.224 18.3068C616.56 18.3068 617.705 18.6619 618.659 19.3722C619.614 20.0767 620.344 21.0994 620.849 22.4403C621.361 23.7756 621.616 25.3892 621.616 27.2812C621.616 29.1847 621.364 30.8097 620.858 32.1562C620.352 33.4972 619.622 34.5227 618.668 35.233C617.713 35.9375 616.565 36.2898 615.224 36.2898ZM615.224 34.0142C616.406 34.0142 617.33 33.4375 617.994 32.2841C618.665 31.1307 619 29.4631 619 27.2812C619 25.8324 618.847 24.608 618.54 23.608C618.239 22.6023 617.804 21.8409 617.236 21.3239C616.673 20.8011 616.003 20.5398 615.224 20.5398C614.048 20.5398 613.125 21.1193 612.455 22.2784C611.784 23.4375 611.446 25.1051 611.44 27.2812C611.44 28.7358 611.591 29.9659 611.892 30.9716C612.199 31.9716 612.634 32.7301 613.196 33.2472C613.759 33.7585 614.435 34.0142 615.224 34.0142ZM632.387 26.1648V28.3807H624.648V26.1648H632.387ZM635.383 32.5909V30.4602L642.925 18.5455H644.604V21.6818H643.539L638.144 30.2216V30.358H648.482V32.5909H635.383ZM643.658 36V31.9432L643.675 30.9716V18.5455H646.173V36H643.658ZM657.529 36.2898C656.183 36.2841 655.032 35.929 654.077 35.2244C653.123 34.5199 652.393 33.4943 651.887 32.1477C651.381 30.8011 651.129 29.179 651.129 27.2812C651.129 25.3892 651.381 23.7727 651.887 22.4318C652.398 21.0909 653.131 20.0682 654.086 19.3636C655.046 18.6591 656.194 18.3068 657.529 18.3068C658.864 18.3068 660.009 18.6619 660.964 19.3722C661.918 20.0767 662.648 21.0994 663.154 22.4403C663.665 23.7756 663.921 25.3892 663.921 27.2812C663.921 29.1847 663.668 30.8097 663.163 32.1562C662.657 33.4972 661.927 34.5227 660.972 35.233C660.018 35.9375 658.87 36.2898 657.529 36.2898ZM657.529 34.0142C658.711 34.0142 659.634 33.4375 660.299 32.2841C660.969 31.1307 661.305 29.4631 661.305 27.2812C661.305 25.8324 661.151 24.608 660.844 23.608C660.543 22.6023 660.109 21.8409 659.54 21.3239C658.978 20.8011 658.308 20.5398 657.529 20.5398C656.353 20.5398 655.43 21.1193 654.759 22.2784C654.089 23.4375 653.751 25.1051 653.745 27.2812C653.745 28.7358 653.896 29.9659 654.197 30.9716C654.504 31.9716 654.938 32.7301 655.501 33.2472C656.063 33.7585 656.739 34.0142 657.529 34.0142ZM673.33 36V22.9091H675.776V25.0398H675.938C676.211 24.3182 676.657 23.7557 677.276 23.3523C677.896 22.9432 678.637 22.7386 679.501 22.7386C680.376 22.7386 681.109 22.9432 681.7 23.3523C682.296 23.7614 682.737 24.3239 683.021 25.0398H683.157C683.469 24.3409 683.967 23.7841 684.648 23.3693C685.33 22.9489 686.143 22.7386 687.086 22.7386C688.273 22.7386 689.242 23.1108 689.992 23.8551C690.748 24.5994 691.126 25.7216 691.126 27.2216V36H688.577V27.4602C688.577 26.5739 688.336 25.9318 687.853 25.5341C687.37 25.1364 686.793 24.9375 686.123 24.9375C685.293 24.9375 684.648 25.1932 684.188 25.7045C683.728 26.2102 683.498 26.8608 683.498 27.6562V36H680.958V27.2983C680.958 26.5881 680.737 26.017 680.293 25.5852C679.85 25.1534 679.273 24.9375 678.563 24.9375C678.08 24.9375 677.634 25.0653 677.225 25.321C676.822 25.571 676.495 25.9205 676.245 26.3693C676.001 26.8182 675.879 27.3381 675.879 27.929V36H673.33ZM694.541 36V22.9091H697.089V36H694.541ZM695.828 20.8892C695.385 20.8892 695.004 20.7415 694.686 20.446C694.374 20.1449 694.217 19.7869 694.217 19.3722C694.217 18.9517 694.374 18.5937 694.686 18.2983C695.004 17.9972 695.385 17.8466 695.828 17.8466C696.271 17.8466 696.649 17.9972 696.962 18.2983C697.28 18.5937 697.439 18.9517 697.439 19.3722C697.439 19.7869 697.28 20.1449 696.962 20.446C696.649 20.7415 696.271 20.8892 695.828 20.8892ZM703.066 28.2273V36H700.518V22.9091H702.964V25.0398H703.126C703.427 24.3466 703.898 23.7898 704.54 23.3693C705.188 22.9489 706.004 22.7386 706.987 22.7386C707.879 22.7386 708.66 22.9261 709.33 23.3011C710.001 23.6705 710.521 24.2216 710.89 24.9545C711.259 25.6875 711.444 26.5937 711.444 27.6733V36H708.896V27.9801C708.896 27.0312 708.648 26.2898 708.154 25.7557C707.66 25.2159 706.981 24.946 706.117 24.946C705.526 24.946 705.001 25.0739 704.54 25.3295C704.086 25.5852 703.725 25.9602 703.458 26.4545C703.197 26.9432 703.066 27.5341 703.066 28.2273Z" fill="#4B5563"/>
</svg>
