<svg width="337" height="74" viewBox="0 0 337 74" fill="none" xmlns="http://www.w3.org/2000/svg">
<path d="M11.7216 28.5455H15.5909L20.7727 41.1932H20.9773L26.1591 28.5455H30.0284V46H26.9943V34.0085H26.8324L22.0085 45.9489H19.7415L14.9176 33.983H14.7557V46H11.7216V28.5455ZM39.1307 46.2557C37.8182 46.2557 36.6847 45.983 35.7301 45.4375C34.7813 44.8864 34.0511 44.108 33.5398 43.1023C33.0284 42.0909 32.7727 40.9006 32.7727 39.5312C32.7727 38.1847 33.0284 37.0028 33.5398 35.9858C34.0568 34.9631 34.7784 34.1676 35.7045 33.5994C36.6307 33.0256 37.7188 32.7386 38.9688 32.7386C39.7756 32.7386 40.5369 32.8693 41.2528 33.1307C41.9744 33.3864 42.6108 33.7841 43.1619 34.3239C43.7188 34.8636 44.1563 35.5511 44.4744 36.3864C44.7926 37.2159 44.9517 38.2045 44.9517 39.3523V40.2983H34.2216V38.2188H41.9943C41.9886 37.6278 41.8608 37.1023 41.6108 36.642C41.3608 36.1761 41.0114 35.8097 40.5625 35.5426C40.1193 35.2756 39.6023 35.142 39.0114 35.142C38.3807 35.142 37.8267 35.2955 37.3494 35.6023C36.8722 35.9034 36.5 36.3011 36.233 36.7955C35.9716 37.2841 35.8381 37.821 35.8324 38.4062V40.2216C35.8324 40.983 35.9716 41.6364 36.25 42.1818C36.5284 42.7216 36.9176 43.1364 37.4176 43.4261C37.9176 43.7102 38.5028 43.8523 39.1733 43.8523C39.6222 43.8523 40.0284 43.7898 40.392 43.6648C40.7557 43.5341 41.071 43.3438 41.3381 43.0938C41.6051 42.8438 41.8068 42.5341 41.9432 42.1648L44.8239 42.4886C44.642 43.25 44.2955 43.9148 43.7841 44.483C43.2784 45.0455 42.6307 45.483 41.8409 45.7955C41.0511 46.1023 40.1477 46.2557 39.1307 46.2557ZM50.647 38.3295V46H47.5618V32.9091H50.5107V35.1335H50.6641C50.9652 34.4006 51.4453 33.8182 52.1044 33.3864C52.7692 32.9545 53.5902 32.7386 54.5675 32.7386C55.4709 32.7386 56.2578 32.9318 56.9283 33.3182C57.6044 33.7045 58.1271 34.2642 58.4964 34.9972C58.8714 35.7301 59.0561 36.6193 59.0504 37.6648V46H55.9652V38.142C55.9652 37.267 55.7379 36.5824 55.2834 36.0881C54.8345 35.5937 54.2124 35.3466 53.4169 35.3466C52.8771 35.3466 52.397 35.4659 51.9766 35.7045C51.5618 35.9375 51.2351 36.2756 50.9964 36.7188C50.7635 37.1619 50.647 37.6989 50.647 38.3295ZM70.5305 40.4943V32.9091H73.6158V46H70.6243V43.6733H70.4879C70.1925 44.4062 69.7067 45.0057 69.0305 45.4716C68.3601 45.9375 67.5334 46.1705 66.5504 46.1705C65.6925 46.1705 64.9339 45.9801 64.2749 45.5994C63.6214 45.2131 63.1101 44.6534 62.7408 43.9205C62.3714 43.1818 62.1868 42.2898 62.1868 41.2443V32.9091H65.272V40.767C65.272 41.5966 65.4993 42.2557 65.9538 42.7443C66.4084 43.233 67.005 43.4773 67.7436 43.4773C68.1982 43.4773 68.6385 43.3665 69.0646 43.1449C69.4908 42.9233 69.8402 42.5938 70.1129 42.1562C70.3913 41.7131 70.5305 41.1591 70.5305 40.4943ZM97.8182 34.4347H94.6307C94.5398 33.9119 94.3722 33.4489 94.1278 33.0455C93.8835 32.6364 93.5795 32.2898 93.2159 32.0057C92.8523 31.7216 92.4375 31.5085 91.9716 31.3665C91.5114 31.2188 91.0142 31.1449 90.4801 31.1449C89.5313 31.1449 88.6903 31.3835 87.9574 31.8608C87.2244 32.3324 86.6506 33.0256 86.2358 33.9403C85.821 34.8494 85.6136 35.9602 85.6136 37.2727C85.6136 38.608 85.821 39.733 86.2358 40.6477C86.6563 41.5568 87.2301 42.2443 87.9574 42.7102C88.6903 43.1705 89.5284 43.4006 90.4716 43.4006C90.9943 43.4006 91.483 43.3324 91.9375 43.196C92.3977 43.054 92.8097 42.8466 93.1733 42.5739C93.5426 42.3011 93.8523 41.9659 94.1023 41.5682C94.358 41.1705 94.5341 40.7159 94.6307 40.2045L97.8182 40.2216C97.6989 41.0511 97.4403 41.8295 97.0426 42.5568C96.6506 43.2841 96.1364 43.9261 95.5 44.483C94.8636 45.0341 94.1193 45.4659 93.267 45.7784C92.4148 46.0852 91.4688 46.2386 90.429 46.2386C88.8949 46.2386 87.5256 45.8835 86.321 45.1733C85.1165 44.4631 84.1676 43.4375 83.4744 42.0966C82.7813 40.7557 82.4347 39.1477 82.4347 37.2727C82.4347 35.392 82.7841 33.7841 83.483 32.4489C84.1818 31.108 85.1335 30.0824 86.3381 29.3722C87.5426 28.6619 88.9063 28.3068 90.429 28.3068C91.4006 28.3068 92.304 28.4432 93.1392 28.7159C93.9744 28.9886 94.7188 29.3892 95.3722 29.9176C96.0256 30.4403 96.5625 31.0824 96.983 31.8438C97.4091 32.5994 97.6875 33.4631 97.8182 34.4347ZM104.344 46.2642C103.515 46.2642 102.768 46.1165 102.103 45.821C101.444 45.5199 100.921 45.0767 100.535 44.4915C100.154 43.9062 99.9638 43.1847 99.9638 42.3267C99.9638 41.5881 100.1 40.9773 100.373 40.4943C100.646 40.0114 101.018 39.625 101.489 39.3352C101.961 39.0455 102.492 38.8267 103.083 38.679C103.68 38.5256 104.296 38.4148 104.933 38.3466C105.7 38.267 106.322 38.196 106.799 38.1335C107.276 38.0653 107.623 37.9631 107.839 37.8267C108.06 37.6847 108.171 37.4659 108.171 37.1705V37.1193C108.171 36.4773 107.981 35.9801 107.6 35.6278C107.219 35.2756 106.671 35.0994 105.955 35.0994C105.2 35.0994 104.6 35.2642 104.157 35.5938C103.719 35.9233 103.424 36.3125 103.271 36.7614L100.39 36.3523C100.617 35.5568 100.992 34.892 101.515 34.358C102.038 33.8182 102.677 33.4148 103.433 33.1477C104.188 32.875 105.023 32.7386 105.938 32.7386C106.569 32.7386 107.197 32.8125 107.822 32.9602C108.447 33.108 109.018 33.3523 109.535 33.6932C110.052 34.0284 110.467 34.4858 110.779 35.0653C111.097 35.6449 111.256 36.3693 111.256 37.2386V46H108.29V44.2017H108.188C108.001 44.5653 107.737 44.9062 107.396 45.2244C107.06 45.5369 106.637 45.7898 106.126 45.983C105.62 46.1705 105.026 46.2642 104.344 46.2642ZM105.146 43.9972C105.765 43.9972 106.302 43.875 106.756 43.6307C107.211 43.3807 107.56 43.0511 107.805 42.642C108.055 42.233 108.18 41.7869 108.18 41.304V39.7614C108.083 39.8409 107.918 39.9148 107.685 39.983C107.458 40.0511 107.202 40.1108 106.918 40.1619C106.634 40.2131 106.353 40.2585 106.075 40.2983C105.796 40.3381 105.555 40.3722 105.35 40.4006C104.89 40.4631 104.478 40.5653 104.114 40.7074C103.751 40.8494 103.464 41.0483 103.254 41.304C103.043 41.554 102.938 41.8778 102.938 42.2756C102.938 42.8438 103.146 43.2727 103.56 43.5625C103.975 43.8523 104.504 43.9972 105.146 43.9972ZM120.896 32.9091V35.2955H113.37V32.9091H120.896ZM115.228 29.7727H118.313V42.0625C118.313 42.4773 118.376 42.7955 118.501 43.017C118.631 43.233 118.802 43.3807 119.012 43.4602C119.222 43.5398 119.455 43.5795 119.711 43.5795C119.904 43.5795 120.08 43.5653 120.239 43.5369C120.404 43.5085 120.529 43.483 120.614 43.4602L121.134 45.8722C120.969 45.929 120.734 45.9915 120.427 46.0597C120.126 46.1278 119.756 46.1676 119.319 46.179C118.546 46.2017 117.85 46.0852 117.231 45.8295C116.612 45.5682 116.12 45.1648 115.756 44.6193C115.398 44.0739 115.222 43.392 115.228 42.5739V29.7727ZM129.131 46.2557C127.818 46.2557 126.685 45.983 125.73 45.4375C124.781 44.8864 124.051 44.108 123.54 43.1023C123.028 42.0909 122.773 40.9006 122.773 39.5312C122.773 38.1847 123.028 37.0028 123.54 35.9858C124.057 34.9631 124.778 34.1676 125.705 33.5994C126.631 33.0256 127.719 32.7386 128.969 32.7386C129.776 32.7386 130.537 32.8693 131.253 33.1307C131.974 33.3864 132.611 33.7841 133.162 34.3239C133.719 34.8636 134.156 35.5511 134.474 36.3864C134.793 37.2159 134.952 38.2045 134.952 39.3523V40.2983H124.222V38.2188H131.994C131.989 37.6278 131.861 37.1023 131.611 36.642C131.361 36.1761 131.011 35.8097 130.562 35.5426C130.119 35.2756 129.602 35.142 129.011 35.142C128.381 35.142 127.827 35.2955 127.349 35.6023C126.872 35.9034 126.5 36.3011 126.233 36.7955C125.972 37.2841 125.838 37.821 125.832 38.4062V40.2216C125.832 40.983 125.972 41.6364 126.25 42.1818C126.528 42.7216 126.918 43.1364 127.418 43.4261C127.918 43.7102 128.503 43.8523 129.173 43.8523C129.622 43.8523 130.028 43.7898 130.392 43.6648C130.756 43.5341 131.071 43.3438 131.338 43.0938C131.605 42.8438 131.807 42.5341 131.943 42.1648L134.824 42.4886C134.642 43.25 134.295 43.9148 133.784 44.483C133.278 45.0455 132.631 45.483 131.841 45.7955C131.051 46.1023 130.148 46.2557 129.131 46.2557ZM143.255 51.1818C142.147 51.1818 141.195 51.0313 140.4 50.7301C139.604 50.4347 138.965 50.0369 138.482 49.5369C137.999 49.0369 137.664 48.483 137.477 47.875L140.255 47.2017C140.38 47.4574 140.562 47.7102 140.8 47.9602C141.039 48.2159 141.36 48.4261 141.763 48.5909C142.173 48.7614 142.687 48.8466 143.306 48.8466C144.181 48.8466 144.906 48.6335 145.479 48.2074C146.053 47.7869 146.34 47.0938 146.34 46.1278V43.6477H146.187C146.028 43.9659 145.795 44.2926 145.488 44.6278C145.187 44.9631 144.786 45.2443 144.286 45.4716C143.792 45.6989 143.17 45.8125 142.42 45.8125C141.414 45.8125 140.502 45.5767 139.684 45.1051C138.871 44.6278 138.224 43.9176 137.741 42.9744C137.263 42.0256 137.025 40.8381 137.025 39.4119C137.025 37.9744 137.263 36.7614 137.741 35.7727C138.224 34.7784 138.874 34.0256 139.692 33.5142C140.511 32.9972 141.423 32.7386 142.428 32.7386C143.195 32.7386 143.826 32.8693 144.32 33.1307C144.82 33.3864 145.218 33.696 145.513 34.0597C145.809 34.4176 146.033 34.7557 146.187 35.0739H146.357V32.9091H149.4V46.2131C149.4 47.3324 149.133 48.2585 148.599 48.9915C148.065 49.7244 147.335 50.2727 146.408 50.6364C145.482 51 144.431 51.1818 143.255 51.1818ZM143.281 43.392C143.934 43.392 144.491 43.233 144.951 42.9148C145.411 42.5966 145.761 42.1392 145.999 41.5426C146.238 40.946 146.357 40.2301 146.357 39.3949C146.357 38.571 146.238 37.8494 145.999 37.2301C145.766 36.6108 145.42 36.1307 144.96 35.7898C144.505 35.4432 143.945 35.2699 143.281 35.2699C142.593 35.2699 142.019 35.4489 141.559 35.8068C141.099 36.1648 140.752 36.6562 140.519 37.2812C140.286 37.9006 140.17 38.6051 140.17 39.3949C140.17 40.196 140.286 40.8977 140.519 41.5C140.758 42.0966 141.107 42.5625 141.567 42.8977C142.033 43.2273 142.604 43.392 143.281 43.392ZM158.272 46.2557C156.994 46.2557 155.886 45.9744 154.948 45.4119C154.011 44.8494 153.283 44.0625 152.766 43.0511C152.255 42.0398 151.999 40.858 151.999 39.5057C151.999 38.1534 152.255 36.9687 152.766 35.9517C153.283 34.9347 154.011 34.1449 154.948 33.5824C155.886 33.0199 156.994 32.7386 158.272 32.7386C159.55 32.7386 160.658 33.0199 161.596 33.5824C162.533 34.1449 163.258 34.9347 163.769 35.9517C164.286 36.9687 164.545 38.1534 164.545 39.5057C164.545 40.858 164.286 42.0398 163.769 43.0511C163.258 44.0625 162.533 44.8494 161.596 45.4119C160.658 45.9744 159.55 46.2557 158.272 46.2557ZM158.289 43.7841C158.982 43.7841 159.562 43.5937 160.028 43.2131C160.494 42.8267 160.84 42.3097 161.067 41.6619C161.3 41.0142 161.417 40.2926 161.417 39.4972C161.417 38.696 161.3 37.9716 161.067 37.3239C160.84 36.6705 160.494 36.1506 160.028 35.7642C159.562 35.3778 158.982 35.1847 158.289 35.1847C157.579 35.1847 156.988 35.3778 156.516 35.7642C156.05 36.1506 155.701 36.6705 155.468 37.3239C155.241 37.9716 155.127 38.696 155.127 39.4972C155.127 40.2926 155.241 41.0142 155.468 41.6619C155.701 42.3097 156.05 42.8267 156.516 43.2131C156.988 43.5937 157.579 43.7841 158.289 43.7841ZM167.163 46V32.9091H170.155V35.0909H170.291C170.53 34.3352 170.939 33.7528 171.518 33.3438C172.104 32.929 172.771 32.7216 173.521 32.7216C173.692 32.7216 173.882 32.7301 174.092 32.7472C174.308 32.7585 174.487 32.7784 174.629 32.8068V35.6449C174.499 35.5994 174.291 35.5597 174.007 35.5256C173.729 35.4858 173.459 35.4659 173.197 35.4659C172.635 35.4659 172.129 35.5881 171.68 35.8324C171.237 36.071 170.888 36.4034 170.632 36.8295C170.376 37.2557 170.249 37.7472 170.249 38.304V46H167.163ZM176.679 46V32.9091H179.764V46H176.679ZM178.23 31.0511C177.741 31.0511 177.321 30.8892 176.969 30.5653C176.616 30.2358 176.44 29.8409 176.44 29.3807C176.44 28.9148 176.616 28.5199 176.969 28.196C177.321 27.8665 177.741 27.7017 178.23 27.7017C178.724 27.7017 179.145 27.8665 179.491 28.196C179.844 28.5199 180.02 28.9148 180.02 29.3807C180.02 29.8409 179.844 30.2358 179.491 30.5653C179.145 30.8892 178.724 31.0511 178.23 31.0511ZM188.732 46.2557C187.42 46.2557 186.286 45.983 185.332 45.4375C184.383 44.8864 183.653 44.108 183.141 43.1023C182.63 42.0909 182.374 40.9006 182.374 39.5312C182.374 38.1847 182.63 37.0028 183.141 35.9858C183.658 34.9631 184.38 34.1676 185.306 33.5994C186.232 33.0256 187.32 32.7386 188.57 32.7386C189.377 32.7386 190.138 32.8693 190.854 33.1307C191.576 33.3864 192.212 33.7841 192.763 34.3239C193.32 34.8636 193.758 35.5511 194.076 36.3864C194.394 37.2159 194.553 38.2045 194.553 39.3523V40.2983H183.823V38.2188H191.596C191.59 37.6278 191.462 37.1023 191.212 36.642C190.962 36.1761 190.613 35.8097 190.164 35.5426C189.721 35.2756 189.204 35.142 188.613 35.142C187.982 35.142 187.428 35.2955 186.951 35.6023C186.474 35.9034 186.102 36.3011 185.835 36.7955C185.573 37.2841 185.44 37.821 185.434 38.4062V40.2216C185.434 40.983 185.573 41.6364 185.852 42.1818C186.13 42.7216 186.519 43.1364 187.019 43.4261C187.519 43.7102 188.104 43.8523 188.775 43.8523C189.224 43.8523 189.63 43.7898 189.994 43.6648C190.357 43.5341 190.673 43.3438 190.94 43.0938C191.207 42.8438 191.408 42.5341 191.545 42.1648L194.425 42.4886C194.244 43.25 193.897 43.9148 193.386 44.483C192.88 45.0455 192.232 45.483 191.442 45.7955C190.653 46.1023 189.749 46.2557 188.732 46.2557ZM207.51 36.3693L204.697 36.6761C204.618 36.392 204.479 36.125 204.28 35.875C204.087 35.625 203.825 35.4233 203.496 35.2699C203.166 35.1165 202.763 35.0398 202.286 35.0398C201.643 35.0398 201.104 35.179 200.666 35.4574C200.234 35.7358 200.021 36.0966 200.027 36.5398C200.021 36.9205 200.161 37.2301 200.445 37.4688C200.734 37.7074 201.212 37.9034 201.876 38.0568L204.109 38.5341C205.348 38.8011 206.268 39.2244 206.871 39.804C207.479 40.3835 207.786 41.142 207.791 42.0795C207.786 42.9034 207.544 43.6307 207.067 44.2614C206.595 44.8864 205.939 45.375 205.098 45.7273C204.257 46.0795 203.291 46.2557 202.2 46.2557C200.598 46.2557 199.308 45.9205 198.331 45.25C197.354 44.5739 196.771 43.6335 196.584 42.429L199.592 42.1392C199.729 42.7301 200.018 43.1761 200.462 43.4773C200.905 43.7784 201.482 43.929 202.192 43.929C202.925 43.929 203.513 43.7784 203.956 43.4773C204.405 43.1761 204.629 42.804 204.629 42.3608C204.629 41.9858 204.484 41.6761 204.195 41.4318C203.911 41.1875 203.467 41 202.865 40.8693L200.632 40.4006C199.376 40.1392 198.447 39.6989 197.845 39.0795C197.243 38.4545 196.945 37.6648 196.95 36.7102C196.945 35.9034 197.163 35.2045 197.607 34.6136C198.055 34.017 198.678 33.5568 199.473 33.233C200.274 32.9034 201.197 32.7386 202.243 32.7386C203.777 32.7386 204.984 33.0653 205.865 33.7188C206.751 34.3722 207.3 35.2557 207.51 36.3693Z" fill="black"/>
</svg>
