<svg width="311" height="24" viewBox="0 0 311 24" fill="none" xmlns="http://www.w3.org/2000/svg">
<path d="M20.5 12C20.5 12.2785 20.3894 12.5455 20.1925 12.7425C19.9955 12.9394 19.7285 13.05 19.45 13.05H12.8V19.7C12.8 19.9785 12.6894 20.2455 12.4925 20.4425C12.2955 20.6394 12.0285 20.75 11.75 20.75C11.4715 20.75 11.2045 20.6394 11.0075 20.4425C10.8106 20.2455 10.7 19.9785 10.7 19.7V13.05H4.05C3.77152 13.05 3.50445 12.9394 3.30754 12.7425C3.11062 12.5455 3 12.2785 3 12C3 11.7215 3.11062 11.4544 3.30754 11.2575C3.50445 11.0606 3.77152 10.95 4.05 10.95H10.7V4.3C10.7 4.02152 10.8106 3.75445 11.0075 3.55754C11.2045 3.36062 11.4715 3.25 11.75 3.25C12.0285 3.25 12.2955 3.36062 12.4925 3.55754C12.6894 3.75445 12.8 4.02152 12.8 4.3V10.95H19.45C19.7285 10.95 19.9955 11.0606 20.1925 11.2575C20.3894 11.4544 20.5 11.7215 20.5 12Z" fill="#1E88E5"/>
<path d="M33.7614 18H31.8977L36.0852 6.36364H38.1136L42.3011 18H40.4375L37.1477 8.47727H37.0568L33.7614 18ZM34.0739 13.4432H40.1193V14.9205H34.0739V13.4432ZM46.9716 18.1705C46.267 18.1705 45.6383 17.9905 45.0852 17.6307C44.536 17.267 44.1042 16.75 43.7898 16.0795C43.4792 15.4053 43.3239 14.5966 43.3239 13.6534C43.3239 12.7102 43.4811 11.9034 43.7955 11.233C44.1136 10.5625 44.5492 10.0492 45.1023 9.69318C45.6553 9.33712 46.2822 9.15909 46.983 9.15909C47.5246 9.15909 47.9602 9.25 48.2898 9.43182C48.6231 9.60985 48.8807 9.81818 49.0625 10.0568C49.2481 10.2955 49.392 10.5057 49.4943 10.6875H49.5966V6.36364H51.2955V18H49.6364V16.642H49.4943C49.392 16.8277 49.2443 17.0398 49.0511 17.2784C48.8617 17.517 48.6004 17.7254 48.267 17.9034C47.9337 18.0814 47.5019 18.1705 46.9716 18.1705ZM47.3466 16.7216C47.8352 16.7216 48.2481 16.5928 48.5852 16.3352C48.9261 16.0739 49.1837 15.7121 49.358 15.25C49.536 14.7879 49.625 14.25 49.625 13.6364C49.625 13.0303 49.5379 12.5 49.3636 12.0455C49.1894 11.5909 48.9337 11.2367 48.5966 10.983C48.2595 10.7292 47.8428 10.6023 47.3466 10.6023C46.8352 10.6023 46.4091 10.7348 46.0682 11C45.7273 11.2652 45.4697 11.6269 45.2955 12.0852C45.125 12.5436 45.0398 13.0606 45.0398 13.6364C45.0398 14.2197 45.1269 14.7443 45.3011 15.2102C45.4754 15.6761 45.733 16.0455 46.0739 16.3182C46.4186 16.5871 46.8428 16.7216 47.3466 16.7216ZM56.9872 18.1705C56.2827 18.1705 55.6539 17.9905 55.1009 17.6307C54.5516 17.267 54.1198 16.75 53.8054 16.0795C53.4948 15.4053 53.3395 14.5966 53.3395 13.6534C53.3395 12.7102 53.4967 11.9034 53.8111 11.233C54.1293 10.5625 54.5649 10.0492 55.1179 9.69318C55.6709 9.33712 56.2978 9.15909 56.9986 9.15909C57.5402 9.15909 57.9759 9.25 58.3054 9.43182C58.6387 9.60985 58.8963 9.81818 59.0781 10.0568C59.2637 10.2955 59.4077 10.5057 59.5099 10.6875H59.6122V6.36364H61.3111V18H59.652V16.642H59.5099C59.4077 16.8277 59.2599 17.0398 59.0668 17.2784C58.8774 17.517 58.616 17.7254 58.2827 17.9034C57.9493 18.0814 57.5175 18.1705 56.9872 18.1705ZM57.3622 16.7216C57.8509 16.7216 58.2637 16.5928 58.6009 16.3352C58.9418 16.0739 59.1993 15.7121 59.3736 15.25C59.5516 14.7879 59.6406 14.25 59.6406 13.6364C59.6406 13.0303 59.5535 12.5 59.3793 12.0455C59.205 11.5909 58.9493 11.2367 58.6122 10.983C58.2751 10.7292 57.8584 10.6023 57.3622 10.6023C56.8509 10.6023 56.4247 10.7348 56.0838 11C55.7429 11.2652 55.4853 11.6269 55.3111 12.0852C55.1406 12.5436 55.0554 13.0606 55.0554 13.6364C55.0554 14.2197 55.1425 14.7443 55.3168 15.2102C55.491 15.6761 55.7486 16.0455 56.0895 16.3182C56.4342 16.5871 56.8584 16.7216 57.3622 16.7216ZM67.9702 18V9.27273H69.6009V10.6932H69.7088C69.8906 10.2121 70.188 9.83712 70.6009 9.56818C71.0137 9.29545 71.508 9.15909 72.0838 9.15909C72.6671 9.15909 73.1558 9.29545 73.5497 9.56818C73.9474 9.84091 74.241 10.2159 74.4304 10.6932H74.5213C74.7296 10.2273 75.0611 9.85606 75.5156 9.57955C75.9702 9.29924 76.5118 9.15909 77.1406 9.15909C77.9323 9.15909 78.5781 9.4072 79.0781 9.90341C79.5819 10.3996 79.8338 11.1477 79.8338 12.1477V18H78.1349V12.3068C78.1349 11.7159 77.974 11.2879 77.652 11.0227C77.33 10.7576 76.9455 10.625 76.4986 10.625C75.9455 10.625 75.5156 10.7955 75.2088 11.1364C74.902 11.4735 74.7486 11.9072 74.7486 12.4375V18H73.0554V12.1989C73.0554 11.7254 72.9077 11.3447 72.6122 11.0568C72.3168 10.7689 71.9323 10.625 71.4588 10.625C71.1368 10.625 70.8395 10.7102 70.5668 10.8807C70.2978 11.0473 70.08 11.2803 69.9134 11.5795C69.7505 11.8788 69.669 12.2254 69.669 12.6193V18H67.9702ZM85.7869 18.1761C84.9688 18.1761 84.2547 17.9886 83.6449 17.6136C83.035 17.2386 82.5616 16.714 82.2244 16.0398C81.8873 15.3655 81.7188 14.5777 81.7188 13.6761C81.7188 12.7708 81.8873 11.9792 82.2244 11.3011C82.5616 10.6231 83.035 10.0966 83.6449 9.72159C84.2547 9.34659 84.9688 9.15909 85.7869 9.15909C86.6051 9.15909 87.3191 9.34659 87.929 9.72159C88.5388 10.0966 89.0123 10.6231 89.3494 11.3011C89.6866 11.9792 89.8551 12.7708 89.8551 13.6761C89.8551 14.5777 89.6866 15.3655 89.3494 16.0398C89.0123 16.714 88.5388 17.2386 87.929 17.6136C87.3191 17.9886 86.6051 18.1761 85.7869 18.1761ZM85.7926 16.75C86.3229 16.75 86.7623 16.6098 87.1108 16.3295C87.4593 16.0492 87.7169 15.6761 87.8835 15.2102C88.054 14.7443 88.1392 14.2311 88.1392 13.6705C88.1392 13.1136 88.054 12.6023 87.8835 12.1364C87.7169 11.6667 87.4593 11.2898 87.1108 11.0057C86.7623 10.7216 86.3229 10.5795 85.7926 10.5795C85.2585 10.5795 84.8153 10.7216 84.4631 11.0057C84.1146 11.2898 83.8551 11.6667 83.6847 12.1364C83.518 12.6023 83.4347 13.1136 83.4347 13.6705C83.4347 14.2311 83.518 14.7443 83.6847 15.2102C83.8551 15.6761 84.1146 16.0492 84.4631 16.3295C84.8153 16.6098 85.2585 16.75 85.7926 16.75ZM91.7514 18V9.27273H93.3935V10.6591H93.4844C93.6435 10.1894 93.9238 9.82008 94.3253 9.55114C94.7306 9.27841 95.1889 9.14205 95.7003 9.14205C95.8063 9.14205 95.9313 9.14583 96.0753 9.15341C96.223 9.16098 96.3385 9.17045 96.4219 9.18182V10.8068C96.3537 10.7879 96.2325 10.767 96.0582 10.7443C95.884 10.7178 95.7098 10.7045 95.5355 10.7045C95.134 10.7045 94.776 10.7898 94.4616 10.9602C94.151 11.1269 93.9048 11.3598 93.723 11.6591C93.5412 11.9545 93.4503 12.2917 93.4503 12.6705V18H91.7514ZM101.341 18.1761C100.481 18.1761 99.7405 17.9924 99.1193 17.625C98.5019 17.2538 98.0246 16.733 97.6875 16.0625C97.3542 15.3883 97.1875 14.5985 97.1875 13.6932C97.1875 12.7992 97.3542 12.0114 97.6875 11.3295C98.0246 10.6477 98.4943 10.1155 99.0966 9.73295C99.7027 9.35038 100.411 9.15909 101.222 9.15909C101.714 9.15909 102.191 9.24053 102.653 9.40341C103.116 9.56629 103.53 9.82197 103.898 10.1705C104.265 10.5189 104.555 10.9716 104.767 11.5284C104.979 12.0814 105.085 12.7538 105.085 13.5455V14.1477H98.1477V12.875H103.42C103.42 12.428 103.33 12.0322 103.148 11.6875C102.966 11.339 102.71 11.0644 102.381 10.8636C102.055 10.6629 101.672 10.5625 101.233 10.5625C100.756 10.5625 100.339 10.6799 99.983 10.9148C99.6307 11.1458 99.358 11.4489 99.1648 11.8239C98.9754 12.1951 98.8807 12.5985 98.8807 13.0341V14.0284C98.8807 14.6117 98.983 15.108 99.1875 15.517C99.3958 15.9261 99.6856 16.2386 100.057 16.4545C100.428 16.6667 100.862 16.7727 101.358 16.7727C101.68 16.7727 101.973 16.7273 102.239 16.6364C102.504 16.5417 102.733 16.4015 102.926 16.2159C103.119 16.0303 103.267 15.8011 103.369 15.5284L104.977 15.8182C104.848 16.2917 104.617 16.7064 104.284 17.0625C103.955 17.4148 103.54 17.6894 103.04 17.8864C102.544 18.0795 101.977 18.1761 101.341 18.1761ZM111.205 18V9.27273H112.903V18H111.205ZM112.062 7.92614C111.767 7.92614 111.513 7.82765 111.301 7.63068C111.093 7.42992 110.989 7.19129 110.989 6.91477C110.989 6.63447 111.093 6.39583 111.301 6.19886C111.513 5.99811 111.767 5.89773 112.062 5.89773C112.358 5.89773 112.61 5.99811 112.818 6.19886C113.03 6.39583 113.136 6.63447 113.136 6.91477C113.136 7.19129 113.03 7.42992 112.818 7.63068C112.61 7.82765 112.358 7.92614 112.062 7.92614ZM119.263 9.27273V10.6364H114.496V9.27273H119.263ZM115.774 7.18182H117.473V15.4375C117.473 15.767 117.522 16.0152 117.621 16.1818C117.719 16.3447 117.846 16.4564 118.001 16.517C118.161 16.5739 118.333 16.6023 118.518 16.6023C118.655 16.6023 118.774 16.5928 118.876 16.5739C118.979 16.5549 119.058 16.5398 119.115 16.5284L119.422 17.9318C119.323 17.9697 119.183 18.0076 119.001 18.0455C118.82 18.0871 118.592 18.1098 118.32 18.1136C117.873 18.1212 117.456 18.0417 117.07 17.875C116.683 17.7083 116.371 17.4508 116.132 17.1023C115.893 16.7538 115.774 16.3163 115.774 15.7898V7.18182ZM124.81 18.1761C123.95 18.1761 123.209 17.9924 122.588 17.625C121.971 17.2538 121.493 16.733 121.156 16.0625C120.823 15.3883 120.656 14.5985 120.656 13.6932C120.656 12.7992 120.823 12.0114 121.156 11.3295C121.493 10.6477 121.963 10.1155 122.565 9.73295C123.171 9.35038 123.88 9.15909 124.69 9.15909C125.183 9.15909 125.66 9.24053 126.122 9.40341C126.584 9.56629 126.999 9.82197 127.366 10.1705C127.734 10.5189 128.024 10.9716 128.236 11.5284C128.448 12.0814 128.554 12.7538 128.554 13.5455V14.1477H121.616V12.875H126.889C126.889 12.428 126.798 12.0322 126.616 11.6875C126.435 11.339 126.179 11.0644 125.849 10.8636C125.524 10.6629 125.141 10.5625 124.702 10.5625C124.224 10.5625 123.808 10.6799 123.452 10.9148C123.099 11.1458 122.827 11.4489 122.634 11.8239C122.444 12.1951 122.349 12.5985 122.349 13.0341V14.0284C122.349 14.6117 122.452 15.108 122.656 15.517C122.865 15.9261 123.154 16.2386 123.526 16.4545C123.897 16.6667 124.33 16.7727 124.827 16.7727C125.149 16.7727 125.442 16.7273 125.707 16.6364C125.973 16.5417 126.202 16.4015 126.395 16.2159C126.588 16.0303 126.736 15.8011 126.838 15.5284L128.446 15.8182C128.317 16.2917 128.086 16.7064 127.753 17.0625C127.423 17.4148 127.009 17.6894 126.509 17.8864C126.012 18.0795 125.446 18.1761 124.81 18.1761ZM130.439 18V9.27273H132.07V10.6932H132.178C132.359 10.2121 132.657 9.83712 133.07 9.56818C133.482 9.29545 133.977 9.15909 134.553 9.15909C135.136 9.15909 135.625 9.29545 136.018 9.56818C136.416 9.84091 136.71 10.2159 136.899 10.6932H136.99C137.198 10.2273 137.53 9.85606 137.984 9.57955C138.439 9.29924 138.981 9.15909 139.609 9.15909C140.401 9.15909 141.047 9.4072 141.547 9.90341C142.051 10.3996 142.303 11.1477 142.303 12.1477V18H140.604V12.3068C140.604 11.7159 140.443 11.2879 140.121 11.0227C139.799 10.7576 139.414 10.625 138.967 10.625C138.414 10.625 137.984 10.7955 137.678 11.1364C137.371 11.4735 137.217 11.9072 137.217 12.4375V18H135.524V12.1989C135.524 11.7254 135.376 11.3447 135.081 11.0568C134.786 10.7689 134.401 10.625 133.928 10.625C133.606 10.625 133.308 10.7102 133.036 10.8807C132.767 11.0473 132.549 11.2803 132.382 11.5795C132.219 11.8788 132.138 12.2254 132.138 12.6193V18H130.439ZM151.119 11.4034L149.58 11.6761C149.515 11.4792 149.413 11.2917 149.273 11.1136C149.136 10.9356 148.951 10.7898 148.716 10.6761C148.481 10.5625 148.188 10.5057 147.835 10.5057C147.354 10.5057 146.953 10.6136 146.631 10.8295C146.309 11.0417 146.148 11.3163 146.148 11.6534C146.148 11.9451 146.256 12.1799 146.472 12.358C146.688 12.536 147.036 12.6818 147.517 12.7955L148.903 13.1136C149.706 13.2992 150.305 13.5852 150.699 13.9716C151.093 14.358 151.29 14.8598 151.29 15.4773C151.29 16 151.138 16.4659 150.835 16.875C150.536 17.2803 150.117 17.5985 149.58 17.8295C149.045 18.0606 148.426 18.1761 147.722 18.1761C146.744 18.1761 145.947 17.9678 145.33 17.5511C144.712 17.1307 144.333 16.5341 144.193 15.7614L145.835 15.5114C145.938 15.9394 146.148 16.2633 146.466 16.483C146.784 16.6989 147.199 16.8068 147.71 16.8068C148.267 16.8068 148.712 16.6913 149.045 16.4602C149.379 16.2254 149.545 15.9394 149.545 15.6023C149.545 15.3295 149.443 15.1004 149.239 14.9148C149.038 14.7292 148.729 14.589 148.312 14.4943L146.835 14.1705C146.021 13.9848 145.419 13.6894 145.028 13.2841C144.642 12.8788 144.449 12.3655 144.449 11.7443C144.449 11.2292 144.593 10.7784 144.881 10.392C145.169 10.0057 145.566 9.70455 146.074 9.48864C146.581 9.26894 147.163 9.15909 147.818 9.15909C148.761 9.15909 149.504 9.36364 150.045 9.77273C150.587 10.178 150.945 10.7216 151.119 11.4034ZM161.545 9.27273V10.6364H156.614V9.27273H161.545ZM157.966 18V8.26136C157.966 7.71591 158.085 7.26326 158.324 6.90341C158.563 6.53977 158.879 6.26894 159.273 6.09091C159.667 5.90909 160.095 5.81818 160.557 5.81818C160.898 5.81818 161.189 5.84659 161.432 5.90341C161.674 5.95644 161.854 6.00568 161.972 6.05114L161.574 7.42614C161.494 7.40341 161.392 7.37689 161.267 7.34659C161.142 7.3125 160.991 7.29545 160.812 7.29545C160.4 7.29545 160.104 7.39773 159.926 7.60227C159.752 7.80682 159.665 8.10227 159.665 8.48864V18H157.966ZM163.298 18V9.27273H164.94V10.6591H165.031C165.19 10.1894 165.471 9.82008 165.872 9.55114C166.277 9.27841 166.736 9.14205 167.247 9.14205C167.353 9.14205 167.478 9.14583 167.622 9.15341C167.77 9.16098 167.885 9.17045 167.969 9.18182V10.8068C167.901 10.7879 167.779 10.767 167.605 10.7443C167.431 10.7178 167.257 10.7045 167.082 10.7045C166.681 10.7045 166.323 10.7898 166.009 10.9602C165.698 11.1269 165.452 11.3598 165.27 11.6591C165.088 11.9545 164.997 12.2917 164.997 12.6705V18H163.298ZM172.803 18.1761C171.984 18.1761 171.27 17.9886 170.661 17.6136C170.051 17.2386 169.577 16.714 169.24 16.0398C168.903 15.3655 168.734 14.5777 168.734 13.6761C168.734 12.7708 168.903 11.9792 169.24 11.3011C169.577 10.6231 170.051 10.0966 170.661 9.72159C171.27 9.34659 171.984 9.15909 172.803 9.15909C173.621 9.15909 174.335 9.34659 174.945 9.72159C175.554 10.0966 176.028 10.6231 176.365 11.3011C176.702 11.9792 176.871 12.7708 176.871 13.6761C176.871 14.5777 176.702 15.3655 176.365 16.0398C176.028 16.714 175.554 17.2386 174.945 17.6136C174.335 17.9886 173.621 18.1761 172.803 18.1761ZM172.808 16.75C173.339 16.75 173.778 16.6098 174.126 16.3295C174.475 16.0492 174.732 15.6761 174.899 15.2102C175.07 14.7443 175.155 14.2311 175.155 13.6705C175.155 13.1136 175.07 12.6023 174.899 12.1364C174.732 11.6667 174.475 11.2898 174.126 11.0057C173.778 10.7216 173.339 10.5795 172.808 10.5795C172.274 10.5795 171.831 10.7216 171.479 11.0057C171.13 11.2898 170.871 11.6667 170.7 12.1364C170.534 12.6023 170.45 13.1136 170.45 13.6705C170.45 14.2311 170.534 14.7443 170.7 15.2102C170.871 15.6761 171.13 16.0492 171.479 16.3295C171.831 16.6098 172.274 16.75 172.808 16.75ZM178.767 18V9.27273H180.398V10.6932H180.506C180.688 10.2121 180.985 9.83712 181.398 9.56818C181.811 9.29545 182.305 9.15909 182.881 9.15909C183.464 9.15909 183.953 9.29545 184.347 9.56818C184.744 9.84091 185.038 10.2159 185.227 10.6932H185.318C185.527 10.2273 185.858 9.85606 186.312 9.57955C186.767 9.29924 187.309 9.15909 187.938 9.15909C188.729 9.15909 189.375 9.4072 189.875 9.90341C190.379 10.3996 190.631 11.1477 190.631 12.1477V18H188.932V12.3068C188.932 11.7159 188.771 11.2879 188.449 11.0227C188.127 10.7576 187.742 10.625 187.295 10.625C186.742 10.625 186.312 10.7955 186.006 11.1364C185.699 11.4735 185.545 11.9072 185.545 12.4375V18H183.852V12.1989C183.852 11.7254 183.705 11.3447 183.409 11.0568C183.114 10.7689 182.729 10.625 182.256 10.625C181.934 10.625 181.636 10.7102 181.364 10.8807C181.095 11.0473 180.877 11.2803 180.71 11.5795C180.547 11.8788 180.466 12.2254 180.466 12.6193V18H178.767ZM206.943 10.1477H205.17C205.102 9.76894 204.975 9.43561 204.79 9.14773C204.604 8.85985 204.377 8.61553 204.108 8.41477C203.839 8.21401 203.538 8.0625 203.205 7.96023C202.875 7.85795 202.525 7.80682 202.153 7.80682C201.483 7.80682 200.883 7.97538 200.352 8.3125C199.826 8.64962 199.409 9.14394 199.102 9.79545C198.799 10.447 198.648 11.2424 198.648 12.1818C198.648 13.1288 198.799 13.928 199.102 14.5795C199.409 15.2311 199.828 15.7235 200.358 16.0568C200.888 16.3902 201.485 16.5568 202.148 16.5568C202.515 16.5568 202.864 16.5076 203.193 16.4091C203.527 16.3068 203.828 16.1572 204.097 15.9602C204.366 15.7633 204.593 15.5227 204.778 15.2386C204.968 14.9508 205.098 14.6212 205.17 14.25L206.943 14.2557C206.848 14.8277 206.665 15.3542 206.392 15.8352C206.123 16.3125 205.777 16.7254 205.352 17.0739C204.932 17.4186 204.451 17.6856 203.909 17.875C203.367 18.0644 202.777 18.1591 202.136 18.1591C201.129 18.1591 200.231 17.9205 199.443 17.4432C198.655 16.9621 198.034 16.2746 197.58 15.3807C197.129 14.4867 196.903 13.4205 196.903 12.1818C196.903 10.9394 197.131 9.87311 197.585 8.98295C198.04 8.08901 198.661 7.40341 199.449 6.92614C200.237 6.44508 201.133 6.20455 202.136 6.20455C202.754 6.20455 203.33 6.29356 203.864 6.47159C204.402 6.64583 204.884 6.90341 205.312 7.24432C205.741 7.58144 206.095 7.99432 206.375 8.48295C206.655 8.9678 206.845 9.52273 206.943 10.1477ZM210.607 12.8182V18H208.908V6.36364H210.584V10.6932H210.692C210.896 10.2235 211.209 9.85038 211.629 9.57386C212.05 9.29735 212.599 9.15909 213.277 9.15909C213.875 9.15909 214.398 9.2822 214.845 9.52841C215.296 9.77462 215.644 10.142 215.891 10.6307C216.141 11.1155 216.266 11.7216 216.266 12.4489V18H214.567V12.6534C214.567 12.0133 214.402 11.517 214.072 11.1648C213.743 10.8087 213.285 10.6307 212.697 10.6307C212.296 10.6307 211.936 10.7159 211.618 10.8864C211.304 11.0568 211.055 11.3068 210.874 11.6364C210.696 11.9621 210.607 12.3561 210.607 12.8182ZM224.061 14.3807V9.27273H225.766V18H224.095V16.4886H224.004C223.804 16.9545 223.482 17.3428 223.038 17.6534C222.599 17.9602 222.052 18.1136 221.396 18.1136C220.836 18.1136 220.339 17.9905 219.908 17.7443C219.48 17.4943 219.143 17.125 218.896 16.6364C218.654 16.1477 218.533 15.5436 218.533 14.8239V9.27273H220.232V14.6193C220.232 15.214 220.396 15.6875 220.726 16.0398C221.055 16.392 221.483 16.5682 222.01 16.5682C222.328 16.5682 222.644 16.4886 222.959 16.3295C223.277 16.1705 223.54 15.9299 223.749 15.608C223.961 15.286 224.065 14.8769 224.061 14.3807ZM229.611 15.0398L229.599 12.9659H229.895L233.372 9.27273H235.406L231.44 13.4773H231.173L229.611 15.0398ZM228.048 18V6.36364H229.747V18H228.048ZM233.56 18L230.435 13.8523L231.605 12.6648L235.645 18H233.56ZM243.494 11.4034L241.955 11.6761C241.89 11.4792 241.788 11.2917 241.648 11.1136C241.511 10.9356 241.326 10.7898 241.091 10.6761C240.856 10.5625 240.563 10.5057 240.21 10.5057C239.729 10.5057 239.328 10.6136 239.006 10.8295C238.684 11.0417 238.523 11.3163 238.523 11.6534C238.523 11.9451 238.631 12.1799 238.847 12.358C239.063 12.536 239.411 12.6818 239.892 12.7955L241.278 13.1136C242.081 13.2992 242.68 13.5852 243.074 13.9716C243.468 14.358 243.665 14.8598 243.665 15.4773C243.665 16 243.513 16.4659 243.21 16.875C242.911 17.2803 242.492 17.5985 241.955 17.8295C241.42 18.0606 240.801 18.1761 240.097 18.1761C239.119 18.1761 238.322 17.9678 237.705 17.5511C237.087 17.1307 236.708 16.5341 236.568 15.7614L238.21 15.5114C238.313 15.9394 238.523 16.2633 238.841 16.483C239.159 16.6989 239.574 16.8068 240.085 16.8068C240.642 16.8068 241.087 16.6913 241.42 16.4602C241.754 16.2254 241.92 15.9394 241.92 15.6023C241.92 15.3295 241.818 15.1004 241.614 14.9148C241.413 14.7292 241.104 14.589 240.688 14.4943L239.21 14.1705C238.396 13.9848 237.794 13.6894 237.403 13.2841C237.017 12.8788 236.824 12.3655 236.824 11.7443C236.824 11.2292 236.968 10.7784 237.256 10.392C237.544 10.0057 237.941 9.70455 238.449 9.48864C238.956 9.26894 239.538 9.15909 240.193 9.15909C241.136 9.15909 241.879 9.36364 242.42 9.77273C242.962 10.178 243.32 10.7216 243.494 11.4034ZM249.903 18V6.36364H251.659V11.9205H251.801L256.682 6.36364H258.892L254.199 11.6023L258.909 18H256.795L253.034 12.8011L251.659 14.3807V18H249.903ZM260.939 18V9.27273H262.638V18H260.939ZM261.797 7.92614C261.501 7.92614 261.248 7.82765 261.036 7.63068C260.827 7.42992 260.723 7.19129 260.723 6.91477C260.723 6.63447 260.827 6.39583 261.036 6.19886C261.248 5.99811 261.501 5.89773 261.797 5.89773C262.092 5.89773 262.344 5.99811 262.553 6.19886C262.765 6.39583 262.871 6.63447 262.871 6.91477C262.871 7.19129 262.765 7.42992 262.553 7.63068C262.344 7.82765 262.092 7.92614 261.797 7.92614ZM268.997 9.27273V10.6364H264.23V9.27273H268.997ZM265.509 7.18182H267.207V15.4375C267.207 15.767 267.257 16.0152 267.355 16.1818C267.454 16.3447 267.58 16.4564 267.736 16.517C267.895 16.5739 268.067 16.6023 268.253 16.6023C268.389 16.6023 268.509 16.5928 268.611 16.5739C268.713 16.5549 268.793 16.5398 268.849 16.5284L269.156 17.9318C269.058 17.9697 268.918 18.0076 268.736 18.0455C268.554 18.0871 268.327 18.1098 268.054 18.1136C267.607 18.1212 267.19 18.0417 266.804 17.875C266.418 17.7083 266.105 17.4508 265.866 17.1023C265.628 16.7538 265.509 16.3163 265.509 15.7898V7.18182ZM274.459 18.1761C273.614 18.1761 272.887 17.9848 272.277 17.6023C271.671 17.2159 271.205 16.6837 270.879 16.0057C270.554 15.3277 270.391 14.5511 270.391 13.6761C270.391 12.7898 270.557 12.0076 270.891 11.3295C271.224 10.6477 271.694 10.1155 272.3 9.73295C272.906 9.35038 273.62 9.15909 274.442 9.15909C275.105 9.15909 275.696 9.2822 276.214 9.52841C276.733 9.77083 277.152 10.1117 277.47 10.5511C277.792 10.9905 277.983 11.5038 278.044 12.0909H276.391C276.3 11.6818 276.091 11.3295 275.766 11.0341C275.444 10.7386 275.012 10.5909 274.47 10.5909C273.997 10.5909 273.582 10.7159 273.226 10.9659C272.874 11.2121 272.599 11.5644 272.402 12.0227C272.205 12.4773 272.107 13.0152 272.107 13.6364C272.107 14.2727 272.203 14.822 272.396 15.2841C272.589 15.7462 272.862 16.1042 273.214 16.358C273.571 16.6117 273.989 16.7386 274.47 16.7386C274.792 16.7386 275.084 16.6799 275.345 16.5625C275.61 16.4413 275.832 16.2689 276.01 16.0455C276.192 15.822 276.319 15.553 276.391 15.2386H278.044C277.983 15.803 277.8 16.3068 277.493 16.75C277.186 17.1932 276.775 17.5417 276.26 17.7955C275.749 18.0492 275.148 18.1761 274.459 18.1761ZM281.56 12.8182V18H279.861V6.36364H281.537V10.6932H281.645C281.849 10.2235 282.162 9.85038 282.582 9.57386C283.003 9.29735 283.552 9.15909 284.23 9.15909C284.829 9.15909 285.351 9.2822 285.798 9.52841C286.249 9.77462 286.598 10.142 286.844 10.6307C287.094 11.1155 287.219 11.7216 287.219 12.4489V18H285.52V12.6534C285.52 12.0133 285.355 11.517 285.026 11.1648C284.696 10.8087 284.238 10.6307 283.651 10.6307C283.249 10.6307 282.889 10.7159 282.571 10.8864C282.257 11.0568 282.009 11.3068 281.827 11.6364C281.649 11.9621 281.56 12.3561 281.56 12.8182ZM293.247 18.1761C292.387 18.1761 291.647 17.9924 291.026 17.625C290.408 17.2538 289.931 16.733 289.594 16.0625C289.26 15.3883 289.094 14.5985 289.094 13.6932C289.094 12.7992 289.26 12.0114 289.594 11.3295C289.931 10.6477 290.401 10.1155 291.003 9.73295C291.609 9.35038 292.317 9.15909 293.128 9.15909C293.62 9.15909 294.098 9.24053 294.56 9.40341C295.022 9.56629 295.437 9.82197 295.804 10.1705C296.171 10.5189 296.461 10.9716 296.673 11.5284C296.885 12.0814 296.991 12.7538 296.991 13.5455V14.1477H290.054V12.875H295.327C295.327 12.428 295.236 12.0322 295.054 11.6875C294.872 11.339 294.616 11.0644 294.287 10.8636C293.961 10.6629 293.579 10.5625 293.139 10.5625C292.662 10.5625 292.245 10.6799 291.889 10.9148C291.537 11.1458 291.264 11.4489 291.071 11.8239C290.882 12.1951 290.787 12.5985 290.787 13.0341V14.0284C290.787 14.6117 290.889 15.108 291.094 15.517C291.302 15.9261 291.592 16.2386 291.963 16.4545C292.334 16.6667 292.768 16.7727 293.264 16.7727C293.586 16.7727 293.88 16.7273 294.145 16.6364C294.41 16.5417 294.639 16.4015 294.832 16.2159C295.026 16.0303 295.173 15.8011 295.276 15.5284L296.884 15.8182C296.755 16.2917 296.524 16.7064 296.19 17.0625C295.861 17.4148 295.446 17.6894 294.946 17.8864C294.45 18.0795 293.884 18.1761 293.247 18.1761ZM300.575 12.8182V18H298.876V9.27273H300.507V10.6932H300.615C300.816 10.2311 301.13 9.85985 301.558 9.57955C301.99 9.29924 302.534 9.15909 303.189 9.15909C303.784 9.15909 304.304 9.28409 304.751 9.53409C305.198 9.7803 305.545 10.1477 305.791 10.6364C306.037 11.125 306.161 11.7292 306.161 12.4489V18H304.462V12.6534C304.462 12.0208 304.297 11.5265 303.967 11.1705C303.638 10.8106 303.185 10.6307 302.609 10.6307C302.215 10.6307 301.865 10.7159 301.558 10.8864C301.255 11.0568 301.015 11.3068 300.837 11.6364C300.662 11.9621 300.575 12.3561 300.575 12.8182Z" fill="#1E88E5"/>
</svg>
