<svg width="694" height="78" viewBox="0 0 694 78" fill="none" xmlns="http://www.w3.org/2000/svg">
<path d="M1.27841 5.36364H3.40909L7.11364 14.4091H7.25L10.9545 5.36364H13.0852V17H11.4148V8.57955H11.3068L7.875 16.983H6.48864L3.05682 8.57386H2.94886V17H1.27841V5.36364ZM18.9428 17.1761C18.0829 17.1761 17.3424 16.9924 16.7212 16.625C16.1038 16.2538 15.6265 15.733 15.2894 15.0625C14.956 14.3883 14.7894 13.5985 14.7894 12.6932C14.7894 11.7992 14.956 11.0114 15.2894 10.3295C15.6265 9.64773 16.0962 9.11553 16.6985 8.73295C17.3045 8.35038 18.0129 8.15909 18.8235 8.15909C19.3159 8.15909 19.7932 8.24053 20.2553 8.40341C20.7174 8.56629 21.1322 8.82197 21.4996 9.17045C21.867 9.51894 22.1568 9.97159 22.3689 10.5284C22.581 11.0814 22.6871 11.7538 22.6871 12.5455V13.1477H15.7496V11.875H21.0223C21.0223 11.428 20.9314 11.0322 20.7496 10.6875C20.5678 10.339 20.3121 10.0644 19.9826 9.86364C19.6568 9.66288 19.2742 9.5625 18.8348 9.5625C18.3576 9.5625 17.9409 9.67992 17.5848 9.91477C17.2326 10.1458 16.9598 10.4489 16.7666 10.8239C16.5773 11.1951 16.4826 11.5985 16.4826 12.0341V13.0284C16.4826 13.6117 16.5848 14.108 16.7894 14.517C16.9977 14.9261 17.2875 15.2386 17.6587 15.4545C18.0299 15.6667 18.4636 15.7727 18.9598 15.7727C19.2818 15.7727 19.5754 15.7273 19.8405 15.6364C20.1057 15.5417 20.3348 15.4015 20.528 15.2159C20.7212 15.0303 20.8689 14.8011 20.9712 14.5284L22.5791 14.8182C22.4504 15.2917 22.2193 15.7064 21.886 16.0625C21.5564 16.4148 21.1416 16.6894 20.6416 16.8864C20.1454 17.0795 19.5791 17.1761 18.9428 17.1761ZM25.9509 11.8182V17H24.252V8.27273H25.8827V9.69318H25.9907C26.1914 9.23106 26.5058 8.85985 26.9339 8.57955C27.3657 8.29924 27.9092 8.15909 28.5645 8.15909C29.1592 8.15909 29.6801 8.28409 30.127 8.53409C30.574 8.7803 30.9206 9.14773 31.1668 9.63636C31.413 10.125 31.5361 10.7292 31.5361 11.4489V17H29.8373V11.6534C29.8373 11.0208 29.6725 10.5265 29.343 10.1705C29.0134 9.81061 28.5608 9.63068 27.985 9.63068C27.5911 9.63068 27.2407 9.71591 26.9339 9.88636C26.6308 10.0568 26.3903 10.3068 26.2123 10.6364C26.038 10.9621 25.9509 11.3561 25.9509 11.8182ZM39.023 13.3807V8.27273H40.7275V17H39.057V15.4886H38.9661C38.7654 15.9545 38.4434 16.3428 38.0002 16.6534C37.5608 16.9602 37.0135 17.1136 36.3582 17.1136C35.7976 17.1136 35.3014 16.9905 34.8695 16.7443C34.4415 16.4943 34.1044 16.125 33.8582 15.6364C33.6158 15.1477 33.4945 14.5436 33.4945 13.8239V8.27273H35.1934V13.6193C35.1934 14.214 35.3582 14.6875 35.6877 15.0398C36.0173 15.392 36.4453 15.5682 36.9718 15.5682C37.29 15.5682 37.6063 15.4886 37.9207 15.3295C38.2389 15.1705 38.5021 14.9299 38.7105 14.608C38.9226 14.286 39.0267 13.8769 39.023 13.3807ZM56.4057 9.14773H54.633C54.5648 8.76894 54.4379 8.43561 54.2523 8.14773C54.0667 7.85985 53.8394 7.61553 53.5705 7.41477C53.3015 7.21401 53.0004 7.0625 52.667 6.96023C52.3375 6.85795 51.9871 6.80682 51.6159 6.80682C50.9455 6.80682 50.3451 6.97538 49.8148 7.3125C49.2883 7.64962 48.8716 8.14394 48.5648 8.79545C48.2617 9.44697 48.1102 10.2424 48.1102 11.1818C48.1102 12.1288 48.2617 12.928 48.5648 13.5795C48.8716 14.2311 49.2902 14.7235 49.8205 15.0568C50.3508 15.3902 50.9474 15.5568 51.6102 15.5568C51.9777 15.5568 52.3261 15.5076 52.6557 15.4091C52.989 15.3068 53.2902 15.1572 53.5591 14.9602C53.828 14.7633 54.0553 14.5227 54.2409 14.2386C54.4303 13.9508 54.561 13.6212 54.633 13.25L56.4057 13.2557C56.311 13.8277 56.1273 14.3542 55.8545 14.8352C55.5856 15.3125 55.239 15.7254 54.8148 16.0739C54.3943 16.4186 53.9133 16.6856 53.3716 16.875C52.8299 17.0644 52.239 17.1591 51.5989 17.1591C50.5913 17.1591 49.6936 16.9205 48.9057 16.4432C48.1178 15.9621 47.4966 15.2746 47.042 14.3807C46.5913 13.4867 46.3659 12.4205 46.3659 11.1818C46.3659 9.93939 46.5932 8.87311 47.0477 7.98295C47.5023 7.08901 48.1235 6.40341 48.9114 5.92614C49.6992 5.44508 50.5951 5.20455 51.5989 5.20455C52.2163 5.20455 52.792 5.29356 53.3261 5.47159C53.864 5.64583 54.347 5.90341 54.775 6.24432C55.203 6.58144 55.5572 6.99432 55.8375 7.48295C56.1178 7.9678 56.3072 8.52273 56.4057 9.14773ZM60.5899 17.1932C60.0369 17.1932 59.5369 17.0909 59.0899 16.8864C58.643 16.678 58.2888 16.3769 58.0274 15.983C57.7699 15.589 57.6411 15.1061 57.6411 14.5341C57.6411 14.0417 57.7358 13.6364 57.9252 13.3182C58.1146 13 58.3702 12.7481 58.6922 12.5625C59.0142 12.3769 59.374 12.2367 59.7718 12.142C60.1695 12.0473 60.5748 11.9754 60.9877 11.9261C61.5104 11.8655 61.9346 11.8163 62.2604 11.7784C62.5862 11.7367 62.8229 11.6705 62.9706 11.5795C63.1184 11.4886 63.1922 11.3409 63.1922 11.1364V11.0966C63.1922 10.6004 63.0521 10.2159 62.7718 9.94318C62.4952 9.67045 62.0824 9.53409 61.5331 9.53409C60.9612 9.53409 60.5104 9.66098 60.1809 9.91477C59.8551 10.1648 59.6297 10.4432 59.5047 10.75L57.9081 10.3864C58.0975 9.85606 58.374 9.42803 58.7377 9.10227C59.1051 8.77273 59.5274 8.53409 60.0047 8.38636C60.482 8.23485 60.9839 8.15909 61.5104 8.15909C61.8589 8.15909 62.2282 8.20076 62.6184 8.28409C63.0123 8.36364 63.3797 8.51136 63.7206 8.72727C64.0653 8.94318 64.3475 9.25189 64.5672 9.65341C64.7869 10.0511 64.8968 10.5682 64.8968 11.2045V17H63.2377V15.8068H63.1695C63.0596 16.0265 62.8949 16.2424 62.6752 16.4545C62.4555 16.6667 62.1733 16.8428 61.8286 16.983C61.4839 17.1231 61.071 17.1932 60.5899 17.1932ZM60.9593 15.8295C61.429 15.8295 61.8305 15.7367 62.1638 15.5511C62.5009 15.3655 62.7566 15.1231 62.9309 14.8239C63.1089 14.5208 63.1979 14.197 63.1979 13.8523V12.7273C63.1373 12.7879 63.0199 12.8447 62.8456 12.8977C62.6752 12.947 62.4801 12.9905 62.2604 13.0284C62.0407 13.0625 61.8267 13.0947 61.6184 13.125C61.41 13.1515 61.2358 13.1742 61.0956 13.1932C60.7661 13.2348 60.4649 13.3049 60.1922 13.4034C59.9233 13.5019 59.7074 13.6439 59.5445 13.8295C59.3854 14.0114 59.3059 14.2538 59.3059 14.5568C59.3059 14.9773 59.4612 15.2955 59.7718 15.5114C60.0824 15.7235 60.4782 15.8295 60.9593 15.8295ZM70.9134 8.27273V9.63636H66.1464V8.27273H70.9134ZM67.4248 6.18182H69.1236V14.4375C69.1236 14.767 69.1729 15.0152 69.2714 15.1818C69.3699 15.3447 69.4967 15.4564 69.652 15.517C69.8111 15.5739 69.9835 15.6023 70.1691 15.6023C70.3055 15.6023 70.4248 15.5928 70.527 15.5739C70.6293 15.5549 70.7089 15.5398 70.7657 15.5284L71.0725 16.9318C70.974 16.9697 70.8339 17.0076 70.652 17.0455C70.4702 17.0871 70.243 17.1098 69.9702 17.1136C69.5233 17.1212 69.1066 17.0417 68.7202 16.875C68.3339 16.7083 68.0214 16.4508 67.7827 16.1023C67.5441 15.7538 67.4248 15.3163 67.4248 14.7898V6.18182ZM76.1403 17.1761C75.2804 17.1761 74.5399 16.9924 73.9187 16.625C73.3013 16.2538 72.824 15.733 72.4869 15.0625C72.1535 14.3883 71.9869 13.5985 71.9869 12.6932C71.9869 11.7992 72.1535 11.0114 72.4869 10.3295C72.824 9.64773 73.2937 9.11553 73.896 8.73295C74.502 8.35038 75.2104 8.15909 76.021 8.15909C76.5134 8.15909 76.9907 8.24053 77.4528 8.40341C77.9149 8.56629 78.3297 8.82197 78.6971 9.17045C79.0645 9.51894 79.3543 9.97159 79.5664 10.5284C79.7785 11.0814 79.8846 11.7538 79.8846 12.5455V13.1477H72.9471V11.875H78.2198C78.2198 11.428 78.1289 11.0322 77.9471 10.6875C77.7653 10.339 77.5096 10.0644 77.1801 9.86364C76.8543 9.66288 76.4717 9.5625 76.0323 9.5625C75.5551 9.5625 75.1384 9.67992 74.7823 9.91477C74.4301 10.1458 74.1573 10.4489 73.9642 10.8239C73.7748 11.1951 73.6801 11.5985 73.6801 12.0341V13.0284C73.6801 13.6117 73.7823 14.108 73.9869 14.517C74.1952 14.9261 74.485 15.2386 74.8562 15.4545C75.2274 15.6667 75.6611 15.7727 76.1573 15.7727C76.4793 15.7727 76.7729 15.7273 77.038 15.6364C77.3032 15.5417 77.5323 15.4015 77.7255 15.2159C77.9187 15.0303 78.0664 14.8011 78.1687 14.5284L79.7767 14.8182C79.6479 15.2917 79.4168 15.7064 79.0835 16.0625C78.7539 16.4148 78.3392 16.6894 77.8392 16.8864C77.3429 17.0795 76.7767 17.1761 76.1403 17.1761ZM85.1086 20.4545C84.4155 20.4545 83.8189 20.3636 83.3189 20.1818C82.8227 20 82.4174 19.7595 82.103 19.4602C81.7886 19.161 81.5537 18.8333 81.3984 18.4773L82.8586 17.875C82.9609 18.0417 83.0973 18.2178 83.2677 18.4034C83.442 18.5928 83.6768 18.7538 83.9723 18.8864C84.2715 19.0189 84.656 19.0852 85.1257 19.0852C85.7696 19.0852 86.3018 18.928 86.7223 18.6136C87.1427 18.303 87.353 17.8068 87.353 17.125V15.4091H87.245C87.1427 15.5947 86.995 15.8011 86.8018 16.0284C86.6124 16.2557 86.3511 16.4527 86.0177 16.6193C85.6844 16.786 85.2507 16.8693 84.7166 16.8693C84.0272 16.8693 83.406 16.7083 82.853 16.3864C82.3037 16.0606 81.8681 15.5814 81.5461 14.9489C81.228 14.3125 81.0689 13.5303 81.0689 12.6023C81.0689 11.6742 81.2261 10.8788 81.5405 10.2159C81.8586 9.55303 82.2942 9.04545 82.8473 8.69318C83.4003 8.33712 84.0272 8.15909 84.728 8.15909C85.2696 8.15909 85.7071 8.25 86.0405 8.43182C86.3738 8.60985 86.6333 8.81818 86.8189 9.05682C87.0083 9.29545 87.1541 9.50568 87.2564 9.6875H87.3814V8.27273H89.0461V17.1932C89.0461 17.9432 88.8719 18.5587 88.5234 19.0398C88.1749 19.5208 87.7033 19.8769 87.1086 20.108C86.5177 20.339 85.8511 20.4545 85.1086 20.4545ZM85.0916 15.4602C85.5802 15.4602 85.9931 15.3466 86.3302 15.1193C86.6711 14.8883 86.9287 14.5587 87.103 14.1307C87.281 13.6989 87.37 13.1818 87.37 12.5795C87.37 11.9924 87.2829 11.4754 87.1086 11.0284C86.9344 10.5814 86.6787 10.233 86.3416 9.98295C86.0045 9.72917 85.5878 9.60227 85.0916 9.60227C84.5802 9.60227 84.1541 9.73485 83.8132 10C83.4723 10.2614 83.2147 10.6174 83.0405 11.0682C82.87 11.5189 82.7848 12.0227 82.7848 12.5795C82.7848 13.1515 82.8719 13.6534 83.0461 14.0852C83.2204 14.517 83.478 14.8542 83.8189 15.0966C84.1636 15.339 84.5878 15.4602 85.0916 15.4602ZM94.6807 17.1761C93.8625 17.1761 93.1485 16.9886 92.5386 16.6136C91.9288 16.2386 91.4553 15.714 91.1182 15.0398C90.7811 14.3655 90.6125 13.5777 90.6125 12.6761C90.6125 11.7708 90.7811 10.9792 91.1182 10.3011C91.4553 9.62311 91.9288 9.09659 92.5386 8.72159C93.1485 8.34659 93.8625 8.15909 94.6807 8.15909C95.4989 8.15909 96.2129 8.34659 96.8227 8.72159C97.4326 9.09659 97.9061 9.62311 98.2432 10.3011C98.5803 10.9792 98.7489 11.7708 98.7489 12.6761C98.7489 13.5777 98.5803 14.3655 98.2432 15.0398C97.9061 15.714 97.4326 16.2386 96.8227 16.6136C96.2129 16.9886 95.4989 17.1761 94.6807 17.1761ZM94.6864 15.75C95.2167 15.75 95.6561 15.6098 96.0045 15.3295C96.353 15.0492 96.6106 14.6761 96.7773 14.2102C96.9477 13.7443 97.033 13.2311 97.033 12.6705C97.033 12.1136 96.9477 11.6023 96.7773 11.1364C96.6106 10.6667 96.353 10.2898 96.0045 10.0057C95.6561 9.72159 95.2167 9.57955 94.6864 9.57955C94.1523 9.57955 93.7091 9.72159 93.3568 10.0057C93.0083 10.2898 92.7489 10.6667 92.5784 11.1364C92.4117 11.6023 92.3284 12.1136 92.3284 12.6705C92.3284 13.2311 92.4117 13.7443 92.5784 14.2102C92.7489 14.6761 93.0083 15.0492 93.3568 15.3295C93.7091 15.6098 94.1523 15.75 94.6864 15.75ZM100.325 17V8.27273H101.967V9.65909H102.058C102.217 9.18939 102.498 8.82008 102.899 8.55114C103.304 8.27841 103.763 8.14205 104.274 8.14205C104.38 8.14205 104.505 8.14583 104.649 8.15341C104.797 8.16098 104.912 8.17045 104.996 8.18182V9.80682C104.927 9.78788 104.806 9.76705 104.632 9.74432C104.458 9.7178 104.284 9.70455 104.109 9.70455C103.708 9.70455 103.35 9.78977 103.035 9.96023C102.725 10.1269 102.479 10.3598 102.297 10.6591C102.115 10.9545 102.024 11.2917 102.024 11.6705V17H100.325ZM106.146 17V8.27273H107.845V17H106.146ZM107.004 6.92614C106.708 6.92614 106.455 6.82765 106.242 6.63068C106.034 6.42992 105.93 6.19129 105.93 5.91477C105.93 5.63447 106.034 5.39583 106.242 5.19886C106.455 4.99811 106.708 4.89773 107.004 4.89773C107.299 4.89773 107.551 4.99811 107.759 5.19886C107.972 5.39583 108.078 5.63447 108.078 5.91477C108.078 6.19129 107.972 6.42992 107.759 6.63068C107.551 6.82765 107.299 6.92614 107.004 6.92614ZM113.572 17.1761C112.712 17.1761 111.971 16.9924 111.35 16.625C110.733 16.2538 110.255 15.733 109.918 15.0625C109.585 14.3883 109.418 13.5985 109.418 12.6932C109.418 11.7992 109.585 11.0114 109.918 10.3295C110.255 9.64773 110.725 9.11553 111.327 8.73295C111.933 8.35038 112.642 8.15909 113.452 8.15909C113.945 8.15909 114.422 8.24053 114.884 8.40341C115.346 8.56629 115.761 8.82197 116.128 9.17045C116.496 9.51894 116.786 9.97159 116.998 10.5284C117.21 11.0814 117.316 11.7538 117.316 12.5455V13.1477H110.378V11.875H115.651C115.651 11.428 115.56 11.0322 115.378 10.6875C115.197 10.339 114.941 10.0644 114.611 9.86364C114.286 9.66288 113.903 9.5625 113.464 9.5625C112.986 9.5625 112.57 9.67992 112.214 9.91477C111.861 10.1458 111.589 10.4489 111.395 10.8239C111.206 11.1951 111.111 11.5985 111.111 12.0341V13.0284C111.111 13.6117 111.214 14.108 111.418 14.517C111.626 14.9261 111.916 15.2386 112.287 15.4545C112.659 15.6667 113.092 15.7727 113.589 15.7727C113.911 15.7727 114.204 15.7273 114.469 15.6364C114.734 15.5417 114.964 15.4015 115.157 15.2159C115.35 15.0303 115.498 14.8011 115.6 14.5284L117.208 14.8182C117.079 15.2917 116.848 15.7064 116.515 16.0625C116.185 16.4148 115.77 16.6894 115.27 16.8864C114.774 17.0795 114.208 17.1761 113.572 17.1761ZM125.421 10.4034L123.881 10.6761C123.816 10.4792 123.714 10.2917 123.574 10.1136C123.438 9.93561 123.252 9.78977 123.017 9.67614C122.782 9.5625 122.489 9.50568 122.136 9.50568C121.655 9.50568 121.254 9.61364 120.932 9.82955C120.61 10.0417 120.449 10.3163 120.449 10.6534C120.449 10.9451 120.557 11.1799 120.773 11.358C120.989 11.536 121.337 11.6818 121.818 11.7955L123.205 12.1136C124.008 12.2992 124.606 12.5852 125 12.9716C125.394 13.358 125.591 13.8598 125.591 14.4773C125.591 15 125.44 15.4659 125.136 15.875C124.837 16.2803 124.419 16.5985 123.881 16.8295C123.347 17.0606 122.727 17.1761 122.023 17.1761C121.046 17.1761 120.248 16.9678 119.631 16.5511C119.013 16.1307 118.635 15.5341 118.494 14.7614L120.136 14.5114C120.239 14.9394 120.449 15.2633 120.767 15.483C121.085 15.6989 121.5 15.8068 122.011 15.8068C122.568 15.8068 123.013 15.6913 123.347 15.4602C123.68 15.2254 123.847 14.9394 123.847 14.6023C123.847 14.3295 123.744 14.1004 123.54 13.9148C123.339 13.7292 123.03 13.589 122.614 13.4943L121.136 13.1705C120.322 12.9848 119.72 12.6894 119.33 12.2841C118.943 11.8788 118.75 11.3655 118.75 10.7443C118.75 10.2292 118.894 9.77841 119.182 9.39205C119.47 9.00568 119.868 8.70455 120.375 8.48864C120.883 8.26894 121.464 8.15909 122.119 8.15909C123.063 8.15909 123.805 8.36364 124.347 8.77273C124.888 9.17803 125.246 9.72159 125.421 10.4034Z" fill="black"/>
<rect x="8" y="32" width="110" height="36" rx="4" fill="#FF7A18"/>
<path d="M34.4759 56V44.3636H38.8395C39.7334 44.3636 40.4834 44.5303 41.0895 44.8636C41.6993 45.197 42.1596 45.6553 42.4702 46.2386C42.7846 46.8182 42.9418 47.4773 42.9418 48.2159C42.9418 48.9621 42.7846 49.625 42.4702 50.2045C42.1558 50.7841 41.6918 51.2405 41.0781 51.5739C40.4645 51.9034 39.7088 52.0682 38.8111 52.0682H35.919V50.3352H38.527C39.0497 50.3352 39.4777 50.2443 39.8111 50.0625C40.1444 49.8807 40.3906 49.6307 40.5497 49.3125C40.7126 48.9943 40.794 48.6288 40.794 48.2159C40.794 47.803 40.7126 47.4394 40.5497 47.125C40.3906 46.8106 40.1425 46.5663 39.8054 46.392C39.4721 46.214 39.0421 46.125 38.5156 46.125H36.5838V56H34.4759ZM48.3636 56.1705C47.5114 56.1705 46.7727 55.983 46.1477 55.608C45.5227 55.233 45.0379 54.7083 44.6932 54.0341C44.3523 53.3598 44.1818 52.572 44.1818 51.6705C44.1818 50.7689 44.3523 49.9792 44.6932 49.3011C45.0379 48.6231 45.5227 48.0966 46.1477 47.7216C46.7727 47.3466 47.5114 47.1591 48.3636 47.1591C49.2159 47.1591 49.9545 47.3466 50.5795 47.7216C51.2045 48.0966 51.6875 48.6231 52.0284 49.3011C52.3731 49.9792 52.5455 50.7689 52.5455 51.6705C52.5455 52.572 52.3731 53.3598 52.0284 54.0341C51.6875 54.7083 51.2045 55.233 50.5795 55.608C49.9545 55.983 49.2159 56.1705 48.3636 56.1705ZM48.375 54.5227C48.8371 54.5227 49.2235 54.3958 49.5341 54.142C49.8447 53.8845 50.0758 53.5398 50.2273 53.108C50.3826 52.6761 50.4602 52.1951 50.4602 51.6648C50.4602 51.1307 50.3826 50.6477 50.2273 50.2159C50.0758 49.7803 49.8447 49.4337 49.5341 49.1761C49.2235 48.9186 48.8371 48.7898 48.375 48.7898C47.9015 48.7898 47.5076 48.9186 47.1932 49.1761C46.8826 49.4337 46.6496 49.7803 46.4943 50.2159C46.3428 50.6477 46.267 51.1307 46.267 51.6648C46.267 52.1951 46.3428 52.6761 46.4943 53.108C46.6496 53.5398 46.8826 53.8845 47.1932 54.142C47.5076 54.3958 47.9015 54.5227 48.375 54.5227ZM54.2912 59.2727V47.2727H56.3139V48.7159H56.4332C56.5393 48.5038 56.6889 48.2784 56.8821 48.0398C57.0753 47.7973 57.3366 47.5909 57.6662 47.4205C57.9957 47.2462 58.4162 47.1591 58.9276 47.1591C59.6018 47.1591 60.2098 47.3314 60.7514 47.6761C61.2969 48.017 61.7287 48.5227 62.0469 49.1932C62.3688 49.8598 62.5298 50.678 62.5298 51.6477C62.5298 52.6061 62.3726 53.4205 62.0582 54.0909C61.7438 54.7614 61.3158 55.2727 60.7741 55.625C60.2325 55.9773 59.6188 56.1534 58.9332 56.1534C58.4332 56.1534 58.0185 56.0701 57.6889 55.9034C57.3594 55.7367 57.0942 55.536 56.8935 55.3011C56.6965 55.0625 56.5431 54.8371 56.4332 54.625H56.348V59.2727H54.2912ZM56.3082 51.6364C56.3082 52.2008 56.3878 52.6951 56.5469 53.1193C56.7098 53.5436 56.9427 53.875 57.2457 54.1136C57.5526 54.3485 57.9238 54.4659 58.3594 54.4659C58.8139 54.4659 59.1946 54.3447 59.5014 54.1023C59.8082 53.8561 60.0393 53.5208 60.1946 53.0966C60.3537 52.6686 60.4332 52.1818 60.4332 51.6364C60.4332 51.0947 60.3556 50.6136 60.2003 50.1932C60.045 49.7727 59.8139 49.4432 59.5071 49.2045C59.2003 48.9659 58.8177 48.8466 58.3594 48.8466C57.92 48.8466 57.5469 48.9621 57.2401 49.1932C56.9332 49.4242 56.7003 49.7481 56.5412 50.1648C56.3859 50.5814 56.3082 51.072 56.3082 51.6364ZM69.8537 52.3295V47.2727H71.9105V56H69.9162V54.4489H69.8253C69.6283 54.9375 69.3045 55.3371 68.8537 55.6477C68.4067 55.9583 67.8556 56.1136 67.2003 56.1136C66.6283 56.1136 66.1226 55.9867 65.6832 55.733C65.2476 55.4754 64.9067 55.1023 64.6605 54.6136C64.4143 54.1212 64.2912 53.5265 64.2912 52.8295V47.2727H66.348V52.5114C66.348 53.0644 66.4995 53.5038 66.8026 53.8295C67.1056 54.1553 67.5033 54.3182 67.9957 54.3182C68.2988 54.3182 68.5923 54.2443 68.8764 54.0966C69.1605 53.9489 69.3935 53.7292 69.5753 53.4375C69.7609 53.142 69.8537 52.7727 69.8537 52.3295ZM76.0824 44.3636V56H74.0256V44.3636H76.0824ZM80.7088 56.1761C80.1558 56.1761 79.6577 56.0777 79.2145 55.8807C78.7751 55.6799 78.4266 55.3845 78.169 54.9943C77.9152 54.6042 77.7884 54.1231 77.7884 53.5511C77.7884 53.0587 77.8793 52.6515 78.0611 52.3295C78.2429 52.0076 78.491 51.75 78.8054 51.5568C79.1198 51.3636 79.474 51.2178 79.8679 51.1193C80.2656 51.017 80.6766 50.9432 81.1009 50.8977C81.6122 50.8447 82.027 50.7973 82.3452 50.7557C82.6634 50.7102 82.8944 50.642 83.0384 50.5511C83.1861 50.4564 83.2599 50.3106 83.2599 50.1136V50.0795C83.2599 49.6515 83.133 49.3201 82.8793 49.0852C82.6255 48.8504 82.2599 48.733 81.7827 48.733C81.2789 48.733 80.8793 48.8428 80.5838 49.0625C80.2921 49.2822 80.0952 49.5417 79.9929 49.8409L78.0724 49.5682C78.224 49.0379 78.474 48.5947 78.8224 48.2386C79.1709 47.8788 79.5971 47.6098 80.1009 47.4318C80.6046 47.25 81.1615 47.1591 81.7713 47.1591C82.1918 47.1591 82.6103 47.2083 83.027 47.3068C83.4437 47.4053 83.8243 47.5682 84.169 47.7955C84.5137 48.0189 84.7902 48.3239 84.9986 48.7102C85.2107 49.0966 85.3168 49.5795 85.3168 50.1591V56H83.3395V54.8011H83.2713C83.1463 55.0436 82.9702 55.2708 82.7429 55.483C82.5194 55.6913 82.2372 55.8598 81.8963 55.9886C81.5592 56.1136 81.1634 56.1761 80.7088 56.1761ZM81.2429 54.6648C81.6558 54.6648 82.0137 54.5833 82.3168 54.4205C82.6198 54.2538 82.8527 54.0341 83.0156 53.7614C83.1823 53.4886 83.2656 53.1913 83.2656 52.8693V51.8409C83.2012 51.8939 83.0914 51.9432 82.9361 51.9886C82.7846 52.0341 82.6141 52.0739 82.4247 52.108C82.2353 52.142 82.0478 52.1723 81.8622 52.1989C81.6766 52.2254 81.5156 52.2481 81.3793 52.267C81.0724 52.3087 80.7978 52.3769 80.5554 52.4716C80.313 52.5663 80.1217 52.6989 79.9815 52.8693C79.8414 53.036 79.7713 53.2519 79.7713 53.517C79.7713 53.8958 79.9096 54.1818 80.1861 54.375C80.4626 54.5682 80.8149 54.6648 81.2429 54.6648ZM87.3849 56V47.2727H89.3793V48.7273H89.4702C89.6293 48.2235 89.902 47.8352 90.2884 47.5625C90.6785 47.286 91.1236 47.1477 91.6236 47.1477C91.7372 47.1477 91.8641 47.1534 92.0043 47.1648C92.1482 47.1723 92.2675 47.1856 92.3622 47.2045V49.0966C92.2751 49.0663 92.1368 49.0398 91.9474 49.017C91.7618 48.9905 91.5819 48.9773 91.4077 48.9773C91.0327 48.9773 90.6955 49.0587 90.3963 49.2216C90.1009 49.3807 89.8679 49.6023 89.6974 49.8864C89.527 50.1705 89.4418 50.4981 89.4418 50.8693V56H87.3849Z" fill="white"/>
<rect x="128.5" y="32.5" width="109" height="35" rx="3.5" stroke="#BDBDBD"/>
<path d="M148.7 44.3636H150.79V52.5455C150.787 53.2955 150.628 53.9413 150.313 54.483C149.999 55.0208 149.559 55.4356 148.995 55.7273C148.434 56.0152 147.781 56.1591 147.035 56.1591C146.353 56.1591 145.739 56.0379 145.194 55.7955C144.652 55.5492 144.222 55.1856 143.904 54.7045C143.586 54.2235 143.427 53.625 143.427 52.9091H145.523C145.527 53.2235 145.595 53.4943 145.728 53.7216C145.864 53.9489 146.052 54.1231 146.29 54.2443C146.529 54.3655 146.804 54.4261 147.114 54.4261C147.451 54.4261 147.737 54.3561 147.972 54.2159C148.207 54.072 148.385 53.8598 148.506 53.5795C148.631 53.2992 148.696 52.9545 148.7 52.5455V44.3636ZM156.793 56.1705C155.941 56.1705 155.202 55.983 154.577 55.608C153.952 55.233 153.468 54.7083 153.123 54.0341C152.782 53.3598 152.612 52.572 152.612 51.6705C152.612 50.7689 152.782 49.9792 153.123 49.3011C153.468 48.6231 153.952 48.0966 154.577 47.7216C155.202 47.3466 155.941 47.1591 156.793 47.1591C157.646 47.1591 158.384 47.3466 159.009 47.7216C159.634 48.0966 160.117 48.6231 160.458 49.3011C160.803 49.9792 160.975 50.7689 160.975 51.6705C160.975 52.572 160.803 53.3598 160.458 54.0341C160.117 54.7083 159.634 55.233 159.009 55.608C158.384 55.983 157.646 56.1705 156.793 56.1705ZM156.805 54.5227C157.267 54.5227 157.653 54.3958 157.964 54.142C158.274 53.8845 158.505 53.5398 158.657 53.108C158.812 52.6761 158.89 52.1951 158.89 51.6648C158.89 51.1307 158.812 50.6477 158.657 50.2159C158.505 49.7803 158.274 49.4337 157.964 49.1761C157.653 48.9186 157.267 48.7898 156.805 48.7898C156.331 48.7898 155.937 48.9186 155.623 49.1761C155.312 49.4337 155.079 49.7803 154.924 50.2159C154.772 50.6477 154.697 51.1307 154.697 51.6648C154.697 52.1951 154.772 52.6761 154.924 53.108C155.079 53.5398 155.312 53.8845 155.623 54.142C155.937 54.3958 156.331 54.5227 156.805 54.5227ZM164.778 44.3636V56H162.721V44.3636H164.778ZM168.95 44.3636V56H166.893V44.3636H168.95ZM174.871 56.1705C174.019 56.1705 173.281 55.983 172.656 55.608C172.031 55.233 171.546 54.7083 171.201 54.0341C170.86 53.3598 170.69 52.572 170.69 51.6705C170.69 50.7689 170.86 49.9792 171.201 49.3011C171.546 48.6231 172.031 48.0966 172.656 47.7216C173.281 47.3466 174.019 47.1591 174.871 47.1591C175.724 47.1591 176.462 47.3466 177.087 47.7216C177.712 48.0966 178.195 48.6231 178.536 49.3011C178.881 49.9792 179.053 50.7689 179.053 51.6705C179.053 52.572 178.881 53.3598 178.536 54.0341C178.195 54.7083 177.712 55.233 177.087 55.608C176.462 55.983 175.724 56.1705 174.871 56.1705ZM174.883 54.5227C175.345 54.5227 175.731 54.3958 176.042 54.142C176.353 53.8845 176.584 53.5398 176.735 53.108C176.89 52.6761 176.968 52.1951 176.968 51.6648C176.968 51.1307 176.89 50.6477 176.735 50.2159C176.584 49.7803 176.353 49.4337 176.042 49.1761C175.731 48.9186 175.345 48.7898 174.883 48.7898C174.409 48.7898 174.015 48.9186 173.701 49.1761C173.39 49.4337 173.157 49.7803 173.002 50.2159C172.851 50.6477 172.775 51.1307 172.775 51.6648C172.775 52.1951 172.851 52.6761 173.002 53.108C173.157 53.5398 173.39 53.8845 173.701 54.142C174.015 54.3958 174.409 54.5227 174.883 54.5227ZM185.219 47.2727V48.8636H180.06V47.2727H185.219ZM181.35 56V46.4489C181.35 45.8617 181.471 45.3731 181.714 44.983C181.96 44.5928 182.29 44.3011 182.702 44.108C183.115 43.9148 183.574 43.8182 184.077 43.8182C184.433 43.8182 184.75 43.8466 185.026 43.9034C185.303 43.9602 185.507 44.0114 185.64 44.0568L185.231 45.6477C185.144 45.6212 185.034 45.5947 184.901 45.5682C184.769 45.5379 184.621 45.5227 184.458 45.5227C184.076 45.5227 183.805 45.6155 183.646 45.8011C183.49 45.983 183.413 46.2443 183.413 46.5852V56H181.35ZM190.89 56V44.3636H195.254C196.147 44.3636 196.897 44.5189 197.504 44.8295C198.113 45.1402 198.574 45.5758 198.884 46.1364C199.199 46.6932 199.356 47.3428 199.356 48.0852C199.356 48.8314 199.197 49.4792 198.879 50.0284C198.564 50.5739 198.1 50.9962 197.487 51.2955C196.873 51.5909 196.119 51.7386 195.225 51.7386H192.117V49.9886H194.941C195.464 49.9886 195.892 49.9167 196.225 49.7727C196.558 49.625 196.805 49.411 196.964 49.1307C197.127 48.8466 197.208 48.4981 197.208 48.0852C197.208 47.6723 197.127 47.3201 196.964 47.0284C196.801 46.733 196.553 46.5095 196.219 46.358C195.886 46.2027 195.456 46.125 194.93 46.125H192.998V56H190.89ZM196.901 50.7273L199.782 56H197.43L194.6 50.7273H196.901ZM201.205 56V47.2727H203.262V56H201.205ZM202.239 46.0341C201.914 46.0341 201.633 45.9261 201.398 45.7102C201.164 45.4905 201.046 45.2273 201.046 44.9205C201.046 44.6098 201.164 44.3466 201.398 44.1307C201.633 43.911 201.914 43.8011 202.239 43.8011C202.569 43.8011 202.849 43.911 203.08 44.1307C203.315 44.3466 203.433 44.6098 203.433 44.9205C203.433 45.2273 203.315 45.4905 203.08 45.7102C202.849 45.9261 202.569 46.0341 202.239 46.0341ZM209.184 56.1705C208.313 56.1705 207.565 55.9792 206.94 55.5966C206.318 55.214 205.839 54.6856 205.502 54.0114C205.169 53.3333 205.002 52.553 205.002 51.6705C205.002 50.7841 205.173 50.0019 205.513 49.3239C205.854 48.642 206.335 48.1117 206.957 47.733C207.582 47.3504 208.32 47.1591 209.173 47.1591C209.881 47.1591 210.508 47.2898 211.053 47.5511C211.603 47.8087 212.04 48.1742 212.366 48.6477C212.692 49.1174 212.877 49.6667 212.923 50.2955H210.957C210.877 49.875 210.688 49.5246 210.388 49.2443C210.093 48.9602 209.697 48.8182 209.201 48.8182C208.781 48.8182 208.411 48.9318 208.093 49.1591C207.775 49.3826 207.527 49.7045 207.349 50.125C207.174 50.5455 207.087 51.0492 207.087 51.6364C207.087 52.2311 207.174 52.7424 207.349 53.1705C207.523 53.5947 207.767 53.9223 208.082 54.1534C208.4 54.3807 208.773 54.4943 209.201 54.4943C209.504 54.4943 209.775 54.4375 210.013 54.3239C210.256 54.2064 210.459 54.0379 210.621 53.8182C210.784 53.5985 210.896 53.3314 210.957 53.017H212.923C212.873 53.6345 212.692 54.1818 212.377 54.6591C212.063 55.1326 211.635 55.5038 211.093 55.7727C210.551 56.0379 209.915 56.1705 209.184 56.1705ZM218.475 56.1705C217.6 56.1705 216.844 55.9886 216.208 55.625C215.576 55.2576 215.089 54.7386 214.748 54.0682C214.407 53.3939 214.237 52.6004 214.237 51.6875C214.237 50.7898 214.407 50.0019 214.748 49.3239C215.093 48.642 215.574 48.1117 216.191 47.733C216.808 47.3504 217.534 47.1591 218.367 47.1591C218.905 47.1591 219.413 47.2462 219.89 47.4205C220.371 47.5909 220.795 47.8561 221.163 48.2159C221.534 48.5758 221.826 49.0341 222.038 49.5909C222.25 50.1439 222.356 50.803 222.356 51.5682V52.1989H215.202V50.8125H220.384C220.38 50.4186 220.295 50.0682 220.129 49.7614C219.962 49.4508 219.729 49.2064 219.43 49.0284C219.134 48.8504 218.79 48.7614 218.396 48.7614C217.975 48.7614 217.606 48.8636 217.288 49.0682C216.969 49.2689 216.721 49.5341 216.543 49.8636C216.369 50.1894 216.28 50.5473 216.276 50.9375V52.1477C216.276 52.6553 216.369 53.0909 216.555 53.4545C216.74 53.8144 217 54.0909 217.333 54.2841C217.666 54.4735 218.057 54.5682 218.504 54.5682C218.803 54.5682 219.074 54.5265 219.316 54.4432C219.558 54.3561 219.769 54.2292 219.947 54.0625C220.125 53.8958 220.259 53.6894 220.35 53.4432L222.271 53.6591C222.149 54.1667 221.918 54.6098 221.577 54.9886C221.24 55.3636 220.808 55.6553 220.282 55.8636C219.755 56.0682 219.153 56.1705 218.475 56.1705Z" fill="#1F2937"/>
<rect x="248.5" y="32.5" width="77" height="35" rx="3.5" stroke="#BDBDBD"/>
<path d="M274.542 47.5625C274.489 47.0663 274.265 46.6799 273.871 46.4034C273.481 46.1269 272.974 45.9886 272.349 45.9886C271.909 45.9886 271.532 46.0549 271.218 46.1875C270.904 46.3201 270.663 46.5 270.496 46.7273C270.33 46.9545 270.245 47.214 270.241 47.5057C270.241 47.7481 270.296 47.9583 270.406 48.1364C270.519 48.3144 270.673 48.4659 270.866 48.5909C271.059 48.7121 271.273 48.8144 271.508 48.8977C271.743 48.9811 271.979 49.0511 272.218 49.108L273.309 49.3807C273.748 49.483 274.171 49.6212 274.576 49.7955C274.985 49.9697 275.351 50.1894 275.673 50.4545C275.998 50.7197 276.256 51.0398 276.445 51.4148C276.635 51.7898 276.729 52.2292 276.729 52.733C276.729 53.4148 276.555 54.0152 276.207 54.5341C275.858 55.0492 275.354 55.4527 274.695 55.7443C274.04 56.0322 273.246 56.1761 272.315 56.1761C271.409 56.1761 270.623 56.036 269.957 55.7557C269.294 55.4754 268.775 55.0663 268.4 54.5284C268.029 53.9905 267.828 53.3352 267.798 52.5625H269.871C269.902 52.9678 270.027 53.3049 270.246 53.5739C270.466 53.8428 270.752 54.0436 271.104 54.1761C271.46 54.3087 271.858 54.375 272.298 54.375C272.756 54.375 273.157 54.3068 273.502 54.1705C273.851 54.0303 274.123 53.8371 274.32 53.5909C274.517 53.3409 274.618 53.0492 274.621 52.7159C274.618 52.4129 274.529 52.1629 274.354 51.9659C274.18 51.7652 273.936 51.5985 273.621 51.4659C273.311 51.3295 272.947 51.2083 272.531 51.1023L271.207 50.7614C270.248 50.5152 269.491 50.142 268.934 49.642C268.381 49.1383 268.104 48.4697 268.104 47.6364C268.104 46.9508 268.29 46.3504 268.661 45.8352C269.036 45.3201 269.546 44.9205 270.19 44.6364C270.834 44.3485 271.563 44.2045 272.377 44.2045C273.203 44.2045 273.926 44.3485 274.548 44.6364C275.173 44.9205 275.663 45.3163 276.019 45.8239C276.375 46.3277 276.559 46.9072 276.57 47.5625H274.542ZM282.325 56.1705C281.472 56.1705 280.734 55.983 280.109 55.608C279.484 55.233 278.999 54.7083 278.654 54.0341C278.313 53.3598 278.143 52.572 278.143 51.6705C278.143 50.7689 278.313 49.9792 278.654 49.3011C278.999 48.6231 279.484 48.0966 280.109 47.7216C280.734 47.3466 281.472 47.1591 282.325 47.1591C283.177 47.1591 283.915 47.3466 284.54 47.7216C285.165 48.0966 285.648 48.6231 285.989 49.3011C286.334 49.9792 286.506 50.7689 286.506 51.6705C286.506 52.572 286.334 53.3598 285.989 54.0341C285.648 54.7083 285.165 55.233 284.54 55.608C283.915 55.983 283.177 56.1705 282.325 56.1705ZM282.336 54.5227C282.798 54.5227 283.184 54.3958 283.495 54.142C283.806 53.8845 284.037 53.5398 284.188 53.108C284.344 52.6761 284.421 52.1951 284.421 51.6648C284.421 51.1307 284.344 50.6477 284.188 50.2159C284.037 49.7803 283.806 49.4337 283.495 49.1761C283.184 48.9186 282.798 48.7898 282.336 48.7898C281.862 48.7898 281.469 48.9186 281.154 49.1761C280.844 49.4337 280.611 49.7803 280.455 50.2159C280.304 50.6477 280.228 51.1307 280.228 51.6648C280.228 52.1951 280.304 52.6761 280.455 53.108C280.611 53.5398 280.844 53.8845 281.154 54.142C281.469 54.3958 281.862 54.5227 282.336 54.5227ZM293.815 52.3295V47.2727H295.871V56H293.877V54.4489H293.786C293.589 54.9375 293.265 55.3371 292.815 55.6477C292.368 55.9583 291.817 56.1136 291.161 56.1136C290.589 56.1136 290.084 55.9867 289.644 55.733C289.209 55.4754 288.868 55.1023 288.621 54.6136C288.375 54.1212 288.252 53.5265 288.252 52.8295V47.2727H290.309V52.5114C290.309 53.0644 290.46 53.5038 290.763 53.8295C291.067 54.1553 291.464 54.3182 291.957 54.3182C292.26 54.3182 292.553 54.2443 292.837 54.0966C293.121 53.9489 293.354 53.7292 293.536 53.4375C293.722 53.142 293.815 52.7727 293.815 52.3295ZM297.987 59.2727V47.2727H300.009V48.7159H300.129C300.235 48.5038 300.384 48.2784 300.577 48.0398C300.771 47.7973 301.032 47.5909 301.362 47.4205C301.691 47.2462 302.112 47.1591 302.623 47.1591C303.297 47.1591 303.905 47.3314 304.447 47.6761C304.992 48.017 305.424 48.5227 305.742 49.1932C306.064 49.8598 306.225 50.678 306.225 51.6477C306.225 52.6061 306.068 53.4205 305.754 54.0909C305.439 54.7614 305.011 55.2727 304.469 55.625C303.928 55.9773 303.314 56.1534 302.629 56.1534C302.129 56.1534 301.714 56.0701 301.384 55.9034C301.055 55.7367 300.79 55.536 300.589 55.3011C300.392 55.0625 300.238 54.8371 300.129 54.625H300.043V59.2727H297.987ZM300.004 51.6364C300.004 52.2008 300.083 52.6951 300.242 53.1193C300.405 53.5436 300.638 53.875 300.941 54.1136C301.248 54.3485 301.619 54.4659 302.055 54.4659C302.509 54.4659 302.89 54.3447 303.197 54.1023C303.504 53.8561 303.735 53.5208 303.89 53.0966C304.049 52.6686 304.129 52.1818 304.129 51.6364C304.129 51.0947 304.051 50.6136 303.896 50.1932C303.74 49.7727 303.509 49.4432 303.202 49.2045C302.896 48.9659 302.513 48.8466 302.055 48.8466C301.615 48.8466 301.242 48.9621 300.935 49.1932C300.629 49.4242 300.396 49.7481 300.237 50.1648C300.081 50.5814 300.004 51.072 300.004 51.6364Z" fill="#1F2937"/>
<rect x="336.5" y="32.5" width="109" height="35" rx="3.5" stroke="#BDBDBD"/>
<path d="M351.268 47.5625C351.215 47.0663 350.992 46.6799 350.598 46.4034C350.208 46.1269 349.7 45.9886 349.075 45.9886C348.636 45.9886 348.259 46.0549 347.945 46.1875C347.63 46.3201 347.39 46.5 347.223 46.7273C347.056 46.9545 346.971 47.214 346.967 47.5057C346.967 47.7481 347.022 47.9583 347.132 48.1364C347.246 48.3144 347.399 48.4659 347.592 48.5909C347.786 48.7121 348 48.8144 348.234 48.8977C348.469 48.9811 348.706 49.0511 348.945 49.108L350.036 49.3807C350.475 49.483 350.897 49.6212 351.303 49.7955C351.712 49.9697 352.077 50.1894 352.399 50.4545C352.725 50.7197 352.982 51.0398 353.172 51.4148C353.361 51.7898 353.456 52.2292 353.456 52.733C353.456 53.4148 353.282 54.0152 352.933 54.5341C352.585 55.0492 352.081 55.4527 351.422 55.7443C350.767 56.0322 349.973 56.1761 349.041 56.1761C348.136 56.1761 347.35 56.036 346.683 55.7557C346.02 55.4754 345.501 55.0663 345.126 54.5284C344.755 53.9905 344.554 53.3352 344.524 52.5625H346.598C346.628 52.9678 346.753 53.3049 346.973 53.5739C347.193 53.8428 347.479 54.0436 347.831 54.1761C348.187 54.3087 348.585 54.375 349.024 54.375C349.482 54.375 349.884 54.3068 350.229 54.1705C350.577 54.0303 350.85 53.8371 351.047 53.5909C351.244 53.3409 351.344 53.0492 351.348 52.7159C351.344 52.4129 351.255 52.1629 351.081 51.9659C350.907 51.7652 350.662 51.5985 350.348 51.4659C350.037 51.3295 349.674 51.2083 349.257 51.1023L347.933 50.7614C346.975 50.5152 346.217 50.142 345.661 49.642C345.107 49.1383 344.831 48.4697 344.831 47.6364C344.831 46.9508 345.017 46.3504 345.388 45.8352C345.763 45.3201 346.272 44.9205 346.916 44.6364C347.56 44.3485 348.289 44.2045 349.104 44.2045C349.929 44.2045 350.653 44.3485 351.274 44.6364C351.899 44.9205 352.39 45.3163 352.746 45.8239C353.102 46.3277 353.286 46.9072 353.297 47.5625H351.268ZM357.045 56L354.58 47.2727H356.676L358.21 53.4091H358.29L359.858 47.2727H361.932L363.5 53.375H363.585L365.097 47.2727H367.199L364.727 56H362.585L360.949 50.1023H360.83L359.193 56H357.045ZM371.146 56.1761C370.593 56.1761 370.095 56.0777 369.652 55.8807C369.213 55.6799 368.864 55.3845 368.607 54.9943C368.353 54.6042 368.226 54.1231 368.226 53.5511C368.226 53.0587 368.317 52.6515 368.499 52.3295C368.68 52.0076 368.929 51.75 369.243 51.5568C369.557 51.3636 369.911 51.2178 370.305 51.1193C370.703 51.017 371.114 50.9432 371.538 50.8977C372.05 50.8447 372.464 50.7973 372.783 50.7557C373.101 50.7102 373.332 50.642 373.476 50.5511C373.624 50.4564 373.697 50.3106 373.697 50.1136V50.0795C373.697 49.6515 373.571 49.3201 373.317 49.0852C373.063 48.8504 372.697 48.733 372.22 48.733C371.716 48.733 371.317 48.8428 371.021 49.0625C370.73 49.2822 370.533 49.5417 370.43 49.8409L368.51 49.5682C368.661 49.0379 368.911 48.5947 369.26 48.2386C369.608 47.8788 370.035 47.6098 370.538 47.4318C371.042 47.25 371.599 47.1591 372.209 47.1591C372.629 47.1591 373.048 47.2083 373.464 47.3068C373.881 47.4053 374.262 47.5682 374.607 47.7955C374.951 48.0189 375.228 48.3239 375.436 48.7102C375.648 49.0966 375.754 49.5795 375.754 50.1591V56H373.777V54.8011H373.709C373.584 55.0436 373.408 55.2708 373.18 55.483C372.957 55.6913 372.675 55.8598 372.334 55.9886C371.997 56.1136 371.601 56.1761 371.146 56.1761ZM371.68 54.6648C372.093 54.6648 372.451 54.5833 372.754 54.4205C373.057 54.2538 373.29 54.0341 373.453 53.7614C373.62 53.4886 373.703 53.1913 373.703 52.8693V51.8409C373.639 51.8939 373.529 51.9432 373.374 51.9886C373.222 52.0341 373.052 52.0739 372.862 52.108C372.673 52.142 372.485 52.1723 372.3 52.1989C372.114 52.2254 371.953 52.2481 371.817 52.267C371.51 52.3087 371.235 52.3769 370.993 52.4716C370.75 52.5663 370.559 52.6989 370.419 52.8693C370.279 53.036 370.209 53.2519 370.209 53.517C370.209 53.8958 370.347 54.1818 370.624 54.375C370.9 54.5682 371.252 54.6648 371.68 54.6648ZM379.879 44.3636V56H377.822V44.3636H379.879ZM384.051 44.3636V56H381.994V44.3636H384.051ZM393.064 49.5795L391.189 49.7841C391.136 49.5947 391.043 49.4167 390.911 49.25C390.782 49.0833 390.607 48.9489 390.388 48.8466C390.168 48.7443 389.899 48.6932 389.581 48.6932C389.153 48.6932 388.793 48.786 388.501 48.9716C388.214 49.1572 388.071 49.3977 388.075 49.6932C388.071 49.947 388.164 50.1534 388.354 50.3125C388.547 50.4716 388.865 50.6023 389.308 50.7045L390.797 51.0227C391.623 51.2008 392.236 51.483 392.638 51.8693C393.043 52.2557 393.248 52.7614 393.251 53.3864C393.248 53.9356 393.087 54.4205 392.768 54.8409C392.454 55.2576 392.017 55.5833 391.456 55.8182C390.895 56.053 390.251 56.1705 389.524 56.1705C388.456 56.1705 387.596 55.947 386.945 55.5C386.293 55.0492 385.905 54.4223 385.78 53.6193L387.786 53.4261C387.876 53.8201 388.07 54.1174 388.365 54.3182C388.661 54.5189 389.045 54.6193 389.518 54.6193C390.007 54.6193 390.399 54.5189 390.695 54.3182C390.994 54.1174 391.143 53.8693 391.143 53.5739C391.143 53.3239 391.047 53.1174 390.854 52.9545C390.664 52.7917 390.369 52.6667 389.967 52.5795L388.479 52.267C387.642 52.0928 387.022 51.7992 386.621 51.3864C386.219 50.9697 386.02 50.4432 386.024 49.8068C386.02 49.2689 386.166 48.803 386.462 48.4091C386.761 48.0114 387.176 47.7045 387.706 47.4886C388.24 47.2689 388.856 47.1591 389.553 47.1591C390.575 47.1591 391.38 47.3769 391.967 47.8125C392.558 48.2481 392.924 48.8371 393.064 49.5795ZM399.697 43.8182L395.947 57.75H394.146L397.896 43.8182H399.697ZM407.908 49.5795L406.033 49.7841C405.98 49.5947 405.887 49.4167 405.754 49.25C405.625 49.0833 405.451 48.9489 405.232 48.8466C405.012 48.7443 404.743 48.6932 404.425 48.6932C403.997 48.6932 403.637 48.786 403.345 48.9716C403.057 49.1572 402.915 49.3977 402.919 49.6932C402.915 49.947 403.008 50.1534 403.197 50.3125C403.391 50.4716 403.709 50.6023 404.152 50.7045L405.641 51.0227C406.466 51.2008 407.08 51.483 407.482 51.8693C407.887 52.2557 408.091 52.7614 408.095 53.3864C408.091 53.9356 407.93 54.4205 407.612 54.8409C407.298 55.2576 406.86 55.5833 406.3 55.8182C405.739 56.053 405.095 56.1705 404.368 56.1705C403.3 56.1705 402.44 55.947 401.788 55.5C401.137 55.0492 400.749 54.4223 400.624 53.6193L402.629 53.4261C402.72 53.8201 402.913 54.1174 403.209 54.3182C403.504 54.5189 403.889 54.6193 404.362 54.6193C404.851 54.6193 405.243 54.5189 405.538 54.3182C405.838 54.1174 405.987 53.8693 405.987 53.5739C405.987 53.3239 405.891 53.1174 405.697 52.9545C405.508 52.7917 405.213 52.6667 404.811 52.5795L403.322 52.267C402.485 52.0928 401.866 51.7992 401.464 51.3864C401.063 50.9697 400.864 50.4432 400.868 49.8068C400.864 49.2689 401.01 48.803 401.305 48.4091C401.605 48.0114 402.019 47.7045 402.55 47.4886C403.084 47.2689 403.699 47.1591 404.396 47.1591C405.419 47.1591 406.224 47.3769 406.811 47.8125C407.402 48.2481 407.768 48.8371 407.908 49.5795ZM413.598 56.1705C412.746 56.1705 412.007 55.983 411.382 55.608C410.757 55.233 410.272 54.7083 409.928 54.0341C409.587 53.3598 409.416 52.572 409.416 51.6705C409.416 50.7689 409.587 49.9792 409.928 49.3011C410.272 48.6231 410.757 48.0966 411.382 47.7216C412.007 47.3466 412.746 47.1591 413.598 47.1591C414.45 47.1591 415.189 47.3466 415.814 47.7216C416.439 48.0966 416.922 48.6231 417.263 49.3011C417.607 49.9792 417.78 50.7689 417.78 51.6705C417.78 52.572 417.607 53.3598 417.263 54.0341C416.922 54.7083 416.439 55.233 415.814 55.608C415.189 55.983 414.45 56.1705 413.598 56.1705ZM413.609 54.5227C414.071 54.5227 414.458 54.3958 414.768 54.142C415.079 53.8845 415.31 53.5398 415.462 53.108C415.617 52.6761 415.695 52.1951 415.695 51.6648C415.695 51.1307 415.617 50.6477 415.462 50.2159C415.31 49.7803 415.079 49.4337 414.768 49.1761C414.458 48.9186 414.071 48.7898 413.609 48.7898C413.136 48.7898 412.742 48.9186 412.428 49.1761C412.117 49.4337 411.884 49.7803 411.729 50.2159C411.577 50.6477 411.501 51.1307 411.501 51.6648C411.501 52.1951 411.577 52.6761 411.729 53.108C411.884 53.5398 412.117 53.8845 412.428 54.142C412.742 54.3958 413.136 54.5227 413.609 54.5227ZM425.088 52.3295V47.2727H427.145V56H425.151V54.4489H425.06C424.863 54.9375 424.539 55.3371 424.088 55.6477C423.641 55.9583 423.09 56.1136 422.435 56.1136C421.863 56.1136 421.357 55.9867 420.918 55.733C420.482 55.4754 420.141 55.1023 419.895 54.6136C419.649 54.1212 419.526 53.5265 419.526 52.8295V47.2727H421.582V52.5114C421.582 53.0644 421.734 53.5038 422.037 53.8295C422.34 54.1553 422.738 54.3182 423.23 54.3182C423.533 54.3182 423.827 54.2443 424.111 54.0966C424.395 53.9489 424.628 53.7292 424.81 53.4375C424.995 53.142 425.088 52.7727 425.088 52.3295ZM429.26 59.2727V47.2727H431.283V48.7159H431.402C431.508 48.5038 431.658 48.2784 431.851 48.0398C432.044 47.7973 432.305 47.5909 432.635 47.4205C432.964 47.2462 433.385 47.1591 433.896 47.1591C434.571 47.1591 435.179 47.3314 435.72 47.6761C436.266 48.017 436.697 48.5227 437.016 49.1932C437.338 49.8598 437.499 50.678 437.499 51.6477C437.499 52.6061 437.341 53.4205 437.027 54.0909C436.713 54.7614 436.285 55.2727 435.743 55.625C435.201 55.9773 434.588 56.1534 433.902 56.1534C433.402 56.1534 432.987 56.0701 432.658 55.9034C432.328 55.7367 432.063 55.536 431.862 55.3011C431.665 55.0625 431.512 54.8371 431.402 54.625H431.317V59.2727H429.26ZM431.277 51.6364C431.277 52.2008 431.357 52.6951 431.516 53.1193C431.679 53.5436 431.911 53.875 432.214 54.1136C432.521 54.3485 432.893 54.4659 433.328 54.4659C433.783 54.4659 434.163 54.3447 434.47 54.1023C434.777 53.8561 435.008 53.5208 435.163 53.0966C435.322 52.6686 435.402 52.1818 435.402 51.6364C435.402 51.0947 435.324 50.6136 435.169 50.1932C435.014 49.7727 434.783 49.4432 434.476 49.2045C434.169 48.9659 433.786 48.8466 433.328 48.8466C432.889 48.8466 432.516 48.9621 432.209 49.1932C431.902 49.4242 431.669 49.7481 431.51 50.1648C431.355 50.5814 431.277 51.072 431.277 51.6364Z" fill="#1F2937"/>
<rect x="456.5" y="32.5" width="109" height="35" rx="3.5" stroke="#BDBDBD"/>
<path d="M481.255 56H477.312V44.3636H481.335C482.49 44.3636 483.482 44.5966 484.312 45.0625C485.145 45.5246 485.785 46.1894 486.232 47.0568C486.679 47.9242 486.903 48.9621 486.903 50.1705C486.903 51.3826 486.677 52.4242 486.227 53.2955C485.78 54.1667 485.134 54.8352 484.289 55.3011C483.448 55.767 482.437 56 481.255 56ZM479.42 54.1761H481.153C481.963 54.1761 482.639 54.0284 483.181 53.733C483.723 53.4337 484.13 52.9886 484.403 52.3977C484.675 51.803 484.812 51.0606 484.812 50.1705C484.812 49.2803 484.675 48.5417 484.403 47.9545C484.13 47.3636 483.727 46.9223 483.192 46.6307C482.662 46.3352 482.003 46.1875 481.215 46.1875H479.42V54.1761ZM492.678 56.1705C491.803 56.1705 491.048 55.9886 490.411 55.625C489.779 55.2576 489.292 54.7386 488.951 54.0682C488.61 53.3939 488.44 52.6004 488.44 51.6875C488.44 50.7898 488.61 50.0019 488.951 49.3239C489.296 48.642 489.777 48.1117 490.394 47.733C491.012 47.3504 491.737 47.1591 492.57 47.1591C493.108 47.1591 493.616 47.2462 494.093 47.4205C494.574 47.5909 494.998 47.8561 495.366 48.2159C495.737 48.5758 496.029 49.0341 496.241 49.5909C496.453 50.1439 496.559 50.803 496.559 51.5682V52.1989H489.406V50.8125H494.587C494.584 50.4186 494.498 50.0682 494.332 49.7614C494.165 49.4508 493.932 49.2064 493.633 49.0284C493.337 48.8504 492.993 48.7614 492.599 48.7614C492.178 48.7614 491.809 48.8636 491.491 49.0682C491.173 49.2689 490.924 49.5341 490.746 49.8636C490.572 50.1894 490.483 50.5473 490.479 50.9375V52.1477C490.479 52.6553 490.572 53.0909 490.758 53.4545C490.943 53.8144 491.203 54.0909 491.536 54.2841C491.87 54.4735 492.26 54.5682 492.707 54.5682C493.006 54.5682 493.277 54.5265 493.519 54.4432C493.762 54.3561 493.972 54.2292 494.15 54.0625C494.328 53.8958 494.462 53.6894 494.553 53.4432L496.474 53.6591C496.353 54.1667 496.121 54.6098 495.781 54.9886C495.443 55.3636 495.012 55.6553 494.485 55.8636C493.959 56.0682 493.356 56.1705 492.678 56.1705ZM505.197 49.5795L503.322 49.7841C503.269 49.5947 503.176 49.4167 503.043 49.25C502.915 49.0833 502.74 48.9489 502.521 48.8466C502.301 48.7443 502.032 48.6932 501.714 48.6932C501.286 48.6932 500.926 48.786 500.634 48.9716C500.346 49.1572 500.204 49.3977 500.208 49.6932C500.204 49.947 500.297 50.1534 500.487 50.3125C500.68 50.4716 500.998 50.6023 501.441 50.7045L502.93 51.0227C503.755 51.2008 504.369 51.483 504.771 51.8693C505.176 52.2557 505.38 52.7614 505.384 53.3864C505.38 53.9356 505.219 54.4205 504.901 54.8409C504.587 55.2576 504.149 55.5833 503.589 55.8182C503.028 56.053 502.384 56.1705 501.657 56.1705C500.589 56.1705 499.729 55.947 499.077 55.5C498.426 55.0492 498.038 54.4223 497.913 53.6193L499.918 53.4261C500.009 53.8201 500.202 54.1174 500.498 54.3182C500.793 54.5189 501.178 54.6193 501.651 54.6193C502.14 54.6193 502.532 54.5189 502.827 54.3182C503.127 54.1174 503.276 53.8693 503.276 53.5739C503.276 53.3239 503.18 53.1174 502.987 52.9545C502.797 52.7917 502.502 52.6667 502.1 52.5795L500.612 52.267C499.774 52.0928 499.155 51.7992 498.754 51.3864C498.352 50.9697 498.153 50.4432 498.157 49.8068C498.153 49.2689 498.299 48.803 498.594 48.4091C498.894 48.0114 499.308 47.7045 499.839 47.4886C500.373 47.2689 500.988 47.1591 501.685 47.1591C502.708 47.1591 503.513 47.3769 504.1 47.8125C504.691 48.2481 505.057 48.8371 505.197 49.5795ZM513.978 49.5795L512.103 49.7841C512.05 49.5947 511.957 49.4167 511.825 49.25C511.696 49.0833 511.522 48.9489 511.302 48.8466C511.082 48.7443 510.813 48.6932 510.495 48.6932C510.067 48.6932 509.707 48.786 509.415 48.9716C509.128 49.1572 508.986 49.3977 508.989 49.6932C508.986 49.947 509.078 50.1534 509.268 50.3125C509.461 50.4716 509.779 50.6023 510.222 50.7045L511.711 51.0227C512.537 51.2008 513.15 51.483 513.552 51.8693C513.957 52.2557 514.162 52.7614 514.165 53.3864C514.162 53.9356 514.001 54.4205 513.683 54.8409C513.368 55.2576 512.931 55.5833 512.37 55.8182C511.809 56.053 511.165 56.1705 510.438 56.1705C509.37 56.1705 508.51 55.947 507.859 55.5C507.207 55.0492 506.819 54.4223 506.694 53.6193L508.7 53.4261C508.79 53.8201 508.984 54.1174 509.279 54.3182C509.575 54.5189 509.959 54.6193 510.433 54.6193C510.921 54.6193 511.313 54.5189 511.609 54.3182C511.908 54.1174 512.058 53.8693 512.058 53.5739C512.058 53.3239 511.961 53.1174 511.768 52.9545C511.578 52.7917 511.283 52.6667 510.881 52.5795L509.393 52.267C508.556 52.0928 507.936 51.7992 507.535 51.3864C507.133 50.9697 506.934 50.4432 506.938 49.8068C506.934 49.2689 507.08 48.803 507.376 48.4091C507.675 48.0114 508.09 47.7045 508.62 47.4886C509.154 47.2689 509.77 47.1591 510.467 47.1591C511.489 47.1591 512.294 47.3769 512.881 47.8125C513.472 48.2481 513.838 48.8371 513.978 49.5795ZM519.725 56.1705C518.85 56.1705 518.094 55.9886 517.458 55.625C516.826 55.2576 516.339 54.7386 515.998 54.0682C515.657 53.3939 515.487 52.6004 515.487 51.6875C515.487 50.7898 515.657 50.0019 515.998 49.3239C516.343 48.642 516.824 48.1117 517.441 47.733C518.058 47.3504 518.784 47.1591 519.617 47.1591C520.155 47.1591 520.663 47.2462 521.14 47.4205C521.621 47.5909 522.045 47.8561 522.413 48.2159C522.784 48.5758 523.076 49.0341 523.288 49.5909C523.5 50.1439 523.606 50.803 523.606 51.5682V52.1989H516.452V50.8125H521.634C521.63 50.4186 521.545 50.0682 521.379 49.7614C521.212 49.4508 520.979 49.2064 520.68 49.0284C520.384 48.8504 520.04 48.7614 519.646 48.7614C519.225 48.7614 518.856 48.8636 518.538 49.0682C518.219 49.2689 517.971 49.5341 517.793 49.8636C517.619 50.1894 517.53 50.5473 517.526 50.9375V52.1477C517.526 52.6553 517.619 53.0909 517.805 53.4545C517.99 53.8144 518.25 54.0909 518.583 54.2841C518.916 54.4735 519.307 54.5682 519.754 54.5682C520.053 54.5682 520.324 54.5265 520.566 54.4432C520.808 54.3561 521.019 54.2292 521.197 54.0625C521.375 53.8958 521.509 53.6894 521.6 53.4432L523.521 53.6591C523.399 54.1667 523.168 54.6098 522.827 54.9886C522.49 55.3636 522.058 55.6553 521.532 55.8636C521.005 56.0682 520.403 56.1705 519.725 56.1705ZM525.346 56V47.2727H527.34V48.7273H527.431C527.59 48.2235 527.863 47.8352 528.249 47.5625C528.639 47.286 529.085 47.1477 529.585 47.1477C529.698 47.1477 529.825 47.1534 529.965 47.1648C530.109 47.1723 530.228 47.1856 530.323 47.2045V49.0966C530.236 49.0663 530.098 49.0398 529.908 49.017C529.723 48.9905 529.543 48.9773 529.369 48.9773C528.994 48.9773 528.656 49.0587 528.357 49.2216C528.062 49.3807 527.829 49.6023 527.658 49.8864C527.488 50.1705 527.403 50.4981 527.403 50.8693V56H525.346ZM536.516 47.2727V48.8636H531.499V47.2727H536.516ZM532.738 45.1818H534.795V53.375C534.795 53.6515 534.836 53.8636 534.92 54.0114C535.007 54.1553 535.121 54.2538 535.261 54.3068C535.401 54.3598 535.556 54.3864 535.727 54.3864C535.855 54.3864 535.973 54.3769 536.079 54.358C536.189 54.339 536.272 54.322 536.329 54.3068L536.675 55.9148C536.566 55.9527 536.408 55.9943 536.204 56.0398C536.003 56.0852 535.757 56.1117 535.465 56.1193C534.95 56.1345 534.486 56.0568 534.073 55.8864C533.66 55.7121 533.333 55.4432 533.09 55.0795C532.852 54.7159 532.734 54.2614 532.738 53.7159V45.1818ZM545.009 49.5795L543.134 49.7841C543.081 49.5947 542.988 49.4167 542.856 49.25C542.727 49.0833 542.553 48.9489 542.333 48.8466C542.113 48.7443 541.844 48.6932 541.526 48.6932C541.098 48.6932 540.738 48.786 540.447 48.9716C540.159 49.1572 540.017 49.3977 540.021 49.6932C540.017 49.947 540.11 50.1534 540.299 50.3125C540.492 50.4716 540.81 50.6023 541.254 50.7045L542.742 51.0227C543.568 51.2008 544.182 51.483 544.583 51.8693C544.988 52.2557 545.193 52.7614 545.197 53.3864C545.193 53.9356 545.032 54.4205 544.714 54.8409C544.399 55.2576 543.962 55.5833 543.401 55.8182C542.841 56.053 542.197 56.1705 541.469 56.1705C540.401 56.1705 539.541 55.947 538.89 55.5C538.238 55.0492 537.85 54.4223 537.725 53.6193L539.731 53.4261C539.822 53.8201 540.015 54.1174 540.31 54.3182C540.606 54.5189 540.99 54.6193 541.464 54.6193C541.952 54.6193 542.344 54.5189 542.64 54.3182C542.939 54.1174 543.089 53.8693 543.089 53.5739C543.089 53.3239 542.992 53.1174 542.799 52.9545C542.61 52.7917 542.314 52.6667 541.913 52.5795L540.424 52.267C539.587 52.0928 538.968 51.7992 538.566 51.3864C538.165 50.9697 537.966 50.4432 537.969 49.8068C537.966 49.2689 538.112 48.803 538.407 48.4091C538.706 48.0114 539.121 47.7045 539.651 47.4886C540.185 47.2689 540.801 47.1591 541.498 47.1591C542.521 47.1591 543.326 47.3769 543.913 47.8125C544.504 48.2481 544.869 48.8371 545.009 49.5795Z" fill="#1F2937"/>
<rect x="576.5" y="32.5" width="109" height="35" rx="3.5" stroke="#BDBDBD"/>
<path d="M591.249 56V44.3636H595.704C596.545 44.3636 597.244 44.4962 597.8 44.7614C598.361 45.0227 598.78 45.3807 599.056 45.8352C599.336 46.2898 599.477 46.8049 599.477 47.3807C599.477 47.8542 599.386 48.2595 599.204 48.5966C599.022 48.9299 598.778 49.2008 598.471 49.4091C598.164 49.6174 597.821 49.767 597.442 49.858V49.9716C597.855 49.9943 598.251 50.1212 598.63 50.3523C599.013 50.5795 599.325 50.9015 599.567 51.3182C599.81 51.7348 599.931 52.2386 599.931 52.8295C599.931 53.4318 599.785 53.9735 599.494 54.4545C599.202 54.9318 598.763 55.3087 598.175 55.5852C597.588 55.8617 596.85 56 595.96 56H591.249ZM593.357 54.2386H595.624C596.389 54.2386 596.941 54.0928 597.278 53.8011C597.619 53.5057 597.789 53.1269 597.789 52.6648C597.789 52.3201 597.704 52.0095 597.533 51.733C597.363 51.4527 597.121 51.233 596.806 51.0739C596.492 50.911 596.117 50.8295 595.681 50.8295H593.357V54.2386ZM593.357 49.3125H595.442C595.806 49.3125 596.134 49.2462 596.425 49.1136C596.717 48.9773 596.946 48.786 597.113 48.5398C597.283 48.2898 597.369 47.9943 597.369 47.6534C597.369 47.2027 597.21 46.8314 596.891 46.5398C596.577 46.2481 596.109 46.1023 595.488 46.1023H593.357V49.3125ZM605.538 56.1705C604.663 56.1705 603.907 55.9886 603.271 55.625C602.638 55.2576 602.151 54.7386 601.81 54.0682C601.469 53.3939 601.299 52.6004 601.299 51.6875C601.299 50.7898 601.469 50.0019 601.81 49.3239C602.155 48.642 602.636 48.1117 603.254 47.733C603.871 47.3504 604.596 47.1591 605.43 47.1591C605.968 47.1591 606.475 47.2462 606.952 47.4205C607.433 47.5909 607.858 47.8561 608.225 48.2159C608.596 48.5758 608.888 49.0341 609.1 49.5909C609.312 50.1439 609.418 50.803 609.418 51.5682V52.1989H602.265V50.8125H607.447C607.443 50.4186 607.358 50.0682 607.191 49.7614C607.024 49.4508 606.791 49.2064 606.492 49.0284C606.197 48.8504 605.852 48.7614 605.458 48.7614C605.038 48.7614 604.668 48.8636 604.35 49.0682C604.032 49.2689 603.784 49.5341 603.606 49.8636C603.432 50.1894 603.343 50.5473 603.339 50.9375V52.1477C603.339 52.6553 603.432 53.0909 603.617 53.4545C603.803 53.8144 604.062 54.0909 604.396 54.2841C604.729 54.4735 605.119 54.5682 605.566 54.5682C605.865 54.5682 606.136 54.5265 606.379 54.4432C606.621 54.3561 606.831 54.2292 607.009 54.0625C607.187 53.8958 607.322 53.6894 607.413 53.4432L609.333 53.6591C609.212 54.1667 608.981 54.6098 608.64 54.9886C608.303 55.3636 607.871 55.6553 607.344 55.8636C606.818 56.0682 606.216 56.1705 605.538 56.1705ZM618.704 47.2727L615.596 56H613.323L610.215 47.2727H612.408L614.414 53.7557H614.505L616.516 47.2727H618.704ZM623.694 56.1705C622.819 56.1705 622.063 55.9886 621.427 55.625C620.794 55.2576 620.308 54.7386 619.967 54.0682C619.626 53.3939 619.455 52.6004 619.455 51.6875C619.455 50.7898 619.626 50.0019 619.967 49.3239C620.311 48.642 620.792 48.1117 621.41 47.733C622.027 47.3504 622.753 47.1591 623.586 47.1591C624.124 47.1591 624.631 47.2462 625.109 47.4205C625.59 47.5909 626.014 47.8561 626.381 48.2159C626.753 48.5758 627.044 49.0341 627.256 49.5909C627.469 50.1439 627.575 50.803 627.575 51.5682V52.1989H620.421V50.8125H625.603C625.599 50.4186 625.514 50.0682 625.347 49.7614C625.181 49.4508 624.948 49.2064 624.648 49.0284C624.353 48.8504 624.008 48.7614 623.614 48.7614C623.194 48.7614 622.825 48.8636 622.506 49.0682C622.188 49.2689 621.94 49.5341 621.762 49.8636C621.588 50.1894 621.499 50.5473 621.495 50.9375V52.1477C621.495 52.6553 621.588 53.0909 621.773 53.4545C621.959 53.8144 622.219 54.0909 622.552 54.2841C622.885 54.4735 623.275 54.5682 623.722 54.5682C624.022 54.5682 624.292 54.5265 624.535 54.4432C624.777 54.3561 624.987 54.2292 625.165 54.0625C625.344 53.8958 625.478 53.6894 625.569 53.4432L627.489 53.6591C627.368 54.1667 627.137 54.6098 626.796 54.9886C626.459 55.3636 626.027 55.6553 625.501 55.8636C624.974 56.0682 624.372 56.1705 623.694 56.1705ZM629.315 56V47.2727H631.309V48.7273H631.4C631.559 48.2235 631.832 47.8352 632.218 47.5625C632.608 47.286 633.053 47.1477 633.553 47.1477C633.667 47.1477 633.794 47.1534 633.934 47.1648C634.078 47.1723 634.197 47.1856 634.292 47.2045V49.0966C634.205 49.0663 634.067 49.0398 633.877 49.017C633.692 48.9905 633.512 48.9773 633.337 48.9773C632.962 48.9773 632.625 49.0587 632.326 49.2216C632.031 49.3807 631.798 49.6023 631.627 49.8864C631.457 50.1705 631.371 50.4981 631.371 50.8693V56H629.315ZM638.013 56.1761C637.46 56.1761 636.962 56.0777 636.519 55.8807C636.08 55.6799 635.731 55.3845 635.474 54.9943C635.22 54.6042 635.093 54.1231 635.093 53.5511C635.093 53.0587 635.184 52.6515 635.366 52.3295C635.548 52.0076 635.796 51.75 636.11 51.5568C636.424 51.3636 636.779 51.2178 637.173 51.1193C637.57 51.017 637.981 50.9432 638.406 50.8977C638.917 50.8447 639.332 50.7973 639.65 50.7557C639.968 50.7102 640.199 50.642 640.343 50.5511C640.491 50.4564 640.565 50.3106 640.565 50.1136V50.0795C640.565 49.6515 640.438 49.3201 640.184 49.0852C639.93 48.8504 639.565 48.733 639.087 48.733C638.584 48.733 638.184 48.8428 637.888 49.0625C637.597 49.2822 637.4 49.5417 637.298 49.8409L635.377 49.5682C635.529 49.0379 635.779 48.5947 636.127 48.2386C636.476 47.8788 636.902 47.6098 637.406 47.4318C637.909 47.25 638.466 47.1591 639.076 47.1591C639.496 47.1591 639.915 47.2083 640.332 47.3068C640.748 47.4053 641.129 47.5682 641.474 47.7955C641.818 48.0189 642.095 48.3239 642.303 48.7102C642.515 49.0966 642.621 49.5795 642.621 50.1591V56H640.644V54.8011H640.576C640.451 55.0436 640.275 55.2708 640.048 55.483C639.824 55.6913 639.542 55.8598 639.201 55.9886C638.864 56.1136 638.468 56.1761 638.013 56.1761ZM638.548 54.6648C638.96 54.6648 639.318 54.5833 639.621 54.4205C639.924 54.2538 640.157 54.0341 640.32 53.7614C640.487 53.4886 640.57 53.1913 640.57 52.8693V51.8409C640.506 51.8939 640.396 51.9432 640.241 51.9886C640.089 52.0341 639.919 52.0739 639.729 52.108C639.54 52.142 639.353 52.1723 639.167 52.1989C638.981 52.2254 638.82 52.2481 638.684 52.267C638.377 52.3087 638.103 52.3769 637.86 52.4716C637.618 52.5663 637.426 52.6989 637.286 52.8693C637.146 53.036 637.076 53.2519 637.076 53.517C637.076 53.8958 637.214 54.1818 637.491 54.375C637.767 54.5682 638.12 54.6648 638.548 54.6648ZM648.485 59.4545C647.746 59.4545 647.112 59.3542 646.582 59.1534C646.051 58.9564 645.625 58.6913 645.303 58.358C644.981 58.0246 644.758 57.6553 644.633 57.25L646.485 56.8011C646.568 56.9716 646.69 57.1402 646.849 57.3068C647.008 57.4773 647.222 57.6174 647.491 57.7273C647.763 57.8409 648.106 57.8977 648.519 57.8977C649.103 57.8977 649.585 57.7557 649.968 57.4716C650.351 57.1913 650.542 56.7292 650.542 56.0852V54.4318H650.44C650.334 54.6439 650.178 54.8617 649.974 55.0852C649.773 55.3087 649.506 55.4962 649.173 55.6477C648.843 55.7992 648.428 55.875 647.928 55.875C647.258 55.875 646.65 55.7178 646.104 55.4034C645.563 55.0852 645.131 54.6117 644.809 53.983C644.491 53.3504 644.332 52.5587 644.332 51.608C644.332 50.6496 644.491 49.8409 644.809 49.1818C645.131 48.5189 645.565 48.017 646.11 47.6761C646.656 47.3314 647.263 47.1591 647.934 47.1591C648.445 47.1591 648.866 47.2462 649.195 47.4205C649.529 47.5909 649.794 47.7973 649.991 48.0398C650.188 48.2784 650.337 48.5038 650.44 48.7159H650.553V47.2727H652.582V56.142C652.582 56.8883 652.404 57.5057 652.048 57.9943C651.692 58.483 651.205 58.8485 650.587 59.0909C649.97 59.3333 649.269 59.4545 648.485 59.4545ZM648.502 54.2614C648.938 54.2614 649.309 54.1553 649.616 53.9432C649.923 53.7311 650.156 53.4261 650.315 53.0284C650.474 52.6307 650.553 52.1534 650.553 51.5966C650.553 51.0473 650.474 50.5663 650.315 50.1534C650.159 49.7405 649.928 49.4205 649.621 49.1932C649.318 48.9621 648.945 48.8466 648.502 48.8466C648.044 48.8466 647.661 48.9659 647.354 49.2045C647.048 49.4432 646.817 49.7708 646.661 50.1875C646.506 50.6004 646.428 51.0701 646.428 51.5966C646.428 52.1307 646.506 52.5985 646.661 53C646.82 53.3977 647.053 53.7083 647.36 53.9318C647.671 54.1515 648.051 54.2614 648.502 54.2614ZM658.553 56.1705C657.678 56.1705 656.923 55.9886 656.286 55.625C655.654 55.2576 655.167 54.7386 654.826 54.0682C654.485 53.3939 654.315 52.6004 654.315 51.6875C654.315 50.7898 654.485 50.0019 654.826 49.3239C655.171 48.642 655.652 48.1117 656.269 47.733C656.887 47.3504 657.612 47.1591 658.445 47.1591C658.983 47.1591 659.491 47.2462 659.968 47.4205C660.449 47.5909 660.873 47.8561 661.241 48.2159C661.612 48.5758 661.904 49.0341 662.116 49.5909C662.328 50.1439 662.434 50.803 662.434 51.5682V52.1989H655.281V50.8125H660.462C660.459 50.4186 660.373 50.0682 660.207 49.7614C660.04 49.4508 659.807 49.2064 659.508 49.0284C659.212 48.8504 658.868 48.7614 658.474 48.7614C658.053 48.7614 657.684 48.8636 657.366 49.0682C657.048 49.2689 656.799 49.5341 656.621 49.8636C656.447 50.1894 656.358 50.5473 656.354 50.9375V52.1477C656.354 52.6553 656.447 53.0909 656.633 53.4545C656.818 53.8144 657.078 54.0909 657.411 54.2841C657.745 54.4735 658.135 54.5682 658.582 54.5682C658.881 54.5682 659.152 54.5265 659.394 54.4432C659.637 54.3561 659.847 54.2292 660.025 54.0625C660.203 53.8958 660.337 53.6894 660.428 53.4432L662.349 53.6591C662.228 54.1667 661.996 54.6098 661.656 54.9886C661.318 55.3636 660.887 55.6553 660.36 55.8636C659.834 56.0682 659.231 56.1705 658.553 56.1705ZM671.072 49.5795L669.197 49.7841C669.144 49.5947 669.051 49.4167 668.918 49.25C668.79 49.0833 668.615 48.9489 668.396 48.8466C668.176 48.7443 667.907 48.6932 667.589 48.6932C667.161 48.6932 666.801 48.786 666.509 48.9716C666.221 49.1572 666.079 49.3977 666.083 49.6932C666.079 49.947 666.172 50.1534 666.362 50.3125C666.555 50.4716 666.873 50.6023 667.316 50.7045L668.805 51.0227C669.63 51.2008 670.244 51.483 670.646 51.8693C671.051 52.2557 671.255 52.7614 671.259 53.3864C671.255 53.9356 671.094 54.4205 670.776 54.8409C670.462 55.2576 670.024 55.5833 669.464 55.8182C668.903 56.053 668.259 56.1705 667.532 56.1705C666.464 56.1705 665.604 55.947 664.952 55.5C664.301 55.0492 663.913 54.4223 663.788 53.6193L665.793 53.4261C665.884 53.8201 666.077 54.1174 666.373 54.3182C666.668 54.5189 667.053 54.6193 667.526 54.6193C668.015 54.6193 668.407 54.5189 668.702 54.3182C669.002 54.1174 669.151 53.8693 669.151 53.5739C669.151 53.3239 669.055 53.1174 668.862 52.9545C668.672 52.7917 668.377 52.6667 667.975 52.5795L666.487 52.267C665.649 52.0928 665.03 51.7992 664.629 51.3864C664.227 50.9697 664.028 50.4432 664.032 49.8068C664.028 49.2689 664.174 48.803 664.469 48.4091C664.769 48.0114 665.183 47.7045 665.714 47.4886C666.248 47.2689 666.863 47.1591 667.56 47.1591C668.583 47.1591 669.388 47.3769 669.975 47.8125C670.566 48.2481 670.932 48.8371 671.072 49.5795Z" fill="#1F2937"/>
</svg>
