<svg width="317" height="42" viewBox="0 0 317 42" fill="none" xmlns="http://www.w3.org/2000/svg">
<circle cx="17.5" cy="21" r="4.5" fill="#2FBD6A"/>
<circle cx="17.5" cy="21" r="8.5" stroke="#2FBD6A" stroke-width="2"/>
<path d="M41.9432 19.1477H40.1705C40.1023 18.7689 39.9754 18.4356 39.7898 18.1477C39.6042 17.8598 39.3769 17.6155 39.108 17.4148C38.839 17.214 38.5379 17.0625 38.2045 16.9602C37.875 16.858 37.5246 16.8068 37.1534 16.8068C36.483 16.8068 35.8826 16.9754 35.3523 17.3125C34.8258 17.6496 34.4091 18.1439 34.1023 18.7955C33.7992 19.447 33.6477 20.2424 33.6477 21.1818C33.6477 22.1288 33.7992 22.928 34.1023 23.5795C34.4091 24.2311 34.8277 24.7235 35.358 25.0568C35.8883 25.3902 36.4848 25.5568 37.1477 25.5568C37.5152 25.5568 37.8636 25.5076 38.1932 25.4091C38.5265 25.3068 38.8277 25.1572 39.0966 24.9602C39.3655 24.7633 39.5928 24.5227 39.7784 24.2386C39.9678 23.9508 40.0985 23.6212 40.1705 23.25L41.9432 23.2557C41.8485 23.8277 41.6648 24.3542 41.392 24.8352C41.1231 25.3125 40.7765 25.7254 40.3523 26.0739C39.9318 26.4186 39.4508 26.6856 38.9091 26.875C38.3674 27.0644 37.7765 27.1591 37.1364 27.1591C36.1288 27.1591 35.2311 26.9205 34.4432 26.4432C33.6553 25.9621 33.0341 25.2746 32.5795 24.3807C32.1288 23.4867 31.9034 22.4205 31.9034 21.1818C31.9034 19.9394 32.1307 18.8731 32.5852 17.983C33.0398 17.089 33.661 16.4034 34.4489 15.9261C35.2367 15.4451 36.1326 15.2045 37.1364 15.2045C37.7538 15.2045 38.3295 15.2936 38.8636 15.4716C39.4015 15.6458 39.8845 15.9034 40.3125 16.2443C40.7405 16.5814 41.0947 16.9943 41.375 17.483C41.6553 17.9678 41.8447 18.5227 41.9432 19.1477ZM46.4474 27.1932C45.8944 27.1932 45.3944 27.0909 44.9474 26.8864C44.5005 26.678 44.1463 26.3769 43.8849 25.983C43.6274 25.589 43.4986 25.1061 43.4986 24.5341C43.4986 24.0417 43.5933 23.6364 43.7827 23.3182C43.9721 23 44.2277 22.7481 44.5497 22.5625C44.8717 22.3769 45.2315 22.2367 45.6293 22.142C46.027 22.0473 46.4323 21.9754 46.8452 21.9261C47.3679 21.8655 47.7921 21.8163 48.1179 21.7784C48.4437 21.7367 48.6804 21.6705 48.8281 21.5795C48.9759 21.4886 49.0497 21.3409 49.0497 21.1364V21.0966C49.0497 20.6004 48.9096 20.2159 48.6293 19.9432C48.3527 19.6705 47.9399 19.5341 47.3906 19.5341C46.8187 19.5341 46.3679 19.661 46.0384 19.9148C45.7126 20.1648 45.4872 20.4432 45.3622 20.75L43.7656 20.3864C43.955 19.8561 44.2315 19.428 44.5952 19.1023C44.9626 18.7727 45.3849 18.5341 45.8622 18.3864C46.3395 18.2348 46.8414 18.1591 47.3679 18.1591C47.7164 18.1591 48.0857 18.2008 48.4759 18.2841C48.8698 18.3636 49.2372 18.5114 49.5781 18.7273C49.9228 18.9432 50.205 19.2519 50.4247 19.6534C50.6444 20.0511 50.7543 20.5682 50.7543 21.2045V27H49.0952V25.8068H49.027C48.9171 26.0265 48.7524 26.2424 48.5327 26.4545C48.313 26.6667 48.0308 26.8428 47.6861 26.983C47.3414 27.1231 46.9285 27.1932 46.4474 27.1932ZM46.8168 25.8295C47.2865 25.8295 47.688 25.7367 48.0213 25.5511C48.3584 25.3655 48.6141 25.1231 48.7884 24.8239C48.9664 24.5208 49.0554 24.197 49.0554 23.8523V22.7273C48.9948 22.7879 48.8774 22.8447 48.7031 22.8977C48.5327 22.947 48.3376 22.9905 48.1179 23.0284C47.8982 23.0625 47.6842 23.0947 47.4759 23.125C47.2675 23.1515 47.0933 23.1742 46.9531 23.1932C46.6236 23.2348 46.3224 23.3049 46.0497 23.4034C45.7808 23.5019 45.5649 23.6439 45.402 23.8295C45.2429 24.0114 45.1634 24.2538 45.1634 24.5568C45.1634 24.9773 45.3187 25.2955 45.6293 25.5114C45.9399 25.7235 46.3357 25.8295 46.8168 25.8295ZM53.017 27V18.2727H54.6591V19.6591H54.75C54.9091 19.1894 55.1894 18.8201 55.5909 18.5511C55.9962 18.2784 56.4545 18.142 56.9659 18.142C57.072 18.142 57.197 18.1458 57.3409 18.1534C57.4886 18.161 57.6042 18.1705 57.6875 18.1818V19.8068C57.6193 19.7879 57.4981 19.767 57.3239 19.7443C57.1496 19.7178 56.9754 19.7045 56.8011 19.7045C56.3996 19.7045 56.0417 19.7898 55.7273 19.9602C55.4167 20.1269 55.1705 20.3598 54.9886 20.6591C54.8068 20.9545 54.7159 21.2917 54.7159 21.6705V27H53.017ZM62.1122 27.1705C61.4077 27.1705 60.7789 26.9905 60.2259 26.6307C59.6766 26.267 59.2448 25.75 58.9304 25.0795C58.6198 24.4053 58.4645 23.5966 58.4645 22.6534C58.4645 21.7102 58.6217 20.9034 58.9361 20.233C59.2543 19.5625 59.6899 19.0492 60.2429 18.6932C60.7959 18.3371 61.4228 18.1591 62.1236 18.1591C62.6652 18.1591 63.1009 18.25 63.4304 18.4318C63.7637 18.6098 64.0213 18.8182 64.2031 19.0568C64.3887 19.2955 64.5327 19.5057 64.6349 19.6875H64.7372V15.3636H66.4361V27H64.777V25.642H64.6349C64.5327 25.8277 64.3849 26.0398 64.1918 26.2784C64.0024 26.517 63.741 26.7254 63.4077 26.9034C63.0743 27.0814 62.6425 27.1705 62.1122 27.1705ZM62.4872 25.7216C62.9759 25.7216 63.3887 25.5928 63.7259 25.3352C64.0668 25.0739 64.3243 24.7121 64.4986 24.25C64.6766 23.7879 64.7656 23.25 64.7656 22.6364C64.7656 22.0303 64.6785 21.5 64.5043 21.0455C64.33 20.5909 64.0743 20.2367 63.7372 19.983C63.4001 19.7292 62.9834 19.6023 62.4872 19.6023C61.9759 19.6023 61.5497 19.7348 61.2088 20C60.8679 20.2652 60.6103 20.6269 60.4361 21.0852C60.2656 21.5436 60.1804 22.0606 60.1804 22.6364C60.1804 23.2197 60.2675 23.7443 60.4418 24.2102C60.616 24.6761 60.8736 25.0455 61.2145 25.3182C61.5592 25.5871 61.9834 25.7216 62.4872 25.7216Z" fill="#0A0D13"/>
<circle cx="119.833" cy="21" r="8.5" stroke="#ACACAC" stroke-width="2"/>
<path d="M136.611 27V15.3636H140.873C141.699 15.3636 142.382 15.5 142.924 15.7727C143.466 16.0417 143.871 16.4072 144.14 16.8693C144.409 17.3277 144.543 17.8447 144.543 18.4205C144.543 18.9053 144.454 19.3144 144.276 19.6477C144.098 19.9773 143.86 20.2424 143.56 20.4432C143.265 20.6402 142.939 20.7841 142.583 20.875V20.9886C142.969 21.0076 143.346 21.1326 143.714 21.3636C144.085 21.5909 144.392 21.9148 144.634 22.3352C144.877 22.7557 144.998 23.267 144.998 23.8693C144.998 24.464 144.858 24.9981 144.577 25.4716C144.301 25.9413 143.873 26.3144 143.293 26.5909C142.714 26.8636 141.973 27 141.072 27H136.611ZM138.367 25.4943H140.901C141.742 25.4943 142.344 25.3314 142.708 25.0057C143.072 24.6799 143.253 24.2727 143.253 23.7841C143.253 23.4167 143.161 23.0795 142.975 22.7727C142.789 22.4659 142.524 22.2216 142.18 22.0398C141.839 21.858 141.433 21.767 140.964 21.767H138.367V25.4943ZM138.367 20.3977H140.719C141.113 20.3977 141.467 20.322 141.782 20.1705C142.1 20.0189 142.352 19.8068 142.538 19.5341C142.727 19.2576 142.822 18.9318 142.822 18.5568C142.822 18.0758 142.653 17.6723 142.316 17.3466C141.979 17.0208 141.462 16.858 140.765 16.858H138.367V20.3977ZM149.484 27.1932C148.931 27.1932 148.431 27.0909 147.984 26.8864C147.537 26.678 147.182 26.3769 146.921 25.983C146.664 25.589 146.535 25.1061 146.535 24.5341C146.535 24.0417 146.629 23.6364 146.819 23.3182C147.008 23 147.264 22.7481 147.586 22.5625C147.908 22.3769 148.268 22.2367 148.665 22.142C149.063 22.0473 149.468 21.9754 149.881 21.9261C150.404 21.8655 150.828 21.8163 151.154 21.7784C151.48 21.7367 151.717 21.6705 151.864 21.5795C152.012 21.4886 152.086 21.3409 152.086 21.1364V21.0966C152.086 20.6004 151.946 20.2159 151.665 19.9432C151.389 19.6705 150.976 19.5341 150.427 19.5341C149.855 19.5341 149.404 19.661 149.074 19.9148C148.749 20.1648 148.523 20.4432 148.398 20.75L146.802 20.3864C146.991 19.8561 147.268 19.428 147.631 19.1023C147.999 18.7727 148.421 18.5341 148.898 18.3864C149.376 18.2348 149.878 18.1591 150.404 18.1591C150.753 18.1591 151.122 18.2008 151.512 18.2841C151.906 18.3636 152.273 18.5114 152.614 18.7273C152.959 18.9432 153.241 19.2519 153.461 19.6534C153.681 20.0511 153.79 20.5682 153.79 21.2045V27H152.131V25.8068H152.063C151.953 26.0265 151.789 26.2424 151.569 26.4545C151.349 26.6667 151.067 26.8428 150.722 26.983C150.378 27.1231 149.965 27.1932 149.484 27.1932ZM149.853 25.8295C150.323 25.8295 150.724 25.7367 151.057 25.5511C151.395 25.3655 151.65 25.1231 151.824 24.8239C152.003 24.5208 152.092 24.197 152.092 23.8523V22.7273C152.031 22.7879 151.914 22.8447 151.739 22.8977C151.569 22.947 151.374 22.9905 151.154 23.0284C150.934 23.0625 150.72 23.0947 150.512 23.125C150.304 23.1515 150.129 23.1742 149.989 23.1932C149.66 23.2348 149.359 23.3049 149.086 23.4034C148.817 23.5019 148.601 23.6439 148.438 23.8295C148.279 24.0114 148.199 24.2538 148.199 24.5568C148.199 24.9773 148.355 25.2955 148.665 25.5114C148.976 25.7235 149.372 25.8295 149.853 25.8295ZM157.752 21.8182V27H156.053V18.2727H157.684V19.6932H157.792C157.993 19.2311 158.307 18.8598 158.735 18.5795C159.167 18.2992 159.71 18.1591 160.366 18.1591C160.96 18.1591 161.481 18.2841 161.928 18.5341C162.375 18.7803 162.722 19.1477 162.968 19.6364C163.214 20.125 163.337 20.7292 163.337 21.4489V27H161.638V21.6534C161.638 21.0208 161.474 20.5265 161.144 20.1705C160.815 19.8106 160.362 19.6307 159.786 19.6307C159.392 19.6307 159.042 19.7159 158.735 19.8864C158.432 20.0568 158.191 20.3068 158.013 20.6364C157.839 20.9621 157.752 21.3561 157.752 21.8182ZM167.178 24.0398L167.167 21.9659H167.462L170.94 18.2727H172.974L169.008 22.4773H168.741L167.178 24.0398ZM165.616 27V15.3636H167.315V27H165.616ZM171.127 27L168.002 22.8523L169.172 21.6648L173.212 27H171.127Z" fill="#ACACAC"/>
<circle cx="222.167" cy="21" r="8.5" stroke="#ACACAC" stroke-width="2"/>
<path d="M238.372 16.875V15.3636H247.377V16.875H243.747V27H241.997V16.875H238.372ZM248.325 27V18.2727H249.967V19.6591H250.058C250.217 19.1894 250.497 18.8201 250.899 18.5511C251.304 18.2784 251.762 18.142 252.274 18.142C252.38 18.142 252.505 18.1458 252.649 18.1534C252.796 18.161 252.912 18.1705 252.995 18.1818V19.8068C252.927 19.7879 252.806 19.767 252.631 19.7443C252.457 19.7178 252.283 19.7045 252.109 19.7045C251.707 19.7045 251.349 19.7898 251.035 19.9602C250.724 20.1269 250.478 20.3598 250.296 20.6591C250.114 20.9545 250.024 21.2917 250.024 21.6705V27H248.325ZM256.927 27.1932C256.374 27.1932 255.874 27.0909 255.427 26.8864C254.98 26.678 254.626 26.3769 254.364 25.983C254.107 25.589 253.978 25.1061 253.978 24.5341C253.978 24.0417 254.073 23.6364 254.262 23.3182C254.452 23 254.707 22.7481 255.029 22.5625C255.351 22.3769 255.711 22.2367 256.109 22.142C256.506 22.0473 256.912 21.9754 257.325 21.9261C257.847 21.8655 258.272 21.8163 258.597 21.7784C258.923 21.7367 259.16 21.6705 259.308 21.5795C259.455 21.4886 259.529 21.3409 259.529 21.1364V21.0966C259.529 20.6004 259.389 20.2159 259.109 19.9432C258.832 19.6705 258.419 19.5341 257.87 19.5341C257.298 19.5341 256.847 19.661 256.518 19.9148C256.192 20.1648 255.967 20.4432 255.842 20.75L254.245 20.3864C254.435 19.8561 254.711 19.428 255.075 19.1023C255.442 18.7727 255.864 18.5341 256.342 18.3864C256.819 18.2348 257.321 18.1591 257.847 18.1591C258.196 18.1591 258.565 18.2008 258.955 18.2841C259.349 18.3636 259.717 18.5114 260.058 18.7273C260.402 18.9432 260.685 19.2519 260.904 19.6534C261.124 20.0511 261.234 20.5682 261.234 21.2045V27H259.575V25.8068H259.506C259.397 26.0265 259.232 26.2424 259.012 26.4545C258.792 26.6667 258.51 26.8428 258.166 26.983C257.821 27.1231 257.408 27.1932 256.927 27.1932ZM257.296 25.8295C257.766 25.8295 258.167 25.7367 258.501 25.5511C258.838 25.3655 259.094 25.1231 259.268 24.8239C259.446 24.5208 259.535 24.197 259.535 23.8523V22.7273C259.474 22.7879 259.357 22.8447 259.183 22.8977C259.012 22.947 258.817 22.9905 258.597 23.0284C258.378 23.0625 258.164 23.0947 257.955 23.125C257.747 23.1515 257.573 23.1742 257.433 23.1932C257.103 23.2348 256.802 23.3049 256.529 23.4034C256.26 23.5019 256.044 23.6439 255.881 23.8295C255.722 24.0114 255.643 24.2538 255.643 24.5568C255.643 24.9773 255.798 25.2955 256.109 25.5114C256.419 25.7235 256.815 25.8295 257.296 25.8295ZM265.195 21.8182V27H263.497V18.2727H265.127V19.6932H265.235C265.436 19.2311 265.75 18.8598 266.178 18.5795C266.61 18.2992 267.154 18.1591 267.809 18.1591C268.404 18.1591 268.925 18.2841 269.372 18.5341C269.819 18.7803 270.165 19.1477 270.411 19.6364C270.658 20.125 270.781 20.7292 270.781 21.4489V27H269.082V21.6534C269.082 21.0208 268.917 20.5265 268.587 20.1705C268.258 19.8106 267.805 19.6307 267.229 19.6307C266.836 19.6307 266.485 19.7159 266.178 19.8864C265.875 20.0568 265.635 20.3068 265.457 20.6364C265.283 20.9621 265.195 21.3561 265.195 21.8182ZM279.599 20.4034L278.059 20.6761C277.995 20.4792 277.892 20.2917 277.752 20.1136C277.616 19.9356 277.43 19.7898 277.195 19.6761C276.961 19.5625 276.667 19.5057 276.315 19.5057C275.834 19.5057 275.432 19.6136 275.11 19.8295C274.788 20.0417 274.627 20.3163 274.627 20.6534C274.627 20.9451 274.735 21.1799 274.951 21.358C275.167 21.536 275.515 21.6818 275.997 21.7955L277.383 22.1136C278.186 22.2992 278.784 22.5852 279.178 22.9716C279.572 23.358 279.769 23.8598 279.769 24.4773C279.769 25 279.618 25.4659 279.315 25.875C279.015 26.2803 278.597 26.5985 278.059 26.8295C277.525 27.0606 276.906 27.1761 276.201 27.1761C275.224 27.1761 274.426 26.9678 273.809 26.5511C273.192 26.1307 272.813 25.5341 272.673 24.7614L274.315 24.5114C274.417 24.9394 274.627 25.2633 274.945 25.483C275.264 25.6989 275.678 25.8068 276.19 25.8068C276.747 25.8068 277.192 25.6913 277.525 25.4602C277.858 25.2254 278.025 24.9394 278.025 24.6023C278.025 24.3295 277.923 24.1004 277.718 23.9148C277.517 23.7292 277.209 23.589 276.792 23.4943L275.315 23.1705C274.5 22.9848 273.898 22.6894 273.508 22.2841C273.122 21.8788 272.928 21.3655 272.928 20.7443C272.928 20.2292 273.072 19.7784 273.36 19.392C273.648 19.0057 274.046 18.7045 274.553 18.4886C275.061 18.2689 275.642 18.1591 276.298 18.1591C277.241 18.1591 277.983 18.3636 278.525 18.7727C279.067 19.178 279.425 19.7216 279.599 20.4034ZM285.791 18.2727V19.6364H280.859V18.2727H285.791ZM282.211 27V17.2614C282.211 16.7159 282.33 16.2633 282.569 15.9034C282.808 15.5398 283.124 15.2689 283.518 15.0909C283.912 14.9091 284.34 14.8182 284.802 14.8182C285.143 14.8182 285.435 14.8466 285.677 14.9034C285.919 14.9564 286.099 15.0057 286.217 15.0511L285.819 16.4261C285.739 16.4034 285.637 16.3769 285.512 16.3466C285.387 16.3125 285.236 16.2955 285.058 16.2955C284.645 16.2955 284.349 16.3977 284.171 16.6023C283.997 16.8068 283.91 17.1023 283.91 17.4886V27H282.211ZM290.961 27.1761C290.101 27.1761 289.361 26.9924 288.739 26.625C288.122 26.2538 287.645 25.733 287.308 25.0625C286.974 24.3883 286.808 23.5985 286.808 22.6932C286.808 21.7992 286.974 21.0114 287.308 20.3295C287.645 19.6477 288.114 19.1155 288.717 18.733C289.323 18.3504 290.031 18.1591 290.842 18.1591C291.334 18.1591 291.811 18.2405 292.274 18.4034C292.736 18.5663 293.15 18.822 293.518 19.1705C293.885 19.5189 294.175 19.9716 294.387 20.5284C294.599 21.0814 294.705 21.7538 294.705 22.5455V23.1477H287.768V21.875H293.041C293.041 21.428 292.95 21.0322 292.768 20.6875C292.586 20.339 292.33 20.0644 292.001 19.8636C291.675 19.6629 291.292 19.5625 290.853 19.5625C290.376 19.5625 289.959 19.6799 289.603 19.9148C289.251 20.1458 288.978 20.4489 288.785 20.8239C288.595 21.1951 288.501 21.5985 288.501 22.0341V23.0284C288.501 23.6117 288.603 24.108 288.808 24.517C289.016 24.9261 289.306 25.2386 289.677 25.4545C290.048 25.6667 290.482 25.7727 290.978 25.7727C291.3 25.7727 291.594 25.7273 291.859 25.6364C292.124 25.5417 292.353 25.4015 292.546 25.2159C292.739 25.0303 292.887 24.8011 292.989 24.5284L294.597 24.8182C294.469 25.2917 294.238 25.7064 293.904 26.0625C293.575 26.4148 293.16 26.6894 292.66 26.8864C292.164 27.0795 291.597 27.1761 290.961 27.1761ZM296.59 27V18.2727H298.232V19.6591H298.323C298.482 19.1894 298.763 18.8201 299.164 18.5511C299.569 18.2784 300.028 18.142 300.539 18.142C300.645 18.142 300.77 18.1458 300.914 18.1534C301.062 18.161 301.177 18.1705 301.261 18.1818V19.8068C301.193 19.7879 301.071 19.767 300.897 19.7443C300.723 19.7178 300.549 19.7045 300.374 19.7045C299.973 19.7045 299.615 19.7898 299.301 19.9602C298.99 20.1269 298.744 20.3598 298.562 20.6591C298.38 20.9545 298.289 21.2917 298.289 21.6705V27H296.59Z" fill="#ACACAC"/>
</svg>
