<svg width="315" height="56" viewBox="0 0 315 56" fill="none" xmlns="http://www.w3.org/2000/svg">
<rect width="315" height="56" fill="#FFE1C4"/>
<rect width="4" height="56" fill="#FF7A18"/>
<path d="M5.91761 37V19.5455H12.1392C13.4972 19.5455 14.6222 19.7926 15.5142 20.2869C16.4063 20.7812 17.0739 21.4574 17.517 22.3153C17.9602 23.1676 18.1818 24.1278 18.1818 25.196C18.1818 26.2699 17.9574 27.2358 17.5085 28.0938C17.0653 28.946 16.3949 29.6222 15.4972 30.1222C14.6051 30.6165 13.483 30.8636 12.1307 30.8636H7.85227V28.6307H11.892C12.75 28.6307 13.446 28.483 13.9801 28.1875C14.5142 27.8864 14.9062 27.4773 15.1562 26.9602C15.4062 26.4432 15.5312 25.8551 15.5312 25.196C15.5312 24.5369 15.4062 23.9517 15.1562 23.4403C14.9062 22.929 14.5114 22.5284 13.9716 22.2386C13.4375 21.9489 12.733 21.804 11.858 21.804H8.55114V37H5.91761ZM26.4148 37.2642C25.1875 37.2642 24.1165 36.983 23.2017 36.4205C22.2869 35.858 21.5767 35.071 21.071 34.0597C20.5653 33.0483 20.3125 31.8665 20.3125 30.5142C20.3125 29.1562 20.5653 27.9687 21.071 26.9517C21.5767 25.9347 22.2869 25.1449 23.2017 24.5824C24.1165 24.0199 25.1875 23.7386 26.4148 23.7386C27.642 23.7386 28.7131 24.0199 29.6278 24.5824C30.5426 25.1449 31.2528 25.9347 31.7585 26.9517C32.2642 27.9687 32.517 29.1562 32.517 30.5142C32.517 31.8665 32.2642 33.0483 31.7585 34.0597C31.2528 35.071 30.5426 35.858 29.6278 36.4205C28.7131 36.983 27.642 37.2642 26.4148 37.2642ZM26.4233 35.125C27.2188 35.125 27.8778 34.9148 28.4006 34.4943C28.9233 34.0739 29.3097 33.5142 29.5597 32.8153C29.8153 32.1165 29.9432 31.3466 29.9432 30.5057C29.9432 29.6705 29.8153 28.9034 29.5597 28.2045C29.3097 27.5 28.9233 26.9347 28.4006 26.5085C27.8778 26.0824 27.2188 25.8693 26.4233 25.8693C25.6222 25.8693 24.9574 26.0824 24.429 26.5085C23.9063 26.9347 23.517 27.5 23.2614 28.2045C23.0114 28.9034 22.8864 29.6705 22.8864 30.5057C22.8864 31.3466 23.0114 32.1165 23.2614 32.8153C23.517 33.5142 23.9063 34.0739 24.429 34.4943C24.9574 34.9148 25.6222 35.125 26.4233 35.125ZM35.3615 41.9091V23.9091H37.8501V26.0312H38.0632C38.2109 25.7585 38.424 25.4432 38.7024 25.0852C38.9808 24.7273 39.3672 24.4148 39.8615 24.1477C40.3558 23.875 41.0092 23.7386 41.8217 23.7386C42.8786 23.7386 43.8217 24.0057 44.6513 24.5398C45.4808 25.0739 46.1314 25.8437 46.603 26.8494C47.0803 27.8551 47.3189 29.0653 47.3189 30.4801C47.3189 31.8949 47.0831 33.108 46.6115 34.1193C46.1399 35.125 45.4922 35.9006 44.6683 36.446C43.8445 36.9858 42.9041 37.2557 41.8473 37.2557C41.0518 37.2557 40.4013 37.1222 39.8956 36.8551C39.3956 36.5881 39.0036 36.2756 38.7195 35.9176C38.4354 35.5597 38.2166 35.2415 38.0632 34.9631H37.9098V41.9091H35.3615ZM37.8587 30.4545C37.8587 31.375 37.9922 32.1818 38.2592 32.875C38.5263 33.5682 38.9126 34.1108 39.4183 34.5028C39.924 34.8892 40.5433 35.0824 41.2763 35.0824C42.0376 35.0824 42.674 34.8807 43.1854 34.4773C43.6967 34.0682 44.0831 33.5142 44.3445 32.8153C44.6115 32.1165 44.745 31.3295 44.745 30.4545C44.745 29.5909 44.6143 28.8153 44.353 28.1278C44.0973 27.4403 43.7109 26.8977 43.1939 26.5C42.6825 26.1023 42.0433 25.9034 41.2763 25.9034C40.5376 25.9034 39.9126 26.0937 39.4013 26.4744C38.8956 26.8551 38.5121 27.3864 38.2507 28.0682C37.9893 28.75 37.8587 29.5455 37.8587 30.4545ZM58.4666 31.571V23.9091H61.0234V37H58.5178V34.733H58.3814C58.0803 35.4318 57.5973 36.0142 56.9325 36.4801C56.2734 36.9403 55.4524 37.1705 54.4695 37.1705C53.6286 37.1705 52.8842 36.9858 52.2365 36.6165C51.5945 36.2415 51.0888 35.6875 50.7195 34.9545C50.3558 34.2216 50.174 33.3153 50.174 32.2358V23.9091H52.7223V31.929C52.7223 32.821 52.9695 33.5312 53.4638 34.0597C53.9581 34.5881 54.6001 34.8523 55.3899 34.8523C55.8672 34.8523 56.3416 34.733 56.8132 34.4943C57.2905 34.2557 57.6854 33.8949 57.9979 33.4119C58.3161 32.929 58.4723 32.3153 58.4666 31.571ZM66.9957 19.5455V37H64.4474V19.5455H66.9957ZM74.2337 37.2898C73.4041 37.2898 72.6541 37.1364 71.9837 36.8295C71.3132 36.517 70.782 36.0653 70.3899 35.4744C70.0036 34.8835 69.8104 34.1591 69.8104 33.3011C69.8104 32.5625 69.9524 31.9545 70.2365 31.4773C70.5206 31 70.9041 30.6222 71.3871 30.3438C71.87 30.0653 72.4098 29.8551 73.0064 29.7131C73.603 29.571 74.2109 29.4631 74.8303 29.3892C75.6143 29.2983 76.2507 29.2244 76.7393 29.1676C77.228 29.1051 77.5831 29.0057 77.8047 28.8693C78.0263 28.733 78.1371 28.5114 78.1371 28.2045V28.1449C78.1371 27.4006 77.9268 26.8239 77.5064 26.4148C77.0916 26.0057 76.4723 25.8011 75.6484 25.8011C74.7905 25.8011 74.1143 25.9915 73.62 26.3722C73.1314 26.7472 72.7933 27.1648 72.6058 27.625L70.2109 27.0795C70.495 26.2841 70.9098 25.642 71.4553 25.1534C72.0064 24.6591 72.6399 24.3011 73.3558 24.0795C74.0717 23.8523 74.8246 23.7386 75.6143 23.7386C76.1371 23.7386 76.6911 23.8011 77.2763 23.9261C77.8672 24.0455 78.4183 24.267 78.9297 24.5909C79.4467 24.9148 79.87 25.3778 80.1996 25.9801C80.5291 26.5767 80.6939 27.3523 80.6939 28.3068V37H78.2053V35.2102H78.103C77.9382 35.5398 77.6911 35.8636 77.3615 36.1818C77.032 36.5 76.6087 36.7642 76.0916 36.9744C75.5746 37.1847 74.9553 37.2898 74.2337 37.2898ZM74.7876 35.2443C75.4922 35.2443 76.0945 35.1051 76.5945 34.8267C77.1001 34.5483 77.4837 34.1847 77.745 33.7358C78.0121 33.2812 78.1456 32.7955 78.1456 32.2784V30.5909C78.0547 30.6818 77.8786 30.767 77.6172 30.8466C77.3615 30.9205 77.0689 30.9858 76.7393 31.0426C76.4098 31.0937 76.0888 31.142 75.7763 31.1875C75.4638 31.2273 75.2024 31.2614 74.9922 31.2898C74.4979 31.3523 74.0462 31.4574 73.6371 31.6051C73.2337 31.7528 72.9098 31.9659 72.6655 32.2443C72.4268 32.517 72.3075 32.8807 72.3075 33.3352C72.3075 33.9659 72.5405 34.4432 73.0064 34.767C73.4723 35.0852 74.0661 35.2443 74.7876 35.2443ZM84.0881 37V23.9091H86.5511V25.9886H86.6875C86.9261 25.2841 87.3466 24.7301 87.9489 24.3267C88.5568 23.9176 89.2443 23.7131 90.0114 23.7131C90.1705 23.7131 90.358 23.7187 90.5739 23.7301C90.7955 23.7415 90.9688 23.7557 91.0938 23.7727V26.2102C90.9915 26.1818 90.8097 26.1506 90.5483 26.1165C90.2869 26.0767 90.0256 26.0568 89.7642 26.0568C89.1619 26.0568 88.625 26.1847 88.1534 26.4403C87.6875 26.6903 87.3182 27.0398 87.0455 27.4886C86.7727 27.9318 86.6364 28.4375 86.6364 29.0057V37H84.0881Z" fill="black"/>
</svg>
