<svg width="206" height="62" viewBox="0 0 206 62" fill="none" xmlns="http://www.w3.org/2000/svg">
<rect x="0.5" y="0.5" width="205" height="61" rx="3.5" stroke="#BDBDBD"/>
<path d="M10.7216 40V22.5455H22.0739V25.196H13.8835V29.9347H21.4858V32.5852H13.8835V37.3494H22.142V40H10.7216ZM28.2486 32.3295V40H25.1634V26.9091H28.1122V29.1335H28.2656C28.5668 28.4006 29.0469 27.8182 29.706 27.3864C30.3707 26.9545 31.1918 26.7386 32.169 26.7386C33.0724 26.7386 33.8594 26.9318 34.5298 27.3182C35.206 27.7045 35.7287 28.2642 36.098 28.9972C36.473 29.7301 36.6577 30.6193 36.652 31.6648V40H33.5668V32.142C33.5668 31.267 33.3395 30.5824 32.8849 30.0881C32.4361 29.5937 31.8139 29.3466 31.0185 29.3466C30.4787 29.3466 29.9986 29.4659 29.5781 29.7045C29.1634 29.9375 28.8366 30.2756 28.598 30.7188C28.3651 31.1619 28.2486 31.6989 28.2486 32.3295ZM46.3253 26.9091V29.2955H38.7997V26.9091H46.3253ZM40.6577 23.7727H43.7429V36.0625C43.7429 36.4773 43.8054 36.7955 43.9304 37.017C44.0611 37.233 44.2315 37.3807 44.4418 37.4602C44.652 37.5398 44.8849 37.5795 45.1406 37.5795C45.3338 37.5795 45.5099 37.5653 45.669 37.5369C45.8338 37.5085 45.9588 37.483 46.044 37.4602L46.5639 39.8722C46.3991 39.929 46.1634 39.9915 45.8565 40.0597C45.5554 40.1278 45.1861 40.1676 44.7486 40.179C43.9759 40.2017 43.2798 40.0852 42.6605 39.8295C42.0412 39.5682 41.5497 39.1648 41.1861 38.6193C40.8281 38.0739 40.652 37.392 40.6577 36.5739V23.7727ZM54.5604 40.2557C53.2479 40.2557 52.1143 39.983 51.1598 39.4375C50.2109 38.8864 49.4808 38.108 48.9695 37.1023C48.4581 36.0909 48.2024 34.9006 48.2024 33.5312C48.2024 32.1847 48.4581 31.0028 48.9695 29.9858C49.4865 28.9631 50.2081 28.1676 51.1342 27.5994C52.0604 27.0256 53.1484 26.7386 54.3984 26.7386C55.2053 26.7386 55.9666 26.8693 56.6825 27.1307C57.4041 27.3864 58.0405 27.7841 58.5916 28.3239C59.1484 28.8636 59.5859 29.5511 59.9041 30.3864C60.2223 31.2159 60.3814 32.2045 60.3814 33.3523V34.2983H49.6513V32.2188H57.424C57.4183 31.6278 57.2905 31.1023 57.0405 30.642C56.7905 30.1761 56.4411 29.8097 55.9922 29.5426C55.549 29.2756 55.032 29.142 54.4411 29.142C53.8104 29.142 53.2564 29.2955 52.7791 29.6023C52.3018 29.9034 51.9297 30.3011 51.6626 30.7955C51.4013 31.2841 51.2678 31.821 51.2621 32.4062V34.2216C51.2621 34.983 51.4013 35.6364 51.6797 36.1818C51.9581 36.7216 52.3473 37.1364 52.8473 37.4261C53.3473 37.7102 53.9325 37.8523 54.603 37.8523C55.0518 37.8523 55.4581 37.7898 55.8217 37.6648C56.1854 37.5341 56.5007 37.3438 56.7678 37.0938C57.0348 36.8438 57.2365 36.5341 57.3729 36.1648L60.2536 36.4886C60.0717 37.25 59.7251 37.9148 59.2138 38.483C58.7081 39.0455 58.0604 39.483 57.2706 39.7955C56.4808 40.1023 55.5774 40.2557 54.5604 40.2557ZM62.9915 40V26.9091H65.983V29.0909H66.1193C66.358 28.3352 66.767 27.7528 67.3466 27.3438C67.9318 26.929 68.5994 26.7216 69.3494 26.7216C69.5199 26.7216 69.7102 26.7301 69.9205 26.7472C70.1364 26.7585 70.3153 26.7784 70.4574 26.8068V29.6449C70.3267 29.5994 70.1193 29.5597 69.8352 29.5256C69.5568 29.4858 69.2869 29.4659 69.0256 29.4659C68.4631 29.4659 67.9574 29.5881 67.5085 29.8324C67.0653 30.071 66.7159 30.4034 66.4602 30.8295C66.2045 31.2557 66.0767 31.7472 66.0767 32.304V40H62.9915ZM93.5369 28.4347H90.3494C90.2585 27.9119 90.0909 27.4489 89.8466 27.0455C89.6023 26.6364 89.2983 26.2898 88.9347 26.0057C88.571 25.7216 88.1563 25.5085 87.6903 25.3665C87.2301 25.2188 86.733 25.1449 86.1989 25.1449C85.25 25.1449 84.4091 25.3835 83.6761 25.8608C82.9432 26.3324 82.3693 27.0256 81.9545 27.9403C81.5398 28.8494 81.3324 29.9602 81.3324 31.2727C81.3324 32.608 81.5398 33.733 81.9545 34.6477C82.375 35.5568 82.9489 36.2443 83.6761 36.7102C84.4091 37.1705 85.2472 37.4006 86.1903 37.4006C86.7131 37.4006 87.2017 37.3324 87.6562 37.196C88.1165 37.054 88.5284 36.8466 88.892 36.5739C89.2614 36.3011 89.571 35.9659 89.821 35.5682C90.0767 35.1705 90.2528 34.7159 90.3494 34.2045L93.5369 34.2216C93.4176 35.0511 93.1591 35.8295 92.7614 36.5568C92.3693 37.2841 91.8551 37.9261 91.2188 38.483C90.5824 39.0341 89.8381 39.4659 88.9858 39.7784C88.1335 40.0852 87.1875 40.2386 86.1477 40.2386C84.6136 40.2386 83.2443 39.8835 82.0398 39.1733C80.8352 38.4631 79.8864 37.4375 79.1932 36.0966C78.5 34.7557 78.1534 33.1477 78.1534 31.2727C78.1534 29.392 78.5028 27.7841 79.2017 26.4489C79.9006 25.108 80.8523 24.0824 82.0568 23.3722C83.2614 22.6619 84.625 22.3068 86.1477 22.3068C87.1193 22.3068 88.0227 22.4432 88.858 22.7159C89.6932 22.9886 90.4375 23.3892 91.0909 23.9176C91.7443 24.4403 92.2813 25.0824 92.7017 25.8438C93.1278 26.5994 93.4063 27.4631 93.5369 28.4347ZM102.006 40.2557C100.728 40.2557 99.62 39.9744 98.6825 39.4119C97.745 38.8494 97.0178 38.0625 96.5007 37.0511C95.9893 36.0398 95.7337 34.858 95.7337 33.5057C95.7337 32.1534 95.9893 30.9687 96.5007 29.9517C97.0178 28.9347 97.745 28.1449 98.6825 27.5824C99.62 27.0199 100.728 26.7386 102.006 26.7386C103.285 26.7386 104.393 27.0199 105.33 27.5824C106.268 28.1449 106.992 28.9347 107.504 29.9517C108.021 30.9687 108.279 32.1534 108.279 33.5057C108.279 34.858 108.021 36.0398 107.504 37.0511C106.992 38.0625 106.268 38.8494 105.33 39.4119C104.393 39.9744 103.285 40.2557 102.006 40.2557ZM102.023 37.7841C102.717 37.7841 103.296 37.5937 103.762 37.2131C104.228 36.8267 104.575 36.3097 104.802 35.6619C105.035 35.0142 105.151 34.2926 105.151 33.4972C105.151 32.696 105.035 31.9716 104.802 31.3239C104.575 30.6705 104.228 30.1506 103.762 29.7642C103.296 29.3778 102.717 29.1847 102.023 29.1847C101.313 29.1847 100.722 29.3778 100.251 29.7642C99.7848 30.1506 99.4354 30.6705 99.2024 31.3239C98.9751 31.9716 98.8615 32.696 98.8615 33.4972C98.8615 34.2926 98.9751 35.0142 99.2024 35.6619C99.4354 36.3097 99.7848 36.8267 100.251 37.2131C100.722 37.5937 101.313 37.7841 102.023 37.7841ZM115.756 40.2301C114.727 40.2301 113.807 39.9659 112.994 39.4375C112.182 38.9091 111.54 38.142 111.068 37.1364C110.597 36.1307 110.361 34.9091 110.361 33.4716C110.361 32.017 110.599 30.7898 111.077 29.7898C111.56 28.7841 112.21 28.0256 113.028 27.5142C113.847 26.9972 114.759 26.7386 115.764 26.7386C116.531 26.7386 117.162 26.8693 117.656 27.1307C118.151 27.3864 118.543 27.696 118.832 28.0597C119.122 28.4176 119.347 28.7557 119.506 29.0739H119.634V22.5455H122.727V40H119.693V37.9375H119.506C119.347 38.2557 119.116 38.5937 118.815 38.9517C118.514 39.304 118.116 39.6051 117.622 39.8551C117.128 40.1051 116.506 40.2301 115.756 40.2301ZM116.616 37.6989C117.27 37.6989 117.827 37.5227 118.287 37.1705C118.747 36.8125 119.097 36.3153 119.335 35.679C119.574 35.0426 119.693 34.3011 119.693 33.4545C119.693 32.608 119.574 31.8722 119.335 31.2472C119.102 30.6222 118.756 30.1364 118.295 29.7898C117.841 29.4432 117.281 29.2699 116.616 29.2699C115.929 29.2699 115.355 29.4489 114.895 29.8068C114.435 30.1648 114.088 30.6591 113.855 31.2898C113.622 31.9205 113.506 32.642 113.506 33.4545C113.506 34.2727 113.622 35.0028 113.855 35.6449C114.094 36.2812 114.443 36.7841 114.903 37.1534C115.369 37.517 115.94 37.6989 116.616 37.6989ZM131.81 40.2557C130.498 40.2557 129.364 39.983 128.41 39.4375C127.461 38.8864 126.731 38.108 126.219 37.1023C125.708 36.0909 125.452 34.9006 125.452 33.5312C125.452 32.1847 125.708 31.0028 126.219 29.9858C126.737 28.9631 127.458 28.1676 128.384 27.5994C129.31 27.0256 130.398 26.7386 131.648 26.7386C132.455 26.7386 133.217 26.8693 133.933 27.1307C134.654 27.3864 135.29 27.7841 135.842 28.3239C136.398 28.8636 136.836 29.5511 137.154 30.3864C137.472 31.2159 137.631 32.2045 137.631 33.3523V34.2983H126.901V32.2188H134.674C134.668 31.6278 134.54 31.1023 134.29 30.642C134.04 30.1761 133.691 29.8097 133.242 29.5426C132.799 29.2756 132.282 29.142 131.691 29.142C131.06 29.142 130.506 29.2955 130.029 29.6023C129.552 29.9034 129.18 30.3011 128.913 30.7955C128.651 31.2841 128.518 31.821 128.512 32.4062V34.2216C128.512 34.983 128.651 35.6364 128.93 36.1818C129.208 36.7216 129.597 37.1364 130.097 37.4261C130.597 37.7102 131.183 37.8523 131.853 37.8523C132.302 37.8523 132.708 37.7898 133.072 37.6648C133.435 37.5341 133.751 37.3438 134.018 37.0938C134.285 36.8438 134.487 36.5341 134.623 36.1648L137.504 36.4886C137.322 37.25 136.975 37.9148 136.464 38.483C135.958 39.0455 135.31 39.483 134.521 39.7955C133.731 40.1023 132.827 40.2557 131.81 40.2557ZM149.28 32.3295V40H146.195V22.5455H149.212V29.1335H149.365C149.672 28.3949 150.146 27.8125 150.788 27.3864C151.436 26.9545 152.26 26.7386 153.26 26.7386C154.169 26.7386 154.962 26.929 155.638 27.3097C156.314 27.6903 156.837 28.2472 157.206 28.9801C157.581 29.7131 157.768 30.608 157.768 31.6648V40H154.683V32.142C154.683 31.2614 154.456 30.5767 154.001 30.0881C153.553 29.5937 152.922 29.3466 152.109 29.3466C151.564 29.3466 151.075 29.4659 150.643 29.7045C150.217 29.9375 149.882 30.2756 149.638 30.7188C149.399 31.1619 149.28 31.6989 149.28 32.3295ZM166.709 40.2557C165.396 40.2557 164.263 39.983 163.308 39.4375C162.359 38.8864 161.629 38.108 161.118 37.1023C160.607 36.0909 160.351 34.9006 160.351 33.5312C160.351 32.1847 160.607 31.0028 161.118 29.9858C161.635 28.9631 162.357 28.1676 163.283 27.5994C164.209 27.0256 165.297 26.7386 166.547 26.7386C167.354 26.7386 168.115 26.8693 168.831 27.1307C169.553 27.3864 170.189 27.7841 170.74 28.3239C171.297 28.8636 171.734 29.5511 172.053 30.3864C172.371 31.2159 172.53 32.2045 172.53 33.3523V34.2983H161.8V32.2188H169.572C169.567 31.6278 169.439 31.1023 169.189 30.642C168.939 30.1761 168.589 29.8097 168.141 29.5426C167.697 29.2756 167.18 29.142 166.589 29.142C165.959 29.142 165.405 29.2955 164.928 29.6023C164.45 29.9034 164.078 30.3011 163.811 30.7955C163.55 31.2841 163.416 31.821 163.411 32.4062V34.2216C163.411 34.983 163.55 35.6364 163.828 36.1818C164.107 36.7216 164.496 37.1364 164.996 37.4261C165.496 37.7102 166.081 37.8523 166.751 37.8523C167.2 37.8523 167.607 37.7898 167.97 37.6648C168.334 37.5341 168.649 37.3438 168.916 37.0938C169.183 36.8438 169.385 36.5341 169.521 36.1648L172.402 36.4886C172.22 37.25 171.874 37.9148 171.362 38.483C170.857 39.0455 170.209 39.483 169.419 39.7955C168.629 40.1023 167.726 40.2557 166.709 40.2557ZM175.14 40V26.9091H178.131V29.0909H178.268C178.506 28.3352 178.915 27.7528 179.495 27.3438C180.08 26.929 180.748 26.7216 181.498 26.7216C181.668 26.7216 181.859 26.7301 182.069 26.7472C182.285 26.7585 182.464 26.7784 182.606 26.8068V29.6449C182.475 29.5994 182.268 29.5597 181.984 29.5256C181.705 29.4858 181.435 29.4659 181.174 29.4659C180.612 29.4659 180.106 29.5881 179.657 29.8324C179.214 30.071 178.864 30.4034 178.609 30.8295C178.353 31.2557 178.225 31.7472 178.225 32.304V40H175.14ZM189.912 40.2557C188.599 40.2557 187.466 39.983 186.511 39.4375C185.563 38.8864 184.832 38.108 184.321 37.1023C183.81 36.0909 183.554 34.9006 183.554 33.5312C183.554 32.1847 183.81 31.0028 184.321 29.9858C184.838 28.9631 185.56 28.1676 186.486 27.5994C187.412 27.0256 188.5 26.7386 189.75 26.7386C190.557 26.7386 191.318 26.8693 192.034 27.1307C192.756 27.3864 193.392 27.7841 193.943 28.3239C194.5 28.8636 194.938 29.5511 195.256 30.3864C195.574 31.2159 195.733 32.2045 195.733 33.3523V34.2983H185.003V32.2188H192.776C192.77 31.6278 192.642 31.1023 192.392 30.642C192.142 30.1761 191.793 29.8097 191.344 29.5426C190.901 29.2756 190.384 29.142 189.793 29.142C189.162 29.142 188.608 29.2955 188.131 29.6023C187.653 29.9034 187.281 30.3011 187.014 30.7955C186.753 31.2841 186.619 31.821 186.614 32.4062V34.2216C186.614 34.983 186.753 35.6364 187.031 36.1818C187.31 36.7216 187.699 37.1364 188.199 37.4261C188.699 37.7102 189.284 37.8523 189.955 37.8523C190.403 37.8523 190.81 37.7898 191.173 37.6648C191.537 37.5341 191.852 37.3438 192.119 37.0938C192.386 36.8438 192.588 36.5341 192.724 36.1648L195.605 36.4886C195.423 37.25 195.077 37.9148 194.565 38.483C194.06 39.0455 193.412 39.483 192.622 39.7955C191.832 40.1023 190.929 40.2557 189.912 40.2557Z" fill="black"/>
</svg>
