<svg width="371" height="226" viewBox="0 0 371 226" fill="none" xmlns="http://www.w3.org/2000/svg">
<rect x="10" y="10" width="351" height="62" rx="8" fill="#F3F4F6"/>
<rect x="20" y="19" width="44" height="44" rx="13" fill="#FFE1C4"/>
<path d="M50.25 32.7504V50.0005C50.25 50.1994 50.171 50.3901 50.0303 50.5308C49.8897 50.6714 49.6989 50.7505 49.5 50.7505C49.3011 50.7505 49.1103 50.6714 48.9697 50.5308C48.829 50.3901 48.75 50.1994 48.75 50.0005V45.5005H44.25C44.0511 45.5005 43.8603 45.4214 43.7197 45.2808C43.579 45.1401 43.5 44.9494 43.5 44.7505C43.5349 42.9539 43.7618 41.1662 44.1769 39.418C45.0938 35.622 46.8319 33.0776 49.2047 32.0614C49.3187 32.0125 49.4431 31.9927 49.5667 32.0038C49.6903 32.0148 49.8092 32.0563 49.9128 32.1246C50.0164 32.1929 50.1014 32.2858 50.1603 32.395C50.2191 32.5043 50.2499 32.6264 50.25 32.7504ZM41.2397 32.6276C41.225 32.5292 41.1908 32.4346 41.1392 32.3494C41.0876 32.2643 41.0195 32.1903 40.939 32.1317C40.8585 32.0732 40.7671 32.0312 40.6702 32.0083C40.5733 31.9855 40.4728 31.9821 40.3746 31.9985C40.2764 32.0149 40.1824 32.0506 40.0982 32.1037C40.0139 32.1568 39.9411 32.2261 39.8839 32.3076C39.8267 32.3891 39.7863 32.4812 39.7651 32.5785C39.7439 32.6757 39.7423 32.7763 39.7603 32.8742L40.4897 37.2505H38.25V32.7504C38.25 32.5515 38.171 32.3608 38.0303 32.2201C37.8897 32.0795 37.6989 32.0004 37.5 32.0004C37.3011 32.0004 37.1103 32.0795 36.9697 32.2201C36.829 32.3608 36.75 32.5515 36.75 32.7504V37.2505H34.5103L35.2397 32.8742C35.2577 32.7763 35.2561 32.6757 35.2349 32.5785C35.2137 32.4812 35.1733 32.3891 35.1161 32.3076C35.0589 32.2261 34.9861 32.1568 34.9018 32.1037C34.8176 32.0506 34.7236 32.0149 34.6254 31.9985C34.5272 31.9821 34.4267 31.9855 34.3298 32.0083C34.2329 32.0312 34.1415 32.0732 34.061 32.1317C33.9805 32.1903 33.9124 32.2643 33.8608 32.3494C33.8092 32.4346 33.775 32.5292 33.7603 32.6276L33.0103 37.1276C33.0035 37.1682 33.0001 37.2093 33 37.2505C33.0015 38.3134 33.3787 39.3416 34.0649 40.1534C34.7511 40.9652 35.7021 41.5083 36.75 41.6867V50.0005C36.75 50.1994 36.829 50.3901 36.9697 50.5308C37.1103 50.6714 37.3011 50.7505 37.5 50.7505C37.6989 50.7505 37.8897 50.6714 38.0303 50.5308C38.171 50.3901 38.25 50.1994 38.25 50.0005V41.6867C39.2979 41.5083 40.2489 40.9652 40.9351 40.1534C41.6213 39.3416 41.9985 38.3134 42 37.2505C41.9999 37.2093 41.9965 37.1682 41.9897 37.1276L41.2397 32.6276Z" fill="#FF7A18"/>
<path d="M76.2784 47V35.3636H83.4943V36.875H78.0341V40.4205H82.9773V41.9261H78.0341V47H76.2784ZM85.4077 47V38.2727H87.0497V39.6591H87.1406C87.2997 39.1894 87.58 38.8201 87.9815 38.5511C88.3868 38.2784 88.8452 38.142 89.3565 38.142C89.4626 38.142 89.5876 38.1458 89.7315 38.1534C89.8793 38.161 89.9948 38.1705 90.0781 38.1818V39.8068C90.0099 39.7879 89.8887 39.767 89.7145 39.7443C89.5402 39.7178 89.366 39.7045 89.1918 39.7045C88.7902 39.7045 88.4323 39.7898 88.1179 39.9602C87.8073 40.1269 87.5611 40.3598 87.3793 40.6591C87.1974 40.9545 87.1065 41.2917 87.1065 41.6705V47H85.4077ZM94.9972 47.1761C94.1373 47.1761 93.3968 46.9924 92.7756 46.625C92.1581 46.2538 91.6809 45.733 91.3438 45.0625C91.0104 44.3883 90.8438 43.5985 90.8438 42.6932C90.8438 41.7992 91.0104 41.0114 91.3438 40.3295C91.6809 39.6477 92.1506 39.1155 92.7528 38.733C93.3589 38.3504 94.0672 38.1591 94.8778 38.1591C95.3703 38.1591 95.8475 38.2405 96.3097 38.4034C96.7718 38.5663 97.1866 38.822 97.554 39.1705C97.9214 39.5189 98.2112 39.9716 98.4233 40.5284C98.6354 41.0814 98.7415 41.7538 98.7415 42.5455V43.1477H91.804V41.875H97.0767C97.0767 41.428 96.9858 41.0322 96.804 40.6875C96.6222 40.339 96.3665 40.0644 96.0369 39.8636C95.7112 39.6629 95.3286 39.5625 94.8892 39.5625C94.4119 39.5625 93.9953 39.6799 93.6392 39.9148C93.2869 40.1458 93.0142 40.4489 92.821 40.8239C92.6316 41.1951 92.5369 41.5985 92.5369 42.0341V43.0284C92.5369 43.6117 92.6392 44.108 92.8438 44.517C93.0521 44.9261 93.3419 45.2386 93.7131 45.4545C94.0843 45.6667 94.518 45.7727 95.0142 45.7727C95.3362 45.7727 95.6297 45.7273 95.8949 45.6364C96.16 45.5417 96.3892 45.4015 96.5824 45.2159C96.7756 45.0303 96.9233 44.8011 97.0256 44.5284L98.6335 44.8182C98.5047 45.2917 98.2737 45.7064 97.9403 46.0625C97.6108 46.4148 97.196 46.6894 96.696 46.8864C96.1998 47.0795 95.6335 47.1761 94.9972 47.1761ZM107.166 40.4034L105.626 40.6761C105.562 40.4792 105.46 40.2917 105.32 40.1136C105.183 39.9356 104.998 39.7898 104.763 39.6761C104.528 39.5625 104.234 39.5057 103.882 39.5057C103.401 39.5057 103 39.6136 102.678 39.8295C102.356 40.0417 102.195 40.3163 102.195 40.6534C102.195 40.9451 102.303 41.1799 102.518 41.358C102.734 41.536 103.083 41.6818 103.564 41.7955L104.95 42.1136C105.753 42.2992 106.352 42.5852 106.746 42.9716C107.14 43.358 107.337 43.8598 107.337 44.4773C107.337 45 107.185 45.4659 106.882 45.875C106.583 46.2803 106.164 46.5985 105.626 46.8295C105.092 47.0606 104.473 47.1761 103.768 47.1761C102.791 47.1761 101.994 46.9678 101.376 46.5511C100.759 46.1307 100.38 45.5341 100.24 44.7614L101.882 44.5114C101.984 44.9394 102.195 45.2633 102.513 45.483C102.831 45.6989 103.246 45.8068 103.757 45.8068C104.314 45.8068 104.759 45.6913 105.092 45.4602C105.426 45.2254 105.592 44.9394 105.592 44.6023C105.592 44.3295 105.49 44.1004 105.286 43.9148C105.085 43.7292 104.776 43.589 104.359 43.4943L102.882 43.1705C102.068 42.9848 101.465 42.6894 101.075 42.2841C100.689 41.8788 100.496 41.3655 100.496 40.7443C100.496 40.2292 100.64 39.7784 100.928 39.392C101.215 39.0057 101.613 38.7045 102.121 38.4886C102.628 38.2689 103.21 38.1591 103.865 38.1591C104.808 38.1591 105.551 38.3636 106.092 38.7727C106.634 39.178 106.992 39.7216 107.166 40.4034ZM110.903 41.8182V47H109.205V35.3636H110.881V39.6932H110.989C111.193 39.2235 111.506 38.8504 111.926 38.5739C112.347 38.2973 112.896 38.1591 113.574 38.1591C114.172 38.1591 114.695 38.2822 115.142 38.5284C115.593 38.7746 115.941 39.142 116.188 39.6307C116.438 40.1155 116.562 40.7216 116.562 41.4489V47H114.864V41.6534C114.864 41.0133 114.699 40.517 114.369 40.1648C114.04 39.8087 113.581 39.6307 112.994 39.6307C112.593 39.6307 112.233 39.7159 111.915 39.8864C111.6 40.0568 111.352 40.3068 111.17 40.6364C110.992 40.9621 110.903 41.3561 110.903 41.8182ZM120.528 35.3636V47H118.83V35.3636H120.528ZM123.888 50.2727C123.634 50.2727 123.403 50.2519 123.195 50.2102C122.986 50.1723 122.831 50.1307 122.729 50.0852L123.138 48.6932C123.448 48.7765 123.725 48.8125 123.967 48.8011C124.21 48.7898 124.424 48.6989 124.609 48.5284C124.799 48.358 124.965 48.0795 125.109 47.6932L125.32 47.1136L122.126 38.2727H123.945L126.155 45.0455H126.246L128.456 38.2727H130.28L126.683 48.1648C126.517 48.6193 126.304 49.0038 126.047 49.3182C125.789 49.6364 125.482 49.875 125.126 50.0341C124.77 50.1932 124.357 50.2727 123.888 50.2727ZM136.247 47V35.3636H140.395C141.3 35.3636 142.05 35.5284 142.645 35.858C143.24 36.1875 143.685 36.6383 143.98 37.2102C144.276 37.7784 144.423 38.4186 144.423 39.1307C144.423 39.8466 144.274 40.4905 143.974 41.0625C143.679 41.6307 143.232 42.0814 142.634 42.4148C142.039 42.7443 141.291 42.9091 140.389 42.9091H137.537V41.4205H140.23C140.802 41.4205 141.266 41.322 141.622 41.125C141.978 40.9242 142.24 40.6515 142.406 40.3068C142.573 39.9621 142.656 39.5701 142.656 39.1307C142.656 38.6913 142.573 38.3011 142.406 37.9602C142.24 37.6193 141.976 37.3523 141.616 37.1591C141.26 36.9659 140.791 36.8693 140.207 36.8693H138.003V47H136.247ZM146.345 47V38.2727H147.987V39.6591H148.078C148.237 39.1894 148.518 38.8201 148.919 38.5511C149.324 38.2784 149.783 38.142 150.294 38.142C150.4 38.142 150.525 38.1458 150.669 38.1534C150.817 38.161 150.932 38.1705 151.016 38.1818V39.8068C150.947 39.7879 150.826 39.767 150.652 39.7443C150.478 39.7178 150.304 39.7045 150.129 39.7045C149.728 39.7045 149.37 39.7898 149.055 39.9602C148.745 40.1269 148.499 40.3598 148.317 40.6591C148.135 40.9545 148.044 41.2917 148.044 41.6705V47H146.345ZM155.935 47.1761C155.075 47.1761 154.334 46.9924 153.713 46.625C153.096 46.2538 152.618 45.733 152.281 45.0625C151.948 44.3883 151.781 43.5985 151.781 42.6932C151.781 41.7992 151.948 41.0114 152.281 40.3295C152.618 39.6477 153.088 39.1155 153.69 38.733C154.296 38.3504 155.005 38.1591 155.815 38.1591C156.308 38.1591 156.785 38.2405 157.247 38.4034C157.709 38.5663 158.124 38.822 158.491 39.1705C158.859 39.5189 159.149 39.9716 159.361 40.5284C159.573 41.0814 159.679 41.7538 159.679 42.5455V43.1477H152.741V41.875H158.014C158.014 41.428 157.923 41.0322 157.741 40.6875C157.56 40.339 157.304 40.0644 156.974 39.8636C156.649 39.6629 156.266 39.5625 155.827 39.5625C155.349 39.5625 154.933 39.6799 154.577 39.9148C154.224 40.1458 153.952 40.4489 153.759 40.8239C153.569 41.1951 153.474 41.5985 153.474 42.0341V43.0284C153.474 43.6117 153.577 44.108 153.781 44.517C153.99 44.9261 154.279 45.2386 154.651 45.4545C155.022 45.6667 155.455 45.7727 155.952 45.7727C156.274 45.7727 156.567 45.7273 156.832 45.6364C157.098 45.5417 157.327 45.4015 157.52 45.2159C157.713 45.0303 157.861 44.8011 157.963 44.5284L159.571 44.8182C159.442 45.2917 159.211 45.7064 158.878 46.0625C158.548 46.4148 158.134 46.6894 157.634 46.8864C157.137 47.0795 156.571 47.1761 155.935 47.1761ZM161.564 50.2727V38.2727H163.223V39.6875H163.365C163.464 39.5057 163.606 39.2955 163.791 39.0568C163.977 38.8182 164.234 38.6098 164.564 38.4318C164.893 38.25 165.329 38.1591 165.871 38.1591C166.575 38.1591 167.204 38.3371 167.757 38.6932C168.31 39.0492 168.744 39.5625 169.058 40.233C169.376 40.9034 169.536 41.7102 169.536 42.6534C169.536 43.5966 169.378 44.4053 169.064 45.0795C168.75 45.75 168.318 46.267 167.768 46.6307C167.219 46.9905 166.592 47.1705 165.888 47.1705C165.357 47.1705 164.924 47.0814 164.587 46.9034C164.253 46.7254 163.992 46.517 163.803 46.2784C163.613 46.0398 163.467 45.8277 163.365 45.642H163.263V50.2727H161.564ZM163.229 42.6364C163.229 43.25 163.318 43.7879 163.496 44.25C163.674 44.7121 163.931 45.0739 164.268 45.3352C164.606 45.5928 165.018 45.7216 165.507 45.7216C166.015 45.7216 166.439 45.5871 166.78 45.3182C167.121 45.0455 167.378 44.6761 167.553 44.2102C167.731 43.7443 167.82 43.2197 167.82 42.6364C167.82 42.0606 167.732 41.5436 167.558 41.0852C167.388 40.6269 167.13 40.2652 166.786 40C166.445 39.7348 166.018 39.6023 165.507 39.6023C165.015 39.6023 164.598 39.7292 164.257 39.983C163.92 40.2367 163.664 40.5909 163.49 41.0455C163.316 41.5 163.229 42.0303 163.229 42.6364ZM173.979 47.1932C173.426 47.1932 172.926 47.0909 172.479 46.8864C172.032 46.678 171.678 46.3769 171.416 45.983C171.159 45.589 171.03 45.1061 171.03 44.5341C171.03 44.0417 171.125 43.6364 171.314 43.3182C171.503 43 171.759 42.7481 172.081 42.5625C172.403 42.3769 172.763 42.2367 173.161 42.142C173.558 42.0473 173.964 41.9754 174.376 41.9261C174.899 41.8655 175.323 41.8163 175.649 41.7784C175.975 41.7367 176.212 41.6705 176.359 41.5795C176.507 41.4886 176.581 41.3409 176.581 41.1364V41.0966C176.581 40.6004 176.441 40.2159 176.161 39.9432C175.884 39.6705 175.471 39.5341 174.922 39.5341C174.35 39.5341 173.899 39.661 173.57 39.9148C173.244 40.1648 173.018 40.4432 172.893 40.75L171.297 40.3864C171.486 39.8561 171.763 39.428 172.126 39.1023C172.494 38.7727 172.916 38.5341 173.393 38.3864C173.871 38.2348 174.373 38.1591 174.899 38.1591C175.248 38.1591 175.617 38.2008 176.007 38.2841C176.401 38.3636 176.768 38.5114 177.109 38.7273C177.454 38.9432 177.736 39.2519 177.956 39.6534C178.176 40.0511 178.286 40.5682 178.286 41.2045V47H176.626V45.8068H176.558C176.448 46.0265 176.284 46.2424 176.064 46.4545C175.844 46.6667 175.562 46.8428 175.217 46.983C174.873 47.1231 174.46 47.1932 173.979 47.1932ZM174.348 45.8295C174.818 45.8295 175.219 45.7367 175.553 45.5511C175.89 45.3655 176.145 45.1231 176.32 44.8239C176.498 44.5208 176.587 44.197 176.587 43.8523V42.7273C176.526 42.7879 176.409 42.8447 176.234 42.8977C176.064 42.947 175.869 42.9905 175.649 43.0284C175.429 43.0625 175.215 43.0947 175.007 43.125C174.799 43.1515 174.625 43.1742 174.484 43.1932C174.155 43.2348 173.854 43.3049 173.581 43.4034C173.312 43.5019 173.096 43.6439 172.933 43.8295C172.774 44.0114 172.695 44.2538 172.695 44.5568C172.695 44.9773 172.85 45.2955 173.161 45.5114C173.471 45.7235 173.867 45.8295 174.348 45.8295ZM180.548 47V38.2727H182.19V39.6591H182.281C182.44 39.1894 182.721 38.8201 183.122 38.5511C183.527 38.2784 183.986 38.142 184.497 38.142C184.603 38.142 184.728 38.1458 184.872 38.1534C185.02 38.161 185.135 38.1705 185.219 38.1818V39.8068C185.151 39.7879 185.029 39.767 184.855 39.7443C184.681 39.7178 184.507 39.7045 184.332 39.7045C183.931 39.7045 183.573 39.7898 183.259 39.9602C182.948 40.1269 182.702 40.3598 182.52 40.6591C182.338 40.9545 182.247 41.2917 182.247 41.6705V47H180.548ZM190.138 47.1761C189.278 47.1761 188.537 46.9924 187.916 46.625C187.299 46.2538 186.821 45.733 186.484 45.0625C186.151 44.3883 185.984 43.5985 185.984 42.6932C185.984 41.7992 186.151 41.0114 186.484 40.3295C186.821 39.6477 187.291 39.1155 187.893 38.733C188.5 38.3504 189.208 38.1591 190.018 38.1591C190.511 38.1591 190.988 38.2405 191.45 38.4034C191.912 38.5663 192.327 38.822 192.695 39.1705C193.062 39.5189 193.352 39.9716 193.564 40.5284C193.776 41.0814 193.882 41.7538 193.882 42.5455V43.1477H186.945V41.875H192.217C192.217 41.428 192.126 41.0322 191.945 40.6875C191.763 40.339 191.507 40.0644 191.178 39.8636C190.852 39.6629 190.469 39.5625 190.03 39.5625C189.553 39.5625 189.136 39.6799 188.78 39.9148C188.428 40.1458 188.155 40.4489 187.962 40.8239C187.772 41.1951 187.678 41.5985 187.678 42.0341V43.0284C187.678 43.6117 187.78 44.108 187.984 44.517C188.193 44.9261 188.482 45.2386 188.854 45.4545C189.225 45.6667 189.659 45.7727 190.155 45.7727C190.477 45.7727 190.77 45.7273 191.036 45.6364C191.301 45.5417 191.53 45.4015 191.723 45.2159C191.916 45.0303 192.064 44.8011 192.166 44.5284L193.774 44.8182C193.645 45.2917 193.414 45.7064 193.081 46.0625C192.751 46.4148 192.337 46.6894 191.837 46.8864C191.34 47.0795 190.774 47.1761 190.138 47.1761ZM199.034 47.1705C198.33 47.1705 197.701 46.9905 197.148 46.6307C196.598 46.267 196.167 45.75 195.852 45.0795C195.542 44.4053 195.386 43.5966 195.386 42.6534C195.386 41.7102 195.544 40.9034 195.858 40.233C196.176 39.5625 196.612 39.0492 197.165 38.6932C197.718 38.3371 198.345 38.1591 199.045 38.1591C199.587 38.1591 200.023 38.25 200.352 38.4318C200.686 38.6098 200.943 38.8182 201.125 39.0568C201.311 39.2955 201.455 39.5057 201.557 39.6875H201.659V35.3636H203.358V47H201.699V45.642H201.557C201.455 45.8277 201.307 46.0398 201.114 46.2784C200.924 46.517 200.663 46.7254 200.33 46.9034C199.996 47.0814 199.564 47.1705 199.034 47.1705ZM199.409 45.7216C199.898 45.7216 200.311 45.5928 200.648 45.3352C200.989 45.0739 201.246 44.7121 201.42 44.25C201.598 43.7879 201.688 43.25 201.688 42.6364C201.688 42.0303 201.6 41.5 201.426 41.0455C201.252 40.5909 200.996 40.2367 200.659 39.983C200.322 39.7292 199.905 39.6023 199.409 39.6023C198.898 39.6023 198.472 39.7348 198.131 40C197.79 40.2652 197.532 40.6269 197.358 41.0852C197.188 41.5436 197.102 42.0606 197.102 42.6364C197.102 43.2197 197.189 43.7443 197.364 44.2102C197.538 44.6761 197.795 45.0455 198.136 45.3182C198.481 45.5871 198.905 45.7216 199.409 45.7216Z" fill="black"/>
<rect x="10" y="82" width="351" height="62" rx="8" fill="#F3F4F6"/>
<rect x="20" y="91" width="44" height="44" rx="13" fill="#FFE1C4"/>
<path d="M50.25 104.75V122C50.25 122.199 50.171 122.39 50.0303 122.531C49.8897 122.671 49.6989 122.75 49.5 122.75C49.3011 122.75 49.1103 122.671 48.9697 122.531C48.829 122.39 48.75 122.199 48.75 122V117.5H44.25C44.0511 117.5 43.8603 117.421 43.7197 117.281C43.579 117.14 43.5 116.949 43.5 116.75C43.5349 114.954 43.7618 113.166 44.1769 111.418C45.0938 107.622 46.8319 105.078 49.2047 104.061C49.3187 104.013 49.4431 103.993 49.5667 104.004C49.6903 104.015 49.8092 104.056 49.9128 104.125C50.0164 104.193 50.1014 104.286 50.1603 104.395C50.2191 104.504 50.2499 104.626 50.25 104.75ZM41.2397 104.628C41.225 104.529 41.1908 104.435 41.1392 104.349C41.0876 104.264 41.0195 104.19 40.939 104.132C40.8585 104.073 40.7671 104.031 40.6702 104.008C40.5733 103.985 40.4728 103.982 40.3746 103.998C40.2764 104.015 40.1824 104.051 40.0982 104.104C40.0139 104.157 39.9411 104.226 39.8839 104.308C39.8267 104.389 39.7863 104.481 39.7651 104.578C39.7439 104.676 39.7423 104.776 39.7603 104.874L40.4897 109.25H38.25V104.75C38.25 104.552 38.171 104.361 38.0303 104.22C37.8897 104.079 37.6989 104 37.5 104C37.3011 104 37.1103 104.079 36.9697 104.22C36.829 104.361 36.75 104.552 36.75 104.75V109.25H34.5103L35.2397 104.874C35.2577 104.776 35.2561 104.676 35.2349 104.578C35.2137 104.481 35.1733 104.389 35.1161 104.308C35.0589 104.226 34.9861 104.157 34.9018 104.104C34.8176 104.051 34.7236 104.015 34.6254 103.998C34.5272 103.982 34.4267 103.985 34.3298 104.008C34.2329 104.031 34.1415 104.073 34.061 104.132C33.9805 104.19 33.9124 104.264 33.8608 104.349C33.8092 104.435 33.775 104.529 33.7603 104.628L33.0103 109.128C33.0035 109.168 33.0001 109.209 33 109.25C33.0015 110.313 33.3787 111.342 34.0649 112.153C34.7511 112.965 35.7021 113.508 36.75 113.687V122C36.75 122.199 36.829 122.39 36.9697 122.531C37.1103 122.671 37.3011 122.75 37.5 122.75C37.6989 122.75 37.8897 122.671 38.0303 122.531C38.171 122.39 38.25 122.199 38.25 122V113.687C39.2979 113.508 40.2489 112.965 40.9351 112.153C41.6213 111.342 41.9985 110.313 42 109.25C41.9999 109.209 41.9965 109.168 41.9897 109.128L41.2397 104.628Z" fill="#FF7A18"/>
<path d="M82.625 110.42C82.5644 109.883 82.3144 109.466 81.875 109.17C81.4356 108.871 80.8826 108.722 80.2159 108.722C79.7386 108.722 79.3258 108.797 78.9773 108.949C78.6288 109.097 78.358 109.301 78.1648 109.562C77.9754 109.82 77.8807 110.114 77.8807 110.443C77.8807 110.72 77.9451 110.958 78.0739 111.159C78.2064 111.36 78.3788 111.528 78.5909 111.665C78.8068 111.797 79.0379 111.909 79.2841 112C79.5303 112.087 79.767 112.159 79.9943 112.216L81.1307 112.511C81.5019 112.602 81.8826 112.725 82.2727 112.881C82.6629 113.036 83.0246 113.241 83.358 113.494C83.6913 113.748 83.9602 114.062 84.1648 114.438C84.3731 114.812 84.4773 115.261 84.4773 115.784C84.4773 116.443 84.3068 117.028 83.9659 117.54C83.6288 118.051 83.1383 118.455 82.4943 118.75C81.8542 119.045 81.0795 119.193 80.1705 119.193C79.2992 119.193 78.5455 119.055 77.9091 118.778C77.2727 118.502 76.7746 118.11 76.4148 117.602C76.0549 117.091 75.8561 116.485 75.8182 115.784H77.5795C77.6136 116.205 77.75 116.555 77.9886 116.835C78.2311 117.112 78.5398 117.318 78.9148 117.455C79.2936 117.587 79.7083 117.653 80.1591 117.653C80.6553 117.653 81.0966 117.576 81.483 117.42C81.8731 117.261 82.1799 117.042 82.4034 116.761C82.6269 116.477 82.7386 116.146 82.7386 115.767C82.7386 115.422 82.6402 115.14 82.4432 114.92C82.25 114.701 81.9867 114.519 81.6534 114.375C81.3239 114.231 80.9508 114.104 80.5341 113.994L79.1591 113.619C78.2273 113.366 77.4886 112.992 76.9432 112.5C76.4015 112.008 76.1307 111.356 76.1307 110.545C76.1307 109.875 76.3125 109.29 76.6761 108.79C77.0398 108.29 77.5322 107.902 78.1534 107.625C78.7746 107.345 79.4754 107.205 80.2557 107.205C81.0436 107.205 81.7386 107.343 82.3409 107.619C82.947 107.896 83.4242 108.277 83.7727 108.761C84.1212 109.242 84.303 109.795 84.3182 110.42H82.625ZM91.9673 115.381V110.273H93.6719V119H92.0014V117.489H91.9105C91.7098 117.955 91.3878 118.343 90.9446 118.653C90.5052 118.96 89.9579 119.114 89.3026 119.114C88.742 119.114 88.2457 118.991 87.8139 118.744C87.3859 118.494 87.0488 118.125 86.8026 117.636C86.5601 117.148 86.4389 116.544 86.4389 115.824V110.273H88.1378V115.619C88.1378 116.214 88.3026 116.687 88.6321 117.04C88.9616 117.392 89.3897 117.568 89.9162 117.568C90.2344 117.568 90.5507 117.489 90.8651 117.33C91.1832 117.17 91.4465 116.93 91.6548 116.608C91.867 116.286 91.9711 115.877 91.9673 115.381ZM95.9545 122.273V110.273H97.6136V111.688H97.7557C97.8542 111.506 97.9962 111.295 98.1818 111.057C98.3674 110.818 98.625 110.61 98.9545 110.432C99.2841 110.25 99.7197 110.159 100.261 110.159C100.966 110.159 101.595 110.337 102.148 110.693C102.701 111.049 103.134 111.562 103.449 112.233C103.767 112.903 103.926 113.71 103.926 114.653C103.926 115.597 103.769 116.405 103.455 117.08C103.14 117.75 102.708 118.267 102.159 118.631C101.61 118.991 100.983 119.17 100.278 119.17C99.7481 119.17 99.3144 119.081 98.9773 118.903C98.6439 118.725 98.3826 118.517 98.1932 118.278C98.0038 118.04 97.858 117.828 97.7557 117.642H97.6534V122.273H95.9545ZM97.6193 114.636C97.6193 115.25 97.7083 115.788 97.8864 116.25C98.0644 116.712 98.322 117.074 98.6591 117.335C98.9962 117.593 99.4091 117.722 99.8977 117.722C100.405 117.722 100.83 117.587 101.17 117.318C101.511 117.045 101.769 116.676 101.943 116.21C102.121 115.744 102.21 115.22 102.21 114.636C102.21 114.061 102.123 113.544 101.949 113.085C101.778 112.627 101.521 112.265 101.176 112C100.835 111.735 100.409 111.602 99.8977 111.602C99.4053 111.602 98.9886 111.729 98.6477 111.983C98.3106 112.237 98.0549 112.591 97.8807 113.045C97.7064 113.5 97.6193 114.03 97.6193 114.636ZM105.83 122.273V110.273H107.489V111.688H107.631C107.729 111.506 107.871 111.295 108.057 111.057C108.242 110.818 108.5 110.61 108.83 110.432C109.159 110.25 109.595 110.159 110.136 110.159C110.841 110.159 111.47 110.337 112.023 110.693C112.576 111.049 113.009 111.562 113.324 112.233C113.642 112.903 113.801 113.71 113.801 114.653C113.801 115.597 113.644 116.405 113.33 117.08C113.015 117.75 112.583 118.267 112.034 118.631C111.485 118.991 110.858 119.17 110.153 119.17C109.623 119.17 109.189 119.081 108.852 118.903C108.519 118.725 108.258 118.517 108.068 118.278C107.879 118.04 107.733 117.828 107.631 117.642H107.528V122.273H105.83ZM107.494 114.636C107.494 115.25 107.583 115.788 107.761 116.25C107.939 116.712 108.197 117.074 108.534 117.335C108.871 117.593 109.284 117.722 109.773 117.722C110.28 117.722 110.705 117.587 111.045 117.318C111.386 117.045 111.644 116.676 111.818 116.21C111.996 115.744 112.085 115.22 112.085 114.636C112.085 114.061 111.998 113.544 111.824 113.085C111.653 112.627 111.396 112.265 111.051 112C110.71 111.735 110.284 111.602 109.773 111.602C109.28 111.602 108.864 111.729 108.523 111.983C108.186 112.237 107.93 112.591 107.756 113.045C107.581 113.5 107.494 114.03 107.494 114.636ZM119.381 119.176C118.563 119.176 117.848 118.989 117.239 118.614C116.629 118.239 116.155 117.714 115.818 117.04C115.481 116.366 115.312 115.578 115.312 114.676C115.312 113.771 115.481 112.979 115.818 112.301C116.155 111.623 116.629 111.097 117.239 110.722C117.848 110.347 118.563 110.159 119.381 110.159C120.199 110.159 120.913 110.347 121.523 110.722C122.133 111.097 122.606 111.623 122.943 112.301C123.28 112.979 123.449 113.771 123.449 114.676C123.449 115.578 123.28 116.366 122.943 117.04C122.606 117.714 122.133 118.239 121.523 118.614C120.913 118.989 120.199 119.176 119.381 119.176ZM119.386 117.75C119.917 117.75 120.356 117.61 120.705 117.33C121.053 117.049 121.311 116.676 121.477 116.21C121.648 115.744 121.733 115.231 121.733 114.67C121.733 114.114 121.648 113.602 121.477 113.136C121.311 112.667 121.053 112.29 120.705 112.006C120.356 111.722 119.917 111.58 119.386 111.58C118.852 111.58 118.409 111.722 118.057 112.006C117.708 112.29 117.449 112.667 117.278 113.136C117.112 113.602 117.028 114.114 117.028 114.67C117.028 115.231 117.112 115.744 117.278 116.21C117.449 116.676 117.708 117.049 118.057 117.33C118.409 117.61 118.852 117.75 119.386 117.75ZM125.345 119V110.273H126.987V111.659H127.078C127.237 111.189 127.518 110.82 127.919 110.551C128.324 110.278 128.783 110.142 129.294 110.142C129.4 110.142 129.525 110.146 129.669 110.153C129.817 110.161 129.932 110.17 130.016 110.182V111.807C129.947 111.788 129.826 111.767 129.652 111.744C129.478 111.718 129.304 111.705 129.129 111.705C128.728 111.705 128.37 111.79 128.055 111.96C127.745 112.127 127.499 112.36 127.317 112.659C127.135 112.955 127.044 113.292 127.044 113.67V119H125.345ZM136.075 110.273V111.636H131.308V110.273H136.075ZM132.587 108.182H134.286V116.438C134.286 116.767 134.335 117.015 134.433 117.182C134.532 117.345 134.659 117.456 134.814 117.517C134.973 117.574 135.145 117.602 135.331 117.602C135.467 117.602 135.587 117.593 135.689 117.574C135.791 117.555 135.871 117.54 135.928 117.528L136.234 118.932C136.136 118.97 135.996 119.008 135.814 119.045C135.632 119.087 135.405 119.11 135.132 119.114C134.685 119.121 134.268 119.042 133.882 118.875C133.496 118.708 133.183 118.451 132.945 118.102C132.706 117.754 132.587 117.316 132.587 116.79V108.182ZM142.325 119V107.364H144.081V117.489H149.354V119H142.325ZM154.896 119.176C154.078 119.176 153.364 118.989 152.754 118.614C152.144 118.239 151.671 117.714 151.334 117.04C150.997 116.366 150.828 115.578 150.828 114.676C150.828 113.771 150.997 112.979 151.334 112.301C151.671 111.623 152.144 111.097 152.754 110.722C153.364 110.347 154.078 110.159 154.896 110.159C155.714 110.159 156.429 110.347 157.038 110.722C157.648 111.097 158.122 111.623 158.459 112.301C158.796 112.979 158.964 113.771 158.964 114.676C158.964 115.578 158.796 116.366 158.459 117.04C158.122 117.714 157.648 118.239 157.038 118.614C156.429 118.989 155.714 119.176 154.896 119.176ZM154.902 117.75C155.432 117.75 155.872 117.61 156.22 117.33C156.569 117.049 156.826 116.676 156.993 116.21C157.163 115.744 157.249 115.231 157.249 114.67C157.249 114.114 157.163 113.602 156.993 113.136C156.826 112.667 156.569 112.29 156.22 112.006C155.872 111.722 155.432 111.58 154.902 111.58C154.368 111.58 153.925 111.722 153.572 112.006C153.224 112.29 152.964 112.667 152.794 113.136C152.627 113.602 152.544 114.114 152.544 114.67C152.544 115.231 152.627 115.744 152.794 116.21C152.964 116.676 153.224 117.049 153.572 117.33C153.925 117.61 154.368 117.75 154.902 117.75ZM164.537 119.176C163.692 119.176 162.965 118.985 162.355 118.602C161.749 118.216 161.283 117.684 160.957 117.006C160.632 116.328 160.469 115.551 160.469 114.676C160.469 113.79 160.635 113.008 160.969 112.33C161.302 111.648 161.772 111.116 162.378 110.733C162.984 110.35 163.698 110.159 164.52 110.159C165.183 110.159 165.774 110.282 166.293 110.528C166.812 110.771 167.23 111.112 167.548 111.551C167.87 111.991 168.062 112.504 168.122 113.091H166.469C166.378 112.682 166.17 112.33 165.844 112.034C165.522 111.739 165.09 111.591 164.548 111.591C164.075 111.591 163.66 111.716 163.304 111.966C162.952 112.212 162.677 112.564 162.48 113.023C162.283 113.477 162.185 114.015 162.185 114.636C162.185 115.273 162.281 115.822 162.474 116.284C162.668 116.746 162.94 117.104 163.293 117.358C163.649 117.612 164.067 117.739 164.548 117.739C164.87 117.739 165.162 117.68 165.423 117.562C165.688 117.441 165.91 117.269 166.088 117.045C166.27 116.822 166.397 116.553 166.469 116.239H168.122C168.062 116.803 167.878 117.307 167.571 117.75C167.264 118.193 166.853 118.542 166.338 118.795C165.827 119.049 165.226 119.176 164.537 119.176ZM172.479 119.193C171.926 119.193 171.426 119.091 170.979 118.886C170.532 118.678 170.178 118.377 169.916 117.983C169.659 117.589 169.53 117.106 169.53 116.534C169.53 116.042 169.625 115.636 169.814 115.318C170.003 115 170.259 114.748 170.581 114.562C170.903 114.377 171.263 114.237 171.661 114.142C172.058 114.047 172.464 113.975 172.876 113.926C173.399 113.866 173.823 113.816 174.149 113.778C174.475 113.737 174.712 113.67 174.859 113.58C175.007 113.489 175.081 113.341 175.081 113.136V113.097C175.081 112.6 174.941 112.216 174.661 111.943C174.384 111.67 173.971 111.534 173.422 111.534C172.85 111.534 172.399 111.661 172.07 111.915C171.744 112.165 171.518 112.443 171.393 112.75L169.797 112.386C169.986 111.856 170.263 111.428 170.626 111.102C170.994 110.773 171.416 110.534 171.893 110.386C172.371 110.235 172.873 110.159 173.399 110.159C173.748 110.159 174.117 110.201 174.507 110.284C174.901 110.364 175.268 110.511 175.609 110.727C175.954 110.943 176.236 111.252 176.456 111.653C176.676 112.051 176.786 112.568 176.786 113.205V119H175.126V117.807H175.058C174.948 118.027 174.784 118.242 174.564 118.455C174.344 118.667 174.062 118.843 173.717 118.983C173.373 119.123 172.96 119.193 172.479 119.193ZM172.848 117.83C173.318 117.83 173.719 117.737 174.053 117.551C174.39 117.366 174.645 117.123 174.82 116.824C174.998 116.521 175.087 116.197 175.087 115.852V114.727C175.026 114.788 174.909 114.845 174.734 114.898C174.564 114.947 174.369 114.991 174.149 115.028C173.929 115.062 173.715 115.095 173.507 115.125C173.299 115.152 173.125 115.174 172.984 115.193C172.655 115.235 172.354 115.305 172.081 115.403C171.812 115.502 171.596 115.644 171.433 115.83C171.274 116.011 171.195 116.254 171.195 116.557C171.195 116.977 171.35 117.295 171.661 117.511C171.971 117.723 172.367 117.83 172.848 117.83ZM180.747 107.364V119H179.048V107.364H180.747ZM187.403 119V107.364H191.665C192.491 107.364 193.174 107.5 193.716 107.773C194.258 108.042 194.663 108.407 194.932 108.869C195.201 109.328 195.335 109.845 195.335 110.42C195.335 110.905 195.246 111.314 195.068 111.648C194.89 111.977 194.652 112.242 194.352 112.443C194.057 112.64 193.731 112.784 193.375 112.875V112.989C193.761 113.008 194.138 113.133 194.506 113.364C194.877 113.591 195.184 113.915 195.426 114.335C195.669 114.756 195.79 115.267 195.79 115.869C195.79 116.464 195.65 116.998 195.369 117.472C195.093 117.941 194.665 118.314 194.085 118.591C193.506 118.864 192.765 119 191.864 119H187.403ZM189.159 117.494H191.693C192.534 117.494 193.136 117.331 193.5 117.006C193.864 116.68 194.045 116.273 194.045 115.784C194.045 115.417 193.953 115.08 193.767 114.773C193.581 114.466 193.316 114.222 192.972 114.04C192.631 113.858 192.225 113.767 191.756 113.767H189.159V117.494ZM189.159 112.398H191.511C191.905 112.398 192.259 112.322 192.574 112.17C192.892 112.019 193.144 111.807 193.33 111.534C193.519 111.258 193.614 110.932 193.614 110.557C193.614 110.076 193.445 109.672 193.108 109.347C192.771 109.021 192.254 108.858 191.557 108.858H189.159V112.398ZM203.264 115.381V110.273H204.969V119H203.298V117.489H203.207C203.007 117.955 202.685 118.343 202.241 118.653C201.802 118.96 201.255 119.114 200.599 119.114C200.039 119.114 199.543 118.991 199.111 118.744C198.683 118.494 198.346 118.125 198.099 117.636C197.857 117.148 197.736 116.544 197.736 115.824V110.273H199.435V115.619C199.435 116.214 199.599 116.687 199.929 117.04C200.259 117.392 200.687 117.568 201.213 117.568C201.531 117.568 201.848 117.489 202.162 117.33C202.48 117.17 202.743 116.93 202.952 116.608C203.164 116.286 203.268 115.877 203.264 115.381ZM213.791 112.403L212.251 112.676C212.187 112.479 212.085 112.292 211.945 112.114C211.808 111.936 211.623 111.79 211.388 111.676C211.153 111.562 210.859 111.506 210.507 111.506C210.026 111.506 209.625 111.614 209.303 111.83C208.981 112.042 208.82 112.316 208.82 112.653C208.82 112.945 208.928 113.18 209.143 113.358C209.359 113.536 209.708 113.682 210.189 113.795L211.575 114.114C212.378 114.299 212.977 114.585 213.371 114.972C213.765 115.358 213.962 115.86 213.962 116.477C213.962 117 213.81 117.466 213.507 117.875C213.208 118.28 212.789 118.598 212.251 118.83C211.717 119.061 211.098 119.176 210.393 119.176C209.416 119.176 208.619 118.968 208.001 118.551C207.384 118.131 207.005 117.534 206.865 116.761L208.507 116.511C208.609 116.939 208.82 117.263 209.138 117.483C209.456 117.699 209.871 117.807 210.382 117.807C210.939 117.807 211.384 117.691 211.717 117.46C212.051 117.225 212.217 116.939 212.217 116.602C212.217 116.33 212.115 116.1 211.911 115.915C211.71 115.729 211.401 115.589 210.984 115.494L209.507 115.17C208.693 114.985 208.09 114.689 207.7 114.284C207.314 113.879 207.121 113.366 207.121 112.744C207.121 112.229 207.265 111.778 207.553 111.392C207.84 111.006 208.238 110.705 208.746 110.489C209.253 110.269 209.835 110.159 210.49 110.159C211.433 110.159 212.176 110.364 212.717 110.773C213.259 111.178 213.617 111.722 213.791 112.403ZM215.83 119V110.273H217.528V119H215.83ZM216.688 108.926C216.392 108.926 216.138 108.828 215.926 108.631C215.718 108.43 215.614 108.191 215.614 107.915C215.614 107.634 215.718 107.396 215.926 107.199C216.138 106.998 216.392 106.898 216.688 106.898C216.983 106.898 217.235 106.998 217.443 107.199C217.655 107.396 217.761 107.634 217.761 107.915C217.761 108.191 217.655 108.43 217.443 108.631C217.235 108.828 216.983 108.926 216.688 108.926ZM221.513 113.818V119H219.814V110.273H221.445V111.693H221.553C221.753 111.231 222.068 110.86 222.496 110.58C222.928 110.299 223.471 110.159 224.126 110.159C224.721 110.159 225.242 110.284 225.689 110.534C226.136 110.78 226.482 111.148 226.729 111.636C226.975 112.125 227.098 112.729 227.098 113.449V119H225.399V113.653C225.399 113.021 225.234 112.527 224.905 112.17C224.575 111.811 224.123 111.631 223.547 111.631C223.153 111.631 222.803 111.716 222.496 111.886C222.193 112.057 221.952 112.307 221.774 112.636C221.6 112.962 221.513 113.356 221.513 113.818ZM233.138 119.176C232.278 119.176 231.537 118.992 230.916 118.625C230.299 118.254 229.821 117.733 229.484 117.062C229.151 116.388 228.984 115.598 228.984 114.693C228.984 113.799 229.151 113.011 229.484 112.33C229.821 111.648 230.291 111.116 230.893 110.733C231.5 110.35 232.208 110.159 233.018 110.159C233.511 110.159 233.988 110.241 234.45 110.403C234.912 110.566 235.327 110.822 235.695 111.17C236.062 111.519 236.352 111.972 236.564 112.528C236.776 113.081 236.882 113.754 236.882 114.545V115.148H229.945V113.875H235.217C235.217 113.428 235.126 113.032 234.945 112.688C234.763 112.339 234.507 112.064 234.178 111.864C233.852 111.663 233.469 111.562 233.03 111.562C232.553 111.562 232.136 111.68 231.78 111.915C231.428 112.146 231.155 112.449 230.962 112.824C230.772 113.195 230.678 113.598 230.678 114.034V115.028C230.678 115.612 230.78 116.108 230.984 116.517C231.193 116.926 231.482 117.239 231.854 117.455C232.225 117.667 232.659 117.773 233.155 117.773C233.477 117.773 233.77 117.727 234.036 117.636C234.301 117.542 234.53 117.402 234.723 117.216C234.916 117.03 235.064 116.801 235.166 116.528L236.774 116.818C236.645 117.292 236.414 117.706 236.081 118.062C235.751 118.415 235.337 118.689 234.837 118.886C234.34 119.08 233.774 119.176 233.138 119.176ZM245.307 112.403L243.767 112.676C243.703 112.479 243.6 112.292 243.46 112.114C243.324 111.936 243.138 111.79 242.903 111.676C242.669 111.562 242.375 111.506 242.023 111.506C241.542 111.506 241.14 111.614 240.818 111.83C240.496 112.042 240.335 112.316 240.335 112.653C240.335 112.945 240.443 113.18 240.659 113.358C240.875 113.536 241.223 113.682 241.705 113.795L243.091 114.114C243.894 114.299 244.492 114.585 244.886 114.972C245.28 115.358 245.477 115.86 245.477 116.477C245.477 117 245.326 117.466 245.023 117.875C244.723 118.28 244.305 118.598 243.767 118.83C243.233 119.061 242.614 119.176 241.909 119.176C240.932 119.176 240.134 118.968 239.517 118.551C238.9 118.131 238.521 117.534 238.381 116.761L240.023 116.511C240.125 116.939 240.335 117.263 240.653 117.483C240.972 117.699 241.386 117.807 241.898 117.807C242.455 117.807 242.9 117.691 243.233 117.46C243.566 117.225 243.733 116.939 243.733 116.602C243.733 116.33 243.631 116.1 243.426 115.915C243.225 115.729 242.917 115.589 242.5 115.494L241.023 115.17C240.208 114.985 239.606 114.689 239.216 114.284C238.83 113.879 238.636 113.366 238.636 112.744C238.636 112.229 238.78 111.778 239.068 111.392C239.356 111.006 239.754 110.705 240.261 110.489C240.769 110.269 241.35 110.159 242.006 110.159C242.949 110.159 243.691 110.364 244.233 110.773C244.775 111.178 245.133 111.722 245.307 112.403ZM253.885 112.403L252.345 112.676C252.281 112.479 252.179 112.292 252.038 112.114C251.902 111.936 251.716 111.79 251.482 111.676C251.247 111.562 250.953 111.506 250.601 111.506C250.12 111.506 249.718 111.614 249.396 111.83C249.074 112.042 248.913 112.316 248.913 112.653C248.913 112.945 249.021 113.18 249.237 113.358C249.453 113.536 249.802 113.682 250.283 113.795L251.669 114.114C252.472 114.299 253.071 114.585 253.464 114.972C253.858 115.358 254.055 115.86 254.055 116.477C254.055 117 253.904 117.466 253.601 117.875C253.302 118.28 252.883 118.598 252.345 118.83C251.811 119.061 251.192 119.176 250.487 119.176C249.51 119.176 248.713 118.968 248.095 118.551C247.478 118.131 247.099 117.534 246.959 116.761L248.601 116.511C248.703 116.939 248.913 117.263 249.232 117.483C249.55 117.699 249.964 117.807 250.476 117.807C251.033 117.807 251.478 117.691 251.811 117.46C252.144 117.225 252.311 116.939 252.311 116.602C252.311 116.33 252.209 116.1 252.004 115.915C251.804 115.729 251.495 115.589 251.078 115.494L249.601 115.17C248.786 114.985 248.184 114.689 247.794 114.284C247.408 113.879 247.214 113.366 247.214 112.744C247.214 112.229 247.358 111.778 247.646 111.392C247.934 111.006 248.332 110.705 248.839 110.489C249.347 110.269 249.929 110.159 250.584 110.159C251.527 110.159 252.269 110.364 252.811 110.773C253.353 111.178 253.711 111.722 253.885 112.403Z" fill="black"/>
<rect x="10" y="154" width="351" height="62" rx="8" fill="#F3F4F6"/>
<rect x="20" y="163" width="44" height="44" rx="13" fill="#FFE1C4"/>
<g clip-path="url(#clip0_234_1499)">
<g clip-path="url(#clip1_234_1499)">
<path d="M53.9456 183.969L52.6331 180.688C52.5218 180.41 52.3296 180.172 52.0816 180.005C51.8335 179.838 51.541 179.749 51.2419 179.75H48V179C48 178.801 47.921 178.61 47.7803 178.47C47.6397 178.329 47.4489 178.25 47.25 178.25H33C32.6022 178.25 32.2206 178.408 31.9393 178.689C31.658 178.971 31.5 179.352 31.5 179.75V190.25C31.5 190.648 31.658 191.029 31.9393 191.311C32.2206 191.592 32.6022 191.75 33 191.75H34.5938C34.759 192.395 35.1343 192.967 35.6605 193.376C36.1867 193.784 36.8339 194.006 37.5 194.006C38.1661 194.006 38.8133 193.784 39.3395 193.376C39.8657 192.967 40.241 192.395 40.4062 191.75H45.0938C45.259 192.395 45.6343 192.967 46.1605 193.376C46.6867 193.784 47.3339 194.006 48 194.006C48.6661 194.006 49.3133 193.784 49.8395 193.376C50.3657 192.967 50.741 192.395 50.9062 191.75H52.5C52.8978 191.75 53.2794 191.592 53.5607 191.311C53.842 191.029 54 190.648 54 190.25V184.25C54.0004 184.154 53.9819 184.058 53.9456 183.969ZM48 181.25H51.2419L52.1419 183.5H48V181.25ZM33 179.75H46.5V185.75H33V179.75ZM37.5 192.5C37.2033 192.5 36.9133 192.412 36.6666 192.247C36.42 192.082 36.2277 191.848 36.1142 191.574C36.0006 191.3 35.9709 190.998 36.0288 190.707C36.0867 190.416 36.2296 190.149 36.4393 189.939C36.6491 189.73 36.9164 189.587 37.2074 189.529C37.4983 189.471 37.7999 189.501 38.074 189.614C38.3481 189.728 38.5824 189.92 38.7472 190.167C38.912 190.413 39 190.703 39 191C39 191.398 38.842 191.779 38.5607 192.061C38.2794 192.342 37.8978 192.5 37.5 192.5ZM45.0938 190.25H40.4062C40.241 189.605 39.8657 189.033 39.3395 188.624C38.8133 188.216 38.1661 187.994 37.5 187.994C36.8339 187.994 36.1867 188.216 35.6605 188.624C35.1343 189.033 34.759 189.605 34.5938 190.25H33V187.25H46.5V188.404C46.1551 188.603 45.8532 188.869 45.6118 189.186C45.3704 189.503 45.1943 189.865 45.0938 190.25ZM48 192.5C47.7033 192.5 47.4133 192.412 47.1666 192.247C46.92 192.082 46.7277 191.848 46.6142 191.574C46.5006 191.3 46.4709 190.998 46.5288 190.707C46.5867 190.416 46.7296 190.149 46.9393 189.939C47.1491 189.73 47.4164 189.587 47.7074 189.529C47.9983 189.471 48.2999 189.501 48.574 189.614C48.8481 189.728 49.0824 189.92 49.2472 190.167C49.412 190.413 49.5 190.703 49.5 191C49.5 191.398 49.342 191.779 49.0607 192.061C48.7794 192.342 48.3978 192.5 48 192.5ZM52.5 190.25H50.9062C50.739 189.606 50.363 189.036 49.8371 188.629C49.3112 188.222 48.6651 188.001 48 188V185H52.5V190.25Z" fill="#FF7A18"/>
</g>
</g>
<path d="M76.2784 191V179.364H83.4943V180.875H78.0341V184.42H82.9773V185.926H78.0341V191H76.2784ZM88.0256 191.193C87.4725 191.193 86.9725 191.091 86.5256 190.886C86.0786 190.678 85.7244 190.377 85.4631 189.983C85.2055 189.589 85.0767 189.106 85.0767 188.534C85.0767 188.042 85.1714 187.636 85.3608 187.318C85.5502 187 85.8059 186.748 86.1278 186.562C86.4498 186.377 86.8097 186.237 87.2074 186.142C87.6051 186.047 88.0104 185.975 88.4233 185.926C88.946 185.866 89.3703 185.816 89.696 185.778C90.0218 185.737 90.2585 185.67 90.4062 185.58C90.554 185.489 90.6278 185.341 90.6278 185.136V185.097C90.6278 184.6 90.4877 184.216 90.2074 183.943C89.9309 183.67 89.518 183.534 88.9688 183.534C88.3968 183.534 87.946 183.661 87.6165 183.915C87.2907 184.165 87.0653 184.443 86.9403 184.75L85.3438 184.386C85.5331 183.856 85.8097 183.428 86.1733 183.102C86.5407 182.773 86.9631 182.534 87.4403 182.386C87.9176 182.235 88.4195 182.159 88.946 182.159C89.2945 182.159 89.6638 182.201 90.054 182.284C90.4479 182.364 90.8153 182.511 91.1562 182.727C91.5009 182.943 91.7831 183.252 92.0028 183.653C92.2225 184.051 92.3324 184.568 92.3324 185.205V191H90.6733V189.807H90.6051C90.4953 190.027 90.3305 190.242 90.1108 190.455C89.8911 190.667 89.6089 190.843 89.2642 190.983C88.9195 191.123 88.5066 191.193 88.0256 191.193ZM88.3949 189.83C88.8646 189.83 89.2661 189.737 89.5994 189.551C89.9366 189.366 90.1922 189.123 90.3665 188.824C90.5445 188.521 90.6335 188.197 90.6335 187.852V186.727C90.5729 186.788 90.4555 186.845 90.2812 186.898C90.1108 186.947 89.9157 186.991 89.696 187.028C89.4763 187.062 89.2623 187.095 89.054 187.125C88.8456 187.152 88.6714 187.174 88.5312 187.193C88.2017 187.235 87.9006 187.305 87.6278 187.403C87.3589 187.502 87.143 187.644 86.9801 187.83C86.821 188.011 86.7415 188.254 86.7415 188.557C86.7415 188.977 86.8968 189.295 87.2074 189.511C87.518 189.723 87.9138 189.83 88.3949 189.83ZM101.135 184.403L99.5952 184.676C99.5308 184.479 99.4285 184.292 99.2884 184.114C99.152 183.936 98.9664 183.79 98.7315 183.676C98.4967 183.562 98.2031 183.506 97.8509 183.506C97.3698 183.506 96.9683 183.614 96.6463 183.83C96.3243 184.042 96.1634 184.316 96.1634 184.653C96.1634 184.945 96.2713 185.18 96.4872 185.358C96.7031 185.536 97.0516 185.682 97.5327 185.795L98.919 186.114C99.7221 186.299 100.321 186.585 100.714 186.972C101.108 187.358 101.305 187.86 101.305 188.477C101.305 189 101.154 189.466 100.851 189.875C100.552 190.28 100.133 190.598 99.5952 190.83C99.0611 191.061 98.4418 191.176 97.7372 191.176C96.7599 191.176 95.9626 190.968 95.3452 190.551C94.7277 190.131 94.349 189.534 94.2088 188.761L95.8509 188.511C95.9531 188.939 96.1634 189.263 96.4815 189.483C96.7997 189.699 97.2145 189.807 97.7259 189.807C98.2827 189.807 98.7277 189.691 99.0611 189.46C99.3944 189.225 99.5611 188.939 99.5611 188.602C99.5611 188.33 99.4588 188.1 99.2543 187.915C99.0535 187.729 98.7448 187.589 98.3281 187.494L96.8509 187.17C96.0365 186.985 95.4342 186.689 95.044 186.284C94.6577 185.879 94.4645 185.366 94.4645 184.744C94.4645 184.229 94.6084 183.778 94.8963 183.392C95.1842 183.006 95.5819 182.705 96.0895 182.489C96.5971 182.269 97.1785 182.159 97.8338 182.159C98.777 182.159 99.5194 182.364 100.061 182.773C100.603 183.178 100.961 183.722 101.135 184.403ZM107.247 182.273V183.636H102.48V182.273H107.247ZM103.759 180.182H105.457V188.438C105.457 188.767 105.507 189.015 105.605 189.182C105.704 189.345 105.83 189.456 105.986 189.517C106.145 189.574 106.317 189.602 106.503 189.602C106.639 189.602 106.759 189.593 106.861 189.574C106.963 189.555 107.043 189.54 107.099 189.528L107.406 190.932C107.308 190.97 107.168 191.008 106.986 191.045C106.804 191.087 106.577 191.11 106.304 191.114C105.857 191.121 105.44 191.042 105.054 190.875C104.668 190.708 104.355 190.451 104.116 190.102C103.878 189.754 103.759 189.316 103.759 188.79V180.182ZM116.747 191.165C115.967 191.165 115.295 191.023 114.73 190.739C114.17 190.455 113.738 190.068 113.435 189.58C113.132 189.087 112.98 188.53 112.98 187.909C112.98 187.436 113.079 187.015 113.276 186.648C113.473 186.277 113.747 185.934 114.099 185.619C114.452 185.305 114.859 184.989 115.321 184.67L117.196 183.347C117.514 183.138 117.762 182.919 117.94 182.688C118.118 182.453 118.207 182.163 118.207 181.818C118.207 181.545 118.09 181.284 117.855 181.034C117.62 180.784 117.306 180.659 116.912 180.659C116.639 180.659 116.399 180.725 116.19 180.858C115.986 180.991 115.825 181.161 115.707 181.369C115.594 181.574 115.537 181.79 115.537 182.017C115.537 182.282 115.609 182.549 115.753 182.818C115.901 183.087 116.09 183.366 116.321 183.653C116.552 183.937 116.795 184.233 117.048 184.54L122.452 191H120.531L116.06 185.744C115.685 185.301 115.336 184.884 115.014 184.494C114.692 184.1 114.431 183.703 114.23 183.301C114.033 182.896 113.935 182.458 113.935 181.989C113.935 181.455 114.056 180.981 114.298 180.568C114.545 180.152 114.887 179.826 115.327 179.591C115.766 179.356 116.281 179.239 116.872 179.239C117.471 179.239 117.984 179.356 118.412 179.591C118.844 179.822 119.175 180.131 119.406 180.517C119.641 180.9 119.759 181.318 119.759 181.773C119.759 182.326 119.62 182.814 119.344 183.239C119.071 183.659 118.694 184.045 118.213 184.398L115.878 186.119C115.423 186.453 115.107 186.782 114.929 187.108C114.755 187.43 114.668 187.682 114.668 187.864C114.668 188.197 114.753 188.506 114.923 188.79C115.098 189.074 115.34 189.301 115.651 189.472C115.965 189.642 116.332 189.727 116.753 189.727C117.185 189.727 117.605 189.634 118.014 189.449C118.427 189.259 118.8 188.989 119.134 188.636C119.471 188.284 119.738 187.862 119.935 187.369C120.132 186.877 120.23 186.326 120.23 185.716H121.764C121.764 186.466 121.679 187.1 121.509 187.619C121.338 188.134 121.132 188.555 120.889 188.881C120.651 189.203 120.425 189.455 120.213 189.636C120.145 189.697 120.08 189.758 120.02 189.818C119.959 189.879 119.895 189.939 119.827 190C119.433 190.398 118.955 190.691 118.395 190.881C117.838 191.07 117.289 191.165 116.747 191.165ZM128.153 191V179.364H132.301C133.203 179.364 133.951 179.519 134.545 179.83C135.144 180.14 135.591 180.57 135.886 181.119C136.182 181.665 136.33 182.295 136.33 183.011C136.33 183.723 136.18 184.35 135.881 184.892C135.585 185.43 135.138 185.848 134.54 186.148C133.945 186.447 133.197 186.597 132.295 186.597H129.153V185.085H132.136C132.705 185.085 133.167 185.004 133.523 184.841C133.883 184.678 134.146 184.441 134.312 184.131C134.479 183.82 134.562 183.447 134.562 183.011C134.562 182.572 134.477 182.191 134.307 181.869C134.14 181.547 133.877 181.301 133.517 181.131C133.161 180.956 132.693 180.869 132.114 180.869H129.909V191H128.153ZM133.898 185.75L136.773 191H134.773L131.955 185.75H133.898ZM141.982 191.176C141.122 191.176 140.381 190.992 139.76 190.625C139.143 190.254 138.665 189.733 138.328 189.062C137.995 188.388 137.828 187.598 137.828 186.693C137.828 185.799 137.995 185.011 138.328 184.33C138.665 183.648 139.135 183.116 139.737 182.733C140.343 182.35 141.052 182.159 141.862 182.159C142.355 182.159 142.832 182.241 143.294 182.403C143.756 182.566 144.171 182.822 144.538 183.17C144.906 183.519 145.196 183.972 145.408 184.528C145.62 185.081 145.726 185.754 145.726 186.545V187.148H138.788V185.875H144.061C144.061 185.428 143.97 185.032 143.788 184.688C143.607 184.339 143.351 184.064 143.021 183.864C142.696 183.663 142.313 183.562 141.874 183.562C141.396 183.562 140.98 183.68 140.624 183.915C140.271 184.146 139.999 184.449 139.805 184.824C139.616 185.195 139.521 185.598 139.521 186.034V187.028C139.521 187.612 139.624 188.108 139.828 188.517C140.036 188.926 140.326 189.239 140.697 189.455C141.069 189.667 141.502 189.773 141.999 189.773C142.321 189.773 142.614 189.727 142.879 189.636C143.144 189.542 143.374 189.402 143.567 189.216C143.76 189.03 143.908 188.801 144.01 188.528L145.618 188.818C145.489 189.292 145.258 189.706 144.925 190.062C144.595 190.415 144.18 190.689 143.68 190.886C143.184 191.08 142.618 191.176 141.982 191.176ZM149.31 179.364V191H147.611V179.364H149.31ZM151.595 191V182.273H153.294V191H151.595ZM152.453 180.926C152.158 180.926 151.904 180.828 151.692 180.631C151.483 180.43 151.379 180.191 151.379 179.915C151.379 179.634 151.483 179.396 151.692 179.199C151.904 178.998 152.158 178.898 152.453 178.898C152.749 178.898 153 178.998 153.209 179.199C153.421 179.396 153.527 179.634 153.527 179.915C153.527 180.191 153.421 180.43 153.209 180.631C153 180.828 152.749 180.926 152.453 180.926ZM158.119 191.193C157.566 191.193 157.066 191.091 156.619 190.886C156.172 190.678 155.818 190.377 155.557 189.983C155.299 189.589 155.17 189.106 155.17 188.534C155.17 188.042 155.265 187.636 155.455 187.318C155.644 187 155.9 186.748 156.222 186.562C156.544 186.377 156.903 186.237 157.301 186.142C157.699 186.047 158.104 185.975 158.517 185.926C159.04 185.866 159.464 185.816 159.79 185.778C160.116 185.737 160.352 185.67 160.5 185.58C160.648 185.489 160.722 185.341 160.722 185.136V185.097C160.722 184.6 160.581 184.216 160.301 183.943C160.025 183.67 159.612 183.534 159.062 183.534C158.491 183.534 158.04 183.661 157.71 183.915C157.384 184.165 157.159 184.443 157.034 184.75L155.438 184.386C155.627 183.856 155.903 183.428 156.267 183.102C156.634 182.773 157.057 182.534 157.534 182.386C158.011 182.235 158.513 182.159 159.04 182.159C159.388 182.159 159.758 182.201 160.148 182.284C160.542 182.364 160.909 182.511 161.25 182.727C161.595 182.943 161.877 183.252 162.097 183.653C162.316 184.051 162.426 184.568 162.426 185.205V191H160.767V189.807H160.699C160.589 190.027 160.424 190.242 160.205 190.455C159.985 190.667 159.703 190.843 159.358 190.983C159.013 191.123 158.6 191.193 158.119 191.193ZM158.489 189.83C158.958 189.83 159.36 189.737 159.693 189.551C160.03 189.366 160.286 189.123 160.46 188.824C160.638 188.521 160.727 188.197 160.727 187.852V186.727C160.667 186.788 160.549 186.845 160.375 186.898C160.205 186.947 160.009 186.991 159.79 187.028C159.57 187.062 159.356 187.095 159.148 187.125C158.939 187.152 158.765 187.174 158.625 187.193C158.295 187.235 157.994 187.305 157.722 187.403C157.453 187.502 157.237 187.644 157.074 187.83C156.915 188.011 156.835 188.254 156.835 188.557C156.835 188.977 156.991 189.295 157.301 189.511C157.612 189.723 158.008 189.83 158.489 189.83ZM164.825 191V179.364H166.524V183.688H166.626C166.725 183.506 166.867 183.295 167.053 183.057C167.238 182.818 167.496 182.61 167.825 182.432C168.155 182.25 168.59 182.159 169.132 182.159C169.837 182.159 170.465 182.337 171.018 182.693C171.571 183.049 172.005 183.562 172.32 184.233C172.638 184.903 172.797 185.71 172.797 186.653C172.797 187.597 172.64 188.405 172.325 189.08C172.011 189.75 171.579 190.267 171.03 190.631C170.481 190.991 169.854 191.17 169.149 191.17C168.619 191.17 168.185 191.081 167.848 190.903C167.515 190.725 167.253 190.517 167.064 190.278C166.875 190.04 166.729 189.828 166.626 189.642H166.484V191H164.825ZM166.49 186.636C166.49 187.25 166.579 187.788 166.757 188.25C166.935 188.712 167.193 189.074 167.53 189.335C167.867 189.593 168.28 189.722 168.768 189.722C169.276 189.722 169.7 189.587 170.041 189.318C170.382 189.045 170.64 188.676 170.814 188.21C170.992 187.744 171.081 187.22 171.081 186.636C171.081 186.061 170.994 185.544 170.82 185.085C170.649 184.627 170.392 184.265 170.047 184C169.706 183.735 169.28 183.602 168.768 183.602C168.276 183.602 167.859 183.729 167.518 183.983C167.181 184.237 166.926 184.591 166.751 185.045C166.577 185.5 166.49 186.03 166.49 186.636ZM176.403 179.364V191H174.705V179.364H176.403ZM182.45 191.176C181.59 191.176 180.85 190.992 180.229 190.625C179.611 190.254 179.134 189.733 178.797 189.062C178.464 188.388 178.297 187.598 178.297 186.693C178.297 185.799 178.464 185.011 178.797 184.33C179.134 183.648 179.604 183.116 180.206 182.733C180.812 182.35 181.52 182.159 182.331 182.159C182.823 182.159 183.301 182.241 183.763 182.403C184.225 182.566 184.64 182.822 185.007 183.17C185.375 183.519 185.664 183.972 185.876 184.528C186.089 185.081 186.195 185.754 186.195 186.545V187.148H179.257V185.875H184.53C184.53 185.428 184.439 185.032 184.257 184.688C184.075 184.339 183.82 184.064 183.49 183.864C183.164 183.663 182.782 183.562 182.342 183.562C181.865 183.562 181.448 183.68 181.092 183.915C180.74 184.146 180.467 184.449 180.274 184.824C180.085 185.195 179.99 185.598 179.99 186.034V187.028C179.99 187.612 180.092 188.108 180.297 188.517C180.505 188.926 180.795 189.239 181.166 189.455C181.537 189.667 181.971 189.773 182.467 189.773C182.789 189.773 183.083 189.727 183.348 189.636C183.613 189.542 183.842 189.402 184.036 189.216C184.229 189.03 184.376 188.801 184.479 188.528L186.087 188.818C185.958 189.292 185.727 189.706 185.393 190.062C185.064 190.415 184.649 190.689 184.149 190.886C183.653 191.08 183.087 191.176 182.45 191.176ZM196.217 191H192.45V179.364H196.337C197.477 179.364 198.456 179.597 199.274 180.062C200.092 180.525 200.719 181.189 201.155 182.057C201.594 182.92 201.814 183.956 201.814 185.165C201.814 186.377 201.592 187.419 201.149 188.29C200.71 189.161 200.073 189.831 199.24 190.301C198.407 190.767 197.399 191 196.217 191ZM194.206 189.466H196.121C197.007 189.466 197.744 189.299 198.331 188.966C198.918 188.629 199.357 188.142 199.649 187.506C199.941 186.866 200.087 186.085 200.087 185.165C200.087 184.252 199.941 183.477 199.649 182.841C199.361 182.205 198.931 181.722 198.359 181.392C197.787 181.062 197.077 180.898 196.229 180.898H194.206V189.466ZM207.622 191.176C206.762 191.176 206.022 190.992 205.401 190.625C204.783 190.254 204.306 189.733 203.969 189.062C203.635 188.388 203.469 187.598 203.469 186.693C203.469 185.799 203.635 185.011 203.969 184.33C204.306 183.648 204.776 183.116 205.378 182.733C205.984 182.35 206.692 182.159 207.503 182.159C207.995 182.159 208.473 182.241 208.935 182.403C209.397 182.566 209.812 182.822 210.179 183.17C210.546 183.519 210.836 183.972 211.048 184.528C211.26 185.081 211.366 185.754 211.366 186.545V187.148H204.429V185.875H209.702C209.702 185.428 209.611 185.032 209.429 184.688C209.247 184.339 208.991 184.064 208.662 183.864C208.336 183.663 207.954 183.562 207.514 183.562C207.037 183.562 206.62 183.68 206.264 183.915C205.912 184.146 205.639 184.449 205.446 184.824C205.257 185.195 205.162 185.598 205.162 186.034V187.028C205.162 187.612 205.264 188.108 205.469 188.517C205.677 188.926 205.967 189.239 206.338 189.455C206.709 189.667 207.143 189.773 207.639 189.773C207.961 189.773 208.255 189.727 208.52 189.636C208.785 189.542 209.014 189.402 209.207 189.216C209.401 189.03 209.548 188.801 209.651 188.528L211.259 188.818C211.13 189.292 210.899 189.706 210.565 190.062C210.236 190.415 209.821 190.689 209.321 190.886C208.825 191.08 208.259 191.176 207.622 191.176ZM214.95 179.364V191H213.251V179.364H214.95ZM217.236 191V182.273H218.935V191H217.236ZM218.094 180.926C217.798 180.926 217.545 180.828 217.332 180.631C217.124 180.43 217.02 180.191 217.02 179.915C217.02 179.634 217.124 179.396 217.332 179.199C217.545 178.998 217.798 178.898 218.094 178.898C218.389 178.898 218.641 178.998 218.849 179.199C219.062 179.396 219.168 179.634 219.168 179.915C219.168 180.191 219.062 180.43 218.849 180.631C218.641 180.828 218.389 180.926 218.094 180.926ZM228.686 182.273L225.521 191H223.703L220.533 182.273H222.357L224.567 188.989H224.658L226.862 182.273H228.686ZM233.747 191.176C232.887 191.176 232.147 190.992 231.526 190.625C230.908 190.254 230.431 189.733 230.094 189.062C229.76 188.388 229.594 187.598 229.594 186.693C229.594 185.799 229.76 185.011 230.094 184.33C230.431 183.648 230.901 183.116 231.503 182.733C232.109 182.35 232.817 182.159 233.628 182.159C234.12 182.159 234.598 182.241 235.06 182.403C235.522 182.566 235.937 182.822 236.304 183.17C236.671 183.519 236.961 183.972 237.173 184.528C237.385 185.081 237.491 185.754 237.491 186.545V187.148H230.554V185.875H235.827C235.827 185.428 235.736 185.032 235.554 184.688C235.372 184.339 235.116 184.064 234.787 183.864C234.461 183.663 234.079 183.562 233.639 183.562C233.162 183.562 232.745 183.68 232.389 183.915C232.037 184.146 231.764 184.449 231.571 184.824C231.382 185.195 231.287 185.598 231.287 186.034V187.028C231.287 187.612 231.389 188.108 231.594 188.517C231.802 188.926 232.092 189.239 232.463 189.455C232.834 189.667 233.268 189.773 233.764 189.773C234.086 189.773 234.38 189.727 234.645 189.636C234.91 189.542 235.139 189.402 235.332 189.216C235.526 189.03 235.673 188.801 235.776 188.528L237.384 188.818C237.255 189.292 237.024 189.706 236.69 190.062C236.361 190.415 235.946 190.689 235.446 190.886C234.95 191.08 234.384 191.176 233.747 191.176ZM239.376 191V182.273H241.018V183.659H241.109C241.268 183.189 241.549 182.82 241.95 182.551C242.356 182.278 242.814 182.142 243.325 182.142C243.431 182.142 243.556 182.146 243.7 182.153C243.848 182.161 243.964 182.17 244.047 182.182V183.807C243.979 183.788 243.857 183.767 243.683 183.744C243.509 183.718 243.335 183.705 243.161 183.705C242.759 183.705 242.401 183.79 242.087 183.96C241.776 184.127 241.53 184.36 241.348 184.659C241.166 184.955 241.075 185.292 241.075 185.67V191H239.376ZM246.857 194.273C246.603 194.273 246.372 194.252 246.163 194.21C245.955 194.172 245.8 194.131 245.697 194.085L246.107 192.693C246.417 192.777 246.694 192.813 246.936 192.801C247.179 192.79 247.393 192.699 247.578 192.528C247.768 192.358 247.934 192.08 248.078 191.693L248.288 191.114L245.095 182.273H246.913L249.124 189.045H249.214L251.425 182.273H253.249L249.652 192.165C249.485 192.619 249.273 193.004 249.016 193.318C248.758 193.636 248.451 193.875 248.095 194.034C247.739 194.193 247.326 194.273 246.857 194.273Z" fill="black"/>
<defs>
<clipPath id="clip0_234_1499">
<rect width="24" height="24" fill="white" transform="translate(30 173)"/>
</clipPath>
<clipPath id="clip1_234_1499">
<rect width="24" height="24" fill="white" transform="translate(30 173)"/>
</clipPath>
</defs>
</svg>
