<svg width="193" height="158" viewBox="0 0 193 158" fill="none" xmlns="http://www.w3.org/2000/svg">
<path d="M24.1733 6.45455H26.7869V16.6818C26.7822 17.6193 26.5833 18.4266 26.1903 19.1037C25.7973 19.776 25.2481 20.2945 24.5426 20.6591C23.8419 21.0189 23.0251 21.1989 22.0923 21.1989C21.2401 21.1989 20.473 21.0473 19.7912 20.7443C19.1141 20.4366 18.5767 19.982 18.179 19.3807C17.7813 18.7794 17.5824 18.0312 17.5824 17.1364H20.2031C20.2079 17.5294 20.2931 17.8679 20.4588 18.152C20.6293 18.4361 20.8636 18.6539 21.1619 18.8054C21.4602 18.9569 21.8035 19.0327 22.1918 19.0327C22.6132 19.0327 22.9706 18.9451 23.2642 18.7699C23.5578 18.59 23.7803 18.3248 23.9318 17.9744C24.0881 17.6241 24.1686 17.1932 24.1733 16.6818V6.45455ZM34.2905 21.2131C33.2251 21.2131 32.3018 20.9787 31.5206 20.5099C30.7393 20.0412 30.1333 19.3854 29.7024 18.5426C29.2763 17.6998 29.0632 16.715 29.0632 15.5881C29.0632 14.4612 29.2763 13.474 29.7024 12.6264C30.1333 11.7789 30.7393 11.1207 31.5206 10.652C32.3018 10.1832 33.2251 9.94886 34.2905 9.94886C35.3558 9.94886 36.2791 10.1832 37.0604 10.652C37.8416 11.1207 38.4453 11.7789 38.8714 12.6264C39.3023 13.474 39.5178 14.4612 39.5178 15.5881C39.5178 16.715 39.3023 17.6998 38.8714 18.5426C38.4453 19.3854 37.8416 20.0412 37.0604 20.5099C36.2791 20.9787 35.3558 21.2131 34.2905 21.2131ZM34.3047 19.1534C34.8823 19.1534 35.3653 18.9948 35.7536 18.6776C36.1418 18.3556 36.4306 17.9247 36.62 17.3849C36.8142 16.8452 36.9112 16.2438 36.9112 15.581C36.9112 14.9134 36.8142 14.3097 36.62 13.7699C36.4306 13.2254 36.1418 12.7921 35.7536 12.4702C35.3653 12.1482 34.8823 11.9872 34.3047 11.9872C33.7128 11.9872 33.2204 12.1482 32.8274 12.4702C32.4392 12.7921 32.148 13.2254 31.9538 13.7699C31.7644 14.3097 31.6697 14.9134 31.6697 15.581C31.6697 16.2438 31.7644 16.8452 31.9538 17.3849C32.148 17.9247 32.4392 18.3556 32.8274 18.6776C33.2204 18.9948 33.7128 19.1534 34.3047 19.1534ZM44.271 6.45455V21H41.6999V6.45455H44.271ZM49.4858 6.45455V21H46.9148V6.45455H49.4858ZM56.8881 21.2131C55.8228 21.2131 54.8995 20.9787 54.1183 20.5099C53.337 20.0412 52.7309 19.3854 52.3001 18.5426C51.8739 17.6998 51.6609 16.715 51.6609 15.5881C51.6609 14.4612 51.8739 13.474 52.3001 12.6264C52.7309 11.7789 53.337 11.1207 54.1183 10.652C54.8995 10.1832 55.8228 9.94886 56.8881 9.94886C57.9535 9.94886 58.8768 10.1832 59.658 10.652C60.4393 11.1207 61.043 11.7789 61.4691 12.6264C61.9 13.474 62.1154 14.4612 62.1154 15.5881C62.1154 16.715 61.9 17.6998 61.4691 18.5426C61.043 19.3854 60.4393 20.0412 59.658 20.5099C58.8768 20.9787 57.9535 21.2131 56.8881 21.2131ZM56.9023 19.1534C57.48 19.1534 57.9629 18.9948 58.3512 18.6776C58.7395 18.3556 59.0283 17.9247 59.2177 17.3849C59.4118 16.8452 59.5089 16.2438 59.5089 15.581C59.5089 14.9134 59.4118 14.3097 59.2177 13.7699C59.0283 13.2254 58.7395 12.7921 58.3512 12.4702C57.9629 12.1482 57.48 11.9872 56.9023 11.9872C56.3105 11.9872 55.8181 12.1482 55.4251 12.4702C55.0368 12.7921 54.7456 13.2254 54.5515 13.7699C54.3621 14.3097 54.2674 14.9134 54.2674 15.581C54.2674 16.2438 54.3621 16.8452 54.5515 17.3849C54.7456 17.9247 55.0368 18.3556 55.4251 18.6776C55.8181 18.9948 56.3105 19.1534 56.9023 19.1534ZM69.8232 10.0909V12.0795H63.3743V10.0909H69.8232ZM64.9865 21V9.06108C64.9865 8.32718 65.138 7.71638 65.4411 7.22869C65.7488 6.741 66.1607 6.37642 66.6768 6.13494C67.1929 5.89347 67.7659 5.77273 68.3956 5.77273C68.8407 5.77273 69.236 5.80824 69.5817 5.87926C69.9273 5.95028 70.183 6.0142 70.3487 6.07102L69.8374 8.05966C69.7285 8.02651 69.5911 7.99337 69.4254 7.96023C69.2597 7.92235 69.075 7.90341 68.8714 7.90341C68.3932 7.90341 68.0547 8.01941 67.8558 8.25142C67.6617 8.47869 67.5646 8.8054 67.5646 9.23153V21H64.9865ZM76.9112 21V6.45455H82.3658C83.4832 6.45455 84.4207 6.64867 85.1783 7.03693C85.9406 7.42519 86.5159 7.9697 86.9041 8.67045C87.2971 9.36648 87.4936 10.1785 87.4936 11.1065C87.4936 12.0393 87.2947 12.849 86.897 13.5355C86.504 14.2173 85.924 14.7453 85.157 15.1193C84.3899 15.4886 83.4477 15.6733 82.3303 15.6733H78.4453V13.4858H81.9751C82.6286 13.4858 83.1636 13.3958 83.5803 13.2159C83.9969 13.0312 84.3047 12.7637 84.5036 12.4134C84.7071 12.0582 84.8089 11.6226 84.8089 11.1065C84.8089 10.5904 84.7071 10.1501 84.5036 9.78551C84.3 9.41619 83.9898 9.13684 83.5732 8.94744C83.1565 8.75331 82.6191 8.65625 81.9609 8.65625H79.5462V21H76.9112ZM84.4254 14.4091L88.0263 21H85.0859L81.549 14.4091H84.4254ZM89.8054 21V10.0909H92.3764V21H89.8054ZM91.098 8.54261C90.6908 8.54261 90.3404 8.40767 90.0469 8.13778C89.7533 7.86316 89.6065 7.53409 89.6065 7.15057C89.6065 6.76231 89.7533 6.43324 90.0469 6.16335C90.3404 5.88873 90.6908 5.75142 91.098 5.75142C91.5099 5.75142 91.8603 5.88873 92.1491 6.16335C92.4427 6.43324 92.5895 6.76231 92.5895 7.15057C92.5895 7.53409 92.4427 7.86316 92.1491 8.13778C91.8603 8.40767 91.5099 8.54261 91.098 8.54261ZM99.7788 21.2131C98.6897 21.2131 97.7546 20.974 96.9734 20.4957C96.1969 20.0175 95.5979 19.357 95.1765 18.5142C94.7598 17.6667 94.5515 16.6913 94.5515 15.5881C94.5515 14.4801 94.7646 13.5024 95.1907 12.6548C95.6168 11.8026 96.2182 11.1397 96.9947 10.6662C97.7759 10.188 98.6992 9.94886 99.7646 9.94886C100.65 9.94886 101.434 10.1122 102.115 10.4389C102.802 10.7609 103.349 11.2178 103.756 11.8097C104.163 12.3968 104.395 13.0833 104.452 13.8693H101.995C101.895 13.3437 101.658 12.9058 101.284 12.5554C100.915 12.2003 100.42 12.0227 99.8001 12.0227C99.2745 12.0227 98.8129 12.1648 98.4151 12.4489C98.0174 12.7282 97.7073 13.1307 97.4847 13.6562C97.2669 14.1818 97.158 14.8116 97.158 15.5455C97.158 16.2888 97.2669 16.928 97.4847 17.4631C97.7025 17.9934 98.0079 18.4029 98.4009 18.6918C98.7987 18.9759 99.265 19.1179 99.8001 19.1179C100.179 19.1179 100.517 19.0469 100.816 18.9048C101.119 18.758 101.372 18.5473 101.576 18.2727C101.779 17.9981 101.919 17.6643 101.995 17.2713H104.452C104.391 18.0431 104.163 18.7273 103.77 19.3239C103.377 19.9157 102.842 20.3797 102.165 20.7159C101.488 21.0473 100.693 21.2131 99.7788 21.2131ZM111.393 21.2131C110.299 21.2131 109.354 20.9858 108.559 20.5312C107.768 20.072 107.16 19.4233 106.734 18.5852C106.308 17.7424 106.094 16.7505 106.094 15.6094C106.094 14.4872 106.308 13.5024 106.734 12.6548C107.165 11.8026 107.766 11.1397 108.538 10.6662C109.309 10.188 110.216 9.94886 111.258 9.94886C111.93 9.94886 112.565 10.0578 113.161 10.2756C113.763 10.4886 114.293 10.8201 114.752 11.2699C115.216 11.7197 115.581 12.2926 115.846 12.9886C116.111 13.6799 116.244 14.5038 116.244 15.4602V16.2486H107.302V14.5156H113.779C113.774 14.0232 113.668 13.5852 113.46 13.2017C113.251 12.8134 112.96 12.508 112.586 12.2855C112.217 12.063 111.786 11.9517 111.293 11.9517C110.768 11.9517 110.306 12.0795 109.908 12.3352C109.511 12.5862 109.201 12.9176 108.978 13.3295C108.76 13.7367 108.649 14.1842 108.644 14.6719V16.1847C108.644 16.8191 108.76 17.3636 108.992 17.8182C109.224 18.268 109.549 18.6136 109.965 18.8551C110.382 19.0919 110.87 19.2102 111.428 19.2102C111.802 19.2102 112.141 19.1581 112.444 19.054C112.747 18.9451 113.01 18.7865 113.232 18.5781C113.455 18.3698 113.623 18.1117 113.737 17.804L116.137 18.0739C115.986 18.7083 115.697 19.2623 115.271 19.7358C114.849 20.2045 114.309 20.5691 113.651 20.8295C112.993 21.0852 112.24 21.2131 111.393 21.2131ZM127.726 21.2131C126.732 21.2131 125.877 21.0331 125.162 20.6733C124.447 20.3134 123.896 19.8281 123.507 19.2173C123.124 18.6018 122.932 17.9081 122.932 17.1364C122.932 16.554 123.051 16.0379 123.287 15.5881C123.529 15.1383 123.86 14.7216 124.282 14.3381C124.708 13.9545 125.2 13.5734 125.759 13.1946L128.337 11.4403C128.716 11.1941 129.002 10.9337 129.196 10.6591C129.395 10.3845 129.495 10.0625 129.495 9.69318C129.495 9.38068 129.362 9.08475 129.097 8.8054C128.837 8.52604 128.477 8.38636 128.017 8.38636C127.71 8.38636 127.437 8.45975 127.201 8.60653C126.969 8.74858 126.786 8.93561 126.654 9.16761C126.526 9.39962 126.462 9.64583 126.462 9.90625C126.462 10.2235 126.55 10.5455 126.725 10.8722C126.905 11.1989 127.137 11.5374 127.421 11.8878C127.71 12.2382 128.017 12.6098 128.344 13.0028L135.169 21H132.385L126.718 14.5085C126.296 14.0161 125.889 13.5308 125.496 13.0526C125.108 12.5743 124.788 12.0772 124.537 11.5611C124.291 11.0402 124.168 10.4768 124.168 9.87074C124.168 9.18419 124.327 8.57102 124.644 8.03125C124.961 7.48674 125.404 7.05824 125.972 6.74574C126.545 6.43324 127.215 6.27699 127.982 6.27699C128.749 6.27699 129.407 6.4285 129.956 6.73153C130.506 7.03456 130.929 7.43703 131.228 7.93892C131.526 8.44081 131.675 8.98769 131.675 9.57955C131.675 10.2661 131.505 10.8816 131.164 11.4261C130.823 11.9659 130.349 12.456 129.743 12.8963L126.803 15.0483C126.32 15.3987 125.974 15.7538 125.766 16.1136C125.558 16.4687 125.453 16.7718 125.453 17.0227C125.453 17.4062 125.551 17.7543 125.745 18.0668C125.939 18.3793 126.211 18.6302 126.561 18.8196C126.917 19.0043 127.331 19.0966 127.804 19.0966C128.325 19.0966 128.839 18.9806 129.346 18.7486C129.852 18.5118 130.314 18.1757 130.73 17.7401C131.147 17.3045 131.479 16.7836 131.725 16.1776C131.971 15.5668 132.094 14.8897 132.094 14.1463H134.303C134.303 15.0649 134.201 15.8651 133.998 16.5469C133.794 17.224 133.531 17.7969 133.209 18.2656C132.887 18.7296 132.546 19.1013 132.186 19.3807C132.073 19.4612 131.964 19.5417 131.86 19.6222C131.756 19.7027 131.647 19.7831 131.533 19.8636C131.022 20.3277 130.423 20.6686 129.736 20.8864C129.054 21.1042 128.384 21.2131 127.726 21.2131ZM18.4347 49V34.4545H27.7528V36.6634H21.0696V40.6122H27.1136V42.821H21.0696V49H18.4347ZM29.8835 49V38.0909H32.3764V39.9091H32.4901C32.6889 39.2794 33.0298 38.794 33.5128 38.4531C34.0005 38.1075 34.5568 37.9347 35.1818 37.9347C35.3239 37.9347 35.4825 37.9418 35.6577 37.956C35.8376 37.9654 35.9867 37.982 36.1051 38.0057V40.3707C35.9962 40.3329 35.8234 40.2997 35.5866 40.2713C35.3546 40.2382 35.1297 40.2216 34.9119 40.2216C34.4432 40.2216 34.0218 40.3234 33.6477 40.527C33.2784 40.7259 32.9872 41.0028 32.7741 41.358C32.5611 41.7131 32.4545 42.1226 32.4545 42.5866V49H29.8835ZM37.8132 49V38.0909H40.3842V49H37.8132ZM39.1058 36.5426C38.6986 36.5426 38.3482 36.4077 38.0547 36.1378C37.7611 35.8632 37.6143 35.5341 37.6143 35.1506C37.6143 34.7623 37.7611 34.4332 38.0547 34.1634C38.3482 33.8887 38.6986 33.7514 39.1058 33.7514C39.5178 33.7514 39.8681 33.8887 40.157 34.1634C40.4505 34.4332 40.5973 34.7623 40.5973 35.1506C40.5973 35.5341 40.4505 35.8632 40.157 36.1378C39.8681 36.4077 39.5178 36.5426 39.1058 36.5426ZM47.8576 49.2131C46.7638 49.2131 45.8192 48.9858 45.0238 48.5312C44.2331 48.072 43.6246 47.4233 43.1985 46.5852C42.7724 45.7424 42.5593 44.7505 42.5593 43.6094C42.5593 42.4872 42.7724 41.5024 43.1985 40.6548C43.6294 39.8026 44.2307 39.1397 45.0025 38.6662C45.7743 38.188 46.681 37.9489 47.7227 37.9489C48.395 37.9489 49.0295 38.0578 49.6261 38.2756C50.2274 38.4886 50.7577 38.8201 51.217 39.2699C51.681 39.7197 52.0456 40.2926 52.3107 40.9886C52.5759 41.6799 52.7085 42.5038 52.7085 43.4602V44.2486H43.7667V42.5156H50.244C50.2392 42.0232 50.1327 41.5852 49.9244 41.2017C49.716 40.8134 49.4248 40.508 49.0508 40.2855C48.6815 40.063 48.2506 39.9517 47.7582 39.9517C47.2326 39.9517 46.771 40.0795 46.3732 40.3352C45.9755 40.5862 45.6654 40.9176 45.4428 41.3295C45.225 41.7367 45.1138 42.1842 45.109 42.6719V44.1847C45.109 44.8191 45.225 45.3636 45.457 45.8182C45.689 46.268 46.0134 46.6136 46.43 46.8551C46.8467 47.0919 47.3344 47.2102 47.8931 47.2102C48.2672 47.2102 48.6057 47.1581 48.9087 47.054C49.2118 46.9451 49.4746 46.7865 49.6971 46.5781C49.9196 46.3698 50.0877 46.1117 50.2013 45.804L52.6019 46.0739C52.4504 46.7083 52.1616 47.2623 51.7354 47.7358C51.314 48.2045 50.7743 48.5691 50.1161 48.8295C49.458 49.0852 48.7051 49.2131 47.8576 49.2131ZM58.9318 49.1918C58.0748 49.1918 57.3078 48.9716 56.6307 48.5312C55.9536 48.0909 55.4186 47.4517 55.0256 46.6136C54.6326 45.7756 54.4361 44.7576 54.4361 43.5597C54.4361 42.3475 54.6349 41.3248 55.0327 40.4915C55.4351 39.6534 55.9773 39.0213 56.6591 38.5952C57.3409 38.1643 58.1009 37.9489 58.9389 37.9489C59.5781 37.9489 60.1037 38.0578 60.5156 38.2756C60.9276 38.4886 61.2543 38.7467 61.4957 39.0497C61.7372 39.348 61.9242 39.6297 62.0568 39.8949H62.1634V34.4545H64.7415V49H62.2131V47.2812H62.0568C61.9242 47.5464 61.7325 47.8281 61.4815 48.1264C61.2306 48.42 60.8991 48.6709 60.4872 48.8793C60.0753 49.0876 59.5568 49.1918 58.9318 49.1918ZM59.6491 47.0824C60.1937 47.0824 60.6577 46.9356 61.0412 46.642C61.4247 46.3437 61.7159 45.9295 61.9148 45.3991C62.1136 44.8688 62.2131 44.2509 62.2131 43.5455C62.2131 42.84 62.1136 42.2268 61.9148 41.706C61.7206 41.1851 61.4318 40.7803 61.0483 40.4915C60.6695 40.2027 60.2031 40.0582 59.6491 40.0582C59.0762 40.0582 58.598 40.2074 58.2145 40.5057C57.831 40.804 57.5421 41.2159 57.348 41.7415C57.1539 42.267 57.0568 42.8684 57.0568 43.5455C57.0568 44.2273 57.1539 44.8357 57.348 45.3707C57.5469 45.901 57.8381 46.3201 58.2216 46.6278C58.6098 46.9309 59.0857 47.0824 59.6491 47.0824ZM85.006 39.3622H82.3498C82.274 38.9266 82.1344 38.5407 81.9308 38.2045C81.7272 37.8636 81.4738 37.5748 81.1708 37.3381C80.8678 37.1013 80.5221 36.9238 80.1339 36.8054C79.7504 36.6823 79.3361 36.6207 78.891 36.6207C78.1003 36.6207 77.3995 36.8196 76.7887 37.2173C76.1779 37.6103 75.6997 38.188 75.354 38.9503C75.0084 39.7079 74.8356 40.6335 74.8356 41.7273C74.8356 42.84 75.0084 43.7775 75.354 44.5398C75.7044 45.2973 76.1826 45.8703 76.7887 46.2585C77.3995 46.642 78.0979 46.8338 78.8839 46.8338C79.3195 46.8338 79.7267 46.777 80.1055 46.6634C80.489 46.545 80.8323 46.3722 81.1353 46.1449C81.4431 45.9176 81.7011 45.6383 81.9094 45.3068C82.1225 44.9754 82.2693 44.5966 82.3498 44.1705L85.006 44.1847C84.9066 44.8759 84.6912 45.5246 84.3597 46.1307C84.033 46.7367 83.6045 47.2718 83.0742 47.7358C82.5439 48.1951 81.9237 48.5549 81.2134 48.8153C80.5032 49.071 79.7148 49.1989 78.8484 49.1989C77.57 49.1989 76.4289 48.9029 75.4251 48.3111C74.4213 47.7192 73.6306 46.8646 73.0529 45.7472C72.4753 44.6297 72.1864 43.2898 72.1864 41.7273C72.1864 40.16 72.4776 38.8201 73.06 37.7074C73.6424 36.59 74.4355 35.7353 75.4393 35.1435C76.4431 34.5516 77.5794 34.2557 78.8484 34.2557C79.658 34.2557 80.4109 34.3693 81.1069 34.5966C81.8029 34.8239 82.4232 35.1577 82.9677 35.598C83.5122 36.0336 83.9596 36.5687 84.31 37.2031C84.6651 37.8329 84.8971 38.5526 85.006 39.3622ZM89.8764 42.608V49H87.3054V34.4545H89.8196V39.9446H89.9474C90.2031 39.3291 90.5985 38.8437 91.1335 38.4886C91.6733 38.1288 92.3598 37.9489 93.1932 37.9489C93.9508 37.9489 94.6113 38.1075 95.1747 38.4247C95.7382 38.742 96.1738 39.206 96.4815 39.8168C96.794 40.4276 96.9503 41.1733 96.9503 42.054V49H94.3793V42.4517C94.3793 41.7178 94.1899 41.1473 93.8111 40.7401C93.437 40.3281 92.9115 40.1222 92.2344 40.1222C91.7798 40.1222 91.3726 40.2216 91.0128 40.4205C90.6577 40.6146 90.3783 40.8963 90.1747 41.2656C89.9759 41.6349 89.8764 42.0824 89.8764 42.608ZM99.571 49V38.0909H102.142V49H99.571ZM100.864 36.5426C100.456 36.5426 100.106 36.4077 99.8125 36.1378C99.5189 35.8632 99.3722 35.5341 99.3722 35.1506C99.3722 34.7623 99.5189 34.4332 99.8125 34.1634C100.106 33.8887 100.456 33.7514 100.864 33.7514C101.276 33.7514 101.626 33.8887 101.915 34.1634C102.208 34.4332 102.355 34.7623 102.355 35.1506C102.355 35.5341 102.208 35.8632 101.915 36.1378C101.626 36.4077 101.276 36.5426 100.864 36.5426ZM109.544 49.2131C108.455 49.2131 107.52 48.974 106.739 48.4957C105.962 48.0175 105.364 47.357 104.942 46.5142C104.525 45.6667 104.317 44.6913 104.317 43.5881C104.317 42.4801 104.53 41.5024 104.956 40.6548C105.382 39.8026 105.984 39.1397 106.76 38.6662C107.542 38.188 108.465 37.9489 109.53 37.9489C110.416 37.9489 111.199 38.1122 111.881 38.4389C112.568 38.7609 113.114 39.2178 113.522 39.8097C113.929 40.3968 114.161 41.0833 114.218 41.8693H111.76C111.661 41.3437 111.424 40.9058 111.05 40.5554C110.681 40.2003 110.186 40.0227 109.566 40.0227C109.04 40.0227 108.578 40.1648 108.181 40.4489C107.783 40.7282 107.473 41.1307 107.25 41.6562C107.033 42.1818 106.924 42.8116 106.924 43.5455C106.924 44.2888 107.033 44.928 107.25 45.4631C107.468 45.9934 107.774 46.4029 108.167 46.6918C108.564 46.9759 109.031 47.1179 109.566 47.1179C109.944 47.1179 110.283 47.0469 110.581 46.9048C110.884 46.758 111.138 46.5473 111.341 46.2727C111.545 45.9981 111.685 45.6643 111.76 45.2713H114.218C114.156 46.0431 113.929 46.7273 113.536 47.3239C113.143 47.9157 112.608 48.3797 111.931 48.7159C111.254 49.0473 110.458 49.2131 109.544 49.2131ZM118.673 45.5767L118.665 42.473H119.077L122.998 38.0909H126.002L121.18 43.4602H120.647L118.673 45.5767ZM116.329 49V34.4545H118.9V49H116.329ZM123.175 49L119.624 44.0355L121.357 42.2244L126.251 49H123.175ZM132.096 49.2131C131.002 49.2131 130.058 48.9858 129.262 48.5312C128.471 48.072 127.863 47.4233 127.437 46.5852C127.011 45.7424 126.798 44.7505 126.798 43.6094C126.798 42.4872 127.011 41.5024 127.437 40.6548C127.868 39.8026 128.469 39.1397 129.241 38.6662C130.013 38.188 130.919 37.9489 131.961 37.9489C132.633 37.9489 133.268 38.0578 133.864 38.2756C134.466 38.4886 134.996 38.8201 135.455 39.2699C135.919 39.7197 136.284 40.2926 136.549 40.9886C136.814 41.6799 136.947 42.5038 136.947 43.4602V44.2486H128.005V42.5156H134.482C134.478 42.0232 134.371 41.5852 134.163 41.2017C133.954 40.8134 133.663 40.508 133.289 40.2855C132.92 40.063 132.489 39.9517 131.996 39.9517C131.471 39.9517 131.009 40.0795 130.612 40.3352C130.214 40.5862 129.904 40.9176 129.681 41.3295C129.463 41.7367 129.352 42.1842 129.347 42.6719V44.1847C129.347 44.8191 129.463 45.3636 129.695 45.8182C129.927 46.268 130.252 46.6136 130.668 46.8551C131.085 47.0919 131.573 47.2102 132.131 47.2102C132.505 47.2102 132.844 47.1581 133.147 47.054C133.45 46.9451 133.713 46.7865 133.935 46.5781C134.158 46.3698 134.326 46.1117 134.44 45.804L136.84 46.0739C136.689 46.7083 136.4 47.2623 135.974 47.7358C135.552 48.2045 135.013 48.5691 134.354 48.8295C133.696 49.0852 132.943 49.2131 132.096 49.2131ZM141.693 42.608V49H139.122V38.0909H141.579V39.9446H141.707C141.958 39.3338 142.358 38.8485 142.907 38.4886C143.461 38.1288 144.145 37.9489 144.96 37.9489C145.713 37.9489 146.368 38.1098 146.927 38.4318C147.491 38.7538 147.926 39.2202 148.234 39.831C148.547 40.4418 148.7 41.1828 148.696 42.054V49H146.125V42.4517C146.125 41.7225 145.935 41.152 145.556 40.7401C145.182 40.3281 144.664 40.1222 144.001 40.1222C143.551 40.1222 143.151 40.2216 142.801 40.4205C142.455 40.6146 142.183 40.8963 141.984 41.2656C141.79 41.6349 141.693 42.0824 141.693 42.608Z" fill="#1F2937"/>
<path d="M28.3864 74.1818C28.3864 75.4242 28.1591 76.4924 27.7045 77.3864C27.25 78.2765 26.6269 78.9621 25.8352 79.4432C25.0473 79.9205 24.1515 80.1591 23.1477 80.1591C22.1402 80.1591 21.2405 79.9205 20.4489 79.4432C19.661 78.9621 19.0398 78.2746 18.5852 77.3807C18.1307 76.4867 17.9034 75.4205 17.9034 74.1818C17.9034 72.9394 18.1307 71.8731 18.5852 70.983C19.0398 70.089 19.661 69.4034 20.4489 68.9261C21.2405 68.4451 22.1402 68.2045 23.1477 68.2045C24.1515 68.2045 25.0473 68.4451 25.8352 68.9261C26.6269 69.4034 27.25 70.089 27.7045 70.983C28.1591 71.8731 28.3864 72.9394 28.3864 74.1818ZM26.6477 74.1818C26.6477 73.2348 26.4943 72.4375 26.1875 71.7898C25.8845 71.1383 25.4678 70.6458 24.9375 70.3125C24.411 69.9754 23.8144 69.8068 23.1477 69.8068C22.4773 69.8068 21.8788 69.9754 21.3523 70.3125C20.8258 70.6458 20.4091 71.1383 20.1023 71.7898C19.7992 72.4375 19.6477 73.2348 19.6477 74.1818C19.6477 75.1288 19.7992 75.928 20.1023 76.5795C20.4091 77.2273 20.8258 77.7197 21.3523 78.0568C21.8788 78.3902 22.4773 78.5568 23.1477 78.5568C23.8144 78.5568 24.411 78.3902 24.9375 78.0568C25.4678 77.7197 25.8845 77.2273 26.1875 76.5795C26.4943 75.928 26.6477 75.1288 26.6477 74.1818ZM35.9673 76.3807V71.2727H37.6719V80H36.0014V78.4886H35.9105C35.7098 78.9545 35.3878 79.3428 34.9446 79.6534C34.5052 79.9602 33.9579 80.1136 33.3026 80.1136C32.742 80.1136 32.2457 79.9905 31.8139 79.7443C31.3859 79.4943 31.0488 79.125 30.8026 78.6364C30.5601 78.1477 30.4389 77.5436 30.4389 76.8239V71.2727H32.1378V76.6193C32.1378 77.214 32.3026 77.6875 32.6321 78.0398C32.9616 78.392 33.3897 78.5682 33.9162 78.5682C34.2344 78.5682 34.5507 78.4886 34.8651 78.3295C35.1832 78.1705 35.4465 77.9299 35.6548 77.608C35.867 77.286 35.9711 76.8769 35.9673 76.3807ZM39.9545 80V71.2727H41.5966V72.6591H41.6875C41.8466 72.1894 42.1269 71.8201 42.5284 71.5511C42.9337 71.2784 43.392 71.142 43.9034 71.142C44.0095 71.142 44.1345 71.1458 44.2784 71.1534C44.4261 71.161 44.5417 71.1705 44.625 71.1818V72.8068C44.5568 72.7879 44.4356 72.767 44.2614 72.7443C44.0871 72.7178 43.9129 72.7045 43.7386 72.7045C43.3371 72.7045 42.9792 72.7898 42.6648 72.9602C42.3542 73.1269 42.108 73.3598 41.9261 73.6591C41.7443 73.9545 41.6534 74.2917 41.6534 74.6705V80H39.9545ZM56.8693 73.4034L55.3295 73.6761C55.2652 73.4792 55.1629 73.2917 55.0227 73.1136C54.8864 72.9356 54.7008 72.7898 54.4659 72.6761C54.2311 72.5625 53.9375 72.5057 53.5852 72.5057C53.1042 72.5057 52.7027 72.6136 52.3807 72.8295C52.0587 73.0417 51.8977 73.3163 51.8977 73.6534C51.8977 73.9451 52.0057 74.1799 52.2216 74.358C52.4375 74.536 52.786 74.6818 53.267 74.7955L54.6534 75.1136C55.4564 75.2992 56.0549 75.5852 56.4489 75.9716C56.8428 76.358 57.0398 76.8598 57.0398 77.4773C57.0398 78 56.8883 78.4659 56.5852 78.875C56.286 79.2803 55.8674 79.5985 55.3295 79.8295C54.7955 80.0606 54.1761 80.1761 53.4716 80.1761C52.4943 80.1761 51.697 79.9678 51.0795 79.5511C50.4621 79.1307 50.0833 78.5341 49.9432 77.7614L51.5852 77.5114C51.6875 77.9394 51.8977 78.2633 52.2159 78.483C52.5341 78.6989 52.9489 78.8068 53.4602 78.8068C54.017 78.8068 54.4621 78.6913 54.7955 78.4602C55.1288 78.2254 55.2955 77.9394 55.2955 77.6023C55.2955 77.3295 55.1932 77.1004 54.9886 76.9148C54.7879 76.7292 54.4792 76.589 54.0625 76.4943L52.5852 76.1705C51.7708 75.9848 51.1686 75.6894 50.7784 75.2841C50.392 74.8788 50.1989 74.3655 50.1989 73.7443C50.1989 73.2292 50.3428 72.7784 50.6307 72.392C50.9186 72.0057 51.3163 71.7045 51.8239 71.4886C52.3314 71.2689 52.9129 71.1591 53.5682 71.1591C54.5114 71.1591 55.2538 71.3636 55.7955 71.7727C56.3371 72.178 56.6951 72.7216 56.8693 73.4034ZM58.9077 80V71.2727H60.6065V80H58.9077ZM59.7656 69.9261C59.4702 69.9261 59.2164 69.8277 59.0043 69.6307C58.7959 69.4299 58.6918 69.1913 58.6918 68.9148C58.6918 68.6345 58.7959 68.3958 59.0043 68.1989C59.2164 67.9981 59.4702 67.8977 59.7656 67.8977C60.0611 67.8977 60.313 67.9981 60.5213 68.1989C60.7334 68.3958 60.8395 68.6345 60.8395 68.9148C60.8395 69.1913 60.7334 69.4299 60.5213 69.6307C60.313 69.8277 60.0611 69.9261 59.7656 69.9261ZM66.5511 83.4545C65.858 83.4545 65.2614 83.3636 64.7614 83.1818C64.2652 83 63.8598 82.7595 63.5455 82.4602C63.2311 82.161 62.9962 81.8333 62.8409 81.4773L64.3011 80.875C64.4034 81.0417 64.5398 81.2178 64.7102 81.4034C64.8845 81.5928 65.1193 81.7538 65.4148 81.8864C65.714 82.0189 66.0985 82.0852 66.5682 82.0852C67.2121 82.0852 67.7443 81.928 68.1648 81.6136C68.5852 81.303 68.7955 80.8068 68.7955 80.125V78.4091H68.6875C68.5852 78.5947 68.4375 78.8011 68.2443 79.0284C68.0549 79.2557 67.7936 79.4527 67.4602 79.6193C67.1269 79.786 66.6932 79.8693 66.1591 79.8693C65.4697 79.8693 64.8485 79.7083 64.2955 79.3864C63.7462 79.0606 63.3106 78.5814 62.9886 77.9489C62.6705 77.3125 62.5114 76.5303 62.5114 75.6023C62.5114 74.6742 62.6686 73.8788 62.983 73.2159C63.3011 72.553 63.7367 72.0455 64.2898 71.6932C64.8428 71.3371 65.4697 71.1591 66.1705 71.1591C66.7121 71.1591 67.1496 71.25 67.483 71.4318C67.8163 71.6098 68.0758 71.8182 68.2614 72.0568C68.4508 72.2955 68.5966 72.5057 68.6989 72.6875H68.8239V71.2727H70.4886V80.1932C70.4886 80.9432 70.3144 81.5587 69.9659 82.0398C69.6174 82.5208 69.1458 82.8769 68.5511 83.108C67.9602 83.339 67.2936 83.4545 66.5511 83.4545ZM66.5341 78.4602C67.0227 78.4602 67.4356 78.3466 67.7727 78.1193C68.1136 77.8883 68.3712 77.5587 68.5455 77.1307C68.7235 76.6989 68.8125 76.1818 68.8125 75.5795C68.8125 74.9924 68.7254 74.4754 68.5511 74.0284C68.3769 73.5814 68.1212 73.233 67.7841 72.983C67.447 72.7292 67.0303 72.6023 66.5341 72.6023C66.0227 72.6023 65.5966 72.7348 65.2557 73C64.9148 73.2614 64.6572 73.6174 64.483 74.0682C64.3125 74.5189 64.2273 75.0227 64.2273 75.5795C64.2273 76.1515 64.3144 76.6534 64.4886 77.0852C64.6629 77.517 64.9205 77.8542 65.2614 78.0966C65.6061 78.339 66.0303 78.4602 66.5341 78.4602ZM74.4659 74.8182V80H72.767V71.2727H74.3977V72.6932H74.5057C74.7064 72.2311 75.0208 71.8598 75.4489 71.5795C75.8807 71.2992 76.4242 71.1591 77.0795 71.1591C77.6742 71.1591 78.1951 71.2841 78.642 71.5341C79.089 71.7803 79.4356 72.1477 79.6818 72.6364C79.928 73.125 80.0511 73.7292 80.0511 74.4489V80H78.3523V74.6534C78.3523 74.0208 78.1875 73.5265 77.858 73.1705C77.5284 72.8106 77.0758 72.6307 76.5 72.6307C76.1061 72.6307 75.7557 72.7159 75.4489 72.8864C75.1458 73.0568 74.9053 73.3068 74.7273 73.6364C74.553 73.9621 74.4659 74.3561 74.4659 74.8182ZM84.8693 80.1932C84.3163 80.1932 83.8163 80.0909 83.3693 79.8864C82.9223 79.678 82.5682 79.3769 82.3068 78.983C82.0492 78.589 81.9205 78.1061 81.9205 77.5341C81.9205 77.0417 82.0152 76.6364 82.2045 76.3182C82.3939 76 82.6496 75.7481 82.9716 75.5625C83.2936 75.3769 83.6534 75.2367 84.0511 75.142C84.4489 75.0473 84.8542 74.9754 85.267 74.9261C85.7898 74.8655 86.214 74.8163 86.5398 74.7784C86.8655 74.7367 87.1023 74.6705 87.25 74.5795C87.3977 74.4886 87.4716 74.3409 87.4716 74.1364V74.0966C87.4716 73.6004 87.3314 73.2159 87.0511 72.9432C86.7746 72.6705 86.3617 72.5341 85.8125 72.5341C85.2405 72.5341 84.7898 72.661 84.4602 72.9148C84.1345 73.1648 83.9091 73.4432 83.7841 73.75L82.1875 73.3864C82.3769 72.8561 82.6534 72.428 83.017 72.1023C83.3845 71.7727 83.8068 71.5341 84.2841 71.3864C84.7614 71.2348 85.2633 71.1591 85.7898 71.1591C86.1383 71.1591 86.5076 71.2008 86.8977 71.2841C87.2917 71.3636 87.6591 71.5114 88 71.7273C88.3447 71.9432 88.6269 72.2519 88.8466 72.6534C89.0663 73.0511 89.1761 73.5682 89.1761 74.2045V80H87.517V78.8068H87.4489C87.339 79.0265 87.1742 79.2424 86.9545 79.4545C86.7348 79.6667 86.4527 79.8428 86.108 79.983C85.7633 80.1231 85.3504 80.1932 84.8693 80.1932ZM85.2386 78.8295C85.7083 78.8295 86.1098 78.7367 86.4432 78.5511C86.7803 78.3655 87.036 78.1231 87.2102 77.8239C87.3883 77.5208 87.4773 77.197 87.4773 76.8523V75.7273C87.4167 75.7879 87.2992 75.8447 87.125 75.8977C86.9545 75.947 86.7595 75.9905 86.5398 76.0284C86.3201 76.0625 86.1061 76.0947 85.8977 76.125C85.6894 76.1515 85.5152 76.1742 85.375 76.1932C85.0455 76.2348 84.7443 76.3049 84.4716 76.4034C84.2027 76.5019 83.9867 76.6439 83.8239 76.8295C83.6648 77.0114 83.5852 77.2538 83.5852 77.5568C83.5852 77.9773 83.7405 78.2955 84.0511 78.5114C84.3617 78.7235 84.7576 78.8295 85.2386 78.8295ZM95.5128 71.2727V72.6364H90.7457V71.2727H95.5128ZM92.0241 69.1818H93.723V77.4375C93.723 77.767 93.7723 78.0152 93.8707 78.1818C93.9692 78.3447 94.0961 78.4564 94.2514 78.517C94.4105 78.5739 94.5829 78.6023 94.7685 78.6023C94.9048 78.6023 95.0241 78.5928 95.1264 78.5739C95.2287 78.5549 95.3082 78.5398 95.3651 78.5284L95.6719 79.9318C95.5734 79.9697 95.4332 80.0076 95.2514 80.0455C95.0696 80.0871 94.8423 80.1098 94.5696 80.1136C94.1226 80.1212 93.706 80.0417 93.3196 79.875C92.9332 79.7083 92.6207 79.4508 92.3821 79.1023C92.1435 78.7538 92.0241 78.3163 92.0241 77.7898V69.1818ZM102.92 76.3807V71.2727H104.625V80H102.955V78.4886H102.864C102.663 78.9545 102.341 79.3428 101.898 79.6534C101.458 79.9602 100.911 80.1136 100.256 80.1136C99.6951 80.1136 99.1989 79.9905 98.767 79.7443C98.339 79.4943 98.0019 79.125 97.7557 78.6364C97.5133 78.1477 97.392 77.5436 97.392 76.8239V71.2727H99.0909V76.6193C99.0909 77.214 99.2557 77.6875 99.5852 78.0398C99.9148 78.392 100.343 78.5682 100.869 78.5682C101.188 78.5682 101.504 78.4886 101.818 78.3295C102.136 78.1705 102.4 77.9299 102.608 77.608C102.82 77.286 102.924 76.8769 102.92 76.3807ZM106.908 80V71.2727H108.55V72.6591H108.641C108.8 72.1894 109.08 71.8201 109.482 71.5511C109.887 71.2784 110.345 71.142 110.857 71.142C110.963 71.142 111.088 71.1458 111.232 71.1534C111.379 71.161 111.495 71.1705 111.578 71.1818V72.8068C111.51 72.7879 111.389 72.767 111.214 72.7443C111.04 72.7178 110.866 72.7045 110.692 72.7045C110.29 72.7045 109.932 72.7898 109.618 72.9602C109.307 73.1269 109.061 73.3598 108.879 73.6591C108.697 73.9545 108.607 74.2917 108.607 74.6705V80H106.908ZM116.497 80.1761C115.637 80.1761 114.897 79.9924 114.276 79.625C113.658 79.2538 113.181 78.733 112.844 78.0625C112.51 77.3883 112.344 76.5985 112.344 75.6932C112.344 74.7992 112.51 74.0114 112.844 73.3295C113.181 72.6477 113.651 72.1155 114.253 71.733C114.859 71.3504 115.567 71.1591 116.378 71.1591C116.87 71.1591 117.348 71.2405 117.81 71.4034C118.272 71.5663 118.687 71.822 119.054 72.1705C119.421 72.5189 119.711 72.9716 119.923 73.5284C120.135 74.0814 120.241 74.7538 120.241 75.5455V76.1477H113.304V74.875H118.577C118.577 74.428 118.486 74.0322 118.304 73.6875C118.122 73.339 117.866 73.0644 117.537 72.8636C117.211 72.6629 116.829 72.5625 116.389 72.5625C115.912 72.5625 115.495 72.6799 115.139 72.9148C114.787 73.1458 114.514 73.4489 114.321 73.8239C114.132 74.1951 114.037 74.5985 114.037 75.0341V76.0284C114.037 76.6117 114.139 77.108 114.344 77.517C114.552 77.9261 114.842 78.2386 115.213 78.4545C115.584 78.6667 116.018 78.7727 116.514 78.7727C116.836 78.7727 117.13 78.7273 117.395 78.6364C117.66 78.5417 117.889 78.4015 118.082 78.2159C118.276 78.0303 118.423 77.8011 118.526 77.5284L120.134 77.8182C120.005 78.2917 119.774 78.7064 119.44 79.0625C119.111 79.4148 118.696 79.6894 118.196 79.8864C117.7 80.0795 117.134 80.1761 116.497 80.1761ZM131.02 68.3636H132.77V76.6136C132.77 77.3598 132.622 77.9981 132.327 78.5284C132.035 79.0587 131.624 79.464 131.094 79.7443C130.563 80.0208 129.942 80.1591 129.23 80.1591C128.575 80.1591 127.986 80.0398 127.463 79.8011C126.944 79.5625 126.533 79.2159 126.23 78.7614C125.931 78.303 125.781 77.7462 125.781 77.0909H127.526C127.526 77.4129 127.599 77.6913 127.747 77.9261C127.899 78.161 128.105 78.3447 128.366 78.4773C128.632 78.6061 128.935 78.6705 129.276 78.6705C129.647 78.6705 129.961 78.5928 130.219 78.4375C130.48 78.2784 130.679 78.0455 130.815 77.7386C130.952 77.4318 131.02 77.0568 131.02 76.6136V68.3636ZM138.865 80.1761C138.047 80.1761 137.333 79.9886 136.723 79.6136C136.113 79.2386 135.64 78.714 135.303 78.0398C134.965 77.3655 134.797 76.5777 134.797 75.6761C134.797 74.7708 134.965 73.9792 135.303 73.3011C135.64 72.6231 136.113 72.0966 136.723 71.7216C137.333 71.3466 138.047 71.1591 138.865 71.1591C139.683 71.1591 140.397 71.3466 141.007 71.7216C141.617 72.0966 142.09 72.6231 142.428 73.3011C142.765 73.9792 142.933 74.7708 142.933 75.6761C142.933 76.5777 142.765 77.3655 142.428 78.0398C142.09 78.714 141.617 79.2386 141.007 79.6136C140.397 79.9886 139.683 80.1761 138.865 80.1761ZM138.871 78.75C139.401 78.75 139.84 78.6098 140.189 78.3295C140.537 78.0492 140.795 77.6761 140.962 77.2102C141.132 76.7443 141.217 76.2311 141.217 75.6705C141.217 75.1136 141.132 74.6023 140.962 74.1364C140.795 73.6667 140.537 73.2898 140.189 73.0057C139.84 72.7216 139.401 72.5795 138.871 72.5795C138.337 72.5795 137.893 72.7216 137.541 73.0057C137.193 73.2898 136.933 73.6667 136.763 74.1364C136.596 74.6023 136.513 75.1136 136.513 75.6705C136.513 76.2311 136.596 76.7443 136.763 77.2102C136.933 77.6761 137.193 78.0492 137.541 78.3295C137.893 78.6098 138.337 78.75 138.871 78.75ZM146.528 68.3636V80H144.83V68.3636H146.528ZM150.513 68.3636V80H148.814V68.3636H150.513ZM156.474 80.1761C155.656 80.1761 154.942 79.9886 154.332 79.6136C153.723 79.2386 153.249 78.714 152.912 78.0398C152.575 77.3655 152.406 76.5777 152.406 75.6761C152.406 74.7708 152.575 73.9792 152.912 73.3011C153.249 72.6231 153.723 72.0966 154.332 71.7216C154.942 71.3466 155.656 71.1591 156.474 71.1591C157.293 71.1591 158.007 71.3466 158.616 71.7216C159.226 72.0966 159.7 72.6231 160.037 73.3011C160.374 73.9792 160.543 74.7708 160.543 75.6761C160.543 76.5777 160.374 77.3655 160.037 78.0398C159.7 78.714 159.226 79.2386 158.616 79.6136C158.007 79.9886 157.293 80.1761 156.474 80.1761ZM156.48 78.75C157.01 78.75 157.45 78.6098 157.798 78.3295C158.147 78.0492 158.404 77.6761 158.571 77.2102C158.741 76.7443 158.827 76.2311 158.827 75.6705C158.827 75.1136 158.741 74.6023 158.571 74.1364C158.404 73.6667 158.147 73.2898 157.798 73.0057C157.45 72.7216 157.01 72.5795 156.48 72.5795C155.946 72.5795 155.503 72.7216 155.151 73.0057C154.802 73.2898 154.543 73.6667 154.372 74.1364C154.205 74.6023 154.122 75.1136 154.122 75.6705C154.122 76.2311 154.205 76.7443 154.372 77.2102C154.543 77.6761 154.802 78.0492 155.151 78.3295C155.503 78.6098 155.946 78.75 156.48 78.75ZM166.592 71.2727V72.6364H161.661V71.2727H166.592ZM163.013 80V70.2614C163.013 69.7159 163.132 69.2633 163.371 68.9034C163.609 68.5398 163.926 68.2689 164.32 68.0909C164.714 67.9091 165.142 67.8182 165.604 67.8182C165.945 67.8182 166.236 67.8466 166.479 67.9034C166.721 67.9564 166.901 68.0057 167.018 68.0511L166.621 69.4261C166.541 69.4034 166.439 69.3769 166.314 69.3466C166.189 69.3125 166.037 69.2955 165.859 69.2955C165.446 69.2955 165.151 69.3977 164.973 69.6023C164.799 69.8068 164.712 70.1023 164.712 70.4886V80H163.013ZM18.142 104V95.2727H19.7841V96.6591H19.875C20.0341 96.1894 20.3144 95.8201 20.7159 95.5511C21.1212 95.2784 21.5795 95.142 22.0909 95.142C22.197 95.142 22.322 95.1458 22.4659 95.1534C22.6136 95.161 22.7292 95.1705 22.8125 95.1818V96.8068C22.7443 96.7879 22.6231 96.767 22.4489 96.7443C22.2746 96.7178 22.1004 96.7045 21.9261 96.7045C21.5246 96.7045 21.1667 96.7898 20.8523 96.9602C20.5417 97.1269 20.2955 97.3598 20.1136 97.6591C19.9318 97.9545 19.8409 98.2917 19.8409 98.6705V104H18.142ZM24.2827 104V95.2727H25.9815V104H24.2827ZM25.1406 93.9261C24.8452 93.9261 24.5914 93.8277 24.3793 93.6307C24.1709 93.4299 24.0668 93.1913 24.0668 92.9148C24.0668 92.6345 24.1709 92.3958 24.3793 92.1989C24.5914 91.9981 24.8452 91.8977 25.1406 91.8977C25.4361 91.8977 25.688 91.9981 25.8963 92.1989C26.1084 92.3958 26.2145 92.6345 26.2145 92.9148C26.2145 93.1913 26.1084 93.4299 25.8963 93.6307C25.688 93.8277 25.4361 93.9261 25.1406 93.9261ZM31.9432 104.176C31.0985 104.176 30.3712 103.985 29.7614 103.602C29.1553 103.216 28.6894 102.684 28.3636 102.006C28.0379 101.328 27.875 100.551 27.875 99.6761C27.875 98.7898 28.0417 98.0076 28.375 97.3295C28.7083 96.6477 29.178 96.1155 29.7841 95.733C30.3902 95.3504 31.1042 95.1591 31.9261 95.1591C32.589 95.1591 33.1799 95.2822 33.6989 95.5284C34.2178 95.7708 34.6364 96.1117 34.9545 96.5511C35.2765 96.9905 35.4678 97.5038 35.5284 98.0909H33.875C33.7841 97.6818 33.5758 97.3295 33.25 97.0341C32.928 96.7386 32.4962 96.5909 31.9545 96.5909C31.4811 96.5909 31.0663 96.7159 30.7102 96.9659C30.358 97.2121 30.0833 97.5644 29.8864 98.0227C29.6894 98.4773 29.5909 99.0152 29.5909 99.6364C29.5909 100.273 29.6875 100.822 29.8807 101.284C30.0739 101.746 30.3466 102.104 30.6989 102.358C31.0549 102.612 31.4735 102.739 31.9545 102.739C32.2765 102.739 32.5682 102.68 32.8295 102.562C33.0947 102.441 33.3163 102.269 33.4943 102.045C33.6761 101.822 33.803 101.553 33.875 101.239H35.5284C35.4678 101.803 35.2841 102.307 34.9773 102.75C34.6705 103.193 34.2595 103.542 33.7443 103.795C33.233 104.049 32.6326 104.176 31.9432 104.176ZM41.1065 104.176C40.2467 104.176 39.5062 103.992 38.8849 103.625C38.2675 103.254 37.7902 102.733 37.4531 102.062C37.1198 101.388 36.9531 100.598 36.9531 99.6932C36.9531 98.7992 37.1198 98.0114 37.4531 97.3295C37.7902 96.6477 38.2599 96.1155 38.8622 95.733C39.4683 95.3504 40.1766 95.1591 40.9872 95.1591C41.4796 95.1591 41.9569 95.2405 42.419 95.4034C42.8812 95.5663 43.2959 95.822 43.6634 96.1705C44.0308 96.5189 44.3205 96.9716 44.5327 97.5284C44.7448 98.0814 44.8509 98.7538 44.8509 99.5455V100.148H37.9134V98.875H43.1861C43.1861 98.428 43.0952 98.0322 42.9134 97.6875C42.7315 97.339 42.4759 97.0644 42.1463 96.8636C41.8205 96.6629 41.438 96.5625 40.9986 96.5625C40.5213 96.5625 40.1046 96.6799 39.7486 96.9148C39.3963 97.1458 39.1236 97.4489 38.9304 97.8239C38.741 98.1951 38.6463 98.5985 38.6463 99.0341V100.028C38.6463 100.612 38.7486 101.108 38.9531 101.517C39.1615 101.926 39.4512 102.239 39.8224 102.455C40.1937 102.667 40.6274 102.773 41.1236 102.773C41.4455 102.773 41.7391 102.727 42.0043 102.636C42.2694 102.542 42.4986 102.402 42.6918 102.216C42.8849 102.03 43.0327 101.801 43.1349 101.528L44.7429 101.818C44.6141 102.292 44.383 102.706 44.0497 103.062C43.7202 103.415 43.3054 103.689 42.8054 103.886C42.3092 104.08 41.7429 104.176 41.1065 104.176ZM48.946 102.409L48.8608 103.028C48.804 103.483 48.7074 103.956 48.571 104.449C48.4384 104.945 48.3002 105.405 48.1562 105.83C48.0161 106.254 47.9006 106.591 47.8097 106.841H46.6051C46.6544 106.606 46.7225 106.288 46.8097 105.886C46.8968 105.489 46.982 105.044 47.0653 104.551C47.1487 104.059 47.2112 103.557 47.2528 103.045L47.3097 102.409H48.946ZM61.9318 97.4034L60.392 97.6761C60.3277 97.4792 60.2254 97.2917 60.0852 97.1136C59.9489 96.9356 59.7633 96.7898 59.5284 96.6761C59.2936 96.5625 59 96.5057 58.6477 96.5057C58.1667 96.5057 57.7652 96.6136 57.4432 96.8295C57.1212 97.0417 56.9602 97.3163 56.9602 97.6534C56.9602 97.9451 57.0682 98.1799 57.2841 98.358C57.5 98.536 57.8485 98.6818 58.3295 98.7955L59.7159 99.1136C60.5189 99.2992 61.1174 99.5852 61.5114 99.9716C61.9053 100.358 62.1023 100.86 62.1023 101.477C62.1023 102 61.9508 102.466 61.6477 102.875C61.3485 103.28 60.9299 103.598 60.392 103.83C59.858 104.061 59.2386 104.176 58.5341 104.176C57.5568 104.176 56.7595 103.968 56.142 103.551C55.5246 103.131 55.1458 102.534 55.0057 101.761L56.6477 101.511C56.75 101.939 56.9602 102.263 57.2784 102.483C57.5966 102.699 58.0114 102.807 58.5227 102.807C59.0795 102.807 59.5246 102.691 59.858 102.46C60.1913 102.225 60.358 101.939 60.358 101.602C60.358 101.33 60.2557 101.1 60.0511 100.915C59.8504 100.729 59.5417 100.589 59.125 100.494L57.6477 100.17C56.8333 99.9848 56.2311 99.6894 55.8409 99.2841C55.4545 98.8788 55.2614 98.3655 55.2614 97.7443C55.2614 97.2292 55.4053 96.7784 55.6932 96.392C55.9811 96.0057 56.3788 95.7045 56.8864 95.4886C57.3939 95.2689 57.9754 95.1591 58.6307 95.1591C59.5739 95.1591 60.3163 95.3636 60.858 95.7727C61.3996 96.178 61.7576 96.7216 61.9318 97.4034ZM67.7315 104.176C66.8717 104.176 66.1312 103.992 65.5099 103.625C64.8925 103.254 64.4152 102.733 64.0781 102.062C63.7448 101.388 63.5781 100.598 63.5781 99.6932C63.5781 98.7992 63.7448 98.0114 64.0781 97.3295C64.4152 96.6477 64.8849 96.1155 65.4872 95.733C66.0933 95.3504 66.8016 95.1591 67.6122 95.1591C68.1046 95.1591 68.5819 95.2405 69.044 95.4034C69.5062 95.5663 69.9209 95.822 70.2884 96.1705C70.6558 96.5189 70.9455 96.9716 71.1577 97.5284C71.3698 98.0814 71.4759 98.7538 71.4759 99.5455V100.148H64.5384V98.875H69.8111C69.8111 98.428 69.7202 98.0322 69.5384 97.6875C69.3565 97.339 69.1009 97.0644 68.7713 96.8636C68.4455 96.6629 68.063 96.5625 67.6236 96.5625C67.1463 96.5625 66.7296 96.6799 66.3736 96.9148C66.0213 97.1458 65.7486 97.4489 65.5554 97.8239C65.366 98.1951 65.2713 98.5985 65.2713 99.0341V100.028C65.2713 100.612 65.3736 101.108 65.5781 101.517C65.7865 101.926 66.0762 102.239 66.4474 102.455C66.8187 102.667 67.2524 102.773 67.7486 102.773C68.0705 102.773 68.3641 102.727 68.6293 102.636C68.8944 102.542 69.1236 102.402 69.3168 102.216C69.5099 102.03 69.6577 101.801 69.7599 101.528L71.3679 101.818C71.2391 102.292 71.008 102.706 70.6747 103.062C70.3452 103.415 69.9304 103.689 69.4304 103.886C68.9342 104.08 68.3679 104.176 67.7315 104.176ZM73.3608 104V95.2727H75.0028V96.6591H75.0938C75.2528 96.1894 75.5331 95.8201 75.9347 95.5511C76.34 95.2784 76.7983 95.142 77.3097 95.142C77.4157 95.142 77.5407 95.1458 77.6847 95.1534C77.8324 95.161 77.9479 95.1705 78.0312 95.1818V96.8068C77.9631 96.7879 77.8419 96.767 77.6676 96.7443C77.4934 96.7178 77.3191 96.7045 77.1449 96.7045C76.7434 96.7045 76.3854 96.7898 76.071 96.9602C75.7604 97.1269 75.5142 97.3598 75.3324 97.6591C75.1506 97.9545 75.0597 98.2917 75.0597 98.6705V104H73.3608ZM87.233 95.2727L84.0682 104H82.25L79.0795 95.2727H80.9034L83.1136 101.989H83.2045L85.4091 95.2727H87.233ZM92.294 104.176C91.4342 104.176 90.6937 103.992 90.0724 103.625C89.455 103.254 88.9777 102.733 88.6406 102.062C88.3073 101.388 88.1406 100.598 88.1406 99.6932C88.1406 98.7992 88.3073 98.0114 88.6406 97.3295C88.9777 96.6477 89.4474 96.1155 90.0497 95.733C90.6558 95.3504 91.3641 95.1591 92.1747 95.1591C92.6671 95.1591 93.1444 95.2405 93.6065 95.4034C94.0687 95.5663 94.4834 95.822 94.8509 96.1705C95.2183 96.5189 95.508 96.9716 95.7202 97.5284C95.9323 98.0814 96.0384 98.7538 96.0384 99.5455V100.148H89.1009V98.875H94.3736C94.3736 98.428 94.2827 98.0322 94.1009 97.6875C93.919 97.339 93.6634 97.0644 93.3338 96.8636C93.008 96.6629 92.6255 96.5625 92.1861 96.5625C91.7088 96.5625 91.2921 96.6799 90.9361 96.9148C90.5838 97.1458 90.3111 97.4489 90.1179 97.8239C89.9285 98.1951 89.8338 98.5985 89.8338 99.0341V100.028C89.8338 100.612 89.9361 101.108 90.1406 101.517C90.349 101.926 90.6387 102.239 91.0099 102.455C91.3812 102.667 91.8149 102.773 92.3111 102.773C92.633 102.773 92.9266 102.727 93.1918 102.636C93.4569 102.542 93.6861 102.402 93.8793 102.216C94.0724 102.03 94.2202 101.801 94.3224 101.528L95.9304 101.818C95.8016 102.292 95.5705 102.706 95.2372 103.062C94.9077 103.415 94.4929 103.689 93.9929 103.886C93.4967 104.08 92.9304 104.176 92.294 104.176ZM101.19 104.17C100.486 104.17 99.857 103.991 99.304 103.631C98.7547 103.267 98.3229 102.75 98.0085 102.08C97.6979 101.405 97.5426 100.597 97.5426 99.6534C97.5426 98.7102 97.6998 97.9034 98.0142 97.233C98.3324 96.5625 98.768 96.0492 99.321 95.6932C99.8741 95.3371 100.501 95.1591 101.202 95.1591C101.743 95.1591 102.179 95.25 102.509 95.4318C102.842 95.6098 103.099 95.8182 103.281 96.0568C103.467 96.2955 103.611 96.5057 103.713 96.6875H103.815V92.3636H105.514V104H103.855V102.642H103.713C103.611 102.828 103.463 103.04 103.27 103.278C103.08 103.517 102.819 103.725 102.486 103.903C102.152 104.081 101.721 104.17 101.19 104.17ZM101.565 102.722C102.054 102.722 102.467 102.593 102.804 102.335C103.145 102.074 103.402 101.712 103.577 101.25C103.755 100.788 103.844 100.25 103.844 99.6364C103.844 99.0303 103.757 98.5 103.582 98.0455C103.408 97.5909 103.152 97.2367 102.815 96.983C102.478 96.7292 102.062 96.6023 101.565 96.6023C101.054 96.6023 100.628 96.7348 100.287 97C99.946 97.2652 99.6884 97.6269 99.5142 98.0852C99.3438 98.5436 99.2585 99.0606 99.2585 99.6364C99.2585 100.22 99.3456 100.744 99.5199 101.21C99.6941 101.676 99.9517 102.045 100.293 102.318C100.637 102.587 101.062 102.722 101.565 102.722ZM114.065 104L111.497 95.2727H113.253L114.963 101.682H115.048L116.764 95.2727H118.52L120.224 101.653H120.31L122.009 95.2727H123.764L121.202 104H119.469L117.696 97.6989H117.565L115.793 104H114.065ZM125.376 104V95.2727H127.075V104H125.376ZM126.234 93.9261C125.939 93.9261 125.685 93.8277 125.473 93.6307C125.265 93.4299 125.161 93.1913 125.161 92.9148C125.161 92.6345 125.265 92.3958 125.473 92.1989C125.685 91.9981 125.939 91.8977 126.234 91.8977C126.53 91.8977 126.782 91.9981 126.99 92.1989C127.202 92.3958 127.308 92.6345 127.308 92.9148C127.308 93.1913 127.202 93.4299 126.99 93.6307C126.782 93.8277 126.53 93.9261 126.234 93.9261ZM133.435 95.2727V96.6364H128.668V95.2727H133.435ZM129.946 93.1818H131.645V101.438C131.645 101.767 131.694 102.015 131.793 102.182C131.891 102.345 132.018 102.456 132.173 102.517C132.332 102.574 132.505 102.602 132.69 102.602C132.827 102.602 132.946 102.593 133.048 102.574C133.151 102.555 133.23 102.54 133.287 102.528L133.594 103.932C133.495 103.97 133.355 104.008 133.173 104.045C132.991 104.087 132.764 104.11 132.491 104.114C132.045 104.121 131.628 104.042 131.241 103.875C130.855 103.708 130.543 103.451 130.304 103.102C130.065 102.754 129.946 102.316 129.946 101.79V93.1818ZM137.2 98.8182V104H135.501V92.3636H137.178V96.6932H137.286C137.49 96.2235 137.803 95.8504 138.223 95.5739C138.643 95.2973 139.193 95.1591 139.871 95.1591C140.469 95.1591 140.992 95.2822 141.439 95.5284C141.89 95.7746 142.238 96.142 142.484 96.6307C142.734 97.1155 142.859 97.7216 142.859 98.4489V104H141.161V98.6534C141.161 98.0133 140.996 97.517 140.666 97.1648C140.337 96.8087 139.878 96.6307 139.291 96.6307C138.89 96.6307 138.53 96.7159 138.212 96.8864C137.897 97.0568 137.649 97.3068 137.467 97.6364C137.289 97.9621 137.2 98.3561 137.2 98.8182ZM21.8182 128.176C20.9735 128.176 20.2462 127.985 19.6364 127.602C19.0303 127.216 18.5644 126.684 18.2386 126.006C17.9129 125.328 17.75 124.551 17.75 123.676C17.75 122.79 17.9167 122.008 18.25 121.33C18.5833 120.648 19.053 120.116 19.6591 119.733C20.2652 119.35 20.9792 119.159 21.8011 119.159C22.464 119.159 23.0549 119.282 23.5739 119.528C24.0928 119.771 24.5114 120.112 24.8295 120.551C25.1515 120.991 25.3428 121.504 25.4034 122.091H23.75C23.6591 121.682 23.4508 121.33 23.125 121.034C22.803 120.739 22.3712 120.591 21.8295 120.591C21.3561 120.591 20.9413 120.716 20.5852 120.966C20.233 121.212 19.9583 121.564 19.7614 122.023C19.5644 122.477 19.4659 123.015 19.4659 123.636C19.4659 124.273 19.5625 124.822 19.7557 125.284C19.9489 125.746 20.2216 126.104 20.5739 126.358C20.9299 126.612 21.3485 126.739 21.8295 126.739C22.1515 126.739 22.4432 126.68 22.7045 126.562C22.9697 126.441 23.1913 126.269 23.3693 126.045C23.5511 125.822 23.678 125.553 23.75 125.239H25.4034C25.3428 125.803 25.1591 126.307 24.8523 126.75C24.5455 127.193 24.1345 127.542 23.6193 127.795C23.108 128.049 22.5076 128.176 21.8182 128.176ZM27.2202 128V119.273H28.8622V120.659H28.9531C29.1122 120.189 29.3925 119.82 29.794 119.551C30.1993 119.278 30.6577 119.142 31.169 119.142C31.2751 119.142 31.4001 119.146 31.544 119.153C31.6918 119.161 31.8073 119.17 31.8906 119.182V120.807C31.8224 120.788 31.7012 120.767 31.527 120.744C31.3527 120.718 31.1785 120.705 31.0043 120.705C30.6027 120.705 30.2448 120.79 29.9304 120.96C29.6198 121.127 29.3736 121.36 29.1918 121.659C29.0099 121.955 28.919 122.292 28.919 122.67V128H27.2202ZM33.3608 128V119.273H35.0597V128H33.3608ZM34.2188 117.926C33.9233 117.926 33.6695 117.828 33.4574 117.631C33.2491 117.43 33.1449 117.191 33.1449 116.915C33.1449 116.634 33.2491 116.396 33.4574 116.199C33.6695 115.998 33.9233 115.898 34.2188 115.898C34.5142 115.898 34.7661 115.998 34.9744 116.199C35.1866 116.396 35.2926 116.634 35.2926 116.915C35.2926 117.191 35.1866 117.43 34.9744 117.631C34.7661 117.828 34.5142 117.926 34.2188 117.926ZM43.8849 121.403L42.3452 121.676C42.2808 121.479 42.1785 121.292 42.0384 121.114C41.902 120.936 41.7164 120.79 41.4815 120.676C41.2467 120.562 40.9531 120.506 40.6009 120.506C40.1198 120.506 39.7183 120.614 39.3963 120.83C39.0743 121.042 38.9134 121.316 38.9134 121.653C38.9134 121.945 39.0213 122.18 39.2372 122.358C39.4531 122.536 39.8016 122.682 40.2827 122.795L41.669 123.114C42.4721 123.299 43.0705 123.585 43.4645 123.972C43.8584 124.358 44.0554 124.86 44.0554 125.477C44.0554 126 43.9039 126.466 43.6009 126.875C43.3016 127.28 42.883 127.598 42.3452 127.83C41.8111 128.061 41.1918 128.176 40.4872 128.176C39.5099 128.176 38.7126 127.968 38.0952 127.551C37.4777 127.131 37.099 126.534 36.9588 125.761L38.6009 125.511C38.7031 125.939 38.9134 126.263 39.2315 126.483C39.5497 126.699 39.9645 126.807 40.4759 126.807C41.0327 126.807 41.4777 126.691 41.8111 126.46C42.1444 126.225 42.3111 125.939 42.3111 125.602C42.3111 125.33 42.2088 125.1 42.0043 124.915C41.8035 124.729 41.4948 124.589 41.0781 124.494L39.6009 124.17C38.7865 123.985 38.1842 123.689 37.794 123.284C37.4077 122.879 37.2145 122.366 37.2145 121.744C37.2145 121.229 37.3584 120.778 37.6463 120.392C37.9342 120.006 38.3319 119.705 38.8395 119.489C39.3471 119.269 39.9285 119.159 40.5838 119.159C41.527 119.159 42.2694 119.364 42.8111 119.773C43.3527 120.178 43.7107 120.722 43.8849 121.403ZM45.9233 131.273V119.273H47.5824V120.688H47.7244C47.8229 120.506 47.965 120.295 48.1506 120.057C48.3362 119.818 48.5938 119.61 48.9233 119.432C49.2528 119.25 49.6884 119.159 50.2301 119.159C50.9347 119.159 51.5634 119.337 52.1165 119.693C52.6695 120.049 53.1032 120.562 53.4176 121.233C53.7358 121.903 53.8949 122.71 53.8949 123.653C53.8949 124.597 53.7377 125.405 53.4233 126.08C53.1089 126.75 52.6771 127.267 52.1278 127.631C51.5786 127.991 50.9517 128.17 50.2472 128.17C49.7169 128.17 49.2831 128.081 48.946 127.903C48.6127 127.725 48.3513 127.517 48.1619 127.278C47.9725 127.04 47.8267 126.828 47.7244 126.642H47.6222V131.273H45.9233ZM47.5881 123.636C47.5881 124.25 47.6771 124.788 47.8551 125.25C48.0331 125.712 48.2907 126.074 48.6278 126.335C48.965 126.593 49.3778 126.722 49.8665 126.722C50.3741 126.722 50.7983 126.587 51.1392 126.318C51.4801 126.045 51.7377 125.676 51.9119 125.21C52.09 124.744 52.179 124.22 52.179 123.636C52.179 123.061 52.0919 122.544 51.9176 122.085C51.7472 121.627 51.4896 121.265 51.1449 121C50.804 120.735 50.3778 120.602 49.8665 120.602C49.3741 120.602 48.9574 120.729 48.6165 120.983C48.2794 121.237 48.0237 121.591 47.8494 122.045C47.6752 122.5 47.5881 123.03 47.5881 123.636ZM56.5753 131.273C56.3215 131.273 56.0904 131.252 55.8821 131.21C55.6738 131.172 55.5185 131.131 55.4162 131.085L55.8253 129.693C56.1359 129.777 56.4124 129.813 56.6548 129.801C56.8973 129.79 57.1113 129.699 57.2969 129.528C57.4863 129.358 57.6529 129.08 57.7969 128.693L58.0071 128.114L54.8139 119.273H56.6321L58.8423 126.045H58.9332L61.1435 119.273H62.9673L59.3707 129.165C59.2041 129.619 58.992 130.004 58.7344 130.318C58.4768 130.636 58.17 130.875 57.8139 131.034C57.4579 131.193 57.045 131.273 56.5753 131.273ZM72.9517 119.273V120.636H68.0199V119.273H72.9517ZM69.3722 128V118.261C69.3722 117.716 69.4915 117.263 69.7301 116.903C69.9688 116.54 70.285 116.269 70.679 116.091C71.0729 115.909 71.5009 115.818 71.9631 115.818C72.304 115.818 72.5956 115.847 72.8381 115.903C73.0805 115.956 73.2604 116.006 73.3778 116.051L72.9801 117.426C72.9006 117.403 72.7983 117.377 72.6733 117.347C72.5483 117.312 72.3968 117.295 72.2188 117.295C71.8059 117.295 71.5104 117.398 71.3324 117.602C71.1581 117.807 71.071 118.102 71.071 118.489V128H69.3722ZM74.7045 128V119.273H76.3466V120.659H76.4375C76.5966 120.189 76.8769 119.82 77.2784 119.551C77.6837 119.278 78.142 119.142 78.6534 119.142C78.7595 119.142 78.8845 119.146 79.0284 119.153C79.1761 119.161 79.2917 119.17 79.375 119.182V120.807C79.3068 120.788 79.1856 120.767 79.0114 120.744C78.8371 120.718 78.6629 120.705 78.4886 120.705C78.0871 120.705 77.7292 120.79 77.4148 120.96C77.1042 121.127 76.858 121.36 76.6761 121.659C76.4943 121.955 76.4034 122.292 76.4034 122.67V128H74.7045ZM80.8452 128V119.273H82.544V128H80.8452ZM81.7031 117.926C81.4077 117.926 81.1539 117.828 80.9418 117.631C80.7334 117.43 80.6293 117.191 80.6293 116.915C80.6293 116.634 80.7334 116.396 80.9418 116.199C81.1539 115.998 81.4077 115.898 81.7031 115.898C81.9986 115.898 82.2505 115.998 82.4588 116.199C82.6709 116.396 82.777 116.634 82.777 116.915C82.777 117.191 82.6709 117.43 82.4588 117.631C82.2505 117.828 81.9986 117.926 81.7031 117.926ZM88.5909 128.176C87.7311 128.176 86.9905 127.992 86.3693 127.625C85.7519 127.254 85.2746 126.733 84.9375 126.062C84.6042 125.388 84.4375 124.598 84.4375 123.693C84.4375 122.799 84.6042 122.011 84.9375 121.33C85.2746 120.648 85.7443 120.116 86.3466 119.733C86.9527 119.35 87.661 119.159 88.4716 119.159C88.964 119.159 89.4413 119.241 89.9034 119.403C90.3655 119.566 90.7803 119.822 91.1477 120.17C91.5152 120.519 91.8049 120.972 92.017 121.528C92.2292 122.081 92.3352 122.754 92.3352 123.545V124.148H85.3977V122.875H90.6705C90.6705 122.428 90.5795 122.032 90.3977 121.688C90.2159 121.339 89.9602 121.064 89.6307 120.864C89.3049 120.663 88.9223 120.562 88.483 120.562C88.0057 120.562 87.589 120.68 87.233 120.915C86.8807 121.146 86.608 121.449 86.4148 121.824C86.2254 122.195 86.1307 122.598 86.1307 123.034V124.028C86.1307 124.612 86.233 125.108 86.4375 125.517C86.6458 125.926 86.9356 126.239 87.3068 126.455C87.678 126.667 88.1117 126.773 88.608 126.773C88.9299 126.773 89.2235 126.727 89.4886 126.636C89.7538 126.542 89.983 126.402 90.1761 126.216C90.3693 126.03 90.517 125.801 90.6193 125.528L92.2273 125.818C92.0985 126.292 91.8674 126.706 91.5341 127.062C91.2045 127.415 90.7898 127.689 90.2898 127.886C89.7936 128.08 89.2273 128.176 88.5909 128.176ZM97.4872 128.17C96.7827 128.17 96.1539 127.991 95.6009 127.631C95.0516 127.267 94.6198 126.75 94.3054 126.08C93.9948 125.405 93.8395 124.597 93.8395 123.653C93.8395 122.71 93.9967 121.903 94.3111 121.233C94.6293 120.562 95.0649 120.049 95.6179 119.693C96.1709 119.337 96.7978 119.159 97.4986 119.159C98.0402 119.159 98.4759 119.25 98.8054 119.432C99.1387 119.61 99.3963 119.818 99.5781 120.057C99.7637 120.295 99.9077 120.506 100.01 120.688H100.112V116.364H101.811V128H100.152V126.642H100.01C99.9077 126.828 99.7599 127.04 99.5668 127.278C99.3774 127.517 99.116 127.725 98.7827 127.903C98.4493 128.081 98.0175 128.17 97.4872 128.17ZM97.8622 126.722C98.3509 126.722 98.7637 126.593 99.1009 126.335C99.4418 126.074 99.6993 125.712 99.8736 125.25C100.052 124.788 100.141 124.25 100.141 123.636C100.141 123.03 100.054 122.5 99.8793 122.045C99.705 121.591 99.4493 121.237 99.1122 120.983C98.7751 120.729 98.3584 120.602 97.8622 120.602C97.3509 120.602 96.9247 120.735 96.5838 121C96.2429 121.265 95.9853 121.627 95.8111 122.085C95.6406 122.544 95.5554 123.061 95.5554 123.636C95.5554 124.22 95.6425 124.744 95.8168 125.21C95.991 125.676 96.2486 126.045 96.5895 126.318C96.9342 126.587 97.3584 126.722 97.8622 126.722ZM112.146 128.176C111.302 128.176 110.574 127.985 109.964 127.602C109.358 127.216 108.893 126.684 108.567 126.006C108.241 125.328 108.078 124.551 108.078 123.676C108.078 122.79 108.245 122.008 108.578 121.33C108.911 120.648 109.381 120.116 109.987 119.733C110.593 119.35 111.307 119.159 112.129 119.159C112.792 119.159 113.383 119.282 113.902 119.528C114.421 119.771 114.839 120.112 115.158 120.551C115.48 120.991 115.671 121.504 115.732 122.091H114.078C113.987 121.682 113.779 121.33 113.453 121.034C113.131 120.739 112.699 120.591 112.158 120.591C111.684 120.591 111.269 120.716 110.913 120.966C110.561 121.212 110.286 121.564 110.089 122.023C109.893 122.477 109.794 123.015 109.794 123.636C109.794 124.273 109.891 124.822 110.084 125.284C110.277 125.746 110.55 126.104 110.902 126.358C111.258 126.612 111.677 126.739 112.158 126.739C112.48 126.739 112.771 126.68 113.033 126.562C113.298 126.441 113.519 126.269 113.697 126.045C113.879 125.822 114.006 125.553 114.078 125.239H115.732C115.671 125.803 115.487 126.307 115.18 126.75C114.874 127.193 114.463 127.542 113.947 127.795C113.436 128.049 112.836 128.176 112.146 128.176ZM119.247 122.818V128H117.548V116.364H119.224V120.693H119.332C119.537 120.223 119.849 119.85 120.27 119.574C120.69 119.297 121.24 119.159 121.918 119.159C122.516 119.159 123.039 119.282 123.486 119.528C123.937 119.775 124.285 120.142 124.531 120.631C124.781 121.116 124.906 121.722 124.906 122.449V128H123.207V122.653C123.207 122.013 123.043 121.517 122.713 121.165C122.384 120.809 121.925 120.631 121.338 120.631C120.937 120.631 120.577 120.716 120.259 120.886C119.944 121.057 119.696 121.307 119.514 121.636C119.336 121.962 119.247 122.356 119.247 122.818ZM127.173 128V119.273H128.872V128H127.173ZM128.031 117.926C127.736 117.926 127.482 117.828 127.27 117.631C127.062 117.43 126.957 117.191 126.957 116.915C126.957 116.634 127.062 116.396 127.27 116.199C127.482 115.998 127.736 115.898 128.031 115.898C128.327 115.898 128.579 115.998 128.787 116.199C128.999 116.396 129.105 116.634 129.105 116.915C129.105 117.191 128.999 117.43 128.787 117.631C128.579 117.828 128.327 117.926 128.031 117.926ZM134.834 128.176C133.989 128.176 133.262 127.985 132.652 127.602C132.046 127.216 131.58 126.684 131.254 126.006C130.929 125.328 130.766 124.551 130.766 123.676C130.766 122.79 130.932 122.008 131.266 121.33C131.599 120.648 132.069 120.116 132.675 119.733C133.281 119.35 133.995 119.159 134.817 119.159C135.48 119.159 136.071 119.282 136.589 119.528C137.108 119.771 137.527 120.112 137.845 120.551C138.167 120.991 138.358 121.504 138.419 122.091H136.766C136.675 121.682 136.466 121.33 136.141 121.034C135.819 120.739 135.387 120.591 134.845 120.591C134.372 120.591 133.957 120.716 133.601 120.966C133.249 121.212 132.974 121.564 132.777 122.023C132.58 122.477 132.482 123.015 132.482 123.636C132.482 124.273 132.578 124.822 132.771 125.284C132.964 125.746 133.237 126.104 133.589 126.358C133.946 126.612 134.364 126.739 134.845 126.739C135.167 126.739 135.459 126.68 135.72 126.562C135.985 126.441 136.207 126.269 136.385 126.045C136.567 125.822 136.694 125.553 136.766 125.239H138.419C138.358 125.803 138.175 126.307 137.868 126.75C137.561 127.193 137.15 127.542 136.635 127.795C136.124 128.049 135.523 128.176 134.834 128.176ZM141.798 125.04L141.787 122.966H142.082L145.56 119.273H147.594L143.628 123.477H143.361L141.798 125.04ZM140.236 128V116.364H141.935V128H140.236ZM145.747 128L142.622 123.852L143.793 122.665L147.832 128H145.747ZM152.544 128.176C151.684 128.176 150.944 127.992 150.322 127.625C149.705 127.254 149.228 126.733 148.891 126.062C148.557 125.388 148.391 124.598 148.391 123.693C148.391 122.799 148.557 122.011 148.891 121.33C149.228 120.648 149.697 120.116 150.3 119.733C150.906 119.35 151.614 119.159 152.425 119.159C152.917 119.159 153.394 119.241 153.857 119.403C154.319 119.566 154.733 119.822 155.101 120.17C155.468 120.519 155.758 120.972 155.97 121.528C156.182 122.081 156.288 122.754 156.288 123.545V124.148H149.351V122.875H154.624C154.624 122.428 154.533 122.032 154.351 121.688C154.169 121.339 153.913 121.064 153.584 120.864C153.258 120.663 152.875 120.562 152.436 120.562C151.959 120.562 151.542 120.68 151.186 120.915C150.834 121.146 150.561 121.449 150.368 121.824C150.179 122.195 150.084 122.598 150.084 123.034V124.028C150.084 124.612 150.186 125.108 150.391 125.517C150.599 125.926 150.889 126.239 151.26 126.455C151.631 126.667 152.065 126.773 152.561 126.773C152.883 126.773 153.177 126.727 153.442 126.636C153.707 126.542 153.936 126.402 154.129 126.216C154.322 126.03 154.47 125.801 154.572 125.528L156.18 125.818C156.052 126.292 155.821 126.706 155.487 127.062C155.158 127.415 154.743 127.689 154.243 127.886C153.747 128.08 153.18 128.176 152.544 128.176ZM159.872 122.818V128H158.173V119.273H159.804V120.693H159.912C160.113 120.231 160.427 119.86 160.855 119.58C161.287 119.299 161.83 119.159 162.486 119.159C163.08 119.159 163.601 119.284 164.048 119.534C164.495 119.78 164.842 120.148 165.088 120.636C165.334 121.125 165.457 121.729 165.457 122.449V128H163.759V122.653C163.759 122.021 163.594 121.527 163.264 121.17C162.935 120.811 162.482 120.631 161.906 120.631C161.512 120.631 161.162 120.716 160.855 120.886C160.552 121.057 160.312 121.307 160.134 121.636C159.959 121.962 159.872 122.356 159.872 122.818ZM20.6818 152.193C20.1288 152.193 19.6288 152.091 19.1818 151.886C18.7348 151.678 18.3807 151.377 18.1193 150.983C17.8617 150.589 17.733 150.106 17.733 149.534C17.733 149.042 17.8277 148.636 18.017 148.318C18.2064 148 18.4621 147.748 18.7841 147.562C19.1061 147.377 19.4659 147.237 19.8636 147.142C20.2614 147.047 20.6667 146.975 21.0795 146.926C21.6023 146.866 22.0265 146.816 22.3523 146.778C22.678 146.737 22.9148 146.67 23.0625 146.58C23.2102 146.489 23.2841 146.341 23.2841 146.136V146.097C23.2841 145.6 23.1439 145.216 22.8636 144.943C22.5871 144.67 22.1742 144.534 21.625 144.534C21.053 144.534 20.6023 144.661 20.2727 144.915C19.947 145.165 19.7216 145.443 19.5966 145.75L18 145.386C18.1894 144.856 18.4659 144.428 18.8295 144.102C19.197 143.773 19.6193 143.534 20.0966 143.386C20.5739 143.235 21.0758 143.159 21.6023 143.159C21.9508 143.159 22.3201 143.201 22.7102 143.284C23.1042 143.364 23.4716 143.511 23.8125 143.727C24.1572 143.943 24.4394 144.252 24.6591 144.653C24.8788 145.051 24.9886 145.568 24.9886 146.205V152H23.3295V150.807H23.2614C23.1515 151.027 22.9867 151.242 22.767 151.455C22.5473 151.667 22.2652 151.843 21.9205 151.983C21.5758 152.123 21.1629 152.193 20.6818 152.193ZM21.0511 150.83C21.5208 150.83 21.9223 150.737 22.2557 150.551C22.5928 150.366 22.8485 150.123 23.0227 149.824C23.2008 149.521 23.2898 149.197 23.2898 148.852V147.727C23.2292 147.788 23.1117 147.845 22.9375 147.898C22.767 147.947 22.572 147.991 22.3523 148.028C22.1326 148.062 21.9186 148.095 21.7102 148.125C21.5019 148.152 21.3277 148.174 21.1875 148.193C20.858 148.235 20.5568 148.305 20.2841 148.403C20.0152 148.502 19.7992 148.644 19.6364 148.83C19.4773 149.011 19.3977 149.254 19.3977 149.557C19.3977 149.977 19.553 150.295 19.8636 150.511C20.1742 150.723 20.5701 150.83 21.0511 150.83ZM28.9503 146.818V152H27.2514V143.273H28.8821V144.693H28.9901C29.1908 144.231 29.5052 143.86 29.9332 143.58C30.3651 143.299 30.9086 143.159 31.5639 143.159C32.1586 143.159 32.6795 143.284 33.1264 143.534C33.5734 143.78 33.92 144.148 34.1662 144.636C34.4124 145.125 34.5355 145.729 34.5355 146.449V152H32.8366V146.653C32.8366 146.021 32.6719 145.527 32.3423 145.17C32.0128 144.811 31.5601 144.631 30.9844 144.631C30.5904 144.631 30.2401 144.716 29.9332 144.886C29.6302 145.057 29.3897 145.307 29.2116 145.636C29.0374 145.962 28.9503 146.356 28.9503 146.818ZM40.081 152.17C39.3764 152.17 38.7476 151.991 38.1946 151.631C37.6454 151.267 37.2135 150.75 36.8991 150.08C36.5885 149.405 36.4332 148.597 36.4332 147.653C36.4332 146.71 36.5904 145.903 36.9048 145.233C37.223 144.562 37.6586 144.049 38.2116 143.693C38.7647 143.337 39.3916 143.159 40.0923 143.159C40.634 143.159 41.0696 143.25 41.3991 143.432C41.7325 143.61 41.9901 143.818 42.1719 144.057C42.3575 144.295 42.5014 144.506 42.6037 144.688H42.706V140.364H44.4048V152H42.7457V150.642H42.6037C42.5014 150.828 42.3537 151.04 42.1605 151.278C41.9711 151.517 41.7098 151.725 41.3764 151.903C41.0431 152.081 40.6113 152.17 40.081 152.17ZM40.456 150.722C40.9446 150.722 41.3575 150.593 41.6946 150.335C42.0355 150.074 42.2931 149.712 42.4673 149.25C42.6454 148.788 42.7344 148.25 42.7344 147.636C42.7344 147.03 42.6473 146.5 42.473 146.045C42.2988 145.591 42.0431 145.237 41.706 144.983C41.3688 144.729 40.9522 144.602 40.456 144.602C39.9446 144.602 39.5185 144.735 39.1776 145C38.8366 145.265 38.5791 145.627 38.4048 146.085C38.2344 146.544 38.1491 147.061 38.1491 147.636C38.1491 148.22 38.2363 148.744 38.4105 149.21C38.5848 149.676 38.8423 150.045 39.1832 150.318C39.5279 150.587 39.9522 150.722 40.456 150.722ZM51.0639 155.273V143.273H52.723V144.688H52.8651C52.9635 144.506 53.1056 144.295 53.2912 144.057C53.4768 143.818 53.7344 143.61 54.0639 143.432C54.3935 143.25 54.8291 143.159 55.3707 143.159C56.0753 143.159 56.7041 143.337 57.2571 143.693C57.8101 144.049 58.2438 144.562 58.5582 145.233C58.8764 145.903 59.0355 146.71 59.0355 147.653C59.0355 148.597 58.8783 149.405 58.5639 150.08C58.2495 150.75 57.8177 151.267 57.2685 151.631C56.7192 151.991 56.0923 152.17 55.3878 152.17C54.8575 152.17 54.4238 152.081 54.0866 151.903C53.7533 151.725 53.492 151.517 53.3026 151.278C53.1132 151.04 52.9673 150.828 52.8651 150.642H52.7628V155.273H51.0639ZM52.7287 147.636C52.7287 148.25 52.8177 148.788 52.9957 149.25C53.1738 149.712 53.4313 150.074 53.7685 150.335C54.1056 150.593 54.5185 150.722 55.0071 150.722C55.5147 150.722 55.9389 150.587 56.2798 150.318C56.6207 150.045 56.8783 149.676 57.0526 149.21C57.2306 148.744 57.3196 148.22 57.3196 147.636C57.3196 147.061 57.2325 146.544 57.0582 146.085C56.8878 145.627 56.6302 145.265 56.2855 145C55.9446 144.735 55.5185 144.602 55.0071 144.602C54.5147 144.602 54.098 144.729 53.7571 144.983C53.42 145.237 53.1643 145.591 52.9901 146.045C52.8158 146.5 52.7287 147.03 52.7287 147.636ZM62.6378 140.364V152H60.9389V140.364H62.6378ZM67.4631 152.193C66.91 152.193 66.41 152.091 65.9631 151.886C65.5161 151.678 65.1619 151.377 64.9006 150.983C64.643 150.589 64.5142 150.106 64.5142 149.534C64.5142 149.042 64.6089 148.636 64.7983 148.318C64.9877 148 65.2434 147.748 65.5653 147.562C65.8873 147.377 66.2472 147.237 66.6449 147.142C67.0426 147.047 67.4479 146.975 67.8608 146.926C68.3835 146.866 68.8078 146.816 69.1335 146.778C69.4593 146.737 69.696 146.67 69.8438 146.58C69.9915 146.489 70.0653 146.341 70.0653 146.136V146.097C70.0653 145.6 69.9252 145.216 69.6449 144.943C69.3684 144.67 68.9555 144.534 68.4062 144.534C67.8343 144.534 67.3835 144.661 67.054 144.915C66.7282 145.165 66.5028 145.443 66.3778 145.75L64.7812 145.386C64.9706 144.856 65.2472 144.428 65.6108 144.102C65.9782 143.773 66.4006 143.534 66.8778 143.386C67.3551 143.235 67.857 143.159 68.3835 143.159C68.732 143.159 69.1013 143.201 69.4915 143.284C69.8854 143.364 70.2528 143.511 70.5938 143.727C70.9384 143.943 71.2206 144.252 71.4403 144.653C71.66 145.051 71.7699 145.568 71.7699 146.205V152H70.1108V150.807H70.0426C69.9328 151.027 69.768 151.242 69.5483 151.455C69.3286 151.667 69.0464 151.843 68.7017 151.983C68.357 152.123 67.9441 152.193 67.4631 152.193ZM67.8324 150.83C68.3021 150.83 68.7036 150.737 69.0369 150.551C69.3741 150.366 69.6297 150.123 69.804 149.824C69.982 149.521 70.071 149.197 70.071 148.852V147.727C70.0104 147.788 69.893 147.845 69.7188 147.898C69.5483 147.947 69.3532 147.991 69.1335 148.028C68.9138 148.062 68.6998 148.095 68.4915 148.125C68.2831 148.152 68.1089 148.174 67.9688 148.193C67.6392 148.235 67.3381 148.305 67.0653 148.403C66.7964 148.502 66.5805 148.644 66.4176 148.83C66.2585 149.011 66.179 149.254 66.179 149.557C66.179 149.977 66.3343 150.295 66.6449 150.511C66.9555 150.723 67.3513 150.83 67.8324 150.83ZM75.7315 146.818V152H74.0327V143.273H75.6634V144.693H75.7713C75.9721 144.231 76.2865 143.86 76.7145 143.58C77.1463 143.299 77.6899 143.159 78.3452 143.159C78.9399 143.159 79.4607 143.284 79.9077 143.534C80.3546 143.78 80.7012 144.148 80.9474 144.636C81.1937 145.125 81.3168 145.729 81.3168 146.449V152H79.6179V146.653C79.6179 146.021 79.4531 145.527 79.1236 145.17C78.794 144.811 78.3414 144.631 77.7656 144.631C77.3717 144.631 77.0213 144.716 76.7145 144.886C76.4115 145.057 76.1709 145.307 75.9929 145.636C75.8187 145.962 75.7315 146.356 75.7315 146.818ZM87.669 143.273V144.636H82.902V143.273H87.669ZM84.1804 141.182H85.8793V149.438C85.8793 149.767 85.9285 150.015 86.027 150.182C86.1255 150.345 86.2524 150.456 86.4077 150.517C86.5668 150.574 86.7391 150.602 86.9247 150.602C87.0611 150.602 87.1804 150.593 87.2827 150.574C87.3849 150.555 87.4645 150.54 87.5213 150.528L87.8281 151.932C87.7296 151.97 87.5895 152.008 87.4077 152.045C87.2259 152.087 86.9986 152.11 86.7259 152.114C86.2789 152.121 85.8622 152.042 85.4759 151.875C85.0895 151.708 84.777 151.451 84.5384 151.102C84.2997 150.754 84.1804 150.316 84.1804 149.79V141.182ZM92.0881 152.193C91.535 152.193 91.035 152.091 90.5881 151.886C90.1411 151.678 89.7869 151.377 89.5256 150.983C89.268 150.589 89.1392 150.106 89.1392 149.534C89.1392 149.042 89.2339 148.636 89.4233 148.318C89.6127 148 89.8684 147.748 90.1903 147.562C90.5123 147.377 90.8722 147.237 91.2699 147.142C91.6676 147.047 92.0729 146.975 92.4858 146.926C93.0085 146.866 93.4328 146.816 93.7585 146.778C94.0843 146.737 94.321 146.67 94.4688 146.58C94.6165 146.489 94.6903 146.341 94.6903 146.136V146.097C94.6903 145.6 94.5502 145.216 94.2699 144.943C93.9934 144.67 93.5805 144.534 93.0312 144.534C92.4593 144.534 92.0085 144.661 91.679 144.915C91.3532 145.165 91.1278 145.443 91.0028 145.75L89.4062 145.386C89.5956 144.856 89.8722 144.428 90.2358 144.102C90.6032 143.773 91.0256 143.534 91.5028 143.386C91.9801 143.235 92.482 143.159 93.0085 143.159C93.357 143.159 93.7263 143.201 94.1165 143.284C94.5104 143.364 94.8778 143.511 95.2188 143.727C95.5634 143.943 95.8456 144.252 96.0653 144.653C96.285 145.051 96.3949 145.568 96.3949 146.205V152H94.7358V150.807H94.6676C94.5578 151.027 94.393 151.242 94.1733 151.455C93.9536 151.667 93.6714 151.843 93.3267 151.983C92.982 152.123 92.5691 152.193 92.0881 152.193ZM92.4574 150.83C92.9271 150.83 93.3286 150.737 93.6619 150.551C93.9991 150.366 94.2547 150.123 94.429 149.824C94.607 149.521 94.696 149.197 94.696 148.852V147.727C94.6354 147.788 94.518 147.845 94.3438 147.898C94.1733 147.947 93.9782 147.991 93.7585 148.028C93.5388 148.062 93.3248 148.095 93.1165 148.125C92.9081 148.152 92.7339 148.174 92.5938 148.193C92.2642 148.235 91.9631 148.305 91.6903 148.403C91.4214 148.502 91.2055 148.644 91.0426 148.83C90.8835 149.011 90.804 149.254 90.804 149.557C90.804 149.977 90.9593 150.295 91.2699 150.511C91.5805 150.723 91.9763 150.83 92.4574 150.83ZM98.6577 152V143.273H100.357V152H98.6577ZM99.5156 141.926C99.2202 141.926 98.9664 141.828 98.7543 141.631C98.5459 141.43 98.4418 141.191 98.4418 140.915C98.4418 140.634 98.5459 140.396 98.7543 140.199C98.9664 139.998 99.2202 139.898 99.5156 139.898C99.8111 139.898 100.063 139.998 100.271 140.199C100.483 140.396 100.589 140.634 100.589 140.915C100.589 141.191 100.483 141.43 100.271 141.631C100.063 141.828 99.8111 141.926 99.5156 141.926ZM104.341 146.818V152H102.642V143.273H104.273V144.693H104.381C104.581 144.231 104.896 143.86 105.324 143.58C105.756 143.299 106.299 143.159 106.955 143.159C107.549 143.159 108.07 143.284 108.517 143.534C108.964 143.78 109.311 144.148 109.557 144.636C109.803 145.125 109.926 145.729 109.926 146.449V152H108.227V146.653C108.227 146.021 108.063 145.527 107.733 145.17C107.403 144.811 106.951 144.631 106.375 144.631C105.981 144.631 105.631 144.716 105.324 144.886C105.021 145.057 104.78 145.307 104.602 145.636C104.428 145.962 104.341 146.356 104.341 146.818ZM113.324 152.108C113.013 152.108 112.746 151.998 112.523 151.778C112.299 151.555 112.188 151.286 112.188 150.972C112.188 150.661 112.299 150.396 112.523 150.176C112.746 149.953 113.013 149.841 113.324 149.841C113.634 149.841 113.902 149.953 114.125 150.176C114.348 150.396 114.46 150.661 114.46 150.972C114.46 151.18 114.407 151.371 114.301 151.545C114.199 151.716 114.062 151.852 113.892 151.955C113.722 152.057 113.532 152.108 113.324 152.108Z" fill="#1F2937"/>
</svg>
