<svg width="224" height="197" viewBox="0 0 224 197" fill="none" xmlns="http://www.w3.org/2000/svg">
<g clip-path="url(#clip0_1246_1439)">
<rect x="20" y="20" width="82" height="36" rx="4" fill="#FF7A18"/>
<path d="M37.6655 37.5795L35.7905 37.7841C35.7375 37.5947 35.6446 37.4167 35.5121 37.25C35.3833 37.0833 35.209 36.9489 34.9893 36.8466C34.7696 36.7443 34.5007 36.6932 34.1825 36.6932C33.7545 36.6932 33.3946 36.786 33.103 36.9716C32.8151 37.1572 32.6731 37.3977 32.6768 37.6932C32.6731 37.947 32.7659 38.1534 32.9553 38.3125C33.1484 38.4716 33.4666 38.6023 33.9098 38.7045L35.3984 39.0227C36.2242 39.2008 36.8378 39.483 37.2393 39.8693C37.6446 40.2557 37.8492 40.7614 37.853 41.3864C37.8492 41.9356 37.6882 42.4205 37.37 42.8409C37.0556 43.2576 36.6181 43.5833 36.0575 43.8182C35.4969 44.053 34.853 44.1705 34.1257 44.1705C33.0575 44.1705 32.1977 43.947 31.5462 43.5C30.8946 43.0492 30.5064 42.4223 30.3814 41.6193L32.3871 41.4261C32.478 41.8201 32.6712 42.1174 32.9666 42.3182C33.2621 42.5189 33.6465 42.6193 34.12 42.6193C34.6087 42.6193 35.0007 42.5189 35.2962 42.3182C35.5954 42.1174 35.745 41.8693 35.745 41.5739C35.745 41.3239 35.6484 41.1174 35.4553 40.9545C35.2659 40.7917 34.9704 40.6667 34.5689 40.5795L33.0803 40.267C32.2431 40.0928 31.6238 39.7992 31.2223 39.3864C30.8208 38.9697 30.6219 38.4432 30.6257 37.8068C30.6219 37.2689 30.7678 36.803 31.0632 36.4091C31.3625 36.0114 31.7772 35.7045 32.3075 35.4886C32.8416 35.2689 33.4571 35.1591 34.1541 35.1591C35.1768 35.1591 35.9818 35.3769 36.5689 35.8125C37.1598 36.2481 37.5253 36.8371 37.6655 37.5795ZM41.3501 44L38.8842 35.2727H40.9808L42.5149 41.4091H42.5945L44.1626 35.2727H46.2365L47.8047 41.375H47.8899L49.4013 35.2727H51.5036L49.032 44H46.8899L45.2536 38.1023H45.1342L43.4979 44H41.3501ZM55.451 44.1761C54.898 44.1761 54.3999 44.0777 53.9567 43.8807C53.5173 43.6799 53.1688 43.3845 52.9112 42.9943C52.6574 42.6042 52.5305 42.1231 52.5305 41.5511C52.5305 41.0587 52.6214 40.6515 52.8033 40.3295C52.9851 40.0076 53.2332 39.75 53.5476 39.5568C53.862 39.3636 54.2161 39.2178 54.6101 39.1193C55.0078 39.017 55.4188 38.9432 55.843 38.8977C56.3544 38.8447 56.7692 38.7973 57.0874 38.7557C57.4055 38.7102 57.6366 38.642 57.7805 38.5511C57.9283 38.4564 58.0021 38.3106 58.0021 38.1136V38.0795C58.0021 37.6515 57.8752 37.3201 57.6214 37.0852C57.3677 36.8504 57.0021 36.733 56.5249 36.733C56.0211 36.733 55.6214 36.8428 55.326 37.0625C55.0343 37.2822 54.8374 37.5417 54.7351 37.8409L52.8146 37.5682C52.9661 37.0379 53.2161 36.5947 53.5646 36.2386C53.9131 35.8788 54.3393 35.6098 54.843 35.4318C55.3468 35.25 55.9036 35.1591 56.5135 35.1591C56.9339 35.1591 57.3525 35.2083 57.7692 35.3068C58.1858 35.4053 58.5665 35.5682 58.9112 35.7955C59.2559 36.0189 59.5324 36.3239 59.7408 36.7102C59.9529 37.0966 60.0589 37.5795 60.0589 38.1591V44H58.0817V42.8011H58.0135C57.8885 43.0436 57.7124 43.2708 57.4851 43.483C57.2616 43.6913 56.9794 43.8598 56.6385 43.9886C56.3014 44.1136 55.9055 44.1761 55.451 44.1761ZM55.9851 42.6648C56.398 42.6648 56.7559 42.5833 57.0589 42.4205C57.362 42.2538 57.5949 42.0341 57.7578 41.7614C57.9245 41.4886 58.0078 41.1913 58.0078 40.8693V39.8409C57.9434 39.8939 57.8336 39.9432 57.6783 39.9886C57.5268 40.0341 57.3563 40.0739 57.1669 40.108C56.9775 40.142 56.79 40.1723 56.6044 40.1989C56.4188 40.2254 56.2578 40.2481 56.1214 40.267C55.8146 40.3087 55.54 40.3769 55.2976 40.4716C55.0552 40.5663 54.8639 40.6989 54.7237 40.8693C54.5836 41.036 54.5135 41.2519 54.5135 41.517C54.5135 41.8958 54.6518 42.1818 54.9283 42.375C55.2048 42.5682 55.5571 42.6648 55.9851 42.6648ZM64.1839 32.3636V44H62.1271V32.3636H64.1839ZM68.3558 32.3636V44H66.299V32.3636H68.3558ZM74.2777 44.1705C73.4254 44.1705 72.6868 43.983 72.0618 43.608C71.4368 43.233 70.9519 42.7083 70.6072 42.0341C70.2663 41.3598 70.0959 40.572 70.0959 39.6705C70.0959 38.7689 70.2663 37.9792 70.6072 37.3011C70.9519 36.6231 71.4368 36.0966 72.0618 35.7216C72.6868 35.3466 73.4254 35.1591 74.2777 35.1591C75.13 35.1591 75.8686 35.3466 76.4936 35.7216C77.1186 36.0966 77.6016 36.6231 77.9425 37.3011C78.2872 37.9792 78.4595 38.7689 78.4595 39.6705C78.4595 40.572 78.2872 41.3598 77.9425 42.0341C77.6016 42.7083 77.1186 43.233 76.4936 43.608C75.8686 43.983 75.13 44.1705 74.2777 44.1705ZM74.2891 42.5227C74.7512 42.5227 75.1375 42.3958 75.4482 42.142C75.7588 41.8845 75.9898 41.5398 76.1413 41.108C76.2966 40.6761 76.3743 40.1951 76.3743 39.6648C76.3743 39.1307 76.2966 38.6477 76.1413 38.2159C75.9898 37.7803 75.7588 37.4337 75.4482 37.1761C75.1375 36.9186 74.7512 36.7898 74.2891 36.7898C73.8156 36.7898 73.4216 36.9186 73.1072 37.1761C72.7966 37.4337 72.5637 37.7803 72.4084 38.2159C72.2569 38.6477 72.1811 39.1307 72.1811 39.6648C72.1811 40.1951 72.2569 40.6761 72.4084 41.108C72.5637 41.5398 72.7966 41.8845 73.1072 42.142C73.4216 42.3958 73.8156 42.5227 74.2891 42.5227ZM81.7564 44L79.2905 35.2727H81.3871L82.9212 41.4091H83.0007L84.5689 35.2727H86.6428L88.2109 41.375H88.2962L89.8075 35.2727H91.9098L89.4382 44H87.2962L85.6598 38.1023H85.5405L83.9041 44H81.7564Z" fill="white"/>
<rect x="20.5" y="81.5" width="77" height="35" rx="3.5" stroke="#BDBDBD"/>
<path d="M35.6655 98.5795L33.7905 98.7841C33.7375 98.5947 33.6446 98.4167 33.5121 98.25C33.3833 98.0833 33.209 97.9489 32.9893 97.8466C32.7696 97.7443 32.5007 97.6932 32.1825 97.6932C31.7545 97.6932 31.3946 97.786 31.103 97.9716C30.8151 98.1572 30.6731 98.3977 30.6768 98.6932C30.6731 98.947 30.7659 99.1534 30.9553 99.3125C31.1484 99.4716 31.4666 99.6023 31.9098 99.7045L33.3984 100.023C34.2242 100.201 34.8378 100.483 35.2393 100.869C35.6446 101.256 35.8492 101.761 35.853 102.386C35.8492 102.936 35.6882 103.42 35.37 103.841C35.0556 104.258 34.6181 104.583 34.0575 104.818C33.4969 105.053 32.853 105.17 32.1257 105.17C31.0575 105.17 30.1977 104.947 29.5462 104.5C28.8946 104.049 28.5064 103.422 28.3814 102.619L30.3871 102.426C30.478 102.82 30.6712 103.117 30.9666 103.318C31.2621 103.519 31.6465 103.619 32.12 103.619C32.6087 103.619 33.0007 103.519 33.2962 103.318C33.5954 103.117 33.745 102.869 33.745 102.574C33.745 102.324 33.6484 102.117 33.4553 101.955C33.2659 101.792 32.9704 101.667 32.5689 101.58L31.0803 101.267C30.2431 101.093 29.6238 100.799 29.2223 100.386C28.8208 99.9697 28.6219 99.4432 28.6257 98.8068C28.6219 98.2689 28.7678 97.803 29.0632 97.4091C29.3625 97.0114 29.7772 96.7045 30.3075 96.4886C30.8416 96.2689 31.4571 96.1591 32.1541 96.1591C33.1768 96.1591 33.9818 96.3769 34.5689 96.8125C35.1598 97.2481 35.5253 97.8371 35.6655 98.5795ZM39.3501 105L36.8842 96.2727H38.9808L40.5149 102.409H40.5945L42.1626 96.2727H44.2365L45.8047 102.375H45.8899L47.4013 96.2727H49.5036L47.032 105H44.8899L43.2536 99.1023H43.1342L41.4979 105H39.3501ZM53.451 105.176C52.898 105.176 52.3999 105.078 51.9567 104.881C51.5173 104.68 51.1688 104.384 50.9112 103.994C50.6574 103.604 50.5305 103.123 50.5305 102.551C50.5305 102.059 50.6214 101.652 50.8033 101.33C50.9851 101.008 51.2332 100.75 51.5476 100.557C51.862 100.364 52.2161 100.218 52.6101 100.119C53.0078 100.017 53.4188 99.9432 53.843 99.8977C54.3544 99.8447 54.7692 99.7973 55.0874 99.7557C55.4055 99.7102 55.6366 99.642 55.7805 99.5511C55.9283 99.4564 56.0021 99.3106 56.0021 99.1136V99.0795C56.0021 98.6515 55.8752 98.3201 55.6214 98.0852C55.3677 97.8504 55.0021 97.733 54.5249 97.733C54.0211 97.733 53.6214 97.8428 53.326 98.0625C53.0343 98.2822 52.8374 98.5417 52.7351 98.8409L50.8146 98.5682C50.9661 98.0379 51.2161 97.5947 51.5646 97.2386C51.9131 96.8788 52.3393 96.6098 52.843 96.4318C53.3468 96.25 53.9036 96.1591 54.5135 96.1591C54.9339 96.1591 55.3525 96.2083 55.7692 96.3068C56.1858 96.4053 56.5665 96.5682 56.9112 96.7955C57.2559 97.0189 57.5324 97.3239 57.7408 97.7102C57.9529 98.0966 58.0589 98.5795 58.0589 99.1591V105H56.0817V103.801H56.0135C55.8885 104.044 55.7124 104.271 55.4851 104.483C55.2616 104.691 54.9794 104.86 54.6385 104.989C54.3014 105.114 53.9055 105.176 53.451 105.176ZM53.9851 103.665C54.398 103.665 54.7559 103.583 55.0589 103.42C55.362 103.254 55.5949 103.034 55.7578 102.761C55.9245 102.489 56.0078 102.191 56.0078 101.869V100.841C55.9434 100.894 55.8336 100.943 55.6783 100.989C55.5268 101.034 55.3563 101.074 55.1669 101.108C54.9775 101.142 54.79 101.172 54.6044 101.199C54.4188 101.225 54.2578 101.248 54.1214 101.267C53.8146 101.309 53.54 101.377 53.2976 101.472C53.0552 101.566 52.8639 101.699 52.7237 101.869C52.5836 102.036 52.5135 102.252 52.5135 102.517C52.5135 102.896 52.6518 103.182 52.9283 103.375C53.2048 103.568 53.5571 103.665 53.9851 103.665ZM62.1839 93.3636V105H60.1271V93.3636H62.1839ZM66.3558 93.3636V105H64.299V93.3636H66.3558ZM72.2777 105.17C71.4254 105.17 70.6868 104.983 70.0618 104.608C69.4368 104.233 68.9519 103.708 68.6072 103.034C68.2663 102.36 68.0959 101.572 68.0959 100.67C68.0959 99.7689 68.2663 98.9792 68.6072 98.3011C68.9519 97.6231 69.4368 97.0966 70.0618 96.7216C70.6868 96.3466 71.4254 96.1591 72.2777 96.1591C73.13 96.1591 73.8686 96.3466 74.4936 96.7216C75.1186 97.0966 75.6016 97.6231 75.9425 98.3011C76.2872 98.9792 76.4595 99.7689 76.4595 100.67C76.4595 101.572 76.2872 102.36 75.9425 103.034C75.6016 103.708 75.1186 104.233 74.4936 104.608C73.8686 104.983 73.13 105.17 72.2777 105.17ZM72.2891 103.523C72.7512 103.523 73.1375 103.396 73.4482 103.142C73.7588 102.884 73.9898 102.54 74.1413 102.108C74.2966 101.676 74.3743 101.195 74.3743 100.665C74.3743 100.131 74.2966 99.6477 74.1413 99.2159C73.9898 98.7803 73.7588 98.4337 73.4482 98.1761C73.1375 97.9186 72.7512 97.7898 72.2891 97.7898C71.8156 97.7898 71.4216 97.9186 71.1072 98.1761C70.7966 98.4337 70.5637 98.7803 70.4084 99.2159C70.2569 99.6477 70.1811 100.131 70.1811 100.665C70.1811 101.195 70.2569 101.676 70.4084 102.108C70.5637 102.54 70.7966 102.884 71.1072 103.142C71.4216 103.396 71.8156 103.523 72.2891 103.523ZM79.7564 105L77.2905 96.2727H79.3871L80.9212 102.409H81.0007L82.5689 96.2727H84.6428L86.2109 102.375H86.2962L87.8075 96.2727H89.9098L87.4382 105H85.2962L83.6598 99.1023H83.5405L81.9041 105H79.7564Z" fill="#1F2937"/>
<path d="M105.92 97.1136V98.25H94.3295V97.1136H105.92ZM105.92 99.5682V100.705H94.3295V99.5682H105.92ZM104.824 92.8636V104.5H103.205L97.2898 95.9659H97.1875V104.5H95.4261V92.8636H97.0568L102.972 101.409H103.08V92.8636H104.824ZM111.42 104.659C110.64 104.659 109.943 104.525 109.33 104.256C108.72 103.987 108.237 103.614 107.881 103.136C107.528 102.655 107.339 102.098 107.312 101.466H109.097C109.119 101.811 109.235 102.11 109.443 102.364C109.655 102.614 109.932 102.807 110.273 102.943C110.614 103.08 110.992 103.148 111.409 103.148C111.867 103.148 112.273 103.068 112.625 102.909C112.981 102.75 113.259 102.528 113.46 102.244C113.661 101.956 113.761 101.625 113.761 101.25C113.761 100.86 113.661 100.517 113.46 100.222C113.263 99.9223 112.973 99.6875 112.591 99.517C112.212 99.3466 111.754 99.2614 111.216 99.2614H110.233V97.8295H111.216C111.648 97.8295 112.027 97.7519 112.352 97.5966C112.682 97.4413 112.939 97.2254 113.125 96.9489C113.311 96.6686 113.403 96.3409 113.403 95.9659C113.403 95.6061 113.322 95.2936 113.159 95.0284C113 94.7595 112.773 94.5492 112.477 94.3977C112.186 94.2462 111.841 94.1705 111.443 94.1705C111.064 94.1705 110.71 94.2405 110.381 94.3807C110.055 94.517 109.79 94.714 109.585 94.9716C109.381 95.2254 109.271 95.5303 109.256 95.8864H107.557C107.576 95.2576 107.761 94.7045 108.114 94.2273C108.47 93.75 108.939 93.3769 109.523 93.108C110.106 92.839 110.754 92.7045 111.466 92.7045C112.212 92.7045 112.856 92.8504 113.398 93.142C113.943 93.4299 114.364 93.8144 114.659 94.2955C114.958 94.7765 115.106 95.303 115.102 95.875C115.106 96.5265 114.924 97.0795 114.557 97.5341C114.193 97.9886 113.708 98.2936 113.102 98.4489V98.5398C113.875 98.6572 114.473 98.964 114.898 99.4602C115.326 99.9564 115.538 100.572 115.534 101.307C115.538 101.947 115.36 102.521 115 103.028C114.644 103.536 114.157 103.936 113.54 104.227C112.922 104.515 112.216 104.659 111.42 104.659ZM119.571 102.909L119.486 103.528C119.429 103.983 119.332 104.456 119.196 104.949C119.063 105.445 118.925 105.905 118.781 106.33C118.641 106.754 118.526 107.091 118.435 107.341H117.23C117.279 107.106 117.348 106.788 117.435 106.386C117.522 105.989 117.607 105.544 117.69 105.051C117.774 104.559 117.836 104.057 117.878 103.545L117.935 102.909H119.571ZM125.601 104.659C124.889 104.659 124.249 104.523 123.68 104.25C123.116 103.973 122.665 103.595 122.328 103.114C121.991 102.633 121.811 102.083 121.788 101.466H123.493C123.535 101.966 123.756 102.377 124.158 102.699C124.559 103.021 125.04 103.182 125.601 103.182C126.048 103.182 126.444 103.08 126.788 102.875C127.137 102.667 127.41 102.381 127.607 102.017C127.807 101.653 127.908 101.239 127.908 100.773C127.908 100.299 127.805 99.8769 127.601 99.5057C127.396 99.1345 127.114 98.8428 126.754 98.6307C126.398 98.4186 125.989 98.3106 125.527 98.3068C125.175 98.3068 124.821 98.3674 124.464 98.4886C124.108 98.6098 123.821 98.7689 123.601 98.9659L121.993 98.7273L122.646 92.8636H129.044V94.3693H124.107L123.737 97.625H123.805C124.033 97.4053 124.334 97.2216 124.709 97.0739C125.088 96.9261 125.493 96.8523 125.925 96.8523C126.633 96.8523 127.264 97.0208 127.817 97.358C128.374 97.6951 128.811 98.1553 129.129 98.7386C129.451 99.3182 129.61 99.9848 129.607 100.739C129.61 101.492 129.44 102.165 129.095 102.756C128.754 103.347 128.281 103.812 127.675 104.153C127.072 104.491 126.381 104.659 125.601 104.659ZM135.733 104.693C134.835 104.689 134.068 104.453 133.432 103.983C132.795 103.513 132.309 102.83 131.972 101.932C131.634 101.034 131.466 99.9527 131.466 98.6875C131.466 97.4261 131.634 96.3485 131.972 95.4545C132.313 94.5606 132.801 93.8788 133.438 93.4091C134.078 92.9394 134.843 92.7045 135.733 92.7045C136.623 92.7045 137.386 92.9413 138.023 93.4148C138.659 93.8845 139.146 94.5663 139.483 95.4602C139.824 96.3504 139.994 97.4261 139.994 98.6875C139.994 99.9564 139.826 101.04 139.489 101.938C139.152 102.831 138.665 103.515 138.028 103.989C137.392 104.458 136.627 104.693 135.733 104.693ZM135.733 103.176C136.521 103.176 137.136 102.792 137.58 102.023C138.027 101.254 138.25 100.142 138.25 98.6875C138.25 97.7216 138.148 96.9053 137.943 96.2386C137.742 95.5682 137.453 95.0606 137.074 94.7159C136.699 94.3674 136.252 94.1932 135.733 94.1932C134.949 94.1932 134.333 94.5795 133.886 95.3523C133.439 96.125 133.214 97.2367 133.21 98.6875C133.21 99.6572 133.311 100.477 133.511 101.148C133.716 101.814 134.006 102.32 134.381 102.665C134.756 103.006 135.206 103.176 135.733 103.176ZM146.061 104.693C145.163 104.689 144.396 104.453 143.76 103.983C143.124 103.513 142.637 102.83 142.3 101.932C141.963 101.034 141.794 99.9527 141.794 98.6875C141.794 97.4261 141.963 96.3485 142.3 95.4545C142.641 94.5606 143.129 93.8788 143.766 93.4091C144.406 92.9394 145.171 92.7045 146.061 92.7045C146.951 92.7045 147.714 92.9413 148.351 93.4148C148.987 93.8845 149.474 94.5663 149.811 95.4602C150.152 96.3504 150.322 97.4261 150.322 98.6875C150.322 99.9564 150.154 101.04 149.817 101.938C149.48 102.831 148.993 103.515 148.357 103.989C147.72 104.458 146.955 104.693 146.061 104.693ZM146.061 103.176C146.849 103.176 147.464 102.792 147.908 102.023C148.355 101.254 148.578 100.142 148.578 98.6875C148.578 97.7216 148.476 96.9053 148.271 96.2386C148.071 95.5682 147.781 95.0606 147.402 94.7159C147.027 94.3674 146.58 94.1932 146.061 94.1932C145.277 94.1932 144.661 94.5795 144.214 95.3523C143.768 96.125 143.542 97.2367 143.538 98.6875C143.538 99.6572 143.639 100.477 143.839 101.148C144.044 101.814 144.334 102.32 144.709 102.665C145.084 103.006 145.535 103.176 146.061 103.176Z" fill="#FF7A18"/>
</g>
<rect x="0.5" y="0.5" width="223" height="196" rx="4.5" stroke="#8A38F5" stroke-dasharray="10 5"/>
<defs>
<clipPath id="clip0_1246_1439">
<rect width="224" height="197" rx="5" fill="white"/>
</clipPath>
</defs>
</svg>
