<svg width="369" height="54" viewBox="0 0 369 54" fill="none" xmlns="http://www.w3.org/2000/svg">
<path d="M11.7216 18.5455H15.5909L20.7727 31.1932H20.9773L26.1591 18.5455H30.0284V36H26.9943V24.0085H26.8324L22.0085 35.9489H19.7415L14.9176 23.983H14.7557V36H11.7216V18.5455ZM39.1307 36.2557C37.8182 36.2557 36.6847 35.983 35.7301 35.4375C34.7813 34.8864 34.0511 34.108 33.5398 33.1023C33.0284 32.0909 32.7727 30.9006 32.7727 29.5312C32.7727 28.1847 33.0284 27.0028 33.5398 25.9858C34.0568 24.9631 34.7784 24.1676 35.7045 23.5994C36.6307 23.0256 37.7188 22.7386 38.9688 22.7386C39.7756 22.7386 40.5369 22.8693 41.2528 23.1307C41.9744 23.3864 42.6108 23.7841 43.1619 24.3239C43.7188 24.8636 44.1563 25.5511 44.4744 26.3864C44.7926 27.2159 44.9517 28.2045 44.9517 29.3523V30.2983H34.2216V28.2188H41.9943C41.9886 27.6278 41.8608 27.1023 41.6108 26.642C41.3608 26.1761 41.0114 25.8097 40.5625 25.5426C40.1193 25.2756 39.6023 25.142 39.0114 25.142C38.3807 25.142 37.8267 25.2955 37.3494 25.6023C36.8722 25.9034 36.5 26.3011 36.233 26.7955C35.9716 27.2841 35.8381 27.821 35.8324 28.4062V30.2216C35.8324 30.983 35.9716 31.6364 36.25 32.1818C36.5284 32.7216 36.9176 33.1364 37.4176 33.4261C37.9176 33.7102 38.5028 33.8523 39.1733 33.8523C39.6222 33.8523 40.0284 33.7898 40.392 33.6648C40.7557 33.5341 41.071 33.3438 41.3381 33.0938C41.6051 32.8438 41.8068 32.5341 41.9432 32.1648L44.8239 32.4886C44.642 33.25 44.2955 33.9148 43.7841 34.483C43.2784 35.0455 42.6307 35.483 41.8409 35.7955C41.0511 36.1023 40.1477 36.2557 39.1307 36.2557ZM50.647 28.3295V36H47.5618V22.9091H50.5107V25.1335H50.6641C50.9652 24.4006 51.4453 23.8182 52.1044 23.3864C52.7692 22.9545 53.5902 22.7386 54.5675 22.7386C55.4709 22.7386 56.2578 22.9318 56.9283 23.3182C57.6044 23.7045 58.1271 24.2642 58.4964 24.9972C58.8714 25.7301 59.0561 26.6193 59.0504 27.6648V36H55.9652V28.142C55.9652 27.267 55.7379 26.5824 55.2834 26.0881C54.8345 25.5937 54.2124 25.3466 53.4169 25.3466C52.8771 25.3466 52.397 25.4659 51.9766 25.7045C51.5618 25.9375 51.2351 26.2756 50.9964 26.7188C50.7635 27.1619 50.647 27.6989 50.647 28.3295ZM70.5305 30.4943V22.9091H73.6158V36H70.6243V33.6733H70.4879C70.1925 34.4062 69.7067 35.0057 69.0305 35.4716C68.3601 35.9375 67.5334 36.1705 66.5504 36.1705C65.6925 36.1705 64.9339 35.9801 64.2749 35.5994C63.6214 35.2131 63.1101 34.6534 62.7408 33.9205C62.3714 33.1818 62.1868 32.2898 62.1868 31.2443V22.9091H65.272V30.767C65.272 31.5966 65.4993 32.2557 65.9538 32.7443C66.4084 33.233 67.005 33.4773 67.7436 33.4773C68.1982 33.4773 68.6385 33.3665 69.0646 33.1449C69.4908 32.9233 69.8402 32.5938 70.1129 32.1562C70.3913 31.7131 70.5305 31.1591 70.5305 30.4943ZM97.8182 24.4347H94.6307C94.5398 23.9119 94.3722 23.4489 94.1278 23.0455C93.8835 22.6364 93.5795 22.2898 93.2159 22.0057C92.8523 21.7216 92.4375 21.5085 91.9716 21.3665C91.5114 21.2188 91.0142 21.1449 90.4801 21.1449C89.5313 21.1449 88.6903 21.3835 87.9574 21.8608C87.2244 22.3324 86.6506 23.0256 86.2358 23.9403C85.821 24.8494 85.6136 25.9602 85.6136 27.2727C85.6136 28.608 85.821 29.733 86.2358 30.6477C86.6563 31.5568 87.2301 32.2443 87.9574 32.7102C88.6903 33.1705 89.5284 33.4006 90.4716 33.4006C90.9943 33.4006 91.483 33.3324 91.9375 33.196C92.3977 33.054 92.8097 32.8466 93.1733 32.5739C93.5426 32.3011 93.8523 31.9659 94.1023 31.5682C94.358 31.1705 94.5341 30.7159 94.6307 30.2045L97.8182 30.2216C97.6989 31.0511 97.4403 31.8295 97.0426 32.5568C96.6506 33.2841 96.1364 33.9261 95.5 34.483C94.8636 35.0341 94.1193 35.4659 93.267 35.7784C92.4148 36.0852 91.4688 36.2386 90.429 36.2386C88.8949 36.2386 87.5256 35.8835 86.321 35.1733C85.1165 34.4631 84.1676 33.4375 83.4744 32.0966C82.7813 30.7557 82.4347 29.1477 82.4347 27.2727C82.4347 25.392 82.7841 23.7841 83.483 22.4489C84.1818 21.108 85.1335 20.0824 86.3381 19.3722C87.5426 18.6619 88.9063 18.3068 90.429 18.3068C91.4006 18.3068 92.304 18.4432 93.1392 18.7159C93.9744 18.9886 94.7188 19.3892 95.3722 19.9176C96.0256 20.4403 96.5625 21.0824 96.983 21.8438C97.4091 22.5994 97.6875 23.4631 97.8182 24.4347ZM104.344 36.2642C103.515 36.2642 102.768 36.1165 102.103 35.821C101.444 35.5199 100.921 35.0767 100.535 34.4915C100.154 33.9062 99.9638 33.1847 99.9638 32.3267C99.9638 31.5881 100.1 30.9773 100.373 30.4943C100.646 30.0114 101.018 29.625 101.489 29.3352C101.961 29.0455 102.492 28.8267 103.083 28.679C103.68 28.5256 104.296 28.4148 104.933 28.3466C105.7 28.267 106.322 28.196 106.799 28.1335C107.276 28.0653 107.623 27.9631 107.839 27.8267C108.06 27.6847 108.171 27.4659 108.171 27.1705V27.1193C108.171 26.4773 107.981 25.9801 107.6 25.6278C107.219 25.2756 106.671 25.0994 105.955 25.0994C105.2 25.0994 104.6 25.2642 104.157 25.5938C103.719 25.9233 103.424 26.3125 103.271 26.7614L100.39 26.3523C100.617 25.5568 100.992 24.892 101.515 24.358C102.038 23.8182 102.677 23.4148 103.433 23.1477C104.188 22.875 105.023 22.7386 105.938 22.7386C106.569 22.7386 107.197 22.8125 107.822 22.9602C108.447 23.108 109.018 23.3523 109.535 23.6932C110.052 24.0284 110.467 24.4858 110.779 25.0653C111.097 25.6449 111.256 26.3693 111.256 27.2386V36H108.29V34.2017H108.188C108.001 34.5653 107.737 34.9062 107.396 35.2244C107.06 35.5369 106.637 35.7898 106.126 35.983C105.62 36.1705 105.026 36.2642 104.344 36.2642ZM105.146 33.9972C105.765 33.9972 106.302 33.875 106.756 33.6307C107.211 33.3807 107.56 33.0511 107.805 32.642C108.055 32.233 108.18 31.7869 108.18 31.304V29.7614C108.083 29.8409 107.918 29.9148 107.685 29.983C107.458 30.0511 107.202 30.1108 106.918 30.1619C106.634 30.2131 106.353 30.2585 106.075 30.2983C105.796 30.3381 105.555 30.3722 105.35 30.4006C104.89 30.4631 104.478 30.5653 104.114 30.7074C103.751 30.8494 103.464 31.0483 103.254 31.304C103.043 31.554 102.938 31.8778 102.938 32.2756C102.938 32.8438 103.146 33.2727 103.56 33.5625C103.975 33.8523 104.504 33.9972 105.146 33.9972ZM120.896 22.9091V25.2955H113.37V22.9091H120.896ZM115.228 19.7727H118.313V32.0625C118.313 32.4773 118.376 32.7955 118.501 33.017C118.631 33.233 118.802 33.3807 119.012 33.4602C119.222 33.5398 119.455 33.5795 119.711 33.5795C119.904 33.5795 120.08 33.5653 120.239 33.5369C120.404 33.5085 120.529 33.483 120.614 33.4602L121.134 35.8722C120.969 35.929 120.734 35.9915 120.427 36.0597C120.126 36.1278 119.756 36.1676 119.319 36.179C118.546 36.2017 117.85 36.0852 117.231 35.8295C116.612 35.5682 116.12 35.1648 115.756 34.6193C115.398 34.0739 115.222 33.392 115.228 32.5739V19.7727ZM129.131 36.2557C127.818 36.2557 126.685 35.983 125.73 35.4375C124.781 34.8864 124.051 34.108 123.54 33.1023C123.028 32.0909 122.773 30.9006 122.773 29.5312C122.773 28.1847 123.028 27.0028 123.54 25.9858C124.057 24.9631 124.778 24.1676 125.705 23.5994C126.631 23.0256 127.719 22.7386 128.969 22.7386C129.776 22.7386 130.537 22.8693 131.253 23.1307C131.974 23.3864 132.611 23.7841 133.162 24.3239C133.719 24.8636 134.156 25.5511 134.474 26.3864C134.793 27.2159 134.952 28.2045 134.952 29.3523V30.2983H124.222V28.2188H131.994C131.989 27.6278 131.861 27.1023 131.611 26.642C131.361 26.1761 131.011 25.8097 130.562 25.5426C130.119 25.2756 129.602 25.142 129.011 25.142C128.381 25.142 127.827 25.2955 127.349 25.6023C126.872 25.9034 126.5 26.3011 126.233 26.7955C125.972 27.2841 125.838 27.821 125.832 28.4062V30.2216C125.832 30.983 125.972 31.6364 126.25 32.1818C126.528 32.7216 126.918 33.1364 127.418 33.4261C127.918 33.7102 128.503 33.8523 129.173 33.8523C129.622 33.8523 130.028 33.7898 130.392 33.6648C130.756 33.5341 131.071 33.3438 131.338 33.0938C131.605 32.8438 131.807 32.5341 131.943 32.1648L134.824 32.4886C134.642 33.25 134.295 33.9148 133.784 34.483C133.278 35.0455 132.631 35.483 131.841 35.7955C131.051 36.1023 130.148 36.2557 129.131 36.2557ZM143.255 41.1818C142.147 41.1818 141.195 41.0313 140.4 40.7301C139.604 40.4347 138.965 40.0369 138.482 39.5369C137.999 39.0369 137.664 38.483 137.477 37.875L140.255 37.2017C140.38 37.4574 140.562 37.7102 140.8 37.9602C141.039 38.2159 141.36 38.4261 141.763 38.5909C142.173 38.7614 142.687 38.8466 143.306 38.8466C144.181 38.8466 144.906 38.6335 145.479 38.2074C146.053 37.7869 146.34 37.0938 146.34 36.1278V33.6477H146.187C146.028 33.9659 145.795 34.2926 145.488 34.6278C145.187 34.9631 144.786 35.2443 144.286 35.4716C143.792 35.6989 143.17 35.8125 142.42 35.8125C141.414 35.8125 140.502 35.5767 139.684 35.1051C138.871 34.6278 138.224 33.9176 137.741 32.9744C137.263 32.0256 137.025 30.8381 137.025 29.4119C137.025 27.9744 137.263 26.7614 137.741 25.7727C138.224 24.7784 138.874 24.0256 139.692 23.5142C140.511 22.9972 141.423 22.7386 142.428 22.7386C143.195 22.7386 143.826 22.8693 144.32 23.1307C144.82 23.3864 145.218 23.696 145.513 24.0597C145.809 24.4176 146.033 24.7557 146.187 25.0739H146.357V22.9091H149.4V36.2131C149.4 37.3324 149.133 38.2585 148.599 38.9915C148.065 39.7244 147.335 40.2727 146.408 40.6364C145.482 41 144.431 41.1818 143.255 41.1818ZM143.281 33.392C143.934 33.392 144.491 33.233 144.951 32.9148C145.411 32.5966 145.761 32.1392 145.999 31.5426C146.238 30.946 146.357 30.2301 146.357 29.3949C146.357 28.571 146.238 27.8494 145.999 27.2301C145.766 26.6108 145.42 26.1307 144.96 25.7898C144.505 25.4432 143.945 25.2699 143.281 25.2699C142.593 25.2699 142.019 25.4489 141.559 25.8068C141.099 26.1648 140.752 26.6562 140.519 27.2812C140.286 27.9006 140.17 28.6051 140.17 29.3949C140.17 30.196 140.286 30.8977 140.519 31.5C140.758 32.0966 141.107 32.5625 141.567 32.8977C142.033 33.2273 142.604 33.392 143.281 33.392ZM158.272 36.2557C156.994 36.2557 155.886 35.9744 154.948 35.4119C154.011 34.8494 153.283 34.0625 152.766 33.0511C152.255 32.0398 151.999 30.858 151.999 29.5057C151.999 28.1534 152.255 26.9687 152.766 25.9517C153.283 24.9347 154.011 24.1449 154.948 23.5824C155.886 23.0199 156.994 22.7386 158.272 22.7386C159.55 22.7386 160.658 23.0199 161.596 23.5824C162.533 24.1449 163.258 24.9347 163.769 25.9517C164.286 26.9687 164.545 28.1534 164.545 29.5057C164.545 30.858 164.286 32.0398 163.769 33.0511C163.258 34.0625 162.533 34.8494 161.596 35.4119C160.658 35.9744 159.55 36.2557 158.272 36.2557ZM158.289 33.7841C158.982 33.7841 159.562 33.5937 160.028 33.2131C160.494 32.8267 160.84 32.3097 161.067 31.6619C161.3 31.0142 161.417 30.2926 161.417 29.4972C161.417 28.696 161.3 27.9716 161.067 27.3239C160.84 26.6705 160.494 26.1506 160.028 25.7642C159.562 25.3778 158.982 25.1847 158.289 25.1847C157.579 25.1847 156.988 25.3778 156.516 25.7642C156.05 26.1506 155.701 26.6705 155.468 27.3239C155.241 27.9716 155.127 28.696 155.127 29.4972C155.127 30.2926 155.241 31.0142 155.468 31.6619C155.701 32.3097 156.05 32.8267 156.516 33.2131C156.988 33.5937 157.579 33.7841 158.289 33.7841ZM167.163 36V22.9091H170.155V25.0909H170.291C170.53 24.3352 170.939 23.7528 171.518 23.3438C172.104 22.929 172.771 22.7216 173.521 22.7216C173.692 22.7216 173.882 22.7301 174.092 22.7472C174.308 22.7585 174.487 22.7784 174.629 22.8068V25.6449C174.499 25.5994 174.291 25.5597 174.007 25.5256C173.729 25.4858 173.459 25.4659 173.197 25.4659C172.635 25.4659 172.129 25.5881 171.68 25.8324C171.237 26.071 170.888 26.4034 170.632 26.8295C170.376 27.2557 170.249 27.7472 170.249 28.304V36H167.163ZM176.679 36V22.9091H179.764V36H176.679ZM178.23 21.0511C177.741 21.0511 177.321 20.8892 176.969 20.5653C176.616 20.2358 176.44 19.8409 176.44 19.3807C176.44 18.9148 176.616 18.5199 176.969 18.196C177.321 17.8665 177.741 17.7017 178.23 17.7017C178.724 17.7017 179.145 17.8665 179.491 18.196C179.844 18.5199 180.02 18.9148 180.02 19.3807C180.02 19.8409 179.844 20.2358 179.491 20.5653C179.145 20.8892 178.724 21.0511 178.23 21.0511ZM188.732 36.2557C187.42 36.2557 186.286 35.983 185.332 35.4375C184.383 34.8864 183.653 34.108 183.141 33.1023C182.63 32.0909 182.374 30.9006 182.374 29.5312C182.374 28.1847 182.63 27.0028 183.141 25.9858C183.658 24.9631 184.38 24.1676 185.306 23.5994C186.232 23.0256 187.32 22.7386 188.57 22.7386C189.377 22.7386 190.138 22.8693 190.854 23.1307C191.576 23.3864 192.212 23.7841 192.763 24.3239C193.32 24.8636 193.758 25.5511 194.076 26.3864C194.394 27.2159 194.553 28.2045 194.553 29.3523V30.2983H183.823V28.2188H191.596C191.59 27.6278 191.462 27.1023 191.212 26.642C190.962 26.1761 190.613 25.8097 190.164 25.5426C189.721 25.2756 189.204 25.142 188.613 25.142C187.982 25.142 187.428 25.2955 186.951 25.6023C186.474 25.9034 186.102 26.3011 185.835 26.7955C185.573 27.2841 185.44 27.821 185.434 28.4062V30.2216C185.434 30.983 185.573 31.6364 185.852 32.1818C186.13 32.7216 186.519 33.1364 187.019 33.4261C187.519 33.7102 188.104 33.8523 188.775 33.8523C189.224 33.8523 189.63 33.7898 189.994 33.6648C190.357 33.5341 190.673 33.3438 190.94 33.0938C191.207 32.8438 191.408 32.5341 191.545 32.1648L194.425 32.4886C194.244 33.25 193.897 33.9148 193.386 34.483C192.88 35.0455 192.232 35.483 191.442 35.7955C190.653 36.1023 189.749 36.2557 188.732 36.2557ZM207.51 26.3693L204.697 26.6761C204.618 26.392 204.479 26.125 204.28 25.875C204.087 25.625 203.825 25.4233 203.496 25.2699C203.166 25.1165 202.763 25.0398 202.286 25.0398C201.643 25.0398 201.104 25.179 200.666 25.4574C200.234 25.7358 200.021 26.0966 200.027 26.5398C200.021 26.9205 200.161 27.2301 200.445 27.4688C200.734 27.7074 201.212 27.9034 201.876 28.0568L204.109 28.5341C205.348 28.8011 206.268 29.2244 206.871 29.804C207.479 30.3835 207.786 31.142 207.791 32.0795C207.786 32.9034 207.544 33.6307 207.067 34.2614C206.595 34.8864 205.939 35.375 205.098 35.7273C204.257 36.0795 203.291 36.2557 202.2 36.2557C200.598 36.2557 199.308 35.9205 198.331 35.25C197.354 34.5739 196.771 33.6335 196.584 32.429L199.592 32.1392C199.729 32.7301 200.018 33.1761 200.462 33.4773C200.905 33.7784 201.482 33.929 202.192 33.929C202.925 33.929 203.513 33.7784 203.956 33.4773C204.405 33.1761 204.629 32.804 204.629 32.3608C204.629 31.9858 204.484 31.6761 204.195 31.4318C203.911 31.1875 203.467 31 202.865 30.8693L200.632 30.4006C199.376 30.1392 198.447 29.6989 197.845 29.0795C197.243 28.4545 196.945 27.6648 196.95 26.7102C196.945 25.9034 197.163 25.2045 197.607 24.6136C198.055 24.017 198.678 23.5568 199.473 23.233C200.274 22.9034 201.197 22.7386 202.243 22.7386C203.777 22.7386 204.984 23.0653 205.865 23.7188C206.751 24.3722 207.3 25.2557 207.51 26.3693Z" fill="black"/>
</svg>
