<svg width="185" height="52" viewBox="0 0 185 52" fill="none" xmlns="http://www.w3.org/2000/svg">
<rect y="4" width="44" height="44" rx="13" fill="#FFE1C4"/>
<path d="M30.25 17.75V35C30.25 35.1989 30.171 35.3896 30.0303 35.5303C29.8897 35.6709 29.6989 35.75 29.5 35.75C29.3011 35.75 29.1103 35.6709 28.9697 35.5303C28.829 35.3896 28.75 35.1989 28.75 35V30.5H24.25C24.0511 30.5 23.8603 30.4209 23.7197 30.2803C23.579 30.1396 23.5 29.9489 23.5 29.75C23.5349 27.9534 23.7618 26.1657 24.1769 24.4175C25.0938 20.6215 26.8319 18.0771 29.2047 17.0609C29.3187 17.012 29.4431 16.9922 29.5667 17.0033C29.6903 17.0143 29.8092 17.0558 29.9128 17.1241C30.0164 17.1924 30.1014 17.2853 30.1603 17.3945C30.2191 17.5038 30.2499 17.6259 30.25 17.75ZM21.2397 17.6271C21.225 17.5287 21.1908 17.4341 21.1392 17.349C21.0876 17.2638 21.0195 17.1898 20.939 17.1312C20.8585 17.0727 20.7671 17.0307 20.6702 17.0079C20.5733 16.985 20.4728 16.9816 20.3746 16.998C20.2764 17.0144 20.1824 17.0501 20.0982 17.1032C20.0139 17.1563 19.9411 17.2256 19.8839 17.3071C19.8267 17.3886 19.7863 17.4807 19.7651 17.578C19.7439 17.6753 19.7423 17.7758 19.7603 17.8737L20.4897 22.25H18.25V17.75C18.25 17.551 18.171 17.3603 18.0303 17.2196C17.8897 17.079 17.6989 17 17.5 17C17.3011 17 17.1103 17.079 16.9697 17.2196C16.829 17.3603 16.75 17.551 16.75 17.75V22.25H14.5103L15.2397 17.8737C15.2577 17.7758 15.2561 17.6753 15.2349 17.578C15.2137 17.4807 15.1733 17.3886 15.1161 17.3071C15.0589 17.2256 14.9861 17.1563 14.9018 17.1032C14.8176 17.0501 14.7236 17.0144 14.6254 16.998C14.5272 16.9816 14.4267 16.985 14.3298 17.0079C14.2329 17.0307 14.1415 17.0727 14.061 17.1312C13.9805 17.1898 13.9124 17.2638 13.8608 17.349C13.8092 17.4341 13.775 17.5287 13.7603 17.6271L13.0103 22.1271C13.0035 22.1677 13.0001 22.2088 13 22.25C13.0015 23.3129 13.3787 24.3411 14.0649 25.1529C14.7511 25.9647 15.7021 26.5078 16.75 26.6862V35C16.75 35.1989 16.829 35.3896 16.9697 35.5303C17.1103 35.6709 17.3011 35.75 17.5 35.75C17.6989 35.75 17.8897 35.6709 18.0303 35.5303C18.171 35.3896 18.25 35.1989 18.25 35V26.6862C19.2979 26.5078 20.2489 25.9647 20.9351 25.1529C21.6213 24.3411 21.9985 23.3129 22 22.25C21.9999 22.2088 21.9965 22.1677 21.9897 22.1271L21.2397 17.6271Z" fill="#FF7A18"/>
<path d="M56.2784 32V20.3636H63.4943V21.875H58.0341V25.4205H62.9773V26.9261H58.0341V32H56.2784ZM65.4077 32V23.2727H67.0497V24.6591H67.1406C67.2997 24.1894 67.58 23.8201 67.9815 23.5511C68.3868 23.2784 68.8452 23.142 69.3565 23.142C69.4626 23.142 69.5876 23.1458 69.7315 23.1534C69.8793 23.161 69.9948 23.1705 70.0781 23.1818V24.8068C70.0099 24.7879 69.8887 24.767 69.7145 24.7443C69.5402 24.7178 69.366 24.7045 69.1918 24.7045C68.7902 24.7045 68.4323 24.7898 68.1179 24.9602C67.8073 25.1269 67.5611 25.3598 67.3793 25.6591C67.1974 25.9545 67.1065 26.2917 67.1065 26.6705V32H65.4077ZM74.9972 32.1761C74.1373 32.1761 73.3968 31.9924 72.7756 31.625C72.1581 31.2538 71.6809 30.733 71.3438 30.0625C71.0104 29.3883 70.8438 28.5985 70.8438 27.6932C70.8438 26.7992 71.0104 26.0114 71.3438 25.3295C71.6809 24.6477 72.1506 24.1155 72.7528 23.733C73.3589 23.3504 74.0672 23.1591 74.8778 23.1591C75.3703 23.1591 75.8475 23.2405 76.3097 23.4034C76.7718 23.5663 77.1866 23.822 77.554 24.1705C77.9214 24.5189 78.2112 24.9716 78.4233 25.5284C78.6354 26.0814 78.7415 26.7538 78.7415 27.5455V28.1477H71.804V26.875H77.0767C77.0767 26.428 76.9858 26.0322 76.804 25.6875C76.6222 25.339 76.3665 25.0644 76.0369 24.8636C75.7112 24.6629 75.3286 24.5625 74.8892 24.5625C74.4119 24.5625 73.9953 24.6799 73.6392 24.9148C73.2869 25.1458 73.0142 25.4489 72.821 25.8239C72.6316 26.1951 72.5369 26.5985 72.5369 27.0341V28.0284C72.5369 28.6117 72.6392 29.108 72.8438 29.517C73.0521 29.9261 73.3419 30.2386 73.7131 30.4545C74.0843 30.6667 74.518 30.7727 75.0142 30.7727C75.3362 30.7727 75.6297 30.7273 75.8949 30.6364C76.16 30.5417 76.3892 30.4015 76.5824 30.2159C76.7756 30.0303 76.9233 29.8011 77.0256 29.5284L78.6335 29.8182C78.5047 30.2917 78.2737 30.7064 77.9403 31.0625C77.6108 31.4148 77.196 31.6894 76.696 31.8864C76.1998 32.0795 75.6335 32.1761 74.9972 32.1761ZM87.1662 25.4034L85.6264 25.6761C85.562 25.4792 85.4598 25.2917 85.3196 25.1136C85.1832 24.9356 84.9976 24.7898 84.7628 24.6761C84.5279 24.5625 84.2344 24.5057 83.8821 24.5057C83.401 24.5057 82.9995 24.6136 82.6776 24.8295C82.3556 25.0417 82.1946 25.3163 82.1946 25.6534C82.1946 25.9451 82.3026 26.1799 82.5185 26.358C82.7344 26.536 83.0829 26.6818 83.5639 26.7955L84.9503 27.1136C85.7533 27.2992 86.3518 27.5852 86.7457 27.9716C87.1397 28.358 87.3366 28.8598 87.3366 29.4773C87.3366 30 87.1851 30.4659 86.8821 30.875C86.5829 31.2803 86.1643 31.5985 85.6264 31.8295C85.0923 32.0606 84.473 32.1761 83.7685 32.1761C82.7912 32.1761 81.9938 31.9678 81.3764 31.5511C80.759 31.1307 80.3802 30.5341 80.2401 29.7614L81.8821 29.5114C81.9844 29.9394 82.1946 30.2633 82.5128 30.483C82.831 30.6989 83.2457 30.8068 83.7571 30.8068C84.3139 30.8068 84.759 30.6913 85.0923 30.4602C85.4257 30.2254 85.5923 29.9394 85.5923 29.6023C85.5923 29.3295 85.4901 29.1004 85.2855 28.9148C85.0848 28.7292 84.776 28.589 84.3594 28.4943L82.8821 28.1705C82.0677 27.9848 81.4654 27.6894 81.0753 27.2841C80.6889 26.8788 80.4957 26.3655 80.4957 25.7443C80.4957 25.2292 80.6397 24.7784 80.9276 24.392C81.2154 24.0057 81.6132 23.7045 82.1207 23.4886C82.6283 23.2689 83.2098 23.1591 83.8651 23.1591C84.8082 23.1591 85.5507 23.3636 86.0923 23.7727C86.634 24.178 86.992 24.7216 87.1662 25.4034ZM90.9034 26.8182V32H89.2045V20.3636H90.8807V24.6932H90.9886C91.1932 24.2235 91.5057 23.8504 91.9261 23.5739C92.3466 23.2973 92.8958 23.1591 93.5739 23.1591C94.1723 23.1591 94.6951 23.2822 95.142 23.5284C95.5928 23.7746 95.9413 24.142 96.1875 24.6307C96.4375 25.1155 96.5625 25.7216 96.5625 26.4489V32H94.8636V26.6534C94.8636 26.0133 94.6989 25.517 94.3693 25.1648C94.0398 24.8087 93.5814 24.6307 92.9943 24.6307C92.5928 24.6307 92.233 24.7159 91.9148 24.8864C91.6004 25.0568 91.3523 25.3068 91.1705 25.6364C90.9924 25.9621 90.9034 26.3561 90.9034 26.8182ZM100.528 20.3636V32H98.8295V20.3636H100.528ZM103.888 35.2727C103.634 35.2727 103.403 35.2519 103.195 35.2102C102.986 35.1723 102.831 35.1307 102.729 35.0852L103.138 33.6932C103.448 33.7765 103.725 33.8125 103.967 33.8011C104.21 33.7898 104.424 33.6989 104.609 33.5284C104.799 33.358 104.965 33.0795 105.109 32.6932L105.32 32.1136L102.126 23.2727H103.945L106.155 30.0455H106.246L108.456 23.2727H110.28L106.683 33.1648C106.517 33.6193 106.304 34.0038 106.047 34.3182C105.789 34.6364 105.482 34.875 105.126 35.0341C104.77 35.1932 104.357 35.2727 103.888 35.2727ZM116.247 32V20.3636H120.395C121.3 20.3636 122.05 20.5284 122.645 20.858C123.24 21.1875 123.685 21.6383 123.98 22.2102C124.276 22.7784 124.423 23.4186 124.423 24.1307C124.423 24.8466 124.274 25.4905 123.974 26.0625C123.679 26.6307 123.232 27.0814 122.634 27.4148C122.039 27.7443 121.291 27.9091 120.389 27.9091H117.537V26.4205H120.23C120.802 26.4205 121.266 26.322 121.622 26.125C121.978 25.9242 122.24 25.6515 122.406 25.3068C122.573 24.9621 122.656 24.5701 122.656 24.1307C122.656 23.6913 122.573 23.3011 122.406 22.9602C122.24 22.6193 121.976 22.3523 121.616 22.1591C121.26 21.9659 120.791 21.8693 120.207 21.8693H118.003V32H116.247ZM126.345 32V23.2727H127.987V24.6591H128.078C128.237 24.1894 128.518 23.8201 128.919 23.5511C129.324 23.2784 129.783 23.142 130.294 23.142C130.4 23.142 130.525 23.1458 130.669 23.1534C130.817 23.161 130.932 23.1705 131.016 23.1818V24.8068C130.947 24.7879 130.826 24.767 130.652 24.7443C130.478 24.7178 130.304 24.7045 130.129 24.7045C129.728 24.7045 129.37 24.7898 129.055 24.9602C128.745 25.1269 128.499 25.3598 128.317 25.6591C128.135 25.9545 128.044 26.2917 128.044 26.6705V32H126.345ZM135.935 32.1761C135.075 32.1761 134.334 31.9924 133.713 31.625C133.096 31.2538 132.618 30.733 132.281 30.0625C131.948 29.3883 131.781 28.5985 131.781 27.6932C131.781 26.7992 131.948 26.0114 132.281 25.3295C132.618 24.6477 133.088 24.1155 133.69 23.733C134.296 23.3504 135.005 23.1591 135.815 23.1591C136.308 23.1591 136.785 23.2405 137.247 23.4034C137.709 23.5663 138.124 23.822 138.491 24.1705C138.859 24.5189 139.149 24.9716 139.361 25.5284C139.573 26.0814 139.679 26.7538 139.679 27.5455V28.1477H132.741V26.875H138.014C138.014 26.428 137.923 26.0322 137.741 25.6875C137.56 25.339 137.304 25.0644 136.974 24.8636C136.649 24.6629 136.266 24.5625 135.827 24.5625C135.349 24.5625 134.933 24.6799 134.577 24.9148C134.224 25.1458 133.952 25.4489 133.759 25.8239C133.569 26.1951 133.474 26.5985 133.474 27.0341V28.0284C133.474 28.6117 133.577 29.108 133.781 29.517C133.99 29.9261 134.279 30.2386 134.651 30.4545C135.022 30.6667 135.455 30.7727 135.952 30.7727C136.274 30.7727 136.567 30.7273 136.832 30.6364C137.098 30.5417 137.327 30.4015 137.52 30.2159C137.713 30.0303 137.861 29.8011 137.963 29.5284L139.571 29.8182C139.442 30.2917 139.211 30.7064 138.878 31.0625C138.548 31.4148 138.134 31.6894 137.634 31.8864C137.137 32.0795 136.571 32.1761 135.935 32.1761ZM141.564 35.2727V23.2727H143.223V24.6875H143.365C143.464 24.5057 143.606 24.2955 143.791 24.0568C143.977 23.8182 144.234 23.6098 144.564 23.4318C144.893 23.25 145.329 23.1591 145.871 23.1591C146.575 23.1591 147.204 23.3371 147.757 23.6932C148.31 24.0492 148.744 24.5625 149.058 25.233C149.376 25.9034 149.536 26.7102 149.536 27.6534C149.536 28.5966 149.378 29.4053 149.064 30.0795C148.75 30.75 148.318 31.267 147.768 31.6307C147.219 31.9905 146.592 32.1705 145.888 32.1705C145.357 32.1705 144.924 32.0814 144.587 31.9034C144.253 31.7254 143.992 31.517 143.803 31.2784C143.613 31.0398 143.467 30.8277 143.365 30.642H143.263V35.2727H141.564ZM143.229 27.6364C143.229 28.25 143.318 28.7879 143.496 29.25C143.674 29.7121 143.931 30.0739 144.268 30.3352C144.606 30.5928 145.018 30.7216 145.507 30.7216C146.015 30.7216 146.439 30.5871 146.78 30.3182C147.121 30.0455 147.378 29.6761 147.553 29.2102C147.731 28.7443 147.82 28.2197 147.82 27.6364C147.82 27.0606 147.732 26.5436 147.558 26.0852C147.388 25.6269 147.13 25.2652 146.786 25C146.445 24.7348 146.018 24.6023 145.507 24.6023C145.015 24.6023 144.598 24.7292 144.257 24.983C143.92 25.2367 143.664 25.5909 143.49 26.0455C143.316 26.5 143.229 27.0303 143.229 27.6364ZM153.979 32.1932C153.426 32.1932 152.926 32.0909 152.479 31.8864C152.032 31.678 151.678 31.3769 151.416 30.983C151.159 30.589 151.03 30.1061 151.03 29.5341C151.03 29.0417 151.125 28.6364 151.314 28.3182C151.503 28 151.759 27.7481 152.081 27.5625C152.403 27.3769 152.763 27.2367 153.161 27.142C153.558 27.0473 153.964 26.9754 154.376 26.9261C154.899 26.8655 155.323 26.8163 155.649 26.7784C155.975 26.7367 156.212 26.6705 156.359 26.5795C156.507 26.4886 156.581 26.3409 156.581 26.1364V26.0966C156.581 25.6004 156.441 25.2159 156.161 24.9432C155.884 24.6705 155.471 24.5341 154.922 24.5341C154.35 24.5341 153.899 24.661 153.57 24.9148C153.244 25.1648 153.018 25.4432 152.893 25.75L151.297 25.3864C151.486 24.8561 151.763 24.428 152.126 24.1023C152.494 23.7727 152.916 23.5341 153.393 23.3864C153.871 23.2348 154.373 23.1591 154.899 23.1591C155.248 23.1591 155.617 23.2008 156.007 23.2841C156.401 23.3636 156.768 23.5114 157.109 23.7273C157.454 23.9432 157.736 24.2519 157.956 24.6534C158.176 25.0511 158.286 25.5682 158.286 26.2045V32H156.626V30.8068H156.558C156.448 31.0265 156.284 31.2424 156.064 31.4545C155.844 31.6667 155.562 31.8428 155.217 31.983C154.873 32.1231 154.46 32.1932 153.979 32.1932ZM154.348 30.8295C154.818 30.8295 155.219 30.7367 155.553 30.5511C155.89 30.3655 156.145 30.1231 156.32 29.8239C156.498 29.5208 156.587 29.197 156.587 28.8523V27.7273C156.526 27.7879 156.409 27.8447 156.234 27.8977C156.064 27.947 155.869 27.9905 155.649 28.0284C155.429 28.0625 155.215 28.0947 155.007 28.125C154.799 28.1515 154.625 28.1742 154.484 28.1932C154.155 28.2348 153.854 28.3049 153.581 28.4034C153.312 28.5019 153.096 28.6439 152.933 28.8295C152.774 29.0114 152.695 29.2538 152.695 29.5568C152.695 29.9773 152.85 30.2955 153.161 30.5114C153.471 30.7235 153.867 30.8295 154.348 30.8295ZM160.548 32V23.2727H162.19V24.6591H162.281C162.44 24.1894 162.721 23.8201 163.122 23.5511C163.527 23.2784 163.986 23.142 164.497 23.142C164.603 23.142 164.728 23.1458 164.872 23.1534C165.02 23.161 165.135 23.1705 165.219 23.1818V24.8068C165.151 24.7879 165.029 24.767 164.855 24.7443C164.681 24.7178 164.507 24.7045 164.332 24.7045C163.931 24.7045 163.573 24.7898 163.259 24.9602C162.948 25.1269 162.702 25.3598 162.52 25.6591C162.338 25.9545 162.247 26.2917 162.247 26.6705V32H160.548ZM170.138 32.1761C169.278 32.1761 168.537 31.9924 167.916 31.625C167.299 31.2538 166.821 30.733 166.484 30.0625C166.151 29.3883 165.984 28.5985 165.984 27.6932C165.984 26.7992 166.151 26.0114 166.484 25.3295C166.821 24.6477 167.291 24.1155 167.893 23.733C168.5 23.3504 169.208 23.1591 170.018 23.1591C170.511 23.1591 170.988 23.2405 171.45 23.4034C171.912 23.5663 172.327 23.822 172.695 24.1705C173.062 24.5189 173.352 24.9716 173.564 25.5284C173.776 26.0814 173.882 26.7538 173.882 27.5455V28.1477H166.945V26.875H172.217C172.217 26.428 172.126 26.0322 171.945 25.6875C171.763 25.339 171.507 25.0644 171.178 24.8636C170.852 24.6629 170.469 24.5625 170.03 24.5625C169.553 24.5625 169.136 24.6799 168.78 24.9148C168.428 25.1458 168.155 25.4489 167.962 25.8239C167.772 26.1951 167.678 26.5985 167.678 27.0341V28.0284C167.678 28.6117 167.78 29.108 167.984 29.517C168.193 29.9261 168.482 30.2386 168.854 30.4545C169.225 30.6667 169.659 30.7727 170.155 30.7727C170.477 30.7727 170.77 30.7273 171.036 30.6364C171.301 30.5417 171.53 30.4015 171.723 30.2159C171.916 30.0303 172.064 29.8011 172.166 29.5284L173.774 29.8182C173.645 30.2917 173.414 30.7064 173.081 31.0625C172.751 31.4148 172.337 31.6894 171.837 31.8864C171.34 32.0795 170.774 32.1761 170.138 32.1761ZM179.034 32.1705C178.33 32.1705 177.701 31.9905 177.148 31.6307C176.598 31.267 176.167 30.75 175.852 30.0795C175.542 29.4053 175.386 28.5966 175.386 27.6534C175.386 26.7102 175.544 25.9034 175.858 25.233C176.176 24.5625 176.612 24.0492 177.165 23.6932C177.718 23.3371 178.345 23.1591 179.045 23.1591C179.587 23.1591 180.023 23.25 180.352 23.4318C180.686 23.6098 180.943 23.8182 181.125 24.0568C181.311 24.2955 181.455 24.5057 181.557 24.6875H181.659V20.3636H183.358V32H181.699V30.642H181.557C181.455 30.8277 181.307 31.0398 181.114 31.2784C180.924 31.517 180.663 31.7254 180.33 31.9034C179.996 32.0814 179.564 32.1705 179.034 32.1705ZM179.409 30.7216C179.898 30.7216 180.311 30.5928 180.648 30.3352C180.989 30.0739 181.246 29.7121 181.42 29.25C181.598 28.7879 181.688 28.25 181.688 27.6364C181.688 27.0303 181.6 26.5 181.426 26.0455C181.252 25.5909 180.996 25.2367 180.659 24.983C180.322 24.7292 179.905 24.6023 179.409 24.6023C178.898 24.6023 178.472 24.7348 178.131 25C177.79 25.2652 177.532 25.6269 177.358 26.0852C177.188 26.5436 177.102 27.0606 177.102 27.6364C177.102 28.2197 177.189 28.7443 177.364 29.2102C177.538 29.6761 177.795 30.0455 178.136 30.3182C178.481 30.5871 178.905 30.7216 179.409 30.7216Z" fill="black"/>
</svg>
