<svg width="282" height="124" viewBox="0 0 282 124" fill="none" xmlns="http://www.w3.org/2000/svg">
<rect x="0.5" y="0.5" width="281" height="123" rx="4.5" stroke="#8A38F5" stroke-dasharray="10 5"/>
<rect x="20" y="20" width="145" height="32" rx="8" fill="#F3F4F6"/>
<path d="M38 27.75C36.22 27.75 34.4799 28.2778 32.9999 29.2668C31.5198 30.2557 30.3663 31.6613 29.6851 33.3059C29.0039 34.9504 28.8257 36.76 29.1729 38.5058C29.5202 40.2516 30.3774 41.8553 31.636 43.114C32.8947 44.3726 34.4984 45.2298 36.2442 45.5771C37.99 45.9243 39.7996 45.7461 41.4442 45.0649C43.0887 44.3837 44.4943 43.2302 45.4832 41.7501C46.4722 40.2701 47 38.53 47 36.75C46.9973 34.3639 46.0482 32.0763 44.361 30.3891C42.6737 28.7018 40.3861 27.7527 38 27.75ZM38 44.25C36.5166 44.25 35.0666 43.8101 33.8332 42.986C32.5999 42.1619 31.6386 40.9906 31.0709 39.6201C30.5033 38.2497 30.3547 36.7417 30.6441 35.2868C30.9335 33.832 31.6478 32.4956 32.6967 31.4467C33.7456 30.3978 35.082 29.6835 36.5368 29.3941C37.9917 29.1047 39.4997 29.2532 40.8701 29.8209C42.2406 30.3886 43.4119 31.3499 44.236 32.5832C45.0601 33.8166 45.5 35.2666 45.5 36.75C45.4978 38.7384 44.7069 40.6448 43.3008 42.0508C41.8948 43.4569 39.9884 44.2478 38 44.25ZM42.2806 32.4694C42.3504 32.539 42.4057 32.6217 42.4434 32.7128C42.4812 32.8038 42.5006 32.9014 42.5006 33C42.5006 33.0986 42.4812 33.1962 42.4434 33.2872C42.4057 33.3783 42.3504 33.461 42.2806 33.5306L38.5306 37.2806C38.4609 37.3503 38.3782 37.4056 38.2872 37.4433C38.1961 37.481 38.0986 37.5004 38 37.5004C37.9015 37.5004 37.8039 37.481 37.7128 37.4433C37.6218 37.4056 37.5391 37.3503 37.4694 37.2806C37.3997 37.2109 37.3444 37.1282 37.3067 37.0372C37.269 36.9461 37.2496 36.8485 37.2496 36.75C37.2496 36.6515 37.269 36.5539 37.3067 36.4628C37.3444 36.3718 37.3997 36.2891 37.4694 36.2194L41.2194 32.4694C41.289 32.3996 41.3718 32.3443 41.4628 32.3066C41.5538 32.2688 41.6514 32.2494 41.75 32.2494C41.8486 32.2494 41.9462 32.2688 42.0372 32.3066C42.1283 32.3443 42.211 32.3996 42.2806 32.4694ZM35 25.5C35 25.3011 35.079 25.1103 35.2197 24.9697C35.3603 24.829 35.5511 24.75 35.75 24.75H40.25C40.4489 24.75 40.6397 24.829 40.7803 24.9697C40.921 25.1103 41 25.3011 41 25.5C41 25.6989 40.921 25.8897 40.7803 26.0303C40.6397 26.171 40.4489 26.25 40.25 26.25H35.75C35.5511 26.25 35.3603 26.171 35.2197 26.0303C35.079 25.8897 35 25.6989 35 25.5Z" fill="#FF7A18"/>
<path d="M60.8864 30.3636L64.3409 40.1591H64.4773L67.9318 30.3636H69.4091L65.1364 42H63.6818L59.4091 30.3636H60.8864ZM73.5664 42.1818C72.7255 42.1818 72.0001 41.9962 71.3902 41.625C70.7842 41.25 70.3164 40.7273 69.9868 40.0568C69.6611 39.3826 69.4982 38.5985 69.4982 37.7045C69.4982 36.8106 69.6611 36.0227 69.9868 35.3409C70.3164 34.6553 70.7747 34.1212 71.3618 33.7386C71.9527 33.3523 72.6421 33.1591 73.43 33.1591C73.8845 33.1591 74.3334 33.2348 74.7766 33.3864C75.2198 33.5379 75.6232 33.7841 75.9868 34.125C76.3505 34.4621 76.6402 34.9091 76.8561 35.4659C77.072 36.0227 77.18 36.7083 77.18 37.5227V38.0909H70.4527V36.9318H75.8164C75.8164 36.4394 75.7179 36 75.5209 35.6136C75.3277 35.2273 75.0512 34.9223 74.6914 34.6989C74.3353 34.4754 73.9148 34.3636 73.43 34.3636C72.8959 34.3636 72.4338 34.4962 72.0436 34.7614C71.6573 35.0227 71.3599 35.3636 71.1516 35.7841C70.9433 36.2045 70.8391 36.6553 70.8391 37.1364V37.9091C70.8391 38.5682 70.9527 39.1269 71.18 39.5852C71.4111 40.0398 71.7311 40.3864 72.1402 40.625C72.5493 40.8598 73.0247 40.9773 73.5664 40.9773C73.9186 40.9773 74.2368 40.928 74.5209 40.8295C74.8088 40.7273 75.0569 40.5758 75.2652 40.375C75.4736 40.1705 75.6345 39.9167 75.7482 39.6136L77.0436 39.9773C76.9073 40.4167 76.6781 40.803 76.3561 41.1364C76.0342 41.4659 75.6364 41.7235 75.163 41.9091C74.6895 42.0909 74.1573 42.1818 73.5664 42.1818ZM82.4225 45.4545C81.7748 45.4545 81.218 45.3712 80.752 45.2045C80.2861 45.0417 79.8979 44.8258 79.5873 44.5568C79.2805 44.2917 79.0361 44.0076 78.8543 43.7045L79.9225 42.9545C80.0437 43.1136 80.1971 43.2955 80.3827 43.5C80.5683 43.7083 80.8221 43.8883 81.1441 44.0398C81.4698 44.1951 81.896 44.2727 82.4225 44.2727C83.127 44.2727 83.7085 44.1023 84.1668 43.7614C84.6252 43.4205 84.8543 42.8864 84.8543 42.1591V40.3864H84.7407C84.6422 40.5455 84.502 40.7424 84.3202 40.9773C84.1422 41.2083 83.8846 41.4148 83.5475 41.5966C83.2142 41.7746 82.7634 41.8636 82.1952 41.8636C81.4907 41.8636 80.8581 41.697 80.2975 41.3636C79.7407 41.0303 79.2994 40.5455 78.9736 39.9091C78.6517 39.2727 78.4907 38.5 78.4907 37.5909C78.4907 36.697 78.6479 35.9186 78.9623 35.2557C79.2767 34.589 79.7142 34.0739 80.2748 33.7102C80.8354 33.3428 81.4831 33.1591 82.218 33.1591C82.7861 33.1591 83.2369 33.2538 83.5702 33.4432C83.9073 33.6288 84.1649 33.8409 84.343 34.0795C84.5248 34.3144 84.6649 34.5076 84.7634 34.6591H84.8998V33.2727H86.1952V42.25C86.1952 43 86.0248 43.6098 85.6839 44.0795C85.3467 44.553 84.8922 44.8996 84.3202 45.1193C83.752 45.3428 83.1195 45.4545 82.4225 45.4545ZM82.377 40.6591C82.9149 40.6591 83.3695 40.536 83.7407 40.2898C84.1119 40.0436 84.3941 39.6894 84.5873 39.2273C84.7805 38.7652 84.877 38.2121 84.877 37.5682C84.877 36.9394 84.7823 36.3845 84.593 35.9034C84.4036 35.4223 84.1233 35.0455 83.752 34.7727C83.3808 34.5 82.9225 34.3636 82.377 34.3636C81.8089 34.3636 81.3354 34.5076 80.9566 34.7955C80.5816 35.0833 80.2994 35.4697 80.11 35.9545C79.9244 36.4394 79.8316 36.9773 79.8316 37.5682C79.8316 38.1742 79.9263 38.7102 80.1157 39.1761C80.3089 39.6383 80.593 40.0019 80.968 40.267C81.3467 40.5284 81.8164 40.6591 82.377 40.6591ZM91.9889 42.1818C91.148 42.1818 90.4226 41.9962 89.8127 41.625C89.2067 41.25 88.7389 40.7273 88.4093 40.0568C88.0836 39.3826 87.9207 38.5985 87.9207 37.7045C87.9207 36.8106 88.0836 36.0227 88.4093 35.3409C88.7389 34.6553 89.1972 34.1212 89.7843 33.7386C90.3752 33.3523 91.0646 33.1591 91.8525 33.1591C92.307 33.1591 92.7559 33.2348 93.1991 33.3864C93.6423 33.5379 94.0457 33.7841 94.4093 34.125C94.773 34.4621 95.0627 34.9091 95.2786 35.4659C95.4945 36.0227 95.6025 36.7083 95.6025 37.5227V38.0909H88.8752V36.9318H94.2389C94.2389 36.4394 94.1404 36 93.9434 35.6136C93.7502 35.2273 93.4737 34.9223 93.1139 34.6989C92.7578 34.4754 92.3373 34.3636 91.8525 34.3636C91.3184 34.3636 90.8563 34.4962 90.4661 34.7614C90.0798 35.0227 89.7824 35.3636 89.5741 35.7841C89.3658 36.2045 89.2616 36.6553 89.2616 37.1364V37.9091C89.2616 38.5682 89.3752 39.1269 89.6025 39.5852C89.8336 40.0398 90.1536 40.3864 90.5627 40.625C90.9718 40.8598 91.4472 40.9773 91.9889 40.9773C92.3411 40.9773 92.6593 40.928 92.9434 40.8295C93.2313 40.7273 93.4794 40.5758 93.6877 40.375C93.8961 40.1705 94.057 39.9167 94.1707 39.6136L95.4661 39.9773C95.3298 40.4167 95.1006 40.803 94.7786 41.1364C94.4567 41.4659 94.0589 41.7235 93.5855 41.9091C93.112 42.0909 92.5798 42.1818 91.9889 42.1818ZM101.118 33.2727V34.4091H96.595V33.2727H101.118ZM97.9132 31.1818H99.2541V39.5C99.2541 39.8788 99.309 40.1629 99.4189 40.3523C99.5325 40.5379 99.6764 40.6629 99.8507 40.7273C100.029 40.7879 100.216 40.8182 100.413 40.8182C100.561 40.8182 100.682 40.8106 100.777 40.7955C100.872 40.7765 100.947 40.7614 101.004 40.75L101.277 41.9545C101.186 41.9886 101.059 42.0227 100.896 42.0568C100.733 42.0947 100.527 42.1136 100.277 42.1136C99.898 42.1136 99.5268 42.0322 99.1632 41.8693C98.8033 41.7064 98.5041 41.4583 98.2655 41.125C98.0306 40.7917 97.9132 40.3712 97.9132 39.8636V31.1818ZM105.383 42.2045C104.83 42.2045 104.328 42.1004 103.877 41.892C103.427 41.6799 103.069 41.375 102.803 40.9773C102.538 40.5758 102.406 40.0909 102.406 39.5227C102.406 39.0227 102.504 38.6174 102.701 38.3068C102.898 37.9924 103.161 37.7462 103.491 37.5682C103.82 37.3902 104.184 37.2576 104.582 37.1705C104.983 37.0795 105.387 37.0076 105.792 36.9545C106.322 36.8864 106.752 36.8352 107.082 36.8011C107.415 36.7633 107.658 36.7008 107.809 36.6136C107.964 36.5265 108.042 36.375 108.042 36.1591V36.1136C108.042 35.553 107.889 35.1174 107.582 34.8068C107.279 34.4962 106.819 34.3409 106.201 34.3409C105.561 34.3409 105.059 34.4811 104.695 34.7614C104.332 35.0417 104.076 35.3409 103.928 35.6591L102.656 35.2045C102.883 34.6742 103.186 34.2614 103.565 33.9659C103.947 33.6667 104.364 33.4583 104.815 33.3409C105.269 33.2197 105.716 33.1591 106.156 33.1591C106.436 33.1591 106.758 33.1932 107.122 33.2614C107.489 33.3258 107.843 33.4602 108.184 33.6648C108.529 33.8693 108.815 34.178 109.042 34.5909C109.269 35.0038 109.383 35.5568 109.383 36.25V42H108.042V40.8182H107.974C107.883 41.0076 107.731 41.2102 107.519 41.4261C107.307 41.642 107.025 41.8258 106.673 41.9773C106.32 42.1288 105.891 42.2045 105.383 42.2045ZM105.588 41C106.118 41 106.565 40.8958 106.928 40.6875C107.296 40.4792 107.572 40.2102 107.758 39.8807C107.947 39.5511 108.042 39.2045 108.042 38.8409V37.6136C107.985 37.6818 107.86 37.7443 107.667 37.8011C107.478 37.8542 107.258 37.9015 107.008 37.9432C106.762 37.9811 106.521 38.0152 106.286 38.0455C106.055 38.072 105.868 38.0947 105.724 38.1136C105.375 38.1591 105.05 38.233 104.747 38.3352C104.447 38.4337 104.205 38.5833 104.019 38.7841C103.838 38.9811 103.747 39.25 103.747 39.5909C103.747 40.0568 103.919 40.4091 104.264 40.6477C104.612 40.8826 105.053 41 105.588 41ZM111.692 42V30.3636H113.033V34.6591H113.147C113.245 34.5076 113.382 34.3144 113.556 34.0795C113.734 33.8409 113.988 33.6288 114.317 33.4432C114.651 33.2538 115.101 33.1591 115.669 33.1591C116.404 33.1591 117.052 33.3428 117.613 33.7102C118.173 34.0777 118.611 34.5985 118.925 35.2727C119.24 35.947 119.397 36.7424 119.397 37.6591C119.397 38.5833 119.24 39.3845 118.925 40.0625C118.611 40.7367 118.175 41.2595 117.618 41.6307C117.062 41.9981 116.419 42.1818 115.692 42.1818C115.132 42.1818 114.683 42.089 114.346 41.9034C114.009 41.714 113.749 41.5 113.567 41.2614C113.385 41.0189 113.245 40.8182 113.147 40.6591H112.988V42H111.692ZM113.01 37.6364C113.01 38.2955 113.107 38.8769 113.3 39.3807C113.493 39.8807 113.776 40.2727 114.147 40.5568C114.518 40.8371 114.973 40.9773 115.51 40.9773C116.071 40.9773 116.539 40.8295 116.914 40.5341C117.293 40.2348 117.577 39.8333 117.766 39.3295C117.959 38.822 118.056 38.2576 118.056 37.6364C118.056 37.0227 117.961 36.4697 117.772 35.9773C117.586 35.4811 117.304 35.089 116.925 34.8011C116.55 34.5095 116.079 34.3636 115.51 34.3636C114.965 34.3636 114.507 34.5019 114.135 34.7784C113.764 35.0511 113.484 35.4337 113.294 35.9261C113.105 36.4148 113.01 36.9848 113.01 37.6364ZM122.469 30.3636V42H121.128V30.3636H122.469ZM128.264 42.1818C127.423 42.1818 126.698 41.9962 126.088 41.625C125.482 41.25 125.014 40.7273 124.684 40.0568C124.359 39.3826 124.196 38.5985 124.196 37.7045C124.196 36.8106 124.359 36.0227 124.684 35.3409C125.014 34.6553 125.472 34.1212 126.059 33.7386C126.65 33.3523 127.34 33.1591 128.128 33.1591C128.582 33.1591 129.031 33.2348 129.474 33.3864C129.917 33.5379 130.321 33.7841 130.684 34.125C131.048 34.4621 131.338 34.9091 131.554 35.4659C131.77 36.0227 131.878 36.7083 131.878 37.5227V38.0909H125.15V36.9318H130.514C130.514 36.4394 130.415 36 130.218 35.6136C130.025 35.2273 129.749 34.9223 129.389 34.6989C129.033 34.4754 128.612 34.3636 128.128 34.3636C127.593 34.3636 127.131 34.4962 126.741 34.7614C126.355 35.0227 126.057 35.3636 125.849 35.7841C125.641 36.2045 125.537 36.6553 125.537 37.1364V37.9091C125.537 38.5682 125.65 39.1269 125.878 39.5852C126.109 40.0398 126.429 40.3864 126.838 40.625C127.247 40.8598 127.722 40.9773 128.264 40.9773C128.616 40.9773 128.934 40.928 129.218 40.8295C129.506 40.7273 129.754 40.5758 129.963 40.375C130.171 40.1705 130.332 39.9167 130.446 39.6136L131.741 39.9773C131.605 40.4167 131.376 40.803 131.054 41.1364C130.732 41.4659 130.334 41.7235 129.86 41.9091C129.387 42.0909 128.855 42.1818 128.264 42.1818ZM137.256 42.1818C136.415 42.1818 135.69 41.9962 135.08 41.625C134.474 41.25 134.006 40.7273 133.677 40.0568C133.351 39.3826 133.188 38.5985 133.188 37.7045C133.188 36.8106 133.351 36.0227 133.677 35.3409C134.006 34.6553 134.465 34.1212 135.052 33.7386C135.643 33.3523 136.332 33.1591 137.12 33.1591C137.575 33.1591 138.023 33.2348 138.467 33.3864C138.91 33.5379 139.313 33.7841 139.677 34.125C140.04 34.4621 140.33 34.9091 140.546 35.4659C140.762 36.0227 140.87 36.7083 140.87 37.5227V38.0909H134.143V36.9318H139.506C139.506 36.4394 139.408 36 139.211 35.6136C139.018 35.2273 138.741 34.9223 138.381 34.6989C138.025 34.4754 137.605 34.3636 137.12 34.3636C136.586 34.3636 136.124 34.4962 135.734 34.7614C135.347 35.0227 135.05 35.3636 134.842 35.7841C134.633 36.2045 134.529 36.6553 134.529 37.1364V37.9091C134.529 38.5682 134.643 39.1269 134.87 39.5852C135.101 40.0398 135.421 40.3864 135.83 40.625C136.239 40.8598 136.715 40.9773 137.256 40.9773C137.609 40.9773 137.927 40.928 138.211 40.8295C138.499 40.7273 138.747 40.5758 138.955 40.375C139.164 40.1705 139.325 39.9167 139.438 39.6136L140.734 39.9773C140.597 40.4167 140.368 40.803 140.046 41.1364C139.724 41.4659 139.326 41.7235 138.853 41.9091C138.379 42.0909 137.847 42.1818 137.256 42.1818ZM146.249 42.1818C145.408 42.1818 144.683 41.9962 144.073 41.625C143.467 41.25 142.999 40.7273 142.669 40.0568C142.344 39.3826 142.181 38.5985 142.181 37.7045C142.181 36.8106 142.344 36.0227 142.669 35.3409C142.999 34.6553 143.457 34.1212 144.044 33.7386C144.635 33.3523 145.325 33.1591 146.113 33.1591C146.567 33.1591 147.016 33.2348 147.459 33.3864C147.902 33.5379 148.306 33.7841 148.669 34.125C149.033 34.4621 149.323 34.9091 149.539 35.4659C149.755 36.0227 149.863 36.7083 149.863 37.5227V38.0909H143.135V36.9318H148.499C148.499 36.4394 148.4 36 148.203 35.6136C148.01 35.2273 147.734 34.9223 147.374 34.6989C147.018 34.4754 146.597 34.3636 146.113 34.3636C145.578 34.3636 145.116 34.4962 144.726 34.7614C144.34 35.0227 144.042 35.3636 143.834 35.7841C143.626 36.2045 143.522 36.6553 143.522 37.1364V37.9091C143.522 38.5682 143.635 39.1269 143.863 39.5852C144.094 40.0398 144.414 40.3864 144.823 40.625C145.232 40.8598 145.707 40.9773 146.249 40.9773C146.601 40.9773 146.919 40.928 147.203 40.8295C147.491 40.7273 147.739 40.5758 147.948 40.375C148.156 40.1705 148.317 39.9167 148.431 39.6136L149.726 39.9773C149.59 40.4167 149.361 40.803 149.039 41.1364C148.717 41.4659 148.319 41.7235 147.845 41.9091C147.372 42.0909 146.84 42.1818 146.249 42.1818Z" fill="#4B5563"/>
<rect x="20" y="72" width="248" height="32" rx="8" fill="#F3F4F6"/>
<path d="M38 79.75C36.22 79.75 34.4799 80.2778 32.9999 81.2668C31.5198 82.2557 30.3663 83.6613 29.6851 85.3059C29.0039 86.9504 28.8257 88.76 29.1729 90.5058C29.5202 92.2516 30.3774 93.8553 31.636 95.114C32.8947 96.3726 34.4984 97.2298 36.2442 97.5771C37.99 97.9243 39.7996 97.7461 41.4442 97.0649C43.0887 96.3837 44.4943 95.2302 45.4832 93.7501C46.4722 92.2701 47 90.53 47 88.75C46.9973 86.3639 46.0482 84.0763 44.361 82.3891C42.6737 80.7018 40.3861 79.7527 38 79.75ZM38 96.25C36.5166 96.25 35.0666 95.8101 33.8332 94.986C32.5999 94.1619 31.6386 92.9906 31.0709 91.6201C30.5033 90.2497 30.3547 88.7417 30.6441 87.2868C30.9335 85.832 31.6478 84.4956 32.6967 83.4467C33.7456 82.3978 35.082 81.6835 36.5368 81.3941C37.9917 81.1047 39.4997 81.2532 40.8701 81.8209C42.2406 82.3886 43.4119 83.3499 44.236 84.5832C45.0601 85.8166 45.5 87.2666 45.5 88.75C45.4978 90.7384 44.7069 92.6448 43.3008 94.0508C41.8948 95.4569 39.9884 96.2478 38 96.25ZM42.2806 84.4694C42.3504 84.539 42.4057 84.6217 42.4434 84.7128C42.4812 84.8038 42.5006 84.9014 42.5006 85C42.5006 85.0986 42.4812 85.1962 42.4434 85.2872C42.4057 85.3783 42.3504 85.461 42.2806 85.5306L38.5306 89.2806C38.4609 89.3503 38.3782 89.4056 38.2872 89.4433C38.1961 89.481 38.0986 89.5004 38 89.5004C37.9015 89.5004 37.8039 89.481 37.7128 89.4433C37.6218 89.4056 37.5391 89.3503 37.4694 89.2806C37.3997 89.2109 37.3444 89.1282 37.3067 89.0372C37.269 88.9461 37.2496 88.8485 37.2496 88.75C37.2496 88.6515 37.269 88.5539 37.3067 88.4628C37.3444 88.3718 37.3997 88.2891 37.4694 88.2194L41.2194 84.4694C41.289 84.3996 41.3718 84.3443 41.4628 84.3066C41.5538 84.2688 41.6514 84.2494 41.75 84.2494C41.8486 84.2494 41.9462 84.2688 42.0372 84.3066C42.1283 84.3443 42.211 84.3996 42.2806 84.4694ZM35 77.5C35 77.3011 35.079 77.1103 35.2197 76.9697C35.3603 76.829 35.5511 76.75 35.75 76.75H40.25C40.4489 76.75 40.6397 76.829 40.7803 76.9697C40.921 77.1103 41 77.3011 41 77.5C41 77.6989 40.921 77.8897 40.7803 78.0303C40.6397 78.171 40.4489 78.25 40.25 78.25H35.75C35.5511 78.25 35.3603 78.171 35.2197 78.0303C35.079 77.8897 35 77.6989 35 77.5Z" fill="#FF7A18"/>
<path d="M60.8864 82.3636L64.3409 92.1591H64.4773L67.9318 82.3636H69.4091L65.1364 94H63.6818L59.4091 82.3636H60.8864ZM73.5664 94.1818C72.7255 94.1818 72.0001 93.9962 71.3902 93.625C70.7842 93.25 70.3164 92.7273 69.9868 92.0568C69.6611 91.3826 69.4982 90.5985 69.4982 89.7045C69.4982 88.8106 69.6611 88.0227 69.9868 87.3409C70.3164 86.6553 70.7747 86.1212 71.3618 85.7386C71.9527 85.3523 72.6421 85.1591 73.43 85.1591C73.8845 85.1591 74.3334 85.2348 74.7766 85.3864C75.2198 85.5379 75.6232 85.7841 75.9868 86.125C76.3505 86.4621 76.6402 86.9091 76.8561 87.4659C77.072 88.0227 77.18 88.7083 77.18 89.5227V90.0909H70.4527V88.9318H75.8164C75.8164 88.4394 75.7179 88 75.5209 87.6136C75.3277 87.2273 75.0512 86.9223 74.6914 86.6989C74.3353 86.4754 73.9148 86.3636 73.43 86.3636C72.8959 86.3636 72.4338 86.4962 72.0436 86.7614C71.6573 87.0227 71.3599 87.3636 71.1516 87.7841C70.9433 88.2045 70.8391 88.6553 70.8391 89.1364V89.9091C70.8391 90.5682 70.9527 91.1269 71.18 91.5852C71.4111 92.0398 71.7311 92.3864 72.1402 92.625C72.5493 92.8598 73.0247 92.9773 73.5664 92.9773C73.9186 92.9773 74.2368 92.928 74.5209 92.8295C74.8088 92.7273 75.0569 92.5758 75.2652 92.375C75.4736 92.1705 75.6345 91.9167 75.7482 91.6136L77.0436 91.9773C76.9073 92.4167 76.6781 92.803 76.3561 93.1364C76.0342 93.4659 75.6364 93.7235 75.163 93.9091C74.6895 94.0909 74.1573 94.1818 73.5664 94.1818ZM82.4225 97.4545C81.7748 97.4545 81.218 97.3712 80.752 97.2045C80.2861 97.0417 79.8979 96.8258 79.5873 96.5568C79.2805 96.2917 79.0361 96.0076 78.8543 95.7045L79.9225 94.9545C80.0437 95.1136 80.1971 95.2955 80.3827 95.5C80.5683 95.7083 80.8221 95.8883 81.1441 96.0398C81.4698 96.1951 81.896 96.2727 82.4225 96.2727C83.127 96.2727 83.7085 96.1023 84.1668 95.7614C84.6252 95.4205 84.8543 94.8864 84.8543 94.1591V92.3864H84.7407C84.6422 92.5455 84.502 92.7424 84.3202 92.9773C84.1422 93.2083 83.8846 93.4148 83.5475 93.5966C83.2142 93.7746 82.7634 93.8636 82.1952 93.8636C81.4907 93.8636 80.8581 93.697 80.2975 93.3636C79.7407 93.0303 79.2994 92.5455 78.9736 91.9091C78.6517 91.2727 78.4907 90.5 78.4907 89.5909C78.4907 88.697 78.6479 87.9186 78.9623 87.2557C79.2767 86.589 79.7142 86.0739 80.2748 85.7102C80.8354 85.3428 81.4831 85.1591 82.218 85.1591C82.7861 85.1591 83.2369 85.2538 83.5702 85.4432C83.9073 85.6288 84.1649 85.8409 84.343 86.0795C84.5248 86.3144 84.6649 86.5076 84.7634 86.6591H84.8998V85.2727H86.1952V94.25C86.1952 95 86.0248 95.6098 85.6839 96.0795C85.3467 96.553 84.8922 96.8996 84.3202 97.1193C83.752 97.3428 83.1195 97.4545 82.4225 97.4545ZM82.377 92.6591C82.9149 92.6591 83.3695 92.536 83.7407 92.2898C84.1119 92.0436 84.3941 91.6894 84.5873 91.2273C84.7805 90.7652 84.877 90.2121 84.877 89.5682C84.877 88.9394 84.7823 88.3845 84.593 87.9034C84.4036 87.4223 84.1233 87.0455 83.752 86.7727C83.3808 86.5 82.9225 86.3636 82.377 86.3636C81.8089 86.3636 81.3354 86.5076 80.9566 86.7955C80.5816 87.0833 80.2994 87.4697 80.11 87.9545C79.9244 88.4394 79.8316 88.9773 79.8316 89.5682C79.8316 90.1742 79.9263 90.7102 80.1157 91.1761C80.3089 91.6383 80.593 92.0019 80.968 92.267C81.3467 92.5284 81.8164 92.6591 82.377 92.6591ZM91.9889 94.1818C91.148 94.1818 90.4226 93.9962 89.8127 93.625C89.2067 93.25 88.7389 92.7273 88.4093 92.0568C88.0836 91.3826 87.9207 90.5985 87.9207 89.7045C87.9207 88.8106 88.0836 88.0227 88.4093 87.3409C88.7389 86.6553 89.1972 86.1212 89.7843 85.7386C90.3752 85.3523 91.0646 85.1591 91.8525 85.1591C92.307 85.1591 92.7559 85.2348 93.1991 85.3864C93.6423 85.5379 94.0457 85.7841 94.4093 86.125C94.773 86.4621 95.0627 86.9091 95.2786 87.4659C95.4945 88.0227 95.6025 88.7083 95.6025 89.5227V90.0909H88.8752V88.9318H94.2389C94.2389 88.4394 94.1404 88 93.9434 87.6136C93.7502 87.2273 93.4737 86.9223 93.1139 86.6989C92.7578 86.4754 92.3373 86.3636 91.8525 86.3636C91.3184 86.3636 90.8563 86.4962 90.4661 86.7614C90.0798 87.0227 89.7824 87.3636 89.5741 87.7841C89.3658 88.2045 89.2616 88.6553 89.2616 89.1364V89.9091C89.2616 90.5682 89.3752 91.1269 89.6025 91.5852C89.8336 92.0398 90.1536 92.3864 90.5627 92.625C90.9718 92.8598 91.4472 92.9773 91.9889 92.9773C92.3411 92.9773 92.6593 92.928 92.9434 92.8295C93.2313 92.7273 93.4794 92.5758 93.6877 92.375C93.8961 92.1705 94.057 91.9167 94.1707 91.6136L95.4661 91.9773C95.3298 92.4167 95.1006 92.803 94.7786 93.1364C94.4567 93.4659 94.0589 93.7235 93.5855 93.9091C93.112 94.0909 92.5798 94.1818 91.9889 94.1818ZM101.118 85.2727V86.4091H96.595V85.2727H101.118ZM97.9132 83.1818H99.2541V91.5C99.2541 91.8788 99.309 92.1629 99.4189 92.3523C99.5325 92.5379 99.6764 92.6629 99.8507 92.7273C100.029 92.7879 100.216 92.8182 100.413 92.8182C100.561 92.8182 100.682 92.8106 100.777 92.7955C100.872 92.7765 100.947 92.7614 101.004 92.75L101.277 93.9545C101.186 93.9886 101.059 94.0227 100.896 94.0568C100.733 94.0947 100.527 94.1136 100.277 94.1136C99.898 94.1136 99.5268 94.0322 99.1632 93.8693C98.8033 93.7064 98.5041 93.4583 98.2655 93.125C98.0306 92.7917 97.9132 92.3712 97.9132 91.8636V83.1818ZM105.383 94.2045C104.83 94.2045 104.328 94.1004 103.877 93.892C103.427 93.6799 103.069 93.375 102.803 92.9773C102.538 92.5758 102.406 92.0909 102.406 91.5227C102.406 91.0227 102.504 90.6174 102.701 90.3068C102.898 89.9924 103.161 89.7462 103.491 89.5682C103.82 89.3902 104.184 89.2576 104.582 89.1705C104.983 89.0795 105.387 89.0076 105.792 88.9545C106.322 88.8864 106.752 88.8352 107.082 88.8011C107.415 88.7633 107.658 88.7008 107.809 88.6136C107.964 88.5265 108.042 88.375 108.042 88.1591V88.1136C108.042 87.553 107.889 87.1174 107.582 86.8068C107.279 86.4962 106.819 86.3409 106.201 86.3409C105.561 86.3409 105.059 86.4811 104.695 86.7614C104.332 87.0417 104.076 87.3409 103.928 87.6591L102.656 87.2045C102.883 86.6742 103.186 86.2614 103.565 85.9659C103.947 85.6667 104.364 85.4583 104.815 85.3409C105.269 85.2197 105.716 85.1591 106.156 85.1591C106.436 85.1591 106.758 85.1932 107.122 85.2614C107.489 85.3258 107.843 85.4602 108.184 85.6648C108.529 85.8693 108.815 86.178 109.042 86.5909C109.269 87.0038 109.383 87.5568 109.383 88.25V94H108.042V92.8182H107.974C107.883 93.0076 107.731 93.2102 107.519 93.4261C107.307 93.642 107.025 93.8258 106.673 93.9773C106.32 94.1288 105.891 94.2045 105.383 94.2045ZM105.588 93C106.118 93 106.565 92.8958 106.928 92.6875C107.296 92.4792 107.572 92.2102 107.758 91.8807C107.947 91.5511 108.042 91.2045 108.042 90.8409V89.6136C107.985 89.6818 107.86 89.7443 107.667 89.8011C107.478 89.8542 107.258 89.9015 107.008 89.9432C106.762 89.9811 106.521 90.0152 106.286 90.0455C106.055 90.072 105.868 90.0947 105.724 90.1136C105.375 90.1591 105.05 90.233 104.747 90.3352C104.447 90.4337 104.205 90.5833 104.019 90.7841C103.838 90.9811 103.747 91.25 103.747 91.5909C103.747 92.0568 103.919 92.4091 104.264 92.6477C104.612 92.8826 105.053 93 105.588 93ZM111.51 94V85.2727H112.806V86.5909H112.897C113.056 86.1591 113.344 85.8087 113.76 85.5398C114.177 85.2708 114.647 85.1364 115.169 85.1364C115.268 85.1364 115.391 85.1383 115.539 85.142C115.687 85.1458 115.798 85.1515 115.874 85.1591V86.5227C115.829 86.5114 115.724 86.4943 115.562 86.4716C115.402 86.4451 115.234 86.4318 115.056 86.4318C114.632 86.4318 114.253 86.5208 113.919 86.6989C113.59 86.8731 113.329 87.1155 113.135 87.4261C112.946 87.733 112.851 88.0833 112.851 88.4773V94H111.51ZM117.144 94V85.2727H118.484V94H117.144ZM117.825 83.8182C117.564 83.8182 117.339 83.7292 117.149 83.5511C116.964 83.3731 116.871 83.1591 116.871 82.9091C116.871 82.6591 116.964 82.4451 117.149 82.267C117.339 82.089 117.564 82 117.825 82C118.087 82 118.31 82.089 118.496 82.267C118.685 82.4451 118.78 82.6591 118.78 82.9091C118.78 83.1591 118.685 83.3731 118.496 83.5511C118.31 83.7292 118.087 83.8182 117.825 83.8182ZM123.189 94.2045C122.636 94.2045 122.134 94.1004 121.683 93.892C121.232 93.6799 120.874 93.375 120.609 92.9773C120.344 92.5758 120.211 92.0909 120.211 91.5227C120.211 91.0227 120.31 90.6174 120.507 90.3068C120.704 89.9924 120.967 89.7462 121.297 89.5682C121.626 89.3902 121.99 89.2576 122.387 89.1705C122.789 89.0795 123.192 89.0076 123.598 88.9545C124.128 88.8864 124.558 88.8352 124.887 88.8011C125.221 88.7633 125.463 88.7008 125.615 88.6136C125.77 88.5265 125.848 88.375 125.848 88.1591V88.1136C125.848 87.553 125.694 87.1174 125.387 86.8068C125.084 86.4962 124.624 86.3409 124.007 86.3409C123.367 86.3409 122.865 86.4811 122.501 86.7614C122.137 87.0417 121.882 87.3409 121.734 87.6591L120.461 87.2045C120.689 86.6742 120.992 86.2614 121.37 85.9659C121.753 85.6667 122.17 85.4583 122.62 85.3409C123.075 85.2197 123.522 85.1591 123.961 85.1591C124.242 85.1591 124.564 85.1932 124.927 85.2614C125.295 85.3258 125.649 85.4602 125.99 85.6648C126.334 85.8693 126.62 86.178 126.848 86.5909C127.075 87.0038 127.189 87.5568 127.189 88.25V94H125.848V92.8182H125.779C125.689 93.0076 125.537 93.2102 125.325 93.4261C125.113 93.642 124.831 93.8258 124.478 93.9773C124.126 94.1288 123.696 94.2045 123.189 94.2045ZM123.393 93C123.923 93 124.37 92.8958 124.734 92.6875C125.101 92.4792 125.378 92.2102 125.564 91.8807C125.753 91.5511 125.848 91.2045 125.848 90.8409V89.6136C125.791 89.6818 125.666 89.7443 125.473 89.8011C125.283 89.8542 125.064 89.9015 124.814 89.9432C124.567 89.9811 124.327 90.0152 124.092 90.0455C123.861 90.072 123.673 90.0947 123.529 90.1136C123.181 90.1591 122.855 90.233 122.552 90.3352C122.253 90.4337 122.011 90.5833 121.825 90.7841C121.643 90.9811 121.552 91.25 121.552 91.5909C121.552 92.0568 121.725 92.4091 122.069 92.6477C122.418 92.8826 122.859 93 123.393 93ZM130.657 88.75V94H129.316V85.2727H130.611V86.6364H130.725C130.93 86.1932 131.24 85.8371 131.657 85.5682C132.074 85.2955 132.611 85.1591 133.271 85.1591C133.861 85.1591 134.379 85.2803 134.822 85.5227C135.265 85.7614 135.61 86.125 135.856 86.6136C136.102 87.0985 136.225 87.7121 136.225 88.4545V94H134.884V88.5455C134.884 87.8598 134.706 87.3258 134.35 86.9432C133.994 86.5568 133.505 86.3636 132.884 86.3636C132.456 86.3636 132.074 86.4564 131.736 86.642C131.403 86.8277 131.14 87.0985 130.947 87.4545C130.754 87.8106 130.657 88.2424 130.657 88.75ZM146.081 94.1818C145.293 94.1818 144.602 93.9943 144.007 93.6193C143.416 93.2443 142.954 92.7197 142.621 92.0455C142.291 91.3712 142.126 90.5833 142.126 89.6818C142.126 88.7727 142.291 87.9792 142.621 87.3011C142.954 86.6231 143.416 86.0966 144.007 85.7216C144.602 85.3466 145.293 85.1591 146.081 85.1591C146.869 85.1591 147.558 85.3466 148.149 85.7216C148.744 86.0966 149.206 86.6231 149.535 87.3011C149.869 87.9792 150.035 88.7727 150.035 89.6818C150.035 90.5833 149.869 91.3712 149.535 92.0455C149.206 92.7197 148.744 93.2443 148.149 93.6193C147.558 93.9943 146.869 94.1818 146.081 94.1818ZM146.081 92.9773C146.679 92.9773 147.172 92.8239 147.558 92.517C147.944 92.2102 148.23 91.8068 148.416 91.3068C148.602 90.8068 148.694 90.2652 148.694 89.6818C148.694 89.0985 148.602 88.5549 148.416 88.0511C148.23 87.5473 147.944 87.1402 147.558 86.8295C147.172 86.5189 146.679 86.3636 146.081 86.3636C145.482 86.3636 144.99 86.5189 144.604 86.8295C144.217 87.1402 143.931 87.5473 143.746 88.0511C143.56 88.5549 143.467 89.0985 143.467 89.6818C143.467 90.2652 143.56 90.8068 143.746 91.3068C143.931 91.8068 144.217 92.2102 144.604 92.517C144.99 92.8239 145.482 92.9773 146.081 92.9773ZM151.762 97.2727V85.2727H153.058V86.6591H153.217C153.315 86.5076 153.452 86.3144 153.626 86.0795C153.804 85.8409 154.058 85.6288 154.387 85.4432C154.721 85.2538 155.171 85.1591 155.74 85.1591C156.474 85.1591 157.122 85.3428 157.683 85.7102C158.243 86.0777 158.681 86.5985 158.995 87.2727C159.31 87.947 159.467 88.7424 159.467 89.6591C159.467 90.5833 159.31 91.3845 158.995 92.0625C158.681 92.7367 158.245 93.2595 157.688 93.6307C157.132 93.9981 156.49 94.1818 155.762 94.1818C155.202 94.1818 154.753 94.089 154.416 93.9034C154.079 93.714 153.819 93.5 153.637 93.2614C153.455 93.0189 153.315 92.8182 153.217 92.6591H153.103V97.2727H151.762ZM153.08 89.6364C153.08 90.2955 153.177 90.8769 153.37 91.3807C153.563 91.8807 153.846 92.2727 154.217 92.5568C154.588 92.8371 155.043 92.9773 155.58 92.9773C156.141 92.9773 156.609 92.8295 156.984 92.5341C157.363 92.2348 157.647 91.8333 157.836 91.3295C158.029 90.822 158.126 90.2576 158.126 89.6364C158.126 89.0227 158.031 88.4697 157.842 87.9773C157.656 87.4811 157.374 87.089 156.995 86.8011C156.62 86.5095 156.149 86.3636 155.58 86.3636C155.035 86.3636 154.577 86.5019 154.205 86.7784C153.834 87.0511 153.554 87.4337 153.365 87.9261C153.175 88.4148 153.08 88.9848 153.08 89.6364ZM164.988 85.2727V86.4091H160.465V85.2727H164.988ZM161.783 83.1818H163.124V91.5C163.124 91.8788 163.179 92.1629 163.289 92.3523C163.402 92.5379 163.546 92.6629 163.721 92.7273C163.899 92.7879 164.086 92.8182 164.283 92.8182C164.431 92.8182 164.552 92.8106 164.647 92.7955C164.742 92.7765 164.817 92.7614 164.874 92.75L165.147 93.9545C165.056 93.9886 164.929 94.0227 164.766 94.0568C164.603 94.0947 164.397 94.1136 164.147 94.1136C163.768 94.1136 163.397 94.0322 163.033 93.8693C162.673 93.7064 162.374 93.4583 162.135 93.125C161.901 92.7917 161.783 92.3712 161.783 91.8636V83.1818ZM166.685 94V85.2727H168.026V94H166.685ZM167.367 83.8182C167.105 83.8182 166.88 83.7292 166.69 83.5511C166.505 83.3731 166.412 83.1591 166.412 82.9091C166.412 82.6591 166.505 82.4451 166.69 82.267C166.88 82.089 167.105 82 167.367 82C167.628 82 167.851 82.089 168.037 82.267C168.226 82.4451 168.321 82.6591 168.321 82.9091C168.321 83.1591 168.226 83.3731 168.037 83.5511C167.851 83.7292 167.628 83.8182 167.367 83.8182ZM173.707 94.1818C172.919 94.1818 172.228 93.9943 171.633 93.6193C171.042 93.2443 170.58 92.7197 170.247 92.0455C169.917 91.3712 169.753 90.5833 169.753 89.6818C169.753 88.7727 169.917 87.9792 170.247 87.3011C170.58 86.6231 171.042 86.0966 171.633 85.7216C172.228 85.3466 172.919 85.1591 173.707 85.1591C174.495 85.1591 175.184 85.3466 175.775 85.7216C176.37 86.0966 176.832 86.6231 177.162 87.3011C177.495 87.9792 177.662 88.7727 177.662 89.6818C177.662 90.5833 177.495 91.3712 177.162 92.0455C176.832 92.7197 176.37 93.2443 175.775 93.6193C175.184 93.9943 174.495 94.1818 173.707 94.1818ZM173.707 92.9773C174.306 92.9773 174.798 92.8239 175.184 92.517C175.571 92.2102 175.857 91.8068 176.042 91.3068C176.228 90.8068 176.321 90.2652 176.321 89.6818C176.321 89.0985 176.228 88.5549 176.042 88.0511C175.857 87.5473 175.571 87.1402 175.184 86.8295C174.798 86.5189 174.306 86.3636 173.707 86.3636C173.109 86.3636 172.616 86.5189 172.23 86.8295C171.843 87.1402 171.557 87.5473 171.372 88.0511C171.186 88.5549 171.093 89.0985 171.093 89.6818C171.093 90.2652 171.186 90.8068 171.372 91.3068C171.557 91.8068 171.843 92.2102 172.23 92.517C172.616 92.8239 173.109 92.9773 173.707 92.9773ZM180.729 88.75V94H179.389V85.2727H180.684V86.6364H180.798C181.002 86.1932 181.313 85.8371 181.729 85.5682C182.146 85.2955 182.684 85.1591 183.343 85.1591C183.934 85.1591 184.451 85.2803 184.894 85.5227C185.337 85.7614 185.682 86.125 185.928 86.6136C186.175 87.0985 186.298 87.7121 186.298 88.4545V94H184.957V88.5455C184.957 87.8598 184.779 87.3258 184.423 86.9432C184.067 86.5568 183.578 86.3636 182.957 86.3636C182.529 86.3636 182.146 86.4564 181.809 86.642C181.476 86.8277 181.212 87.0985 181.019 87.4545C180.826 87.8106 180.729 88.2424 180.729 88.75ZM195.176 94.2045C194.623 94.2045 194.121 94.1004 193.67 93.892C193.22 93.6799 192.862 93.375 192.597 92.9773C192.331 92.5758 192.199 92.0909 192.199 91.5227C192.199 91.0227 192.297 90.6174 192.494 90.3068C192.691 89.9924 192.954 89.7462 193.284 89.5682C193.614 89.3902 193.977 89.2576 194.375 89.1705C194.776 89.0795 195.18 89.0076 195.585 88.9545C196.115 88.8864 196.545 88.8352 196.875 88.8011C197.208 88.7633 197.451 88.7008 197.602 88.6136C197.758 88.5265 197.835 88.375 197.835 88.1591V88.1136C197.835 87.553 197.682 87.1174 197.375 86.8068C197.072 86.4962 196.612 86.3409 195.994 86.3409C195.354 86.3409 194.852 86.4811 194.489 86.7614C194.125 87.0417 193.869 87.3409 193.722 87.6591L192.449 87.2045C192.676 86.6742 192.979 86.2614 193.358 85.9659C193.74 85.6667 194.157 85.4583 194.608 85.3409C195.062 85.2197 195.509 85.1591 195.949 85.1591C196.229 85.1591 196.551 85.1932 196.915 85.2614C197.282 85.3258 197.636 85.4602 197.977 85.6648C198.322 85.8693 198.608 86.178 198.835 86.5909C199.062 87.0038 199.176 87.5568 199.176 88.25V94H197.835V92.8182H197.767C197.676 93.0076 197.525 93.2102 197.312 93.4261C197.1 93.642 196.818 93.8258 196.466 93.9773C196.114 94.1288 195.684 94.2045 195.176 94.2045ZM195.381 93C195.911 93 196.358 92.8958 196.722 92.6875C197.089 92.4792 197.365 92.2102 197.551 91.8807C197.74 91.5511 197.835 91.2045 197.835 90.8409V89.6136C197.778 89.6818 197.653 89.7443 197.46 89.8011C197.271 89.8542 197.051 89.9015 196.801 89.9432C196.555 89.9811 196.314 90.0152 196.079 90.0455C195.848 90.072 195.661 90.0947 195.517 90.1136C195.169 90.1591 194.843 90.233 194.54 90.3352C194.24 90.4337 193.998 90.5833 193.812 90.7841C193.631 90.9811 193.54 91.25 193.54 91.5909C193.54 92.0568 193.712 92.4091 194.057 92.6477C194.405 92.8826 194.847 93 195.381 93ZM208.127 85.2727L204.9 94H203.536L200.309 85.2727H201.764L204.173 92.2273H204.264L206.673 85.2727H208.127ZM211.88 94.2045C211.327 94.2045 210.825 94.1004 210.374 93.892C209.923 93.6799 209.565 93.375 209.3 92.9773C209.035 92.5758 208.903 92.0909 208.903 91.5227C208.903 91.0227 209.001 90.6174 209.198 90.3068C209.395 89.9924 209.658 89.7462 209.988 89.5682C210.317 89.3902 210.681 89.2576 211.079 89.1705C211.48 89.0795 211.884 89.0076 212.289 88.9545C212.819 88.8864 213.249 88.8352 213.579 88.8011C213.912 88.7633 214.154 88.7008 214.306 88.6136C214.461 88.5265 214.539 88.375 214.539 88.1591V88.1136C214.539 87.553 214.386 87.1174 214.079 86.8068C213.776 86.4962 213.315 86.3409 212.698 86.3409C212.058 86.3409 211.556 86.4811 211.192 86.7614C210.829 87.0417 210.573 87.3409 210.425 87.6591L209.153 87.2045C209.38 86.6742 209.683 86.2614 210.062 85.9659C210.444 85.6667 210.861 85.4583 211.312 85.3409C211.766 85.2197 212.213 85.1591 212.653 85.1591C212.933 85.1591 213.255 85.1932 213.618 85.2614C213.986 85.3258 214.34 85.4602 214.681 85.6648C215.026 85.8693 215.312 86.178 215.539 86.5909C215.766 87.0038 215.88 87.5568 215.88 88.25V94H214.539V92.8182H214.471C214.38 93.0076 214.228 93.2102 214.016 93.4261C213.804 93.642 213.522 93.8258 213.17 93.9773C212.817 94.1288 212.387 94.2045 211.88 94.2045ZM212.084 93C212.615 93 213.062 92.8958 213.425 92.6875C213.793 92.4792 214.069 92.2102 214.255 91.8807C214.444 91.5511 214.539 91.2045 214.539 90.8409V89.6136C214.482 89.6818 214.357 89.7443 214.164 89.8011C213.975 89.8542 213.755 89.9015 213.505 89.9432C213.259 89.9811 213.018 90.0152 212.783 90.0455C212.552 90.072 212.365 90.0947 212.221 90.1136C211.872 90.1591 211.547 90.233 211.243 90.3352C210.944 90.4337 210.702 90.5833 210.516 90.7841C210.334 90.9811 210.243 91.25 210.243 91.5909C210.243 92.0568 210.416 92.4091 210.761 92.6477C211.109 92.8826 211.55 93 212.084 93ZM218.007 94V85.2727H219.348V94H218.007ZM218.689 83.8182C218.428 83.8182 218.202 83.7292 218.013 83.5511C217.827 83.3731 217.735 83.1591 217.735 82.9091C217.735 82.6591 217.827 82.4451 218.013 82.267C218.202 82.089 218.428 82 218.689 82C218.95 82 219.174 82.089 219.36 82.267C219.549 82.4451 219.644 82.6591 219.644 82.9091C219.644 83.1591 219.549 83.3731 219.36 83.5511C219.174 83.7292 218.95 83.8182 218.689 83.8182ZM222.825 82.3636V94H221.484V82.3636H222.825ZM227.529 94.2045C226.976 94.2045 226.474 94.1004 226.024 93.892C225.573 93.6799 225.215 93.375 224.95 92.9773C224.685 92.5758 224.552 92.0909 224.552 91.5227C224.552 91.0227 224.65 90.6174 224.847 90.3068C225.044 89.9924 225.308 89.7462 225.637 89.5682C225.967 89.3902 226.33 89.2576 226.728 89.1705C227.13 89.0795 227.533 89.0076 227.938 88.9545C228.469 88.8864 228.899 88.8352 229.228 88.8011C229.561 88.7633 229.804 88.7008 229.955 88.6136C230.111 88.5265 230.188 88.375 230.188 88.1591V88.1136C230.188 87.553 230.035 87.1174 229.728 86.8068C229.425 86.4962 228.965 86.3409 228.347 86.3409C227.707 86.3409 227.205 86.4811 226.842 86.7614C226.478 87.0417 226.222 87.3409 226.075 87.6591L224.802 87.2045C225.029 86.6742 225.332 86.2614 225.711 85.9659C226.094 85.6667 226.51 85.4583 226.961 85.3409C227.416 85.2197 227.863 85.1591 228.302 85.1591C228.582 85.1591 228.904 85.1932 229.268 85.2614C229.635 85.3258 229.989 85.4602 230.33 85.6648C230.675 85.8693 230.961 86.178 231.188 86.5909C231.416 87.0038 231.529 87.5568 231.529 88.25V94H230.188V92.8182H230.12C230.029 93.0076 229.878 93.2102 229.666 93.4261C229.453 93.642 229.171 93.8258 228.819 93.9773C228.467 94.1288 228.037 94.2045 227.529 94.2045ZM227.734 93C228.264 93 228.711 92.8958 229.075 92.6875C229.442 92.4792 229.719 92.2102 229.904 91.8807C230.094 91.5511 230.188 91.2045 230.188 90.8409V89.6136C230.131 89.6818 230.006 89.7443 229.813 89.8011C229.624 89.8542 229.404 89.9015 229.154 89.9432C228.908 89.9811 228.667 90.0152 228.433 90.0455C228.202 90.072 228.014 90.0947 227.87 90.1136C227.522 90.1591 227.196 90.233 226.893 90.3352C226.594 90.4337 226.351 90.5833 226.166 90.7841C225.984 90.9811 225.893 91.25 225.893 91.5909C225.893 92.0568 226.065 92.4091 226.41 92.6477C226.758 92.8826 227.2 93 227.734 93ZM233.838 94V82.3636H235.179V86.6591H235.293C235.392 86.5076 235.528 86.3144 235.702 86.0795C235.88 85.8409 236.134 85.6288 236.463 85.4432C236.797 85.2538 237.248 85.1591 237.816 85.1591C238.551 85.1591 239.198 85.3428 239.759 85.7102C240.32 86.0777 240.757 86.5985 241.071 87.2727C241.386 87.947 241.543 88.7424 241.543 89.6591C241.543 90.5833 241.386 91.3845 241.071 92.0625C240.757 92.7367 240.321 93.2595 239.765 93.6307C239.208 93.9981 238.566 94.1818 237.838 94.1818C237.278 94.1818 236.829 94.089 236.492 93.9034C236.155 93.714 235.895 93.5 235.713 93.2614C235.532 93.0189 235.392 92.8182 235.293 92.6591H235.134V94H233.838ZM235.157 89.6364C235.157 90.2955 235.253 90.8769 235.446 91.3807C235.64 91.8807 235.922 92.2727 236.293 92.5568C236.664 92.8371 237.119 92.9773 237.657 92.9773C238.217 92.9773 238.685 92.8295 239.06 92.5341C239.439 92.2348 239.723 91.8333 239.912 91.3295C240.106 90.822 240.202 90.2576 240.202 89.6364C240.202 89.0227 240.107 88.4697 239.918 87.9773C239.732 87.4811 239.45 87.089 239.071 86.8011C238.696 86.5095 238.225 86.3636 237.657 86.3636C237.111 86.3636 236.653 86.5019 236.282 86.7784C235.91 87.0511 235.63 87.4337 235.441 87.9261C235.251 88.4148 235.157 88.9848 235.157 89.6364ZM244.615 82.3636V94H243.274V82.3636H244.615ZM250.41 94.1818C249.569 94.1818 248.844 93.9962 248.234 93.625C247.628 93.25 247.16 92.7273 246.831 92.0568C246.505 91.3826 246.342 90.5985 246.342 89.7045C246.342 88.8106 246.505 88.0227 246.831 87.3409C247.16 86.6553 247.618 86.1212 248.206 85.7386C248.796 85.3523 249.486 85.1591 250.274 85.1591C250.728 85.1591 251.177 85.2348 251.62 85.3864C252.064 85.5379 252.467 85.7841 252.831 86.125C253.194 86.4621 253.484 86.9091 253.7 87.4659C253.916 88.0227 254.024 88.7083 254.024 89.5227V90.0909H247.296V88.9318H252.66C252.66 88.4394 252.562 88 252.365 87.6136C252.171 87.2273 251.895 86.9223 251.535 86.6989C251.179 86.4754 250.759 86.3636 250.274 86.3636C249.74 86.3636 249.278 86.4962 248.887 86.7614C248.501 87.0227 248.204 87.3636 247.995 87.7841C247.787 88.2045 247.683 88.6553 247.683 89.1364V89.9091C247.683 90.5682 247.796 91.1269 248.024 91.5852C248.255 92.0398 248.575 92.3864 248.984 92.625C249.393 92.8598 249.868 92.9773 250.41 92.9773C250.762 92.9773 251.081 92.928 251.365 92.8295C251.653 92.7273 251.901 92.5758 252.109 92.375C252.317 92.1705 252.478 91.9167 252.592 91.6136L253.887 91.9773C253.751 92.4167 253.522 92.803 253.2 93.1364C252.878 93.4659 252.48 93.7235 252.007 93.9091C251.533 94.0909 251.001 94.1818 250.41 94.1818Z" fill="#4B5563"/>
</svg>
