<svg width="529" height="180" viewBox="0 0 529 180" fill="none" xmlns="http://www.w3.org/2000/svg">
<rect x="0.5" y="0.5" width="528" height="179" rx="4.5" stroke="#8A38F5" stroke-dasharray="10 5"/>
<rect x="21" y="21" width="487" height="58" rx="9" stroke="#1E88E5" stroke-width="2"/>
<path d="M183.648 56V44.3636H185.756V54.233H190.881V56H183.648ZM196.483 56.1705C195.608 56.1705 194.852 55.9886 194.216 55.625C193.583 55.2576 193.097 54.7386 192.756 54.0682C192.415 53.3939 192.244 52.6004 192.244 51.6875C192.244 50.7898 192.415 50.0019 192.756 49.3239C193.1 48.642 193.581 48.1117 194.199 47.733C194.816 47.3504 195.542 47.1591 196.375 47.1591C196.913 47.1591 197.42 47.2462 197.898 47.4205C198.379 47.5909 198.803 47.8561 199.17 48.2159C199.542 48.5758 199.833 49.0341 200.045 49.5909C200.258 50.1439 200.364 50.803 200.364 51.5682V52.1989H193.21V50.8125H198.392C198.388 50.4186 198.303 50.0682 198.136 49.7614C197.97 49.4508 197.737 49.2064 197.438 49.0284C197.142 48.8504 196.797 48.7614 196.403 48.7614C195.983 48.7614 195.614 48.8636 195.295 49.0682C194.977 49.2689 194.729 49.5341 194.551 49.8636C194.377 50.1894 194.288 50.5473 194.284 50.9375V52.1477C194.284 52.6553 194.377 53.0909 194.562 53.4545C194.748 53.8144 195.008 54.0909 195.341 54.2841C195.674 54.4735 196.064 54.5682 196.511 54.5682C196.811 54.5682 197.081 54.5265 197.324 54.4432C197.566 54.3561 197.777 54.2292 197.955 54.0625C198.133 53.8958 198.267 53.6894 198.358 53.4432L200.278 53.6591C200.157 54.1667 199.926 54.6098 199.585 54.9886C199.248 55.3636 198.816 55.6553 198.29 55.8636C197.763 56.0682 197.161 56.1705 196.483 56.1705ZM204.615 56.1761C204.062 56.1761 203.564 56.0777 203.121 55.8807C202.681 55.6799 202.333 55.3845 202.075 54.9943C201.821 54.6042 201.695 54.1231 201.695 53.5511C201.695 53.0587 201.786 52.6515 201.967 52.3295C202.149 52.0076 202.397 51.75 202.712 51.5568C203.026 51.3636 203.38 51.2178 203.774 51.1193C204.172 51.017 204.583 50.9432 205.007 50.8977C205.518 50.8447 205.933 50.7973 206.251 50.7557C206.57 50.7102 206.801 50.642 206.945 50.5511C207.092 50.4564 207.166 50.3106 207.166 50.1136V50.0795C207.166 49.6515 207.039 49.3201 206.786 49.0852C206.532 48.8504 206.166 48.733 205.689 48.733C205.185 48.733 204.786 48.8428 204.49 49.0625C204.198 49.2822 204.001 49.5417 203.899 49.8409L201.979 49.5682C202.13 49.0379 202.38 48.5947 202.729 48.2386C203.077 47.8788 203.503 47.6098 204.007 47.4318C204.511 47.25 205.068 47.1591 205.678 47.1591C206.098 47.1591 206.517 47.2083 206.933 47.3068C207.35 47.4053 207.731 47.5682 208.075 47.7955C208.42 48.0189 208.696 48.3239 208.905 48.7102C209.117 49.0966 209.223 49.5795 209.223 50.1591V56H207.246V54.8011H207.178C207.053 55.0436 206.876 55.2708 206.649 55.483C206.426 55.6913 206.143 55.8598 205.803 55.9886C205.465 56.1136 205.07 56.1761 204.615 56.1761ZM205.149 54.6648C205.562 54.6648 205.92 54.5833 206.223 54.4205C206.526 54.2538 206.759 54.0341 206.922 53.7614C207.089 53.4886 207.172 53.1913 207.172 52.8693V51.8409C207.107 51.8939 206.998 51.9432 206.842 51.9886C206.691 52.0341 206.52 52.0739 206.331 52.108C206.142 52.142 205.954 52.1723 205.768 52.1989C205.583 52.2254 205.422 52.2481 205.286 52.267C204.979 52.3087 204.704 52.3769 204.462 52.4716C204.219 52.5663 204.028 52.6989 203.888 52.8693C203.748 53.036 203.678 53.2519 203.678 53.517C203.678 53.8958 203.816 54.1818 204.092 54.375C204.369 54.5682 204.721 54.6648 205.149 54.6648ZM211.291 56V47.2727H213.286V48.7273H213.376C213.536 48.2235 213.808 47.8352 214.195 47.5625C214.585 47.286 215.03 47.1477 215.53 47.1477C215.643 47.1477 215.77 47.1534 215.911 47.1648C216.054 47.1723 216.174 47.1856 216.268 47.2045V49.0966C216.181 49.0663 216.043 49.0398 215.854 49.017C215.668 48.9905 215.488 48.9773 215.314 48.9773C214.939 48.9773 214.602 49.0587 214.303 49.2216C214.007 49.3807 213.774 49.6023 213.604 49.8864C213.433 50.1705 213.348 50.4981 213.348 50.8693V56H211.291ZM219.692 50.8864V56H217.635V47.2727H219.601V48.7557H219.703C219.904 48.267 220.224 47.8788 220.663 47.5909C221.107 47.303 221.654 47.1591 222.305 47.1591C222.908 47.1591 223.432 47.2879 223.879 47.5455C224.33 47.803 224.679 48.1761 224.925 48.6648C225.175 49.1534 225.298 49.7462 225.294 50.4432V56H223.237V50.7614C223.237 50.178 223.086 49.7216 222.783 49.392C222.483 49.0625 222.069 48.8977 221.538 48.8977C221.179 48.8977 220.858 48.9773 220.578 49.1364C220.302 49.2917 220.084 49.517 219.925 49.8125C219.769 50.108 219.692 50.4659 219.692 50.8864ZM231.445 44.3636H234.024L237.479 52.7955H237.615L241.07 44.3636H243.649V56H241.626V48.0057H241.518L238.303 55.9659H236.791L233.575 47.9886H233.467V56H231.445V44.3636ZM249.661 56.1705C248.808 56.1705 248.07 55.983 247.445 55.608C246.82 55.233 246.335 54.7083 245.99 54.0341C245.649 53.3598 245.479 52.572 245.479 51.6705C245.479 50.7689 245.649 49.9792 245.99 49.3011C246.335 48.6231 246.82 48.0966 247.445 47.7216C248.07 47.3466 248.808 47.1591 249.661 47.1591C250.513 47.1591 251.251 47.3466 251.876 47.7216C252.501 48.0966 252.984 48.6231 253.325 49.3011C253.67 49.9792 253.842 50.7689 253.842 51.6705C253.842 52.572 253.67 53.3598 253.325 54.0341C252.984 54.7083 252.501 55.233 251.876 55.608C251.251 55.983 250.513 56.1705 249.661 56.1705ZM249.672 54.5227C250.134 54.5227 250.52 54.3958 250.831 54.142C251.142 53.8845 251.373 53.5398 251.524 53.108C251.679 52.6761 251.757 52.1951 251.757 51.6648C251.757 51.1307 251.679 50.6477 251.524 50.2159C251.373 49.7803 251.142 49.4337 250.831 49.1761C250.52 48.9186 250.134 48.7898 249.672 48.7898C249.198 48.7898 248.804 48.9186 248.49 49.1761C248.179 49.4337 247.946 49.7803 247.791 50.2159C247.64 50.6477 247.564 51.1307 247.564 51.6648C247.564 52.1951 247.64 52.6761 247.791 53.108C247.946 53.5398 248.179 53.8845 248.49 54.142C248.804 54.3958 249.198 54.5227 249.672 54.5227ZM255.588 56V47.2727H257.582V48.7273H257.673C257.832 48.2235 258.105 47.8352 258.491 47.5625C258.882 47.286 259.327 47.1477 259.827 47.1477C259.94 47.1477 260.067 47.1534 260.207 47.1648C260.351 47.1723 260.471 47.1856 260.565 47.2045V49.0966C260.478 49.0663 260.34 49.0398 260.151 49.017C259.965 48.9905 259.785 48.9773 259.611 48.9773C259.236 48.9773 258.899 49.0587 258.599 49.2216C258.304 49.3807 258.071 49.6023 257.901 49.8864C257.73 50.1705 257.645 50.4981 257.645 50.8693V56H255.588ZM265.436 56.1705C264.561 56.1705 263.805 55.9886 263.169 55.625C262.536 55.2576 262.05 54.7386 261.709 54.0682C261.368 53.3939 261.197 52.6004 261.197 51.6875C261.197 50.7898 261.368 50.0019 261.709 49.3239C262.054 48.642 262.535 48.1117 263.152 47.733C263.769 47.3504 264.495 47.1591 265.328 47.1591C265.866 47.1591 266.374 47.2462 266.851 47.4205C267.332 47.5909 267.756 47.8561 268.124 48.2159C268.495 48.5758 268.786 49.0341 268.999 49.5909C269.211 50.1439 269.317 50.803 269.317 51.5682V52.1989H262.163V50.8125H267.345C267.341 50.4186 267.256 50.0682 267.089 49.7614C266.923 49.4508 266.69 49.2064 266.391 49.0284C266.095 48.8504 265.75 48.7614 265.357 48.7614C264.936 48.7614 264.567 48.8636 264.249 49.0682C263.93 49.2689 263.682 49.5341 263.504 49.8636C263.33 50.1894 263.241 50.5473 263.237 50.9375V52.1477C263.237 52.6553 263.33 53.0909 263.516 53.4545C263.701 53.8144 263.961 54.0909 264.294 54.2841C264.627 54.4735 265.018 54.5682 265.464 54.5682C265.764 54.5682 266.035 54.5265 266.277 54.4432C266.519 54.3561 266.73 54.2292 266.908 54.0625C267.086 53.8958 267.22 53.6894 267.311 53.4432L269.232 53.6591C269.11 54.1667 268.879 54.6098 268.538 54.9886C268.201 55.3636 267.769 55.6553 267.243 55.8636C266.716 56.0682 266.114 56.1705 265.436 56.1705ZM276.611 56H274.361L278.457 44.3636H281.06L285.162 56H282.912L279.804 46.75H279.713L276.611 56ZM276.685 51.4375H282.821V53.1307H276.685V51.4375ZM286.695 56V44.3636H288.751V48.7159H288.837C288.943 48.5038 289.092 48.2784 289.286 48.0398C289.479 47.7973 289.74 47.5909 290.07 47.4205C290.399 47.2462 290.82 47.1591 291.331 47.1591C292.005 47.1591 292.613 47.3314 293.155 47.6761C293.7 48.017 294.132 48.5227 294.45 49.1932C294.772 49.8598 294.933 50.678 294.933 51.6477C294.933 52.6061 294.776 53.4205 294.462 54.0909C294.147 54.7614 293.719 55.2727 293.178 55.625C292.636 55.9773 292.022 56.1534 291.337 56.1534C290.837 56.1534 290.422 56.0701 290.092 55.9034C289.763 55.7367 289.498 55.536 289.297 55.3011C289.1 55.0625 288.946 54.8371 288.837 54.625H288.717V56H286.695ZM288.712 51.6364C288.712 52.2008 288.791 52.6951 288.95 53.1193C289.113 53.5436 289.346 53.875 289.649 54.1136C289.956 54.3485 290.327 54.4659 290.763 54.4659C291.217 54.4659 291.598 54.3447 291.905 54.1023C292.212 53.8561 292.443 53.5208 292.598 53.0966C292.757 52.6686 292.837 52.1818 292.837 51.6364C292.837 51.0947 292.759 50.6136 292.604 50.1932C292.448 49.7727 292.217 49.4432 291.911 49.2045C291.604 48.9659 291.221 48.8466 290.763 48.8466C290.323 48.8466 289.95 48.9621 289.643 49.1932C289.337 49.4242 289.104 49.7481 288.945 50.1648C288.789 50.5814 288.712 51.072 288.712 51.6364ZM300.489 56.1705C299.636 56.1705 298.898 55.983 298.273 55.608C297.648 55.233 297.163 54.7083 296.818 54.0341C296.477 53.3598 296.307 52.572 296.307 51.6705C296.307 50.7689 296.477 49.9792 296.818 49.3011C297.163 48.6231 297.648 48.0966 298.273 47.7216C298.898 47.3466 299.636 47.1591 300.489 47.1591C301.341 47.1591 302.08 47.3466 302.705 47.7216C303.33 48.0966 303.813 48.6231 304.153 49.3011C304.498 49.9792 304.67 50.7689 304.67 51.6705C304.67 52.572 304.498 53.3598 304.153 54.0341C303.813 54.7083 303.33 55.233 302.705 55.608C302.08 55.983 301.341 56.1705 300.489 56.1705ZM300.5 54.5227C300.962 54.5227 301.348 54.3958 301.659 54.142C301.97 53.8845 302.201 53.5398 302.352 53.108C302.508 52.6761 302.585 52.1951 302.585 51.6648C302.585 51.1307 302.508 50.6477 302.352 50.2159C302.201 49.7803 301.97 49.4337 301.659 49.1761C301.348 48.9186 300.962 48.7898 300.5 48.7898C300.027 48.7898 299.633 48.9186 299.318 49.1761C299.008 49.4337 298.775 49.7803 298.619 50.2159C298.468 50.6477 298.392 51.1307 298.392 51.6648C298.392 52.1951 298.468 52.6761 298.619 53.108C298.775 53.5398 299.008 53.8845 299.318 54.142C299.633 54.3958 300.027 54.5227 300.5 54.5227ZM311.979 52.3295V47.2727H314.036V56H312.041V54.4489H311.95C311.753 54.9375 311.429 55.3371 310.979 55.6477C310.532 55.9583 309.981 56.1136 309.325 56.1136C308.753 56.1136 308.248 55.9867 307.808 55.733C307.373 55.4754 307.032 55.1023 306.786 54.6136C306.539 54.1212 306.416 53.5265 306.416 52.8295V47.2727H308.473V52.5114C308.473 53.0644 308.625 53.5038 308.928 53.8295C309.231 54.1553 309.628 54.3182 310.121 54.3182C310.424 54.3182 310.717 54.2443 311.001 54.0966C311.286 53.9489 311.518 53.7292 311.7 53.4375C311.886 53.142 311.979 52.7727 311.979 52.3295ZM320.509 47.2727V48.8636H315.491V47.2727H320.509ZM316.73 45.1818H318.787V53.375C318.787 53.6515 318.829 53.8636 318.912 54.0114C318.999 54.1553 319.113 54.2538 319.253 54.3068C319.393 54.3598 319.548 54.3864 319.719 54.3864C319.848 54.3864 319.965 54.3769 320.071 54.358C320.181 54.339 320.264 54.322 320.321 54.3068L320.668 55.9148C320.558 55.9527 320.401 55.9943 320.196 56.0398C319.995 56.0852 319.749 56.1117 319.457 56.1193C318.942 56.1345 318.478 56.0568 318.065 55.8864C317.652 55.7121 317.325 55.4432 317.082 55.0795C316.844 54.7159 316.726 54.2614 316.73 53.7159V45.1818ZM333.624 44.3636H335.732V51.9659C335.732 52.7992 335.535 53.5322 335.141 54.1648C334.75 54.7973 334.201 55.2917 333.493 55.6477C332.785 56 331.957 56.1761 331.01 56.1761C330.059 56.1761 329.23 56 328.521 55.6477C327.813 55.2917 327.264 54.7973 326.874 54.1648C326.483 53.5322 326.288 52.7992 326.288 51.9659V44.3636H328.396V51.7898C328.396 52.2746 328.502 52.7064 328.714 53.0852C328.93 53.464 329.233 53.7614 329.624 53.9773C330.014 54.1894 330.476 54.2955 331.01 54.2955C331.544 54.2955 332.006 54.1894 332.396 53.9773C332.79 53.7614 333.093 53.464 333.305 53.0852C333.518 52.7064 333.624 52.2746 333.624 51.7898V44.3636ZM344.83 49.5795L342.955 49.7841C342.902 49.5947 342.809 49.4167 342.676 49.25C342.547 49.0833 342.373 48.9489 342.153 48.8466C341.934 48.7443 341.665 48.6932 341.347 48.6932C340.919 48.6932 340.559 48.786 340.267 48.9716C339.979 49.1572 339.837 49.3977 339.841 49.6932C339.837 49.947 339.93 50.1534 340.119 50.3125C340.313 50.4716 340.631 50.6023 341.074 50.7045L342.562 51.0227C343.388 51.2008 344.002 51.483 344.403 51.8693C344.809 52.2557 345.013 52.7614 345.017 53.3864C345.013 53.9356 344.852 54.4205 344.534 54.8409C344.22 55.2576 343.782 55.5833 343.222 55.8182C342.661 56.053 342.017 56.1705 341.29 56.1705C340.222 56.1705 339.362 55.947 338.71 55.5C338.059 55.0492 337.67 54.4223 337.545 53.6193L339.551 53.4261C339.642 53.8201 339.835 54.1174 340.131 54.3182C340.426 54.5189 340.811 54.6193 341.284 54.6193C341.773 54.6193 342.165 54.5189 342.46 54.3182C342.759 54.1174 342.909 53.8693 342.909 53.5739C342.909 53.3239 342.813 53.1174 342.619 52.9545C342.43 52.7917 342.134 52.6667 341.733 52.5795L340.244 52.267C339.407 52.0928 338.788 51.7992 338.386 51.3864C337.985 50.9697 337.786 50.4432 337.79 49.8068C337.786 49.2689 337.932 48.803 338.227 48.4091C338.527 48.0114 338.941 47.7045 339.472 47.4886C340.006 47.2689 340.621 47.1591 341.318 47.1591C342.341 47.1591 343.146 47.3769 343.733 47.8125C344.324 48.2481 344.689 48.8371 344.83 49.5795Z" fill="#1E88E5"/>
<rect x="21" y="101" width="487" height="58" rx="9" fill="#E3F2FD"/>
<rect x="21" y="101" width="487" height="58" rx="9" stroke="#1E88E5" stroke-width="2"/>
<path d="M183.648 136V124.364H185.756V134.233H190.881V136H183.648ZM196.483 136.17C195.608 136.17 194.852 135.989 194.216 135.625C193.583 135.258 193.097 134.739 192.756 134.068C192.415 133.394 192.244 132.6 192.244 131.688C192.244 130.79 192.415 130.002 192.756 129.324C193.1 128.642 193.581 128.112 194.199 127.733C194.816 127.35 195.542 127.159 196.375 127.159C196.913 127.159 197.42 127.246 197.898 127.42C198.379 127.591 198.803 127.856 199.17 128.216C199.542 128.576 199.833 129.034 200.045 129.591C200.258 130.144 200.364 130.803 200.364 131.568V132.199H193.21V130.812H198.392C198.388 130.419 198.303 130.068 198.136 129.761C197.97 129.451 197.737 129.206 197.438 129.028C197.142 128.85 196.797 128.761 196.403 128.761C195.983 128.761 195.614 128.864 195.295 129.068C194.977 129.269 194.729 129.534 194.551 129.864C194.377 130.189 194.288 130.547 194.284 130.938V132.148C194.284 132.655 194.377 133.091 194.562 133.455C194.748 133.814 195.008 134.091 195.341 134.284C195.674 134.473 196.064 134.568 196.511 134.568C196.811 134.568 197.081 134.527 197.324 134.443C197.566 134.356 197.777 134.229 197.955 134.062C198.133 133.896 198.267 133.689 198.358 133.443L200.278 133.659C200.157 134.167 199.926 134.61 199.585 134.989C199.248 135.364 198.816 135.655 198.29 135.864C197.763 136.068 197.161 136.17 196.483 136.17ZM204.615 136.176C204.062 136.176 203.564 136.078 203.121 135.881C202.681 135.68 202.333 135.384 202.075 134.994C201.821 134.604 201.695 134.123 201.695 133.551C201.695 133.059 201.786 132.652 201.967 132.33C202.149 132.008 202.397 131.75 202.712 131.557C203.026 131.364 203.38 131.218 203.774 131.119C204.172 131.017 204.583 130.943 205.007 130.898C205.518 130.845 205.933 130.797 206.251 130.756C206.57 130.71 206.801 130.642 206.945 130.551C207.092 130.456 207.166 130.311 207.166 130.114V130.08C207.166 129.652 207.039 129.32 206.786 129.085C206.532 128.85 206.166 128.733 205.689 128.733C205.185 128.733 204.786 128.843 204.49 129.062C204.198 129.282 204.001 129.542 203.899 129.841L201.979 129.568C202.13 129.038 202.38 128.595 202.729 128.239C203.077 127.879 203.503 127.61 204.007 127.432C204.511 127.25 205.068 127.159 205.678 127.159C206.098 127.159 206.517 127.208 206.933 127.307C207.35 127.405 207.731 127.568 208.075 127.795C208.42 128.019 208.696 128.324 208.905 128.71C209.117 129.097 209.223 129.58 209.223 130.159V136H207.246V134.801H207.178C207.053 135.044 206.876 135.271 206.649 135.483C206.426 135.691 206.143 135.86 205.803 135.989C205.465 136.114 205.07 136.176 204.615 136.176ZM205.149 134.665C205.562 134.665 205.92 134.583 206.223 134.42C206.526 134.254 206.759 134.034 206.922 133.761C207.089 133.489 207.172 133.191 207.172 132.869V131.841C207.107 131.894 206.998 131.943 206.842 131.989C206.691 132.034 206.52 132.074 206.331 132.108C206.142 132.142 205.954 132.172 205.768 132.199C205.583 132.225 205.422 132.248 205.286 132.267C204.979 132.309 204.704 132.377 204.462 132.472C204.219 132.566 204.028 132.699 203.888 132.869C203.748 133.036 203.678 133.252 203.678 133.517C203.678 133.896 203.816 134.182 204.092 134.375C204.369 134.568 204.721 134.665 205.149 134.665ZM211.291 136V127.273H213.286V128.727H213.376C213.536 128.223 213.808 127.835 214.195 127.562C214.585 127.286 215.03 127.148 215.53 127.148C215.643 127.148 215.77 127.153 215.911 127.165C216.054 127.172 216.174 127.186 216.268 127.205V129.097C216.181 129.066 216.043 129.04 215.854 129.017C215.668 128.991 215.488 128.977 215.314 128.977C214.939 128.977 214.602 129.059 214.303 129.222C214.007 129.381 213.774 129.602 213.604 129.886C213.433 130.17 213.348 130.498 213.348 130.869V136H211.291ZM219.692 130.886V136H217.635V127.273H219.601V128.756H219.703C219.904 128.267 220.224 127.879 220.663 127.591C221.107 127.303 221.654 127.159 222.305 127.159C222.908 127.159 223.432 127.288 223.879 127.545C224.33 127.803 224.679 128.176 224.925 128.665C225.175 129.153 225.298 129.746 225.294 130.443V136H223.237V130.761C223.237 130.178 223.086 129.722 222.783 129.392C222.483 129.062 222.069 128.898 221.538 128.898C221.179 128.898 220.858 128.977 220.578 129.136C220.302 129.292 220.084 129.517 219.925 129.812C219.769 130.108 219.692 130.466 219.692 130.886ZM231.445 124.364H234.024L237.479 132.795H237.615L241.07 124.364H243.649V136H241.626V128.006H241.518L238.303 135.966H236.791L233.575 127.989H233.467V136H231.445V124.364ZM249.661 136.17C248.808 136.17 248.07 135.983 247.445 135.608C246.82 135.233 246.335 134.708 245.99 134.034C245.649 133.36 245.479 132.572 245.479 131.67C245.479 130.769 245.649 129.979 245.99 129.301C246.335 128.623 246.82 128.097 247.445 127.722C248.07 127.347 248.808 127.159 249.661 127.159C250.513 127.159 251.251 127.347 251.876 127.722C252.501 128.097 252.984 128.623 253.325 129.301C253.67 129.979 253.842 130.769 253.842 131.67C253.842 132.572 253.67 133.36 253.325 134.034C252.984 134.708 252.501 135.233 251.876 135.608C251.251 135.983 250.513 136.17 249.661 136.17ZM249.672 134.523C250.134 134.523 250.52 134.396 250.831 134.142C251.142 133.884 251.373 133.54 251.524 133.108C251.679 132.676 251.757 132.195 251.757 131.665C251.757 131.131 251.679 130.648 251.524 130.216C251.373 129.78 251.142 129.434 250.831 129.176C250.52 128.919 250.134 128.79 249.672 128.79C249.198 128.79 248.804 128.919 248.49 129.176C248.179 129.434 247.946 129.78 247.791 130.216C247.64 130.648 247.564 131.131 247.564 131.665C247.564 132.195 247.64 132.676 247.791 133.108C247.946 133.54 248.179 133.884 248.49 134.142C248.804 134.396 249.198 134.523 249.672 134.523ZM255.588 136V127.273H257.582V128.727H257.673C257.832 128.223 258.105 127.835 258.491 127.562C258.882 127.286 259.327 127.148 259.827 127.148C259.94 127.148 260.067 127.153 260.207 127.165C260.351 127.172 260.471 127.186 260.565 127.205V129.097C260.478 129.066 260.34 129.04 260.151 129.017C259.965 128.991 259.785 128.977 259.611 128.977C259.236 128.977 258.899 129.059 258.599 129.222C258.304 129.381 258.071 129.602 257.901 129.886C257.73 130.17 257.645 130.498 257.645 130.869V136H255.588ZM265.436 136.17C264.561 136.17 263.805 135.989 263.169 135.625C262.536 135.258 262.05 134.739 261.709 134.068C261.368 133.394 261.197 132.6 261.197 131.688C261.197 130.79 261.368 130.002 261.709 129.324C262.054 128.642 262.535 128.112 263.152 127.733C263.769 127.35 264.495 127.159 265.328 127.159C265.866 127.159 266.374 127.246 266.851 127.42C267.332 127.591 267.756 127.856 268.124 128.216C268.495 128.576 268.786 129.034 268.999 129.591C269.211 130.144 269.317 130.803 269.317 131.568V132.199H262.163V130.812H267.345C267.341 130.419 267.256 130.068 267.089 129.761C266.923 129.451 266.69 129.206 266.391 129.028C266.095 128.85 265.75 128.761 265.357 128.761C264.936 128.761 264.567 128.864 264.249 129.068C263.93 129.269 263.682 129.534 263.504 129.864C263.33 130.189 263.241 130.547 263.237 130.938V132.148C263.237 132.655 263.33 133.091 263.516 133.455C263.701 133.814 263.961 134.091 264.294 134.284C264.627 134.473 265.018 134.568 265.464 134.568C265.764 134.568 266.035 134.527 266.277 134.443C266.519 134.356 266.73 134.229 266.908 134.062C267.086 133.896 267.22 133.689 267.311 133.443L269.232 133.659C269.11 134.167 268.879 134.61 268.538 134.989C268.201 135.364 267.769 135.655 267.243 135.864C266.716 136.068 266.114 136.17 265.436 136.17ZM276.611 136H274.361L278.457 124.364H281.06L285.162 136H282.912L279.804 126.75H279.713L276.611 136ZM276.685 131.438H282.821V133.131H276.685V131.438ZM286.695 136V124.364H288.751V128.716H288.837C288.943 128.504 289.092 128.278 289.286 128.04C289.479 127.797 289.74 127.591 290.07 127.42C290.399 127.246 290.82 127.159 291.331 127.159C292.005 127.159 292.613 127.331 293.155 127.676C293.7 128.017 294.132 128.523 294.45 129.193C294.772 129.86 294.933 130.678 294.933 131.648C294.933 132.606 294.776 133.42 294.462 134.091C294.147 134.761 293.719 135.273 293.178 135.625C292.636 135.977 292.022 136.153 291.337 136.153C290.837 136.153 290.422 136.07 290.092 135.903C289.763 135.737 289.498 135.536 289.297 135.301C289.1 135.062 288.946 134.837 288.837 134.625H288.717V136H286.695ZM288.712 131.636C288.712 132.201 288.791 132.695 288.95 133.119C289.113 133.544 289.346 133.875 289.649 134.114C289.956 134.348 290.327 134.466 290.763 134.466C291.217 134.466 291.598 134.345 291.905 134.102C292.212 133.856 292.443 133.521 292.598 133.097C292.757 132.669 292.837 132.182 292.837 131.636C292.837 131.095 292.759 130.614 292.604 130.193C292.448 129.773 292.217 129.443 291.911 129.205C291.604 128.966 291.221 128.847 290.763 128.847C290.323 128.847 289.95 128.962 289.643 129.193C289.337 129.424 289.104 129.748 288.945 130.165C288.789 130.581 288.712 131.072 288.712 131.636ZM300.489 136.17C299.636 136.17 298.898 135.983 298.273 135.608C297.648 135.233 297.163 134.708 296.818 134.034C296.477 133.36 296.307 132.572 296.307 131.67C296.307 130.769 296.477 129.979 296.818 129.301C297.163 128.623 297.648 128.097 298.273 127.722C298.898 127.347 299.636 127.159 300.489 127.159C301.341 127.159 302.08 127.347 302.705 127.722C303.33 128.097 303.813 128.623 304.153 129.301C304.498 129.979 304.67 130.769 304.67 131.67C304.67 132.572 304.498 133.36 304.153 134.034C303.813 134.708 303.33 135.233 302.705 135.608C302.08 135.983 301.341 136.17 300.489 136.17ZM300.5 134.523C300.962 134.523 301.348 134.396 301.659 134.142C301.97 133.884 302.201 133.54 302.352 133.108C302.508 132.676 302.585 132.195 302.585 131.665C302.585 131.131 302.508 130.648 302.352 130.216C302.201 129.78 301.97 129.434 301.659 129.176C301.348 128.919 300.962 128.79 300.5 128.79C300.027 128.79 299.633 128.919 299.318 129.176C299.008 129.434 298.775 129.78 298.619 130.216C298.468 130.648 298.392 131.131 298.392 131.665C298.392 132.195 298.468 132.676 298.619 133.108C298.775 133.54 299.008 133.884 299.318 134.142C299.633 134.396 300.027 134.523 300.5 134.523ZM311.979 132.33V127.273H314.036V136H312.041V134.449H311.95C311.753 134.937 311.429 135.337 310.979 135.648C310.532 135.958 309.981 136.114 309.325 136.114C308.753 136.114 308.248 135.987 307.808 135.733C307.373 135.475 307.032 135.102 306.786 134.614C306.539 134.121 306.416 133.527 306.416 132.83V127.273H308.473V132.511C308.473 133.064 308.625 133.504 308.928 133.83C309.231 134.155 309.628 134.318 310.121 134.318C310.424 134.318 310.717 134.244 311.001 134.097C311.286 133.949 311.518 133.729 311.7 133.438C311.886 133.142 311.979 132.773 311.979 132.33ZM320.509 127.273V128.864H315.491V127.273H320.509ZM316.73 125.182H318.787V133.375C318.787 133.652 318.829 133.864 318.912 134.011C318.999 134.155 319.113 134.254 319.253 134.307C319.393 134.36 319.548 134.386 319.719 134.386C319.848 134.386 319.965 134.377 320.071 134.358C320.181 134.339 320.264 134.322 320.321 134.307L320.668 135.915C320.558 135.953 320.401 135.994 320.196 136.04C319.995 136.085 319.749 136.112 319.457 136.119C318.942 136.134 318.478 136.057 318.065 135.886C317.652 135.712 317.325 135.443 317.082 135.08C316.844 134.716 316.726 134.261 316.73 133.716V125.182ZM333.624 124.364H335.732V131.966C335.732 132.799 335.535 133.532 335.141 134.165C334.75 134.797 334.201 135.292 333.493 135.648C332.785 136 331.957 136.176 331.01 136.176C330.059 136.176 329.23 136 328.521 135.648C327.813 135.292 327.264 134.797 326.874 134.165C326.483 133.532 326.288 132.799 326.288 131.966V124.364H328.396V131.79C328.396 132.275 328.502 132.706 328.714 133.085C328.93 133.464 329.233 133.761 329.624 133.977C330.014 134.189 330.476 134.295 331.01 134.295C331.544 134.295 332.006 134.189 332.396 133.977C332.79 133.761 333.093 133.464 333.305 133.085C333.518 132.706 333.624 132.275 333.624 131.79V124.364ZM344.83 129.58L342.955 129.784C342.902 129.595 342.809 129.417 342.676 129.25C342.547 129.083 342.373 128.949 342.153 128.847C341.934 128.744 341.665 128.693 341.347 128.693C340.919 128.693 340.559 128.786 340.267 128.972C339.979 129.157 339.837 129.398 339.841 129.693C339.837 129.947 339.93 130.153 340.119 130.312C340.313 130.472 340.631 130.602 341.074 130.705L342.562 131.023C343.388 131.201 344.002 131.483 344.403 131.869C344.809 132.256 345.013 132.761 345.017 133.386C345.013 133.936 344.852 134.42 344.534 134.841C344.22 135.258 343.782 135.583 343.222 135.818C342.661 136.053 342.017 136.17 341.29 136.17C340.222 136.17 339.362 135.947 338.71 135.5C338.059 135.049 337.67 134.422 337.545 133.619L339.551 133.426C339.642 133.82 339.835 134.117 340.131 134.318C340.426 134.519 340.811 134.619 341.284 134.619C341.773 134.619 342.165 134.519 342.46 134.318C342.759 134.117 342.909 133.869 342.909 133.574C342.909 133.324 342.813 133.117 342.619 132.955C342.43 132.792 342.134 132.667 341.733 132.58L340.244 132.267C339.407 132.093 338.788 131.799 338.386 131.386C337.985 130.97 337.786 130.443 337.79 129.807C337.786 129.269 337.932 128.803 338.227 128.409C338.527 128.011 338.941 127.705 339.472 127.489C340.006 127.269 340.621 127.159 341.318 127.159C342.341 127.159 343.146 127.377 343.733 127.812C344.324 128.248 344.689 128.837 344.83 129.58Z" fill="#1E88E5"/>
</svg>
