<svg width="197" height="24" viewBox="0 0 197 24" fill="none" xmlns="http://www.w3.org/2000/svg">
<path d="M3.32594e-05 0.843733H3.86935L9.05117 13.4915H9.25572L14.4375 0.843733H18.3069V18.2983H15.2728V6.3068H15.1108L10.287 18.2471H8.01992L3.19606 6.28123H3.03412V18.2983H3.32594e-05V0.843733ZM27.4091 18.554C26.0966 18.554 24.9631 18.2812 24.0086 17.7358C23.0597 17.1846 22.3296 16.4062 21.8182 15.4006C21.3069 14.3892 21.0512 13.1988 21.0512 11.8295C21.0512 10.4829 21.3069 9.30112 21.8182 8.28407C22.3353 7.26135 23.0569 6.46589 23.983 5.89771C24.9091 5.32385 25.9972 5.03692 27.2472 5.03692C28.054 5.03692 28.8154 5.1676 29.5313 5.42896C30.2529 5.68464 30.8892 6.08237 31.4404 6.62214C31.9972 7.16191 32.4347 7.84941 32.7529 8.68464C33.0711 9.51419 33.2301 10.5028 33.2301 11.6506V12.5966H22.5V10.517H30.2728C30.2671 9.92612 30.1392 9.40055 29.8892 8.94032C29.6392 8.47442 29.2898 8.10794 28.8409 7.84089C28.3978 7.57385 27.8807 7.44032 27.2898 7.44032C26.6591 7.44032 26.1051 7.59373 25.6279 7.90055C25.1506 8.20169 24.7784 8.59941 24.5114 9.09373C24.25 9.58237 24.1165 10.1193 24.1108 10.7045V12.5199C24.1108 13.2812 24.25 13.9346 24.5284 14.4801C24.8069 15.0199 25.1961 15.4346 25.6961 15.7244C26.1961 16.0085 26.7813 16.1506 27.4517 16.1506C27.9006 16.1506 28.3069 16.0881 28.6705 15.9631C29.0341 15.8324 29.3495 15.642 29.6165 15.392C29.8836 15.142 30.0853 14.8324 30.2216 14.4631L33.1023 14.7869C32.9205 15.5483 32.5739 16.2131 32.0625 16.7812C31.5569 17.3437 30.9091 17.7812 30.1194 18.0937C29.3296 18.4006 28.4262 18.554 27.4091 18.554ZM38.9255 10.6278V18.2983H35.8402V5.20737H38.7891V7.4318H38.9425C39.2436 6.69885 39.7238 6.11646 40.3828 5.68464C41.0476 5.25282 41.8686 5.03692 42.8459 5.03692C43.7493 5.03692 44.5363 5.2301 45.2067 5.61646C45.8828 6.00282 46.4056 6.56248 46.7749 7.29544C47.1499 8.02839 47.3346 8.9176 47.3289 9.96305V18.2983H44.2436V10.4403C44.2436 9.56532 44.0164 8.88066 43.5618 8.38635C43.113 7.89203 42.4908 7.64487 41.6953 7.64487C41.1556 7.64487 40.6755 7.76419 40.255 8.00282C39.8402 8.23578 39.5135 8.57385 39.2749 9.01703C39.0419 9.46021 38.9255 9.99714 38.9255 10.6278ZM58.809 12.7926V5.20737H61.8942V18.2983H58.9027V15.9716H58.7664C58.4709 16.7045 57.9851 17.304 57.309 17.7699C56.6385 18.2358 55.8118 18.4687 54.8289 18.4687C53.9709 18.4687 53.2124 18.2784 52.5533 17.8977C51.8999 17.5113 51.3885 16.9517 51.0192 16.2187C50.6499 15.4801 50.4652 14.5881 50.4652 13.5426V5.20737H53.5505V13.0653C53.5505 13.8949 53.7777 14.554 54.2323 15.0426C54.6868 15.5312 55.2834 15.7756 56.0221 15.7756C56.4766 15.7756 56.9169 15.6648 57.3431 15.4432C57.7692 15.2216 58.1186 14.892 58.3914 14.4545C58.6698 14.0113 58.809 13.4574 58.809 12.7926ZM86.0966 6.73294H82.9091C82.8182 6.21021 82.6506 5.74714 82.4063 5.34373C82.162 4.93464 81.858 4.58805 81.4944 4.30396C81.1307 4.01987 80.7159 3.8068 80.25 3.66476C79.7898 3.51703 79.2926 3.44317 78.7586 3.44317C77.8097 3.44317 76.9688 3.6818 76.2358 4.15907C75.5029 4.63066 74.929 5.32385 74.5142 6.23862C74.0995 7.14771 73.8921 8.25851 73.8921 9.57101C73.8921 10.9062 74.0995 12.0312 74.5142 12.946C74.9347 13.8551 75.5086 14.5426 76.2358 15.0085C76.9688 15.4687 77.8069 15.6988 78.75 15.6988C79.2728 15.6988 79.7614 15.6307 80.2159 15.4943C80.6762 15.3523 81.0881 15.1449 81.4517 14.8721C81.8211 14.5994 82.1307 14.2642 82.3807 13.8665C82.6364 13.4687 82.8125 13.0142 82.9091 12.5028L86.0966 12.5199C85.9773 13.3494 85.7188 14.1278 85.3211 14.8551C84.929 15.5824 84.4148 16.2244 83.7784 16.7812C83.1421 17.3324 82.3978 17.7642 81.5455 18.0767C80.6932 18.3835 79.7472 18.5369 78.7074 18.5369C77.1733 18.5369 75.804 18.1818 74.5995 17.4716C73.3949 16.7613 72.4461 15.7358 71.7529 14.3949C71.0597 13.054 70.7131 11.446 70.7131 9.57101C70.7131 7.69032 71.0625 6.08237 71.7614 4.74714C72.4603 3.40623 73.412 2.38066 74.6165 1.67044C75.8211 0.96021 77.1847 0.605096 78.7074 0.605096C79.679 0.605096 80.5824 0.74146 81.4176 1.01419C82.2529 1.28691 82.9972 1.68748 83.6506 2.21589C84.304 2.73862 84.8409 3.38066 85.2614 4.14203C85.6875 4.89771 85.9659 5.76135 86.0966 6.73294ZM92.6229 18.5625C91.7934 18.5625 91.0462 18.4148 90.3814 18.1193C89.7223 17.8182 89.1996 17.375 88.8132 16.7898C88.4326 16.2045 88.2422 15.4829 88.2422 14.625C88.2422 13.8863 88.3786 13.2756 88.6513 12.7926C88.924 12.3096 89.2962 11.9233 89.7678 11.6335C90.2394 11.3437 90.7706 11.125 91.3615 10.9773C91.9581 10.8238 92.5746 10.7131 93.211 10.6449C93.978 10.5653 94.6002 10.4943 95.0774 10.4318C95.5547 10.3636 95.9013 10.2613 96.1172 10.125C96.3388 9.98294 96.4496 9.76419 96.4496 9.46873V9.4176C96.4496 8.77555 96.2593 8.27839 95.8786 7.92612C95.4979 7.57385 94.9496 7.39771 94.2337 7.39771C93.478 7.39771 92.8786 7.56248 92.4354 7.89203C91.9979 8.22157 91.7024 8.61078 91.549 9.05964L88.6684 8.65055C88.8956 7.8551 89.2706 7.19032 89.7934 6.65623C90.3161 6.11646 90.9553 5.71305 91.711 5.44601C92.4667 5.17328 93.3019 5.03692 94.2167 5.03692C94.8473 5.03692 95.4752 5.11078 96.1002 5.25851C96.7252 5.40623 97.2962 5.65055 97.8132 5.99146C98.3303 6.32669 98.7451 6.78407 99.0576 7.36362C99.3757 7.94316 99.5348 8.6676 99.5348 9.53691V18.2983H96.5689V16.5H96.4667C96.2792 16.8636 96.0149 17.2045 95.674 17.5227C95.3388 17.8352 94.9155 18.0881 94.4042 18.2812C93.8985 18.4687 93.3047 18.5625 92.6229 18.5625ZM93.424 16.2954C94.0434 16.2954 94.5803 16.1733 95.0348 15.929C95.4894 15.679 95.8388 15.3494 96.0831 14.9403C96.3331 14.5312 96.4581 14.0852 96.4581 13.6023V12.0596C96.3615 12.1392 96.1968 12.2131 95.9638 12.2812C95.7365 12.3494 95.4809 12.4091 95.1968 12.4602C94.9127 12.5113 94.6314 12.5568 94.353 12.5966C94.0746 12.6363 93.8331 12.6704 93.6286 12.6988C93.1684 12.7613 92.7564 12.8636 92.3928 13.0057C92.0292 13.1477 91.7422 13.3466 91.532 13.6023C91.3218 13.8523 91.2167 14.1761 91.2167 14.5738C91.2167 15.142 91.424 15.571 91.8388 15.8608C92.2536 16.1506 92.782 16.2954 93.424 16.2954ZM109.174 5.20737V7.59373H101.648V5.20737H109.174ZM103.506 2.07101H106.592V14.3608C106.592 14.7756 106.654 15.0937 106.779 15.3153C106.91 15.5312 107.08 15.679 107.291 15.7585C107.501 15.8381 107.734 15.8778 107.989 15.8778C108.183 15.8778 108.359 15.8636 108.518 15.8352C108.683 15.8068 108.808 15.7812 108.893 15.7585L109.413 18.1704C109.248 18.2273 109.012 18.2898 108.705 18.3579C108.404 18.4261 108.035 18.4659 107.597 18.4773C106.825 18.5 106.129 18.3835 105.509 18.1278C104.89 17.8665 104.398 17.4631 104.035 16.9176C103.677 16.3721 103.501 15.6903 103.506 14.8721V2.07101ZM117.409 18.554C116.097 18.554 114.963 18.2812 114.009 17.7358C113.06 17.1846 112.33 16.4062 111.818 15.4006C111.307 14.3892 111.051 13.1988 111.051 11.8295C111.051 10.4829 111.307 9.30112 111.818 8.28407C112.335 7.26135 113.057 6.46589 113.983 5.89771C114.909 5.32385 115.997 5.03692 117.247 5.03692C118.054 5.03692 118.815 5.1676 119.531 5.42896C120.253 5.68464 120.889 6.08237 121.44 6.62214C121.997 7.16191 122.435 7.84941 122.753 8.68464C123.071 9.51419 123.23 10.5028 123.23 11.6506V12.5966H112.5V10.517H120.273C120.267 9.92612 120.139 9.40055 119.889 8.94032C119.639 8.47442 119.29 8.10794 118.841 7.84089C118.398 7.57385 117.881 7.44032 117.29 7.44032C116.659 7.44032 116.105 7.59373 115.628 7.90055C115.151 8.20169 114.778 8.59941 114.511 9.09373C114.25 9.58237 114.117 10.1193 114.111 10.7045V12.5199C114.111 13.2812 114.25 13.9346 114.528 14.4801C114.807 15.0199 115.196 15.4346 115.696 15.7244C116.196 16.0085 116.781 16.1506 117.452 16.1506C117.901 16.1506 118.307 16.0881 118.67 15.9631C119.034 15.8324 119.349 15.642 119.617 15.392C119.884 15.142 120.085 14.8324 120.222 14.4631L123.102 14.7869C122.92 15.5483 122.574 16.2131 122.063 16.7812C121.557 17.3437 120.909 17.7812 120.119 18.0937C119.33 18.4006 118.426 18.554 117.409 18.554ZM131.533 23.4801C130.425 23.4801 129.474 23.3295 128.678 23.0284C127.883 22.7329 127.244 22.3352 126.761 21.8352C126.278 21.3352 125.943 20.7812 125.755 20.1733L128.533 19.5C128.658 19.7557 128.84 20.0085 129.079 20.2585C129.318 20.5142 129.639 20.7244 130.042 20.8892C130.451 21.0596 130.965 21.1449 131.585 21.1449C132.46 21.1449 133.184 20.9318 133.758 20.5057C134.332 20.0852 134.619 19.392 134.619 18.4261V15.946H134.465C134.306 16.2642 134.073 16.5909 133.766 16.9261C133.465 17.2613 133.065 17.5426 132.565 17.7699C132.07 17.9971 131.448 18.1108 130.698 18.1108C129.693 18.1108 128.781 17.875 127.962 17.4034C127.15 16.9261 126.502 16.2159 126.019 15.2727C125.542 14.3238 125.303 13.1363 125.303 11.7102C125.303 10.2727 125.542 9.05964 126.019 8.07101C126.502 7.07669 127.153 6.32385 127.971 5.81248C128.789 5.29544 129.701 5.03692 130.707 5.03692C131.474 5.03692 132.104 5.1676 132.599 5.42896C133.099 5.68464 133.496 5.9943 133.792 6.35794C134.087 6.71589 134.312 7.05396 134.465 7.37214H134.636V5.20737H137.678V18.5113C137.678 19.6307 137.411 20.5568 136.877 21.2898C136.343 22.0227 135.613 22.571 134.687 22.9346C133.761 23.2983 132.71 23.4801 131.533 23.4801ZM131.559 15.6903C132.212 15.6903 132.769 15.5312 133.229 15.2131C133.69 14.8949 134.039 14.4375 134.278 13.8409C134.516 13.2443 134.636 12.5284 134.636 11.6932C134.636 10.8693 134.516 10.1477 134.278 9.52839C134.045 8.90907 133.698 8.42896 133.238 8.08805C132.783 7.74146 132.224 7.56816 131.559 7.56816C130.871 7.56816 130.298 7.74714 129.837 8.1051C129.377 8.46305 129.031 8.95453 128.798 9.57953C128.565 10.1988 128.448 10.9034 128.448 11.6932C128.448 12.4943 128.565 13.196 128.798 13.7983C129.036 14.3949 129.386 14.8608 129.846 15.196C130.312 15.5256 130.883 15.6903 131.559 15.6903ZM146.55 18.554C145.272 18.554 144.164 18.2727 143.227 17.7102C142.289 17.1477 141.562 16.3608 141.045 15.3494C140.533 14.3381 140.278 13.1562 140.278 11.804C140.278 10.4517 140.533 9.26703 141.045 8.24998C141.562 7.23294 142.289 6.44316 143.227 5.88067C144.164 5.31817 145.272 5.03692 146.55 5.03692C147.829 5.03692 148.937 5.31817 149.874 5.88067C150.812 6.44316 151.536 7.23294 152.048 8.24998C152.565 9.26703 152.823 10.4517 152.823 11.804C152.823 13.1562 152.565 14.3381 152.048 15.3494C151.536 16.3608 150.812 17.1477 149.874 17.7102C148.937 18.2727 147.829 18.554 146.55 18.554ZM146.568 16.0824C147.261 16.0824 147.84 15.892 148.306 15.5113C148.772 15.125 149.119 14.6079 149.346 13.9602C149.579 13.3125 149.695 12.5909 149.695 11.7954C149.695 10.9943 149.579 10.2699 149.346 9.62214C149.119 8.96873 148.772 8.44885 148.306 8.06248C147.84 7.67612 147.261 7.48294 146.568 7.48294C145.857 7.48294 145.266 7.67612 144.795 8.06248C144.329 8.44885 143.979 8.96873 143.746 9.62214C143.519 10.2699 143.406 10.9943 143.406 11.7954C143.406 12.5909 143.519 13.3125 143.746 13.9602C143.979 14.6079 144.329 15.125 144.795 15.5113C145.266 15.892 145.857 16.0824 146.568 16.0824ZM155.442 18.2983V5.20737H158.433V7.38919H158.57C158.808 6.63351 159.217 6.05112 159.797 5.64203C160.382 5.22726 161.05 5.01987 161.8 5.01987C161.97 5.01987 162.161 5.02839 162.371 5.04544C162.587 5.0568 162.766 5.07669 162.908 5.1051V7.94316C162.777 7.89771 162.57 7.85794 162.286 7.82385C162.007 7.78407 161.737 7.76419 161.476 7.76419C160.913 7.76419 160.408 7.88635 159.959 8.13066C159.516 8.3693 159.166 8.70169 158.911 9.12782C158.655 9.55396 158.527 10.0454 158.527 10.6023V18.2983H155.442ZM164.957 18.2983V5.20737H168.043V18.2983H164.957ZM166.509 3.34942C166.02 3.34942 165.599 3.18748 165.247 2.86362C164.895 2.53407 164.719 2.13919 164.719 1.67896C164.719 1.21305 164.895 0.818164 165.247 0.4943C165.599 0.164755 166.02 -1.71661e-05 166.509 -1.71661e-05C167.003 -1.71661e-05 167.423 0.164755 167.77 0.4943C168.122 0.818164 168.298 1.21305 168.298 1.67896C168.298 2.13919 168.122 2.53407 167.77 2.86362C167.423 3.18748 167.003 3.34942 166.509 3.34942ZM177.011 18.554C175.698 18.554 174.565 18.2812 173.61 17.7358C172.661 17.1846 171.931 16.4062 171.42 15.4006C170.908 14.3892 170.653 13.1988 170.653 11.8295C170.653 10.4829 170.908 9.30112 171.42 8.28407C171.937 7.26135 172.658 6.46589 173.585 5.89771C174.511 5.32385 175.599 5.03692 176.849 5.03692C177.656 5.03692 178.417 5.1676 179.133 5.42896C179.854 5.68464 180.491 6.08237 181.042 6.62214C181.599 7.16191 182.036 7.84941 182.354 8.68464C182.673 9.51419 182.832 10.5028 182.832 11.6506V12.5966H172.102V10.517H179.874C179.869 9.92612 179.741 9.40055 179.491 8.94032C179.241 8.47442 178.891 8.10794 178.443 7.84089C177.999 7.57385 177.482 7.44032 176.891 7.44032C176.261 7.44032 175.707 7.59373 175.229 7.90055C174.752 8.20169 174.38 8.59941 174.113 9.09373C173.852 9.58237 173.718 10.1193 173.712 10.7045V12.5199C173.712 13.2812 173.852 13.9346 174.13 14.4801C174.408 15.0199 174.798 15.4346 175.298 15.7244C175.798 16.0085 176.383 16.1506 177.053 16.1506C177.502 16.1506 177.908 16.0881 178.272 15.9631C178.636 15.8324 178.951 15.642 179.218 15.392C179.485 15.142 179.687 14.8324 179.823 14.4631L182.704 14.7869C182.522 15.5483 182.175 16.2131 181.664 16.7812C181.158 17.3437 180.511 17.7812 179.721 18.0937C178.931 18.4006 178.028 18.554 177.011 18.554ZM195.788 8.6676L192.976 8.97441C192.896 8.69032 192.757 8.42328 192.558 8.17328C192.365 7.92328 192.104 7.72157 191.774 7.56816C191.445 7.41476 191.041 7.33805 190.564 7.33805C189.922 7.33805 189.382 7.47726 188.945 7.75566C188.513 8.03407 188.3 8.39487 188.305 8.83805C188.3 9.21873 188.439 9.52839 188.723 9.76703C189.013 10.0057 189.49 10.2017 190.155 10.3551L192.388 10.8324C193.626 11.0994 194.547 11.5227 195.149 12.1023C195.757 12.6818 196.064 13.4403 196.07 14.3778C196.064 15.2017 195.822 15.929 195.345 16.5596C194.874 17.1846 194.217 17.6733 193.376 18.0256C192.536 18.3778 191.57 18.554 190.479 18.554C188.876 18.554 187.587 18.2187 186.609 17.5483C185.632 16.8721 185.05 15.9318 184.862 14.7273L187.871 14.4375C188.007 15.0284 188.297 15.4744 188.74 15.7756C189.183 16.0767 189.76 16.2273 190.47 16.2273C191.203 16.2273 191.791 16.0767 192.234 15.7756C192.683 15.4744 192.908 15.1023 192.908 14.6591C192.908 14.2841 192.763 13.9744 192.473 13.7301C192.189 13.4858 191.746 13.2983 191.143 13.1676L188.911 12.6988C187.655 12.4375 186.726 11.9971 186.124 11.3778C185.521 10.7528 185.223 9.96305 185.229 9.00851C185.223 8.20169 185.442 7.50282 185.885 6.91191C186.334 6.31532 186.956 5.8551 187.751 5.53123C188.553 5.20169 189.476 5.03692 190.521 5.03692C192.055 5.03692 193.263 5.36362 194.143 6.01703C195.03 6.67044 195.578 7.55396 195.788 8.6676Z" fill="black"/>
</svg>
