<svg width="369" height="440" viewBox="0 0 369 440" fill="none" xmlns="http://www.w3.org/2000/svg">
<rect width="369" height="440" rx="14" fill="white"/>
<rect y="26" width="369" height="54" rx="14" fill="white"/>
<path d="M27.7216 44.5455H31.5909L36.7727 57.1932H36.9773L42.1591 44.5455H46.0284V62H42.9943V50.0085H42.8324L38.0085 61.9489H35.7415L30.9176 49.983H30.7557V62H27.7216V44.5455ZM55.1307 62.2557C53.8182 62.2557 52.6847 61.983 51.7301 61.4375C50.7813 60.8864 50.0511 60.108 49.5398 59.1023C49.0284 58.0909 48.7727 56.9006 48.7727 55.5312C48.7727 54.1847 49.0284 53.0028 49.5398 51.9858C50.0568 50.9631 50.7784 50.1676 51.7045 49.5994C52.6307 49.0256 53.7188 48.7386 54.9688 48.7386C55.7756 48.7386 56.5369 48.8693 57.2528 49.1307C57.9744 49.3864 58.6108 49.7841 59.1619 50.3239C59.7188 50.8636 60.1563 51.5511 60.4744 52.3864C60.7926 53.2159 60.9517 54.2045 60.9517 55.3523V56.2983H50.2216V54.2188H57.9943C57.9886 53.6278 57.8608 53.1023 57.6108 52.642C57.3608 52.1761 57.0114 51.8097 56.5625 51.5426C56.1193 51.2756 55.6023 51.142 55.0114 51.142C54.3807 51.142 53.8267 51.2955 53.3494 51.6023C52.8722 51.9034 52.5 52.3011 52.233 52.7955C51.9716 53.2841 51.8381 53.821 51.8324 54.4062V56.2216C51.8324 56.983 51.9716 57.6364 52.25 58.1818C52.5284 58.7216 52.9176 59.1364 53.4176 59.4261C53.9176 59.7102 54.5028 59.8523 55.1733 59.8523C55.6222 59.8523 56.0284 59.7898 56.392 59.6648C56.7557 59.5341 57.071 59.3438 57.3381 59.0938C57.6051 58.8438 57.8068 58.5341 57.9432 58.1648L60.8239 58.4886C60.642 59.25 60.2955 59.9148 59.7841 60.483C59.2784 61.0455 58.6307 61.483 57.8409 61.7955C57.0511 62.1023 56.1477 62.2557 55.1307 62.2557ZM66.647 54.3295V62H63.5618V48.9091H66.5107V51.1335H66.6641C66.9652 50.4006 67.4453 49.8182 68.1044 49.3864C68.7692 48.9545 69.5902 48.7386 70.5675 48.7386C71.4709 48.7386 72.2578 48.9318 72.9283 49.3182C73.6044 49.7045 74.1271 50.2642 74.4964 50.9972C74.8714 51.7301 75.0561 52.6193 75.0504 53.6648V62H71.9652V54.142C71.9652 53.267 71.7379 52.5824 71.2834 52.0881C70.8345 51.5937 70.2124 51.3466 69.4169 51.3466C68.8771 51.3466 68.397 51.4659 67.9766 51.7045C67.5618 51.9375 67.2351 52.2756 66.9964 52.7188C66.7635 53.1619 66.647 53.6989 66.647 54.3295ZM86.5305 56.4943V48.9091H89.6158V62H86.6243V59.6733H86.4879C86.1925 60.4062 85.7067 61.0057 85.0305 61.4716C84.3601 61.9375 83.5334 62.1705 82.5504 62.1705C81.6925 62.1705 80.9339 61.9801 80.2749 61.5994C79.6214 61.2131 79.1101 60.6534 78.7408 59.9205C78.3714 59.1818 78.1868 58.2898 78.1868 57.2443V48.9091H81.272V56.767C81.272 57.5966 81.4993 58.2557 81.9538 58.7443C82.4084 59.233 83.005 59.4773 83.7436 59.4773C84.1982 59.4773 84.6385 59.3665 85.0646 59.1449C85.4908 58.9233 85.8402 58.5938 86.1129 58.1562C86.3913 57.7131 86.5305 57.1591 86.5305 56.4943ZM113.818 50.4347H110.631C110.54 49.9119 110.372 49.4489 110.128 49.0455C109.884 48.6364 109.58 48.2898 109.216 48.0057C108.852 47.7216 108.438 47.5085 107.972 47.3665C107.511 47.2188 107.014 47.1449 106.48 47.1449C105.531 47.1449 104.69 47.3835 103.957 47.8608C103.224 48.3324 102.651 49.0256 102.236 49.9403C101.821 50.8494 101.614 51.9602 101.614 53.2727C101.614 54.608 101.821 55.733 102.236 56.6477C102.656 57.5568 103.23 58.2443 103.957 58.7102C104.69 59.1705 105.528 59.4006 106.472 59.4006C106.994 59.4006 107.483 59.3324 107.938 59.196C108.398 59.054 108.81 58.8466 109.173 58.5739C109.543 58.3011 109.852 57.9659 110.102 57.5682C110.358 57.1705 110.534 56.7159 110.631 56.2045L113.818 56.2216C113.699 57.0511 113.44 57.8295 113.043 58.5568C112.651 59.2841 112.136 59.9261 111.5 60.483C110.864 61.0341 110.119 61.4659 109.267 61.7784C108.415 62.0852 107.469 62.2386 106.429 62.2386C104.895 62.2386 103.526 61.8835 102.321 61.1733C101.116 60.4631 100.168 59.4375 99.4744 58.0966C98.7813 56.7557 98.4347 55.1477 98.4347 53.2727C98.4347 51.392 98.7841 49.7841 99.483 48.4489C100.182 47.108 101.134 46.0824 102.338 45.3722C103.543 44.6619 104.906 44.3068 106.429 44.3068C107.401 44.3068 108.304 44.4432 109.139 44.7159C109.974 44.9886 110.719 45.3892 111.372 45.9176C112.026 46.4403 112.563 47.0824 112.983 47.8438C113.409 48.5994 113.688 49.4631 113.818 50.4347ZM120.344 62.2642C119.515 62.2642 118.768 62.1165 118.103 61.821C117.444 61.5199 116.921 61.0767 116.535 60.4915C116.154 59.9062 115.964 59.1847 115.964 58.3267C115.964 57.5881 116.1 56.9773 116.373 56.4943C116.646 56.0114 117.018 55.625 117.489 55.3352C117.961 55.0455 118.492 54.8267 119.083 54.679C119.68 54.5256 120.296 54.4148 120.933 54.3466C121.7 54.267 122.322 54.196 122.799 54.1335C123.276 54.0653 123.623 53.9631 123.839 53.8267C124.06 53.6847 124.171 53.4659 124.171 53.1705V53.1193C124.171 52.4773 123.981 51.9801 123.6 51.6278C123.219 51.2756 122.671 51.0994 121.955 51.0994C121.2 51.0994 120.6 51.2642 120.157 51.5938C119.719 51.9233 119.424 52.3125 119.271 52.7614L116.39 52.3523C116.617 51.5568 116.992 50.892 117.515 50.358C118.038 49.8182 118.677 49.4148 119.433 49.1477C120.188 48.875 121.023 48.7386 121.938 48.7386C122.569 48.7386 123.197 48.8125 123.822 48.9602C124.447 49.108 125.018 49.3523 125.535 49.6932C126.052 50.0284 126.467 50.4858 126.779 51.0653C127.097 51.6449 127.256 52.3693 127.256 53.2386V62H124.29V60.2017H124.188C124.001 60.5653 123.737 60.9062 123.396 61.2244C123.06 61.5369 122.637 61.7898 122.126 61.983C121.62 62.1705 121.026 62.2642 120.344 62.2642ZM121.146 59.9972C121.765 59.9972 122.302 59.875 122.756 59.6307C123.211 59.3807 123.56 59.0511 123.805 58.642C124.055 58.233 124.18 57.7869 124.18 57.304V55.7614C124.083 55.8409 123.918 55.9148 123.685 55.983C123.458 56.0511 123.202 56.1108 122.918 56.1619C122.634 56.2131 122.353 56.2585 122.075 56.2983C121.796 56.3381 121.555 56.3722 121.35 56.4006C120.89 56.4631 120.478 56.5653 120.114 56.7074C119.751 56.8494 119.464 57.0483 119.254 57.304C119.043 57.554 118.938 57.8778 118.938 58.2756C118.938 58.8438 119.146 59.2727 119.56 59.5625C119.975 59.8523 120.504 59.9972 121.146 59.9972ZM136.896 48.9091V51.2955H129.37V48.9091H136.896ZM131.228 45.7727H134.313V58.0625C134.313 58.4773 134.376 58.7955 134.501 59.017C134.631 59.233 134.802 59.3807 135.012 59.4602C135.222 59.5398 135.455 59.5795 135.711 59.5795C135.904 59.5795 136.08 59.5653 136.239 59.5369C136.404 59.5085 136.529 59.483 136.614 59.4602L137.134 61.8722C136.969 61.929 136.734 61.9915 136.427 62.0597C136.126 62.1278 135.756 62.1676 135.319 62.179C134.546 62.2017 133.85 62.0852 133.231 61.8295C132.612 61.5682 132.12 61.1648 131.756 60.6193C131.398 60.0739 131.222 59.392 131.228 58.5739V45.7727ZM145.131 62.2557C143.818 62.2557 142.685 61.983 141.73 61.4375C140.781 60.8864 140.051 60.108 139.54 59.1023C139.028 58.0909 138.773 56.9006 138.773 55.5312C138.773 54.1847 139.028 53.0028 139.54 51.9858C140.057 50.9631 140.778 50.1676 141.705 49.5994C142.631 49.0256 143.719 48.7386 144.969 48.7386C145.776 48.7386 146.537 48.8693 147.253 49.1307C147.974 49.3864 148.611 49.7841 149.162 50.3239C149.719 50.8636 150.156 51.5511 150.474 52.3864C150.793 53.2159 150.952 54.2045 150.952 55.3523V56.2983H140.222V54.2188H147.994C147.989 53.6278 147.861 53.1023 147.611 52.642C147.361 52.1761 147.011 51.8097 146.562 51.5426C146.119 51.2756 145.602 51.142 145.011 51.142C144.381 51.142 143.827 51.2955 143.349 51.6023C142.872 51.9034 142.5 52.3011 142.233 52.7955C141.972 53.2841 141.838 53.821 141.832 54.4062V56.2216C141.832 56.983 141.972 57.6364 142.25 58.1818C142.528 58.7216 142.918 59.1364 143.418 59.4261C143.918 59.7102 144.503 59.8523 145.173 59.8523C145.622 59.8523 146.028 59.7898 146.392 59.6648C146.756 59.5341 147.071 59.3438 147.338 59.0938C147.605 58.8438 147.807 58.5341 147.943 58.1648L150.824 58.4886C150.642 59.25 150.295 59.9148 149.784 60.483C149.278 61.0455 148.631 61.483 147.841 61.7955C147.051 62.1023 146.148 62.2557 145.131 62.2557ZM159.255 67.1818C158.147 67.1818 157.195 67.0313 156.4 66.7301C155.604 66.4347 154.965 66.0369 154.482 65.5369C153.999 65.0369 153.664 64.483 153.477 63.875L156.255 63.2017C156.38 63.4574 156.562 63.7102 156.8 63.9602C157.039 64.2159 157.36 64.4261 157.763 64.5909C158.173 64.7614 158.687 64.8466 159.306 64.8466C160.181 64.8466 160.906 64.6335 161.479 64.2074C162.053 63.7869 162.34 63.0938 162.34 62.1278V59.6477H162.187C162.028 59.9659 161.795 60.2926 161.488 60.6278C161.187 60.9631 160.786 61.2443 160.286 61.4716C159.792 61.6989 159.17 61.8125 158.42 61.8125C157.414 61.8125 156.502 61.5767 155.684 61.1051C154.871 60.6278 154.224 59.9176 153.741 58.9744C153.263 58.0256 153.025 56.8381 153.025 55.4119C153.025 53.9744 153.263 52.7614 153.741 51.7727C154.224 50.7784 154.874 50.0256 155.692 49.5142C156.511 48.9972 157.423 48.7386 158.428 48.7386C159.195 48.7386 159.826 48.8693 160.32 49.1307C160.82 49.3864 161.218 49.696 161.513 50.0597C161.809 50.4176 162.033 50.7557 162.187 51.0739H162.357V48.9091H165.4V62.2131C165.4 63.3324 165.133 64.2585 164.599 64.9915C164.065 65.7244 163.335 66.2727 162.408 66.6364C161.482 67 160.431 67.1818 159.255 67.1818ZM159.281 59.392C159.934 59.392 160.491 59.233 160.951 58.9148C161.411 58.5966 161.761 58.1392 161.999 57.5426C162.238 56.946 162.357 56.2301 162.357 55.3949C162.357 54.571 162.238 53.8494 161.999 53.2301C161.766 52.6108 161.42 52.1307 160.96 51.7898C160.505 51.4432 159.945 51.2699 159.281 51.2699C158.593 51.2699 158.019 51.4489 157.559 51.8068C157.099 52.1648 156.752 52.6562 156.519 53.2812C156.286 53.9006 156.17 54.6051 156.17 55.3949C156.17 56.196 156.286 56.8977 156.519 57.5C156.758 58.0966 157.107 58.5625 157.567 58.8977C158.033 59.2273 158.604 59.392 159.281 59.392ZM174.272 62.2557C172.994 62.2557 171.886 61.9744 170.948 61.4119C170.011 60.8494 169.283 60.0625 168.766 59.0511C168.255 58.0398 167.999 56.858 167.999 55.5057C167.999 54.1534 168.255 52.9687 168.766 51.9517C169.283 50.9347 170.011 50.1449 170.948 49.5824C171.886 49.0199 172.994 48.7386 174.272 48.7386C175.55 48.7386 176.658 49.0199 177.596 49.5824C178.533 50.1449 179.258 50.9347 179.769 51.9517C180.286 52.9687 180.545 54.1534 180.545 55.5057C180.545 56.858 180.286 58.0398 179.769 59.0511C179.258 60.0625 178.533 60.8494 177.596 61.4119C176.658 61.9744 175.55 62.2557 174.272 62.2557ZM174.289 59.7841C174.982 59.7841 175.562 59.5937 176.028 59.2131C176.494 58.8267 176.84 58.3097 177.067 57.6619C177.3 57.0142 177.417 56.2926 177.417 55.4972C177.417 54.696 177.3 53.9716 177.067 53.3239C176.84 52.6705 176.494 52.1506 176.028 51.7642C175.562 51.3778 174.982 51.1847 174.289 51.1847C173.579 51.1847 172.988 51.3778 172.516 51.7642C172.05 52.1506 171.701 52.6705 171.468 53.3239C171.241 53.9716 171.127 54.696 171.127 55.4972C171.127 56.2926 171.241 57.0142 171.468 57.6619C171.701 58.3097 172.05 58.8267 172.516 59.2131C172.988 59.5937 173.579 59.7841 174.289 59.7841ZM183.163 62V48.9091H186.155V51.0909H186.291C186.53 50.3352 186.939 49.7528 187.518 49.3438C188.104 48.929 188.771 48.7216 189.521 48.7216C189.692 48.7216 189.882 48.7301 190.092 48.7472C190.308 48.7585 190.487 48.7784 190.629 48.8068V51.6449C190.499 51.5994 190.291 51.5597 190.007 51.5256C189.729 51.4858 189.459 51.4659 189.197 51.4659C188.635 51.4659 188.129 51.5881 187.68 51.8324C187.237 52.071 186.888 52.4034 186.632 52.8295C186.376 53.2557 186.249 53.7472 186.249 54.304V62H183.163ZM192.679 62V48.9091H195.764V62H192.679ZM194.23 47.0511C193.741 47.0511 193.321 46.8892 192.969 46.5653C192.616 46.2358 192.44 45.8409 192.44 45.3807C192.44 44.9148 192.616 44.5199 192.969 44.196C193.321 43.8665 193.741 43.7017 194.23 43.7017C194.724 43.7017 195.145 43.8665 195.491 44.196C195.844 44.5199 196.02 44.9148 196.02 45.3807C196.02 45.8409 195.844 46.2358 195.491 46.5653C195.145 46.8892 194.724 47.0511 194.23 47.0511ZM204.732 62.2557C203.42 62.2557 202.286 61.983 201.332 61.4375C200.383 60.8864 199.653 60.108 199.141 59.1023C198.63 58.0909 198.374 56.9006 198.374 55.5312C198.374 54.1847 198.63 53.0028 199.141 51.9858C199.658 50.9631 200.38 50.1676 201.306 49.5994C202.232 49.0256 203.32 48.7386 204.57 48.7386C205.377 48.7386 206.138 48.8693 206.854 49.1307C207.576 49.3864 208.212 49.7841 208.763 50.3239C209.32 50.8636 209.758 51.5511 210.076 52.3864C210.394 53.2159 210.553 54.2045 210.553 55.3523V56.2983H199.823V54.2188H207.596C207.59 53.6278 207.462 53.1023 207.212 52.642C206.962 52.1761 206.613 51.8097 206.164 51.5426C205.721 51.2756 205.204 51.142 204.613 51.142C203.982 51.142 203.428 51.2955 202.951 51.6023C202.474 51.9034 202.102 52.3011 201.835 52.7955C201.573 53.2841 201.44 53.821 201.434 54.4062V56.2216C201.434 56.983 201.573 57.6364 201.852 58.1818C202.13 58.7216 202.519 59.1364 203.019 59.4261C203.519 59.7102 204.104 59.8523 204.775 59.8523C205.224 59.8523 205.63 59.7898 205.994 59.6648C206.357 59.5341 206.673 59.3438 206.94 59.0938C207.207 58.8438 207.408 58.5341 207.545 58.1648L210.425 58.4886C210.244 59.25 209.897 59.9148 209.386 60.483C208.88 61.0455 208.232 61.483 207.442 61.7955C206.653 62.1023 205.749 62.2557 204.732 62.2557ZM223.51 52.3693L220.697 52.6761C220.618 52.392 220.479 52.125 220.28 51.875C220.087 51.625 219.825 51.4233 219.496 51.2699C219.166 51.1165 218.763 51.0398 218.286 51.0398C217.643 51.0398 217.104 51.179 216.666 51.4574C216.234 51.7358 216.021 52.0966 216.027 52.5398C216.021 52.9205 216.161 53.2301 216.445 53.4688C216.734 53.7074 217.212 53.9034 217.876 54.0568L220.109 54.5341C221.348 54.8011 222.268 55.2244 222.871 55.804C223.479 56.3835 223.786 57.142 223.791 58.0795C223.786 58.9034 223.544 59.6307 223.067 60.2614C222.595 60.8864 221.939 61.375 221.098 61.7273C220.257 62.0795 219.291 62.2557 218.2 62.2557C216.598 62.2557 215.308 61.9205 214.331 61.25C213.354 60.5739 212.771 59.6335 212.584 58.429L215.592 58.1392C215.729 58.7301 216.018 59.1761 216.462 59.4773C216.905 59.7784 217.482 59.929 218.192 59.929C218.925 59.929 219.513 59.7784 219.956 59.4773C220.405 59.1761 220.629 58.804 220.629 58.3608C220.629 57.9858 220.484 57.6761 220.195 57.4318C219.911 57.1875 219.467 57 218.865 56.8693L216.632 56.4006C215.376 56.1392 214.447 55.6989 213.845 55.0795C213.243 54.4545 212.945 53.6648 212.95 52.7102C212.945 51.9034 213.163 51.2045 213.607 50.6136C214.055 50.017 214.678 49.5568 215.473 49.233C216.274 48.9034 217.197 48.7386 218.243 48.7386C219.777 48.7386 220.984 49.0653 221.865 49.7188C222.751 50.3722 223.3 51.2557 223.51 52.3693Z" fill="black"/>
<rect width="369" height="56" transform="translate(0 98)" fill="#FFE1C4"/>
<rect y="98" width="4" height="56" fill="#FF7A18"/>
<path d="M24.9176 135V117.545H31.1392C32.4972 117.545 33.6222 117.793 34.5142 118.287C35.4063 118.781 36.0739 119.457 36.517 120.315C36.9602 121.168 37.1818 122.128 37.1818 123.196C37.1818 124.27 36.9574 125.236 36.5085 126.094C36.0653 126.946 35.3949 127.622 34.4972 128.122C33.6051 128.616 32.483 128.864 31.1307 128.864H26.8523V126.631H30.892C31.75 126.631 32.446 126.483 32.9801 126.188C33.5142 125.886 33.9062 125.477 34.1562 124.96C34.4062 124.443 34.5312 123.855 34.5312 123.196C34.5312 122.537 34.4062 121.952 34.1562 121.44C33.9062 120.929 33.5114 120.528 32.9716 120.239C32.4375 119.949 31.733 119.804 30.858 119.804H27.5511V135H24.9176ZM45.4148 135.264C44.1875 135.264 43.1165 134.983 42.2017 134.42C41.2869 133.858 40.5767 133.071 40.071 132.06C39.5653 131.048 39.3125 129.866 39.3125 128.514C39.3125 127.156 39.5653 125.969 40.071 124.952C40.5767 123.935 41.2869 123.145 42.2017 122.582C43.1165 122.02 44.1875 121.739 45.4148 121.739C46.642 121.739 47.7131 122.02 48.6278 122.582C49.5426 123.145 50.2528 123.935 50.7585 124.952C51.2642 125.969 51.517 127.156 51.517 128.514C51.517 129.866 51.2642 131.048 50.7585 132.06C50.2528 133.071 49.5426 133.858 48.6278 134.42C47.7131 134.983 46.642 135.264 45.4148 135.264ZM45.4233 133.125C46.2188 133.125 46.8778 132.915 47.4006 132.494C47.9233 132.074 48.3097 131.514 48.5597 130.815C48.8153 130.116 48.9432 129.347 48.9432 128.506C48.9432 127.67 48.8153 126.903 48.5597 126.205C48.3097 125.5 47.9233 124.935 47.4006 124.509C46.8778 124.082 46.2188 123.869 45.4233 123.869C44.6222 123.869 43.9574 124.082 43.429 124.509C42.9063 124.935 42.517 125.5 42.2614 126.205C42.0114 126.903 41.8864 127.67 41.8864 128.506C41.8864 129.347 42.0114 130.116 42.2614 130.815C42.517 131.514 42.9063 132.074 43.429 132.494C43.9574 132.915 44.6222 133.125 45.4233 133.125ZM54.3615 139.909V121.909H56.8501V124.031H57.0632C57.2109 123.759 57.424 123.443 57.7024 123.085C57.9808 122.727 58.3672 122.415 58.8615 122.148C59.3558 121.875 60.0092 121.739 60.8217 121.739C61.8786 121.739 62.8217 122.006 63.6513 122.54C64.4808 123.074 65.1314 123.844 65.603 124.849C66.0803 125.855 66.3189 127.065 66.3189 128.48C66.3189 129.895 66.0831 131.108 65.6115 132.119C65.1399 133.125 64.4922 133.901 63.6683 134.446C62.8445 134.986 61.9041 135.256 60.8473 135.256C60.0518 135.256 59.4013 135.122 58.8956 134.855C58.3956 134.588 58.0036 134.276 57.7195 133.918C57.4354 133.56 57.2166 133.241 57.0632 132.963H56.9098V139.909H54.3615ZM56.8587 128.455C56.8587 129.375 56.9922 130.182 57.2592 130.875C57.5263 131.568 57.9126 132.111 58.4183 132.503C58.924 132.889 59.5433 133.082 60.2763 133.082C61.0376 133.082 61.674 132.881 62.1854 132.477C62.6967 132.068 63.0831 131.514 63.3445 130.815C63.6115 130.116 63.745 129.33 63.745 128.455C63.745 127.591 63.6143 126.815 63.353 126.128C63.0973 125.44 62.7109 124.898 62.1939 124.5C61.6825 124.102 61.0433 123.903 60.2763 123.903C59.5376 123.903 58.9126 124.094 58.4013 124.474C57.8956 124.855 57.5121 125.386 57.2507 126.068C56.9893 126.75 56.8587 127.545 56.8587 128.455ZM77.4666 129.571V121.909H80.0234V135H77.5178V132.733H77.3814C77.0803 133.432 76.5973 134.014 75.9325 134.48C75.2734 134.94 74.4524 135.17 73.4695 135.17C72.6286 135.17 71.8842 134.986 71.2365 134.616C70.5945 134.241 70.0888 133.688 69.7195 132.955C69.3558 132.222 69.174 131.315 69.174 130.236V121.909H71.7223V129.929C71.7223 130.821 71.9695 131.531 72.4638 132.06C72.9581 132.588 73.6001 132.852 74.3899 132.852C74.8672 132.852 75.3416 132.733 75.8132 132.494C76.2905 132.256 76.6854 131.895 76.9979 131.412C77.3161 130.929 77.4723 130.315 77.4666 129.571ZM85.9957 117.545V135H83.4474V117.545H85.9957ZM93.2337 135.29C92.4041 135.29 91.6541 135.136 90.9837 134.83C90.3132 134.517 89.782 134.065 89.3899 133.474C89.0036 132.884 88.8104 132.159 88.8104 131.301C88.8104 130.562 88.9524 129.955 89.2365 129.477C89.5206 129 89.9041 128.622 90.3871 128.344C90.87 128.065 91.4098 127.855 92.0064 127.713C92.603 127.571 93.2109 127.463 93.8303 127.389C94.6143 127.298 95.2507 127.224 95.7393 127.168C96.228 127.105 96.5831 127.006 96.8047 126.869C97.0263 126.733 97.1371 126.511 97.1371 126.205V126.145C97.1371 125.401 96.9268 124.824 96.5064 124.415C96.0916 124.006 95.4723 123.801 94.6484 123.801C93.7905 123.801 93.1143 123.991 92.62 124.372C92.1314 124.747 91.7933 125.165 91.6058 125.625L89.2109 125.08C89.495 124.284 89.9098 123.642 90.4553 123.153C91.0064 122.659 91.6399 122.301 92.3558 122.08C93.0717 121.852 93.8246 121.739 94.6143 121.739C95.1371 121.739 95.6911 121.801 96.2763 121.926C96.8672 122.045 97.4183 122.267 97.9297 122.591C98.4467 122.915 98.87 123.378 99.1996 123.98C99.5291 124.577 99.6939 125.352 99.6939 126.307V135H97.2053V133.21H97.103C96.9382 133.54 96.6911 133.864 96.3615 134.182C96.032 134.5 95.6087 134.764 95.0916 134.974C94.5746 135.185 93.9553 135.29 93.2337 135.29ZM93.7876 133.244C94.4922 133.244 95.0945 133.105 95.5945 132.827C96.1001 132.548 96.4837 132.185 96.745 131.736C97.0121 131.281 97.1456 130.795 97.1456 130.278V128.591C97.0547 128.682 96.8786 128.767 96.6172 128.847C96.3615 128.92 96.0689 128.986 95.7393 129.043C95.4098 129.094 95.0888 129.142 94.7763 129.188C94.4638 129.227 94.2024 129.261 93.9922 129.29C93.4979 129.352 93.0462 129.457 92.6371 129.605C92.2337 129.753 91.9098 129.966 91.6655 130.244C91.4268 130.517 91.3075 130.881 91.3075 131.335C91.3075 131.966 91.5405 132.443 92.0064 132.767C92.4723 133.085 93.0661 133.244 93.7876 133.244ZM103.088 135V121.909H105.551V123.989H105.688C105.926 123.284 106.347 122.73 106.949 122.327C107.557 121.918 108.244 121.713 109.011 121.713C109.17 121.713 109.358 121.719 109.574 121.73C109.795 121.741 109.969 121.756 110.094 121.773V124.21C109.991 124.182 109.81 124.151 109.548 124.116C109.287 124.077 109.026 124.057 108.764 124.057C108.162 124.057 107.625 124.185 107.153 124.44C106.688 124.69 106.318 125.04 106.045 125.489C105.773 125.932 105.636 126.437 105.636 127.006V135H103.088Z" fill="black"/>
<path d="M32.7017 180.545H35.3267V192.92C35.3267 194.04 35.1051 194.997 34.6619 195.793C34.2244 196.588 33.608 197.196 32.8125 197.616C32.017 198.031 31.0852 198.239 30.017 198.239C29.0341 198.239 28.1506 198.06 27.3665 197.702C26.5881 197.344 25.9716 196.824 25.517 196.142C25.0682 195.455 24.8438 194.619 24.8438 193.636H27.4602C27.4602 194.119 27.571 194.537 27.7926 194.889C28.0199 195.241 28.3295 195.517 28.7216 195.716C29.1193 195.909 29.5739 196.006 30.0852 196.006C30.642 196.006 31.1136 195.889 31.5 195.656C31.892 195.418 32.1903 195.068 32.3949 194.608C32.5994 194.148 32.7017 193.585 32.7017 192.92V180.545ZM44.4695 198.264C43.2422 198.264 42.1712 197.983 41.2564 197.42C40.3416 196.858 39.6314 196.071 39.1257 195.06C38.62 194.048 38.3672 192.866 38.3672 191.514C38.3672 190.156 38.62 188.969 39.1257 187.952C39.6314 186.935 40.3416 186.145 41.2564 185.582C42.1712 185.02 43.2422 184.739 44.4695 184.739C45.6967 184.739 46.7678 185.02 47.6825 185.582C48.5973 186.145 49.3075 186.935 49.8132 187.952C50.3189 188.969 50.5717 190.156 50.5717 191.514C50.5717 192.866 50.3189 194.048 49.8132 195.06C49.3075 196.071 48.5973 196.858 47.6825 197.42C46.7678 197.983 45.6967 198.264 44.4695 198.264ZM44.478 196.125C45.2734 196.125 45.9325 195.915 46.4553 195.494C46.978 195.074 47.3643 194.514 47.6143 193.815C47.87 193.116 47.9979 192.347 47.9979 191.506C47.9979 190.67 47.87 189.903 47.6143 189.205C47.3643 188.5 46.978 187.935 46.4553 187.509C45.9325 187.082 45.2734 186.869 44.478 186.869C43.6768 186.869 43.0121 187.082 42.4837 187.509C41.9609 187.935 41.5717 188.5 41.3161 189.205C41.0661 189.903 40.9411 190.67 40.9411 191.506C40.9411 192.347 41.0661 193.116 41.3161 193.815C41.5717 194.514 41.9609 195.074 42.4837 195.494C43.0121 195.915 43.6768 196.125 44.478 196.125ZM55.9645 180.545V198H53.4162V180.545H55.9645ZM61.9411 180.545V198H59.3928V180.545H61.9411ZM70.8835 198.264C69.6563 198.264 68.5852 197.983 67.6705 197.42C66.7557 196.858 66.0455 196.071 65.5398 195.06C65.0341 194.048 64.7812 192.866 64.7812 191.514C64.7812 190.156 65.0341 188.969 65.5398 187.952C66.0455 186.935 66.7557 186.145 67.6705 185.582C68.5852 185.02 69.6563 184.739 70.8835 184.739C72.1108 184.739 73.1818 185.02 74.0966 185.582C75.0114 186.145 75.7216 186.935 76.2273 187.952C76.733 188.969 76.9858 190.156 76.9858 191.514C76.9858 192.866 76.733 194.048 76.2273 195.06C75.7216 196.071 75.0114 196.858 74.0966 197.42C73.1818 197.983 72.1108 198.264 70.8835 198.264ZM70.892 196.125C71.6875 196.125 72.3466 195.915 72.8693 195.494C73.392 195.074 73.7784 194.514 74.0284 193.815C74.2841 193.116 74.4119 192.347 74.4119 191.506C74.4119 190.67 74.2841 189.903 74.0284 189.205C73.7784 188.5 73.392 187.935 72.8693 187.509C72.3466 187.082 71.6875 186.869 70.892 186.869C70.0909 186.869 69.4261 187.082 68.8977 187.509C68.375 187.935 67.9858 188.5 67.7301 189.205C67.4801 189.903 67.3551 190.67 67.3551 191.506C67.3551 192.347 67.4801 193.116 67.7301 193.815C67.9858 194.514 68.375 195.074 68.8977 195.494C69.4261 195.915 70.0909 196.125 70.892 196.125ZM86.0604 184.909V186.955H78.6626V184.909H86.0604ZM80.6911 198V183.392C80.6911 182.574 80.87 181.895 81.228 181.355C81.5859 180.81 82.0604 180.403 82.6513 180.136C83.2422 179.864 83.8842 179.727 84.5774 179.727C85.0888 179.727 85.5263 179.77 85.8899 179.855C86.2536 179.935 86.5234 180.009 86.6996 180.077L86.103 182.139C85.9837 182.105 85.8303 182.065 85.6428 182.02C85.4553 181.969 85.228 181.943 84.9609 181.943C84.3416 181.943 83.8984 182.097 83.6314 182.403C83.37 182.71 83.2393 183.153 83.2393 183.733V198H80.6911ZM95.2457 198V180.545H101.467C102.82 180.545 103.942 180.778 104.834 181.244C105.732 181.71 106.402 182.355 106.845 183.179C107.288 183.997 107.51 184.943 107.51 186.017C107.51 187.085 107.286 188.026 106.837 188.838C106.393 189.645 105.723 190.273 104.825 190.722C103.933 191.17 102.811 191.395 101.459 191.395H96.7457V189.128H101.22C102.072 189.128 102.766 189.006 103.3 188.761C103.839 188.517 104.234 188.162 104.484 187.696C104.734 187.23 104.859 186.67 104.859 186.017C104.859 185.358 104.732 184.787 104.476 184.304C104.226 183.821 103.831 183.452 103.291 183.196C102.757 182.935 102.055 182.804 101.186 182.804H97.8793V198H95.2457ZM103.862 190.125L108.175 198H105.175L100.947 190.125H103.862ZM110.51 198V184.909H113.058V198H110.51ZM111.797 182.889C111.354 182.889 110.973 182.741 110.655 182.446C110.342 182.145 110.186 181.787 110.186 181.372C110.186 180.952 110.342 180.594 110.655 180.298C110.973 179.997 111.354 179.847 111.797 179.847C112.24 179.847 112.618 179.997 112.93 180.298C113.249 180.594 113.408 180.952 113.408 181.372C113.408 181.787 113.249 182.145 112.93 182.446C112.618 182.741 112.24 182.889 111.797 182.889ZM122.001 198.264C120.734 198.264 119.643 197.977 118.728 197.403C117.819 196.824 117.12 196.026 116.631 195.009C116.143 193.991 115.898 192.827 115.898 191.514C115.898 190.185 116.148 189.011 116.648 187.994C117.148 186.972 117.853 186.173 118.762 185.599C119.671 185.026 120.742 184.739 121.975 184.739C122.969 184.739 123.856 184.923 124.634 185.293C125.413 185.656 126.04 186.168 126.518 186.827C127.001 187.486 127.288 188.256 127.379 189.136H124.898C124.762 188.523 124.45 187.994 123.961 187.551C123.478 187.108 122.83 186.886 122.018 186.886C121.308 186.886 120.685 187.074 120.151 187.449C119.623 187.818 119.211 188.347 118.915 189.034C118.62 189.716 118.472 190.523 118.472 191.455C118.472 192.409 118.617 193.233 118.907 193.926C119.197 194.619 119.606 195.156 120.134 195.537C120.668 195.918 121.296 196.108 122.018 196.108C122.501 196.108 122.938 196.02 123.33 195.844C123.728 195.662 124.06 195.403 124.327 195.068C124.6 194.733 124.79 194.33 124.898 193.858H127.379C127.288 194.705 127.012 195.46 126.552 196.125C126.092 196.79 125.475 197.312 124.702 197.693C123.935 198.074 123.035 198.264 122.001 198.264ZM135.746 198.264C134.456 198.264 133.345 197.989 132.413 197.438C131.487 196.881 130.771 196.099 130.266 195.094C129.766 194.082 129.516 192.898 129.516 191.54C129.516 190.199 129.766 189.017 130.266 187.994C130.771 186.972 131.476 186.173 132.379 185.599C133.288 185.026 134.351 184.739 135.567 184.739C136.305 184.739 137.021 184.861 137.714 185.105C138.408 185.349 139.03 185.733 139.581 186.256C140.132 186.778 140.567 187.457 140.885 188.293C141.203 189.122 141.362 190.131 141.362 191.318V192.222H130.956V190.312H138.865C138.865 189.642 138.729 189.048 138.456 188.531C138.183 188.009 137.8 187.597 137.305 187.295C136.817 186.994 136.243 186.844 135.584 186.844C134.868 186.844 134.243 187.02 133.709 187.372C133.18 187.719 132.771 188.173 132.482 188.736C132.197 189.293 132.055 189.898 132.055 190.551V192.043C132.055 192.918 132.209 193.662 132.516 194.276C132.828 194.889 133.263 195.358 133.82 195.682C134.376 196 135.027 196.159 135.771 196.159C136.254 196.159 136.695 196.091 137.092 195.955C137.49 195.812 137.834 195.602 138.124 195.324C138.413 195.045 138.635 194.702 138.788 194.293L141.2 194.727C141.007 195.437 140.661 196.06 140.161 196.594C139.666 197.122 139.044 197.534 138.294 197.83C137.55 198.119 136.7 198.264 135.746 198.264ZM155.621 198.247C154.45 198.247 153.442 198.034 152.595 197.608C151.754 197.182 151.107 196.602 150.652 195.869C150.197 195.131 149.97 194.295 149.97 193.364C149.97 192.653 150.118 192.023 150.413 191.472C150.709 190.915 151.121 190.401 151.649 189.929C152.178 189.457 152.788 188.983 153.482 188.506L156.294 186.52C156.771 186.207 157.143 185.878 157.411 185.531C157.678 185.179 157.811 184.744 157.811 184.227C157.811 183.818 157.635 183.426 157.283 183.051C156.93 182.676 156.459 182.489 155.868 182.489C155.459 182.489 155.098 182.588 154.786 182.787C154.479 182.986 154.237 183.241 154.061 183.554C153.891 183.861 153.805 184.185 153.805 184.526C153.805 184.923 153.913 185.324 154.129 185.727C154.351 186.131 154.635 186.548 154.982 186.98C155.328 187.406 155.692 187.849 156.072 188.31L164.178 198H161.297L154.589 190.116C154.027 189.452 153.504 188.827 153.021 188.241C152.538 187.651 152.146 187.054 151.845 186.452C151.55 185.844 151.402 185.188 151.402 184.483C151.402 183.682 151.584 182.972 151.947 182.352C152.317 181.727 152.831 181.239 153.49 180.886C154.149 180.534 154.922 180.358 155.808 180.358C156.706 180.358 157.476 180.534 158.118 180.886C158.766 181.233 159.263 181.696 159.609 182.276C159.962 182.849 160.138 183.477 160.138 184.159C160.138 184.989 159.93 185.722 159.516 186.358C159.107 186.989 158.541 187.568 157.82 188.097L154.317 190.679C153.635 191.179 153.161 191.673 152.893 192.162C152.632 192.645 152.501 193.023 152.501 193.295C152.501 193.795 152.629 194.259 152.885 194.685C153.146 195.111 153.51 195.452 153.976 195.707C154.447 195.963 154.999 196.091 155.629 196.091C156.277 196.091 156.908 195.952 157.521 195.673C158.141 195.389 158.7 194.983 159.2 194.455C159.706 193.926 160.107 193.293 160.402 192.554C160.697 191.815 160.845 190.989 160.845 190.074H163.146C163.146 191.199 163.018 192.151 162.763 192.929C162.507 193.702 162.197 194.332 161.834 194.821C161.476 195.304 161.138 195.682 160.82 195.955C160.717 196.045 160.621 196.136 160.53 196.227C160.439 196.318 160.342 196.409 160.24 196.5C159.649 197.097 158.933 197.537 158.092 197.821C157.257 198.105 156.433 198.247 155.621 198.247ZM172.73 198V180.545H183.673V182.812H175.364V188.131H183.102V190.389H175.364V195.733H183.776V198H172.73ZM189.535 190.227V198H186.987V184.909H189.433V187.04H189.594C189.896 186.347 190.367 185.79 191.009 185.369C191.657 184.949 192.472 184.739 193.455 184.739C194.347 184.739 195.129 184.926 195.799 185.301C196.469 185.67 196.989 186.222 197.359 186.955C197.728 187.687 197.913 188.594 197.913 189.673V198H195.364V189.98C195.364 189.031 195.117 188.29 194.623 187.756C194.129 187.216 193.45 186.946 192.586 186.946C191.995 186.946 191.469 187.074 191.009 187.33C190.555 187.585 190.194 187.96 189.927 188.455C189.665 188.943 189.535 189.534 189.535 190.227ZM207.441 184.909V186.955H200.29V184.909H207.441ZM202.208 181.773H204.756V194.156C204.756 194.651 204.83 195.023 204.978 195.273C205.126 195.517 205.316 195.685 205.549 195.776C205.788 195.861 206.046 195.903 206.325 195.903C206.529 195.903 206.708 195.889 206.862 195.861C207.015 195.832 207.134 195.81 207.219 195.793L207.68 197.898C207.532 197.955 207.322 198.011 207.049 198.068C206.776 198.131 206.435 198.165 206.026 198.17C205.356 198.182 204.731 198.062 204.151 197.812C203.572 197.562 203.103 197.176 202.745 196.653C202.387 196.131 202.208 195.474 202.208 194.685V181.773ZM210.26 198V184.909H212.723V186.989H212.859C213.098 186.284 213.518 185.73 214.121 185.327C214.729 184.918 215.416 184.713 216.183 184.713C216.342 184.713 216.53 184.719 216.746 184.73C216.967 184.741 217.141 184.756 217.266 184.773V187.21C217.163 187.182 216.982 187.151 216.72 187.116C216.459 187.077 216.197 187.057 215.936 187.057C215.334 187.057 214.797 187.185 214.325 187.44C213.859 187.69 213.49 188.04 213.217 188.489C212.945 188.932 212.808 189.437 212.808 190.006V198H210.26ZM224.644 198.264C223.354 198.264 222.244 197.989 221.312 197.438C220.386 196.881 219.67 196.099 219.164 195.094C218.664 194.082 218.414 192.898 218.414 191.54C218.414 190.199 218.664 189.017 219.164 187.994C219.67 186.972 220.374 186.173 221.278 185.599C222.187 185.026 223.249 184.739 224.465 184.739C225.204 184.739 225.92 184.861 226.613 185.105C227.306 185.349 227.928 185.733 228.479 186.256C229.031 186.778 229.465 187.457 229.783 188.293C230.102 189.122 230.261 190.131 230.261 191.318V192.222H219.854V190.312H227.763C227.763 189.642 227.627 189.048 227.354 188.531C227.082 188.009 226.698 187.597 226.204 187.295C225.715 186.994 225.141 186.844 224.482 186.844C223.766 186.844 223.141 187.02 222.607 187.372C222.079 187.719 221.67 188.173 221.38 188.736C221.096 189.293 220.954 189.898 220.954 190.551V192.043C220.954 192.918 221.107 193.662 221.414 194.276C221.727 194.889 222.161 195.358 222.718 195.682C223.275 196 223.925 196.159 224.67 196.159C225.153 196.159 225.593 196.091 225.991 195.955C226.388 195.812 226.732 195.602 227.022 195.324C227.312 195.045 227.533 194.702 227.687 194.293L230.099 194.727C229.906 195.437 229.559 196.06 229.059 196.594C228.565 197.122 227.942 197.534 227.192 197.83C226.448 198.119 225.599 198.264 224.644 198.264ZM238.73 198.264C237.44 198.264 236.33 197.989 235.398 197.438C234.472 196.881 233.756 196.099 233.25 195.094C232.75 194.082 232.5 192.898 232.5 191.54C232.5 190.199 232.75 189.017 233.25 187.994C233.756 186.972 234.46 186.173 235.364 185.599C236.273 185.026 237.335 184.739 238.551 184.739C239.29 184.739 240.006 184.861 240.699 185.105C241.392 185.349 242.014 185.733 242.565 186.256C243.116 186.778 243.551 187.457 243.869 188.293C244.188 189.122 244.347 190.131 244.347 191.318V192.222H233.94V190.312H241.849C241.849 189.642 241.713 189.048 241.44 188.531C241.168 188.009 240.784 187.597 240.29 187.295C239.801 186.994 239.227 186.844 238.568 186.844C237.852 186.844 237.227 187.02 236.693 187.372C236.165 187.719 235.756 188.173 235.466 188.736C235.182 189.293 235.04 189.898 235.04 190.551V192.043C235.04 192.918 235.193 193.662 235.5 194.276C235.812 194.889 236.247 195.358 236.804 195.682C237.361 196 238.011 196.159 238.756 196.159C239.239 196.159 239.679 196.091 240.077 195.955C240.474 195.812 240.818 195.602 241.108 195.324C241.398 195.045 241.619 194.702 241.773 194.293L244.185 194.727C243.991 195.437 243.645 196.06 243.145 196.594C242.651 197.122 242.028 197.534 241.278 197.83C240.534 198.119 239.685 198.264 238.73 198.264ZM256.984 188.105L254.674 188.514C254.577 188.219 254.424 187.937 254.214 187.67C254.009 187.403 253.731 187.185 253.379 187.014C253.026 186.844 252.586 186.759 252.058 186.759C251.336 186.759 250.734 186.92 250.251 187.244C249.768 187.562 249.526 187.974 249.526 188.48C249.526 188.918 249.688 189.27 250.012 189.537C250.336 189.804 250.859 190.023 251.58 190.193L253.66 190.67C254.864 190.949 255.762 191.378 256.353 191.957C256.944 192.537 257.239 193.29 257.239 194.216C257.239 195 257.012 195.699 256.558 196.312C256.109 196.92 255.481 197.398 254.674 197.744C253.873 198.091 252.944 198.264 251.887 198.264C250.421 198.264 249.225 197.952 248.299 197.327C247.373 196.696 246.805 195.801 246.594 194.642L249.058 194.267C249.211 194.909 249.526 195.395 250.004 195.724C250.481 196.048 251.103 196.21 251.87 196.21C252.705 196.21 253.373 196.037 253.873 195.69C254.373 195.338 254.623 194.909 254.623 194.403C254.623 193.994 254.469 193.651 254.163 193.372C253.862 193.094 253.398 192.884 252.773 192.741L250.558 192.256C249.336 191.977 248.433 191.534 247.847 190.926C247.268 190.318 246.978 189.548 246.978 188.616C246.978 187.844 247.194 187.168 247.626 186.588C248.058 186.009 248.654 185.557 249.415 185.233C250.177 184.903 251.049 184.739 252.032 184.739C253.447 184.739 254.56 185.045 255.373 185.659C256.185 186.267 256.722 187.082 256.984 188.105Z" fill="black"/>
<path d="M35.4375 237.131C35.3466 236.324 34.9716 235.699 34.3125 235.256C33.6534 234.807 32.8239 234.582 31.8239 234.582C31.108 234.582 30.4886 234.696 29.9659 234.923C29.4432 235.145 29.0369 235.452 28.7472 235.844C28.4631 236.23 28.321 236.67 28.321 237.165C28.321 237.58 28.4176 237.937 28.6108 238.239C28.8097 238.54 29.0682 238.793 29.3864 238.997C29.7102 239.196 30.0568 239.364 30.4261 239.5C30.7955 239.631 31.1506 239.739 31.4915 239.824L33.196 240.267C33.7528 240.403 34.3239 240.588 34.9091 240.821C35.4943 241.054 36.0369 241.361 36.5369 241.741C37.0369 242.122 37.4403 242.594 37.7472 243.156C38.0597 243.719 38.2159 244.392 38.2159 245.176C38.2159 246.165 37.9602 247.043 37.4489 247.81C36.9432 248.577 36.2074 249.182 35.2415 249.625C34.2813 250.068 33.1193 250.29 31.7557 250.29C30.4489 250.29 29.3182 250.082 28.3636 249.668C27.4091 249.253 26.6619 248.665 26.1222 247.903C25.5824 247.136 25.2841 246.227 25.2273 245.176H27.8693C27.9205 245.807 28.125 246.332 28.483 246.753C28.8466 247.168 29.3097 247.477 29.8722 247.682C30.4403 247.881 31.0625 247.98 31.7386 247.98C32.483 247.98 33.1449 247.864 33.7244 247.631C34.3097 247.392 34.7699 247.062 35.1051 246.642C35.4403 246.216 35.608 245.719 35.608 245.151C35.608 244.634 35.4602 244.21 35.1648 243.881C34.875 243.551 34.4801 243.278 33.9801 243.062C33.4858 242.847 32.9261 242.656 32.3011 242.491L30.2386 241.929C28.8409 241.548 27.733 240.989 26.9148 240.25C26.1023 239.511 25.696 238.534 25.696 237.318C25.696 236.312 25.9688 235.435 26.5142 234.685C27.0597 233.935 27.7983 233.352 28.7301 232.938C29.6619 232.517 30.7131 232.307 31.8835 232.307C33.0653 232.307 34.108 232.514 35.0114 232.929C35.9205 233.344 36.6364 233.915 37.1591 234.642C37.6818 235.364 37.9545 236.193 37.9773 237.131H35.4375ZM43.9964 250L40.1442 236.909H42.7777L45.343 246.523H45.4709L48.0447 236.909H50.6783L53.2351 246.48H53.3629L55.9112 236.909H58.5447L54.701 250H52.1016L49.4425 240.548H49.2464L46.5874 250H43.9964ZM64.7727 250.29C63.9432 250.29 63.1932 250.136 62.5227 249.83C61.8523 249.517 61.321 249.065 60.929 248.474C60.5426 247.884 60.3494 247.159 60.3494 246.301C60.3494 245.562 60.4915 244.955 60.7756 244.477C61.0597 244 61.4432 243.622 61.9261 243.344C62.4091 243.065 62.9489 242.855 63.5455 242.713C64.142 242.571 64.75 242.463 65.3693 242.389C66.1534 242.298 66.7898 242.224 67.2784 242.168C67.767 242.105 68.1222 242.006 68.3438 241.869C68.5653 241.733 68.6761 241.511 68.6761 241.205V241.145C68.6761 240.401 68.4659 239.824 68.0455 239.415C67.6307 239.006 67.0114 238.801 66.1875 238.801C65.3295 238.801 64.6534 238.991 64.1591 239.372C63.6705 239.747 63.3324 240.165 63.1449 240.625L60.75 240.08C61.0341 239.284 61.4489 238.642 61.9943 238.153C62.5455 237.659 63.179 237.301 63.8949 237.08C64.6108 236.852 65.3636 236.739 66.1534 236.739C66.6761 236.739 67.2301 236.801 67.8153 236.926C68.4063 237.045 68.9574 237.267 69.4688 237.591C69.9858 237.915 70.4091 238.378 70.7386 238.98C71.0682 239.577 71.233 240.352 71.233 241.307V250H68.7443V248.21H68.642C68.4773 248.54 68.2301 248.864 67.9006 249.182C67.571 249.5 67.1477 249.764 66.6307 249.974C66.1136 250.185 65.4943 250.29 64.7727 250.29ZM65.3267 248.244C66.0313 248.244 66.6335 248.105 67.1335 247.827C67.6392 247.548 68.0227 247.185 68.2841 246.736C68.5511 246.281 68.6847 245.795 68.6847 245.278V243.591C68.5938 243.682 68.4176 243.767 68.1562 243.847C67.9006 243.92 67.608 243.986 67.2784 244.043C66.9489 244.094 66.6278 244.142 66.3153 244.188C66.0028 244.227 65.7415 244.261 65.5312 244.29C65.0369 244.352 64.5852 244.457 64.1761 244.605C63.7727 244.753 63.4489 244.966 63.2045 245.244C62.9659 245.517 62.8466 245.881 62.8466 246.335C62.8466 246.966 63.0795 247.443 63.5455 247.767C64.0114 248.085 64.6051 248.244 65.3267 248.244ZM77.1754 232.545V250H74.6271V232.545H77.1754ZM83.152 232.545V250H80.6037V232.545H83.152ZM92.0945 250.264C90.8672 250.264 89.7962 249.983 88.8814 249.42C87.9666 248.858 87.2564 248.071 86.7507 247.06C86.245 246.048 85.9922 244.866 85.9922 243.514C85.9922 242.156 86.245 240.969 86.7507 239.952C87.2564 238.935 87.9666 238.145 88.8814 237.582C89.7962 237.02 90.8672 236.739 92.0945 236.739C93.3217 236.739 94.3928 237.02 95.3075 237.582C96.2223 238.145 96.9325 238.935 97.4382 239.952C97.9439 240.969 98.1967 242.156 98.1967 243.514C98.1967 244.866 97.9439 246.048 97.4382 247.06C96.9325 248.071 96.2223 248.858 95.3075 249.42C94.3928 249.983 93.3217 250.264 92.0945 250.264ZM92.103 248.125C92.8984 248.125 93.5575 247.915 94.0803 247.494C94.603 247.074 94.9893 246.514 95.2393 245.815C95.495 245.116 95.6229 244.347 95.6229 243.506C95.6229 242.67 95.495 241.903 95.2393 241.205C94.9893 240.5 94.603 239.935 94.0803 239.509C93.5575 239.082 92.8984 238.869 92.103 238.869C91.3018 238.869 90.6371 239.082 90.1087 239.509C89.5859 239.935 89.1967 240.5 88.9411 241.205C88.6911 241.903 88.5661 242.67 88.5661 243.506C88.5661 244.347 88.6911 245.116 88.9411 245.815C89.1967 246.514 89.5859 247.074 90.1087 247.494C90.6371 247.915 91.3018 248.125 92.103 248.125ZM103.481 250L99.6286 236.909H102.262L104.827 246.523H104.955L107.529 236.909H110.163L112.719 246.48H112.847L115.396 236.909H118.029L114.185 250H111.586L108.927 240.548H108.731L106.072 250H103.481ZM131.879 250.247C130.708 250.247 129.7 250.034 128.853 249.608C128.012 249.182 127.364 248.602 126.91 247.869C126.455 247.131 126.228 246.295 126.228 245.364C126.228 244.653 126.376 244.023 126.671 243.472C126.967 242.915 127.379 242.401 127.907 241.929C128.435 241.457 129.046 240.983 129.739 240.506L132.552 238.52C133.029 238.207 133.401 237.878 133.668 237.531C133.935 237.179 134.069 236.744 134.069 236.227C134.069 235.818 133.893 235.426 133.54 235.051C133.188 234.676 132.717 234.489 132.126 234.489C131.717 234.489 131.356 234.588 131.043 234.787C130.737 234.986 130.495 235.241 130.319 235.554C130.148 235.861 130.063 236.185 130.063 236.526C130.063 236.923 130.171 237.324 130.387 237.727C130.609 238.131 130.893 238.548 131.239 238.98C131.586 239.406 131.95 239.849 132.33 240.31L140.435 250H137.555L130.847 242.116C130.285 241.452 129.762 240.827 129.279 240.241C128.796 239.651 128.404 239.054 128.103 238.452C127.808 237.844 127.66 237.188 127.66 236.483C127.66 235.682 127.842 234.972 128.205 234.352C128.575 233.727 129.089 233.239 129.748 232.886C130.407 232.534 131.18 232.358 132.066 232.358C132.964 232.358 133.734 232.534 134.376 232.886C135.023 233.233 135.521 233.696 135.867 234.276C136.219 234.849 136.396 235.477 136.396 236.159C136.396 236.989 136.188 237.722 135.773 238.358C135.364 238.989 134.799 239.568 134.077 240.097L130.575 242.679C129.893 243.179 129.418 243.673 129.151 244.162C128.89 244.645 128.759 245.023 128.759 245.295C128.759 245.795 128.887 246.259 129.143 246.685C129.404 247.111 129.768 247.452 130.234 247.707C130.705 247.963 131.256 248.091 131.887 248.091C132.535 248.091 133.165 247.952 133.779 247.673C134.398 247.389 134.958 246.983 135.458 246.455C135.964 245.926 136.364 245.293 136.66 244.554C136.955 243.815 137.103 242.989 137.103 242.074H139.404C139.404 243.199 139.276 244.151 139.021 244.929C138.765 245.702 138.455 246.332 138.092 246.821C137.734 247.304 137.396 247.682 137.077 247.955C136.975 248.045 136.879 248.136 136.788 248.227C136.697 248.318 136.6 248.409 136.498 248.5C135.907 249.097 135.191 249.537 134.35 249.821C133.515 250.105 132.691 250.247 131.879 250.247ZM158.508 237.131C158.417 236.324 158.042 235.699 157.383 235.256C156.724 234.807 155.894 234.582 154.894 234.582C154.178 234.582 153.559 234.696 153.036 234.923C152.513 235.145 152.107 235.452 151.817 235.844C151.533 236.23 151.391 236.67 151.391 237.165C151.391 237.58 151.488 237.937 151.681 238.239C151.88 238.54 152.138 238.793 152.457 238.997C152.781 239.196 153.127 239.364 153.496 239.5C153.866 239.631 154.221 239.739 154.562 239.824L156.266 240.267C156.823 240.403 157.394 240.588 157.979 240.821C158.565 241.054 159.107 241.361 159.607 241.741C160.107 242.122 160.511 242.594 160.817 243.156C161.13 243.719 161.286 244.392 161.286 245.176C161.286 246.165 161.031 247.043 160.519 247.81C160.013 248.577 159.278 249.182 158.312 249.625C157.352 250.068 156.19 250.29 154.826 250.29C153.519 250.29 152.388 250.082 151.434 249.668C150.479 249.253 149.732 248.665 149.192 247.903C148.653 247.136 148.354 246.227 148.298 245.176H150.94C150.991 245.807 151.195 246.332 151.553 246.753C151.917 247.168 152.38 247.477 152.942 247.682C153.511 247.881 154.133 247.98 154.809 247.98C155.553 247.98 156.215 247.864 156.795 247.631C157.38 247.392 157.84 247.062 158.175 246.642C158.511 246.216 158.678 245.719 158.678 245.151C158.678 244.634 158.531 244.21 158.235 243.881C157.945 243.551 157.55 243.278 157.05 243.062C156.556 242.847 155.996 242.656 155.371 242.491L153.309 241.929C151.911 241.548 150.803 240.989 149.985 240.25C149.173 239.511 148.766 238.534 148.766 237.318C148.766 236.312 149.039 235.435 149.585 234.685C150.13 233.935 150.869 233.352 151.8 232.938C152.732 232.517 153.783 232.307 154.954 232.307C156.136 232.307 157.178 232.514 158.082 232.929C158.991 233.344 159.707 233.915 160.229 234.642C160.752 235.364 161.025 236.193 161.048 237.131H158.508ZM169.743 250.264C168.516 250.264 167.445 249.983 166.53 249.42C165.615 248.858 164.905 248.071 164.399 247.06C163.893 246.048 163.641 244.866 163.641 243.514C163.641 242.156 163.893 240.969 164.399 239.952C164.905 238.935 165.615 238.145 166.53 237.582C167.445 237.02 168.516 236.739 169.743 236.739C170.97 236.739 172.041 237.02 172.956 237.582C173.871 238.145 174.581 238.935 175.087 239.952C175.592 240.969 175.845 242.156 175.845 243.514C175.845 244.866 175.592 246.048 175.087 247.06C174.581 248.071 173.871 248.858 172.956 249.42C172.041 249.983 170.97 250.264 169.743 250.264ZM169.751 248.125C170.547 248.125 171.206 247.915 171.729 247.494C172.251 247.074 172.638 246.514 172.888 245.815C173.143 245.116 173.271 244.347 173.271 243.506C173.271 242.67 173.143 241.903 172.888 241.205C172.638 240.5 172.251 239.935 171.729 239.509C171.206 239.082 170.547 238.869 169.751 238.869C168.95 238.869 168.286 239.082 167.757 239.509C167.234 239.935 166.845 240.5 166.589 241.205C166.339 241.903 166.214 242.67 166.214 243.506C166.214 244.347 166.339 245.116 166.589 245.815C166.845 246.514 167.234 247.074 167.757 247.494C168.286 247.915 168.95 248.125 169.751 248.125ZM186.982 244.571V236.909H189.539V250H187.033V247.733H186.897C186.596 248.432 186.113 249.014 185.448 249.48C184.789 249.94 183.968 250.17 182.985 250.17C182.144 250.17 181.4 249.986 180.752 249.616C180.11 249.241 179.604 248.688 179.235 247.955C178.871 247.222 178.69 246.315 178.69 245.236V236.909H181.238V244.929C181.238 245.821 181.485 246.531 181.979 247.06C182.474 247.588 183.116 247.852 183.906 247.852C184.383 247.852 184.857 247.733 185.329 247.494C185.806 247.256 186.201 246.895 186.513 246.412C186.832 245.929 186.988 245.315 186.982 244.571ZM192.963 254.909V236.909H195.452V239.031H195.665C195.813 238.759 196.026 238.443 196.304 238.085C196.582 237.727 196.969 237.415 197.463 237.148C197.957 236.875 198.611 236.739 199.423 236.739C200.48 236.739 201.423 237.006 202.253 237.54C203.082 238.074 203.733 238.844 204.205 239.849C204.682 240.855 204.92 242.065 204.92 243.48C204.92 244.895 204.685 246.108 204.213 247.119C203.741 248.125 203.094 248.901 202.27 249.446C201.446 249.986 200.506 250.256 199.449 250.256C198.653 250.256 198.003 250.122 197.497 249.855C196.997 249.588 196.605 249.276 196.321 248.918C196.037 248.56 195.818 248.241 195.665 247.963H195.511V254.909H192.963ZM195.46 243.455C195.46 244.375 195.594 245.182 195.861 245.875C196.128 246.568 196.514 247.111 197.02 247.503C197.526 247.889 198.145 248.082 198.878 248.082C199.639 248.082 200.276 247.881 200.787 247.477C201.298 247.068 201.685 246.514 201.946 245.815C202.213 245.116 202.347 244.33 202.347 243.455C202.347 242.591 202.216 241.815 201.955 241.128C201.699 240.44 201.313 239.898 200.795 239.5C200.284 239.102 199.645 238.903 198.878 238.903C198.139 238.903 197.514 239.094 197.003 239.474C196.497 239.855 196.114 240.386 195.852 241.068C195.591 241.75 195.46 242.545 195.46 243.455ZM217.585 240.105L215.276 240.514C215.179 240.219 215.026 239.937 214.815 239.67C214.611 239.403 214.332 239.185 213.98 239.014C213.628 238.844 213.188 238.759 212.659 238.759C211.938 238.759 211.335 238.92 210.852 239.244C210.369 239.562 210.128 239.974 210.128 240.48C210.128 240.918 210.29 241.27 210.614 241.537C210.938 241.804 211.46 242.023 212.182 242.193L214.261 242.67C215.466 242.949 216.364 243.378 216.955 243.957C217.545 244.537 217.841 245.29 217.841 246.216C217.841 247 217.614 247.699 217.159 248.312C216.71 248.92 216.082 249.398 215.276 249.744C214.474 250.091 213.545 250.264 212.489 250.264C211.023 250.264 209.827 249.952 208.901 249.327C207.974 248.696 207.406 247.801 207.196 246.642L209.659 246.267C209.813 246.909 210.128 247.395 210.605 247.724C211.082 248.048 211.705 248.21 212.472 248.21C213.307 248.21 213.974 248.037 214.474 247.69C214.974 247.338 215.224 246.909 215.224 246.403C215.224 245.994 215.071 245.651 214.764 245.372C214.463 245.094 214 244.884 213.375 244.741L211.159 244.256C209.938 243.977 209.034 243.534 208.449 242.926C207.869 242.318 207.58 241.548 207.58 240.616C207.58 239.844 207.795 239.168 208.227 238.588C208.659 238.009 209.256 237.557 210.017 237.233C210.778 236.903 211.651 236.739 212.634 236.739C214.048 236.739 215.162 237.045 215.974 237.659C216.787 238.267 217.324 239.082 217.585 240.105Z" fill="black"/>
<path d="M37.7301 290.06C37.5653 289.543 37.3438 289.08 37.0653 288.67C36.7926 288.256 36.4659 287.903 36.0852 287.614C35.7045 287.318 35.2699 287.094 34.7812 286.94C34.2983 286.787 33.767 286.71 33.1875 286.71C32.2045 286.71 31.3182 286.963 30.5284 287.469C29.7386 287.974 29.1136 288.716 28.6534 289.693C28.1989 290.665 27.9716 291.855 27.9716 293.264C27.9716 294.679 28.2017 295.875 28.6619 296.852C29.1222 297.83 29.7528 298.571 30.554 299.077C31.3551 299.582 32.267 299.835 33.2898 299.835C34.2386 299.835 35.0653 299.642 35.7699 299.256C36.4801 298.869 37.0284 298.324 37.4148 297.619C37.8068 296.909 38.0028 296.074 38.0028 295.114L38.6847 295.241H33.6903V293.068H40.5511V295.054C40.5511 296.52 40.2386 297.793 39.6136 298.872C38.9943 299.946 38.1364 300.776 37.0398 301.361C35.9489 301.946 34.6989 302.239 33.2898 302.239C31.7102 302.239 30.3239 301.875 29.1307 301.148C27.9432 300.42 27.017 299.389 26.3523 298.054C25.6875 296.713 25.3551 295.122 25.3551 293.281C25.3551 291.889 25.5483 290.639 25.9347 289.531C26.321 288.423 26.8636 287.483 27.5625 286.71C28.267 285.932 29.0938 285.338 30.0426 284.929C30.9972 284.514 32.0398 284.307 33.1705 284.307C34.1136 284.307 34.9915 284.446 35.804 284.724C36.6222 285.003 37.3494 285.398 37.9858 285.909C38.6278 286.42 39.1591 287.028 39.5795 287.733C40 288.432 40.2841 289.207 40.4318 290.06H37.7301ZM43.6896 302V288.909H46.1527V290.989H46.2891C46.5277 290.284 46.9482 289.73 47.5504 289.327C48.1584 288.918 48.8459 288.713 49.6129 288.713C49.772 288.713 49.9595 288.719 50.1754 288.73C50.397 288.741 50.5703 288.756 50.6953 288.773V291.21C50.593 291.182 50.4112 291.151 50.1499 291.116C49.8885 291.077 49.6271 291.057 49.3658 291.057C48.7635 291.057 48.2266 291.185 47.755 291.44C47.2891 291.69 46.9197 292.04 46.647 292.489C46.3743 292.932 46.2379 293.437 46.2379 294.006V302H43.6896ZM52.9006 302V288.909H55.4489V302H52.9006ZM54.1875 286.889C53.7443 286.889 53.3636 286.741 53.0455 286.446C52.733 286.145 52.5767 285.787 52.5767 285.372C52.5767 284.952 52.733 284.594 53.0455 284.298C53.3636 283.997 53.7443 283.847 54.1875 283.847C54.6307 283.847 55.0085 283.997 55.321 284.298C55.6392 284.594 55.7983 284.952 55.7983 285.372C55.7983 285.787 55.6392 286.145 55.321 286.446C55.0085 286.741 54.6307 286.889 54.1875 286.889ZM61.4254 284.545V302H58.8771V284.545H61.4254ZM67.402 284.545V302H64.8537V284.545H67.402ZM80.6399 292.105L78.3303 292.514C78.2337 292.219 78.0803 291.937 77.87 291.67C77.6655 291.403 77.3871 291.185 77.0348 291.014C76.6825 290.844 76.2422 290.759 75.7138 290.759C74.9922 290.759 74.3899 290.92 73.907 291.244C73.424 291.562 73.1825 291.974 73.1825 292.48C73.1825 292.918 73.3445 293.27 73.6683 293.537C73.9922 293.804 74.5149 294.023 75.2365 294.193L77.3161 294.67C78.5206 294.949 79.4183 295.378 80.0092 295.957C80.6001 296.537 80.8956 297.29 80.8956 298.216C80.8956 299 80.6683 299.699 80.2138 300.312C79.7649 300.92 79.1371 301.398 78.3303 301.744C77.5291 302.091 76.6001 302.264 75.5433 302.264C74.0774 302.264 72.8814 301.952 71.9553 301.327C71.0291 300.696 70.4609 299.801 70.2507 298.642L72.7138 298.267C72.8672 298.909 73.1825 299.395 73.6598 299.724C74.1371 300.048 74.7592 300.21 75.5263 300.21C76.3615 300.21 77.0291 300.037 77.5291 299.69C78.0291 299.338 78.2791 298.909 78.2791 298.403C78.2791 297.994 78.1257 297.651 77.8189 297.372C77.5178 297.094 77.0547 296.884 76.4297 296.741L74.2138 296.256C72.9922 295.977 72.0888 295.534 71.5036 294.926C70.924 294.318 70.6342 293.548 70.6342 292.616C70.6342 291.844 70.8501 291.168 71.282 290.588C71.7138 290.009 72.3104 289.557 73.0717 289.233C73.8331 288.903 74.7053 288.739 75.6882 288.739C77.103 288.739 78.2166 289.045 79.0291 289.659C79.8416 290.267 80.3786 291.082 80.6399 292.105ZM95.1286 302.247C93.9581 302.247 92.9496 302.034 92.103 301.608C91.2621 301.182 90.6143 300.602 90.1598 299.869C89.7053 299.131 89.478 298.295 89.478 297.364C89.478 296.653 89.6257 296.023 89.9212 295.472C90.2166 294.915 90.6286 294.401 91.157 293.929C91.6854 293.457 92.2962 292.983 92.9893 292.506L95.8018 290.52C96.2791 290.207 96.6513 289.878 96.9183 289.531C97.1854 289.179 97.3189 288.744 97.3189 288.227C97.3189 287.818 97.1428 287.426 96.7905 287.051C96.4382 286.676 95.9666 286.489 95.3757 286.489C94.9666 286.489 94.6058 286.588 94.2933 286.787C93.9865 286.986 93.745 287.241 93.5689 287.554C93.3984 287.861 93.3132 288.185 93.3132 288.526C93.3132 288.923 93.4212 289.324 93.6371 289.727C93.8587 290.131 94.1428 290.548 94.4893 290.98C94.8359 291.406 95.1996 291.849 95.5803 292.31L103.685 302H100.805L94.0973 294.116C93.5348 293.452 93.0121 292.827 92.5291 292.241C92.0462 291.651 91.6541 291.054 91.353 290.452C91.0575 289.844 90.9098 289.188 90.9098 288.483C90.9098 287.682 91.0916 286.972 91.4553 286.352C91.8246 285.727 92.3388 285.239 92.9979 284.886C93.657 284.534 94.4297 284.358 95.3161 284.358C96.2138 284.358 96.9837 284.534 97.6257 284.886C98.2734 285.233 98.7706 285.696 99.1172 286.276C99.4695 286.849 99.6456 287.477 99.6456 288.159C99.6456 288.989 99.4382 289.722 99.0234 290.358C98.6143 290.989 98.049 291.568 97.3274 292.097L93.8246 294.679C93.1428 295.179 92.6683 295.673 92.4013 296.162C92.1399 296.645 92.0092 297.023 92.0092 297.295C92.0092 297.795 92.1371 298.259 92.3928 298.685C92.6541 299.111 93.0178 299.452 93.4837 299.707C93.9553 299.963 94.5064 300.091 95.1371 300.091C95.7848 300.091 96.4155 299.952 97.0291 299.673C97.6484 299.389 98.2081 298.983 98.7081 298.455C99.2138 297.926 99.6143 297.293 99.9098 296.554C100.205 295.815 100.353 294.989 100.353 294.074H102.654C102.654 295.199 102.526 296.151 102.271 296.929C102.015 297.702 101.705 298.332 101.342 298.821C100.984 299.304 100.646 299.682 100.327 299.955C100.225 300.045 100.129 300.136 100.038 300.227C99.9467 300.318 99.8501 300.409 99.7479 300.5C99.157 301.097 98.4411 301.537 97.6001 301.821C96.7649 302.105 95.9411 302.247 95.1286 302.247ZM121.843 292.105L119.533 292.514C119.437 292.219 119.283 291.937 119.073 291.67C118.869 291.403 118.59 291.185 118.238 291.014C117.886 290.844 117.445 290.759 116.917 290.759C116.195 290.759 115.593 290.92 115.11 291.244C114.627 291.562 114.386 291.974 114.386 292.48C114.386 292.918 114.548 293.27 114.871 293.537C115.195 293.804 115.718 294.023 116.44 294.193L118.519 294.67C119.724 294.949 120.621 295.378 121.212 295.957C121.803 296.537 122.099 297.29 122.099 298.216C122.099 299 121.871 299.699 121.417 300.312C120.968 300.92 120.34 301.398 119.533 301.744C118.732 302.091 117.803 302.264 116.746 302.264C115.281 302.264 114.085 301.952 113.158 301.327C112.232 300.696 111.664 299.801 111.454 298.642L113.917 298.267C114.07 298.909 114.386 299.395 114.863 299.724C115.34 300.048 115.962 300.21 116.729 300.21C117.565 300.21 118.232 300.037 118.732 299.69C119.232 299.338 119.482 298.909 119.482 298.403C119.482 297.994 119.329 297.651 119.022 297.372C118.721 297.094 118.258 296.884 117.633 296.741L115.417 296.256C114.195 295.977 113.292 295.534 112.707 294.926C112.127 294.318 111.837 293.548 111.837 292.616C111.837 291.844 112.053 291.168 112.485 290.588C112.917 290.009 113.513 289.557 114.275 289.233C115.036 288.903 115.908 288.739 116.891 288.739C118.306 288.739 119.42 289.045 120.232 289.659C121.045 290.267 121.582 291.082 121.843 292.105ZM124.901 302V288.909H127.449V302H124.901ZM126.188 286.889C125.744 286.889 125.364 286.741 125.045 286.446C124.733 286.145 124.577 285.787 124.577 285.372C124.577 284.952 124.733 284.594 125.045 284.298C125.364 283.997 125.744 283.847 126.188 283.847C126.631 283.847 127.009 283.997 127.321 284.298C127.639 284.594 127.798 284.952 127.798 285.372C127.798 285.787 127.639 286.145 127.321 286.446C127.009 286.741 126.631 286.889 126.188 286.889ZM135.778 302.256C134.721 302.256 133.778 301.986 132.948 301.446C132.124 300.901 131.477 300.125 131.005 299.119C130.539 298.108 130.306 296.895 130.306 295.48C130.306 294.065 130.542 292.855 131.013 291.849C131.491 290.844 132.144 290.074 132.974 289.54C133.803 289.006 134.744 288.739 135.795 288.739C136.607 288.739 137.261 288.875 137.755 289.148C138.255 289.415 138.641 289.727 138.914 290.085C139.192 290.443 139.408 290.759 139.562 291.031H139.715V284.545H142.263V302H139.775V299.963H139.562C139.408 300.241 139.187 300.56 138.897 300.918C138.613 301.276 138.221 301.588 137.721 301.855C137.221 302.122 136.573 302.256 135.778 302.256ZM136.34 300.082C137.073 300.082 137.692 299.889 138.198 299.503C138.71 299.111 139.096 298.568 139.357 297.875C139.624 297.182 139.758 296.375 139.758 295.455C139.758 294.545 139.627 293.75 139.366 293.068C139.104 292.386 138.721 291.855 138.215 291.474C137.71 291.094 137.085 290.903 136.34 290.903C135.573 290.903 134.934 291.102 134.423 291.5C133.911 291.898 133.525 292.44 133.263 293.128C133.008 293.815 132.88 294.591 132.88 295.455C132.88 296.33 133.011 297.116 133.272 297.815C133.533 298.514 133.92 299.068 134.431 299.477C134.948 299.881 135.585 300.082 136.34 300.082ZM151.543 302.264C150.253 302.264 149.142 301.989 148.21 301.438C147.284 300.881 146.568 300.099 146.062 299.094C145.562 298.082 145.312 296.898 145.312 295.54C145.312 294.199 145.562 293.017 146.062 291.994C146.568 290.972 147.273 290.173 148.176 289.599C149.085 289.026 150.148 288.739 151.364 288.739C152.102 288.739 152.818 288.861 153.511 289.105C154.205 289.349 154.827 289.733 155.378 290.256C155.929 290.778 156.364 291.457 156.682 292.293C157 293.122 157.159 294.131 157.159 295.318V296.222H146.753V294.312H154.662C154.662 293.642 154.526 293.048 154.253 292.531C153.98 292.009 153.597 291.597 153.102 291.295C152.614 290.994 152.04 290.844 151.381 290.844C150.665 290.844 150.04 291.02 149.506 291.372C148.977 291.719 148.568 292.173 148.278 292.736C147.994 293.293 147.852 293.898 147.852 294.551V296.043C147.852 296.918 148.006 297.662 148.312 298.276C148.625 298.889 149.06 299.358 149.616 299.682C150.173 300 150.824 300.159 151.568 300.159C152.051 300.159 152.491 300.091 152.889 299.955C153.287 299.812 153.631 299.602 153.92 299.324C154.21 299.045 154.432 298.702 154.585 298.293L156.997 298.727C156.804 299.437 156.457 300.06 155.957 300.594C155.463 301.122 154.841 301.534 154.091 301.83C153.347 302.119 152.497 302.264 151.543 302.264ZM169.796 292.105L167.487 292.514C167.39 292.219 167.237 291.937 167.026 291.67C166.822 291.403 166.543 291.185 166.191 291.014C165.839 290.844 165.398 290.759 164.87 290.759C164.148 290.759 163.546 290.92 163.063 291.244C162.58 291.562 162.339 291.974 162.339 292.48C162.339 292.918 162.501 293.27 162.825 293.537C163.148 293.804 163.671 294.023 164.393 294.193L166.472 294.67C167.677 294.949 168.575 295.378 169.165 295.957C169.756 296.537 170.052 297.29 170.052 298.216C170.052 299 169.825 299.699 169.37 300.312C168.921 300.92 168.293 301.398 167.487 301.744C166.685 302.091 165.756 302.264 164.7 302.264C163.234 302.264 162.038 301.952 161.112 301.327C160.185 300.696 159.617 299.801 159.407 298.642L161.87 298.267C162.023 298.909 162.339 299.395 162.816 299.724C163.293 300.048 163.915 300.21 164.683 300.21C165.518 300.21 166.185 300.037 166.685 299.69C167.185 299.338 167.435 298.909 167.435 298.403C167.435 297.994 167.282 297.651 166.975 297.372C166.674 297.094 166.211 296.884 165.586 296.741L163.37 296.256C162.148 295.977 161.245 295.534 160.66 294.926C160.08 294.318 159.79 293.548 159.79 292.616C159.79 291.844 160.006 291.168 160.438 290.588C160.87 290.009 161.467 289.557 162.228 289.233C162.989 288.903 163.862 288.739 164.844 288.739C166.259 288.739 167.373 289.045 168.185 289.659C168.998 290.267 169.535 291.082 169.796 292.105Z" fill="black"/>
<path d="M25.9176 354V336.545H32.3097C33.5483 336.545 34.5739 336.75 35.3864 337.159C36.1989 337.562 36.8068 338.111 37.2102 338.804C37.6136 339.491 37.8153 340.267 37.8153 341.131C37.8153 341.858 37.6818 342.472 37.4148 342.972C37.1477 343.466 36.7898 343.864 36.3409 344.165C35.8977 344.46 35.4091 344.676 34.875 344.812V344.983C35.4545 345.011 36.0199 345.199 36.571 345.545C37.1278 345.886 37.5881 346.372 37.9517 347.003C38.3153 347.634 38.4972 348.401 38.4972 349.304C38.4972 350.196 38.2869 350.997 37.8665 351.707C37.4517 352.412 36.8097 352.972 35.9403 353.386C35.071 353.795 33.9602 354 32.608 354H25.9176ZM28.5511 351.741H32.3523C33.6136 351.741 34.517 351.497 35.0625 351.009C35.608 350.52 35.8807 349.909 35.8807 349.176C35.8807 348.625 35.7415 348.119 35.4631 347.659C35.1847 347.199 34.7869 346.832 34.2699 346.56C33.7585 346.287 33.1506 346.151 32.446 346.151H28.5511V351.741ZM28.5511 344.097H32.0795C32.6705 344.097 33.2017 343.983 33.6733 343.756C34.1506 343.528 34.5284 343.21 34.8068 342.801C35.0909 342.386 35.233 341.898 35.233 341.335C35.233 340.614 34.9801 340.009 34.4744 339.52C33.9688 339.031 33.1932 338.787 32.1477 338.787H28.5511V344.097ZM47.0582 354.264C45.7685 354.264 44.6577 353.989 43.7259 353.438C42.7997 352.881 42.0838 352.099 41.5781 351.094C41.0781 350.082 40.8281 348.898 40.8281 347.54C40.8281 346.199 41.0781 345.017 41.5781 343.994C42.0838 342.972 42.7884 342.173 43.6918 341.599C44.6009 341.026 45.6634 340.739 46.8793 340.739C47.6179 340.739 48.3338 340.861 49.027 341.105C49.7202 341.349 50.3423 341.733 50.8935 342.256C51.4446 342.778 51.8793 343.457 52.1974 344.293C52.5156 345.122 52.6747 346.131 52.6747 347.318V348.222H42.2685V346.312H50.1776C50.1776 345.642 50.0412 345.048 49.7685 344.531C49.4957 344.009 49.1122 343.597 48.6179 343.295C48.1293 342.994 47.5554 342.844 46.8963 342.844C46.1804 342.844 45.5554 343.02 45.0213 343.372C44.4929 343.719 44.0838 344.173 43.794 344.736C43.5099 345.293 43.3679 345.898 43.3679 346.551V348.043C43.3679 348.918 43.5213 349.662 43.8281 350.276C44.1406 350.889 44.5753 351.358 45.1321 351.682C45.6889 352 46.3395 352.159 47.0838 352.159C47.5668 352.159 48.0071 352.091 48.4048 351.955C48.8026 351.812 49.1463 351.602 49.4361 351.324C49.7259 351.045 49.9474 350.702 50.1009 350.293L52.5128 350.727C52.3196 351.437 51.973 352.06 51.473 352.594C50.9787 353.122 50.3565 353.534 49.6065 353.83C48.8622 354.119 48.0128 354.264 47.0582 354.264ZM66.326 340.909L61.5788 354H58.8516L54.0959 340.909H56.8317L60.147 350.983H60.2834L63.5902 340.909H66.326ZM73.9176 354.264C72.6278 354.264 71.517 353.989 70.5852 353.438C69.6591 352.881 68.9432 352.099 68.4375 351.094C67.9375 350.082 67.6875 348.898 67.6875 347.54C67.6875 346.199 67.9375 345.017 68.4375 343.994C68.9432 342.972 69.6477 342.173 70.5511 341.599C71.4602 341.026 72.5227 340.739 73.7386 340.739C74.4773 340.739 75.1932 340.861 75.8864 341.105C76.5795 341.349 77.2017 341.733 77.7528 342.256C78.304 342.778 78.7386 343.457 79.0568 344.293C79.375 345.122 79.5341 346.131 79.5341 347.318V348.222H69.1278V346.312H77.0369C77.0369 345.642 76.9006 345.048 76.6278 344.531C76.3551 344.009 75.9716 343.597 75.4773 343.295C74.9886 342.994 74.4148 342.844 73.7557 342.844C73.0398 342.844 72.4148 343.02 71.8807 343.372C71.3523 343.719 70.9432 344.173 70.6534 344.736C70.3693 345.293 70.2273 345.898 70.2273 346.551V348.043C70.2273 348.918 70.3807 349.662 70.6875 350.276C71 350.889 71.4347 351.358 71.9915 351.682C72.5483 352 73.1989 352.159 73.9432 352.159C74.4261 352.159 74.8665 352.091 75.2642 351.955C75.6619 351.812 76.0057 351.602 76.2955 351.324C76.5852 351.045 76.8068 350.702 76.9602 350.293L79.3722 350.727C79.179 351.437 78.8324 352.06 78.3324 352.594C77.8381 353.122 77.2159 353.534 76.4659 353.83C75.7216 354.119 74.8722 354.264 73.9176 354.264ZM82.3615 354V340.909H84.8246V342.989H84.9609C85.1996 342.284 85.62 341.73 86.2223 341.327C86.8303 340.918 87.5178 340.713 88.2848 340.713C88.4439 340.713 88.6314 340.719 88.8473 340.73C89.0689 340.741 89.2422 340.756 89.3672 340.773V343.21C89.2649 343.182 89.0831 343.151 88.8217 343.116C88.5604 343.077 88.299 343.057 88.0376 343.057C87.4354 343.057 86.8984 343.185 86.4268 343.44C85.9609 343.69 85.5916 344.04 85.3189 344.489C85.0462 344.932 84.9098 345.437 84.9098 346.006V354H82.3615ZM95.2649 354.29C94.4354 354.29 93.6854 354.136 93.0149 353.83C92.3445 353.517 91.8132 353.065 91.4212 352.474C91.0348 351.884 90.8416 351.159 90.8416 350.301C90.8416 349.562 90.9837 348.955 91.2678 348.477C91.5518 348 91.9354 347.622 92.4183 347.344C92.9013 347.065 93.4411 346.855 94.0376 346.713C94.6342 346.571 95.2422 346.463 95.8615 346.389C96.6456 346.298 97.282 346.224 97.7706 346.168C98.2592 346.105 98.6143 346.006 98.8359 345.869C99.0575 345.733 99.1683 345.511 99.1683 345.205V345.145C99.1683 344.401 98.9581 343.824 98.5376 343.415C98.1229 343.006 97.5036 342.801 96.6797 342.801C95.8217 342.801 95.1456 342.991 94.6513 343.372C94.1626 343.747 93.8246 344.165 93.6371 344.625L91.2422 344.08C91.5263 343.284 91.9411 342.642 92.4865 342.153C93.0376 341.659 93.6712 341.301 94.3871 341.08C95.103 340.852 95.8558 340.739 96.6456 340.739C97.1683 340.739 97.7223 340.801 98.3075 340.926C98.8984 341.045 99.4496 341.267 99.9609 341.591C100.478 341.915 100.901 342.378 101.231 342.98C101.56 343.577 101.725 344.352 101.725 345.307V354H99.2365V352.21H99.1342C98.9695 352.54 98.7223 352.864 98.3928 353.182C98.0632 353.5 97.6399 353.764 97.1229 353.974C96.6058 354.185 95.9865 354.29 95.2649 354.29ZM95.8189 352.244C96.5234 352.244 97.1257 352.105 97.6257 351.827C98.1314 351.548 98.5149 351.185 98.7763 350.736C99.0433 350.281 99.1768 349.795 99.1768 349.278V347.591C99.0859 347.682 98.9098 347.767 98.6484 347.847C98.3928 347.92 98.1001 347.986 97.7706 348.043C97.4411 348.094 97.12 348.142 96.8075 348.188C96.495 348.227 96.2337 348.261 96.0234 348.29C95.5291 348.352 95.0774 348.457 94.6683 348.605C94.2649 348.753 93.9411 348.966 93.6967 349.244C93.4581 349.517 93.3388 349.881 93.3388 350.335C93.3388 350.966 93.5717 351.443 94.0376 351.767C94.5036 352.085 95.0973 352.244 95.8189 352.244ZM110.608 359.182C109.568 359.182 108.673 359.045 107.923 358.773C107.179 358.5 106.571 358.139 106.099 357.69C105.628 357.241 105.276 356.75 105.043 356.216L107.233 355.312C107.386 355.562 107.591 355.827 107.847 356.105C108.108 356.389 108.46 356.631 108.903 356.83C109.352 357.028 109.929 357.128 110.634 357.128C111.599 357.128 112.398 356.892 113.028 356.42C113.659 355.955 113.974 355.21 113.974 354.188V351.614H113.812C113.659 351.892 113.438 352.202 113.148 352.543C112.864 352.884 112.472 353.179 111.972 353.429C111.472 353.679 110.821 353.804 110.02 353.804C108.986 353.804 108.054 353.562 107.224 353.08C106.401 352.591 105.747 351.872 105.264 350.923C104.787 349.969 104.548 348.795 104.548 347.403C104.548 346.011 104.784 344.818 105.256 343.824C105.733 342.83 106.386 342.068 107.216 341.54C108.045 341.006 108.986 340.739 110.037 340.739C110.849 340.739 111.506 340.875 112.006 341.148C112.506 341.415 112.895 341.727 113.173 342.085C113.457 342.443 113.676 342.759 113.83 343.031H114.017V340.909H116.514V354.29C116.514 355.415 116.253 356.338 115.73 357.06C115.207 357.781 114.5 358.315 113.608 358.662C112.722 359.009 111.722 359.182 110.608 359.182ZM110.582 351.69C111.315 351.69 111.935 351.52 112.44 351.179C112.952 350.832 113.338 350.338 113.599 349.696C113.866 349.048 114 348.273 114 347.369C114 346.489 113.869 345.713 113.608 345.043C113.347 344.372 112.963 343.849 112.457 343.474C111.952 343.094 111.327 342.903 110.582 342.903C109.815 342.903 109.176 343.102 108.665 343.5C108.153 343.892 107.767 344.426 107.506 345.102C107.25 345.778 107.122 346.534 107.122 347.369C107.122 348.227 107.253 348.98 107.514 349.628C107.776 350.276 108.162 350.781 108.673 351.145C109.19 351.509 109.827 351.69 110.582 351.69ZM125.574 354.264C124.284 354.264 123.173 353.989 122.241 353.438C121.315 352.881 120.599 352.099 120.094 351.094C119.594 350.082 119.344 348.898 119.344 347.54C119.344 346.199 119.594 345.017 120.094 343.994C120.599 342.972 121.304 342.173 122.207 341.599C123.116 341.026 124.179 340.739 125.395 340.739C126.134 340.739 126.849 340.861 127.543 341.105C128.236 341.349 128.858 341.733 129.409 342.256C129.96 342.778 130.395 343.457 130.713 344.293C131.031 345.122 131.19 346.131 131.19 347.318V348.222H120.784V346.312H128.693C128.693 345.642 128.557 345.048 128.284 344.531C128.011 344.009 127.628 343.597 127.134 343.295C126.645 342.994 126.071 342.844 125.412 342.844C124.696 342.844 124.071 343.02 123.537 343.372C123.009 343.719 122.599 344.173 122.31 344.736C122.026 345.293 121.884 345.898 121.884 346.551V348.043C121.884 348.918 122.037 349.662 122.344 350.276C122.656 350.889 123.091 351.358 123.648 351.682C124.205 352 124.855 352.159 125.599 352.159C126.082 352.159 126.523 352.091 126.92 351.955C127.318 351.812 127.662 351.602 127.952 351.324C128.241 351.045 128.463 350.702 128.616 350.293L131.028 350.727C130.835 351.437 130.489 352.06 129.989 352.594C129.494 353.122 128.872 353.534 128.122 353.83C127.378 354.119 126.528 354.264 125.574 354.264ZM143.827 344.105L141.518 344.514C141.421 344.219 141.268 343.937 141.058 343.67C140.853 343.403 140.575 343.185 140.222 343.014C139.87 342.844 139.43 342.759 138.901 342.759C138.18 342.759 137.577 342.92 137.094 343.244C136.612 343.562 136.37 343.974 136.37 344.48C136.37 344.918 136.532 345.27 136.856 345.537C137.18 345.804 137.702 346.023 138.424 346.193L140.504 346.67C141.708 346.949 142.606 347.378 143.197 347.957C143.788 348.537 144.083 349.29 144.083 350.216C144.083 351 143.856 351.699 143.401 352.312C142.952 352.92 142.325 353.398 141.518 353.744C140.717 354.091 139.788 354.264 138.731 354.264C137.265 354.264 136.069 353.952 135.143 353.327C134.217 352.696 133.648 351.801 133.438 350.642L135.901 350.267C136.055 350.909 136.37 351.395 136.847 351.724C137.325 352.048 137.947 352.21 138.714 352.21C139.549 352.21 140.217 352.037 140.717 351.69C141.217 351.338 141.467 350.909 141.467 350.403C141.467 349.994 141.313 349.651 141.006 349.372C140.705 349.094 140.242 348.884 139.617 348.741L137.401 348.256C136.18 347.977 135.276 347.534 134.691 346.926C134.112 346.318 133.822 345.548 133.822 344.616C133.822 343.844 134.038 343.168 134.469 342.588C134.901 342.009 135.498 341.557 136.259 341.233C137.021 340.903 137.893 340.739 138.876 340.739C140.29 340.739 141.404 341.045 142.217 341.659C143.029 342.267 143.566 343.082 143.827 344.105Z" fill="black"/>
<path d="M31.5682 406H25.9176V388.545H31.7472C33.4574 388.545 34.9261 388.895 36.1534 389.594C37.3807 390.287 38.321 391.284 38.9744 392.585C39.6335 393.881 39.9631 395.435 39.9631 397.247C39.9631 399.065 39.6307 400.628 38.9659 401.935C38.3068 403.241 37.3523 404.247 36.1023 404.952C34.8523 405.651 33.3409 406 31.5682 406ZM28.5511 403.699H31.4233C32.7528 403.699 33.858 403.449 34.7386 402.949C35.6193 402.443 36.2784 401.713 36.7159 400.759C37.1534 399.798 37.3722 398.628 37.3722 397.247C37.3722 395.878 37.1534 394.716 36.7159 393.761C36.2841 392.807 35.6392 392.082 34.7812 391.588C33.9233 391.094 32.858 390.847 31.5852 390.847H28.5511V403.699ZM48.6754 406.264C47.3857 406.264 46.2749 405.989 45.343 405.438C44.4169 404.881 43.701 404.099 43.1953 403.094C42.6953 402.082 42.4453 400.898 42.4453 399.54C42.4453 398.199 42.6953 397.017 43.1953 395.994C43.701 394.972 44.4055 394.173 45.3089 393.599C46.218 393.026 47.2805 392.739 48.4964 392.739C49.2351 392.739 49.951 392.861 50.6442 393.105C51.3374 393.349 51.9595 393.733 52.5107 394.256C53.0618 394.778 53.4964 395.457 53.8146 396.293C54.1328 397.122 54.2919 398.131 54.2919 399.318V400.222H43.8857V398.312H51.7947C51.7947 397.642 51.6584 397.048 51.3857 396.531C51.1129 396.009 50.7294 395.597 50.2351 395.295C49.7464 394.994 49.1726 394.844 48.5135 394.844C47.7976 394.844 47.1726 395.02 46.6385 395.372C46.1101 395.719 45.701 396.173 45.4112 396.736C45.1271 397.293 44.9851 397.898 44.9851 398.551V400.043C44.9851 400.918 45.1385 401.662 45.4453 402.276C45.7578 402.889 46.1925 403.358 46.7493 403.682C47.3061 404 47.9567 404.159 48.701 404.159C49.1839 404.159 49.6243 404.091 50.022 403.955C50.4197 403.812 50.7635 403.602 51.0533 403.324C51.343 403.045 51.5646 402.702 51.718 402.293L54.13 402.727C53.9368 403.437 53.5902 404.06 53.0902 404.594C52.5959 405.122 51.9737 405.534 51.2237 405.83C50.4794 406.119 49.63 406.264 48.6754 406.264ZM66.929 396.105L64.6193 396.514C64.5227 396.219 64.3693 395.937 64.1591 395.67C63.9545 395.403 63.6761 395.185 63.3239 395.014C62.9716 394.844 62.5313 394.759 62.0028 394.759C61.2813 394.759 60.679 394.92 60.196 395.244C59.7131 395.562 59.4716 395.974 59.4716 396.48C59.4716 396.918 59.6335 397.27 59.9574 397.537C60.2813 397.804 60.804 398.023 61.5256 398.193L63.6051 398.67C64.8097 398.949 65.7074 399.378 66.2983 399.957C66.8892 400.537 67.1847 401.29 67.1847 402.216C67.1847 403 66.9574 403.699 66.5028 404.312C66.054 404.92 65.4261 405.398 64.6193 405.744C63.8182 406.091 62.8892 406.264 61.8324 406.264C60.3665 406.264 59.1705 405.952 58.2443 405.327C57.3182 404.696 56.75 403.801 56.5398 402.642L59.0028 402.267C59.1563 402.909 59.4716 403.395 59.9489 403.724C60.4261 404.048 61.0483 404.21 61.8153 404.21C62.6506 404.21 63.3182 404.037 63.8182 403.69C64.3182 403.338 64.5682 402.909 64.5682 402.403C64.5682 401.994 64.4148 401.651 64.108 401.372C63.8068 401.094 63.3438 400.884 62.7188 400.741L60.5028 400.256C59.2813 399.977 58.3778 399.534 57.7926 398.926C57.2131 398.318 56.9233 397.548 56.9233 396.616C56.9233 395.844 57.1392 395.168 57.571 394.588C58.0028 394.009 58.5994 393.557 59.3608 393.233C60.1222 392.903 60.9943 392.739 61.9773 392.739C63.392 392.739 64.5057 393.045 65.3182 393.659C66.1307 394.267 66.6676 395.082 66.929 396.105ZM79.7962 396.105L77.4865 396.514C77.3899 396.219 77.2365 395.937 77.0263 395.67C76.8217 395.403 76.5433 395.185 76.1911 395.014C75.8388 394.844 75.3984 394.759 74.87 394.759C74.1484 394.759 73.5462 394.92 73.0632 395.244C72.5803 395.562 72.3388 395.974 72.3388 396.48C72.3388 396.918 72.5007 397.27 72.8246 397.537C73.1484 397.804 73.6712 398.023 74.3928 398.193L76.4723 398.67C77.6768 398.949 78.5746 399.378 79.1655 399.957C79.7564 400.537 80.0518 401.29 80.0518 402.216C80.0518 403 79.8246 403.699 79.37 404.312C78.9212 404.92 78.2933 405.398 77.4865 405.744C76.6854 406.091 75.7564 406.264 74.6996 406.264C73.2337 406.264 72.0376 405.952 71.1115 405.327C70.1854 404.696 69.6172 403.801 69.407 402.642L71.87 402.267C72.0234 402.909 72.3388 403.395 72.8161 403.724C73.2933 404.048 73.9155 404.21 74.6825 404.21C75.5178 404.21 76.1854 404.037 76.6854 403.69C77.1854 403.338 77.4354 402.909 77.4354 402.403C77.4354 401.994 77.282 401.651 76.9751 401.372C76.674 401.094 76.2109 400.884 75.5859 400.741L73.37 400.256C72.1484 399.977 71.245 399.534 70.6598 398.926C70.0803 398.318 69.7905 397.548 69.7905 396.616C69.7905 395.844 70.0064 395.168 70.4382 394.588C70.87 394.009 71.4666 393.557 72.228 393.233C72.9893 392.903 73.8615 392.739 74.8445 392.739C76.2592 392.739 77.3729 393.045 78.1854 393.659C78.9979 394.267 79.5348 395.082 79.7962 396.105ZM88.4957 406.264C87.206 406.264 86.0952 405.989 85.1634 405.438C84.2372 404.881 83.5213 404.099 83.0156 403.094C82.5156 402.082 82.2656 400.898 82.2656 399.54C82.2656 398.199 82.5156 397.017 83.0156 395.994C83.5213 394.972 84.2259 394.173 85.1293 393.599C86.0384 393.026 87.1009 392.739 88.3168 392.739C89.0554 392.739 89.7713 392.861 90.4645 393.105C91.1577 393.349 91.7798 393.733 92.331 394.256C92.8821 394.778 93.3168 395.457 93.6349 396.293C93.9531 397.122 94.1122 398.131 94.1122 399.318V400.222H83.706V398.312H91.6151C91.6151 397.642 91.4787 397.048 91.206 396.531C90.9332 396.009 90.5497 395.597 90.0554 395.295C89.5668 394.994 88.9929 394.844 88.3338 394.844C87.6179 394.844 86.9929 395.02 86.4588 395.372C85.9304 395.719 85.5213 396.173 85.2315 396.736C84.9474 397.293 84.8054 397.898 84.8054 398.551V400.043C84.8054 400.918 84.9588 401.662 85.2656 402.276C85.5781 402.889 86.0128 403.358 86.5696 403.682C87.1264 404 87.777 404.159 88.5213 404.159C89.0043 404.159 89.4446 404.091 89.8423 403.955C90.2401 403.812 90.5838 403.602 90.8736 403.324C91.1634 403.045 91.3849 402.702 91.5384 402.293L93.9503 402.727C93.7571 403.437 93.4105 404.06 92.9105 404.594C92.4162 405.122 91.794 405.534 91.044 405.83C90.2997 406.119 89.4503 406.264 88.4957 406.264ZM96.9396 406V392.909H99.4027V394.989H99.5391C99.7777 394.284 100.198 393.73 100.8 393.327C101.408 392.918 102.096 392.713 102.863 392.713C103.022 392.713 103.21 392.719 103.425 392.73C103.647 392.741 103.82 392.756 103.945 392.773V395.21C103.843 395.182 103.661 395.151 103.4 395.116C103.138 395.077 102.877 395.057 102.616 395.057C102.013 395.057 101.477 395.185 101.005 395.44C100.539 395.69 100.17 396.04 99.897 396.489C99.6243 396.932 99.4879 397.437 99.4879 398.006V406H96.9396ZM113.035 392.909V394.955H105.884V392.909H113.035ZM107.802 389.773H110.35V402.156C110.35 402.651 110.424 403.023 110.572 403.273C110.719 403.517 110.91 403.685 111.143 403.776C111.381 403.861 111.64 403.903 111.918 403.903C112.123 403.903 112.302 403.889 112.455 403.861C112.609 403.832 112.728 403.81 112.813 403.793L113.273 405.898C113.126 405.955 112.915 406.011 112.643 406.068C112.37 406.131 112.029 406.165 111.62 406.17C110.95 406.182 110.325 406.062 109.745 405.812C109.165 405.562 108.697 405.176 108.339 404.653C107.981 404.131 107.802 403.474 107.802 402.685V389.773ZM125.452 396.105L123.143 396.514C123.046 396.219 122.893 395.937 122.683 395.67C122.478 395.403 122.2 395.185 121.847 395.014C121.495 394.844 121.055 394.759 120.526 394.759C119.805 394.759 119.202 394.92 118.719 395.244C118.237 395.562 117.995 395.974 117.995 396.48C117.995 396.918 118.157 397.27 118.481 397.537C118.805 397.804 119.327 398.023 120.049 398.193L122.129 398.67C123.333 398.949 124.231 399.378 124.822 399.957C125.413 400.537 125.708 401.29 125.708 402.216C125.708 403 125.481 403.699 125.026 404.312C124.577 404.92 123.95 405.398 123.143 405.744C122.342 406.091 121.413 406.264 120.356 406.264C118.89 406.264 117.694 405.952 116.768 405.327C115.842 404.696 115.273 403.801 115.063 402.642L117.526 402.267C117.68 402.909 117.995 403.395 118.472 403.724C118.95 404.048 119.572 404.21 120.339 404.21C121.174 404.21 121.842 404.037 122.342 403.69C122.842 403.338 123.092 402.909 123.092 402.403C123.092 401.994 122.938 401.651 122.631 401.372C122.33 401.094 121.867 400.884 121.242 400.741L119.026 400.256C117.805 399.977 116.901 399.534 116.316 398.926C115.737 398.318 115.447 397.548 115.447 396.616C115.447 395.844 115.663 395.168 116.094 394.588C116.526 394.009 117.123 393.557 117.884 393.233C118.646 392.903 119.518 392.739 120.501 392.739C121.915 392.739 123.029 393.045 123.842 393.659C124.654 394.267 125.191 395.082 125.452 396.105Z" fill="black"/>
</svg>
