<svg width="1069" height="78" viewBox="0 0 1069 78" fill="none" xmlns="http://www.w3.org/2000/svg">
<rect width="1069" height="78" rx="8" fill="white"/>
<path d="M37 37L31.0001 31M33 26C33 29.866 29.866 33 26 33C22.134 33 19 29.866 19 26C19 22.134 22.134 19 26 19C29.866 19 33 22.134 33 26Z" stroke="#807373" stroke-width="2" stroke-linecap="round" stroke-linejoin="round"/>
<path d="M89.2074 35.3438C89.1278 34.5994 88.7926 34.0199 88.2017 33.6051C87.6165 33.1903 86.8551 32.983 85.9176 32.983C85.2585 32.983 84.6932 33.0824 84.2216 33.2812C83.75 33.4801 83.3892 33.75 83.1392 34.0909C82.8892 34.4318 82.7614 34.821 82.7557 35.2585C82.7557 35.6222 82.8381 35.9375 83.0028 36.2045C83.1733 36.4716 83.4034 36.6989 83.6932 36.8864C83.983 37.0682 84.304 37.2216 84.6562 37.3466C85.0085 37.4716 85.3636 37.5767 85.7216 37.6619L87.358 38.071C88.017 38.2244 88.6506 38.4318 89.2585 38.6932C89.8722 38.9545 90.4205 39.2841 90.9034 39.6818C91.392 40.0795 91.7784 40.5597 92.0625 41.1222C92.3466 41.6847 92.4886 42.3437 92.4886 43.0994C92.4886 44.1222 92.2273 45.0227 91.7045 45.8011C91.1818 46.5739 90.4261 47.179 89.4375 47.6165C88.4545 48.0483 87.2642 48.2642 85.8665 48.2642C84.5085 48.2642 83.3295 48.054 82.3295 47.6335C81.3352 47.2131 80.5568 46.5994 79.9943 45.7926C79.4375 44.9858 79.1364 44.0028 79.0909 42.8438H82.2017C82.2472 43.4517 82.4347 43.9574 82.7642 44.3608C83.0938 44.7642 83.5227 45.0653 84.0511 45.2642C84.5852 45.4631 85.1818 45.5625 85.8409 45.5625C86.5284 45.5625 87.1307 45.4602 87.6477 45.2557C88.1705 45.0455 88.5795 44.7557 88.875 44.3864C89.1705 44.0114 89.321 43.5739 89.3267 43.0739C89.321 42.6193 89.1875 42.2443 88.9261 41.9489C88.6648 41.6477 88.2983 41.3977 87.8267 41.1989C87.3608 40.9943 86.8153 40.8125 86.1903 40.6534L84.2045 40.142C82.767 39.7727 81.6307 39.2131 80.7955 38.4631C79.9659 37.7074 79.5511 36.7045 79.5511 35.4545C79.5511 34.4261 79.8295 33.5256 80.3864 32.7528C80.9489 31.9801 81.7131 31.3807 82.679 30.9545C83.6449 30.5227 84.7386 30.3068 85.9602 30.3068C87.1989 30.3068 88.2841 30.5227 89.2159 30.9545C90.1534 31.3807 90.8892 31.9744 91.4233 32.7358C91.9574 33.4915 92.233 34.3608 92.25 35.3438H89.2074ZM100.967 48.2557C99.6541 48.2557 98.5206 47.983 97.5661 47.4375C96.6172 46.8864 95.8871 46.108 95.3757 45.1023C94.8643 44.0909 94.6087 42.9006 94.6087 41.5312C94.6087 40.1847 94.8643 39.0028 95.3757 37.9858C95.8928 36.9631 96.6143 36.1676 97.5405 35.5994C98.4666 35.0256 99.5547 34.7386 100.805 34.7386C101.612 34.7386 102.373 34.8693 103.089 35.1307C103.81 35.3864 104.447 35.7841 104.998 36.3239C105.555 36.8636 105.992 37.5511 106.31 38.3864C106.629 39.2159 106.788 40.2045 106.788 41.3523V42.2983H96.0575V40.2188H103.83C103.825 39.6278 103.697 39.1023 103.447 38.642C103.197 38.1761 102.847 37.8097 102.398 37.5426C101.955 37.2756 101.438 37.142 100.847 37.142C100.217 37.142 99.6626 37.2955 99.1854 37.6023C98.7081 37.9034 98.3359 38.3011 98.0689 38.7955C97.8075 39.2841 97.674 39.821 97.6683 40.4062V42.2216C97.6683 42.983 97.8075 43.6364 98.0859 44.1818C98.3643 44.7216 98.7536 45.1364 99.2536 45.4261C99.7536 45.7102 100.339 45.8523 101.009 45.8523C101.458 45.8523 101.864 45.7898 102.228 45.6648C102.592 45.5341 102.907 45.3438 103.174 45.0938C103.441 44.8438 103.643 44.5341 103.779 44.1648L106.66 44.4886C106.478 45.25 106.131 45.9148 105.62 46.483C105.114 47.0455 104.467 47.483 103.677 47.7955C102.887 48.1023 101.984 48.2557 100.967 48.2557ZM113.165 48.2642C112.335 48.2642 111.588 48.1165 110.923 47.821C110.264 47.5199 109.741 47.0767 109.355 46.4915C108.974 45.9062 108.784 45.1847 108.784 44.3267C108.784 43.5881 108.92 42.9773 109.193 42.4943C109.466 42.0114 109.838 41.625 110.31 41.3352C110.781 41.0455 111.313 40.8267 111.903 40.679C112.5 40.5256 113.116 40.4148 113.753 40.3466C114.52 40.267 115.142 40.196 115.619 40.1335C116.097 40.0653 116.443 39.9631 116.659 39.8267C116.881 39.6847 116.991 39.4659 116.991 39.1705V39.1193C116.991 38.4773 116.801 37.9801 116.42 37.6278C116.04 37.2756 115.491 37.0994 114.776 37.0994C114.02 37.0994 113.42 37.2642 112.977 37.5938C112.54 37.9233 112.244 38.3125 112.091 38.7614L109.21 38.3523C109.438 37.5568 109.813 36.892 110.335 36.358C110.858 35.8182 111.497 35.4148 112.253 35.1477C113.009 34.875 113.844 34.7386 114.759 34.7386C115.389 34.7386 116.017 34.8125 116.642 34.9602C117.267 35.108 117.838 35.3523 118.355 35.6932C118.872 36.0284 119.287 36.4858 119.599 37.0653C119.918 37.6449 120.077 38.3693 120.077 39.2386V48H117.111V46.2017H117.009C116.821 46.5653 116.557 46.9062 116.216 47.2244C115.881 47.5369 115.457 47.7898 114.946 47.983C114.44 48.1705 113.847 48.2642 113.165 48.2642ZM113.966 45.9972C114.585 45.9972 115.122 45.875 115.577 45.6307C116.031 45.3807 116.381 45.0511 116.625 44.642C116.875 44.233 117 43.7869 117 43.304V41.7614C116.903 41.8409 116.739 41.9148 116.506 41.983C116.278 42.0511 116.023 42.1108 115.739 42.1619C115.455 42.2131 115.173 42.2585 114.895 42.2983C114.616 42.3381 114.375 42.3722 114.17 42.4006C113.71 42.4631 113.298 42.5653 112.935 42.7074C112.571 42.8494 112.284 43.0483 112.074 43.304C111.864 43.554 111.759 43.8778 111.759 44.2756C111.759 44.8438 111.966 45.2727 112.381 45.5625C112.795 45.8523 113.324 45.9972 113.966 45.9972ZM123.179 48V34.9091H126.17V37.0909H126.307C126.545 36.3352 126.955 35.7528 127.534 35.3438C128.119 34.929 128.787 34.7216 129.537 34.7216C129.707 34.7216 129.898 34.7301 130.108 34.7472C130.324 34.7585 130.503 34.7784 130.645 34.8068V37.6449C130.514 37.5994 130.307 37.5597 130.023 37.5256C129.744 37.4858 129.474 37.4659 129.213 37.4659C128.651 37.4659 128.145 37.5881 127.696 37.8324C127.253 38.071 126.903 38.4034 126.648 38.8295C126.392 39.2557 126.264 39.7472 126.264 40.304V48H123.179ZM137.866 48.2557C136.559 48.2557 135.437 47.9688 134.499 47.3949C133.567 46.821 132.849 46.0284 132.343 45.017C131.843 44 131.593 42.8295 131.593 41.5057C131.593 40.1761 131.849 39.0028 132.36 37.9858C132.871 36.9631 133.593 36.1676 134.525 35.5994C135.462 35.0256 136.57 34.7386 137.849 34.7386C138.911 34.7386 139.852 34.9347 140.67 35.3267C141.494 35.7131 142.15 36.2614 142.638 36.9716C143.127 37.6761 143.406 38.5 143.474 39.4432H140.525C140.406 38.8125 140.121 38.2869 139.673 37.8665C139.229 37.4403 138.636 37.2273 137.891 37.2273C137.261 37.2273 136.707 37.3977 136.229 37.7386C135.752 38.0739 135.38 38.5568 135.113 39.1875C134.852 39.8182 134.721 40.5739 134.721 41.4545C134.721 42.3466 134.852 43.1136 135.113 43.7557C135.374 44.392 135.741 44.8835 136.212 45.2301C136.69 45.571 137.249 45.7415 137.891 45.7415C138.346 45.7415 138.752 45.6562 139.11 45.4858C139.474 45.3097 139.778 45.0568 140.022 44.7273C140.266 44.3977 140.434 43.9972 140.525 43.5256H143.474C143.4 44.4517 143.127 45.2727 142.656 45.9886C142.184 46.6989 141.542 47.2557 140.729 47.6591C139.917 48.0568 138.962 48.2557 137.866 48.2557ZM149.092 40.3295V48H146.007V30.5455H149.024V37.1335H149.178C149.484 36.3949 149.959 35.8125 150.601 35.3864C151.249 34.9545 152.072 34.7386 153.072 34.7386C153.982 34.7386 154.774 34.929 155.45 35.3097C156.126 35.6903 156.649 36.2472 157.018 36.9801C157.393 37.7131 157.581 38.608 157.581 39.6648V48H154.496V40.142C154.496 39.2614 154.268 38.5767 153.814 38.0881C153.365 37.5937 152.734 37.3466 151.922 37.3466C151.376 37.3466 150.888 37.4659 150.456 37.7045C150.03 37.9375 149.695 38.2756 149.45 38.7188C149.212 39.1619 149.092 39.6989 149.092 40.3295ZM162.626 48.1875C162.109 48.1875 161.666 48.0057 161.297 47.642C160.928 47.2784 160.746 46.8352 160.751 46.3125C160.746 45.8011 160.928 45.3636 161.297 45C161.666 44.6364 162.109 44.4545 162.626 44.4545C163.126 44.4545 163.561 44.6364 163.93 45C164.305 45.3636 164.496 45.8011 164.501 46.3125C164.496 46.6591 164.405 46.9744 164.229 47.2585C164.058 47.5426 163.831 47.7699 163.547 47.9403C163.268 48.1051 162.962 48.1875 162.626 48.1875ZM169.587 48.1875C169.07 48.1875 168.627 48.0057 168.258 47.642C167.888 47.2784 167.707 46.8352 167.712 46.3125C167.707 45.8011 167.888 45.3636 168.258 45C168.627 44.6364 169.07 44.4545 169.587 44.4545C170.087 44.4545 170.522 44.6364 170.891 45C171.266 45.3636 171.457 45.8011 171.462 46.3125C171.457 46.6591 171.366 46.9744 171.19 47.2585C171.019 47.5426 170.792 47.7699 170.508 47.9403C170.229 48.1051 169.923 48.1875 169.587 48.1875ZM176.548 48.1875C176.031 48.1875 175.588 48.0057 175.219 47.642C174.849 47.2784 174.668 46.8352 174.673 46.3125C174.668 45.8011 174.849 45.3636 175.219 45C175.588 44.6364 176.031 44.4545 176.548 44.4545C177.048 44.4545 177.483 44.6364 177.852 45C178.227 45.3636 178.418 45.8011 178.423 46.3125C178.418 46.6591 178.327 46.9744 178.151 47.2585C177.98 47.5426 177.753 47.7699 177.469 47.9403C177.19 48.1051 176.884 48.1875 176.548 48.1875Z" fill="#1F2937"/>
</svg>
