<svg width="1109" height="216" viewBox="0 0 1109 216" fill="none" xmlns="http://www.w3.org/2000/svg">
<rect x="0.5" y="0.5" width="1108" height="215" rx="4.5" stroke="#8A38F5" stroke-dasharray="10 5"/>
<rect x="20" y="20" width="1069" height="78" rx="8" fill="white"/>
<path d="M76.25 76.25L64.7502 64.75M68.5833 55.1667C68.5833 62.5765 62.5765 68.5833 55.1667 68.5833C47.7568 68.5833 41.75 62.5765 41.75 55.1667C41.75 47.7568 47.7568 41.75 55.1667 41.75C62.5765 41.75 68.5833 47.7568 68.5833 55.1667Z" stroke="#807373" stroke-width="3.83333" stroke-linecap="round" stroke-linejoin="round"/>
<path d="M109.207 55.3438C109.128 54.5994 108.793 54.0199 108.202 53.6051C107.616 53.1903 106.855 52.983 105.918 52.983C105.259 52.983 104.693 53.0824 104.222 53.2812C103.75 53.4801 103.389 53.75 103.139 54.0909C102.889 54.4318 102.761 54.821 102.756 55.2585C102.756 55.6222 102.838 55.9375 103.003 56.2045C103.173 56.4716 103.403 56.6989 103.693 56.8864C103.983 57.0682 104.304 57.2216 104.656 57.3466C105.009 57.4716 105.364 57.5767 105.722 57.6619L107.358 58.071C108.017 58.2244 108.651 58.4318 109.259 58.6932C109.872 58.9545 110.42 59.2841 110.903 59.6818C111.392 60.0795 111.778 60.5597 112.062 61.1222C112.347 61.6847 112.489 62.3437 112.489 63.0994C112.489 64.1222 112.227 65.0227 111.705 65.8011C111.182 66.5739 110.426 67.179 109.438 67.6165C108.455 68.0483 107.264 68.2642 105.866 68.2642C104.509 68.2642 103.33 68.054 102.33 67.6335C101.335 67.2131 100.557 66.5994 99.9943 65.7926C99.4375 64.9858 99.1364 64.0028 99.0909 62.8438H102.202C102.247 63.4517 102.435 63.9574 102.764 64.3608C103.094 64.7642 103.523 65.0653 104.051 65.2642C104.585 65.4631 105.182 65.5625 105.841 65.5625C106.528 65.5625 107.131 65.4602 107.648 65.2557C108.17 65.0455 108.58 64.7557 108.875 64.3864C109.17 64.0114 109.321 63.5739 109.327 63.0739C109.321 62.6193 109.188 62.2443 108.926 61.9489C108.665 61.6477 108.298 61.3977 107.827 61.1989C107.361 60.9943 106.815 60.8125 106.19 60.6534L104.205 60.142C102.767 59.7727 101.631 59.2131 100.795 58.4631C99.9659 57.7074 99.5511 56.7045 99.5511 55.4545C99.5511 54.4261 99.8295 53.5256 100.386 52.7528C100.949 51.9801 101.713 51.3807 102.679 50.9545C103.645 50.5227 104.739 50.3068 105.96 50.3068C107.199 50.3068 108.284 50.5227 109.216 50.9545C110.153 51.3807 110.889 51.9744 111.423 52.7358C111.957 53.4915 112.233 54.3608 112.25 55.3438H109.207ZM120.967 68.2557C119.654 68.2557 118.521 67.983 117.566 67.4375C116.617 66.8864 115.887 66.108 115.376 65.1023C114.864 64.0909 114.609 62.9006 114.609 61.5312C114.609 60.1847 114.864 59.0028 115.376 57.9858C115.893 56.9631 116.614 56.1676 117.54 55.5994C118.467 55.0256 119.555 54.7386 120.805 54.7386C121.612 54.7386 122.373 54.8693 123.089 55.1307C123.81 55.3864 124.447 55.7841 124.998 56.3239C125.555 56.8636 125.992 57.5511 126.31 58.3864C126.629 59.2159 126.788 60.2045 126.788 61.3523V62.2983H116.058V60.2188H123.83C123.825 59.6278 123.697 59.1023 123.447 58.642C123.197 58.1761 122.847 57.8097 122.398 57.5426C121.955 57.2756 121.438 57.142 120.847 57.142C120.217 57.142 119.663 57.2955 119.185 57.6023C118.708 57.9034 118.336 58.3011 118.069 58.7955C117.808 59.2841 117.674 59.821 117.668 60.4062V62.2216C117.668 62.983 117.808 63.6364 118.086 64.1818C118.364 64.7216 118.754 65.1364 119.254 65.4261C119.754 65.7102 120.339 65.8523 121.009 65.8523C121.458 65.8523 121.864 65.7898 122.228 65.6648C122.592 65.5341 122.907 65.3438 123.174 65.0938C123.441 64.8438 123.643 64.5341 123.779 64.1648L126.66 64.4886C126.478 65.25 126.131 65.9148 125.62 66.483C125.114 67.0455 124.467 67.483 123.677 67.7955C122.887 68.1023 121.984 68.2557 120.967 68.2557ZM133.165 68.2642C132.335 68.2642 131.588 68.1165 130.923 67.821C130.264 67.5199 129.741 67.0767 129.355 66.4915C128.974 65.9062 128.784 65.1847 128.784 64.3267C128.784 63.5881 128.92 62.9773 129.193 62.4943C129.466 62.0114 129.838 61.625 130.31 61.3352C130.781 61.0455 131.313 60.8267 131.903 60.679C132.5 60.5256 133.116 60.4148 133.753 60.3466C134.52 60.267 135.142 60.196 135.619 60.1335C136.097 60.0653 136.443 59.9631 136.659 59.8267C136.881 59.6847 136.991 59.4659 136.991 59.1705V59.1193C136.991 58.4773 136.801 57.9801 136.42 57.6278C136.04 57.2756 135.491 57.0994 134.776 57.0994C134.02 57.0994 133.42 57.2642 132.977 57.5938C132.54 57.9233 132.244 58.3125 132.091 58.7614L129.21 58.3523C129.438 57.5568 129.813 56.892 130.335 56.358C130.858 55.8182 131.497 55.4148 132.253 55.1477C133.009 54.875 133.844 54.7386 134.759 54.7386C135.389 54.7386 136.017 54.8125 136.642 54.9602C137.267 55.108 137.838 55.3523 138.355 55.6932C138.872 56.0284 139.287 56.4858 139.599 57.0653C139.918 57.6449 140.077 58.3693 140.077 59.2386V68H137.111V66.2017H137.009C136.821 66.5653 136.557 66.9062 136.216 67.2244C135.881 67.5369 135.457 67.7898 134.946 67.983C134.44 68.1705 133.847 68.2642 133.165 68.2642ZM133.966 65.9972C134.585 65.9972 135.122 65.875 135.577 65.6307C136.031 65.3807 136.381 65.0511 136.625 64.642C136.875 64.233 137 63.7869 137 63.304V61.7614C136.903 61.8409 136.739 61.9148 136.506 61.983C136.278 62.0511 136.023 62.1108 135.739 62.1619C135.455 62.2131 135.173 62.2585 134.895 62.2983C134.616 62.3381 134.375 62.3722 134.17 62.4006C133.71 62.4631 133.298 62.5653 132.935 62.7074C132.571 62.8494 132.284 63.0483 132.074 63.304C131.864 63.554 131.759 63.8778 131.759 64.2756C131.759 64.8438 131.966 65.2727 132.381 65.5625C132.795 65.8523 133.324 65.9972 133.966 65.9972ZM143.179 68V54.9091H146.17V57.0909H146.307C146.545 56.3352 146.955 55.7528 147.534 55.3438C148.119 54.929 148.787 54.7216 149.537 54.7216C149.707 54.7216 149.898 54.7301 150.108 54.7472C150.324 54.7585 150.503 54.7784 150.645 54.8068V57.6449C150.514 57.5994 150.307 57.5597 150.023 57.5256C149.744 57.4858 149.474 57.4659 149.213 57.4659C148.651 57.4659 148.145 57.5881 147.696 57.8324C147.253 58.071 146.903 58.4034 146.648 58.8295C146.392 59.2557 146.264 59.7472 146.264 60.304V68H143.179ZM157.866 68.2557C156.559 68.2557 155.437 67.9688 154.499 67.3949C153.567 66.821 152.849 66.0284 152.343 65.017C151.843 64 151.593 62.8295 151.593 61.5057C151.593 60.1761 151.849 59.0028 152.36 57.9858C152.871 56.9631 153.593 56.1676 154.525 55.5994C155.462 55.0256 156.57 54.7386 157.849 54.7386C158.911 54.7386 159.852 54.9347 160.67 55.3267C161.494 55.7131 162.15 56.2614 162.638 56.9716C163.127 57.6761 163.406 58.5 163.474 59.4432H160.525C160.406 58.8125 160.121 58.2869 159.673 57.8665C159.229 57.4403 158.636 57.2273 157.891 57.2273C157.261 57.2273 156.707 57.3977 156.229 57.7386C155.752 58.0739 155.38 58.5568 155.113 59.1875C154.852 59.8182 154.721 60.5739 154.721 61.4545C154.721 62.3466 154.852 63.1136 155.113 63.7557C155.374 64.392 155.741 64.8835 156.212 65.2301C156.69 65.571 157.249 65.7415 157.891 65.7415C158.346 65.7415 158.752 65.6562 159.11 65.4858C159.474 65.3097 159.778 65.0568 160.022 64.7273C160.266 64.3977 160.434 63.9972 160.525 63.5256H163.474C163.4 64.4517 163.127 65.2727 162.656 65.9886C162.184 66.6989 161.542 67.2557 160.729 67.6591C159.917 68.0568 158.962 68.2557 157.866 68.2557ZM169.092 60.3295V68H166.007V50.5455H169.024V57.1335H169.178C169.484 56.3949 169.959 55.8125 170.601 55.3864C171.249 54.9545 172.072 54.7386 173.072 54.7386C173.982 54.7386 174.774 54.929 175.45 55.3097C176.126 55.6903 176.649 56.2472 177.018 56.9801C177.393 57.7131 177.581 58.608 177.581 59.6648V68H174.496V60.142C174.496 59.2614 174.268 58.5767 173.814 58.0881C173.365 57.5937 172.734 57.3466 171.922 57.3466C171.376 57.3466 170.888 57.4659 170.456 57.7045C170.03 57.9375 169.695 58.2756 169.45 58.7188C169.212 59.1619 169.092 59.6989 169.092 60.3295ZM182.626 68.1875C182.109 68.1875 181.666 68.0057 181.297 67.642C180.928 67.2784 180.746 66.8352 180.751 66.3125C180.746 65.8011 180.928 65.3636 181.297 65C181.666 64.6364 182.109 64.4545 182.626 64.4545C183.126 64.4545 183.561 64.6364 183.93 65C184.305 65.3636 184.496 65.8011 184.501 66.3125C184.496 66.6591 184.405 66.9744 184.229 67.2585C184.058 67.5426 183.831 67.7699 183.547 67.9403C183.268 68.1051 182.962 68.1875 182.626 68.1875ZM189.587 68.1875C189.07 68.1875 188.627 68.0057 188.258 67.642C187.888 67.2784 187.707 66.8352 187.712 66.3125C187.707 65.8011 187.888 65.3636 188.258 65C188.627 64.6364 189.07 64.4545 189.587 64.4545C190.087 64.4545 190.522 64.6364 190.891 65C191.266 65.3636 191.457 65.8011 191.462 66.3125C191.457 66.6591 191.366 66.9744 191.19 67.2585C191.019 67.5426 190.792 67.7699 190.508 67.9403C190.229 68.1051 189.923 68.1875 189.587 68.1875ZM196.548 68.1875C196.031 68.1875 195.588 68.0057 195.219 67.642C194.849 67.2784 194.668 66.8352 194.673 66.3125C194.668 65.8011 194.849 65.3636 195.219 65C195.588 64.6364 196.031 64.4545 196.548 64.4545C197.048 64.4545 197.483 64.6364 197.852 65C198.227 65.3636 198.418 65.8011 198.423 66.3125C198.418 66.6591 198.327 66.9744 198.151 67.2585C197.98 67.5426 197.753 67.7699 197.469 67.9403C197.19 68.1051 196.884 68.1875 196.548 68.1875Z" fill="#1F2937"/>
<rect x="20" y="118" width="351" height="38" rx="8" fill="white"/>
<path d="M56 146L50.0001 140M52 135C52 138.866 48.866 142 45 142C41.134 142 38 138.866 38 135C38 131.134 41.134 128 45 128C48.866 128 52 131.134 52 135Z" stroke="#807373" stroke-width="2" stroke-linecap="round" stroke-linejoin="round"/>
<path d="M71.7727 134.273C71.7045 133.697 71.428 133.25 70.9432 132.932C70.4583 132.614 69.8636 132.455 69.1591 132.455C68.6439 132.455 68.1932 132.538 67.8068 132.705C67.4242 132.871 67.125 133.1 66.9091 133.392C66.697 133.684 66.5909 134.015 66.5909 134.386C66.5909 134.697 66.6648 134.964 66.8125 135.188C66.964 135.407 67.1572 135.591 67.392 135.739C67.6269 135.883 67.8731 136.002 68.1307 136.097C68.3883 136.187 68.625 136.261 68.8409 136.318L70.0227 136.636C70.3258 136.716 70.6629 136.826 71.0341 136.966C71.4091 137.106 71.767 137.297 72.108 137.54C72.4527 137.778 72.7367 138.085 72.9602 138.46C73.1837 138.835 73.2955 139.295 73.2955 139.841C73.2955 140.47 73.1307 141.038 72.8011 141.545C72.4754 142.053 71.9981 142.456 71.3693 142.756C70.7443 143.055 69.9848 143.205 69.0909 143.205C68.2576 143.205 67.536 143.07 66.9261 142.801C66.3201 142.532 65.8428 142.157 65.4943 141.676C65.1496 141.195 64.9545 140.636 64.9091 140H66.3636C66.4015 140.439 66.5492 140.803 66.8068 141.091C67.0682 141.375 67.3977 141.587 67.7955 141.727C68.197 141.864 68.6288 141.932 69.0909 141.932C69.6288 141.932 70.1117 141.845 70.5398 141.67C70.9678 141.492 71.3068 141.246 71.5568 140.932C71.8068 140.614 71.9318 140.242 71.9318 139.818C71.9318 139.432 71.8239 139.117 71.608 138.875C71.392 138.633 71.108 138.436 70.7557 138.284C70.4034 138.133 70.0227 138 69.6136 137.886L68.1818 137.477C67.2727 137.216 66.553 136.843 66.0227 136.358C65.4924 135.873 65.2273 135.239 65.2273 134.455C65.2273 133.803 65.4034 133.235 65.7557 132.75C66.1117 132.261 66.589 131.883 67.1875 131.614C67.7898 131.341 68.4621 131.205 69.2045 131.205C69.9545 131.205 70.6212 131.339 71.2045 131.608C71.7879 131.873 72.25 132.237 72.5909 132.699C72.9356 133.161 73.1174 133.686 73.1364 134.273H71.7727ZM78.7695 143.182C77.9286 143.182 77.2032 142.996 76.5934 142.625C75.9873 142.25 75.5195 141.727 75.1899 141.057C74.8642 140.383 74.7013 139.598 74.7013 138.705C74.7013 137.811 74.8642 137.023 75.1899 136.341C75.5195 135.655 75.9778 135.121 76.5649 134.739C77.1559 134.352 77.8452 134.159 78.6331 134.159C79.0877 134.159 79.5365 134.235 79.9797 134.386C80.4229 134.538 80.8263 134.784 81.1899 135.125C81.5536 135.462 81.8434 135.909 82.0593 136.466C82.2752 137.023 82.3831 137.708 82.3831 138.523V139.091H75.6559V137.932H81.0195C81.0195 137.439 80.921 137 80.724 136.614C80.5309 136.227 80.2543 135.922 79.8945 135.699C79.5384 135.475 79.118 135.364 78.6331 135.364C78.099 135.364 77.6369 135.496 77.2468 135.761C76.8604 136.023 76.563 136.364 76.3547 136.784C76.1464 137.205 76.0422 137.655 76.0422 138.136V138.909C76.0422 139.568 76.1559 140.127 76.3831 140.585C76.6142 141.04 76.9343 141.386 77.3434 141.625C77.7524 141.86 78.2278 141.977 78.7695 141.977C79.1218 141.977 79.4399 141.928 79.724 141.83C80.0119 141.727 80.26 141.576 80.4684 141.375C80.6767 141.17 80.8377 140.917 80.9513 140.614L82.2468 140.977C82.1104 141.417 81.8812 141.803 81.5593 142.136C81.2373 142.466 80.8396 142.723 80.3661 142.909C79.8926 143.091 79.3604 143.182 78.7695 143.182ZM86.6711 143.205C86.1181 143.205 85.6162 143.1 85.1654 142.892C84.7146 142.68 84.3567 142.375 84.0915 141.977C83.8264 141.576 83.6938 141.091 83.6938 140.523C83.6938 140.023 83.7923 139.617 83.9893 139.307C84.1862 138.992 84.4495 138.746 84.779 138.568C85.1086 138.39 85.4722 138.258 85.8699 138.17C86.2715 138.08 86.6749 138.008 87.0802 137.955C87.6105 137.886 88.0404 137.835 88.3699 137.801C88.7033 137.763 88.9457 137.701 89.0972 137.614C89.2525 137.527 89.3302 137.375 89.3302 137.159V137.114C89.3302 136.553 89.1768 136.117 88.8699 135.807C88.5669 135.496 88.1067 135.341 87.4893 135.341C86.8491 135.341 86.3472 135.481 85.9836 135.761C85.6199 136.042 85.3643 136.341 85.2165 136.659L83.9438 136.205C84.1711 135.674 84.4741 135.261 84.8529 134.966C85.2355 134.667 85.6521 134.458 86.1029 134.341C86.5574 134.22 87.0044 134.159 87.4438 134.159C87.7241 134.159 88.0461 134.193 88.4097 134.261C88.7771 134.326 89.1313 134.46 89.4722 134.665C89.8169 134.869 90.1029 135.178 90.3302 135.591C90.5574 136.004 90.6711 136.557 90.6711 137.25V143H89.3302V141.818H89.262C89.1711 142.008 89.0196 142.21 88.8074 142.426C88.5953 142.642 88.3131 142.826 87.9609 142.977C87.6086 143.129 87.1787 143.205 86.6711 143.205ZM86.8756 142C87.4059 142 87.8529 141.896 88.2165 141.688C88.584 141.479 88.8605 141.21 89.0461 140.881C89.2355 140.551 89.3302 140.205 89.3302 139.841V138.614C89.2734 138.682 89.1484 138.744 88.9552 138.801C88.7658 138.854 88.5461 138.902 88.2961 138.943C88.0499 138.981 87.8093 139.015 87.5745 139.045C87.3434 139.072 87.1559 139.095 87.012 139.114C86.6635 139.159 86.3377 139.233 86.0347 139.335C85.7355 139.434 85.493 139.583 85.3074 139.784C85.1256 139.981 85.0347 140.25 85.0347 140.591C85.0347 141.057 85.2071 141.409 85.5518 141.648C85.9002 141.883 86.3415 142 86.8756 142ZM92.7985 143V134.273H94.094V135.591H94.1849C94.344 135.159 94.6319 134.809 95.0485 134.54C95.4652 134.271 95.9349 134.136 96.4576 134.136C96.5561 134.136 96.6792 134.138 96.8269 134.142C96.9747 134.146 97.0864 134.152 97.1622 134.159V135.523C97.1167 135.511 97.0125 135.494 96.8497 135.472C96.6906 135.445 96.522 135.432 96.344 135.432C95.9197 135.432 95.5409 135.521 95.2076 135.699C94.8781 135.873 94.6167 136.116 94.4235 136.426C94.2341 136.733 94.1394 137.083 94.1394 137.477V143H92.7985ZM101.711 143.182C100.893 143.182 100.189 142.989 99.5978 142.602C99.0069 142.216 98.5524 141.684 98.2342 141.006C97.916 140.328 97.7569 139.553 97.7569 138.682C97.7569 137.795 97.9198 137.013 98.2456 136.335C98.5751 135.653 99.0334 135.121 99.6206 134.739C100.211 134.352 100.901 134.159 101.689 134.159C102.302 134.159 102.855 134.273 103.348 134.5C103.84 134.727 104.244 135.045 104.558 135.455C104.872 135.864 105.068 136.341 105.143 136.886H103.802C103.7 136.489 103.473 136.136 103.121 135.83C102.772 135.519 102.302 135.364 101.711 135.364C101.189 135.364 100.73 135.5 100.336 135.773C99.9463 136.042 99.6414 136.422 99.4217 136.915C99.2058 137.403 99.0978 137.977 99.0978 138.636C99.0978 139.311 99.2039 139.898 99.416 140.398C99.6319 140.898 99.935 141.286 100.325 141.562C100.719 141.839 101.181 141.977 101.711 141.977C102.06 141.977 102.376 141.917 102.66 141.795C102.944 141.674 103.185 141.5 103.382 141.273C103.579 141.045 103.719 140.773 103.802 140.455H105.143C105.068 140.97 104.88 141.434 104.581 141.847C104.285 142.256 103.893 142.581 103.405 142.824C102.92 143.062 102.355 143.182 101.711 143.182ZM108.124 137.75V143H106.784V131.364H108.124V135.636H108.238C108.443 135.186 108.749 134.828 109.159 134.562C109.571 134.294 110.121 134.159 110.806 134.159C111.401 134.159 111.922 134.278 112.369 134.517C112.816 134.752 113.162 135.114 113.409 135.602C113.659 136.087 113.784 136.705 113.784 137.455V143H112.443V137.545C112.443 136.852 112.263 136.316 111.903 135.938C111.547 135.555 111.052 135.364 110.42 135.364C109.98 135.364 109.587 135.456 109.238 135.642C108.893 135.828 108.621 136.098 108.42 136.455C108.223 136.811 108.124 137.242 108.124 137.75ZM116.894 143.091C116.614 143.091 116.373 142.991 116.172 142.79C115.972 142.589 115.871 142.348 115.871 142.068C115.871 141.788 115.972 141.547 116.172 141.347C116.373 141.146 116.614 141.045 116.894 141.045C117.174 141.045 117.415 141.146 117.616 141.347C117.816 141.547 117.917 141.788 117.917 142.068C117.917 142.254 117.869 142.424 117.775 142.58C117.684 142.735 117.561 142.86 117.405 142.955C117.254 143.045 117.083 143.091 116.894 143.091ZM120.98 143.091C120.7 143.091 120.459 142.991 120.259 142.79C120.058 142.589 119.957 142.348 119.957 142.068C119.957 141.788 120.058 141.547 120.259 141.347C120.459 141.146 120.7 141.045 120.98 141.045C121.26 141.045 121.501 141.146 121.702 141.347C121.903 141.547 122.003 141.788 122.003 142.068C122.003 142.254 121.956 142.424 121.861 142.58C121.77 142.735 121.647 142.86 121.492 142.955C121.34 143.045 121.17 143.091 120.98 143.091ZM125.066 143.091C124.786 143.091 124.546 142.991 124.345 142.79C124.144 142.589 124.044 142.348 124.044 142.068C124.044 141.788 124.144 141.547 124.345 141.347C124.546 141.146 124.786 141.045 125.066 141.045C125.347 141.045 125.587 141.146 125.788 141.347C125.989 141.547 126.089 141.788 126.089 142.068C126.089 142.254 126.042 142.424 125.947 142.58C125.856 142.735 125.733 142.86 125.578 142.955C125.426 143.045 125.256 143.091 125.066 143.091Z" fill="#1F2937"/>
</svg>
