<svg width="116" height="46" viewBox="0 0 116 46" fill="none" xmlns="http://www.w3.org/2000/svg">
<rect x="1" y="1" width="114" height="44" rx="9" stroke="#1E88E5" stroke-width="2"/>
<path d="M38.9716 20.5625C38.9186 20.0663 38.6951 19.6799 38.3011 19.4034C37.911 19.1269 37.4034 18.9886 36.7784 18.9886C36.339 18.9886 35.9621 19.0549 35.6477 19.1875C35.3333 19.3201 35.0928 19.5 34.9261 19.7273C34.7595 19.9545 34.6742 20.214 34.6705 20.5057C34.6705 20.7481 34.7254 20.9583 34.8352 21.1364C34.9489 21.3144 35.1023 21.4659 35.2955 21.5909C35.4886 21.7121 35.7027 21.8144 35.9375 21.8977C36.1723 21.9811 36.4091 22.0511 36.6477 22.108L37.7386 22.3807C38.178 22.483 38.6004 22.6212 39.0057 22.7955C39.4148 22.9697 39.7803 23.1894 40.1023 23.4545C40.428 23.7197 40.6856 24.0398 40.875 24.4148C41.0644 24.7898 41.1591 25.2292 41.1591 25.733C41.1591 26.4148 40.9848 27.0152 40.6364 27.5341C40.2879 28.0492 39.7841 28.4527 39.125 28.7443C38.4697 29.0322 37.6761 29.1761 36.7443 29.1761C35.839 29.1761 35.053 29.036 34.3864 28.7557C33.7235 28.4754 33.2045 28.0663 32.8295 27.5284C32.4583 26.9905 32.2576 26.3352 32.2273 25.5625H34.3011C34.3314 25.9678 34.4564 26.3049 34.6761 26.5739C34.8958 26.8428 35.1818 27.0436 35.5341 27.1761C35.8902 27.3087 36.2879 27.375 36.7273 27.375C37.1856 27.375 37.5871 27.3068 37.9318 27.1705C38.2803 27.0303 38.553 26.8371 38.75 26.5909C38.947 26.3409 39.0473 26.0492 39.0511 25.7159C39.0473 25.4129 38.9583 25.1629 38.7841 24.9659C38.6098 24.7652 38.3655 24.5985 38.0511 24.4659C37.7405 24.3295 37.3769 24.2083 36.9602 24.1023L35.6364 23.7614C34.678 23.5152 33.9205 23.142 33.3636 22.642C32.8106 22.1383 32.5341 21.4697 32.5341 20.6364C32.5341 19.9508 32.7197 19.3504 33.0909 18.8352C33.4659 18.3201 33.9754 17.9205 34.6193 17.6364C35.2633 17.3485 35.9924 17.2045 36.8068 17.2045C37.6326 17.2045 38.3561 17.3485 38.9773 17.6364C39.6023 17.9205 40.0928 18.3163 40.4489 18.8239C40.8049 19.3277 40.9886 19.9072 41 20.5625H38.9716ZM42.9474 29V20.2727H45.0043V29H42.9474ZM43.9815 19.0341C43.6558 19.0341 43.3755 18.9261 43.1406 18.7102C42.9058 18.4905 42.7884 18.2273 42.7884 17.9205C42.7884 17.6098 42.9058 17.3466 43.1406 17.1307C43.3755 16.911 43.6558 16.8011 43.9815 16.8011C44.3111 16.8011 44.5914 16.911 44.8224 17.1307C45.0573 17.3466 45.1747 17.6098 45.1747 17.9205C45.1747 18.2273 45.0573 18.4905 44.8224 18.7102C44.5914 18.9261 44.3111 19.0341 43.9815 19.0341ZM50.9148 32.4545C50.1761 32.4545 49.5417 32.3542 49.0114 32.1534C48.4811 31.9564 48.0549 31.6913 47.733 31.358C47.411 31.0246 47.1875 30.6553 47.0625 30.25L48.9148 29.8011C48.9981 29.9716 49.1193 30.1402 49.2784 30.3068C49.4375 30.4773 49.6515 30.6174 49.9205 30.7273C50.1932 30.8409 50.536 30.8977 50.9489 30.8977C51.5322 30.8977 52.0152 30.7557 52.3977 30.4716C52.7803 30.1913 52.9716 29.7292 52.9716 29.0852V27.4318H52.8693C52.7633 27.6439 52.608 27.8617 52.4034 28.0852C52.2027 28.3087 51.9356 28.4962 51.6023 28.6477C51.2727 28.7992 50.858 28.875 50.358 28.875C49.6875 28.875 49.0795 28.7178 48.5341 28.4034C47.9924 28.0852 47.5606 27.6117 47.2386 26.983C46.9205 26.3504 46.7614 25.5587 46.7614 24.608C46.7614 23.6496 46.9205 22.8409 47.2386 22.1818C47.5606 21.5189 47.9943 21.017 48.5398 20.6761C49.0852 20.3314 49.6932 20.1591 50.3636 20.1591C50.875 20.1591 51.2955 20.2462 51.625 20.4205C51.9583 20.5909 52.2235 20.7973 52.4205 21.0398C52.6174 21.2784 52.767 21.5038 52.8693 21.7159H52.983V20.2727H55.0114V29.142C55.0114 29.8883 54.8333 30.5057 54.4773 30.9943C54.1212 31.483 53.6345 31.8485 53.017 32.0909C52.3996 32.3333 51.6989 32.4545 50.9148 32.4545ZM50.9318 27.2614C51.3674 27.2614 51.7386 27.1553 52.0455 26.9432C52.3523 26.7311 52.5852 26.4261 52.7443 26.0284C52.9034 25.6307 52.983 25.1534 52.983 24.5966C52.983 24.0473 52.9034 23.5663 52.7443 23.1534C52.589 22.7405 52.358 22.4205 52.0511 22.1932C51.7481 21.9621 51.375 21.8466 50.9318 21.8466C50.4735 21.8466 50.0909 21.9659 49.7841 22.2045C49.4773 22.4432 49.2462 22.7708 49.0909 23.1875C48.9356 23.6004 48.858 24.0701 48.858 24.5966C48.858 25.1307 48.9356 25.5985 49.0909 26C49.25 26.3977 49.483 26.7083 49.7898 26.9318C50.1004 27.1515 50.4811 27.2614 50.9318 27.2614ZM59.1761 23.8864V29H57.1193V20.2727H59.0852V21.7557H59.1875C59.3883 21.267 59.7083 20.8788 60.1477 20.5909C60.5909 20.303 61.1383 20.1591 61.7898 20.1591C62.392 20.1591 62.9167 20.2879 63.3636 20.5455C63.8144 20.803 64.1629 21.1761 64.4091 21.6648C64.6591 22.1534 64.7822 22.7462 64.7784 23.4432V29H62.7216V23.7614C62.7216 23.178 62.5701 22.7216 62.267 22.392C61.9678 22.0625 61.553 21.8977 61.0227 21.8977C60.6629 21.8977 60.3428 21.9773 60.0625 22.1364C59.786 22.2917 59.5682 22.517 59.4091 22.8125C59.2538 23.108 59.1761 23.4659 59.1761 23.8864ZM73.0369 17.3636V29H70.929V17.3636H73.0369ZM77.2855 23.8864V29H75.2287V20.2727H77.1946V21.7557H77.2969C77.4976 21.267 77.8177 20.8788 78.2571 20.5909C78.7003 20.303 79.2476 20.1591 79.8991 20.1591C80.5014 20.1591 81.026 20.2879 81.473 20.5455C81.9238 20.803 82.2723 21.1761 82.5185 21.6648C82.7685 22.1534 82.8916 22.7462 82.8878 23.4432V29H80.831V23.7614C80.831 23.178 80.6795 22.7216 80.3764 22.392C80.0772 22.0625 79.6624 21.8977 79.1321 21.8977C78.7723 21.8977 78.4522 21.9773 78.1719 22.1364C77.8954 22.2917 77.6776 22.517 77.5185 22.8125C77.3632 23.108 77.2855 23.4659 77.2855 23.8864Z" fill="#1E88E5"/>
</svg>
