<svg width="484" height="502" viewBox="0 0 484 502" fill="none" xmlns="http://www.w3.org/2000/svg">
<rect x="0.5" y="0.5" width="483" height="501" rx="4.5" stroke="#8A38F5" stroke-dasharray="10 5"/>
<path d="M21.1186 35V24.8182H24.7479C25.54 24.8182 26.1963 24.9624 26.7166 25.2507C27.237 25.5391 27.6264 25.9335 27.8849 26.4339C28.1435 26.9311 28.2727 27.4912 28.2727 28.1143C28.2727 28.7408 28.1418 29.3042 27.88 29.8047C27.6214 30.3018 27.2304 30.6963 26.7067 30.9879C26.1863 31.2763 25.5317 31.4205 24.7429 31.4205H22.2472V30.1179H24.6037C25.1042 30.1179 25.5102 30.0317 25.8217 29.8594C26.1333 29.6837 26.362 29.4451 26.5078 29.1435C26.6536 28.8419 26.7266 28.4988 26.7266 28.1143C26.7266 27.7299 26.6536 27.3885 26.5078 27.0902C26.362 26.7919 26.1316 26.5582 25.8168 26.3892C25.5052 26.2202 25.0942 26.1357 24.5838 26.1357H22.6548V35H21.1186ZM32.1083 35.169C31.6244 35.169 31.1869 35.0795 30.7958 34.9006C30.4047 34.7183 30.0948 34.4548 29.8661 34.1101C29.6407 33.7654 29.5281 33.3428 29.5281 32.8423C29.5281 32.4115 29.6109 32.0568 29.7766 31.7784C29.9424 31.5 30.1661 31.2796 30.4478 31.1172C30.7295 30.9548 31.0444 30.8321 31.3924 30.7493C31.7404 30.6664 32.0951 30.6035 32.4563 30.5604C32.9137 30.5073 33.2849 30.4643 33.57 30.4311C33.855 30.3946 34.0621 30.3366 34.1914 30.2571C34.3207 30.1776 34.3853 30.0483 34.3853 29.8693V29.8345C34.3853 29.4003 34.2627 29.0639 34.0174 28.8253C33.7755 28.5866 33.4142 28.4673 32.9336 28.4673C32.4331 28.4673 32.0387 28.5784 31.7504 28.8004C31.4653 29.0192 31.2681 29.2628 31.1587 29.5312L29.7617 29.2131C29.9274 28.7491 30.1694 28.3745 30.4876 28.0895C30.8091 27.8011 31.1786 27.5923 31.5962 27.4631C32.0138 27.3305 32.453 27.2642 32.9137 27.2642C33.2186 27.2642 33.5418 27.3007 33.8832 27.3736C34.2279 27.4432 34.5494 27.5724 34.8477 27.7614C35.1493 27.9503 35.3962 28.2204 35.5884 28.5717C35.7807 28.9197 35.8768 29.3722 35.8768 29.929V35H34.4251V33.956H34.3654C34.2693 34.1482 34.1251 34.3371 33.9329 34.5227C33.7406 34.7083 33.4937 34.8625 33.1921 34.9851C32.8905 35.1077 32.5292 35.169 32.1083 35.169ZM32.4315 33.9759C32.8424 33.9759 33.1938 33.8946 33.4854 33.7322C33.7804 33.5698 34.0041 33.3577 34.1566 33.0959C34.3124 32.8307 34.3903 32.5473 34.3903 32.2457V31.2614C34.3372 31.3144 34.2345 31.3641 34.082 31.4105C33.9329 31.4536 33.7622 31.4917 33.57 31.5249C33.3777 31.5547 33.1905 31.5829 33.0082 31.6094C32.8259 31.6326 32.6734 31.6525 32.5508 31.669C32.2624 31.7055 31.9989 31.7668 31.7603 31.853C31.525 31.9392 31.3361 32.0634 31.1935 32.2259C31.0543 32.3849 30.9847 32.5971 30.9847 32.8622C30.9847 33.2301 31.1206 33.5085 31.3924 33.6974C31.6642 33.883 32.0105 33.9759 32.4315 33.9759ZM43.579 29.228L42.2317 29.4666C42.1754 29.2943 42.0859 29.1302 41.9632 28.9744C41.8439 28.8187 41.6815 28.6911 41.476 28.5916C41.2705 28.4922 41.0137 28.4425 40.7054 28.4425C40.2845 28.4425 39.9332 28.5369 39.6515 28.7259C39.3697 28.9115 39.2289 29.1518 39.2289 29.4467C39.2289 29.7019 39.3233 29.9074 39.5123 30.0632C39.7012 30.219 40.0061 30.3466 40.427 30.446L41.6401 30.7244C42.3427 30.8868 42.8664 31.1371 43.2111 31.4751C43.5558 31.8132 43.7282 32.2524 43.7282 32.7926C43.7282 33.25 43.5956 33.6577 43.3304 34.0156C43.0686 34.3703 42.7024 34.6487 42.2317 34.8509C41.7644 35.053 41.2225 35.1541 40.606 35.1541C39.7509 35.1541 39.0532 34.9718 38.513 34.6072C37.9727 34.2393 37.6413 33.7173 37.5186 33.0412L38.9554 32.8224C39.0449 33.197 39.2289 33.4804 39.5073 33.6726C39.7857 33.8615 40.1486 33.956 40.5961 33.956C41.0833 33.956 41.4727 33.8549 41.7644 33.6527C42.056 33.4472 42.2019 33.197 42.2019 32.902C42.2019 32.6634 42.1124 32.4628 41.9334 32.3004C41.7578 32.138 41.4876 32.0154 41.123 31.9325L39.8304 31.6491C39.1178 31.4867 38.5908 31.2282 38.2495 30.8736C37.9114 30.5189 37.7424 30.0698 37.7424 29.5263C37.7424 29.0755 37.8683 28.6811 38.1202 28.343C38.3721 28.005 38.7201 27.7415 39.1642 27.5526C39.6084 27.3603 40.1171 27.2642 40.6905 27.2642C41.5158 27.2642 42.1654 27.4432 42.6394 27.8011C43.1133 28.1558 43.4266 28.6314 43.579 29.228ZM51.0849 29.228L49.7376 29.4666C49.6812 29.2943 49.5917 29.1302 49.4691 28.9744C49.3498 28.8187 49.1874 28.6911 48.9819 28.5916C48.7764 28.4922 48.5195 28.4425 48.2113 28.4425C47.7904 28.4425 47.439 28.5369 47.1573 28.7259C46.8756 28.9115 46.7347 29.1518 46.7347 29.4467C46.7347 29.7019 46.8292 29.9074 47.0181 30.0632C47.207 30.219 47.512 30.3466 47.9329 30.446L49.146 30.7244C49.8486 30.8868 50.3723 31.1371 50.717 31.4751C51.0617 31.8132 51.234 32.2524 51.234 32.7926C51.234 33.25 51.1014 33.6577 50.8363 34.0156C50.5745 34.3703 50.2082 34.6487 49.7376 34.8509C49.2702 35.053 48.7283 35.1541 48.1119 35.1541C47.2567 35.1541 46.5591 34.9718 46.0188 34.6072C45.4786 34.2393 45.1471 33.7173 45.0245 33.0412L46.4613 32.8224C46.5508 33.197 46.7347 33.4804 47.0131 33.6726C47.2915 33.8615 47.6545 33.956 48.1019 33.956C48.5891 33.956 48.9786 33.8549 49.2702 33.6527C49.5619 33.4472 49.7077 33.197 49.7077 32.902C49.7077 32.6634 49.6183 32.4628 49.4393 32.3004C49.2636 32.138 48.9935 32.0154 48.6289 31.9325L47.3363 31.6491C46.6237 31.4867 46.0967 31.2282 45.7553 30.8736C45.4173 30.5189 45.2482 30.0698 45.2482 29.5263C45.2482 29.0755 45.3742 28.6811 45.6261 28.343C45.878 28.005 46.226 27.7415 46.6701 27.5526C47.1142 27.3603 47.623 27.2642 48.1964 27.2642C49.0217 27.2642 49.6713 27.4432 50.1452 27.8011C50.6192 28.1558 50.9324 28.6314 51.0849 29.228ZM54.524 35L52.2768 27.3636H53.813L55.3095 32.9716H55.3841L56.8855 27.3636H58.4217L59.9132 32.9467H59.9877L61.4743 27.3636H63.0105L60.7683 35H59.252L57.7008 29.4865H57.5865L56.0353 35H54.524ZM67.4054 35.1541C66.6895 35.1541 66.0647 34.9901 65.5311 34.6619C64.9975 34.3338 64.5832 33.8748 64.2882 33.2848C63.9932 32.6948 63.8457 32.0054 63.8457 31.2166C63.8457 30.4245 63.9932 29.7318 64.2882 29.1385C64.5832 28.5452 64.9975 28.0845 65.5311 27.7564C66.0647 27.4283 66.6895 27.2642 67.4054 27.2642C68.1213 27.2642 68.746 27.4283 69.2797 27.7564C69.8133 28.0845 70.2276 28.5452 70.5225 29.1385C70.8175 29.7318 70.965 30.4245 70.965 31.2166C70.965 32.0054 70.8175 32.6948 70.5225 33.2848C70.2276 33.8748 69.8133 34.3338 69.2797 34.6619C68.746 34.9901 68.1213 35.1541 67.4054 35.1541ZM67.4103 33.9062C67.8743 33.9062 68.2588 33.7836 68.5637 33.5384C68.8687 33.2931 69.094 32.9666 69.2399 32.5589C69.389 32.1513 69.4636 31.7022 69.4636 31.2116C69.4636 30.7244 69.389 30.277 69.2399 29.8693C69.094 29.4583 68.8687 29.1286 68.5637 28.88C68.2588 28.6314 67.8743 28.5071 67.4103 28.5071C66.943 28.5071 66.5552 28.6314 66.247 28.88C65.9421 29.1286 65.715 29.4583 65.5659 29.8693C65.42 30.277 65.3471 30.7244 65.3471 31.2116C65.3471 31.7022 65.42 32.1513 65.5659 32.5589C65.715 32.9666 65.9421 33.2931 66.247 33.5384C66.5552 33.7836 66.943 33.9062 67.4103 33.9062ZM72.6243 35V27.3636H74.0611V28.5767H74.1406C74.2798 28.1657 74.5251 27.8426 74.8764 27.6072C75.2311 27.3686 75.6321 27.2493 76.0795 27.2493C76.1723 27.2493 76.2817 27.2526 76.4077 27.2592C76.5369 27.2659 76.638 27.2741 76.7109 27.2841V28.706C76.6513 28.6894 76.5452 28.6712 76.3928 28.6513C76.2403 28.6281 76.0878 28.6165 75.9354 28.6165C75.584 28.6165 75.2708 28.6911 74.9957 28.8402C74.724 28.986 74.5085 29.1899 74.3494 29.4517C74.1903 29.7102 74.1108 30.0052 74.1108 30.3366V35H72.6243ZM80.5826 35.1491C79.9661 35.1491 79.4159 34.9917 78.932 34.6768C78.4514 34.3587 78.0736 33.9062 77.7985 33.3196C77.5267 32.7296 77.3908 32.022 77.3908 31.1967C77.3908 30.3714 77.5283 29.6655 77.8034 29.0788C78.0819 28.4922 78.463 28.0431 78.9469 27.7315C79.4308 27.42 79.9793 27.2642 80.5925 27.2642C81.0665 27.2642 81.4476 27.3438 81.736 27.5028C82.0276 27.6586 82.253 27.8409 82.4121 28.0497C82.5745 28.2585 82.7005 28.4425 82.79 28.6016H82.8794V24.8182H84.3659V35H82.9142V33.8118H82.79C82.7005 33.9742 82.5712 34.1598 82.4022 34.3686C82.2364 34.5774 82.0078 34.7597 81.7161 34.9155C81.4244 35.0713 81.0466 35.1491 80.5826 35.1491ZM80.9107 33.8814C81.3382 33.8814 81.6995 33.7687 81.9945 33.5433C82.2928 33.3146 82.5182 32.9981 82.6706 32.5938C82.8264 32.1894 82.9043 31.7187 82.9043 31.1818C82.9043 30.6515 82.8281 30.1875 82.6756 29.7898C82.5231 29.392 82.2994 29.0821 82.0044 28.8601C81.7095 28.638 81.3449 28.527 80.9107 28.527C80.4632 28.527 80.0904 28.643 79.7921 28.875C79.4938 29.107 79.2684 29.4235 79.1159 29.8246C78.9668 30.2256 78.8922 30.678 78.8922 31.1818C78.8922 31.6922 78.9685 32.1513 79.1209 32.5589C79.2734 32.9666 79.4988 33.2898 79.7971 33.5284C80.0987 33.7637 80.4699 33.8814 80.9107 33.8814Z" fill="#3B4758"/>
<rect x="19" y="45" width="446" height="56" rx="9" stroke="#BDBDBD" stroke-width="2"/>
<mask id="mask0_178_1074" style="mask-type:alpha" maskUnits="userSpaceOnUse" x="36" y="63" width="20" height="20">
<rect x="36" y="63" width="20" height="20" fill="#D9D9D9"/>
</mask>
<g mask="url(#mask0_178_1074)">
<path d="M40.9997 81.3335C40.5413 81.3335 40.1491 81.1704 39.823 80.8443C39.4963 80.5177 39.333 80.1252 39.333 79.6668V71.3335C39.333 70.8752 39.4963 70.4827 39.823 70.156C40.1491 69.8299 40.5413 69.6668 40.9997 69.6668H41.833V68.0002C41.833 66.8474 42.2394 65.8646 43.0522 65.0518C43.8644 64.2396 44.8469 63.8335 45.9997 63.8335C47.1525 63.8335 48.1352 64.2396 48.948 65.0518C49.7602 65.8646 50.1663 66.8474 50.1663 68.0002V69.6668H50.9997C51.458 69.6668 51.8505 69.8299 52.1772 70.156C52.5033 70.4827 52.6663 70.8752 52.6663 71.3335V79.6668C52.6663 80.1252 52.5033 80.5177 52.1772 80.8443C51.8505 81.1704 51.458 81.3335 50.9997 81.3335H40.9997ZM45.9997 77.1668C46.458 77.1668 46.8505 77.0038 47.1772 76.6777C47.5033 76.351 47.6663 75.9585 47.6663 75.5002C47.6663 75.0418 47.5033 74.6493 47.1772 74.3227C46.8505 73.9966 46.458 73.8335 45.9997 73.8335C45.5413 73.8335 45.1491 73.9966 44.823 74.3227C44.4963 74.6493 44.333 75.0418 44.333 75.5002C44.333 75.9585 44.4963 76.351 44.823 76.6777C45.1491 77.0038 45.5413 77.1668 45.9997 77.1668ZM43.4997 69.6668H48.4997V68.0002C48.4997 67.3057 48.2566 66.7154 47.7705 66.2293C47.2844 65.7432 46.6941 65.5002 45.9997 65.5002C45.3052 65.5002 44.715 65.7432 44.2288 66.2293C43.7427 66.7154 43.4997 67.3057 43.4997 68.0002V69.6668Z" fill="#616161"/>
</g>
<path d="M71.4545 73.9091L71.5455 71.4091L69.4318 72.75L68.8864 71.7955L71.1136 70.6364L68.8864 69.4773L69.4318 68.5227L71.5455 69.8636L71.4545 67.3636H72.5455L72.4545 69.8636L74.5682 68.5227L75.1136 69.4773L72.8864 70.6364L75.1136 71.7955L74.5682 72.75L72.4545 71.4091L72.5455 73.9091H71.4545ZM79.1345 73.9091L79.2255 71.4091L77.1118 72.75L76.5664 71.7955L78.7936 70.6364L76.5664 69.4773L77.1118 68.5227L79.2255 69.8636L79.1345 67.3636H80.2255L80.1345 69.8636L82.2482 68.5227L82.7936 69.4773L80.5664 70.6364L82.7936 71.7955L82.2482 72.75L80.1345 71.4091L80.2255 73.9091H79.1345ZM86.8145 73.9091L86.9055 71.4091L84.7918 72.75L84.2464 71.7955L86.4736 70.6364L84.2464 69.4773L84.7918 68.5227L86.9055 69.8636L86.8145 67.3636H87.9055L87.8145 69.8636L89.9282 68.5227L90.4736 69.4773L88.2464 70.6364L90.4736 71.7955L89.9282 72.75L87.8145 71.4091L87.9055 73.9091H86.8145ZM94.4945 73.9091L94.5855 71.4091L92.4718 72.75L91.9264 71.7955L94.1536 70.6364L91.9264 69.4773L92.4718 68.5227L94.5855 69.8636L94.4945 67.3636H95.5855L95.4945 69.8636L97.6082 68.5227L98.1536 69.4773L95.9264 70.6364L98.1536 71.7955L97.6082 72.75L95.4945 71.4091L95.5855 73.9091H94.4945ZM102.175 73.9091L102.265 71.4091L100.152 72.75L99.6064 71.7955L101.834 70.6364L99.6064 69.4773L100.152 68.5227L102.265 69.8636L102.175 67.3636H103.265L103.175 69.8636L105.288 68.5227L105.834 69.4773L103.606 70.6364L105.834 71.7955L105.288 72.75L103.175 71.4091L103.265 73.9091H102.175ZM109.855 73.9091L109.945 71.4091L107.832 72.75L107.286 71.7955L109.514 70.6364L107.286 69.4773L107.832 68.5227L109.945 69.8636L109.855 67.3636H110.945L110.855 69.8636L112.968 68.5227L113.514 69.4773L111.286 70.6364L113.514 71.7955L112.968 72.75L110.855 71.4091L110.945 73.9091H109.855Z" fill="#4B5563"/>
<mask id="mask1_178_1074" style="mask-type:alpha" maskUnits="userSpaceOnUse" x="364" y="63" width="20" height="20">
<rect x="364" y="63" width="20" height="20" fill="#D9D9D9"/>
</mask>
<g mask="url(#mask1_178_1074)">
<path d="M380.084 76.75L377.417 74.0833C377.528 73.8472 377.611 73.6078 377.667 73.365C377.723 73.1217 377.75 72.8611 377.75 72.5833C377.75 71.5417 377.386 70.6561 376.657 69.9267C375.928 69.1978 375.042 68.8333 374 68.8333C373.723 68.8333 373.462 68.8611 373.219 68.9167C372.976 68.9722 372.736 69.0556 372.5 69.1667L370.375 67.0417C370.945 66.8056 371.528 66.6283 372.125 66.51C372.723 66.3922 373.348 66.3333 374 66.3333C375.986 66.3333 377.771 66.8575 379.354 67.9058C380.938 68.9547 382.125 70.3194 382.917 72C382.959 72.0694 382.986 72.1561 383 72.26C383.014 72.3644 383.021 72.4722 383.021 72.5833C383.021 72.6944 383.011 72.8019 382.99 72.9058C382.969 73.0103 382.945 73.0972 382.917 73.1667C382.598 73.875 382.198 74.5347 381.719 75.1458C381.24 75.7569 380.695 76.2917 380.084 76.75ZM379.917 81.25L377 78.375C376.514 78.5278 376.025 78.6425 375.532 78.7192C375.039 78.7953 374.528 78.8333 374 78.8333C372.014 78.8333 370.229 78.3092 368.646 77.2608C367.063 76.2119 365.875 74.8472 365.084 73.1667C365.042 73.0972 365.014 73.0103 365 72.9058C364.986 72.8019 364.979 72.6944 364.979 72.5833C364.979 72.4722 364.986 72.3681 365 72.2708C365.014 72.1736 365.042 72.0903 365.084 72.0208C365.375 71.3958 365.723 70.8194 366.125 70.2917C366.528 69.7639 366.973 69.2778 367.459 68.8333L365.729 67.0833C365.577 66.9306 365.5 66.7394 365.5 66.51C365.5 66.2811 365.584 66.0833 365.75 65.9167C365.903 65.7639 366.098 65.6875 366.334 65.6875C366.57 65.6875 366.764 65.7639 366.917 65.9167L381.084 80.0833C381.236 80.2361 381.316 80.4272 381.324 80.6567C381.33 80.8856 381.25 81.0833 381.084 81.25C380.931 81.4028 380.736 81.4792 380.5 81.4792C380.264 81.4792 380.07 81.4028 379.917 81.25ZM374 76.3333C374.153 76.3333 374.295 76.3264 374.427 76.3125C374.559 76.2986 374.702 76.2708 374.854 76.2292L370.354 71.7292C370.313 71.8819 370.285 72.0244 370.271 72.1567C370.257 72.2883 370.25 72.4306 370.25 72.5833C370.25 73.625 370.615 74.5106 371.344 75.24C372.073 75.9689 372.959 76.3333 374 76.3333ZM376.209 72.875L373.709 70.375C374.5 70.25 375.146 70.4722 375.646 71.0417C376.146 71.6111 376.334 72.2222 376.209 72.875Z" fill="#616161"/>
</g>
<path d="M21.1186 135V124.818H24.7479C25.54 124.818 26.1963 124.962 26.7166 125.251C27.237 125.539 27.6264 125.933 27.8849 126.434C28.1435 126.931 28.2727 127.491 28.2727 128.114C28.2727 128.741 28.1418 129.304 27.88 129.805C27.6214 130.302 27.2304 130.696 26.7067 130.988C26.1863 131.276 25.5317 131.42 24.7429 131.42H22.2472V130.118H24.6037C25.1042 130.118 25.5102 130.032 25.8217 129.859C26.1333 129.684 26.362 129.445 26.5078 129.143C26.6536 128.842 26.7266 128.499 26.7266 128.114C26.7266 127.73 26.6536 127.388 26.5078 127.09C26.362 126.792 26.1316 126.558 25.8168 126.389C25.5052 126.22 25.0942 126.136 24.5838 126.136H22.6548V135H21.1186ZM32.1083 135.169C31.6244 135.169 31.1869 135.08 30.7958 134.901C30.4047 134.718 30.0948 134.455 29.8661 134.11C29.6407 133.765 29.5281 133.343 29.5281 132.842C29.5281 132.411 29.6109 132.057 29.7766 131.778C29.9424 131.5 30.1661 131.28 30.4478 131.117C30.7295 130.955 31.0444 130.832 31.3924 130.749C31.7404 130.666 32.0951 130.603 32.4563 130.56C32.9137 130.507 33.2849 130.464 33.57 130.431C33.855 130.395 34.0621 130.337 34.1914 130.257C34.3207 130.178 34.3853 130.048 34.3853 129.869V129.835C34.3853 129.4 34.2627 129.064 34.0174 128.825C33.7755 128.587 33.4142 128.467 32.9336 128.467C32.4331 128.467 32.0387 128.578 31.7504 128.8C31.4653 129.019 31.2681 129.263 31.1587 129.531L29.7617 129.213C29.9274 128.749 30.1694 128.375 30.4876 128.089C30.8091 127.801 31.1786 127.592 31.5962 127.463C32.0138 127.33 32.453 127.264 32.9137 127.264C33.2186 127.264 33.5418 127.301 33.8832 127.374C34.2279 127.443 34.5494 127.572 34.8477 127.761C35.1493 127.95 35.3962 128.22 35.5884 128.572C35.7807 128.92 35.8768 129.372 35.8768 129.929V135H34.4251V133.956H34.3654C34.2693 134.148 34.1251 134.337 33.9329 134.523C33.7406 134.708 33.4937 134.862 33.1921 134.985C32.8905 135.108 32.5292 135.169 32.1083 135.169ZM32.4315 133.976C32.8424 133.976 33.1938 133.895 33.4854 133.732C33.7804 133.57 34.0041 133.358 34.1566 133.096C34.3124 132.831 34.3903 132.547 34.3903 132.246V131.261C34.3372 131.314 34.2345 131.364 34.082 131.411C33.9329 131.454 33.7622 131.492 33.57 131.525C33.3777 131.555 33.1905 131.583 33.0082 131.609C32.8259 131.633 32.6734 131.652 32.5508 131.669C32.2624 131.705 31.9989 131.767 31.7603 131.853C31.525 131.939 31.3361 132.063 31.1935 132.226C31.0543 132.385 30.9847 132.597 30.9847 132.862C30.9847 133.23 31.1206 133.509 31.3924 133.697C31.6642 133.883 32.0105 133.976 32.4315 133.976ZM43.579 129.228L42.2317 129.467C42.1754 129.294 42.0859 129.13 41.9632 128.974C41.8439 128.819 41.6815 128.691 41.476 128.592C41.2705 128.492 41.0137 128.442 40.7054 128.442C40.2845 128.442 39.9332 128.537 39.6515 128.726C39.3697 128.911 39.2289 129.152 39.2289 129.447C39.2289 129.702 39.3233 129.907 39.5123 130.063C39.7012 130.219 40.0061 130.347 40.427 130.446L41.6401 130.724C42.3427 130.887 42.8664 131.137 43.2111 131.475C43.5558 131.813 43.7282 132.252 43.7282 132.793C43.7282 133.25 43.5956 133.658 43.3304 134.016C43.0686 134.37 42.7024 134.649 42.2317 134.851C41.7644 135.053 41.2225 135.154 40.606 135.154C39.7509 135.154 39.0532 134.972 38.513 134.607C37.9727 134.239 37.6413 133.717 37.5186 133.041L38.9554 132.822C39.0449 133.197 39.2289 133.48 39.5073 133.673C39.7857 133.862 40.1486 133.956 40.5961 133.956C41.0833 133.956 41.4727 133.855 41.7644 133.653C42.056 133.447 42.2019 133.197 42.2019 132.902C42.2019 132.663 42.1124 132.463 41.9334 132.3C41.7578 132.138 41.4876 132.015 41.123 131.933L39.8304 131.649C39.1178 131.487 38.5908 131.228 38.2495 130.874C37.9114 130.519 37.7424 130.07 37.7424 129.526C37.7424 129.076 37.8683 128.681 38.1202 128.343C38.3721 128.005 38.7201 127.741 39.1642 127.553C39.6084 127.36 40.1171 127.264 40.6905 127.264C41.5158 127.264 42.1654 127.443 42.6394 127.801C43.1133 128.156 43.4266 128.631 43.579 129.228ZM51.0849 129.228L49.7376 129.467C49.6812 129.294 49.5917 129.13 49.4691 128.974C49.3498 128.819 49.1874 128.691 48.9819 128.592C48.7764 128.492 48.5195 128.442 48.2113 128.442C47.7904 128.442 47.439 128.537 47.1573 128.726C46.8756 128.911 46.7347 129.152 46.7347 129.447C46.7347 129.702 46.8292 129.907 47.0181 130.063C47.207 130.219 47.512 130.347 47.9329 130.446L49.146 130.724C49.8486 130.887 50.3723 131.137 50.717 131.475C51.0617 131.813 51.234 132.252 51.234 132.793C51.234 133.25 51.1014 133.658 50.8363 134.016C50.5745 134.37 50.2082 134.649 49.7376 134.851C49.2702 135.053 48.7283 135.154 48.1119 135.154C47.2567 135.154 46.5591 134.972 46.0188 134.607C45.4786 134.239 45.1471 133.717 45.0245 133.041L46.4613 132.822C46.5508 133.197 46.7347 133.48 47.0131 133.673C47.2915 133.862 47.6545 133.956 48.1019 133.956C48.5891 133.956 48.9786 133.855 49.2702 133.653C49.5619 133.447 49.7077 133.197 49.7077 132.902C49.7077 132.663 49.6183 132.463 49.4393 132.3C49.2636 132.138 48.9935 132.015 48.6289 131.933L47.3363 131.649C46.6237 131.487 46.0967 131.228 45.7553 130.874C45.4173 130.519 45.2482 130.07 45.2482 129.526C45.2482 129.076 45.3742 128.681 45.6261 128.343C45.878 128.005 46.226 127.741 46.6701 127.553C47.1142 127.36 47.623 127.264 48.1964 127.264C49.0217 127.264 49.6713 127.443 50.1452 127.801C50.6192 128.156 50.9324 128.631 51.0849 129.228ZM54.524 135L52.2768 127.364H53.813L55.3095 132.972H55.3841L56.8855 127.364H58.4217L59.9132 132.947H59.9877L61.4743 127.364H63.0105L60.7683 135H59.252L57.7008 129.487H57.5865L56.0353 135H54.524ZM67.4054 135.154C66.6895 135.154 66.0647 134.99 65.5311 134.662C64.9975 134.334 64.5832 133.875 64.2882 133.285C63.9932 132.695 63.8457 132.005 63.8457 131.217C63.8457 130.424 63.9932 129.732 64.2882 129.138C64.5832 128.545 64.9975 128.085 65.5311 127.756C66.0647 127.428 66.6895 127.264 67.4054 127.264C68.1213 127.264 68.746 127.428 69.2797 127.756C69.8133 128.085 70.2276 128.545 70.5225 129.138C70.8175 129.732 70.965 130.424 70.965 131.217C70.965 132.005 70.8175 132.695 70.5225 133.285C70.2276 133.875 69.8133 134.334 69.2797 134.662C68.746 134.99 68.1213 135.154 67.4054 135.154ZM67.4103 133.906C67.8743 133.906 68.2588 133.784 68.5637 133.538C68.8687 133.293 69.094 132.967 69.2399 132.559C69.389 132.151 69.4636 131.702 69.4636 131.212C69.4636 130.724 69.389 130.277 69.2399 129.869C69.094 129.458 68.8687 129.129 68.5637 128.88C68.2588 128.631 67.8743 128.507 67.4103 128.507C66.943 128.507 66.5552 128.631 66.247 128.88C65.9421 129.129 65.715 129.458 65.5659 129.869C65.42 130.277 65.3471 130.724 65.3471 131.212C65.3471 131.702 65.42 132.151 65.5659 132.559C65.715 132.967 65.9421 133.293 66.247 133.538C66.5552 133.784 66.943 133.906 67.4103 133.906ZM72.6243 135V127.364H74.0611V128.577H74.1406C74.2798 128.166 74.5251 127.843 74.8764 127.607C75.2311 127.369 75.6321 127.249 76.0795 127.249C76.1723 127.249 76.2817 127.253 76.4077 127.259C76.5369 127.266 76.638 127.274 76.7109 127.284V128.706C76.6513 128.689 76.5452 128.671 76.3928 128.651C76.2403 128.628 76.0878 128.616 75.9354 128.616C75.584 128.616 75.2708 128.691 74.9957 128.84C74.724 128.986 74.5085 129.19 74.3494 129.452C74.1903 129.71 74.1108 130.005 74.1108 130.337V135H72.6243ZM80.5826 135.149C79.9661 135.149 79.4159 134.992 78.932 134.677C78.4514 134.359 78.0736 133.906 77.7985 133.32C77.5267 132.73 77.3908 132.022 77.3908 131.197C77.3908 130.371 77.5283 129.665 77.8034 129.079C78.0819 128.492 78.463 128.043 78.9469 127.732C79.4308 127.42 79.9793 127.264 80.5925 127.264C81.0665 127.264 81.4476 127.344 81.736 127.503C82.0276 127.659 82.253 127.841 82.4121 128.05C82.5745 128.259 82.7005 128.442 82.79 128.602H82.8794V124.818H84.3659V135H82.9142V133.812H82.79C82.7005 133.974 82.5712 134.16 82.4022 134.369C82.2364 134.577 82.0078 134.76 81.7161 134.915C81.4244 135.071 81.0466 135.149 80.5826 135.149ZM80.9107 133.881C81.3382 133.881 81.6995 133.769 81.9945 133.543C82.2928 133.315 82.5182 132.998 82.6706 132.594C82.8264 132.189 82.9043 131.719 82.9043 131.182C82.9043 130.652 82.8281 130.187 82.6756 129.79C82.5231 129.392 82.2994 129.082 82.0044 128.86C81.7095 128.638 81.3449 128.527 80.9107 128.527C80.4632 128.527 80.0904 128.643 79.7921 128.875C79.4938 129.107 79.2684 129.424 79.1159 129.825C78.9668 130.226 78.8922 130.678 78.8922 131.182C78.8922 131.692 78.9685 132.151 79.1209 132.559C79.2734 132.967 79.4988 133.29 79.7971 133.528C80.0987 133.764 80.4699 133.881 80.9107 133.881Z" fill="#3B4758"/>
<rect x="19" y="145" width="446" height="56" rx="9" fill="white"/>
<rect x="19" y="145" width="446" height="56" rx="9" stroke="#1E88E5" stroke-width="2"/>
<mask id="mask2_178_1074" style="mask-type:alpha" maskUnits="userSpaceOnUse" x="36" y="163" width="20" height="20">
<rect x="36" y="163" width="20" height="20" fill="#D9D9D9"/>
</mask>
<g mask="url(#mask2_178_1074)">
<path d="M40.9997 181.333C40.5413 181.333 40.1491 181.17 39.823 180.844C39.4963 180.518 39.333 180.125 39.333 179.667V171.333C39.333 170.875 39.4963 170.483 39.823 170.156C40.1491 169.83 40.5413 169.667 40.9997 169.667H41.833V168C41.833 166.847 42.2394 165.865 43.0522 165.052C43.8644 164.24 44.8469 163.833 45.9997 163.833C47.1525 163.833 48.1352 164.24 48.948 165.052C49.7602 165.865 50.1663 166.847 50.1663 168V169.667H50.9997C51.458 169.667 51.8505 169.83 52.1772 170.156C52.5033 170.483 52.6663 170.875 52.6663 171.333V179.667C52.6663 180.125 52.5033 180.518 52.1772 180.844C51.8505 181.17 51.458 181.333 50.9997 181.333H40.9997ZM45.9997 177.167C46.458 177.167 46.8505 177.004 47.1772 176.678C47.5033 176.351 47.6663 175.958 47.6663 175.5C47.6663 175.042 47.5033 174.649 47.1772 174.323C46.8505 173.997 46.458 173.833 45.9997 173.833C45.5413 173.833 45.1491 173.997 44.823 174.323C44.4963 174.649 44.333 175.042 44.333 175.5C44.333 175.958 44.4963 176.351 44.823 176.678C45.1491 177.004 45.5413 177.167 45.9997 177.167ZM43.4997 169.667H48.4997V168C48.4997 167.306 48.2566 166.715 47.7705 166.229C47.2844 165.743 46.6941 165.5 45.9997 165.5C45.3052 165.5 44.715 165.743 44.2288 166.229C43.7427 166.715 43.4997 167.306 43.4997 168V169.667Z" fill="#616161"/>
</g>
<path d="M71.4545 173.909L71.5455 171.409L69.4318 172.75L68.8864 171.795L71.1136 170.636L68.8864 169.477L69.4318 168.523L71.5455 169.864L71.4545 167.364H72.5455L72.4545 169.864L74.5682 168.523L75.1136 169.477L72.8864 170.636L75.1136 171.795L74.5682 172.75L72.4545 171.409L72.5455 173.909H71.4545ZM79.1345 173.909L79.2255 171.409L77.1118 172.75L76.5664 171.795L78.7936 170.636L76.5664 169.477L77.1118 168.523L79.2255 169.864L79.1345 167.364H80.2255L80.1345 169.864L82.2482 168.523L82.7936 169.477L80.5664 170.636L82.7936 171.795L82.2482 172.75L80.1345 171.409L80.2255 173.909H79.1345ZM86.8145 173.909L86.9055 171.409L84.7918 172.75L84.2464 171.795L86.4736 170.636L84.2464 169.477L84.7918 168.523L86.9055 169.864L86.8145 167.364H87.9055L87.8145 169.864L89.9282 168.523L90.4736 169.477L88.2464 170.636L90.4736 171.795L89.9282 172.75L87.8145 171.409L87.9055 173.909H86.8145ZM94.4945 173.909L94.5855 171.409L92.4718 172.75L91.9264 171.795L94.1536 170.636L91.9264 169.477L92.4718 168.523L94.5855 169.864L94.4945 167.364H95.5855L95.4945 169.864L97.6082 168.523L98.1536 169.477L95.9264 170.636L98.1536 171.795L97.6082 172.75L95.4945 171.409L95.5855 173.909H94.4945ZM102.175 173.909L102.265 171.409L100.152 172.75L99.6064 171.795L101.834 170.636L99.6064 169.477L100.152 168.523L102.265 169.864L102.175 167.364H103.265L103.175 169.864L105.288 168.523L105.834 169.477L103.606 170.636L105.834 171.795L105.288 172.75L103.175 171.409L103.265 173.909H102.175ZM109.855 173.909L109.945 171.409L107.832 172.75L107.286 171.795L109.514 170.636L107.286 169.477L107.832 168.523L109.945 169.864L109.855 167.364H110.945L110.855 169.864L112.968 168.523L113.514 169.477L111.286 170.636L113.514 171.795L112.968 172.75L110.855 171.409L110.945 173.909H109.855Z" fill="#292535"/>
<mask id="mask3_178_1074" style="mask-type:alpha" maskUnits="userSpaceOnUse" x="364" y="163" width="20" height="20">
<rect x="364" y="163" width="20" height="20" fill="#D9D9D9"/>
</mask>
<g mask="url(#mask3_178_1074)">
<path d="M380.084 176.75L377.417 174.083C377.528 173.847 377.611 173.608 377.667 173.365C377.723 173.122 377.75 172.861 377.75 172.583C377.75 171.542 377.386 170.656 376.657 169.927C375.928 169.198 375.042 168.833 374 168.833C373.723 168.833 373.462 168.861 373.219 168.917C372.976 168.972 372.736 169.056 372.5 169.167L370.375 167.042C370.945 166.806 371.528 166.628 372.125 166.51C372.723 166.392 373.348 166.333 374 166.333C375.986 166.333 377.771 166.858 379.354 167.906C380.938 168.955 382.125 170.319 382.917 172C382.959 172.069 382.986 172.156 383 172.26C383.014 172.364 383.021 172.472 383.021 172.583C383.021 172.694 383.011 172.802 382.99 172.906C382.969 173.01 382.945 173.097 382.917 173.167C382.598 173.875 382.198 174.535 381.719 175.146C381.24 175.757 380.695 176.292 380.084 176.75ZM379.917 181.25L377 178.375C376.514 178.528 376.025 178.643 375.532 178.719C375.039 178.795 374.528 178.833 374 178.833C372.014 178.833 370.229 178.309 368.646 177.261C367.063 176.212 365.875 174.847 365.084 173.167C365.042 173.097 365.014 173.01 365 172.906C364.986 172.802 364.979 172.694 364.979 172.583C364.979 172.472 364.986 172.368 365 172.271C365.014 172.174 365.042 172.09 365.084 172.021C365.375 171.396 365.723 170.819 366.125 170.292C366.528 169.764 366.973 169.278 367.459 168.833L365.729 167.083C365.577 166.931 365.5 166.739 365.5 166.51C365.5 166.281 365.584 166.083 365.75 165.917C365.903 165.764 366.098 165.688 366.334 165.688C366.57 165.688 366.764 165.764 366.917 165.917L381.084 180.083C381.236 180.236 381.316 180.427 381.324 180.657C381.33 180.886 381.25 181.083 381.084 181.25C380.931 181.403 380.736 181.479 380.5 181.479C380.264 181.479 380.07 181.403 379.917 181.25ZM374 176.333C374.153 176.333 374.295 176.326 374.427 176.313C374.559 176.299 374.702 176.271 374.854 176.229L370.354 171.729C370.313 171.882 370.285 172.024 370.271 172.157C370.257 172.288 370.25 172.431 370.25 172.583C370.25 173.625 370.615 174.511 371.344 175.24C372.073 175.969 372.959 176.333 374 176.333ZM376.209 172.875L373.709 170.375C374.5 170.25 375.146 170.472 375.646 171.042C376.146 171.611 376.334 172.222 376.209 172.875Z" fill="#616161"/>
</g>
<path d="M21.1186 235V224.818H24.7479C25.54 224.818 26.1963 224.962 26.7166 225.251C27.237 225.539 27.6264 225.933 27.8849 226.434C28.1435 226.931 28.2727 227.491 28.2727 228.114C28.2727 228.741 28.1418 229.304 27.88 229.805C27.6214 230.302 27.2304 230.696 26.7067 230.988C26.1863 231.276 25.5317 231.42 24.7429 231.42H22.2472V230.118H24.6037C25.1042 230.118 25.5102 230.032 25.8217 229.859C26.1333 229.684 26.362 229.445 26.5078 229.143C26.6536 228.842 26.7266 228.499 26.7266 228.114C26.7266 227.73 26.6536 227.388 26.5078 227.09C26.362 226.792 26.1316 226.558 25.8168 226.389C25.5052 226.22 25.0942 226.136 24.5838 226.136H22.6548V235H21.1186ZM32.1083 235.169C31.6244 235.169 31.1869 235.08 30.7958 234.901C30.4047 234.718 30.0948 234.455 29.8661 234.11C29.6407 233.765 29.5281 233.343 29.5281 232.842C29.5281 232.411 29.6109 232.057 29.7766 231.778C29.9424 231.5 30.1661 231.28 30.4478 231.117C30.7295 230.955 31.0444 230.832 31.3924 230.749C31.7404 230.666 32.0951 230.603 32.4563 230.56C32.9137 230.507 33.2849 230.464 33.57 230.431C33.855 230.395 34.0621 230.337 34.1914 230.257C34.3207 230.178 34.3853 230.048 34.3853 229.869V229.835C34.3853 229.4 34.2627 229.064 34.0174 228.825C33.7755 228.587 33.4142 228.467 32.9336 228.467C32.4331 228.467 32.0387 228.578 31.7504 228.8C31.4653 229.019 31.2681 229.263 31.1587 229.531L29.7617 229.213C29.9274 228.749 30.1694 228.375 30.4876 228.089C30.8091 227.801 31.1786 227.592 31.5962 227.463C32.0138 227.33 32.453 227.264 32.9137 227.264C33.2186 227.264 33.5418 227.301 33.8832 227.374C34.2279 227.443 34.5494 227.572 34.8477 227.761C35.1493 227.95 35.3962 228.22 35.5884 228.572C35.7807 228.92 35.8768 229.372 35.8768 229.929V235H34.4251V233.956H34.3654C34.2693 234.148 34.1251 234.337 33.9329 234.523C33.7406 234.708 33.4937 234.862 33.1921 234.985C32.8905 235.108 32.5292 235.169 32.1083 235.169ZM32.4315 233.976C32.8424 233.976 33.1938 233.895 33.4854 233.732C33.7804 233.57 34.0041 233.358 34.1566 233.096C34.3124 232.831 34.3903 232.547 34.3903 232.246V231.261C34.3372 231.314 34.2345 231.364 34.082 231.411C33.9329 231.454 33.7622 231.492 33.57 231.525C33.3777 231.555 33.1905 231.583 33.0082 231.609C32.8259 231.633 32.6734 231.652 32.5508 231.669C32.2624 231.705 31.9989 231.767 31.7603 231.853C31.525 231.939 31.3361 232.063 31.1935 232.226C31.0543 232.385 30.9847 232.597 30.9847 232.862C30.9847 233.23 31.1206 233.509 31.3924 233.697C31.6642 233.883 32.0105 233.976 32.4315 233.976ZM43.579 229.228L42.2317 229.467C42.1754 229.294 42.0859 229.13 41.9632 228.974C41.8439 228.819 41.6815 228.691 41.476 228.592C41.2705 228.492 41.0137 228.442 40.7054 228.442C40.2845 228.442 39.9332 228.537 39.6515 228.726C39.3697 228.911 39.2289 229.152 39.2289 229.447C39.2289 229.702 39.3233 229.907 39.5123 230.063C39.7012 230.219 40.0061 230.347 40.427 230.446L41.6401 230.724C42.3427 230.887 42.8664 231.137 43.2111 231.475C43.5558 231.813 43.7282 232.252 43.7282 232.793C43.7282 233.25 43.5956 233.658 43.3304 234.016C43.0686 234.37 42.7024 234.649 42.2317 234.851C41.7644 235.053 41.2225 235.154 40.606 235.154C39.7509 235.154 39.0532 234.972 38.513 234.607C37.9727 234.239 37.6413 233.717 37.5186 233.041L38.9554 232.822C39.0449 233.197 39.2289 233.48 39.5073 233.673C39.7857 233.862 40.1486 233.956 40.5961 233.956C41.0833 233.956 41.4727 233.855 41.7644 233.653C42.056 233.447 42.2019 233.197 42.2019 232.902C42.2019 232.663 42.1124 232.463 41.9334 232.3C41.7578 232.138 41.4876 232.015 41.123 231.933L39.8304 231.649C39.1178 231.487 38.5908 231.228 38.2495 230.874C37.9114 230.519 37.7424 230.07 37.7424 229.526C37.7424 229.076 37.8683 228.681 38.1202 228.343C38.3721 228.005 38.7201 227.741 39.1642 227.553C39.6084 227.36 40.1171 227.264 40.6905 227.264C41.5158 227.264 42.1654 227.443 42.6394 227.801C43.1133 228.156 43.4266 228.631 43.579 229.228ZM51.0849 229.228L49.7376 229.467C49.6812 229.294 49.5917 229.13 49.4691 228.974C49.3498 228.819 49.1874 228.691 48.9819 228.592C48.7764 228.492 48.5195 228.442 48.2113 228.442C47.7904 228.442 47.439 228.537 47.1573 228.726C46.8756 228.911 46.7347 229.152 46.7347 229.447C46.7347 229.702 46.8292 229.907 47.0181 230.063C47.207 230.219 47.512 230.347 47.9329 230.446L49.146 230.724C49.8486 230.887 50.3723 231.137 50.717 231.475C51.0617 231.813 51.234 232.252 51.234 232.793C51.234 233.25 51.1014 233.658 50.8363 234.016C50.5745 234.37 50.2082 234.649 49.7376 234.851C49.2702 235.053 48.7283 235.154 48.1119 235.154C47.2567 235.154 46.5591 234.972 46.0188 234.607C45.4786 234.239 45.1471 233.717 45.0245 233.041L46.4613 232.822C46.5508 233.197 46.7347 233.48 47.0131 233.673C47.2915 233.862 47.6545 233.956 48.1019 233.956C48.5891 233.956 48.9786 233.855 49.2702 233.653C49.5619 233.447 49.7077 233.197 49.7077 232.902C49.7077 232.663 49.6183 232.463 49.4393 232.3C49.2636 232.138 48.9935 232.015 48.6289 231.933L47.3363 231.649C46.6237 231.487 46.0967 231.228 45.7553 230.874C45.4173 230.519 45.2482 230.07 45.2482 229.526C45.2482 229.076 45.3742 228.681 45.6261 228.343C45.878 228.005 46.226 227.741 46.6701 227.553C47.1142 227.36 47.623 227.264 48.1964 227.264C49.0217 227.264 49.6713 227.443 50.1452 227.801C50.6192 228.156 50.9324 228.631 51.0849 229.228ZM54.524 235L52.2768 227.364H53.813L55.3095 232.972H55.3841L56.8855 227.364H58.4217L59.9132 232.947H59.9877L61.4743 227.364H63.0105L60.7683 235H59.252L57.7008 229.487H57.5865L56.0353 235H54.524ZM67.4054 235.154C66.6895 235.154 66.0647 234.99 65.5311 234.662C64.9975 234.334 64.5832 233.875 64.2882 233.285C63.9932 232.695 63.8457 232.005 63.8457 231.217C63.8457 230.424 63.9932 229.732 64.2882 229.138C64.5832 228.545 64.9975 228.085 65.5311 227.756C66.0647 227.428 66.6895 227.264 67.4054 227.264C68.1213 227.264 68.746 227.428 69.2797 227.756C69.8133 228.085 70.2276 228.545 70.5225 229.138C70.8175 229.732 70.965 230.424 70.965 231.217C70.965 232.005 70.8175 232.695 70.5225 233.285C70.2276 233.875 69.8133 234.334 69.2797 234.662C68.746 234.99 68.1213 235.154 67.4054 235.154ZM67.4103 233.906C67.8743 233.906 68.2588 233.784 68.5637 233.538C68.8687 233.293 69.094 232.967 69.2399 232.559C69.389 232.151 69.4636 231.702 69.4636 231.212C69.4636 230.724 69.389 230.277 69.2399 229.869C69.094 229.458 68.8687 229.129 68.5637 228.88C68.2588 228.631 67.8743 228.507 67.4103 228.507C66.943 228.507 66.5552 228.631 66.247 228.88C65.9421 229.129 65.715 229.458 65.5659 229.869C65.42 230.277 65.3471 230.724 65.3471 231.212C65.3471 231.702 65.42 232.151 65.5659 232.559C65.715 232.967 65.9421 233.293 66.247 233.538C66.5552 233.784 66.943 233.906 67.4103 233.906ZM72.6243 235V227.364H74.0611V228.577H74.1406C74.2798 228.166 74.5251 227.843 74.8764 227.607C75.2311 227.369 75.6321 227.249 76.0795 227.249C76.1723 227.249 76.2817 227.253 76.4077 227.259C76.5369 227.266 76.638 227.274 76.7109 227.284V228.706C76.6513 228.689 76.5452 228.671 76.3928 228.651C76.2403 228.628 76.0878 228.616 75.9354 228.616C75.584 228.616 75.2708 228.691 74.9957 228.84C74.724 228.986 74.5085 229.19 74.3494 229.452C74.1903 229.71 74.1108 230.005 74.1108 230.337V235H72.6243ZM80.5826 235.149C79.9661 235.149 79.4159 234.992 78.932 234.677C78.4514 234.359 78.0736 233.906 77.7985 233.32C77.5267 232.73 77.3908 232.022 77.3908 231.197C77.3908 230.371 77.5283 229.665 77.8034 229.079C78.0819 228.492 78.463 228.043 78.9469 227.732C79.4308 227.42 79.9793 227.264 80.5925 227.264C81.0665 227.264 81.4476 227.344 81.736 227.503C82.0276 227.659 82.253 227.841 82.4121 228.05C82.5745 228.259 82.7005 228.442 82.79 228.602H82.8794V224.818H84.3659V235H82.9142V233.812H82.79C82.7005 233.974 82.5712 234.16 82.4022 234.369C82.2364 234.577 82.0078 234.76 81.7161 234.915C81.4244 235.071 81.0466 235.149 80.5826 235.149ZM80.9107 233.881C81.3382 233.881 81.6995 233.769 81.9945 233.543C82.2928 233.315 82.5182 232.998 82.6706 232.594C82.8264 232.189 82.9043 231.719 82.9043 231.182C82.9043 230.652 82.8281 230.187 82.6756 229.79C82.5231 229.392 82.2994 229.082 82.0044 228.86C81.7095 228.638 81.3449 228.527 80.9107 228.527C80.4632 228.527 80.0904 228.643 79.7921 228.875C79.4938 229.107 79.2684 229.424 79.1159 229.825C78.9668 230.226 78.8922 230.678 78.8922 231.182C78.8922 231.692 78.9685 232.151 79.1209 232.559C79.2734 232.967 79.4988 233.29 79.7971 233.528C80.0987 233.764 80.4699 233.881 80.9107 233.881Z" fill="#3B4758"/>
<rect x="19" y="245" width="446" height="56" rx="9" stroke="#BDBDBD" stroke-width="2"/>
<mask id="mask4_178_1074" style="mask-type:alpha" maskUnits="userSpaceOnUse" x="36" y="263" width="20" height="20">
<rect x="36" y="263" width="20" height="20" fill="#D9D9D9"/>
</mask>
<g mask="url(#mask4_178_1074)">
<path d="M40.9997 281.333C40.5413 281.333 40.1491 281.17 39.823 280.844C39.4963 280.518 39.333 280.125 39.333 279.667V271.333C39.333 270.875 39.4963 270.483 39.823 270.156C40.1491 269.83 40.5413 269.667 40.9997 269.667H41.833V268C41.833 266.847 42.2394 265.865 43.0522 265.052C43.8644 264.24 44.8469 263.833 45.9997 263.833C47.1525 263.833 48.1352 264.24 48.948 265.052C49.7602 265.865 50.1663 266.847 50.1663 268V269.667H50.9997C51.458 269.667 51.8505 269.83 52.1772 270.156C52.5033 270.483 52.6663 270.875 52.6663 271.333V279.667C52.6663 280.125 52.5033 280.518 52.1772 280.844C51.8505 281.17 51.458 281.333 50.9997 281.333H40.9997ZM45.9997 277.167C46.458 277.167 46.8505 277.004 47.1772 276.678C47.5033 276.351 47.6663 275.958 47.6663 275.5C47.6663 275.042 47.5033 274.649 47.1772 274.323C46.8505 273.997 46.458 273.833 45.9997 273.833C45.5413 273.833 45.1491 273.997 44.823 274.323C44.4963 274.649 44.333 275.042 44.333 275.5C44.333 275.958 44.4963 276.351 44.823 276.678C45.1491 277.004 45.5413 277.167 45.9997 277.167ZM43.4997 269.667H48.4997V268C48.4997 267.306 48.2566 266.715 47.7705 266.229C47.2844 265.743 46.6941 265.5 45.9997 265.5C45.3052 265.5 44.715 265.743 44.2288 266.229C43.7427 266.715 43.4997 267.306 43.4997 268V269.667Z" fill="#616161"/>
</g>
<path d="M71.4545 273.909L71.5455 271.409L69.4318 272.75L68.8864 271.795L71.1136 270.636L68.8864 269.477L69.4318 268.523L71.5455 269.864L71.4545 267.364H72.5455L72.4545 269.864L74.5682 268.523L75.1136 269.477L72.8864 270.636L75.1136 271.795L74.5682 272.75L72.4545 271.409L72.5455 273.909H71.4545ZM79.1345 273.909L79.2255 271.409L77.1118 272.75L76.5664 271.795L78.7936 270.636L76.5664 269.477L77.1118 268.523L79.2255 269.864L79.1345 267.364H80.2255L80.1345 269.864L82.2482 268.523L82.7936 269.477L80.5664 270.636L82.7936 271.795L82.2482 272.75L80.1345 271.409L80.2255 273.909H79.1345ZM86.8145 273.909L86.9055 271.409L84.7918 272.75L84.2464 271.795L86.4736 270.636L84.2464 269.477L84.7918 268.523L86.9055 269.864L86.8145 267.364H87.9055L87.8145 269.864L89.9282 268.523L90.4736 269.477L88.2464 270.636L90.4736 271.795L89.9282 272.75L87.8145 271.409L87.9055 273.909H86.8145ZM94.4945 273.909L94.5855 271.409L92.4718 272.75L91.9264 271.795L94.1536 270.636L91.9264 269.477L92.4718 268.523L94.5855 269.864L94.4945 267.364H95.5855L95.4945 269.864L97.6082 268.523L98.1536 269.477L95.9264 270.636L98.1536 271.795L97.6082 272.75L95.4945 271.409L95.5855 273.909H94.4945ZM102.175 273.909L102.265 271.409L100.152 272.75L99.6064 271.795L101.834 270.636L99.6064 269.477L100.152 268.523L102.265 269.864L102.175 267.364H103.265L103.175 269.864L105.288 268.523L105.834 269.477L103.606 270.636L105.834 271.795L105.288 272.75L103.175 271.409L103.265 273.909H102.175ZM109.855 273.909L109.945 271.409L107.832 272.75L107.286 271.795L109.514 270.636L107.286 269.477L107.832 268.523L109.945 269.864L109.855 267.364H110.945L110.855 269.864L112.968 268.523L113.514 269.477L111.286 270.636L113.514 271.795L112.968 272.75L110.855 271.409L110.945 273.909H109.855Z" fill="#292535"/>
<mask id="mask5_178_1074" style="mask-type:alpha" maskUnits="userSpaceOnUse" x="364" y="263" width="20" height="20">
<rect x="364" y="263" width="20" height="20" fill="#D9D9D9"/>
</mask>
<g mask="url(#mask5_178_1074)">
<path d="M380.084 276.75L377.417 274.083C377.528 273.847 377.611 273.608 377.667 273.365C377.723 273.122 377.75 272.861 377.75 272.583C377.75 271.542 377.386 270.656 376.657 269.927C375.928 269.198 375.042 268.833 374 268.833C373.723 268.833 373.462 268.861 373.219 268.917C372.976 268.972 372.736 269.056 372.5 269.167L370.375 267.042C370.945 266.806 371.528 266.628 372.125 266.51C372.723 266.392 373.348 266.333 374 266.333C375.986 266.333 377.771 266.858 379.354 267.906C380.938 268.955 382.125 270.319 382.917 272C382.959 272.069 382.986 272.156 383 272.26C383.014 272.364 383.021 272.472 383.021 272.583C383.021 272.694 383.011 272.802 382.99 272.906C382.969 273.01 382.945 273.097 382.917 273.167C382.598 273.875 382.198 274.535 381.719 275.146C381.24 275.757 380.695 276.292 380.084 276.75ZM379.917 281.25L377 278.375C376.514 278.528 376.025 278.643 375.532 278.719C375.039 278.795 374.528 278.833 374 278.833C372.014 278.833 370.229 278.309 368.646 277.261C367.063 276.212 365.875 274.847 365.084 273.167C365.042 273.097 365.014 273.01 365 272.906C364.986 272.802 364.979 272.694 364.979 272.583C364.979 272.472 364.986 272.368 365 272.271C365.014 272.174 365.042 272.09 365.084 272.021C365.375 271.396 365.723 270.819 366.125 270.292C366.528 269.764 366.973 269.278 367.459 268.833L365.729 267.083C365.577 266.931 365.5 266.739 365.5 266.51C365.5 266.281 365.584 266.083 365.75 265.917C365.903 265.764 366.098 265.688 366.334 265.688C366.57 265.688 366.764 265.764 366.917 265.917L381.084 280.083C381.236 280.236 381.316 280.427 381.324 280.657C381.33 280.886 381.25 281.083 381.084 281.25C380.931 281.403 380.736 281.479 380.5 281.479C380.264 281.479 380.07 281.403 379.917 281.25ZM374 276.333C374.153 276.333 374.295 276.326 374.427 276.313C374.559 276.299 374.702 276.271 374.854 276.229L370.354 271.729C370.313 271.882 370.285 272.024 370.271 272.157C370.257 272.288 370.25 272.431 370.25 272.583C370.25 273.625 370.615 274.511 371.344 275.24C372.073 275.969 372.959 276.333 374 276.333ZM376.209 272.875L373.709 270.375C374.5 270.25 375.146 270.472 375.646 271.042C376.146 271.611 376.334 272.222 376.209 272.875Z" fill="#616161"/>
</g>
<path d="M21.1186 335V324.818H24.7479C25.54 324.818 26.1963 324.962 26.7166 325.251C27.237 325.539 27.6264 325.933 27.8849 326.434C28.1435 326.931 28.2727 327.491 28.2727 328.114C28.2727 328.741 28.1418 329.304 27.88 329.805C27.6214 330.302 27.2304 330.696 26.7067 330.988C26.1863 331.276 25.5317 331.42 24.7429 331.42H22.2472V330.118H24.6037C25.1042 330.118 25.5102 330.032 25.8217 329.859C26.1333 329.684 26.362 329.445 26.5078 329.143C26.6536 328.842 26.7266 328.499 26.7266 328.114C26.7266 327.73 26.6536 327.388 26.5078 327.09C26.362 326.792 26.1316 326.558 25.8168 326.389C25.5052 326.22 25.0942 326.136 24.5838 326.136H22.6548V335H21.1186ZM32.1083 335.169C31.6244 335.169 31.1869 335.08 30.7958 334.901C30.4047 334.718 30.0948 334.455 29.8661 334.11C29.6407 333.765 29.5281 333.343 29.5281 332.842C29.5281 332.411 29.6109 332.057 29.7766 331.778C29.9424 331.5 30.1661 331.28 30.4478 331.117C30.7295 330.955 31.0444 330.832 31.3924 330.749C31.7404 330.666 32.0951 330.603 32.4563 330.56C32.9137 330.507 33.2849 330.464 33.57 330.431C33.855 330.395 34.0621 330.337 34.1914 330.257C34.3207 330.178 34.3853 330.048 34.3853 329.869V329.835C34.3853 329.4 34.2627 329.064 34.0174 328.825C33.7755 328.587 33.4142 328.467 32.9336 328.467C32.4331 328.467 32.0387 328.578 31.7504 328.8C31.4653 329.019 31.2681 329.263 31.1587 329.531L29.7617 329.213C29.9274 328.749 30.1694 328.375 30.4876 328.089C30.8091 327.801 31.1786 327.592 31.5962 327.463C32.0138 327.33 32.453 327.264 32.9137 327.264C33.2186 327.264 33.5418 327.301 33.8832 327.374C34.2279 327.443 34.5494 327.572 34.8477 327.761C35.1493 327.95 35.3962 328.22 35.5884 328.572C35.7807 328.92 35.8768 329.372 35.8768 329.929V335H34.4251V333.956H34.3654C34.2693 334.148 34.1251 334.337 33.9329 334.523C33.7406 334.708 33.4937 334.862 33.1921 334.985C32.8905 335.108 32.5292 335.169 32.1083 335.169ZM32.4315 333.976C32.8424 333.976 33.1938 333.895 33.4854 333.732C33.7804 333.57 34.0041 333.358 34.1566 333.096C34.3124 332.831 34.3903 332.547 34.3903 332.246V331.261C34.3372 331.314 34.2345 331.364 34.082 331.411C33.9329 331.454 33.7622 331.492 33.57 331.525C33.3777 331.555 33.1905 331.583 33.0082 331.609C32.8259 331.633 32.6734 331.652 32.5508 331.669C32.2624 331.705 31.9989 331.767 31.7603 331.853C31.525 331.939 31.3361 332.063 31.1935 332.226C31.0543 332.385 30.9847 332.597 30.9847 332.862C30.9847 333.23 31.1206 333.509 31.3924 333.697C31.6642 333.883 32.0105 333.976 32.4315 333.976ZM43.579 329.228L42.2317 329.467C42.1754 329.294 42.0859 329.13 41.9632 328.974C41.8439 328.819 41.6815 328.691 41.476 328.592C41.2705 328.492 41.0137 328.442 40.7054 328.442C40.2845 328.442 39.9332 328.537 39.6515 328.726C39.3697 328.911 39.2289 329.152 39.2289 329.447C39.2289 329.702 39.3233 329.907 39.5123 330.063C39.7012 330.219 40.0061 330.347 40.427 330.446L41.6401 330.724C42.3427 330.887 42.8664 331.137 43.2111 331.475C43.5558 331.813 43.7282 332.252 43.7282 332.793C43.7282 333.25 43.5956 333.658 43.3304 334.016C43.0686 334.37 42.7024 334.649 42.2317 334.851C41.7644 335.053 41.2225 335.154 40.606 335.154C39.7509 335.154 39.0532 334.972 38.513 334.607C37.9727 334.239 37.6413 333.717 37.5186 333.041L38.9554 332.822C39.0449 333.197 39.2289 333.48 39.5073 333.673C39.7857 333.862 40.1486 333.956 40.5961 333.956C41.0833 333.956 41.4727 333.855 41.7644 333.653C42.056 333.447 42.2019 333.197 42.2019 332.902C42.2019 332.663 42.1124 332.463 41.9334 332.3C41.7578 332.138 41.4876 332.015 41.123 331.933L39.8304 331.649C39.1178 331.487 38.5908 331.228 38.2495 330.874C37.9114 330.519 37.7424 330.07 37.7424 329.526C37.7424 329.076 37.8683 328.681 38.1202 328.343C38.3721 328.005 38.7201 327.741 39.1642 327.553C39.6084 327.36 40.1171 327.264 40.6905 327.264C41.5158 327.264 42.1654 327.443 42.6394 327.801C43.1133 328.156 43.4266 328.631 43.579 329.228ZM51.0849 329.228L49.7376 329.467C49.6812 329.294 49.5917 329.13 49.4691 328.974C49.3498 328.819 49.1874 328.691 48.9819 328.592C48.7764 328.492 48.5195 328.442 48.2113 328.442C47.7904 328.442 47.439 328.537 47.1573 328.726C46.8756 328.911 46.7347 329.152 46.7347 329.447C46.7347 329.702 46.8292 329.907 47.0181 330.063C47.207 330.219 47.512 330.347 47.9329 330.446L49.146 330.724C49.8486 330.887 50.3723 331.137 50.717 331.475C51.0617 331.813 51.234 332.252 51.234 332.793C51.234 333.25 51.1014 333.658 50.8363 334.016C50.5745 334.37 50.2082 334.649 49.7376 334.851C49.2702 335.053 48.7283 335.154 48.1119 335.154C47.2567 335.154 46.5591 334.972 46.0188 334.607C45.4786 334.239 45.1471 333.717 45.0245 333.041L46.4613 332.822C46.5508 333.197 46.7347 333.48 47.0131 333.673C47.2915 333.862 47.6545 333.956 48.1019 333.956C48.5891 333.956 48.9786 333.855 49.2702 333.653C49.5619 333.447 49.7077 333.197 49.7077 332.902C49.7077 332.663 49.6183 332.463 49.4393 332.3C49.2636 332.138 48.9935 332.015 48.6289 331.933L47.3363 331.649C46.6237 331.487 46.0967 331.228 45.7553 330.874C45.4173 330.519 45.2482 330.07 45.2482 329.526C45.2482 329.076 45.3742 328.681 45.6261 328.343C45.878 328.005 46.226 327.741 46.6701 327.553C47.1142 327.36 47.623 327.264 48.1964 327.264C49.0217 327.264 49.6713 327.443 50.1452 327.801C50.6192 328.156 50.9324 328.631 51.0849 329.228ZM54.524 335L52.2768 327.364H53.813L55.3095 332.972H55.3841L56.8855 327.364H58.4217L59.9132 332.947H59.9877L61.4743 327.364H63.0105L60.7683 335H59.252L57.7008 329.487H57.5865L56.0353 335H54.524ZM67.4054 335.154C66.6895 335.154 66.0647 334.99 65.5311 334.662C64.9975 334.334 64.5832 333.875 64.2882 333.285C63.9932 332.695 63.8457 332.005 63.8457 331.217C63.8457 330.424 63.9932 329.732 64.2882 329.138C64.5832 328.545 64.9975 328.085 65.5311 327.756C66.0647 327.428 66.6895 327.264 67.4054 327.264C68.1213 327.264 68.746 327.428 69.2797 327.756C69.8133 328.085 70.2276 328.545 70.5225 329.138C70.8175 329.732 70.965 330.424 70.965 331.217C70.965 332.005 70.8175 332.695 70.5225 333.285C70.2276 333.875 69.8133 334.334 69.2797 334.662C68.746 334.99 68.1213 335.154 67.4054 335.154ZM67.4103 333.906C67.8743 333.906 68.2588 333.784 68.5637 333.538C68.8687 333.293 69.094 332.967 69.2399 332.559C69.389 332.151 69.4636 331.702 69.4636 331.212C69.4636 330.724 69.389 330.277 69.2399 329.869C69.094 329.458 68.8687 329.129 68.5637 328.88C68.2588 328.631 67.8743 328.507 67.4103 328.507C66.943 328.507 66.5552 328.631 66.247 328.88C65.9421 329.129 65.715 329.458 65.5659 329.869C65.42 330.277 65.3471 330.724 65.3471 331.212C65.3471 331.702 65.42 332.151 65.5659 332.559C65.715 332.967 65.9421 333.293 66.247 333.538C66.5552 333.784 66.943 333.906 67.4103 333.906ZM72.6243 335V327.364H74.0611V328.577H74.1406C74.2798 328.166 74.5251 327.843 74.8764 327.607C75.2311 327.369 75.6321 327.249 76.0795 327.249C76.1723 327.249 76.2817 327.253 76.4077 327.259C76.5369 327.266 76.638 327.274 76.7109 327.284V328.706C76.6513 328.689 76.5452 328.671 76.3928 328.651C76.2403 328.628 76.0878 328.616 75.9354 328.616C75.584 328.616 75.2708 328.691 74.9957 328.84C74.724 328.986 74.5085 329.19 74.3494 329.452C74.1903 329.71 74.1108 330.005 74.1108 330.337V335H72.6243ZM80.5826 335.149C79.9661 335.149 79.4159 334.992 78.932 334.677C78.4514 334.359 78.0736 333.906 77.7985 333.32C77.5267 332.73 77.3908 332.022 77.3908 331.197C77.3908 330.371 77.5283 329.665 77.8034 329.079C78.0819 328.492 78.463 328.043 78.9469 327.732C79.4308 327.42 79.9793 327.264 80.5925 327.264C81.0665 327.264 81.4476 327.344 81.736 327.503C82.0276 327.659 82.253 327.841 82.4121 328.05C82.5745 328.259 82.7005 328.442 82.79 328.602H82.8794V324.818H84.3659V335H82.9142V333.812H82.79C82.7005 333.974 82.5712 334.16 82.4022 334.369C82.2364 334.577 82.0078 334.76 81.7161 334.915C81.4244 335.071 81.0466 335.149 80.5826 335.149ZM80.9107 333.881C81.3382 333.881 81.6995 333.769 81.9945 333.543C82.2928 333.315 82.5182 332.998 82.6706 332.594C82.8264 332.189 82.9043 331.719 82.9043 331.182C82.9043 330.652 82.8281 330.187 82.6756 329.79C82.5231 329.392 82.2994 329.082 82.0044 328.86C81.7095 328.638 81.3449 328.527 80.9107 328.527C80.4632 328.527 80.0904 328.643 79.7921 328.875C79.4938 329.107 79.2684 329.424 79.1159 329.825C78.9668 330.226 78.8922 330.678 78.8922 331.182C78.8922 331.692 78.9685 332.151 79.1209 332.559C79.2734 332.967 79.4988 333.29 79.7971 333.528C80.0987 333.764 80.4699 333.881 80.9107 333.881Z" fill="#3B4758"/>
<rect x="19" y="345" width="446" height="56" rx="9" fill="white"/>
<rect x="19" y="345" width="446" height="56" rx="9" stroke="#FF383C" stroke-width="2"/>
<mask id="mask6_178_1074" style="mask-type:alpha" maskUnits="userSpaceOnUse" x="36" y="363" width="20" height="20">
<rect x="36" y="363" width="20" height="20" fill="#D9D9D9"/>
</mask>
<g mask="url(#mask6_178_1074)">
<path d="M40.9997 381.333C40.5413 381.333 40.1491 381.17 39.823 380.844C39.4963 380.518 39.333 380.125 39.333 379.667V371.333C39.333 370.875 39.4963 370.483 39.823 370.156C40.1491 369.83 40.5413 369.667 40.9997 369.667H41.833V368C41.833 366.847 42.2394 365.865 43.0522 365.052C43.8644 364.24 44.8469 363.833 45.9997 363.833C47.1525 363.833 48.1352 364.24 48.948 365.052C49.7602 365.865 50.1663 366.847 50.1663 368V369.667H50.9997C51.458 369.667 51.8505 369.83 52.1772 370.156C52.5033 370.483 52.6663 370.875 52.6663 371.333V379.667C52.6663 380.125 52.5033 380.518 52.1772 380.844C51.8505 381.17 51.458 381.333 50.9997 381.333H40.9997ZM45.9997 377.167C46.458 377.167 46.8505 377.004 47.1772 376.678C47.5033 376.351 47.6663 375.958 47.6663 375.5C47.6663 375.042 47.5033 374.649 47.1772 374.323C46.8505 373.997 46.458 373.833 45.9997 373.833C45.5413 373.833 45.1491 373.997 44.823 374.323C44.4963 374.649 44.333 375.042 44.333 375.5C44.333 375.958 44.4963 376.351 44.823 376.678C45.1491 377.004 45.5413 377.167 45.9997 377.167ZM43.4997 369.667H48.4997V368C48.4997 367.306 48.2566 366.715 47.7705 366.229C47.2844 365.743 46.6941 365.5 45.9997 365.5C45.3052 365.5 44.715 365.743 44.2288 366.229C43.7427 366.715 43.4997 367.306 43.4997 368V369.667Z" fill="#616161"/>
</g>
<path d="M71.4545 373.909L71.5455 371.409L69.4318 372.75L68.8864 371.795L71.1136 370.636L68.8864 369.477L69.4318 368.523L71.5455 369.864L71.4545 367.364H72.5455L72.4545 369.864L74.5682 368.523L75.1136 369.477L72.8864 370.636L75.1136 371.795L74.5682 372.75L72.4545 371.409L72.5455 373.909H71.4545ZM79.1345 373.909L79.2255 371.409L77.1118 372.75L76.5664 371.795L78.7936 370.636L76.5664 369.477L77.1118 368.523L79.2255 369.864L79.1345 367.364H80.2255L80.1345 369.864L82.2482 368.523L82.7936 369.477L80.5664 370.636L82.7936 371.795L82.2482 372.75L80.1345 371.409L80.2255 373.909H79.1345ZM86.8145 373.909L86.9055 371.409L84.7918 372.75L84.2464 371.795L86.4736 370.636L84.2464 369.477L84.7918 368.523L86.9055 369.864L86.8145 367.364H87.9055L87.8145 369.864L89.9282 368.523L90.4736 369.477L88.2464 370.636L90.4736 371.795L89.9282 372.75L87.8145 371.409L87.9055 373.909H86.8145ZM94.4945 373.909L94.5855 371.409L92.4718 372.75L91.9264 371.795L94.1536 370.636L91.9264 369.477L92.4718 368.523L94.5855 369.864L94.4945 367.364H95.5855L95.4945 369.864L97.6082 368.523L98.1536 369.477L95.9264 370.636L98.1536 371.795L97.6082 372.75L95.4945 371.409L95.5855 373.909H94.4945ZM102.175 373.909L102.265 371.409L100.152 372.75L99.6064 371.795L101.834 370.636L99.6064 369.477L100.152 368.523L102.265 369.864L102.175 367.364H103.265L103.175 369.864L105.288 368.523L105.834 369.477L103.606 370.636L105.834 371.795L105.288 372.75L103.175 371.409L103.265 373.909H102.175ZM109.855 373.909L109.945 371.409L107.832 372.75L107.286 371.795L109.514 370.636L107.286 369.477L107.832 368.523L109.945 369.864L109.855 367.364H110.945L110.855 369.864L112.968 368.523L113.514 369.477L111.286 370.636L113.514 371.795L112.968 372.75L110.855 371.409L110.945 373.909H109.855Z" fill="#292535"/>
<mask id="mask7_178_1074" style="mask-type:alpha" maskUnits="userSpaceOnUse" x="364" y="363" width="20" height="20">
<rect x="364" y="363" width="20" height="20" fill="#D9D9D9"/>
</mask>
<g mask="url(#mask7_178_1074)">
<path d="M380.084 376.75L377.417 374.083C377.528 373.847 377.611 373.608 377.667 373.365C377.723 373.122 377.75 372.861 377.75 372.583C377.75 371.542 377.386 370.656 376.657 369.927C375.928 369.198 375.042 368.833 374 368.833C373.723 368.833 373.462 368.861 373.219 368.917C372.976 368.972 372.736 369.056 372.5 369.167L370.375 367.042C370.945 366.806 371.528 366.628 372.125 366.51C372.723 366.392 373.348 366.333 374 366.333C375.986 366.333 377.771 366.858 379.354 367.906C380.938 368.955 382.125 370.319 382.917 372C382.959 372.069 382.986 372.156 383 372.26C383.014 372.364 383.021 372.472 383.021 372.583C383.021 372.694 383.011 372.802 382.99 372.906C382.969 373.01 382.945 373.097 382.917 373.167C382.598 373.875 382.198 374.535 381.719 375.146C381.24 375.757 380.695 376.292 380.084 376.75ZM379.917 381.25L377 378.375C376.514 378.528 376.025 378.643 375.532 378.719C375.039 378.795 374.528 378.833 374 378.833C372.014 378.833 370.229 378.309 368.646 377.261C367.063 376.212 365.875 374.847 365.084 373.167C365.042 373.097 365.014 373.01 365 372.906C364.986 372.802 364.979 372.694 364.979 372.583C364.979 372.472 364.986 372.368 365 372.271C365.014 372.174 365.042 372.09 365.084 372.021C365.375 371.396 365.723 370.819 366.125 370.292C366.528 369.764 366.973 369.278 367.459 368.833L365.729 367.083C365.577 366.931 365.5 366.739 365.5 366.51C365.5 366.281 365.584 366.083 365.75 365.917C365.903 365.764 366.098 365.688 366.334 365.688C366.57 365.688 366.764 365.764 366.917 365.917L381.084 380.083C381.236 380.236 381.316 380.427 381.324 380.657C381.33 380.886 381.25 381.083 381.084 381.25C380.931 381.403 380.736 381.479 380.5 381.479C380.264 381.479 380.07 381.403 379.917 381.25ZM374 376.333C374.153 376.333 374.295 376.326 374.427 376.313C374.559 376.299 374.702 376.271 374.854 376.229L370.354 371.729C370.313 371.882 370.285 372.024 370.271 372.157C370.257 372.288 370.25 372.431 370.25 372.583C370.25 373.625 370.615 374.511 371.344 375.24C372.073 375.969 372.959 376.333 374 376.333ZM376.209 372.875L373.709 370.375C374.5 370.25 375.146 370.472 375.646 371.042C376.146 371.611 376.334 372.222 376.209 372.875Z" fill="#616161"/>
</g>
<mask id="mask8_178_1074" style="mask-type:alpha" maskUnits="userSpaceOnUse" x="20" y="410" width="12" height="12">
<rect x="20" y="410" width="12" height="12" fill="#D9D9D9"/>
</mask>
<g mask="url(#mask8_178_1074)">
<path d="M26 418.5C26.1417 418.5 26.2605 418.452 26.3565 418.356C26.4522 418.26 26.5 418.142 26.5 418V415.988C26.5 415.846 26.4522 415.729 26.3565 415.637C26.2605 415.546 26.1417 415.5 26 415.5C25.8583 415.5 25.7397 415.548 25.644 415.643C25.548 415.74 25.5 415.858 25.5 416V418.012C25.5 418.154 25.548 418.271 25.644 418.363C25.7397 418.454 25.8583 418.5 26 418.5ZM26 414.5C26.1417 414.5 26.2605 414.452 26.3565 414.356C26.4522 414.26 26.5 414.142 26.5 414C26.5 413.858 26.4522 413.74 26.3565 413.644C26.2605 413.548 26.1417 413.5 26 413.5C25.8583 413.5 25.7397 413.548 25.644 413.644C25.548 413.74 25.5 413.858 25.5 414C25.5 414.142 25.548 414.26 25.644 414.356C25.7397 414.452 25.8583 414.5 26 414.5ZM26 421C25.3083 421 24.6583 420.869 24.05 420.606C23.4417 420.344 22.9125 419.988 22.4625 419.538C22.0125 419.088 21.6563 418.558 21.394 417.95C21.1313 417.342 21 416.692 21 416C21 415.308 21.1313 414.658 21.394 414.05C21.6563 413.442 22.0125 412.913 22.4625 412.463C22.9125 412.013 23.4417 411.656 24.05 411.393C24.6583 411.131 25.3083 411 26 411C26.6917 411 27.3417 411.131 27.95 411.393C28.5583 411.656 29.0875 412.013 29.5375 412.463C29.9875 412.913 30.3437 413.442 30.606 414.05C30.8687 414.658 31 415.308 31 416C31 416.692 30.8687 417.342 30.606 417.95C30.3437 418.558 29.9875 419.088 29.5375 419.538C29.0875 419.988 28.5583 420.344 27.95 420.606C27.3417 420.869 26.6917 421 26 421Z" fill="#BB1F1F"/>
</g>
<path d="M36.6548 410.818V421H35.1186V410.818H36.6548ZM40.2592 416.466V421H38.7727V413.364H40.1996V414.607H40.294C40.4697 414.202 40.7448 413.877 41.1193 413.632C41.4972 413.387 41.9728 413.264 42.5462 413.264C43.0665 413.264 43.5223 413.374 43.9134 413.592C44.3045 413.808 44.6077 414.129 44.8232 414.557C45.0386 414.984 45.1463 415.513 45.1463 416.143V421H43.6598V416.322C43.6598 415.768 43.5156 415.336 43.2273 415.024C42.9389 414.709 42.5429 414.552 42.0391 414.552C41.6944 414.552 41.3878 414.626 41.1193 414.776C40.8542 414.925 40.6437 415.143 40.4879 415.432C40.3355 415.717 40.2592 416.062 40.2592 416.466ZM50.3565 421.154C49.6174 421.154 48.9811 420.987 48.4474 420.652C47.9171 420.314 47.5095 419.848 47.2244 419.255C46.9394 418.662 46.7969 417.982 46.7969 417.217C46.7969 416.441 46.9427 415.757 47.2344 415.163C47.526 414.567 47.937 414.101 48.4673 413.766C48.9976 413.432 49.6224 413.264 50.3416 413.264C50.9216 413.264 51.4387 413.372 51.8928 413.587C52.3468 413.799 52.7131 414.098 52.9915 414.482C53.2732 414.867 53.4406 415.316 53.4936 415.83H52.0469C51.9673 415.472 51.785 415.163 51.5 414.905C51.2183 414.646 50.8404 414.517 50.3665 414.517C49.9522 414.517 49.5893 414.626 49.2777 414.845C48.9695 415.061 48.7292 415.369 48.5568 415.77C48.3845 416.168 48.2983 416.638 48.2983 417.182C48.2983 417.739 48.3828 418.219 48.5518 418.624C48.7209 419.028 48.9595 419.341 49.2678 419.563C49.5793 419.785 49.9455 419.896 50.3665 419.896C50.6482 419.896 50.9034 419.845 51.1321 419.742C51.3641 419.636 51.558 419.485 51.7138 419.29C51.8729 419.094 51.9839 418.859 52.0469 418.584H53.4936C53.4406 419.078 53.2798 419.518 53.0114 419.906C52.7429 420.294 52.3833 420.599 51.9325 420.821C51.4851 421.043 50.9598 421.154 50.3565 421.154ZM58.2999 421.154C57.584 421.154 56.9592 420.99 56.4256 420.662C55.892 420.334 55.4777 419.875 55.1827 419.285C54.8877 418.695 54.7402 418.005 54.7402 417.217C54.7402 416.424 54.8877 415.732 55.1827 415.138C55.4777 414.545 55.892 414.085 56.4256 413.756C56.9592 413.428 57.584 413.264 58.2999 413.264C59.0158 413.264 59.6406 413.428 60.1742 413.756C60.7078 414.085 61.1221 414.545 61.4171 415.138C61.7121 415.732 61.8596 416.424 61.8596 417.217C61.8596 418.005 61.7121 418.695 61.4171 419.285C61.1221 419.875 60.7078 420.334 60.1742 420.662C59.6406 420.99 59.0158 421.154 58.2999 421.154ZM58.3049 419.906C58.7689 419.906 59.1534 419.784 59.4583 419.538C59.7632 419.293 59.9886 418.967 60.1344 418.559C60.2836 418.151 60.3581 417.702 60.3581 417.212C60.3581 416.724 60.2836 416.277 60.1344 415.869C59.9886 415.458 59.7632 415.129 59.4583 414.88C59.1534 414.631 58.7689 414.507 58.3049 414.507C57.8375 414.507 57.4498 414.631 57.1415 414.88C56.8366 415.129 56.6096 415.458 56.4604 415.869C56.3146 416.277 56.2417 416.724 56.2417 417.212C56.2417 417.702 56.3146 418.151 56.4604 418.559C56.6096 418.967 56.8366 419.293 57.1415 419.538C57.4498 419.784 57.8375 419.906 58.3049 419.906ZM63.5188 421V413.364H64.9556V414.577H65.0352C65.1744 414.166 65.4196 413.843 65.771 413.607C66.1256 413.369 66.5266 413.249 66.9741 413.249C67.0669 413.249 67.1763 413.253 67.3022 413.259C67.4315 413.266 67.5326 413.274 67.6055 413.284V414.706C67.5458 414.689 67.4397 414.671 67.2873 414.651C67.1348 414.628 66.9824 414.616 66.8299 414.616C66.4786 414.616 66.1654 414.691 65.8903 414.84C65.6185 414.986 65.4031 415.19 65.244 415.452C65.0849 415.71 65.0053 416.005 65.0053 416.337V421H63.5188ZM68.8919 421V413.364H70.3287V414.577H70.4082C70.5474 414.166 70.7927 413.843 71.144 413.607C71.4986 413.369 71.8997 413.249 72.3471 413.249C72.4399 413.249 72.5493 413.253 72.6752 413.259C72.8045 413.266 72.9056 413.274 72.9785 413.284V414.706C72.9189 414.689 72.8128 414.671 72.6603 414.651C72.5079 414.628 72.3554 414.616 72.2029 414.616C71.8516 414.616 71.5384 414.691 71.2633 414.84C70.9915 414.986 70.7761 415.19 70.617 415.452C70.4579 415.71 70.3784 416.005 70.3784 416.337V421H68.8919ZM77.2827 421.154C76.5303 421.154 75.8823 420.993 75.3388 420.672C74.7985 420.347 74.3809 419.891 74.0859 419.305C73.7943 418.715 73.6484 418.024 73.6484 417.232C73.6484 416.449 73.7943 415.76 74.0859 415.163C74.3809 414.567 74.7919 414.101 75.3189 413.766C75.8492 413.432 76.469 413.264 77.1783 413.264C77.6091 413.264 78.0268 413.335 78.4311 413.478C78.8355 413.621 79.1984 413.844 79.5199 414.149C79.8414 414.454 80.0949 414.85 80.2805 415.337C80.4661 415.821 80.5589 416.41 80.5589 417.102V417.629H74.4886V416.516H79.1023C79.1023 416.125 79.0227 415.778 78.8636 415.477C78.7045 415.172 78.4808 414.931 78.1925 414.756C77.9074 414.58 77.5727 414.492 77.1882 414.492C76.7706 414.492 76.406 414.595 76.0945 414.8C75.7862 415.003 75.5476 415.268 75.3786 415.596C75.2128 415.921 75.13 416.274 75.13 416.655V417.525C75.13 418.035 75.2195 418.469 75.3984 418.827C75.5807 419.185 75.8343 419.459 76.1591 419.648C76.4839 419.833 76.8634 419.926 77.2976 419.926C77.5793 419.926 77.8362 419.886 78.0682 419.807C78.3002 419.724 78.5007 419.601 78.6697 419.439C78.8388 419.277 78.968 419.076 79.0575 418.837L80.4645 419.091C80.3518 419.505 80.1496 419.868 79.858 420.18C79.5696 420.488 79.2067 420.728 78.7692 420.901C78.335 421.07 77.8395 421.154 77.2827 421.154ZM85.4249 421.154C84.6858 421.154 84.0494 420.987 83.5158 420.652C82.9855 420.314 82.5778 419.848 82.2928 419.255C82.0078 418.662 81.8652 417.982 81.8652 417.217C81.8652 416.441 82.0111 415.757 82.3027 415.163C82.5944 414.567 83.0054 414.101 83.5357 413.766C84.066 413.432 84.6908 413.264 85.41 413.264C85.99 413.264 86.507 413.372 86.9611 413.587C87.4152 413.799 87.7814 414.098 88.0598 414.482C88.3416 414.867 88.5089 415.316 88.562 415.83H87.1152C87.0357 415.472 86.8534 415.163 86.5684 414.905C86.2866 414.646 85.9088 414.517 85.4348 414.517C85.0205 414.517 84.6576 414.626 84.3461 414.845C84.0378 415.061 83.7975 415.369 83.6252 415.77C83.4528 416.168 83.3667 416.638 83.3667 417.182C83.3667 417.739 83.4512 418.219 83.6202 418.624C83.7892 419.028 84.0279 419.341 84.3361 419.563C84.6477 419.785 85.0139 419.896 85.4348 419.896C85.7166 419.896 85.9718 419.845 86.2005 419.742C86.4325 419.636 86.6264 419.485 86.7821 419.29C86.9412 419.094 87.0523 418.859 87.1152 418.584H88.562C88.5089 419.078 88.3482 419.518 88.0797 419.906C87.8113 420.294 87.4516 420.599 87.0009 420.821C86.5534 421.043 86.0281 421.154 85.4249 421.154ZM93.7163 413.364V414.557H89.5451V413.364H93.7163ZM90.6637 411.534H92.1502V418.758C92.1502 419.046 92.1933 419.263 92.2795 419.409C92.3656 419.552 92.4767 419.649 92.6126 419.702C92.7518 419.752 92.9026 419.777 93.065 419.777C93.1843 419.777 93.2887 419.769 93.3782 419.752C93.4677 419.736 93.5373 419.722 93.587 419.712L93.8555 420.94C93.7693 420.973 93.6467 421.007 93.4876 421.04C93.3285 421.076 93.1296 421.096 92.891 421.099C92.4999 421.106 92.1353 421.036 91.7972 420.891C91.4592 420.745 91.1857 420.519 90.9769 420.214C90.7681 419.91 90.6637 419.527 90.6637 419.066V411.534ZM99.0657 423.864V413.364H100.517V414.602H100.642C100.728 414.442 100.852 414.259 101.015 414.05C101.177 413.841 101.402 413.659 101.691 413.503C101.979 413.344 102.36 413.264 102.834 413.264C103.451 413.264 104.001 413.42 104.485 413.732C104.969 414.043 105.348 414.492 105.623 415.079C105.902 415.665 106.041 416.371 106.041 417.197C106.041 418.022 105.903 418.73 105.628 419.32C105.353 419.906 104.975 420.359 104.495 420.677C104.014 420.992 103.466 421.149 102.849 421.149C102.385 421.149 102.006 421.071 101.711 420.915C101.419 420.76 101.19 420.577 101.025 420.369C100.859 420.16 100.731 419.974 100.642 419.812H100.552V423.864H99.0657ZM100.522 417.182C100.522 417.719 100.6 418.189 100.756 418.594C100.912 418.998 101.137 419.315 101.432 419.543C101.727 419.769 102.088 419.881 102.516 419.881C102.96 419.881 103.331 419.764 103.63 419.528C103.928 419.29 104.153 418.967 104.306 418.559C104.462 418.151 104.539 417.692 104.539 417.182C104.539 416.678 104.463 416.226 104.311 415.825C104.162 415.424 103.936 415.107 103.635 414.875C103.336 414.643 102.963 414.527 102.516 414.527C102.085 414.527 101.721 414.638 101.422 414.86C101.127 415.082 100.904 415.392 100.751 415.79C100.599 416.187 100.522 416.652 100.522 417.182ZM109.929 421.169C109.445 421.169 109.007 421.08 108.616 420.901C108.225 420.718 107.915 420.455 107.686 420.11C107.461 419.765 107.348 419.343 107.348 418.842C107.348 418.411 107.431 418.057 107.597 417.778C107.763 417.5 107.986 417.28 108.268 417.117C108.55 416.955 108.865 416.832 109.213 416.749C109.561 416.666 109.915 416.603 110.277 416.56C110.734 416.507 111.105 416.464 111.39 416.431C111.675 416.395 111.882 416.337 112.012 416.257C112.141 416.178 112.206 416.048 112.206 415.869V415.835C112.206 415.4 112.083 415.064 111.838 414.825C111.596 414.587 111.234 414.467 110.754 414.467C110.253 414.467 109.859 414.578 109.571 414.8C109.286 415.019 109.088 415.263 108.979 415.531L107.582 415.213C107.748 414.749 107.99 414.375 108.308 414.089C108.629 413.801 108.999 413.592 109.417 413.463C109.834 413.33 110.273 413.264 110.734 413.264C111.039 413.264 111.362 413.301 111.703 413.374C112.048 413.443 112.37 413.572 112.668 413.761C112.97 413.95 113.217 414.22 113.409 414.572C113.601 414.92 113.697 415.372 113.697 415.929V421H112.245V419.956H112.186C112.09 420.148 111.945 420.337 111.753 420.523C111.561 420.708 111.314 420.862 111.012 420.985C110.711 421.108 110.35 421.169 109.929 421.169ZM110.252 419.976C110.663 419.976 111.014 419.895 111.306 419.732C111.601 419.57 111.824 419.358 111.977 419.096C112.133 418.831 112.211 418.547 112.211 418.246V417.261C112.158 417.314 112.055 417.364 111.902 417.411C111.753 417.454 111.583 417.492 111.39 417.525C111.198 417.555 111.011 417.583 110.828 417.609C110.646 417.633 110.494 417.652 110.371 417.669C110.083 417.705 109.819 417.767 109.581 417.853C109.345 417.939 109.156 418.063 109.014 418.226C108.875 418.385 108.805 418.597 108.805 418.862C108.805 419.23 108.941 419.509 109.213 419.697C109.484 419.883 109.831 419.976 110.252 419.976ZM121.399 415.228L120.052 415.467C119.996 415.294 119.906 415.13 119.784 414.974C119.664 414.819 119.502 414.691 119.296 414.592C119.091 414.492 118.834 414.442 118.526 414.442C118.105 414.442 117.753 414.537 117.472 414.726C117.19 414.911 117.049 415.152 117.049 415.447C117.049 415.702 117.144 415.907 117.333 416.063C117.521 416.219 117.826 416.347 118.247 416.446L119.46 416.724C120.163 416.887 120.687 417.137 121.031 417.475C121.376 417.813 121.548 418.252 121.548 418.793C121.548 419.25 121.416 419.658 121.151 420.016C120.889 420.37 120.523 420.649 120.052 420.851C119.585 421.053 119.043 421.154 118.426 421.154C117.571 421.154 116.874 420.972 116.333 420.607C115.793 420.239 115.462 419.717 115.339 419.041L116.776 418.822C116.865 419.197 117.049 419.48 117.328 419.673C117.606 419.862 117.969 419.956 118.416 419.956C118.904 419.956 119.293 419.855 119.585 419.653C119.876 419.447 120.022 419.197 120.022 418.902C120.022 418.663 119.933 418.463 119.754 418.3C119.578 418.138 119.308 418.015 118.943 417.933L117.651 417.649C116.938 417.487 116.411 417.228 116.07 416.874C115.732 416.519 115.563 416.07 115.563 415.526C115.563 415.076 115.689 414.681 115.941 414.343C116.192 414.005 116.54 413.741 116.985 413.553C117.429 413.36 117.937 413.264 118.511 413.264C119.336 413.264 119.986 413.443 120.46 413.801C120.934 414.156 121.247 414.631 121.399 415.228ZM128.905 415.228L127.558 415.467C127.502 415.294 127.412 415.13 127.289 414.974C127.17 414.819 127.008 414.691 126.802 414.592C126.597 414.492 126.34 414.442 126.032 414.442C125.611 414.442 125.259 414.537 124.978 414.726C124.696 414.911 124.555 415.152 124.555 415.447C124.555 415.702 124.65 415.907 124.838 416.063C125.027 416.219 125.332 416.347 125.753 416.446L126.966 416.724C127.669 416.887 128.193 417.137 128.537 417.475C128.882 417.813 129.054 418.252 129.054 418.793C129.054 419.25 128.922 419.658 128.657 420.016C128.395 420.37 128.029 420.649 127.558 420.851C127.091 421.053 126.549 421.154 125.932 421.154C125.077 421.154 124.379 420.972 123.839 420.607C123.299 420.239 122.967 419.717 122.845 419.041L124.282 418.822C124.371 419.197 124.555 419.48 124.833 419.673C125.112 419.862 125.475 419.956 125.922 419.956C126.409 419.956 126.799 419.855 127.091 419.653C127.382 419.447 127.528 419.197 127.528 418.902C127.528 418.663 127.439 418.463 127.26 418.3C127.084 418.138 126.814 418.015 126.449 417.933L125.157 417.649C124.444 417.487 123.917 417.228 123.576 416.874C123.238 416.519 123.069 416.07 123.069 415.526C123.069 415.076 123.194 414.681 123.446 414.343C123.698 414.005 124.046 413.741 124.49 413.553C124.935 413.36 125.443 413.264 126.017 413.264C126.842 413.264 127.492 413.443 127.966 413.801C128.44 414.156 128.753 414.631 128.905 415.228ZM132.344 421L130.097 413.364H131.633L133.13 418.972H133.204L134.706 413.364H136.242L137.733 418.947H137.808L139.295 413.364H140.831L138.589 421H137.072L135.521 415.487H135.407L133.856 421H132.344ZM145.226 421.154C144.51 421.154 143.885 420.99 143.351 420.662C142.818 420.334 142.403 419.875 142.108 419.285C141.814 418.695 141.666 418.005 141.666 417.217C141.666 416.424 141.814 415.732 142.108 415.138C142.403 414.545 142.818 414.085 143.351 413.756C143.885 413.428 144.51 413.264 145.226 413.264C145.942 413.264 146.566 413.428 147.1 413.756C147.634 414.085 148.048 414.545 148.343 415.138C148.638 415.732 148.785 416.424 148.785 417.217C148.785 418.005 148.638 418.695 148.343 419.285C148.048 419.875 147.634 420.334 147.1 420.662C146.566 420.99 145.942 421.154 145.226 421.154ZM145.231 419.906C145.695 419.906 146.079 419.784 146.384 419.538C146.689 419.293 146.914 418.967 147.06 418.559C147.209 418.151 147.284 417.702 147.284 417.212C147.284 416.724 147.209 416.277 147.06 415.869C146.914 415.458 146.689 415.129 146.384 414.88C146.079 414.631 145.695 414.507 145.231 414.507C144.763 414.507 144.376 414.631 144.067 414.88C143.762 415.129 143.535 415.458 143.386 415.869C143.24 416.277 143.167 416.724 143.167 417.212C143.167 417.702 143.24 418.151 143.386 418.559C143.535 418.967 143.762 419.293 144.067 419.538C144.376 419.784 144.763 419.906 145.231 419.906ZM150.445 421V413.364H151.881V414.577H151.961C152.1 414.166 152.345 413.843 152.697 413.607C153.051 413.369 153.452 413.249 153.9 413.249C153.993 413.249 154.102 413.253 154.228 413.259C154.357 413.266 154.458 413.274 154.531 413.284V414.706C154.472 414.689 154.366 414.671 154.213 414.651C154.061 414.628 153.908 414.616 153.756 414.616C153.404 414.616 153.091 414.691 152.816 414.84C152.544 414.986 152.329 415.19 152.17 415.452C152.011 415.71 151.931 416.005 151.931 416.337V421H150.445ZM158.403 421.149C157.786 421.149 157.236 420.992 156.752 420.677C156.272 420.359 155.894 419.906 155.619 419.32C155.347 418.73 155.211 418.022 155.211 417.197C155.211 416.371 155.349 415.665 155.624 415.079C155.902 414.492 156.283 414.043 156.767 413.732C157.251 413.42 157.8 413.264 158.413 413.264C158.887 413.264 159.268 413.344 159.556 413.503C159.848 413.659 160.073 413.841 160.232 414.05C160.395 414.259 160.521 414.442 160.61 414.602H160.7V410.818H162.186V421H160.735V419.812H160.61C160.521 419.974 160.392 420.16 160.222 420.369C160.057 420.577 159.828 420.76 159.536 420.915C159.245 421.071 158.867 421.149 158.403 421.149ZM158.731 419.881C159.159 419.881 159.52 419.769 159.815 419.543C160.113 419.315 160.338 418.998 160.491 418.594C160.647 418.189 160.725 417.719 160.725 417.182C160.725 416.652 160.648 416.187 160.496 415.79C160.343 415.392 160.12 415.082 159.825 414.86C159.53 414.638 159.165 414.527 158.731 414.527C158.284 414.527 157.911 414.643 157.612 414.875C157.314 415.107 157.089 415.424 156.936 415.825C156.787 416.226 156.713 416.678 156.713 417.182C156.713 417.692 156.789 418.151 156.941 418.559C157.094 418.967 157.319 419.29 157.617 419.528C157.919 419.764 158.29 419.881 158.731 419.881Z" fill="#BB1F1F"/>
</svg>
