<svg width="384" height="106" viewBox="0 0 384 106" fill="none" xmlns="http://www.w3.org/2000/svg">
<path d="M3.11861 15V4.81818H6.74787C7.54001 4.81818 8.19626 4.96236 8.71662 5.25071C9.23698 5.53906 9.62642 5.93347 9.88494 6.43395C10.1435 6.93111 10.2727 7.49124 10.2727 8.11435C10.2727 8.74077 10.1418 9.30421 9.87997 9.80469C9.62145 10.3018 9.23035 10.6963 8.70668 10.9879C8.18632 11.2763 7.53172 11.4205 6.7429 11.4205H4.24716V10.1179H6.60369C7.10417 10.1179 7.51018 10.0317 7.82173 9.85938C8.13329 9.68371 8.36198 9.44508 8.50781 9.14347C8.65365 8.84186 8.72656 8.49882 8.72656 8.11435C8.72656 7.72988 8.65365 7.38849 8.50781 7.0902C8.36198 6.7919 8.13163 6.55824 7.81676 6.3892C7.50521 6.22017 7.09422 6.13565 6.58381 6.13565H4.65483V15H3.11861ZM14.1083 15.169C13.6244 15.169 13.1869 15.0795 12.7958 14.9006C12.4047 14.7183 12.0948 14.4548 11.8661 14.1101C11.6407 13.7654 11.5281 13.3428 11.5281 12.8423C11.5281 12.4115 11.6109 12.0568 11.7766 11.7784C11.9424 11.5 12.1661 11.2796 12.4478 11.1172C12.7295 10.9548 13.0444 10.8321 13.3924 10.7493C13.7404 10.6664 14.0951 10.6035 14.4563 10.5604C14.9137 10.5073 15.2849 10.4643 15.57 10.4311C15.855 10.3946 16.0621 10.3366 16.1914 10.2571C16.3207 10.1776 16.3853 10.0483 16.3853 9.86932V9.83452C16.3853 9.40033 16.2627 9.06392 16.0174 8.82528C15.7755 8.58665 15.4142 8.46733 14.9336 8.46733C14.4331 8.46733 14.0387 8.57836 13.7504 8.80043C13.4653 9.01918 13.2681 9.26278 13.1587 9.53125L11.7617 9.21307C11.9274 8.74905 12.1694 8.37453 12.4876 8.08949C12.8091 7.80114 13.1786 7.59233 13.5962 7.46307C14.0138 7.33049 14.453 7.2642 14.9137 7.2642C15.2186 7.2642 15.5418 7.30066 15.8832 7.37358C16.2279 7.44318 16.5494 7.57244 16.8477 7.76136C17.1493 7.95028 17.3962 8.22041 17.5884 8.57173C17.7807 8.91974 17.8768 9.37216 17.8768 9.92898V15H16.4251V13.956H16.3654C16.2693 14.1482 16.1251 14.3371 15.9329 14.5227C15.7406 14.7083 15.4937 14.8625 15.1921 14.9851C14.8905 15.1077 14.5292 15.169 14.1083 15.169ZM14.4315 13.9759C14.8424 13.9759 15.1938 13.8946 15.4854 13.7322C15.7804 13.5698 16.0041 13.3577 16.1566 13.0959C16.3124 12.8307 16.3903 12.5473 16.3903 12.2457V11.2614C16.3372 11.3144 16.2345 11.3641 16.082 11.4105C15.9329 11.4536 15.7622 11.4917 15.57 11.5249C15.3777 11.5547 15.1905 11.5829 15.0082 11.6094C14.8259 11.6326 14.6734 11.6525 14.5508 11.669C14.2624 11.7055 13.9989 11.7668 13.7603 11.853C13.525 11.9392 13.3361 12.0634 13.1935 12.2259C13.0543 12.3849 12.9847 12.5971 12.9847 12.8622C12.9847 13.2301 13.1206 13.5085 13.3924 13.6974C13.6642 13.883 14.0105 13.9759 14.4315 13.9759ZM25.579 9.22798L24.2317 9.46662C24.1754 9.29427 24.0859 9.13021 23.9632 8.97443C23.8439 8.81865 23.6815 8.69105 23.476 8.59162C23.2705 8.49219 23.0137 8.44247 22.7054 8.44247C22.2845 8.44247 21.9332 8.53693 21.6515 8.72585C21.3697 8.91146 21.2289 9.15175 21.2289 9.44673C21.2289 9.70194 21.3233 9.90743 21.5123 10.0632C21.7012 10.219 22.0061 10.3466 22.427 10.446L23.6401 10.7244C24.3427 10.8868 24.8664 11.1371 25.2111 11.4751C25.5558 11.8132 25.7282 12.2524 25.7282 12.7926C25.7282 13.25 25.5956 13.6577 25.3304 14.0156C25.0686 14.3703 24.7024 14.6487 24.2317 14.8509C23.7644 15.053 23.2225 15.1541 22.606 15.1541C21.7509 15.1541 21.0532 14.9718 20.513 14.6072C19.9727 14.2393 19.6413 13.7173 19.5186 13.0412L20.9554 12.8224C21.0449 13.197 21.2289 13.4804 21.5073 13.6726C21.7857 13.8615 22.1486 13.956 22.5961 13.956C23.0833 13.956 23.4727 13.8549 23.7644 13.6527C24.056 13.4472 24.2019 13.197 24.2019 12.902C24.2019 12.6634 24.1124 12.4628 23.9334 12.3004C23.7578 12.138 23.4876 12.0154 23.123 11.9325L21.8304 11.6491C21.1178 11.4867 20.5908 11.2282 20.2495 10.8736C19.9114 10.5189 19.7424 10.0698 19.7424 9.52628C19.7424 9.07552 19.8683 8.68111 20.1202 8.34304C20.3721 8.00497 20.7201 7.74148 21.1642 7.55256C21.6084 7.36032 22.1171 7.2642 22.6905 7.2642C23.5158 7.2642 24.1654 7.44318 24.6394 7.80114C25.1133 8.15578 25.4266 8.63139 25.579 9.22798ZM33.0849 9.22798L31.7376 9.46662C31.6812 9.29427 31.5917 9.13021 31.4691 8.97443C31.3498 8.81865 31.1874 8.69105 30.9819 8.59162C30.7764 8.49219 30.5195 8.44247 30.2113 8.44247C29.7904 8.44247 29.439 8.53693 29.1573 8.72585C28.8756 8.91146 28.7347 9.15175 28.7347 9.44673C28.7347 9.70194 28.8292 9.90743 29.0181 10.0632C29.207 10.219 29.512 10.3466 29.9329 10.446L31.146 10.7244C31.8486 10.8868 32.3723 11.1371 32.717 11.4751C33.0617 11.8132 33.234 12.2524 33.234 12.7926C33.234 13.25 33.1014 13.6577 32.8363 14.0156C32.5745 14.3703 32.2082 14.6487 31.7376 14.8509C31.2702 15.053 30.7283 15.1541 30.1119 15.1541C29.2567 15.1541 28.5591 14.9718 28.0188 14.6072C27.4786 14.2393 27.1471 13.7173 27.0245 13.0412L28.4613 12.8224C28.5508 13.197 28.7347 13.4804 29.0131 13.6726C29.2915 13.8615 29.6545 13.956 30.1019 13.956C30.5891 13.956 30.9786 13.8549 31.2702 13.6527C31.5619 13.4472 31.7077 13.197 31.7077 12.902C31.7077 12.6634 31.6183 12.4628 31.4393 12.3004C31.2636 12.138 30.9935 12.0154 30.6289 11.9325L29.3363 11.6491C28.6237 11.4867 28.0967 11.2282 27.7553 10.8736C27.4173 10.5189 27.2482 10.0698 27.2482 9.52628C27.2482 9.07552 27.3742 8.68111 27.6261 8.34304C27.878 8.00497 28.226 7.74148 28.6701 7.55256C29.1142 7.36032 29.623 7.2642 30.1964 7.2642C31.0217 7.2642 31.6713 7.44318 32.1452 7.80114C32.6192 8.15578 32.9324 8.63139 33.0849 9.22798ZM36.524 15L34.2768 7.36364H35.813L37.3095 12.9716H37.3841L38.8855 7.36364H40.4217L41.9132 12.9467H41.9877L43.4743 7.36364H45.0105L42.7683 15H41.252L39.7008 9.48651H39.5865L38.0353 15H36.524ZM49.4054 15.1541C48.6895 15.1541 48.0647 14.9901 47.5311 14.6619C46.9975 14.3338 46.5832 13.8748 46.2882 13.2848C45.9932 12.6948 45.8457 12.0054 45.8457 11.2166C45.8457 10.4245 45.9932 9.73177 46.2882 9.13849C46.5832 8.54522 46.9975 8.08452 47.5311 7.75639C48.0647 7.42827 48.6895 7.2642 49.4054 7.2642C50.1213 7.2642 50.746 7.42827 51.2797 7.75639C51.8133 8.08452 52.2276 8.54522 52.5225 9.13849C52.8175 9.73177 52.965 10.4245 52.965 11.2166C52.965 12.0054 52.8175 12.6948 52.5225 13.2848C52.2276 13.8748 51.8133 14.3338 51.2797 14.6619C50.746 14.9901 50.1213 15.1541 49.4054 15.1541ZM49.4103 13.9062C49.8743 13.9062 50.2588 13.7836 50.5637 13.5384C50.8687 13.2931 51.094 12.9666 51.2399 12.5589C51.389 12.1513 51.4636 11.7022 51.4636 11.2116C51.4636 10.7244 51.389 10.277 51.2399 9.86932C51.094 9.45833 50.8687 9.12855 50.5637 8.87997C50.2588 8.63139 49.8743 8.5071 49.4103 8.5071C48.943 8.5071 48.5552 8.63139 48.247 8.87997C47.9421 9.12855 47.715 9.45833 47.5659 9.86932C47.42 10.277 47.3471 10.7244 47.3471 11.2116C47.3471 11.7022 47.42 12.1513 47.5659 12.5589C47.715 12.9666 47.9421 13.2931 48.247 13.5384C48.5552 13.7836 48.943 13.9062 49.4103 13.9062ZM54.6243 15V7.36364H56.0611V8.5767H56.1406C56.2798 8.16572 56.5251 7.84257 56.8764 7.60724C57.2311 7.36861 57.6321 7.24929 58.0795 7.24929C58.1723 7.24929 58.2817 7.2526 58.4077 7.25923C58.5369 7.26586 58.638 7.27415 58.7109 7.28409V8.70597C58.6513 8.68939 58.5452 8.67116 58.3928 8.65128C58.2403 8.62808 58.0878 8.61648 57.9354 8.61648C57.584 8.61648 57.2708 8.69105 56.9957 8.8402C56.724 8.98603 56.5085 9.18987 56.3494 9.4517C56.1903 9.71023 56.1108 10.0052 56.1108 10.3366V15H54.6243ZM62.5826 15.1491C61.9661 15.1491 61.4159 14.9917 60.932 14.6768C60.4514 14.3587 60.0736 13.9062 59.7985 13.3196C59.5267 12.7296 59.3908 12.022 59.3908 11.1967C59.3908 10.3714 59.5283 9.66548 59.8034 9.07884C60.0819 8.49219 60.463 8.04309 60.9469 7.73153C61.4308 7.41998 61.9793 7.2642 62.5925 7.2642C63.0665 7.2642 63.4476 7.34375 63.736 7.50284C64.0276 7.65862 64.253 7.84091 64.4121 8.04972C64.5745 8.25852 64.7005 8.44247 64.79 8.60156H64.8794V4.81818H66.3659V15H64.9142V13.8118H64.79C64.7005 13.9742 64.5712 14.1598 64.4022 14.3686C64.2364 14.5774 64.0078 14.7597 63.7161 14.9155C63.4244 15.0713 63.0466 15.1491 62.5826 15.1491ZM62.9107 13.8814C63.3382 13.8814 63.6995 13.7687 63.9945 13.5433C64.2928 13.3146 64.5182 12.9981 64.6706 12.5938C64.8264 12.1894 64.9043 11.7187 64.9043 11.1818C64.9043 10.6515 64.8281 10.1875 64.6756 9.78977C64.5231 9.39205 64.2994 9.08215 64.0044 8.86009C63.7095 8.63802 63.3449 8.52699 62.9107 8.52699C62.4632 8.52699 62.0904 8.64299 61.7921 8.875C61.4938 9.10701 61.2684 9.42353 61.1159 9.82457C60.9668 10.2256 60.8922 10.678 60.8922 11.1818C60.8922 11.6922 60.9685 12.1513 61.1209 12.5589C61.2734 12.9666 61.4988 13.2898 61.7971 13.5284C62.0987 13.7637 62.4699 13.8814 62.9107 13.8814Z" fill="#3B4758"/>
<rect x="1" y="25" width="382" height="56" rx="9" stroke="#292535" stroke-opacity="0.2" stroke-width="2"/>
<mask id="mask0_178_1126" style="mask-type:alpha" maskUnits="userSpaceOnUse" x="18" y="43" width="20" height="20">
<rect x="18" y="43" width="20" height="20" fill="#D9D9D9"/>
</mask>
<g mask="url(#mask0_178_1126)">
<path d="M22.9997 61.3335C22.5413 61.3335 22.1491 61.1704 21.823 60.8443C21.4963 60.5177 21.333 60.1252 21.333 59.6668V51.3335C21.333 50.8752 21.4963 50.4827 21.823 50.156C22.1491 49.8299 22.5413 49.6668 22.9997 49.6668H23.833V48.0002C23.833 46.8474 24.2394 45.8646 25.0522 45.0518C25.8644 44.2396 26.8469 43.8335 27.9997 43.8335C29.1525 43.8335 30.1352 44.2396 30.948 45.0518C31.7602 45.8646 32.1663 46.8474 32.1663 48.0002V49.6668H32.9997C33.458 49.6668 33.8505 49.8299 34.1772 50.156C34.5033 50.4827 34.6663 50.8752 34.6663 51.3335V59.6668C34.6663 60.1252 34.5033 60.5177 34.1772 60.8443C33.8505 61.1704 33.458 61.3335 32.9997 61.3335H22.9997ZM27.9997 57.1668C28.458 57.1668 28.8505 57.0038 29.1772 56.6777C29.5033 56.351 29.6663 55.9585 29.6663 55.5002C29.6663 55.0418 29.5033 54.6493 29.1772 54.3227C28.8505 53.9966 28.458 53.8335 27.9997 53.8335C27.5413 53.8335 27.1491 53.9966 26.823 54.3227C26.4963 54.6493 26.333 55.0418 26.333 55.5002C26.333 55.9585 26.4963 56.351 26.823 56.6777C27.1491 57.0038 27.5413 57.1668 27.9997 57.1668ZM25.4997 49.6668H30.4997V48.0002C30.4997 47.3057 30.2566 46.7154 29.7705 46.2293C29.2844 45.7432 28.6941 45.5002 27.9997 45.5002C27.3052 45.5002 26.715 45.7432 26.2288 46.2293C25.7427 46.7154 25.4997 47.3057 25.4997 48.0002V49.6668Z" fill="#616161"/>
</g>
<path d="M55.6364 55.3636H57.1818L58.4773 57.0682L58.8182 57.5227L60.75 60.0909H59.2045L57.9318 58.3864L57.6136 57.9545L55.6364 55.3636ZM61.2273 53.1818C61.2273 54.4091 61.0057 55.4697 60.5625 56.3636C60.1193 57.2576 59.5114 57.947 58.7386 58.4318C57.9659 58.9167 57.0833 59.1591 56.0909 59.1591C55.0985 59.1591 54.2159 58.9167 53.4432 58.4318C52.6705 57.947 52.0625 57.2576 51.6193 56.3636C51.1761 55.4697 50.9545 54.4091 50.9545 53.1818C50.9545 51.9545 51.1761 50.8939 51.6193 50C52.0625 49.1061 52.6705 48.4167 53.4432 47.9318C54.2159 47.447 55.0985 47.2045 56.0909 47.2045C57.0833 47.2045 57.9659 47.447 58.7386 47.9318C59.5114 48.4167 60.1193 49.1061 60.5625 50C61.0057 50.8939 61.2273 51.9545 61.2273 53.1818ZM59.8636 53.1818C59.8636 52.1742 59.6951 51.3239 59.358 50.6307C59.0246 49.9375 58.572 49.4129 58 49.0568C57.4318 48.7008 56.7955 48.5227 56.0909 48.5227C55.3864 48.5227 54.7481 48.7008 54.1761 49.0568C53.608 49.4129 53.1553 49.9375 52.8182 50.6307C52.4848 51.3239 52.3182 52.1742 52.3182 53.1818C52.3182 54.1894 52.4848 55.0398 52.8182 55.733C53.1553 56.4261 53.608 56.9508 54.1761 57.3068C54.7481 57.6629 55.3864 57.8409 56.0909 57.8409C56.7955 57.8409 57.4318 57.6629 58 57.3068C58.572 56.9508 59.0246 56.4261 59.358 55.733C59.6951 55.0398 59.8636 54.1894 59.8636 53.1818ZM65.3902 59L62.2084 47.3636H63.6402L66.072 56.8409H66.1857L68.663 47.3636H70.2539L72.7311 56.8409H72.8448L75.2766 47.3636H76.7084L73.5266 59H72.072L69.5039 49.7273H69.413L66.8448 59H65.3902ZM78.1441 59V47.3636H85.1668V48.6136H79.5532V52.5455H84.8032V53.7955H79.5532V57.75H85.2577V59H78.1441ZM91.273 47.3636V59H89.8639V48.8409H89.7957L86.9548 50.7273V49.2955L89.8639 47.3636H91.273ZM94.2995 59V57.9773L98.1405 53.7727C98.5912 53.2803 98.9624 52.8523 99.2541 52.4886C99.5458 52.1212 99.7617 51.7765 99.9018 51.4545C100.046 51.1288 100.118 50.7879 100.118 50.4318C100.118 50.0227 100.019 49.6686 99.8223 49.3693C99.6291 49.0701 99.3639 48.839 99.0268 48.6761C98.6897 48.5133 98.3109 48.4318 97.8905 48.4318C97.4435 48.4318 97.0533 48.5246 96.72 48.7102C96.3905 48.892 96.1348 49.1477 95.953 49.4773C95.7749 49.8068 95.6859 50.1932 95.6859 50.6364H94.345C94.345 49.9545 94.5022 49.3561 94.8166 48.8409C95.131 48.3258 95.559 47.9242 96.1007 47.6364C96.6461 47.3485 97.2579 47.2045 97.9359 47.2045C98.6177 47.2045 99.2219 47.3485 99.7484 47.6364C100.275 47.9242 100.688 48.3125 100.987 48.8011C101.286 49.2898 101.436 49.8333 101.436 50.4318C101.436 50.8598 101.358 51.2784 101.203 51.6875C101.051 52.0928 100.786 52.5455 100.408 53.0455C100.033 53.5417 99.5117 54.1477 98.845 54.8636L96.2314 57.6591V57.75H101.64V59H94.2995ZM107.599 59.1591C106.849 59.1591 106.18 59.0303 105.593 58.7727C105.01 58.5152 104.546 58.1572 104.201 57.6989C103.86 57.2367 103.675 56.7008 103.644 56.0909H105.076C105.106 56.4659 105.235 56.7898 105.463 57.0625C105.69 57.3314 105.987 57.5398 106.355 57.6875C106.722 57.8352 107.129 57.9091 107.576 57.9091C108.076 57.9091 108.519 57.822 108.906 57.6477C109.292 57.4735 109.595 57.2311 109.815 56.9205C110.034 56.6098 110.144 56.25 110.144 55.8409C110.144 55.4129 110.038 55.036 109.826 54.7102C109.614 54.3807 109.303 54.1231 108.894 53.9375C108.485 53.7519 107.985 53.6591 107.394 53.6591H106.463V52.4091H107.394C107.856 52.4091 108.262 52.3258 108.61 52.1591C108.963 51.9924 109.237 51.7576 109.434 51.4545C109.635 51.1515 109.735 50.7955 109.735 50.3864C109.735 49.9924 109.648 49.6496 109.474 49.358C109.3 49.0663 109.053 48.839 108.735 48.6761C108.421 48.5133 108.05 48.4318 107.622 48.4318C107.22 48.4318 106.841 48.5057 106.485 48.6534C106.133 48.7973 105.845 49.0076 105.622 49.2841C105.398 49.5568 105.277 49.8864 105.258 50.2727H103.894C103.917 49.6629 104.101 49.1288 104.445 48.6705C104.79 48.2083 105.241 47.8485 105.798 47.5909C106.358 47.3333 106.974 47.2045 107.644 47.2045C108.364 47.2045 108.981 47.3504 109.497 47.642C110.012 47.9299 110.408 48.3106 110.684 48.7841C110.961 49.2576 111.099 49.7689 111.099 50.3182C111.099 50.9735 110.927 51.5322 110.582 51.9943C110.241 52.4564 109.777 52.7765 109.19 52.9545V53.0455C109.925 53.1667 110.498 53.4792 110.911 53.983C111.324 54.483 111.531 55.1023 111.531 55.8409C111.531 56.4735 111.358 57.0417 111.014 57.5455C110.673 58.0455 110.207 58.4394 109.616 58.7273C109.025 59.0152 108.353 59.1591 107.599 59.1591ZM117.898 59L119.807 47.3636H120.944L119.035 59H117.898ZM112.603 55.7727L112.785 54.6364H121.466L121.285 55.7727H112.603ZM113.807 59L115.716 47.3636H116.853L114.944 59H113.807ZM113.285 51.7273L113.466 50.5909H122.148L121.966 51.7273H113.285Z" fill="#292535"/>
<mask id="mask1_178_1126" style="mask-type:alpha" maskUnits="userSpaceOnUse" x="346" y="43" width="20" height="20">
<rect x="346" y="43" width="20" height="20" fill="#D9D9D9"/>
</mask>
<g mask="url(#mask1_178_1126)">
<path d="M356 56.3335C357.042 56.3335 357.928 55.9691 358.657 55.2402C359.386 54.5107 359.75 53.6252 359.75 52.5835C359.75 51.5418 359.386 50.6563 358.657 49.9268C357.928 49.1979 357.042 48.8335 356 48.8335C354.959 48.8335 354.073 49.1979 353.344 49.9268C352.615 50.6563 352.25 51.5418 352.25 52.5835C352.25 53.6252 352.615 54.5107 353.344 55.2402C354.073 55.9691 354.959 56.3335 356 56.3335ZM356 54.8335C355.375 54.8335 354.844 54.6146 354.407 54.1768C353.969 53.7396 353.75 53.2085 353.75 52.5835C353.75 51.9585 353.969 51.4271 354.407 50.9893C354.844 50.5521 355.375 50.3335 356 50.3335C356.625 50.3335 357.157 50.5521 357.594 50.9893C358.032 51.4271 358.25 51.9585 358.25 52.5835C358.25 53.2085 358.032 53.7396 357.594 54.1768C357.157 54.6146 356.625 54.8335 356 54.8335ZM356 58.8335C354.07 58.8335 352.306 58.3232 350.709 57.3027C349.111 56.2816 347.903 54.9029 347.084 53.1668C347.042 53.0974 347.014 53.0104 347 52.906C346.986 52.8021 346.979 52.6946 346.979 52.5835C346.979 52.4724 346.986 52.3646 347 52.2602C347.014 52.1563 347.042 52.0696 347.084 52.0002C347.903 50.2641 349.111 48.8857 350.709 47.8652C352.306 46.8441 354.07 46.3335 356 46.3335C357.931 46.3335 359.695 46.8441 361.292 47.8652C362.889 48.8857 364.098 50.2641 364.917 52.0002C364.959 52.0696 364.986 52.1563 365 52.2602C365.014 52.3646 365.021 52.4724 365.021 52.5835C365.021 52.6946 365.014 52.8021 365 52.906C364.986 53.0104 364.959 53.0974 364.917 53.1668C364.098 54.9029 362.889 56.2816 361.292 57.3027C359.695 58.3232 357.931 58.8335 356 58.8335Z" fill="#616161"/>
</g>
<path d="M9.66619 90.8182H11.2074V97.5149C11.2074 98.2275 11.04 98.8589 10.7053 99.4091C10.3705 99.956 9.89986 100.387 9.29332 100.702C8.68679 101.013 7.97585 101.169 7.16051 101.169C6.34849 101.169 5.6392 101.013 5.03267 100.702C4.42614 100.387 3.95549 99.956 3.62074 99.4091C3.28598 98.8589 3.11861 98.2275 3.11861 97.5149V90.8182H4.65483V97.3906C4.65483 97.8513 4.75592 98.2607 4.9581 98.6186C5.16359 98.9766 5.4536 99.2583 5.82812 99.4638C6.20265 99.666 6.64678 99.767 7.16051 99.767C7.67756 99.767 8.12334 99.666 8.49787 99.4638C8.87571 99.2583 9.16406 98.9766 9.36293 98.6186C9.5651 98.2607 9.66619 97.8513 9.66619 97.3906V90.8182ZM19.0439 95.228L17.6966 95.4666C17.6402 95.2943 17.5507 95.1302 17.4281 94.9744C17.3088 94.8187 17.1464 94.6911 16.9409 94.5916C16.7354 94.4922 16.4785 94.4425 16.1703 94.4425C15.7493 94.4425 15.398 94.5369 15.1163 94.7259C14.8346 94.9115 14.6937 95.1518 14.6937 95.4467C14.6937 95.7019 14.7882 95.9074 14.9771 96.0632C15.166 96.219 15.4709 96.3466 15.8919 96.446L17.1049 96.7244C17.8076 96.8868 18.3313 97.1371 18.676 97.4751C19.0207 97.8132 19.193 98.2524 19.193 98.7926C19.193 99.25 19.0604 99.6577 18.7953 100.016C18.5334 100.37 18.1672 100.649 17.6966 100.851C17.2292 101.053 16.6873 101.154 16.0708 101.154C15.2157 101.154 14.5181 100.972 13.9778 100.607C13.4376 100.239 13.1061 99.7173 12.9835 99.0412L14.4203 98.8224C14.5098 99.197 14.6937 99.4804 14.9721 99.6726C15.2505 99.8615 15.6135 99.956 16.0609 99.956C16.5481 99.956 16.9376 99.8549 17.2292 99.6527C17.5209 99.4472 17.6667 99.197 17.6667 98.902C17.6667 98.6634 17.5772 98.4628 17.3983 98.3004C17.2226 98.138 16.9525 98.0154 16.5879 97.9325L15.2953 97.6491C14.5827 97.4867 14.0557 97.2282 13.7143 96.8736C13.3762 96.5189 13.2072 96.0698 13.2072 95.5263C13.2072 95.0755 13.3332 94.6811 13.585 94.343C13.8369 94.005 14.185 93.7415 14.6291 93.5526C15.0732 93.3603 15.582 93.2642 16.1554 93.2642C16.9806 93.2642 17.6303 93.4432 18.1042 93.8011C18.5782 94.1558 18.8914 94.6314 19.0439 95.228ZM24.1186 101.154C23.3662 101.154 22.7183 100.993 22.1747 100.672C21.6345 100.347 21.2169 99.8913 20.9219 99.3047C20.6302 98.7147 20.4844 98.0237 20.4844 97.2315C20.4844 96.4493 20.6302 95.7599 20.9219 95.1634C21.2169 94.5668 21.6278 94.1011 22.1548 93.7663C22.6851 93.4316 23.3049 93.2642 24.0142 93.2642C24.4451 93.2642 24.8627 93.3355 25.267 93.478C25.6714 93.6205 26.0343 93.8442 26.3558 94.1491C26.6773 94.4541 26.9309 94.8501 27.1165 95.3374C27.3021 95.8213 27.3949 96.4096 27.3949 97.1023V97.6293H21.3246V96.5156H25.9382C25.9382 96.1245 25.8587 95.7782 25.6996 95.4766C25.5405 95.1716 25.3168 94.9313 25.0284 94.7557C24.7434 94.58 24.4086 94.4922 24.0241 94.4922C23.6065 94.4922 23.242 94.5949 22.9304 94.8004C22.6222 95.0026 22.3835 95.2678 22.2145 95.5959C22.0488 95.9207 21.9659 96.2737 21.9659 96.6548V97.5249C21.9659 98.0353 22.0554 98.4695 22.2344 98.8274C22.4167 99.1854 22.6702 99.4588 22.995 99.6477C23.3198 99.8333 23.6993 99.9261 24.1335 99.9261C24.4152 99.9261 24.6721 99.8864 24.9041 99.8068C25.1361 99.724 25.3366 99.6013 25.5057 99.4389C25.6747 99.2765 25.804 99.076 25.8935 98.8374L27.3004 99.0909C27.1877 99.5052 26.9856 99.8681 26.6939 100.18C26.4055 100.488 26.0426 100.728 25.6051 100.901C25.1709 101.07 24.6754 101.154 24.1186 101.154ZM36.1697 101.139C35.4571 101.139 34.8274 101.017 34.2805 100.771C33.737 100.526 33.3111 100.188 33.0028 99.7571C32.6946 99.3262 32.5421 98.8357 32.5455 98.2855C32.5421 97.8546 32.63 97.4586 32.8089 97.0973C32.9912 96.7327 33.2382 96.4295 33.5497 96.1875C33.8613 95.9422 34.2093 95.7865 34.5938 95.7202V95.6605C34.0866 95.5379 33.6806 95.2661 33.3757 94.8452C33.0708 94.4242 32.92 93.9403 32.9233 93.3935C32.92 92.8731 33.0575 92.4091 33.3359 92.0014C33.6177 91.5904 34.0038 91.2673 34.4943 91.032C34.9848 90.7966 35.5433 90.679 36.1697 90.679C36.7895 90.679 37.343 90.7983 37.8303 91.0369C38.3208 91.2723 38.7069 91.5954 38.9886 92.0064C39.2704 92.4141 39.4129 92.8764 39.4162 93.3935C39.4129 93.9403 39.2571 94.4242 38.9489 94.8452C38.6406 95.2661 38.2396 95.5379 37.7457 95.6605V95.7202C38.1269 95.7865 38.4699 95.9422 38.7749 96.1875C39.0831 96.4295 39.3284 96.7327 39.5107 97.0973C39.6963 97.4586 39.7907 97.8546 39.794 98.2855C39.7907 98.8357 39.6349 99.3262 39.3267 99.7571C39.0185 100.188 38.5909 100.526 38.044 100.771C37.5005 101.017 36.8757 101.139 36.1697 101.139ZM36.1697 99.8814C36.5907 99.8814 36.9553 99.8118 37.2635 99.6726C37.5717 99.5301 37.8104 99.3329 37.9794 99.081C38.1484 98.8258 38.2346 98.5275 38.2379 98.1861C38.2346 97.8314 38.1418 97.5182 37.9595 97.2464C37.7805 96.9747 37.5369 96.7609 37.2287 96.6051C36.9205 96.4493 36.5675 96.3714 36.1697 96.3714C35.7687 96.3714 35.4124 96.4493 35.1009 96.6051C34.7893 96.7609 34.544 96.9747 34.3651 97.2464C34.1861 97.5182 34.0982 97.8314 34.1016 98.1861C34.0982 98.5275 34.1795 98.8258 34.3452 99.081C34.5142 99.3329 34.7545 99.5301 35.0661 99.6726C35.3776 99.8118 35.7455 99.8814 36.1697 99.8814ZM36.1697 95.1435C36.5078 95.1435 36.8078 95.0755 37.0696 94.9396C37.3314 94.8037 37.5369 94.6148 37.6861 94.3729C37.8385 94.1309 37.9164 93.8475 37.9197 93.5227C37.9164 93.2045 37.8402 92.9261 37.6911 92.6875C37.5452 92.4489 37.3414 92.2649 37.0795 92.1357C36.8177 92.0031 36.5144 91.9368 36.1697 91.9368C35.8184 91.9368 35.5102 92.0031 35.245 92.1357C34.9832 92.2649 34.7794 92.4489 34.6335 92.6875C34.4877 92.9261 34.4164 93.2045 34.4197 93.5227C34.4164 93.8475 34.4893 94.1309 34.6385 94.3729C34.7876 94.6148 34.9931 94.8037 35.255 94.9396C35.5201 95.0755 35.825 95.1435 36.1697 95.1435ZM44.5879 99.2898V92.5682H45.9252V99.2898H44.5879ZM41.8983 96.5952V95.2628H48.6199V96.5952H41.8983ZM57.8409 101.154C57.1018 101.154 56.4654 100.987 55.9318 100.652C55.4015 100.314 54.9938 99.8482 54.7088 99.255C54.4238 98.6617 54.2812 97.9822 54.2812 97.2166C54.2812 96.4411 54.4271 95.7566 54.7188 95.1634C55.0104 94.5668 55.4214 94.1011 55.9517 93.7663C56.482 93.4316 57.1068 93.2642 57.826 93.2642C58.406 93.2642 58.9231 93.3719 59.3771 93.5874C59.8312 93.7995 60.1974 94.0978 60.4759 94.4822C60.7576 94.8667 60.925 95.3158 60.978 95.8295H59.5312C59.4517 95.4716 59.2694 95.1634 58.9844 94.9048C58.7027 94.6463 58.3248 94.517 57.8509 94.517C57.4366 94.517 57.0736 94.6264 56.7621 94.8452C56.4538 95.0606 56.2135 95.3688 56.0412 95.7699C55.8688 96.1676 55.7827 96.6383 55.7827 97.1818C55.7827 97.7386 55.8672 98.2192 56.0362 98.6236C56.2053 99.0279 56.4439 99.3411 56.7521 99.5632C57.0637 99.7853 57.4299 99.8963 57.8509 99.8963C58.1326 99.8963 58.3878 99.8449 58.6165 99.7422C58.8485 99.6361 59.0424 99.4853 59.1982 99.2898C59.3572 99.0942 59.4683 98.8589 59.5312 98.5838H60.978C60.925 99.0777 60.7642 99.5185 60.4957 99.9062C60.2273 100.294 59.8677 100.599 59.4169 100.821C58.9695 101.043 58.4441 101.154 57.8409 101.154ZM64.0542 96.4659V101H62.5676V90.8182H64.0343V94.6065H64.1287C64.3077 94.1955 64.5811 93.8691 64.949 93.6271C65.3169 93.3852 65.7975 93.2642 66.3908 93.2642C66.9145 93.2642 67.3719 93.3719 67.763 93.5874C68.1574 93.8028 68.4623 94.1243 68.6777 94.5518C68.8965 94.9761 69.0059 95.5064 69.0059 96.1428V101H67.5194V96.3217C67.5194 95.7616 67.3752 95.3274 67.0868 95.0192C66.7985 94.7076 66.3974 94.5518 65.8837 94.5518C65.5324 94.5518 65.2175 94.6264 64.9391 94.7756C64.664 94.9247 64.4469 95.1435 64.2878 95.4318C64.132 95.7169 64.0542 96.0616 64.0542 96.4659ZM73.2118 101.169C72.7279 101.169 72.2904 101.08 71.8993 100.901C71.5082 100.718 71.1983 100.455 70.9696 100.11C70.7443 99.7654 70.6316 99.3428 70.6316 98.8423C70.6316 98.4115 70.7144 98.0568 70.8801 97.7784C71.0459 97.5 71.2696 97.2796 71.5513 97.1172C71.833 96.9548 72.1479 96.8321 72.4959 96.7493C72.8439 96.6664 73.1986 96.6035 73.5598 96.5604C74.0172 96.5073 74.3884 96.4643 74.6735 96.4311C74.9585 96.3946 75.1657 96.3366 75.2949 96.2571C75.4242 96.1776 75.4888 96.0483 75.4888 95.8693V95.8345C75.4888 95.4003 75.3662 95.0639 75.1209 94.8253C74.879 94.5866 74.5177 94.4673 74.0371 94.4673C73.5366 94.4673 73.1422 94.5784 72.8539 94.8004C72.5688 95.0192 72.3716 95.2628 72.2623 95.5312L70.8652 95.2131C71.031 94.7491 71.2729 94.3745 71.5911 94.0895C71.9126 93.8011 72.2821 93.5923 72.6998 93.4631C73.1174 93.3305 73.5565 93.2642 74.0172 93.2642C74.3221 93.2642 74.6453 93.3007 74.9867 93.3736C75.3314 93.4432 75.6529 93.5724 75.9512 93.7614C76.2528 93.9503 76.4997 94.2204 76.6919 94.5717C76.8842 94.9197 76.9803 95.3722 76.9803 95.929V101H75.5286V99.956H75.4689C75.3728 100.148 75.2286 100.337 75.0364 100.523C74.8442 100.708 74.5972 100.862 74.2956 100.985C73.994 101.108 73.6328 101.169 73.2118 101.169ZM73.535 99.9759C73.946 99.9759 74.2973 99.8946 74.589 99.7322C74.8839 99.5698 75.1077 99.3577 75.2601 99.0959C75.4159 98.8307 75.4938 98.5473 75.4938 98.2457V97.2614C75.4408 97.3144 75.338 97.3641 75.1855 97.4105C75.0364 97.4536 74.8657 97.4917 74.6735 97.5249C74.4812 97.5547 74.294 97.5829 74.1117 97.6094C73.9294 97.6326 73.7769 97.6525 73.6543 97.669C73.3659 97.7055 73.1025 97.7668 72.8638 97.853C72.6285 97.9392 72.4396 98.0634 72.2971 98.2259C72.1578 98.3849 72.0882 98.5971 72.0882 98.8622C72.0882 99.2301 72.2241 99.5085 72.4959 99.6974C72.7677 99.883 73.1141 99.9759 73.535 99.9759ZM78.9602 101V93.3636H80.397V94.5767H80.4766C80.6158 94.1657 80.861 93.8426 81.2124 93.6072C81.567 93.3686 81.968 93.2493 82.4155 93.2493C82.5083 93.2493 82.6177 93.2526 82.7436 93.2592C82.8729 93.2659 82.974 93.2741 83.0469 93.2841V94.706C82.9872 94.6894 82.8812 94.6712 82.7287 94.6513C82.5762 94.6281 82.4238 94.6165 82.2713 94.6165C81.92 94.6165 81.6068 94.6911 81.3317 94.8402C81.0599 94.986 80.8445 95.1899 80.6854 95.4517C80.5263 95.7102 80.4467 96.0052 80.4467 96.3366V101H78.9602ZM86.4872 101.169C86.0033 101.169 85.5658 101.08 85.1747 100.901C84.7836 100.718 84.4737 100.455 84.245 100.11C84.0196 99.7654 83.907 99.3428 83.907 98.8423C83.907 98.4115 83.9898 98.0568 84.1555 97.7784C84.3213 97.5 84.545 97.2796 84.8267 97.1172C85.1084 96.9548 85.4233 96.8321 85.7713 96.7493C86.1193 96.6664 86.474 96.6035 86.8352 96.5604C87.2926 96.5073 87.6638 96.4643 87.9489 96.4311C88.2339 96.3946 88.4411 96.3366 88.5703 96.2571C88.6996 96.1776 88.7642 96.0483 88.7642 95.8693V95.8345C88.7642 95.4003 88.6416 95.0639 88.3963 94.8253C88.1544 94.5866 87.7931 94.4673 87.3125 94.4673C86.812 94.4673 86.4176 94.5784 86.1293 94.8004C85.8442 95.0192 85.647 95.2628 85.5376 95.5312L84.1406 95.2131C84.3063 94.7491 84.5483 94.3745 84.8665 94.0895C85.188 93.8011 85.5575 93.5923 85.9751 93.4631C86.3928 93.3305 86.8319 93.2642 87.2926 93.2642C87.5975 93.2642 87.9207 93.3007 88.2621 93.3736C88.6068 93.4432 88.9283 93.5724 89.2266 93.7614C89.5282 93.9503 89.7751 94.2204 89.9673 94.5717C90.1596 94.9197 90.2557 95.3722 90.2557 95.929V101H88.804V99.956H88.7443C88.6482 100.148 88.504 100.337 88.3118 100.523C88.1196 100.708 87.8726 100.862 87.571 100.985C87.2694 101.108 86.9081 101.169 86.4872 101.169ZM86.8104 99.9759C87.2214 99.9759 87.5727 99.8946 87.8643 99.7322C88.1593 99.5698 88.383 99.3577 88.5355 99.0959C88.6913 98.8307 88.7692 98.5473 88.7692 98.2457V97.2614C88.7161 97.3144 88.6134 97.3641 88.4609 97.4105C88.3118 97.4536 88.1411 97.4917 87.9489 97.5249C87.7566 97.5547 87.5694 97.5829 87.3871 97.6094C87.2048 97.6326 87.0523 97.6525 86.9297 97.669C86.6413 97.7055 86.3778 97.7668 86.1392 97.853C85.9039 97.9392 85.715 98.0634 85.5724 98.2259C85.4332 98.3849 85.3636 98.5971 85.3636 98.8622C85.3636 99.2301 85.4995 99.5085 85.7713 99.6974C86.0431 99.883 86.3894 99.9759 86.8104 99.9759ZM95.4522 101.154C94.7131 101.154 94.0768 100.987 93.5431 100.652C93.0128 100.314 92.6052 99.8482 92.3201 99.255C92.0351 98.6617 91.8926 97.9822 91.8926 97.2166C91.8926 96.4411 92.0384 95.7566 92.3301 95.1634C92.6217 94.5668 93.0327 94.1011 93.563 93.7663C94.0933 93.4316 94.7181 93.2642 95.4373 93.2642C96.0173 93.2642 96.5344 93.3719 96.9885 93.5874C97.4425 93.7995 97.8088 94.0978 98.0872 94.4822C98.3689 94.8667 98.5363 95.3158 98.5893 95.8295H97.1426C97.063 95.4716 96.8807 95.1634 96.5957 94.9048C96.314 94.6463 95.9361 94.517 95.4622 94.517C95.0479 94.517 94.685 94.6264 94.3734 94.8452C94.0652 95.0606 93.8249 95.3688 93.6525 95.7699C93.4802 96.1676 93.394 96.6383 93.394 97.1818C93.394 97.7386 93.4785 98.2192 93.6475 98.6236C93.8166 99.0279 94.0552 99.3411 94.3635 99.5632C94.675 99.7853 95.0413 99.8963 95.4622 99.8963C95.7439 99.8963 95.9991 99.8449 96.2278 99.7422C96.4598 99.6361 96.6537 99.4853 96.8095 99.2898C96.9686 99.0942 97.0796 98.8589 97.1426 98.5838H98.5893C98.5363 99.0777 98.3755 99.5185 98.1071 99.9062C97.8386 100.294 97.479 100.599 97.0282 100.821C96.5808 101.043 96.0555 101.154 95.4522 101.154ZM103.744 93.3636V94.5568H99.5724V93.3636H103.744ZM100.691 91.5341H102.178V98.7578C102.178 99.0462 102.221 99.2633 102.307 99.4091C102.393 99.5516 102.504 99.6494 102.64 99.7024C102.779 99.7521 102.93 99.777 103.092 99.777C103.212 99.777 103.316 99.7687 103.406 99.7521C103.495 99.7356 103.565 99.7223 103.614 99.7124L103.883 100.94C103.797 100.973 103.674 101.007 103.515 101.04C103.356 101.076 103.157 101.096 102.918 101.099C102.527 101.106 102.163 101.036 101.825 100.891C101.487 100.745 101.213 100.519 101.004 100.214C100.795 99.9096 100.691 99.5268 100.691 99.0661V91.5341ZM108.597 101.154C107.845 101.154 107.197 100.993 106.653 100.672C106.113 100.347 105.695 99.8913 105.4 99.3047C105.109 98.7147 104.963 98.0237 104.963 97.2315C104.963 96.4493 105.109 95.7599 105.4 95.1634C105.695 94.5668 106.106 94.1011 106.633 93.7663C107.164 93.4316 107.783 93.2642 108.493 93.2642C108.924 93.2642 109.341 93.3355 109.746 93.478C110.15 93.6205 110.513 93.8442 110.834 94.1491C111.156 94.4541 111.409 94.8501 111.595 95.3374C111.781 95.8213 111.873 96.4096 111.873 97.1023V97.6293H105.803V96.5156H110.417C110.417 96.1245 110.337 95.7782 110.178 95.4766C110.019 95.1716 109.795 94.9313 109.507 94.7557C109.222 94.58 108.887 94.4922 108.503 94.4922C108.085 94.4922 107.72 94.5949 107.409 94.8004C107.101 95.0026 106.862 95.2678 106.693 95.5959C106.527 95.9207 106.444 96.2737 106.444 96.6548V97.5249C106.444 98.0353 106.534 98.4695 106.713 98.8274C106.895 99.1854 107.149 99.4588 107.474 99.6477C107.798 99.8333 108.178 99.9261 108.612 99.9261C108.894 99.9261 109.151 99.8864 109.383 99.8068C109.615 99.724 109.815 99.6013 109.984 99.4389C110.153 99.2765 110.282 99.076 110.372 98.8374L111.779 99.0909C111.666 99.5052 111.464 99.8681 111.172 100.18C110.884 100.488 110.521 100.728 110.084 100.901C109.649 101.07 109.154 101.154 108.597 101.154ZM113.523 101V93.3636H114.96V94.5767H115.039C115.178 94.1657 115.424 93.8426 115.775 93.6072C116.129 93.3686 116.531 93.2493 116.978 93.2493C117.071 93.2493 117.18 93.2526 117.306 93.2592C117.435 93.2659 117.536 93.2741 117.609 93.2841V94.706C117.55 94.6894 117.444 94.6712 117.291 94.6513C117.139 94.6281 116.986 94.6165 116.834 94.6165C116.482 94.6165 116.169 94.6911 115.894 94.8402C115.622 94.986 115.407 95.1899 115.248 95.4517C115.089 95.7102 115.009 96.0052 115.009 96.3366V101H113.523ZM124.618 95.228L123.271 95.4666C123.214 95.2943 123.125 95.1302 123.002 94.9744C122.883 94.8187 122.721 94.6911 122.515 94.5916C122.31 94.4922 122.053 94.4425 121.744 94.4425C121.324 94.4425 120.972 94.5369 120.691 94.7259C120.409 94.9115 120.268 95.1518 120.268 95.4467C120.268 95.7019 120.362 95.9074 120.551 96.0632C120.74 96.219 121.045 96.3466 121.466 96.446L122.679 96.7244C123.382 96.8868 123.905 97.1371 124.25 97.4751C124.595 97.8132 124.767 98.2524 124.767 98.7926C124.767 99.25 124.635 99.6577 124.369 100.016C124.108 100.37 123.741 100.649 123.271 100.851C122.803 101.053 122.262 101.154 121.645 101.154C120.79 101.154 120.092 100.972 119.552 100.607C119.012 100.239 118.68 99.7173 118.558 99.0412L119.994 98.8224C120.084 99.197 120.268 99.4804 120.546 99.6726C120.825 99.8615 121.188 99.956 121.635 99.956C122.122 99.956 122.512 99.8549 122.803 99.6527C123.095 99.4472 123.241 99.197 123.241 98.902C123.241 98.6634 123.151 98.4628 122.972 98.3004C122.797 98.138 122.527 98.0154 122.162 97.9325L120.869 97.6491C120.157 97.4867 119.63 97.2282 119.289 96.8736C118.95 96.5189 118.781 96.0698 118.781 95.5263C118.781 95.0755 118.907 94.6811 119.159 94.343C119.411 94.005 119.759 93.7415 120.203 93.5526C120.647 93.3603 121.156 93.2642 121.73 93.2642C122.555 93.2642 123.204 93.4432 123.678 93.8011C124.152 94.1558 124.466 94.6314 124.618 95.228ZM131.762 101L129.515 93.3636H131.051L132.548 98.9716H132.622L134.124 93.3636H135.66L137.151 98.9467H137.226L138.713 93.3636H140.249L138.007 101H136.49L134.939 95.4865H134.825L133.274 101H131.762ZM141.659 101V93.3636H143.146V101H141.659ZM142.41 92.1854C142.152 92.1854 141.93 92.0992 141.744 91.9268C141.562 91.7512 141.471 91.5424 141.471 91.3004C141.471 91.0552 141.562 90.8464 141.744 90.674C141.93 90.4983 142.152 90.4105 142.41 90.4105C142.669 90.4105 142.889 90.4983 143.071 90.674C143.257 90.8464 143.35 91.0552 143.35 91.3004C143.35 91.5424 143.257 91.7512 143.071 91.9268C142.889 92.0992 142.669 92.1854 142.41 92.1854ZM148.71 93.3636V94.5568H144.539V93.3636H148.71ZM145.658 91.5341H147.144V98.7578C147.144 99.0462 147.187 99.2633 147.274 99.4091C147.36 99.5516 147.471 99.6494 147.607 99.7024C147.746 99.7521 147.897 99.777 148.059 99.777C148.178 99.777 148.283 99.7687 148.372 99.7521C148.462 99.7356 148.531 99.7223 148.581 99.7124L148.85 100.94C148.763 100.973 148.641 101.007 148.482 101.04C148.323 101.076 148.124 101.096 147.885 101.099C147.494 101.106 147.129 101.036 146.791 100.891C146.453 100.745 146.18 100.519 145.971 100.214C145.762 99.9096 145.658 99.5268 145.658 99.0661V91.5341ZM152.005 96.4659V101H150.519V90.8182H151.985V94.6065H152.08C152.259 94.1955 152.532 93.8691 152.9 93.6271C153.268 93.3852 153.749 93.2642 154.342 93.2642C154.866 93.2642 155.323 93.3719 155.714 93.5874C156.109 93.8028 156.413 94.1243 156.629 94.5518C156.848 94.9761 156.957 95.5064 156.957 96.1428V101H155.471V96.3217C155.471 95.7616 155.326 95.3274 155.038 95.0192C154.75 94.7076 154.349 94.5518 153.835 94.5518C153.484 94.5518 153.169 94.6264 152.89 94.7756C152.615 94.9247 152.398 95.1435 152.239 95.4318C152.083 95.7169 152.005 96.0616 152.005 96.4659ZM164.868 101.169C164.384 101.169 163.947 101.08 163.556 100.901C163.164 100.718 162.855 100.455 162.626 100.11C162.401 99.7654 162.288 99.3428 162.288 98.8423C162.288 98.4115 162.371 98.0568 162.536 97.7784C162.702 97.5 162.926 97.2796 163.208 97.1172C163.489 96.9548 163.804 96.8321 164.152 96.7493C164.5 96.6664 164.855 96.6035 165.216 96.5604C165.673 96.5073 166.045 96.4643 166.33 96.4311C166.615 96.3946 166.822 96.3366 166.951 96.2571C167.08 96.1776 167.145 96.0483 167.145 95.8693V95.8345C167.145 95.4003 167.022 95.0639 166.777 94.8253C166.535 94.5866 166.174 94.4673 165.693 94.4673C165.193 94.4673 164.798 94.5784 164.51 94.8004C164.225 95.0192 164.028 95.2628 163.919 95.5312L162.521 95.2131C162.687 94.7491 162.929 94.3745 163.247 94.0895C163.569 93.8011 163.938 93.5923 164.356 93.4631C164.774 93.3305 165.213 93.2642 165.673 93.2642C165.978 93.2642 166.302 93.3007 166.643 93.3736C166.988 93.4432 167.309 93.5724 167.607 93.7614C167.909 93.9503 168.156 94.2204 168.348 94.5717C168.54 94.9197 168.637 95.3722 168.637 95.929V101H167.185V99.956H167.125C167.029 100.148 166.885 100.337 166.693 100.523C166.5 100.708 166.253 100.862 165.952 100.985C165.65 101.108 165.289 101.169 164.868 101.169ZM165.191 99.9759C165.602 99.9759 165.954 99.8946 166.245 99.7322C166.54 99.5698 166.764 99.3577 166.916 99.0959C167.072 98.8307 167.15 98.5473 167.15 98.2457V97.2614C167.097 97.3144 166.994 97.3641 166.842 97.4105C166.693 97.4536 166.522 97.4917 166.33 97.5249C166.137 97.5547 165.95 97.5829 165.768 97.6094C165.586 97.6326 165.433 97.6525 165.311 97.669C165.022 97.7055 164.759 97.7668 164.52 97.853C164.285 97.9392 164.096 98.0634 163.953 98.2259C163.814 98.3849 163.744 98.5971 163.744 98.8622C163.744 99.2301 163.88 99.5085 164.152 99.6974C164.424 99.883 164.77 99.9759 165.191 99.9759ZM174.322 101V93.3636H175.748V94.6065H175.843C176.002 94.1856 176.262 93.8575 176.623 93.6222C176.985 93.3835 177.417 93.2642 177.921 93.2642C178.431 93.2642 178.859 93.3835 179.204 93.6222C179.552 93.8608 179.809 94.1889 179.974 94.6065H180.054C180.236 94.1989 180.526 93.8741 180.924 93.6321C181.322 93.3868 181.796 93.2642 182.346 93.2642C183.038 93.2642 183.604 93.4813 184.041 93.9155C184.482 94.3497 184.702 95.0043 184.702 95.8793V101H183.216V96.0185C183.216 95.5014 183.075 95.1269 182.793 94.8949C182.511 94.6629 182.175 94.5469 181.784 94.5469C181.3 94.5469 180.924 94.696 180.655 94.9943C180.387 95.2893 180.253 95.6688 180.253 96.1328V101H178.771V95.924C178.771 95.5097 178.642 95.1766 178.383 94.9247C178.125 94.6728 177.788 94.5469 177.374 94.5469C177.092 94.5469 176.832 94.6214 176.594 94.7706C176.358 94.9164 176.168 95.1203 176.022 95.3821C175.879 95.6439 175.808 95.9472 175.808 96.2919V101H174.322ZM186.695 101V93.3636H188.181V101H186.695ZM187.445 92.1854C187.187 92.1854 186.965 92.0992 186.779 91.9268C186.597 91.7512 186.506 91.5424 186.506 91.3004C186.506 91.0552 186.597 90.8464 186.779 90.674C186.965 90.4983 187.187 90.4105 187.445 90.4105C187.704 90.4105 187.924 90.4983 188.107 90.674C188.292 90.8464 188.385 91.0552 188.385 91.3004C188.385 91.5424 188.292 91.7512 188.107 91.9268C187.924 92.0992 187.704 92.1854 187.445 92.1854ZM191.354 93.3636L193.04 96.3366L194.74 93.3636H196.366L193.984 97.1818L196.385 101H194.76L193.04 98.1463L191.324 101H189.694L192.07 97.1818L189.724 93.3636H191.354ZM204.814 101.154C204.098 101.154 203.473 100.99 202.939 100.662C202.406 100.334 201.991 99.8748 201.696 99.2848C201.401 98.6948 201.254 98.0054 201.254 97.2166C201.254 96.4245 201.401 95.7318 201.696 95.1385C201.991 94.5452 202.406 94.0845 202.939 93.7564C203.473 93.4283 204.098 93.2642 204.814 93.2642C205.529 93.2642 206.154 93.4283 206.688 93.7564C207.221 94.0845 207.636 94.5452 207.931 95.1385C208.226 95.7318 208.373 96.4245 208.373 97.2166C208.373 98.0054 208.226 98.6948 207.931 99.2848C207.636 99.8748 207.221 100.334 206.688 100.662C206.154 100.99 205.529 101.154 204.814 101.154ZM204.819 99.9062C205.283 99.9062 205.667 99.7836 205.972 99.5384C206.277 99.2931 206.502 98.9666 206.648 98.5589C206.797 98.1513 206.872 97.7022 206.872 97.2116C206.872 96.7244 206.797 96.277 206.648 95.8693C206.502 95.4583 206.277 95.1286 205.972 94.88C205.667 94.6314 205.283 94.5071 204.819 94.5071C204.351 94.5071 203.963 94.6314 203.655 94.88C203.35 95.1286 203.123 95.4583 202.974 95.8693C202.828 96.277 202.755 96.7244 202.755 97.2116C202.755 97.7022 202.828 98.1513 202.974 98.5589C203.123 98.9666 203.35 99.2931 203.655 99.5384C203.963 99.7836 204.351 99.9062 204.819 99.9062ZM213.667 93.3636V94.5568H209.351V93.3636H213.667ZM210.535 101V92.4787C210.535 92.0014 210.639 91.6053 210.848 91.2905C211.057 90.9723 211.333 90.7353 211.678 90.5795C212.023 90.4205 212.397 90.3409 212.802 90.3409C213.1 90.3409 213.355 90.3658 213.567 90.4155C213.779 90.4619 213.937 90.505 214.04 90.5447L213.692 91.7479C213.622 91.728 213.532 91.7048 213.423 91.6783C213.314 91.6484 213.181 91.6335 213.025 91.6335C212.664 91.6335 212.406 91.723 212.25 91.902C212.097 92.081 212.021 92.3395 212.021 92.6776V101H210.535ZM220.392 90.8182V101H218.906V90.8182H220.392ZM225.683 101.154C224.931 101.154 224.283 100.993 223.739 100.672C223.199 100.347 222.781 99.8913 222.486 99.3047C222.195 98.7147 222.049 98.0237 222.049 97.2315C222.049 96.4493 222.195 95.7599 222.486 95.1634C222.781 94.5668 223.192 94.1011 223.719 93.7663C224.25 93.4316 224.869 93.2642 225.579 93.2642C226.01 93.2642 226.427 93.3355 226.831 93.478C227.236 93.6205 227.599 93.8442 227.92 94.1491C228.242 94.4541 228.495 94.8501 228.681 95.3374C228.867 95.8213 228.959 96.4096 228.959 97.1023V97.6293H222.889V96.5156H227.503C227.503 96.1245 227.423 95.7782 227.264 95.4766C227.105 95.1716 226.881 94.9313 226.593 94.7557C226.308 94.58 225.973 94.4922 225.589 94.4922C225.171 94.4922 224.806 94.5949 224.495 94.8004C224.187 95.0026 223.948 95.2678 223.779 95.5959C223.613 95.9207 223.53 96.2737 223.53 96.6548V97.5249C223.53 98.0353 223.62 98.4695 223.799 98.8274C223.981 99.1854 224.235 99.4588 224.559 99.6477C224.884 99.8333 225.264 99.9261 225.698 99.9261C225.98 99.9261 226.237 99.8864 226.469 99.8068C226.701 99.724 226.901 99.6013 227.07 99.4389C227.239 99.2765 227.368 99.076 227.458 98.8374L228.865 99.0909C228.752 99.5052 228.55 99.8681 228.258 100.18C227.97 100.488 227.607 100.728 227.17 100.901C226.735 101.07 226.24 101.154 225.683 101.154ZM234.173 93.3636V94.5568H230.002V93.3636H234.173ZM231.121 91.5341H232.607V98.7578C232.607 99.0462 232.65 99.2633 232.737 99.4091C232.823 99.5516 232.934 99.6494 233.07 99.7024C233.209 99.7521 233.36 99.777 233.522 99.777C233.641 99.777 233.746 99.7687 233.835 99.7521C233.925 99.7356 233.994 99.7223 234.044 99.7124L234.312 100.94C234.226 100.973 234.104 101.007 233.945 101.04C233.786 101.076 233.587 101.096 233.348 101.099C232.957 101.106 232.592 101.036 232.254 100.891C231.916 100.745 231.643 100.519 231.434 100.214C231.225 99.9096 231.121 99.5268 231.121 99.0661V91.5341ZM239.382 93.3636V94.5568H235.211V93.3636H239.382ZM236.33 91.5341H237.816V98.7578C237.816 99.0462 237.859 99.2633 237.945 99.4091C238.032 99.5516 238.143 99.6494 238.279 99.7024C238.418 99.7521 238.569 99.777 238.731 99.777C238.85 99.777 238.955 99.7687 239.044 99.7521C239.134 99.7356 239.203 99.7223 239.253 99.7124L239.521 100.94C239.435 100.973 239.313 101.007 239.154 101.04C238.994 101.076 238.796 101.096 238.557 101.099C238.166 101.106 237.801 101.036 237.463 100.891C237.125 100.745 236.852 100.519 236.643 100.214C236.434 99.9096 236.33 99.5268 236.33 99.0661V91.5341ZM244.236 101.154C243.483 101.154 242.835 100.993 242.292 100.672C241.752 100.347 241.334 99.8913 241.039 99.3047C240.747 98.7147 240.602 98.0237 240.602 97.2315C240.602 96.4493 240.747 95.7599 241.039 95.1634C241.334 94.5668 241.745 94.1011 242.272 93.7663C242.802 93.4316 243.422 93.2642 244.131 93.2642C244.562 93.2642 244.98 93.3355 245.384 93.478C245.789 93.6205 246.152 93.8442 246.473 94.1491C246.795 94.4541 247.048 94.8501 247.234 95.3374C247.419 95.8213 247.512 96.4096 247.512 97.1023V97.6293H241.442V96.5156H246.055C246.055 96.1245 245.976 95.7782 245.817 95.4766C245.658 95.1716 245.434 94.9313 245.146 94.7557C244.861 94.58 244.526 94.4922 244.141 94.4922C243.724 94.4922 243.359 94.5949 243.048 94.8004C242.739 95.0026 242.501 95.2678 242.332 95.5959C242.166 95.9207 242.083 96.2737 242.083 96.6548V97.5249C242.083 98.0353 242.173 98.4695 242.352 98.8274C242.534 99.1854 242.787 99.4588 243.112 99.6477C243.437 99.8333 243.817 99.9261 244.251 99.9261C244.532 99.9261 244.789 99.8864 245.021 99.8068C245.253 99.724 245.454 99.6013 245.623 99.4389C245.792 99.2765 245.921 99.076 246.011 98.8374L247.418 99.0909C247.305 99.5052 247.103 99.8681 246.811 100.18C246.523 100.488 246.16 100.728 245.722 100.901C245.288 101.07 244.793 101.154 244.236 101.154ZM249.161 101V93.3636H250.598V94.5767H250.678C250.817 94.1657 251.062 93.8426 251.414 93.6072C251.768 93.3686 252.169 93.2493 252.617 93.2493C252.709 93.2493 252.819 93.2526 252.945 93.2592C253.074 93.2659 253.175 93.2741 253.248 93.2841V94.706C253.188 94.6894 253.082 94.6712 252.93 94.6513C252.777 94.6281 252.625 94.6165 252.472 94.6165C252.121 94.6165 251.808 94.6911 251.533 94.8402C251.261 94.986 251.046 95.1899 250.887 95.4517C250.727 95.7102 250.648 96.0052 250.648 96.3366V101H249.161ZM260.257 95.228L258.909 95.4666C258.853 95.2943 258.764 95.1302 258.641 94.9744C258.522 94.8187 258.359 94.6911 258.154 94.5916C257.948 94.4922 257.691 94.4425 257.383 94.4425C256.962 94.4425 256.611 94.5369 256.329 94.7259C256.047 94.9115 255.907 95.1518 255.907 95.4467C255.907 95.7019 256.001 95.9074 256.19 96.0632C256.379 96.219 256.684 96.3466 257.105 96.446L258.318 96.7244C259.02 96.8868 259.544 97.1371 259.889 97.4751C260.234 97.8132 260.406 98.2524 260.406 98.7926C260.406 99.25 260.273 99.6577 260.008 100.016C259.746 100.37 259.38 100.649 258.909 100.851C258.442 101.053 257.9 101.154 257.284 101.154C256.429 101.154 255.731 100.972 255.191 100.607C254.65 100.239 254.319 99.7173 254.196 99.0412L255.633 98.8224C255.723 99.197 255.907 99.4804 256.185 99.6726C256.463 99.8615 256.826 99.956 257.274 99.956C257.761 99.956 258.15 99.8549 258.442 99.6527C258.734 99.4472 258.88 99.197 258.88 98.902C258.88 98.6634 258.79 98.4628 258.611 98.3004C258.435 98.138 258.165 98.0154 257.801 97.9325L256.508 97.6491C255.796 97.4867 255.269 97.2282 254.927 96.8736C254.589 96.5189 254.42 96.0698 254.42 95.5263C254.42 95.0755 254.546 94.6811 254.798 94.343C255.05 94.005 255.398 93.7415 255.842 93.5526C256.286 93.3603 256.795 93.2642 257.368 93.2642C258.194 93.2642 258.843 93.4432 259.317 93.8011C259.791 94.1558 260.104 94.6314 260.257 95.228ZM267.968 101.169C267.484 101.169 267.046 101.08 266.655 100.901C266.264 100.718 265.954 100.455 265.725 100.11C265.5 99.7654 265.387 99.3428 265.387 98.8423C265.387 98.4115 265.47 98.0568 265.636 97.7784C265.802 97.5 266.025 97.2796 266.307 97.1172C266.589 96.9548 266.904 96.8321 267.252 96.7493C267.6 96.6664 267.954 96.6035 268.316 96.5604C268.773 96.5073 269.144 96.4643 269.429 96.4311C269.714 96.3946 269.922 96.3366 270.051 96.2571C270.18 96.1776 270.245 96.0483 270.245 95.8693V95.8345C270.245 95.4003 270.122 95.0639 269.877 94.8253C269.635 94.5866 269.274 94.4673 268.793 94.4673C268.292 94.4673 267.898 94.5784 267.61 94.8004C267.325 95.0192 267.127 95.2628 267.018 95.5312L265.621 95.2131C265.787 94.7491 266.029 94.3745 266.347 94.0895C266.668 93.8011 267.038 93.5923 267.456 93.4631C267.873 93.3305 268.312 93.2642 268.773 93.2642C269.078 93.2642 269.401 93.3007 269.743 93.3736C270.087 93.4432 270.409 93.5724 270.707 93.7614C271.009 93.9503 271.256 94.2204 271.448 94.5717C271.64 94.9197 271.736 95.3722 271.736 95.929V101H270.284V99.956H270.225C270.129 100.148 269.984 100.337 269.792 100.523C269.6 100.708 269.353 100.862 269.051 100.985C268.75 101.108 268.389 101.169 267.968 101.169ZM268.291 99.9759C268.702 99.9759 269.053 99.8946 269.345 99.7322C269.64 99.5698 269.864 99.3577 270.016 99.0959C270.172 98.8307 270.25 98.5473 270.25 98.2457V97.2614C270.197 97.3144 270.094 97.3641 269.941 97.4105C269.792 97.4536 269.622 97.4917 269.429 97.5249C269.237 97.5547 269.05 97.5829 268.868 97.6094C268.685 97.6326 268.533 97.6525 268.41 97.669C268.122 97.7055 267.858 97.7668 267.62 97.853C267.384 97.9392 267.195 98.0634 267.053 98.2259C266.914 98.3849 266.844 98.5971 266.844 98.8622C266.844 99.2301 266.98 99.5085 267.252 99.6974C267.524 99.883 267.87 99.9759 268.291 99.9759ZM275.203 96.4659V101H273.716V93.3636H275.143V94.6065H275.237C275.413 94.2022 275.688 93.8774 276.063 93.6321C276.441 93.3868 276.916 93.2642 277.49 93.2642C278.01 93.2642 278.466 93.3736 278.857 93.5923C279.248 93.8078 279.551 94.1293 279.767 94.5568C279.982 94.9844 280.09 95.513 280.09 96.1428V101H278.603V96.3217C278.603 95.7682 278.459 95.3357 278.171 95.0241C277.882 94.7093 277.486 94.5518 276.982 94.5518C276.638 94.5518 276.331 94.6264 276.063 94.7756C275.798 94.9247 275.587 95.1435 275.431 95.4318C275.279 95.7169 275.203 96.0616 275.203 96.4659ZM284.942 101.149C284.325 101.149 283.775 100.992 283.291 100.677C282.811 100.359 282.433 99.9062 282.158 99.3196C281.886 98.7296 281.75 98.022 281.75 97.1967C281.75 96.3714 281.888 95.6655 282.163 95.0788C282.441 94.4922 282.822 94.0431 283.306 93.7315C283.79 93.42 284.339 93.2642 284.952 93.2642C285.426 93.2642 285.807 93.3438 286.095 93.5028C286.387 93.6586 286.612 93.8409 286.771 94.0497C286.934 94.2585 287.06 94.4425 287.149 94.6016H287.239V90.8182H288.725V101H287.274V99.8118H287.149C287.06 99.9742 286.931 100.16 286.762 100.369C286.596 100.577 286.367 100.76 286.075 100.915C285.784 101.071 285.406 101.149 284.942 101.149ZM285.27 99.8814C285.698 99.8814 286.059 99.7687 286.354 99.5433C286.652 99.3146 286.878 98.9981 287.03 98.5938C287.186 98.1894 287.264 97.7187 287.264 97.1818C287.264 96.6515 287.187 96.1875 287.035 95.7898C286.883 95.392 286.659 95.0821 286.364 94.8601C286.069 94.638 285.704 94.527 285.27 94.527C284.823 94.527 284.45 94.643 284.151 94.875C283.853 95.107 283.628 95.4235 283.475 95.8246C283.326 96.2256 283.252 96.678 283.252 97.1818C283.252 97.6922 283.328 98.1513 283.48 98.5589C283.633 98.9666 283.858 99.2898 284.156 99.5284C284.458 99.7637 284.829 99.8814 285.27 99.8814ZM296.039 96.4659V101H294.552V93.3636H295.979V94.6065H296.073C296.249 94.2022 296.524 93.8774 296.899 93.6321C297.276 93.3868 297.752 93.2642 298.325 93.2642C298.846 93.2642 299.302 93.3736 299.693 93.5923C300.084 93.8078 300.387 94.1293 300.602 94.5568C300.818 94.9844 300.926 95.513 300.926 96.1428V101H299.439V96.3217C299.439 95.7682 299.295 95.3357 299.007 95.0241C298.718 94.7093 298.322 94.5518 297.818 94.5518C297.474 94.5518 297.167 94.6264 296.899 94.7756C296.633 94.9247 296.423 95.1435 296.267 95.4318C296.115 95.7169 296.039 96.0616 296.039 96.4659ZM307.757 97.8331V93.3636H309.248V101H307.786V99.6776H307.707C307.531 100.085 307.249 100.425 306.862 100.697C306.477 100.965 305.998 101.099 305.425 101.099C304.934 101.099 304.5 100.992 304.122 100.776C303.748 100.558 303.453 100.234 303.237 99.8068C303.025 99.3793 302.919 98.8506 302.919 98.2209V93.3636H304.406V98.0419C304.406 98.5623 304.55 98.9766 304.838 99.2848C305.127 99.593 305.501 99.7472 305.962 99.7472C306.24 99.7472 306.517 99.6776 306.792 99.5384C307.07 99.3991 307.301 99.1887 307.483 98.907C307.669 98.6252 307.76 98.2673 307.757 97.8331ZM311.245 101V93.3636H312.672V94.6065H312.767C312.926 94.1856 313.186 93.8575 313.547 93.6222C313.908 93.3835 314.341 93.2642 314.845 93.2642C315.355 93.2642 315.783 93.3835 316.127 93.6222C316.475 93.8608 316.732 94.1889 316.898 94.6065H316.978C317.16 94.1989 317.45 93.8741 317.848 93.6321C318.245 93.3868 318.719 93.2642 319.27 93.2642C319.962 93.2642 320.527 93.4813 320.965 93.9155C321.406 94.3497 321.626 95.0043 321.626 95.8793V101H320.14V96.0185C320.14 95.5014 319.999 95.1269 319.717 94.8949C319.435 94.6629 319.099 94.5469 318.708 94.5469C318.224 94.5469 317.848 94.696 317.579 94.9943C317.311 95.2893 317.176 95.6688 317.176 96.1328V101H315.695V95.924C315.695 95.5097 315.566 95.1766 315.307 94.9247C315.049 94.6728 314.712 94.5469 314.298 94.5469C314.016 94.5469 313.756 94.6214 313.517 94.7706C313.282 94.9164 313.092 95.1203 312.946 95.3821C312.803 95.6439 312.732 95.9472 312.732 96.2919V101H311.245ZM323.738 101V90.8182H325.224V94.6016H325.314C325.4 94.4425 325.524 94.2585 325.687 94.0497C325.849 93.8409 326.074 93.6586 326.363 93.5028C326.651 93.3438 327.032 93.2642 327.506 93.2642C328.123 93.2642 328.673 93.42 329.157 93.7315C329.641 94.0431 330.02 94.4922 330.295 95.0788C330.574 95.6655 330.713 96.3714 330.713 97.1967C330.713 98.022 330.575 98.7296 330.3 99.3196C330.025 99.9062 329.647 100.359 329.167 100.677C328.686 100.992 328.138 101.149 327.521 101.149C327.057 101.149 326.678 101.071 326.383 100.915C326.091 100.76 325.862 100.577 325.697 100.369C325.531 100.16 325.403 99.9742 325.314 99.8118H325.189V101H323.738ZM325.194 97.1818C325.194 97.7187 325.272 98.1894 325.428 98.5938C325.584 98.9981 325.809 99.3146 326.104 99.5433C326.399 99.7687 326.76 99.8814 327.188 99.8814C327.632 99.8814 328.003 99.7637 328.302 99.5284C328.6 99.2898 328.825 98.9666 328.978 98.5589C329.134 98.1513 329.211 97.6922 329.211 97.1818C329.211 96.678 329.135 96.2256 328.983 95.8246C328.834 95.4235 328.608 95.107 328.307 94.875C328.008 94.643 327.635 94.527 327.188 94.527C326.757 94.527 326.393 94.638 326.094 94.8601C325.799 95.0821 325.576 95.392 325.423 95.7898C325.271 96.1875 325.194 96.6515 325.194 97.1818ZM335.673 101.154C334.921 101.154 334.273 100.993 333.729 100.672C333.189 100.347 332.772 99.8913 332.477 99.3047C332.185 98.7147 332.039 98.0237 332.039 97.2315C332.039 96.4493 332.185 95.7599 332.477 95.1634C332.772 94.5668 333.183 94.1011 333.71 93.7663C334.24 93.4316 334.86 93.2642 335.569 93.2642C336 93.2642 336.417 93.3355 336.822 93.478C337.226 93.6205 337.589 93.8442 337.911 94.1491C338.232 94.4541 338.486 94.8501 338.671 95.3374C338.857 95.8213 338.95 96.4096 338.95 97.1023V97.6293H332.879V96.5156H337.493C337.493 96.1245 337.413 95.7782 337.254 95.4766C337.095 95.1716 336.871 94.9313 336.583 94.7557C336.298 94.58 335.963 94.4922 335.579 94.4922C335.161 94.4922 334.797 94.5949 334.485 94.8004C334.177 95.0026 333.938 95.2678 333.769 95.5959C333.603 95.9207 333.521 96.2737 333.521 96.6548V97.5249C333.521 98.0353 333.61 98.4695 333.789 98.8274C333.971 99.1854 334.225 99.4588 334.55 99.6477C334.875 99.8333 335.254 99.9261 335.688 99.9261C335.97 99.9261 336.227 99.8864 336.459 99.8068C336.691 99.724 336.891 99.6013 337.06 99.4389C337.229 99.2765 337.359 99.076 337.448 98.8374L338.855 99.0909C338.742 99.5052 338.54 99.8681 338.249 100.18C337.96 100.488 337.597 100.728 337.16 100.901C336.726 101.07 336.23 101.154 335.673 101.154ZM340.599 101V93.3636H342.036V94.5767H342.115C342.254 94.1657 342.5 93.8426 342.851 93.6072C343.206 93.3686 343.607 93.2493 344.054 93.2493C344.147 93.2493 344.256 93.2526 344.382 93.2592C344.512 93.2659 344.613 93.2741 344.686 93.2841V94.706C344.626 94.6894 344.52 94.6712 344.367 94.6513C344.215 94.6281 344.062 94.6165 343.91 94.6165C343.559 94.6165 343.245 94.6911 342.97 94.8402C342.699 94.986 342.483 95.1899 342.324 95.4517C342.165 95.7102 342.085 96.0052 342.085 96.3366V101H340.599ZM351.694 95.228L350.347 95.4666C350.291 95.2943 350.201 95.1302 350.078 94.9744C349.959 94.8187 349.797 94.6911 349.591 94.5916C349.386 94.4922 349.129 94.4425 348.821 94.4425C348.4 94.4425 348.048 94.5369 347.767 94.7259C347.485 94.9115 347.344 95.1518 347.344 95.4467C347.344 95.7019 347.439 95.9074 347.627 96.0632C347.816 96.219 348.121 96.3466 348.542 96.446L349.755 96.7244C350.458 96.8868 350.982 97.1371 351.326 97.4751C351.671 97.8132 351.843 98.2524 351.843 98.7926C351.843 99.25 351.711 99.6577 351.446 100.016C351.184 100.37 350.818 100.649 350.347 100.851C349.88 101.053 349.338 101.154 348.721 101.154C347.866 101.154 347.168 100.972 346.628 100.607C346.088 100.239 345.757 99.7173 345.634 99.0412L347.071 98.8224C347.16 99.197 347.344 99.4804 347.623 99.6726C347.901 99.8615 348.264 99.956 348.711 99.956C349.199 99.956 349.588 99.8549 349.88 99.6527C350.171 99.4472 350.317 99.197 350.317 98.902C350.317 98.6634 350.228 98.4628 350.049 98.3004C349.873 98.138 349.603 98.0154 349.238 97.9325L347.946 97.6491C347.233 97.4867 346.706 97.2282 346.365 96.8736C346.027 96.5189 345.858 96.0698 345.858 95.5263C345.858 95.0755 345.984 94.6811 346.235 94.343C346.487 94.005 346.835 93.7415 347.279 93.5526C347.724 93.3603 348.232 93.2642 348.806 93.2642C349.631 93.2642 350.281 93.4432 350.755 93.8011C351.229 94.1558 351.542 94.6314 351.694 95.228ZM354.457 101.094C354.185 101.094 353.952 100.998 353.756 100.806C353.561 100.611 353.463 100.375 353.463 100.1C353.463 99.8284 353.561 99.5964 353.756 99.4041C353.952 99.2086 354.185 99.1108 354.457 99.1108C354.729 99.1108 354.963 99.2086 355.158 99.4041C355.354 99.5964 355.452 99.8284 355.452 100.1C355.452 100.282 355.405 100.45 355.312 100.602C355.223 100.751 355.104 100.871 354.954 100.96C354.805 101.05 354.64 101.094 354.457 101.094Z" fill="#3B4758"/>
</svg>
