<svg width="89" height="20" viewBox="0 0 89 20" fill="none" xmlns="http://www.w3.org/2000/svg">
<path d="M8.87513e-05 15.2485V0.70308H5.45463C6.57206 0.70308 7.50956 0.911414 8.26713 1.32808C9.02945 1.74475 9.60473 2.31766 9.99299 3.04683C10.386 3.77126 10.5825 4.59513 10.5825 5.51842C10.5825 6.45119 10.386 7.27978 9.99299 8.00422C9.59999 8.72865 9.01998 9.2992 8.25293 9.71586C7.48588 10.1278 6.54128 10.3338 5.41912 10.3338H1.80407V8.16757H5.06401C5.71742 8.16757 6.25246 8.05393 6.66912 7.82666C7.08579 7.59939 7.39356 7.28689 7.59242 6.88916C7.79602 6.49143 7.89782 6.03452 7.89782 5.51842C7.89782 5.00232 7.79602 4.54778 7.59242 4.15479C7.39356 3.76179 7.08342 3.45639 6.66202 3.23859C6.24535 3.01605 5.70795 2.90479 5.0498 2.90479H2.63503V15.2485H8.87513e-05ZM15.7014 15.4687C15.0102 15.4687 14.3875 15.3456 13.8335 15.0994C13.2843 14.8484 12.8487 14.4791 12.5267 13.9914C12.2095 13.5037 12.0509 12.9024 12.0509 12.1875C12.0509 11.5719 12.1645 11.0629 12.3918 10.6605C12.6191 10.258 12.9292 9.93604 13.3222 9.69456C13.7152 9.45308 14.1579 9.27079 14.6503 9.14768C15.1475 9.01984 15.6612 8.92751 16.1915 8.87069C16.8307 8.80441 17.3492 8.74522 17.7469 8.69314C18.1446 8.63632 18.4334 8.55109 18.6134 8.43746C18.798 8.31908 18.8904 8.13679 18.8904 7.89058V7.84797C18.8904 7.31293 18.7317 6.89863 18.4145 6.60507C18.0973 6.31151 17.6404 6.16473 17.0438 6.16473C16.414 6.16473 15.9145 6.30204 15.5452 6.57666C15.1806 6.85128 14.9344 7.17562 14.8066 7.54967L12.406 7.20876C12.5954 6.54588 12.9079 5.99191 13.3435 5.54683C13.7791 5.09702 14.3118 4.76085 14.9415 4.53831C15.5712 4.31104 16.2673 4.1974 17.0296 4.1974C17.5551 4.1974 18.0783 4.25895 18.5992 4.38206C19.12 4.50516 19.5959 4.70876 20.0267 4.99285C20.4576 5.27221 20.8032 5.65336 21.0637 6.13632C21.3288 6.61927 21.4614 7.22297 21.4614 7.9474V15.2485H18.9898V13.75H18.9046C18.7483 14.053 18.5281 14.3371 18.2441 14.6022C17.9647 14.8626 17.6119 15.0733 17.1858 15.2343C16.7644 15.3906 16.2696 15.4687 15.7014 15.4687ZM16.3691 13.5795C16.8852 13.5795 17.3326 13.4777 17.7114 13.2741C18.0902 13.0658 18.3814 12.7911 18.585 12.4502C18.7933 12.1093 18.8975 11.7376 18.8975 11.3352V10.0497C18.817 10.116 18.6797 10.1775 18.4855 10.2343C18.2961 10.2911 18.0831 10.3409 17.8463 10.3835C17.6096 10.4261 17.3752 10.464 17.1432 10.4971C16.9112 10.5303 16.71 10.5587 16.5395 10.5823C16.156 10.6344 15.8127 10.7197 15.5097 10.838C15.2066 10.9564 14.9675 11.1221 14.7923 11.3352C14.6172 11.5435 14.5296 11.8134 14.5296 12.1448C14.5296 12.6183 14.7024 12.9758 15.048 13.2173C15.3937 13.4588 15.834 13.5795 16.3691 13.5795ZM25.254 19.3394C24.9036 19.3394 24.5793 19.311 24.281 19.2542C23.9874 19.2021 23.753 19.1406 23.5779 19.0696L24.1744 17.0667C24.5485 17.1756 24.8823 17.2277 25.1759 17.223C25.4694 17.2182 25.7275 17.1259 25.95 16.946C26.1773 16.7708 26.3691 16.4772 26.5253 16.0653L26.7455 15.4758L22.7895 4.33944H25.5168L28.031 12.5781H28.1446L30.6659 4.33944H33.4003L29.0324 16.5696C28.8288 17.1472 28.5589 17.642 28.2227 18.0539C27.8866 18.4706 27.4746 18.7878 26.9869 19.0056C26.504 19.2282 25.9263 19.3394 25.254 19.3394ZM43.3151 15.2485L39.21 0.70308H42.0438L44.6645 11.392H44.7994L47.5977 0.70308H50.1759L52.9813 11.3991H53.1091L55.7298 0.70308H58.5637L54.4585 15.2485H51.8591L48.9472 5.04257H48.8335L45.9145 15.2485H43.3151ZM60.2771 15.2485V4.33944H62.8481V15.2485H60.2771ZM61.5697 2.79115C61.1625 2.79115 60.8121 2.65621 60.5186 2.38632C60.225 2.1117 60.0782 1.78263 60.0782 1.3991C60.0782 1.01085 60.225 0.681773 60.5186 0.411886C60.8121 0.137266 61.1625 -4.48227e-05 61.5697 -4.48227e-05C61.9816 -4.48227e-05 62.332 0.137266 62.6208 0.411886C62.9144 0.681773 63.0612 1.01085 63.0612 1.3991C63.0612 1.78263 62.9144 2.1117 62.6208 2.38632C62.332 2.65621 61.9816 2.79115 61.5697 2.79115ZM70.9394 4.33944V6.32808H64.6681V4.33944H70.9394ZM66.2164 1.72581H68.7874V11.9673C68.7874 12.3129 68.8395 12.5781 68.9436 12.7627C69.0525 12.9427 69.1946 13.0658 69.3698 13.1321C69.545 13.1983 69.7391 13.2315 69.9521 13.2315C70.1131 13.2315 70.2599 13.2197 70.3925 13.196C70.5298 13.1723 70.634 13.151 70.705 13.1321L71.1382 15.142C71.0009 15.1893 70.8044 15.2414 70.5487 15.2983C70.2978 15.3551 69.99 15.3882 69.6254 15.3977C68.9815 15.4166 68.4015 15.3196 67.8854 15.1065C67.3693 14.8887 66.9597 14.5525 66.6567 14.098C66.3584 13.6434 66.2116 13.0752 66.2164 12.3934V1.72581ZM75.895 8.85649V15.2485H73.324V0.70308H75.8382V6.19314H75.966C76.2217 5.57761 76.617 5.09228 77.1521 4.73717C77.6919 4.37732 78.3784 4.1974 79.2117 4.1974C79.9693 4.1974 80.6298 4.35602 81.1933 4.67325C81.7567 4.99049 82.1923 5.4545 82.5001 6.0653C82.8126 6.67609 82.9688 7.42183 82.9688 8.30251V15.2485H80.3978V8.70024C80.3978 7.96634 80.2084 7.39579 79.8296 6.98859C79.4556 6.57666 78.93 6.37069 78.2529 6.37069C77.7984 6.37069 77.3912 6.47013 77.0313 6.66899C76.6762 6.86312 76.3969 7.14484 76.1933 7.51416C75.9944 7.88348 75.895 8.33092 75.895 8.85649ZM87.1734 15.4048C86.7425 15.4048 86.3732 15.2533 86.0654 14.9502C85.7577 14.6472 85.6061 14.2779 85.6109 13.8423C85.6061 13.4161 85.7577 13.0516 86.0654 12.7485C86.3732 12.4455 86.7425 12.294 87.1734 12.294C87.5901 12.294 87.9523 12.4455 88.26 12.7485C88.5725 13.0516 88.7311 13.4161 88.7359 13.8423C88.7311 14.1311 88.6554 14.3939 88.5086 14.6306C88.3666 14.8674 88.1772 15.0568 87.9404 15.1988C87.7084 15.3361 87.4527 15.4048 87.1734 15.4048ZM87.1734 7.62069C86.7425 7.62069 86.3732 7.46918 86.0654 7.16615C85.7577 6.85838 85.6061 6.48907 85.6109 6.05819C85.6061 5.63206 85.7577 5.26747 86.0654 4.96444C86.3732 4.65668 86.7425 4.5028 87.1734 4.5028C87.5901 4.5028 87.9523 4.65668 88.26 4.96444C88.5725 5.26747 88.7311 5.63206 88.7359 6.05819C88.7311 6.34228 88.6554 6.6027 88.5086 6.83944C88.3666 7.07619 88.1772 7.26558 87.9404 7.40763C87.7084 7.54967 87.4527 7.62069 87.1734 7.62069Z" fill="#0A0D13"/>
</svg>
