<svg width="137" height="100" viewBox="0 0 137 100" fill="none" xmlns="http://www.w3.org/2000/svg">
<rect x="0.5" y="0.5" width="136" height="99" rx="4.5" stroke="#8A38F5" stroke-dasharray="10 5"/>
<path d="M21.1186 35V24.8182H24.7479C25.54 24.8182 26.1963 24.9624 26.7166 25.2507C27.237 25.5391 27.6264 25.9335 27.8849 26.4339C28.1435 26.9311 28.2727 27.4912 28.2727 28.1143C28.2727 28.7408 28.1418 29.3042 27.88 29.8047C27.6214 30.3018 27.2304 30.6963 26.7067 30.9879C26.1863 31.2763 25.5317 31.4205 24.7429 31.4205H22.2472V30.1179H24.6037C25.1042 30.1179 25.5102 30.0317 25.8217 29.8594C26.1333 29.6837 26.362 29.4451 26.5078 29.1435C26.6536 28.8419 26.7266 28.4988 26.7266 28.1143C26.7266 27.7299 26.6536 27.3885 26.5078 27.0902C26.362 26.7919 26.1316 26.5582 25.8168 26.3892C25.5052 26.2202 25.0942 26.1357 24.5838 26.1357H22.6548V35H21.1186ZM29.9544 35V27.3636H31.3912V28.5767H31.4707C31.6099 28.1657 31.8552 27.8426 32.2065 27.6072C32.5611 27.3686 32.9622 27.2493 33.4096 27.2493C33.5024 27.2493 33.6118 27.2526 33.7377 27.2592C33.867 27.2659 33.9681 27.2741 34.041 27.2841V28.706C33.9814 28.6894 33.8753 28.6712 33.7228 28.6513C33.5704 28.6281 33.4179 28.6165 33.2654 28.6165C32.9141 28.6165 32.6009 28.6911 32.3258 28.8402C32.054 28.986 31.8386 29.1899 31.6795 29.4517C31.5204 29.7102 31.4409 30.0052 31.4409 30.3366V35H29.9544ZM35.3274 35V27.3636H36.8139V35H35.3274ZM36.0781 26.1854C35.8196 26.1854 35.5975 26.0992 35.4119 25.9268C35.2296 25.7512 35.1385 25.5424 35.1385 25.3004C35.1385 25.0552 35.2296 24.8464 35.4119 24.674C35.5975 24.4983 35.8196 24.4105 36.0781 24.4105C36.3366 24.4105 36.5571 24.4983 36.7393 24.674C36.925 24.8464 37.0178 25.0552 37.0178 25.3004C37.0178 25.5424 36.925 25.7512 36.7393 25.9268C36.5571 26.0992 36.3366 26.1854 36.0781 26.1854ZM45.3464 27.3636L42.5772 35H40.9863L38.2122 27.3636H39.8081L41.742 33.2401H41.8216L43.7505 27.3636H45.3464ZM48.747 35.169C48.2631 35.169 47.8256 35.0795 47.4345 34.9006C47.0434 34.7183 46.7335 34.4548 46.5048 34.1101C46.2794 33.7654 46.1667 33.3428 46.1667 32.8423C46.1667 32.4115 46.2496 32.0568 46.4153 31.7784C46.581 31.5 46.8047 31.2796 47.0865 31.1172C47.3682 30.9548 47.6831 30.8321 48.0311 30.7493C48.3791 30.6664 48.7337 30.6035 49.095 30.5604C49.5524 30.5073 49.9236 30.4643 50.2086 30.4311C50.4937 30.3946 50.7008 30.3366 50.8301 30.2571C50.9593 30.1776 51.024 30.0483 51.024 29.8693V29.8345C51.024 29.4003 50.9013 29.0639 50.6561 28.8253C50.4141 28.5866 50.0529 28.4673 49.5723 28.4673C49.0718 28.4673 48.6774 28.5784 48.389 28.8004C48.104 29.0192 47.9068 29.2628 47.7974 29.5312L46.4004 29.2131C46.5661 28.7491 46.8081 28.3745 47.1262 28.0895C47.4477 27.8011 47.8173 27.5923 48.2349 27.4631C48.6525 27.3305 49.0917 27.2642 49.5524 27.2642C49.8573 27.2642 50.1805 27.3007 50.5218 27.3736C50.8665 27.4432 51.188 27.5724 51.4863 27.7614C51.7879 27.9503 52.0349 28.2204 52.2271 28.5717C52.4193 28.9197 52.5154 29.3722 52.5154 29.929V35H51.0637V33.956H51.0041C50.908 34.1482 50.7638 34.3371 50.5716 34.5227C50.3793 34.7083 50.1324 34.8625 49.8308 34.9851C49.5292 35.1077 49.1679 35.169 48.747 35.169ZM49.0701 33.9759C49.4811 33.9759 49.8324 33.8946 50.1241 33.7322C50.4191 33.5698 50.6428 33.3577 50.7953 33.0959C50.9511 32.8307 51.0289 32.5473 51.0289 32.2457V31.2614C50.9759 31.3144 50.8732 31.3641 50.7207 31.4105C50.5716 31.4536 50.4009 31.4917 50.2086 31.5249C50.0164 31.5547 49.8291 31.5829 49.6468 31.6094C49.4645 31.6326 49.3121 31.6525 49.1895 31.669C48.9011 31.7055 48.6376 31.7668 48.399 31.853C48.1636 31.9392 47.9747 32.0634 47.8322 32.2259C47.693 32.3849 47.6234 32.5971 47.6234 32.8622C47.6234 33.2301 47.7593 33.5085 48.0311 33.6974C48.3029 33.883 48.6492 33.9759 49.0701 33.9759ZM57.712 35.1541C56.9729 35.1541 56.3365 34.9867 55.8029 34.652C55.2726 34.3139 54.8649 33.8482 54.5799 33.255C54.2949 32.6617 54.1523 31.9822 54.1523 31.2166C54.1523 30.4411 54.2982 29.7566 54.5898 29.1634C54.8815 28.5668 55.2925 28.1011 55.8228 27.7663C56.3531 27.4316 56.9779 27.2642 57.6971 27.2642C58.2771 27.2642 58.7942 27.3719 59.2482 27.5874C59.7023 27.7995 60.0685 28.0978 60.3469 28.4822C60.6287 28.8667 60.796 29.3158 60.8491 29.8295H59.4023C59.3228 29.4716 59.1405 29.1634 58.8555 28.9048C58.5737 28.6463 58.1959 28.517 57.7219 28.517C57.3076 28.517 56.9447 28.6264 56.6332 28.8452C56.3249 29.0606 56.0846 29.3688 55.9123 29.7699C55.7399 30.1676 55.6538 30.6383 55.6538 31.1818C55.6538 31.7386 55.7383 32.2192 55.9073 32.6236C56.0763 33.0279 56.315 33.3411 56.6232 33.5632C56.9348 33.7853 57.301 33.8963 57.7219 33.8963C58.0037 33.8963 58.2589 33.8449 58.4876 33.7422C58.7196 33.6361 58.9135 33.4853 59.0692 33.2898C59.2283 33.0942 59.3394 32.8589 59.4023 32.5838H60.8491C60.796 33.0777 60.6353 33.5185 60.3668 33.9062C60.0984 34.294 59.7388 34.599 59.288 34.821C58.8406 35.0431 58.3152 35.1541 57.712 35.1541ZM63.3784 37.8636C63.1563 37.8636 62.9541 37.8454 62.7718 37.8089C62.5895 37.7758 62.4537 37.7393 62.3642 37.6996L62.7221 36.4815C62.9939 36.5545 63.2359 36.5859 63.448 36.576C63.6601 36.5661 63.8474 36.4865 64.0098 36.3374C64.1755 36.1882 64.3213 35.9446 64.4473 35.6065L64.6312 35.0994L61.8372 27.3636H63.4281L65.362 33.2898H65.4416L67.3755 27.3636H68.9714L65.8244 36.0192C65.6786 36.4169 65.493 36.7533 65.2676 37.0284C65.0422 37.3068 64.7737 37.5156 64.4622 37.6548C64.1506 37.794 63.7894 37.8636 63.3784 37.8636ZM74.1928 35V24.8182H77.8221C78.6142 24.8182 79.2705 24.9624 79.7908 25.2507C80.3112 25.5391 80.7006 25.9335 80.9592 26.4339C81.2177 26.9311 81.3469 27.4912 81.3469 28.1143C81.3469 28.7408 81.216 29.3042 80.9542 29.8047C80.6957 30.3018 80.3046 30.6963 79.7809 30.9879C79.2605 31.2763 78.6059 31.4205 77.8171 31.4205H75.3214V30.1179H77.6779C78.1784 30.1179 78.5844 30.0317 78.896 29.8594C79.2075 29.6837 79.4362 29.4451 79.582 29.1435C79.7279 28.8419 79.8008 28.4988 79.8008 28.1143C79.8008 27.7299 79.7279 27.3885 79.582 27.0902C79.4362 26.7919 79.2058 26.5582 78.891 26.3892C78.5794 26.2202 78.1684 26.1357 77.658 26.1357H75.729V35H74.1928ZM86.1495 35.1541C85.4336 35.1541 84.8088 34.9901 84.2752 34.6619C83.7416 34.3338 83.3273 33.8748 83.0323 33.2848C82.7373 32.6948 82.5898 32.0054 82.5898 31.2166C82.5898 30.4245 82.7373 29.7318 83.0323 29.1385C83.3273 28.5452 83.7416 28.0845 84.2752 27.7564C84.8088 27.4283 85.4336 27.2642 86.1495 27.2642C86.8654 27.2642 87.4902 27.4283 88.0238 27.7564C88.5574 28.0845 88.9717 28.5452 89.2667 29.1385C89.5617 29.7318 89.7092 30.4245 89.7092 31.2166C89.7092 32.0054 89.5617 32.6948 89.2667 33.2848C88.9717 33.8748 88.5574 34.3338 88.0238 34.6619C87.4902 34.9901 86.8654 35.1541 86.1495 35.1541ZM86.1545 33.9062C86.6185 33.9062 87.003 33.7836 87.3079 33.5384C87.6128 33.2931 87.8382 32.9666 87.984 32.5589C88.1332 32.1513 88.2077 31.7022 88.2077 31.2116C88.2077 30.7244 88.1332 30.277 87.984 29.8693C87.8382 29.4583 87.6128 29.1286 87.3079 28.88C87.003 28.6314 86.6185 28.5071 86.1545 28.5071C85.6871 28.5071 85.2994 28.6314 84.9911 28.88C84.6862 29.1286 84.4592 29.4583 84.31 29.8693C84.1642 30.277 84.0913 30.7244 84.0913 31.2116C84.0913 31.7022 84.1642 32.1513 84.31 32.5589C84.4592 32.9666 84.6862 33.2931 84.9911 33.5384C85.2994 33.7836 85.6871 33.9062 86.1545 33.9062ZM92.8549 24.8182V35H91.3684V24.8182H92.8549ZM94.8548 35V27.3636H96.3413V35H94.8548ZM95.6055 26.1854C95.3469 26.1854 95.1249 26.0992 94.9393 25.9268C94.757 25.7512 94.6658 25.5424 94.6658 25.3004C94.6658 25.0552 94.757 24.8464 94.9393 24.674C95.1249 24.4983 95.3469 24.4105 95.6055 24.4105C95.864 24.4105 96.0844 24.4983 96.2667 24.674C96.4523 24.8464 96.5451 25.0552 96.5451 25.3004C96.5451 25.5424 96.4523 25.7512 96.2667 25.9268C96.0844 26.0992 95.864 26.1854 95.6055 26.1854ZM101.558 35.1541C100.819 35.1541 100.182 34.9867 99.6486 34.652C99.1183 34.3139 98.7106 33.8482 98.4256 33.255C98.1406 32.6617 97.998 31.9822 97.998 31.2166C97.998 30.4411 98.1439 29.7566 98.4355 29.1634C98.7272 28.5668 99.1382 28.1011 99.6685 27.7663C100.199 27.4316 100.824 27.2642 101.543 27.2642C102.123 27.2642 102.64 27.3719 103.094 27.5874C103.548 27.7995 103.914 28.0978 104.193 28.4822C104.474 28.8667 104.642 29.3158 104.695 29.8295H103.248C103.169 29.4716 102.986 29.1634 102.701 28.9048C102.419 28.6463 102.042 28.517 101.568 28.517C101.153 28.517 100.79 28.6264 100.479 28.8452C100.171 29.0606 99.9303 29.3688 99.758 29.7699C99.5856 30.1676 99.4995 30.6383 99.4995 31.1818C99.4995 31.7386 99.584 32.2192 99.753 32.6236C99.9221 33.0279 100.161 33.3411 100.469 33.5632C100.78 33.7853 101.147 33.8963 101.568 33.8963C101.849 33.8963 102.105 33.8449 102.333 33.7422C102.565 33.6361 102.759 33.4853 102.915 33.2898C103.074 33.0942 103.185 32.8589 103.248 32.5838H104.695C104.642 33.0777 104.481 33.5185 104.213 33.9062C103.944 34.294 103.584 34.599 103.134 34.821C102.686 35.0431 102.161 35.1541 101.558 35.1541ZM107.224 37.8636C107.002 37.8636 106.8 37.8454 106.618 37.8089C106.435 37.7758 106.299 37.7393 106.21 37.6996L106.568 36.4815C106.84 36.5545 107.082 36.5859 107.294 36.576C107.506 36.5661 107.693 36.4865 107.855 36.3374C108.021 36.1882 108.167 35.9446 108.293 35.6065L108.477 35.0994L105.683 27.3636H107.274L109.208 33.2898H109.287L111.221 27.3636H112.817L109.67 36.0192C109.524 36.4169 109.339 36.7533 109.113 37.0284C108.888 37.3068 108.619 37.5156 108.308 37.6548C107.996 37.794 107.635 37.8636 107.224 37.8636Z" fill="#64B5F6"/>
<path d="M21.1186 75V64.8182H24.7479C25.54 64.8182 26.1963 64.9624 26.7166 65.2507C27.237 65.5391 27.6264 65.9335 27.8849 66.4339C28.1435 66.9311 28.2727 67.4912 28.2727 68.1143C28.2727 68.7408 28.1418 69.3042 27.88 69.8047C27.6214 70.3018 27.2304 70.6963 26.7067 70.9879C26.1863 71.2763 25.5317 71.4205 24.7429 71.4205H22.2472V70.1179H24.6037C25.1042 70.1179 25.5102 70.0317 25.8217 69.8594C26.1333 69.6837 26.362 69.4451 26.5078 69.1435C26.6536 68.8419 26.7266 68.4988 26.7266 68.1143C26.7266 67.7299 26.6536 67.3885 26.5078 67.0902C26.362 66.7919 26.1316 66.5582 25.8168 66.3892C25.5052 66.2202 25.0942 66.1357 24.5838 66.1357H22.6548V75H21.1186ZM29.9544 75V67.3636H31.3912V68.5767H31.4707C31.6099 68.1657 31.8552 67.8426 32.2065 67.6072C32.5611 67.3686 32.9622 67.2493 33.4096 67.2493C33.5024 67.2493 33.6118 67.2526 33.7377 67.2592C33.867 67.2659 33.9681 67.2741 34.041 67.2841V68.706C33.9814 68.6894 33.8753 68.6712 33.7228 68.6513C33.5704 68.6281 33.4179 68.6165 33.2654 68.6165C32.9141 68.6165 32.6009 68.6911 32.3258 68.8402C32.054 68.986 31.8386 69.1899 31.6795 69.4517C31.5204 69.7102 31.4409 70.0052 31.4409 70.3366V75H29.9544ZM35.3274 75V67.3636H36.8139V75H35.3274ZM36.0781 66.1854C35.8196 66.1854 35.5975 66.0992 35.4119 65.9268C35.2296 65.7512 35.1385 65.5424 35.1385 65.3004C35.1385 65.0552 35.2296 64.8464 35.4119 64.674C35.5975 64.4983 35.8196 64.4105 36.0781 64.4105C36.3366 64.4105 36.5571 64.4983 36.7393 64.674C36.925 64.8464 37.0178 65.0552 37.0178 65.3004C37.0178 65.5424 36.925 65.7512 36.7393 65.9268C36.5571 66.0992 36.3366 66.1854 36.0781 66.1854ZM45.3464 67.3636L42.5772 75H40.9863L38.2122 67.3636H39.8081L41.742 73.2401H41.8216L43.7505 67.3636H45.3464ZM48.747 75.169C48.2631 75.169 47.8256 75.0795 47.4345 74.9006C47.0434 74.7183 46.7335 74.4548 46.5048 74.1101C46.2794 73.7654 46.1667 73.3428 46.1667 72.8423C46.1667 72.4115 46.2496 72.0568 46.4153 71.7784C46.581 71.5 46.8047 71.2796 47.0865 71.1172C47.3682 70.9548 47.6831 70.8321 48.0311 70.7493C48.3791 70.6664 48.7337 70.6035 49.095 70.5604C49.5524 70.5073 49.9236 70.4643 50.2086 70.4311C50.4937 70.3946 50.7008 70.3366 50.8301 70.2571C50.9593 70.1776 51.024 70.0483 51.024 69.8693V69.8345C51.024 69.4003 50.9013 69.0639 50.6561 68.8253C50.4141 68.5866 50.0529 68.4673 49.5723 68.4673C49.0718 68.4673 48.6774 68.5784 48.389 68.8004C48.104 69.0192 47.9068 69.2628 47.7974 69.5312L46.4004 69.2131C46.5661 68.7491 46.8081 68.3745 47.1262 68.0895C47.4477 67.8011 47.8173 67.5923 48.2349 67.4631C48.6525 67.3305 49.0917 67.2642 49.5524 67.2642C49.8573 67.2642 50.1805 67.3007 50.5218 67.3736C50.8665 67.4432 51.188 67.5724 51.4863 67.7614C51.7879 67.9503 52.0349 68.2204 52.2271 68.5717C52.4193 68.9197 52.5154 69.3722 52.5154 69.929V75H51.0637V73.956H51.0041C50.908 74.1482 50.7638 74.3371 50.5716 74.5227C50.3793 74.7083 50.1324 74.8625 49.8308 74.9851C49.5292 75.1077 49.1679 75.169 48.747 75.169ZM49.0701 73.9759C49.4811 73.9759 49.8324 73.8946 50.1241 73.7322C50.4191 73.5698 50.6428 73.3577 50.7953 73.0959C50.9511 72.8307 51.0289 72.5473 51.0289 72.2457V71.2614C50.9759 71.3144 50.8732 71.3641 50.7207 71.4105C50.5716 71.4536 50.4009 71.4917 50.2086 71.5249C50.0164 71.5547 49.8291 71.5829 49.6468 71.6094C49.4645 71.6326 49.3121 71.6525 49.1895 71.669C48.9011 71.7055 48.6376 71.7668 48.399 71.853C48.1636 71.9392 47.9747 72.0634 47.8322 72.2259C47.693 72.3849 47.6234 72.5971 47.6234 72.8622C47.6234 73.2301 47.7593 73.5085 48.0311 73.6974C48.3029 73.883 48.6492 73.9759 49.0701 73.9759ZM57.712 75.1541C56.9729 75.1541 56.3365 74.9867 55.8029 74.652C55.2726 74.3139 54.8649 73.8482 54.5799 73.255C54.2949 72.6617 54.1523 71.9822 54.1523 71.2166C54.1523 70.4411 54.2982 69.7566 54.5898 69.1634C54.8815 68.5668 55.2925 68.1011 55.8228 67.7663C56.3531 67.4316 56.9779 67.2642 57.6971 67.2642C58.2771 67.2642 58.7942 67.3719 59.2482 67.5874C59.7023 67.7995 60.0685 68.0978 60.3469 68.4822C60.6287 68.8667 60.796 69.3158 60.8491 69.8295H59.4023C59.3228 69.4716 59.1405 69.1634 58.8555 68.9048C58.5737 68.6463 58.1959 68.517 57.7219 68.517C57.3076 68.517 56.9447 68.6264 56.6332 68.8452C56.3249 69.0606 56.0846 69.3688 55.9123 69.7699C55.7399 70.1676 55.6538 70.6383 55.6538 71.1818C55.6538 71.7386 55.7383 72.2192 55.9073 72.6236C56.0763 73.0279 56.315 73.3411 56.6232 73.5632C56.9348 73.7853 57.301 73.8963 57.7219 73.8963C58.0037 73.8963 58.2589 73.8449 58.4876 73.7422C58.7196 73.6361 58.9135 73.4853 59.0692 73.2898C59.2283 73.0942 59.3394 72.8589 59.4023 72.5838H60.8491C60.796 73.0777 60.6353 73.5185 60.3668 73.9062C60.0984 74.294 59.7388 74.599 59.288 74.821C58.8406 75.0431 58.3152 75.1541 57.712 75.1541ZM63.3784 77.8636C63.1563 77.8636 62.9541 77.8454 62.7718 77.8089C62.5895 77.7758 62.4537 77.7393 62.3642 77.6996L62.7221 76.4815C62.9939 76.5545 63.2359 76.5859 63.448 76.576C63.6601 76.5661 63.8474 76.4865 64.0098 76.3374C64.1755 76.1882 64.3213 75.9446 64.4473 75.6065L64.6312 75.0994L61.8372 67.3636H63.4281L65.362 73.2898H65.4416L67.3755 67.3636H68.9714L65.8244 76.0192C65.6786 76.4169 65.493 76.7533 65.2676 77.0284C65.0422 77.3068 64.7737 77.5156 64.4622 77.6548C64.1506 77.794 63.7894 77.8636 63.3784 77.8636ZM74.1928 75V64.8182H77.8221C78.6142 64.8182 79.2705 64.9624 79.7908 65.2507C80.3112 65.5391 80.7006 65.9335 80.9592 66.4339C81.2177 66.9311 81.3469 67.4912 81.3469 68.1143C81.3469 68.7408 81.216 69.3042 80.9542 69.8047C80.6957 70.3018 80.3046 70.6963 79.7809 70.9879C79.2605 71.2763 78.6059 71.4205 77.8171 71.4205H75.3214V70.1179H77.6779C78.1784 70.1179 78.5844 70.0317 78.896 69.8594C79.2075 69.6837 79.4362 69.4451 79.582 69.1435C79.7279 68.8419 79.8008 68.4988 79.8008 68.1143C79.8008 67.7299 79.7279 67.3885 79.582 67.0902C79.4362 66.7919 79.2058 66.5582 78.891 66.3892C78.5794 66.2202 78.1684 66.1357 77.658 66.1357H75.729V75H74.1928ZM86.1495 75.1541C85.4336 75.1541 84.8088 74.9901 84.2752 74.6619C83.7416 74.3338 83.3273 73.8748 83.0323 73.2848C82.7373 72.6948 82.5898 72.0054 82.5898 71.2166C82.5898 70.4245 82.7373 69.7318 83.0323 69.1385C83.3273 68.5452 83.7416 68.0845 84.2752 67.7564C84.8088 67.4283 85.4336 67.2642 86.1495 67.2642C86.8654 67.2642 87.4902 67.4283 88.0238 67.7564C88.5574 68.0845 88.9717 68.5452 89.2667 69.1385C89.5617 69.7318 89.7092 70.4245 89.7092 71.2166C89.7092 72.0054 89.5617 72.6948 89.2667 73.2848C88.9717 73.8748 88.5574 74.3338 88.0238 74.6619C87.4902 74.9901 86.8654 75.1541 86.1495 75.1541ZM86.1545 73.9062C86.6185 73.9062 87.003 73.7836 87.3079 73.5384C87.6128 73.2931 87.8382 72.9666 87.984 72.5589C88.1332 72.1513 88.2077 71.7022 88.2077 71.2116C88.2077 70.7244 88.1332 70.277 87.984 69.8693C87.8382 69.4583 87.6128 69.1286 87.3079 68.88C87.003 68.6314 86.6185 68.5071 86.1545 68.5071C85.6871 68.5071 85.2994 68.6314 84.9911 68.88C84.6862 69.1286 84.4592 69.4583 84.31 69.8693C84.1642 70.277 84.0913 70.7244 84.0913 71.2116C84.0913 71.7022 84.1642 72.1513 84.31 72.5589C84.4592 72.9666 84.6862 73.2931 84.9911 73.5384C85.2994 73.7836 85.6871 73.9062 86.1545 73.9062ZM92.8549 64.8182V75H91.3684V64.8182H92.8549ZM94.8548 75V67.3636H96.3413V75H94.8548ZM95.6055 66.1854C95.3469 66.1854 95.1249 66.0992 94.9393 65.9268C94.757 65.7512 94.6658 65.5424 94.6658 65.3004C94.6658 65.0552 94.757 64.8464 94.9393 64.674C95.1249 64.4983 95.3469 64.4105 95.6055 64.4105C95.864 64.4105 96.0844 64.4983 96.2667 64.674C96.4523 64.8464 96.5451 65.0552 96.5451 65.3004C96.5451 65.5424 96.4523 65.7512 96.2667 65.9268C96.0844 66.0992 95.864 66.1854 95.6055 66.1854ZM101.558 75.1541C100.819 75.1541 100.182 74.9867 99.6486 74.652C99.1183 74.3139 98.7106 73.8482 98.4256 73.255C98.1406 72.6617 97.998 71.9822 97.998 71.2166C97.998 70.4411 98.1439 69.7566 98.4355 69.1634C98.7272 68.5668 99.1382 68.1011 99.6685 67.7663C100.199 67.4316 100.824 67.2642 101.543 67.2642C102.123 67.2642 102.64 67.3719 103.094 67.5874C103.548 67.7995 103.914 68.0978 104.193 68.4822C104.474 68.8667 104.642 69.3158 104.695 69.8295H103.248C103.169 69.4716 102.986 69.1634 102.701 68.9048C102.419 68.6463 102.042 68.517 101.568 68.517C101.153 68.517 100.79 68.6264 100.479 68.8452C100.171 69.0606 99.9303 69.3688 99.758 69.7699C99.5856 70.1676 99.4995 70.6383 99.4995 71.1818C99.4995 71.7386 99.584 72.2192 99.753 72.6236C99.9221 73.0279 100.161 73.3411 100.469 73.5632C100.78 73.7853 101.147 73.8963 101.568 73.8963C101.849 73.8963 102.105 73.8449 102.333 73.7422C102.565 73.6361 102.759 73.4853 102.915 73.2898C103.074 73.0942 103.185 72.8589 103.248 72.5838H104.695C104.642 73.0777 104.481 73.5185 104.213 73.9062C103.944 74.294 103.584 74.599 103.134 74.821C102.686 75.0431 102.161 75.1541 101.558 75.1541ZM107.224 77.8636C107.002 77.8636 106.8 77.8454 106.618 77.8089C106.435 77.7758 106.299 77.7393 106.21 77.6996L106.568 76.4815C106.84 76.5545 107.082 76.5859 107.294 76.576C107.506 76.5661 107.693 76.4865 107.855 76.3374C108.021 76.1882 108.167 75.9446 108.293 75.6065L108.477 75.0994L105.683 67.3636H107.274L109.208 73.2898H109.287L111.221 67.3636H112.817L109.67 76.0192C109.524 76.4169 109.339 76.7533 109.113 77.0284C108.888 77.3068 108.619 77.5156 108.308 77.6548C107.996 77.794 107.635 77.8636 107.224 77.8636Z" fill="#1E88E5"/>
<path d="M20 77.7841H61.6783V78.7386H20V77.7841ZM65.0405 77.7841H105.53V78.7386H65.0405V77.7841ZM108.884 77.7841H113.215V78.7386H108.884V77.7841Z" fill="#1E88E5"/>
</svg>
