<svg width="200" height="168" viewBox="0 0 200 168" fill="none" xmlns="http://www.w3.org/2000/svg">
<rect x="0.5" y="0.5" width="199" height="167" rx="4.5" stroke="#8A38F5" stroke-dasharray="10 5"/>
<rect x="20" y="20" width="160" height="54" rx="10" fill="#FFB066"/>
<path d="M59.142 53H56.892L60.9886 41.3636H63.5909L67.6932 53H65.4432L62.3352 43.75H62.2443L59.142 53ZM59.2159 48.4375H65.3523V50.1307H59.2159V48.4375ZM72.108 53.1534C71.4223 53.1534 70.8087 52.9773 70.267 52.625C69.7254 52.2727 69.2973 51.7614 68.983 51.0909C68.6686 50.4205 68.5114 49.6061 68.5114 48.6477C68.5114 47.678 68.6705 46.8598 68.9886 46.1932C69.3106 45.5227 69.7443 45.017 70.2898 44.6761C70.8352 44.3314 71.4432 44.1591 72.1136 44.1591C72.625 44.1591 73.0455 44.2462 73.375 44.4205C73.7045 44.5909 73.9659 44.7973 74.1591 45.0398C74.3523 45.2784 74.5019 45.5038 74.608 45.7159H74.6932V41.3636H76.7557V53H74.733V51.625H74.608C74.5019 51.8371 74.3485 52.0625 74.1477 52.3011C73.947 52.536 73.6818 52.7367 73.3523 52.9034C73.0227 53.0701 72.608 53.1534 72.108 53.1534ZM72.6818 51.4659C73.1174 51.4659 73.4886 51.3485 73.7955 51.1136C74.1023 50.875 74.3352 50.5436 74.4943 50.1193C74.6534 49.6951 74.733 49.2008 74.733 48.6364C74.733 48.072 74.6534 47.5814 74.4943 47.1648C74.339 46.7481 74.108 46.4242 73.8011 46.1932C73.4981 45.9621 73.125 45.8466 72.6818 45.8466C72.2235 45.8466 71.8409 45.9659 71.5341 46.2045C71.2273 46.4432 70.9962 46.7727 70.8409 47.1932C70.6856 47.6136 70.608 48.0947 70.608 48.6364C70.608 49.1818 70.6856 49.6686 70.8409 50.0966C71 50.5208 71.233 50.8561 71.5398 51.1023C71.8504 51.3447 72.2311 51.4659 72.6818 51.4659ZM82.1861 53.1534C81.5005 53.1534 80.8868 52.9773 80.3452 52.625C79.8035 52.2727 79.3755 51.7614 79.0611 51.0909C78.7467 50.4205 78.5895 49.6061 78.5895 48.6477C78.5895 47.678 78.7486 46.8598 79.0668 46.1932C79.3887 45.5227 79.8224 45.017 80.3679 44.6761C80.9134 44.3314 81.5213 44.1591 82.1918 44.1591C82.7031 44.1591 83.1236 44.2462 83.4531 44.4205C83.7827 44.5909 84.044 44.7973 84.2372 45.0398C84.4304 45.2784 84.58 45.5038 84.6861 45.7159H84.7713V41.3636H86.8338V53H84.8111V51.625H84.6861C84.58 51.8371 84.4266 52.0625 84.2259 52.3011C84.0251 52.536 83.7599 52.7367 83.4304 52.9034C83.1009 53.0701 82.6861 53.1534 82.1861 53.1534ZM82.7599 51.4659C83.1955 51.4659 83.5668 51.3485 83.8736 51.1136C84.1804 50.875 84.4134 50.5436 84.5724 50.1193C84.7315 49.6951 84.8111 49.2008 84.8111 48.6364C84.8111 48.072 84.7315 47.5814 84.5724 47.1648C84.4171 46.7481 84.1861 46.4242 83.8793 46.1932C83.5762 45.9621 83.2031 45.8466 82.7599 45.8466C82.3016 45.8466 81.919 45.9659 81.6122 46.2045C81.3054 46.4432 81.0743 46.7727 80.919 47.1932C80.7637 47.6136 80.6861 48.0947 80.6861 48.6364C80.6861 49.1818 80.7637 49.6686 80.919 50.0966C81.0781 50.5208 81.3111 50.8561 81.6179 51.1023C81.9285 51.3447 82.3092 51.4659 82.7599 51.4659ZM97.3523 44.2727V45.8636H92.3352V44.2727H97.3523ZM93.5739 42.1818H95.6307V50.375C95.6307 50.6515 95.6723 50.8636 95.7557 51.0114C95.8428 51.1553 95.9564 51.2538 96.0966 51.3068C96.2367 51.3598 96.392 51.3864 96.5625 51.3864C96.6913 51.3864 96.8087 51.3769 96.9148 51.358C97.0246 51.339 97.108 51.322 97.1648 51.3068L97.5114 52.9148C97.4015 52.9527 97.2443 52.9943 97.0398 53.0398C96.839 53.0852 96.5928 53.1117 96.3011 53.1193C95.786 53.1345 95.322 53.0568 94.9091 52.8864C94.4962 52.7121 94.1686 52.4432 93.9261 52.0795C93.6875 51.7159 93.5701 51.2614 93.5739 50.7159V42.1818ZM102.786 53.1705C101.933 53.1705 101.195 52.983 100.57 52.608C99.9446 52.233 99.4598 51.7083 99.1151 51.0341C98.7741 50.3598 98.6037 49.572 98.6037 48.6705C98.6037 47.7689 98.7741 46.9792 99.1151 46.3011C99.4598 45.6231 99.9446 45.0966 100.57 44.7216C101.195 44.3466 101.933 44.1591 102.786 44.1591C103.638 44.1591 104.376 44.3466 105.001 44.7216C105.626 45.0966 106.109 45.6231 106.45 46.3011C106.795 46.9792 106.967 47.7689 106.967 48.6705C106.967 49.572 106.795 50.3598 106.45 51.0341C106.109 51.7083 105.626 52.233 105.001 52.608C104.376 52.983 103.638 53.1705 102.786 53.1705ZM102.797 51.5227C103.259 51.5227 103.645 51.3958 103.956 51.142C104.267 50.8845 104.498 50.5398 104.649 50.108C104.804 49.6761 104.882 49.1951 104.882 48.6648C104.882 48.1307 104.804 47.6477 104.649 47.2159C104.498 46.7803 104.267 46.4337 103.956 46.1761C103.645 45.9186 103.259 45.7898 102.797 45.7898C102.323 45.7898 101.929 45.9186 101.615 46.1761C101.304 46.4337 101.071 46.7803 100.916 47.2159C100.765 47.6477 100.689 48.1307 100.689 48.6648C100.689 49.1951 100.765 49.6761 100.916 50.108C101.071 50.5398 101.304 50.8845 101.615 51.142C101.929 51.3958 102.323 51.5227 102.797 51.5227ZM116.489 53.1705C115.617 53.1705 114.869 52.9792 114.244 52.5966C113.623 52.214 113.144 51.6856 112.807 51.0114C112.473 50.3333 112.307 49.553 112.307 48.6705C112.307 47.7841 112.477 47.0019 112.818 46.3239C113.159 45.642 113.64 45.1117 114.261 44.733C114.886 44.3504 115.625 44.1591 116.477 44.1591C117.186 44.1591 117.813 44.2898 118.358 44.5511C118.907 44.8087 119.345 45.1742 119.67 45.6477C119.996 46.1174 120.182 46.6667 120.227 47.2955H118.261C118.182 46.875 117.992 46.5246 117.693 46.2443C117.398 45.9602 117.002 45.8182 116.506 45.8182C116.085 45.8182 115.716 45.9318 115.398 46.1591C115.08 46.3826 114.831 46.7045 114.653 47.125C114.479 47.5455 114.392 48.0492 114.392 48.6364C114.392 49.2311 114.479 49.7424 114.653 50.1705C114.828 50.5947 115.072 50.9223 115.386 51.1534C115.705 51.3807 116.078 51.4943 116.506 51.4943C116.809 51.4943 117.08 51.4375 117.318 51.3239C117.561 51.2064 117.763 51.0379 117.926 50.8182C118.089 50.5985 118.201 50.3314 118.261 50.017H120.227C120.178 50.6345 119.996 51.1818 119.682 51.6591C119.367 52.1326 118.939 52.5038 118.398 52.7727C117.856 53.0379 117.22 53.1705 116.489 53.1705ZM124.428 53.1761C123.875 53.1761 123.376 53.0777 122.933 52.8807C122.494 52.6799 122.145 52.3845 121.888 51.9943C121.634 51.6042 121.507 51.1231 121.507 50.5511C121.507 50.0587 121.598 49.6515 121.78 49.3295C121.962 49.0076 122.21 48.75 122.524 48.5568C122.839 48.3636 123.193 48.2178 123.587 48.1193C123.984 48.017 124.395 47.9432 124.82 47.8977C125.331 47.8447 125.746 47.7973 126.064 47.7557C126.382 47.7102 126.613 47.642 126.757 47.5511C126.905 47.4564 126.979 47.3106 126.979 47.1136V47.0795C126.979 46.6515 126.852 46.3201 126.598 46.0852C126.344 45.8504 125.979 45.733 125.501 45.733C124.998 45.733 124.598 45.8428 124.303 46.0625C124.011 46.2822 123.814 46.5417 123.712 46.8409L121.791 46.5682C121.943 46.0379 122.193 45.5947 122.541 45.2386C122.89 44.8788 123.316 44.6098 123.82 44.4318C124.323 44.25 124.88 44.1591 125.49 44.1591C125.911 44.1591 126.329 44.2083 126.746 44.3068C127.162 44.4053 127.543 44.5682 127.888 44.7955C128.232 45.0189 128.509 45.3239 128.717 45.7102C128.929 46.0966 129.036 46.5795 129.036 47.1591V53H127.058V51.8011H126.99C126.865 52.0436 126.689 52.2708 126.462 52.483C126.238 52.6913 125.956 52.8598 125.615 52.9886C125.278 53.1136 124.882 53.1761 124.428 53.1761ZM124.962 51.6648C125.375 51.6648 125.732 51.5833 126.036 51.4205C126.339 51.2538 126.571 51.0341 126.734 50.7614C126.901 50.4886 126.984 50.1913 126.984 49.8693V48.8409C126.92 48.8939 126.81 48.9432 126.655 48.9886C126.503 49.0341 126.333 49.0739 126.143 49.108C125.954 49.142 125.767 49.1723 125.581 49.1989C125.395 49.2254 125.234 49.2481 125.098 49.267C124.791 49.3087 124.517 49.3769 124.274 49.4716C124.032 49.5663 123.84 49.6989 123.7 49.8693C123.56 50.036 123.49 50.2519 123.49 50.517C123.49 50.8958 123.628 51.1818 123.905 51.375C124.181 51.5682 124.534 51.6648 124.962 51.6648ZM131.104 53V44.2727H133.098V45.7273H133.189C133.348 45.2235 133.621 44.8352 134.007 44.5625C134.397 44.286 134.842 44.1477 135.342 44.1477C135.456 44.1477 135.583 44.1534 135.723 44.1648C135.867 44.1723 135.986 44.1856 136.081 44.2045V46.0966C135.994 46.0663 135.856 46.0398 135.666 46.017C135.481 45.9905 135.301 45.9773 135.126 45.9773C134.751 45.9773 134.414 46.0587 134.115 46.2216C133.82 46.3807 133.587 46.6023 133.416 46.8864C133.246 47.1705 133.161 47.4981 133.161 47.8693V53H131.104ZM142.274 44.2727V45.8636H137.257V44.2727H142.274ZM138.496 42.1818H140.553V50.375C140.553 50.6515 140.594 50.8636 140.678 51.0114C140.765 51.1553 140.878 51.2538 141.018 51.3068C141.159 51.3598 141.314 51.3864 141.484 51.3864C141.613 51.3864 141.731 51.3769 141.837 51.358C141.946 51.339 142.03 51.322 142.087 51.3068L142.433 52.9148C142.323 52.9527 142.166 52.9943 141.962 53.0398C141.761 53.0852 141.515 53.1117 141.223 53.1193C140.708 53.1345 140.244 53.0568 139.831 52.8864C139.418 52.7121 139.09 52.4432 138.848 52.0795C138.609 51.7159 138.492 51.2614 138.496 50.7159V42.1818Z" fill="white"/>
<rect x="20" y="94" width="160" height="54" rx="10" fill="#FF7A18"/>
<path d="M59.142 127H56.892L60.9886 115.364H63.5909L67.6932 127H65.4432L62.3352 117.75H62.2443L59.142 127ZM59.2159 122.438H65.3523V124.131H59.2159V122.438ZM72.108 127.153C71.4223 127.153 70.8087 126.977 70.267 126.625C69.7254 126.273 69.2973 125.761 68.983 125.091C68.6686 124.42 68.5114 123.606 68.5114 122.648C68.5114 121.678 68.6705 120.86 68.9886 120.193C69.3106 119.523 69.7443 119.017 70.2898 118.676C70.8352 118.331 71.4432 118.159 72.1136 118.159C72.625 118.159 73.0455 118.246 73.375 118.42C73.7045 118.591 73.9659 118.797 74.1591 119.04C74.3523 119.278 74.5019 119.504 74.608 119.716H74.6932V115.364H76.7557V127H74.733V125.625H74.608C74.5019 125.837 74.3485 126.062 74.1477 126.301C73.947 126.536 73.6818 126.737 73.3523 126.903C73.0227 127.07 72.608 127.153 72.108 127.153ZM72.6818 125.466C73.1174 125.466 73.4886 125.348 73.7955 125.114C74.1023 124.875 74.3352 124.544 74.4943 124.119C74.6534 123.695 74.733 123.201 74.733 122.636C74.733 122.072 74.6534 121.581 74.4943 121.165C74.339 120.748 74.108 120.424 73.8011 120.193C73.4981 119.962 73.125 119.847 72.6818 119.847C72.2235 119.847 71.8409 119.966 71.5341 120.205C71.2273 120.443 70.9962 120.773 70.8409 121.193C70.6856 121.614 70.608 122.095 70.608 122.636C70.608 123.182 70.6856 123.669 70.8409 124.097C71 124.521 71.233 124.856 71.5398 125.102C71.8504 125.345 72.2311 125.466 72.6818 125.466ZM82.1861 127.153C81.5005 127.153 80.8868 126.977 80.3452 126.625C79.8035 126.273 79.3755 125.761 79.0611 125.091C78.7467 124.42 78.5895 123.606 78.5895 122.648C78.5895 121.678 78.7486 120.86 79.0668 120.193C79.3887 119.523 79.8224 119.017 80.3679 118.676C80.9134 118.331 81.5213 118.159 82.1918 118.159C82.7031 118.159 83.1236 118.246 83.4531 118.42C83.7827 118.591 84.044 118.797 84.2372 119.04C84.4304 119.278 84.58 119.504 84.6861 119.716H84.7713V115.364H86.8338V127H84.8111V125.625H84.6861C84.58 125.837 84.4266 126.062 84.2259 126.301C84.0251 126.536 83.7599 126.737 83.4304 126.903C83.1009 127.07 82.6861 127.153 82.1861 127.153ZM82.7599 125.466C83.1955 125.466 83.5668 125.348 83.8736 125.114C84.1804 124.875 84.4134 124.544 84.5724 124.119C84.7315 123.695 84.8111 123.201 84.8111 122.636C84.8111 122.072 84.7315 121.581 84.5724 121.165C84.4171 120.748 84.1861 120.424 83.8793 120.193C83.5762 119.962 83.2031 119.847 82.7599 119.847C82.3016 119.847 81.919 119.966 81.6122 120.205C81.3054 120.443 81.0743 120.773 80.919 121.193C80.7637 121.614 80.6861 122.095 80.6861 122.636C80.6861 123.182 80.7637 123.669 80.919 124.097C81.0781 124.521 81.3111 124.856 81.6179 125.102C81.9285 125.345 82.3092 125.466 82.7599 125.466ZM97.3523 118.273V119.864H92.3352V118.273H97.3523ZM93.5739 116.182H95.6307V124.375C95.6307 124.652 95.6723 124.864 95.7557 125.011C95.8428 125.155 95.9564 125.254 96.0966 125.307C96.2367 125.36 96.392 125.386 96.5625 125.386C96.6913 125.386 96.8087 125.377 96.9148 125.358C97.0246 125.339 97.108 125.322 97.1648 125.307L97.5114 126.915C97.4015 126.953 97.2443 126.994 97.0398 127.04C96.839 127.085 96.5928 127.112 96.3011 127.119C95.786 127.134 95.322 127.057 94.9091 126.886C94.4962 126.712 94.1686 126.443 93.9261 126.08C93.6875 125.716 93.5701 125.261 93.5739 124.716V116.182ZM102.786 127.17C101.933 127.17 101.195 126.983 100.57 126.608C99.9446 126.233 99.4598 125.708 99.1151 125.034C98.7741 124.36 98.6037 123.572 98.6037 122.67C98.6037 121.769 98.7741 120.979 99.1151 120.301C99.4598 119.623 99.9446 119.097 100.57 118.722C101.195 118.347 101.933 118.159 102.786 118.159C103.638 118.159 104.376 118.347 105.001 118.722C105.626 119.097 106.109 119.623 106.45 120.301C106.795 120.979 106.967 121.769 106.967 122.67C106.967 123.572 106.795 124.36 106.45 125.034C106.109 125.708 105.626 126.233 105.001 126.608C104.376 126.983 103.638 127.17 102.786 127.17ZM102.797 125.523C103.259 125.523 103.645 125.396 103.956 125.142C104.267 124.884 104.498 124.54 104.649 124.108C104.804 123.676 104.882 123.195 104.882 122.665C104.882 122.131 104.804 121.648 104.649 121.216C104.498 120.78 104.267 120.434 103.956 120.176C103.645 119.919 103.259 119.79 102.797 119.79C102.323 119.79 101.929 119.919 101.615 120.176C101.304 120.434 101.071 120.78 100.916 121.216C100.765 121.648 100.689 122.131 100.689 122.665C100.689 123.195 100.765 123.676 100.916 124.108C101.071 124.54 101.304 124.884 101.615 125.142C101.929 125.396 102.323 125.523 102.797 125.523ZM116.489 127.17C115.617 127.17 114.869 126.979 114.244 126.597C113.623 126.214 113.144 125.686 112.807 125.011C112.473 124.333 112.307 123.553 112.307 122.67C112.307 121.784 112.477 121.002 112.818 120.324C113.159 119.642 113.64 119.112 114.261 118.733C114.886 118.35 115.625 118.159 116.477 118.159C117.186 118.159 117.813 118.29 118.358 118.551C118.907 118.809 119.345 119.174 119.67 119.648C119.996 120.117 120.182 120.667 120.227 121.295H118.261C118.182 120.875 117.992 120.525 117.693 120.244C117.398 119.96 117.002 119.818 116.506 119.818C116.085 119.818 115.716 119.932 115.398 120.159C115.08 120.383 114.831 120.705 114.653 121.125C114.479 121.545 114.392 122.049 114.392 122.636C114.392 123.231 114.479 123.742 114.653 124.17C114.828 124.595 115.072 124.922 115.386 125.153C115.705 125.381 116.078 125.494 116.506 125.494C116.809 125.494 117.08 125.437 117.318 125.324C117.561 125.206 117.763 125.038 117.926 124.818C118.089 124.598 118.201 124.331 118.261 124.017H120.227C120.178 124.634 119.996 125.182 119.682 125.659C119.367 126.133 118.939 126.504 118.398 126.773C117.856 127.038 117.22 127.17 116.489 127.17ZM124.428 127.176C123.875 127.176 123.376 127.078 122.933 126.881C122.494 126.68 122.145 126.384 121.888 125.994C121.634 125.604 121.507 125.123 121.507 124.551C121.507 124.059 121.598 123.652 121.78 123.33C121.962 123.008 122.21 122.75 122.524 122.557C122.839 122.364 123.193 122.218 123.587 122.119C123.984 122.017 124.395 121.943 124.82 121.898C125.331 121.845 125.746 121.797 126.064 121.756C126.382 121.71 126.613 121.642 126.757 121.551C126.905 121.456 126.979 121.311 126.979 121.114V121.08C126.979 120.652 126.852 120.32 126.598 120.085C126.344 119.85 125.979 119.733 125.501 119.733C124.998 119.733 124.598 119.843 124.303 120.062C124.011 120.282 123.814 120.542 123.712 120.841L121.791 120.568C121.943 120.038 122.193 119.595 122.541 119.239C122.89 118.879 123.316 118.61 123.82 118.432C124.323 118.25 124.88 118.159 125.49 118.159C125.911 118.159 126.329 118.208 126.746 118.307C127.162 118.405 127.543 118.568 127.888 118.795C128.232 119.019 128.509 119.324 128.717 119.71C128.929 120.097 129.036 120.58 129.036 121.159V127H127.058V125.801H126.99C126.865 126.044 126.689 126.271 126.462 126.483C126.238 126.691 125.956 126.86 125.615 126.989C125.278 127.114 124.882 127.176 124.428 127.176ZM124.962 125.665C125.375 125.665 125.732 125.583 126.036 125.42C126.339 125.254 126.571 125.034 126.734 124.761C126.901 124.489 126.984 124.191 126.984 123.869V122.841C126.92 122.894 126.81 122.943 126.655 122.989C126.503 123.034 126.333 123.074 126.143 123.108C125.954 123.142 125.767 123.172 125.581 123.199C125.395 123.225 125.234 123.248 125.098 123.267C124.791 123.309 124.517 123.377 124.274 123.472C124.032 123.566 123.84 123.699 123.7 123.869C123.56 124.036 123.49 124.252 123.49 124.517C123.49 124.896 123.628 125.182 123.905 125.375C124.181 125.568 124.534 125.665 124.962 125.665ZM131.104 127V118.273H133.098V119.727H133.189C133.348 119.223 133.621 118.835 134.007 118.562C134.397 118.286 134.842 118.148 135.342 118.148C135.456 118.148 135.583 118.153 135.723 118.165C135.867 118.172 135.986 118.186 136.081 118.205V120.097C135.994 120.066 135.856 120.04 135.666 120.017C135.481 119.991 135.301 119.977 135.126 119.977C134.751 119.977 134.414 120.059 134.115 120.222C133.82 120.381 133.587 120.602 133.416 120.886C133.246 121.17 133.161 121.498 133.161 121.869V127H131.104ZM142.274 118.273V119.864H137.257V118.273H142.274ZM138.496 116.182H140.553V124.375C140.553 124.652 140.594 124.864 140.678 125.011C140.765 125.155 140.878 125.254 141.018 125.307C141.159 125.36 141.314 125.386 141.484 125.386C141.613 125.386 141.731 125.377 141.837 125.358C141.946 125.339 142.03 125.322 142.087 125.307L142.433 126.915C142.323 126.953 142.166 126.994 141.962 127.04C141.761 127.085 141.515 127.112 141.223 127.119C140.708 127.134 140.244 127.057 139.831 126.886C139.418 126.712 139.09 126.443 138.848 126.08C138.609 125.716 138.492 125.261 138.496 124.716V116.182Z" fill="white"/>
</svg>
