<svg width="200" height="180" viewBox="0 0 200 180" fill="none" xmlns="http://www.w3.org/2000/svg">
<rect x="0.5" y="0.5" width="199" height="179" rx="4.5" stroke="#8A38F5" stroke-dasharray="10 5"/>
<rect x="21" y="21" width="158" height="52" rx="9" stroke="#1E88E5" stroke-width="2"/>
<path d="M80.9716 44.5625C80.9186 44.0663 80.6951 43.6799 80.3011 43.4034C79.911 43.1269 79.4034 42.9886 78.7784 42.9886C78.339 42.9886 77.9621 43.0549 77.6477 43.1875C77.3333 43.3201 77.0928 43.5 76.9261 43.7273C76.7595 43.9545 76.6742 44.214 76.6705 44.5057C76.6705 44.7481 76.7254 44.9583 76.8352 45.1364C76.9489 45.3144 77.1023 45.4659 77.2955 45.5909C77.4886 45.7121 77.7027 45.8144 77.9375 45.8977C78.1723 45.9811 78.4091 46.0511 78.6477 46.108L79.7386 46.3807C80.178 46.483 80.6004 46.6212 81.0057 46.7955C81.4148 46.9697 81.7803 47.1894 82.1023 47.4545C82.428 47.7197 82.6856 48.0398 82.875 48.4148C83.0644 48.7898 83.1591 49.2292 83.1591 49.733C83.1591 50.4148 82.9848 51.0152 82.6364 51.5341C82.2879 52.0492 81.7841 52.4527 81.125 52.7443C80.4697 53.0322 79.6761 53.1761 78.7443 53.1761C77.839 53.1761 77.053 53.036 76.3864 52.7557C75.7235 52.4754 75.2045 52.0663 74.8295 51.5284C74.4583 50.9905 74.2576 50.3352 74.2273 49.5625H76.3011C76.3314 49.9678 76.4564 50.3049 76.6761 50.5739C76.8958 50.8428 77.1818 51.0436 77.5341 51.1761C77.8902 51.3087 78.2879 51.375 78.7273 51.375C79.1856 51.375 79.5871 51.3068 79.9318 51.1705C80.2803 51.0303 80.553 50.8371 80.75 50.5909C80.947 50.3409 81.0473 50.0492 81.0511 49.7159C81.0473 49.4129 80.9583 49.1629 80.7841 48.9659C80.6098 48.7652 80.3655 48.5985 80.0511 48.4659C79.7405 48.3295 79.3769 48.2083 78.9602 48.1023L77.6364 47.7614C76.678 47.5152 75.9205 47.142 75.3636 46.642C74.8106 46.1383 74.5341 45.4697 74.5341 44.6364C74.5341 43.9508 74.7197 43.3504 75.0909 42.8352C75.4659 42.3201 75.9754 41.9205 76.6193 41.6364C77.2633 41.3485 77.9924 41.2045 78.8068 41.2045C79.6326 41.2045 80.3561 41.3485 80.9773 41.6364C81.6023 41.9205 82.0928 42.3163 82.4489 42.8239C82.8049 43.3277 82.9886 43.9072 83 44.5625H80.9716ZM84.9474 53V44.2727H87.0043V53H84.9474ZM85.9815 43.0341C85.6558 43.0341 85.3755 42.9261 85.1406 42.7102C84.9058 42.4905 84.7884 42.2273 84.7884 41.9205C84.7884 41.6098 84.9058 41.3466 85.1406 41.1307C85.3755 40.911 85.6558 40.8011 85.9815 40.8011C86.3111 40.8011 86.5914 40.911 86.8224 41.1307C87.0573 41.3466 87.1747 41.6098 87.1747 41.9205C87.1747 42.2273 87.0573 42.4905 86.8224 42.7102C86.5914 42.9261 86.3111 43.0341 85.9815 43.0341ZM92.9148 56.4545C92.1761 56.4545 91.5417 56.3542 91.0114 56.1534C90.4811 55.9564 90.0549 55.6913 89.733 55.358C89.411 55.0246 89.1875 54.6553 89.0625 54.25L90.9148 53.8011C90.9981 53.9716 91.1193 54.1402 91.2784 54.3068C91.4375 54.4773 91.6515 54.6174 91.9205 54.7273C92.1932 54.8409 92.536 54.8977 92.9489 54.8977C93.5322 54.8977 94.0152 54.7557 94.3977 54.4716C94.7803 54.1913 94.9716 53.7292 94.9716 53.0852V51.4318H94.8693C94.7633 51.6439 94.608 51.8617 94.4034 52.0852C94.2027 52.3087 93.9356 52.4962 93.6023 52.6477C93.2727 52.7992 92.858 52.875 92.358 52.875C91.6875 52.875 91.0795 52.7178 90.5341 52.4034C89.9924 52.0852 89.5606 51.6117 89.2386 50.983C88.9205 50.3504 88.7614 49.5587 88.7614 48.608C88.7614 47.6496 88.9205 46.8409 89.2386 46.1818C89.5606 45.5189 89.9943 45.017 90.5398 44.6761C91.0852 44.3314 91.6932 44.1591 92.3636 44.1591C92.875 44.1591 93.2955 44.2462 93.625 44.4205C93.9583 44.5909 94.2235 44.7973 94.4205 45.0398C94.6174 45.2784 94.767 45.5038 94.8693 45.7159H94.983V44.2727H97.0114V53.142C97.0114 53.8883 96.8333 54.5057 96.4773 54.9943C96.1212 55.483 95.6345 55.8485 95.017 56.0909C94.3996 56.3333 93.6989 56.4545 92.9148 56.4545ZM92.9318 51.2614C93.3674 51.2614 93.7386 51.1553 94.0455 50.9432C94.3523 50.7311 94.5852 50.4261 94.7443 50.0284C94.9034 49.6307 94.983 49.1534 94.983 48.5966C94.983 48.0473 94.9034 47.5663 94.7443 47.1534C94.589 46.7405 94.358 46.4205 94.0511 46.1932C93.7481 45.9621 93.375 45.8466 92.9318 45.8466C92.4735 45.8466 92.0909 45.9659 91.7841 46.2045C91.4773 46.4432 91.2462 46.7708 91.0909 47.1875C90.9356 47.6004 90.858 48.0701 90.858 48.5966C90.858 49.1307 90.9356 49.5985 91.0909 50C91.25 50.3977 91.483 50.7083 91.7898 50.9318C92.1004 51.1515 92.4811 51.2614 92.9318 51.2614ZM101.176 47.8864V53H99.1193V44.2727H101.085V45.7557H101.188C101.388 45.267 101.708 44.8788 102.148 44.5909C102.591 44.303 103.138 44.1591 103.79 44.1591C104.392 44.1591 104.917 44.2879 105.364 44.5455C105.814 44.803 106.163 45.1761 106.409 45.6648C106.659 46.1534 106.782 46.7462 106.778 47.4432V53H104.722V47.7614C104.722 47.178 104.57 46.7216 104.267 46.392C103.968 46.0625 103.553 45.8977 103.023 45.8977C102.663 45.8977 102.343 45.9773 102.062 46.1364C101.786 46.2917 101.568 46.517 101.409 46.8125C101.254 47.108 101.176 47.4659 101.176 47.8864ZM115.037 41.3636V53H112.929V41.3636H115.037ZM119.286 47.8864V53H117.229V44.2727H119.195V45.7557H119.297C119.498 45.267 119.818 44.8788 120.257 44.5909C120.7 44.303 121.248 44.1591 121.899 44.1591C122.501 44.1591 123.026 44.2879 123.473 44.5455C123.924 44.803 124.272 45.1761 124.518 45.6648C124.768 46.1534 124.892 46.7462 124.888 47.4432V53H122.831V47.7614C122.831 47.178 122.679 46.7216 122.376 46.392C122.077 46.0625 121.662 45.8977 121.132 45.8977C120.772 45.8977 120.452 45.9773 120.172 46.1364C119.895 46.2917 119.678 46.517 119.518 46.8125C119.363 47.108 119.286 47.4659 119.286 47.8864Z" fill="#1E88E5"/>
<rect x="21" y="91" width="158" height="52" rx="9" fill="#E3F2FD"/>
<rect x="21" y="91" width="158" height="52" rx="9" stroke="#1E88E5" stroke-width="2"/>
<path d="M80.9716 114.562C80.9186 114.066 80.6951 113.68 80.3011 113.403C79.911 113.127 79.4034 112.989 78.7784 112.989C78.339 112.989 77.9621 113.055 77.6477 113.188C77.3333 113.32 77.0928 113.5 76.9261 113.727C76.7595 113.955 76.6742 114.214 76.6705 114.506C76.6705 114.748 76.7254 114.958 76.8352 115.136C76.9489 115.314 77.1023 115.466 77.2955 115.591C77.4886 115.712 77.7027 115.814 77.9375 115.898C78.1723 115.981 78.4091 116.051 78.6477 116.108L79.7386 116.381C80.178 116.483 80.6004 116.621 81.0057 116.795C81.4148 116.97 81.7803 117.189 82.1023 117.455C82.428 117.72 82.6856 118.04 82.875 118.415C83.0644 118.79 83.1591 119.229 83.1591 119.733C83.1591 120.415 82.9848 121.015 82.6364 121.534C82.2879 122.049 81.7841 122.453 81.125 122.744C80.4697 123.032 79.6761 123.176 78.7443 123.176C77.839 123.176 77.053 123.036 76.3864 122.756C75.7235 122.475 75.2045 122.066 74.8295 121.528C74.4583 120.991 74.2576 120.335 74.2273 119.562H76.3011C76.3314 119.968 76.4564 120.305 76.6761 120.574C76.8958 120.843 77.1818 121.044 77.5341 121.176C77.8902 121.309 78.2879 121.375 78.7273 121.375C79.1856 121.375 79.5871 121.307 79.9318 121.17C80.2803 121.03 80.553 120.837 80.75 120.591C80.947 120.341 81.0473 120.049 81.0511 119.716C81.0473 119.413 80.9583 119.163 80.7841 118.966C80.6098 118.765 80.3655 118.598 80.0511 118.466C79.7405 118.33 79.3769 118.208 78.9602 118.102L77.6364 117.761C76.678 117.515 75.9205 117.142 75.3636 116.642C74.8106 116.138 74.5341 115.47 74.5341 114.636C74.5341 113.951 74.7197 113.35 75.0909 112.835C75.4659 112.32 75.9754 111.92 76.6193 111.636C77.2633 111.348 77.9924 111.205 78.8068 111.205C79.6326 111.205 80.3561 111.348 80.9773 111.636C81.6023 111.92 82.0928 112.316 82.4489 112.824C82.8049 113.328 82.9886 113.907 83 114.562H80.9716ZM84.9474 123V114.273H87.0043V123H84.9474ZM85.9815 113.034C85.6558 113.034 85.3755 112.926 85.1406 112.71C84.9058 112.491 84.7884 112.227 84.7884 111.92C84.7884 111.61 84.9058 111.347 85.1406 111.131C85.3755 110.911 85.6558 110.801 85.9815 110.801C86.3111 110.801 86.5914 110.911 86.8224 111.131C87.0573 111.347 87.1747 111.61 87.1747 111.92C87.1747 112.227 87.0573 112.491 86.8224 112.71C86.5914 112.926 86.3111 113.034 85.9815 113.034ZM92.9148 126.455C92.1761 126.455 91.5417 126.354 91.0114 126.153C90.4811 125.956 90.0549 125.691 89.733 125.358C89.411 125.025 89.1875 124.655 89.0625 124.25L90.9148 123.801C90.9981 123.972 91.1193 124.14 91.2784 124.307C91.4375 124.477 91.6515 124.617 91.9205 124.727C92.1932 124.841 92.536 124.898 92.9489 124.898C93.5322 124.898 94.0152 124.756 94.3977 124.472C94.7803 124.191 94.9716 123.729 94.9716 123.085V121.432H94.8693C94.7633 121.644 94.608 121.862 94.4034 122.085C94.2027 122.309 93.9356 122.496 93.6023 122.648C93.2727 122.799 92.858 122.875 92.358 122.875C91.6875 122.875 91.0795 122.718 90.5341 122.403C89.9924 122.085 89.5606 121.612 89.2386 120.983C88.9205 120.35 88.7614 119.559 88.7614 118.608C88.7614 117.65 88.9205 116.841 89.2386 116.182C89.5606 115.519 89.9943 115.017 90.5398 114.676C91.0852 114.331 91.6932 114.159 92.3636 114.159C92.875 114.159 93.2955 114.246 93.625 114.42C93.9583 114.591 94.2235 114.797 94.4205 115.04C94.6174 115.278 94.767 115.504 94.8693 115.716H94.983V114.273H97.0114V123.142C97.0114 123.888 96.8333 124.506 96.4773 124.994C96.1212 125.483 95.6345 125.848 95.017 126.091C94.3996 126.333 93.6989 126.455 92.9148 126.455ZM92.9318 121.261C93.3674 121.261 93.7386 121.155 94.0455 120.943C94.3523 120.731 94.5852 120.426 94.7443 120.028C94.9034 119.631 94.983 119.153 94.983 118.597C94.983 118.047 94.9034 117.566 94.7443 117.153C94.589 116.741 94.358 116.42 94.0511 116.193C93.7481 115.962 93.375 115.847 92.9318 115.847C92.4735 115.847 92.0909 115.966 91.7841 116.205C91.4773 116.443 91.2462 116.771 91.0909 117.188C90.9356 117.6 90.858 118.07 90.858 118.597C90.858 119.131 90.9356 119.598 91.0909 120C91.25 120.398 91.483 120.708 91.7898 120.932C92.1004 121.152 92.4811 121.261 92.9318 121.261ZM101.176 117.886V123H99.1193V114.273H101.085V115.756H101.188C101.388 115.267 101.708 114.879 102.148 114.591C102.591 114.303 103.138 114.159 103.79 114.159C104.392 114.159 104.917 114.288 105.364 114.545C105.814 114.803 106.163 115.176 106.409 115.665C106.659 116.153 106.782 116.746 106.778 117.443V123H104.722V117.761C104.722 117.178 104.57 116.722 104.267 116.392C103.968 116.062 103.553 115.898 103.023 115.898C102.663 115.898 102.343 115.977 102.062 116.136C101.786 116.292 101.568 116.517 101.409 116.812C101.254 117.108 101.176 117.466 101.176 117.886ZM115.037 111.364V123H112.929V111.364H115.037ZM119.286 117.886V123H117.229V114.273H119.195V115.756H119.297C119.498 115.267 119.818 114.879 120.257 114.591C120.7 114.303 121.248 114.159 121.899 114.159C122.501 114.159 123.026 114.288 123.473 114.545C123.924 114.803 124.272 115.176 124.518 115.665C124.768 116.153 124.892 116.746 124.888 117.443V123H122.831V117.761C122.831 117.178 122.679 116.722 122.376 116.392C122.077 116.062 121.662 115.898 121.132 115.898C120.772 115.898 120.452 115.977 120.172 116.136C119.895 116.292 119.678 116.517 119.518 116.812C119.363 117.108 119.286 117.466 119.286 117.886Z" fill="#1E88E5"/>
</svg>
