<svg width="153" height="100" viewBox="0 0 153 100" fill="none" xmlns="http://www.w3.org/2000/svg">
<rect x="0.5" y="0.5" width="152" height="99" rx="4.5" stroke="#8A38F5" stroke-dasharray="10 5"/>
<path d="M20.6165 26.1406V24.8182H28.4964V26.1406H25.3196V35H23.7884V26.1406H20.6165ZM32.3022 35.1541C31.5498 35.1541 30.9019 34.9934 30.3583 34.6719C29.8181 34.3471 29.4004 33.8913 29.1055 33.3047C28.8138 32.7147 28.668 32.0237 28.668 31.2315C28.668 30.4493 28.8138 29.7599 29.1055 29.1634C29.4004 28.5668 29.8114 28.1011 30.3384 27.7663C30.8687 27.4316 31.4885 27.2642 32.1978 27.2642C32.6287 27.2642 33.0463 27.3355 33.4506 27.478C33.855 27.6205 34.2179 27.8442 34.5394 28.1491C34.8609 28.4541 35.1145 28.8501 35.3001 29.3374C35.4857 29.8213 35.5785 30.4096 35.5785 31.1023V31.6293H29.5082V30.5156H34.1218C34.1218 30.1245 34.0423 29.7782 33.8832 29.4766C33.7241 29.1716 33.5004 28.9313 33.212 28.7557C32.927 28.58 32.5922 28.4922 32.2077 28.4922C31.7901 28.4922 31.4255 28.5949 31.114 28.8004C30.8058 29.0026 30.5671 29.2678 30.3981 29.5959C30.2324 29.9207 30.1495 30.2737 30.1495 30.6548V31.5249C30.1495 32.0353 30.239 32.4695 30.418 32.8274C30.6003 33.1854 30.8538 33.4588 31.1786 33.6477C31.5034 33.8333 31.8829 33.9261 32.3171 33.9261C32.5988 33.9261 32.8557 33.8864 33.0877 33.8068C33.3197 33.724 33.5202 33.6013 33.6893 33.4389C33.8583 33.2765 33.9876 33.076 34.0771 32.8374L35.484 33.0909C35.3713 33.5052 35.1692 33.8681 34.8775 34.1797C34.5891 34.4879 34.2262 34.7282 33.7887 34.9006C33.3545 35.0696 32.859 35.1541 32.3022 35.1541ZM37.2278 35V27.3636H38.6646V28.5767H38.7441C38.8833 28.1657 39.1286 27.8426 39.4799 27.6072C39.8346 27.3686 40.2356 27.2493 40.6831 27.2493C40.7759 27.2493 40.8852 27.2526 41.0112 27.2592C41.1404 27.2659 41.2415 27.2741 41.3145 27.2841V28.706C41.2548 28.6894 41.1487 28.6712 40.9963 28.6513C40.8438 28.6281 40.6913 28.6165 40.5389 28.6165C40.1876 28.6165 39.8743 28.6911 39.5993 28.8402C39.3275 28.986 39.112 29.1899 38.9529 29.4517C38.7939 29.7102 38.7143 30.0052 38.7143 30.3366V35H37.2278ZM42.6009 35V27.3636H44.0277V28.6065H44.1222C44.2813 28.1856 44.5414 27.8575 44.9027 27.6222C45.264 27.3835 45.6965 27.2642 46.2003 27.2642C46.7107 27.2642 47.1383 27.3835 47.483 27.6222C47.831 27.8608 48.0878 28.1889 48.2536 28.6065H48.3331C48.5154 28.1989 48.8054 27.8741 49.2031 27.6321C49.6009 27.3868 50.0748 27.2642 50.625 27.2642C51.3177 27.2642 51.8828 27.4813 52.3203 27.9155C52.7611 28.3497 52.9815 29.0043 52.9815 29.8793V35H51.495V30.0185C51.495 29.5014 51.3542 29.1269 51.0724 28.8949C50.7907 28.6629 50.4543 28.5469 50.0632 28.5469C49.5793 28.5469 49.2031 28.696 48.9347 28.9943C48.6662 29.2893 48.532 29.6688 48.532 30.1328V35H47.0504V29.924C47.0504 29.5097 46.9212 29.1766 46.6626 28.9247C46.4041 28.6728 46.0677 28.5469 45.6534 28.5469C45.3717 28.5469 45.1115 28.6214 44.8729 28.7706C44.6375 28.9164 44.447 29.1203 44.3011 29.3821C44.1586 29.6439 44.0874 29.9472 44.0874 30.2919V35H42.6009ZM60.6962 29.228L59.3489 29.4666C59.2926 29.2943 59.2031 29.1302 59.0804 28.9744C58.9611 28.8187 58.7987 28.6911 58.5932 28.5916C58.3877 28.4922 58.1309 28.4425 57.8226 28.4425C57.4017 28.4425 57.0504 28.5369 56.7686 28.7259C56.4869 28.9115 56.3461 29.1518 56.3461 29.4467C56.3461 29.7019 56.4405 29.9074 56.6294 30.0632C56.8184 30.219 57.1233 30.3466 57.5442 30.446L58.7573 30.7244C59.4599 30.8868 59.9836 31.1371 60.3283 31.4751C60.673 31.8132 60.8453 32.2524 60.8453 32.7926C60.8453 33.25 60.7128 33.6577 60.4476 34.0156C60.1858 34.3703 59.8195 34.6487 59.3489 34.8509C58.8816 35.053 58.3397 35.1541 57.7232 35.1541C56.8681 35.1541 56.1704 34.9718 55.6301 34.6072C55.0899 34.2393 54.7585 33.7173 54.6358 33.0412L56.0726 32.8224C56.1621 33.197 56.3461 33.4804 56.6245 33.6726C56.9029 33.8615 57.2658 33.956 57.7132 33.956C58.2005 33.956 58.5899 33.8549 58.8816 33.6527C59.1732 33.4472 59.3191 33.197 59.3191 32.902C59.3191 32.6634 59.2296 32.4628 59.0506 32.3004C58.8749 32.138 58.6048 32.0154 58.2402 31.9325L56.9476 31.6491C56.235 31.4867 55.708 31.2282 55.3667 30.8736C55.0286 30.5189 54.8596 30.0698 54.8596 29.5263C54.8596 29.0755 54.9855 28.6811 55.2374 28.343C55.4893 28.005 55.8373 27.7415 56.2814 27.5526C56.7256 27.3603 57.2343 27.2642 57.8077 27.2642C58.633 27.2642 59.2826 27.4432 59.7566 27.8011C60.2305 28.1558 60.5437 28.6314 60.6962 29.228ZM69.4015 35.1541C68.6855 35.1541 68.0608 34.9901 67.5272 34.6619C66.9935 34.3338 66.5792 33.8748 66.2843 33.2848C65.9893 32.6948 65.8418 32.0054 65.8418 31.2166C65.8418 30.4245 65.9893 29.7318 66.2843 29.1385C66.5792 28.5452 66.9935 28.0845 67.5272 27.7564C68.0608 27.4283 68.6855 27.2642 69.4015 27.2642C70.1174 27.2642 70.7421 27.4283 71.2757 27.7564C71.8094 28.0845 72.2237 28.5452 72.5186 29.1385C72.8136 29.7318 72.9611 30.4245 72.9611 31.2166C72.9611 32.0054 72.8136 32.6948 72.5186 33.2848C72.2237 33.8748 71.8094 34.3338 71.2757 34.6619C70.7421 34.9901 70.1174 35.1541 69.4015 35.1541ZM69.4064 33.9062C69.8704 33.9062 70.2549 33.7836 70.5598 33.5384C70.8648 33.2931 71.0901 32.9666 71.236 32.5589C71.3851 32.1513 71.4597 31.7022 71.4597 31.2116C71.4597 30.7244 71.3851 30.277 71.236 29.8693C71.0901 29.4583 70.8648 29.1286 70.5598 28.88C70.2549 28.6314 69.8704 28.5071 69.4064 28.5071C68.9391 28.5071 68.5513 28.6314 68.2431 28.88C67.9382 29.1286 67.7111 29.4583 67.562 29.8693C67.4161 30.277 67.3432 30.7244 67.3432 31.2116C67.3432 31.7022 67.4161 32.1513 67.562 32.5589C67.7111 32.9666 67.9382 33.2931 68.2431 33.5384C68.5513 33.7836 68.9391 33.9062 69.4064 33.9062ZM78.2546 27.3636V28.5568H73.9393V27.3636H78.2546ZM75.1225 35V26.4787C75.1225 26.0014 75.2269 25.6053 75.4357 25.2905C75.6445 24.9723 75.9213 24.7353 76.266 24.5795C76.6107 24.4205 76.9852 24.3409 77.3896 24.3409C77.6879 24.3409 77.9431 24.3658 78.1552 24.4155C78.3673 24.4619 78.5247 24.505 78.6275 24.5447L78.2795 25.7479C78.2099 25.728 78.1204 25.7048 78.011 25.6783C77.9016 25.6484 77.7691 25.6335 77.6133 25.6335C77.252 25.6335 76.9935 25.723 76.8377 25.902C76.6853 26.081 76.609 26.3395 76.609 26.6776V35H75.1225ZM89.166 27.4929C89.113 27.0223 88.8942 26.6577 88.5098 26.3991C88.1253 26.1373 87.6414 26.0064 87.0581 26.0064C86.6404 26.0064 86.2792 26.0727 85.9743 26.2053C85.6693 26.3345 85.4324 26.5135 85.2633 26.7422C85.0976 26.9676 85.0147 27.2244 85.0147 27.5128C85.0147 27.7547 85.0711 27.9635 85.1838 28.1392C85.2998 28.3149 85.4506 28.4624 85.6362 28.5817C85.8251 28.6977 86.0273 28.7955 86.2427 28.875C86.4582 28.9512 86.6653 29.0142 86.8642 29.0639L87.8585 29.3224C88.1833 29.402 88.5164 29.5097 88.8578 29.6456C89.1992 29.7815 89.5157 29.9605 89.8074 30.1825C90.099 30.4046 90.3343 30.6797 90.5133 31.0078C90.6956 31.3359 90.7868 31.7287 90.7868 32.1861C90.7868 32.7628 90.6376 33.2749 90.3393 33.7223C90.0443 34.1697 89.6151 34.5227 89.0517 34.7812C88.4915 35.0398 87.8137 35.169 87.0183 35.169C86.256 35.169 85.5964 35.0481 85.0396 34.8061C84.4828 34.5642 84.0469 34.2211 83.7321 33.777C83.4172 33.3295 83.2432 32.7992 83.21 32.1861H84.7512C84.7811 32.554 84.9004 32.8606 85.1092 33.1058C85.3213 33.3478 85.5914 33.5284 85.9196 33.6477C86.251 33.7637 86.6139 33.8217 87.0083 33.8217C87.4425 33.8217 87.8287 33.7538 88.1667 33.6179C88.5081 33.4787 88.7766 33.2865 88.9721 33.0412C89.1677 32.7926 89.2654 32.5026 89.2654 32.1712C89.2654 31.8696 89.1793 31.6226 89.0069 31.4304C88.8379 31.2382 88.6075 31.0791 88.3159 30.9531C88.0275 30.8272 87.7011 30.7161 87.3365 30.62L86.1333 30.2919C85.318 30.0698 84.6717 29.7434 84.1944 29.3125C83.7205 28.8816 83.4835 28.3116 83.4835 27.6023C83.4835 27.0156 83.6426 26.5036 83.9608 26.0661C84.2789 25.6286 84.7098 25.2888 85.2534 25.0469C85.7969 24.8016 86.4101 24.679 87.0929 24.679C87.7823 24.679 88.3904 24.8 88.9174 25.0419C89.4477 25.2839 89.8654 25.617 90.1703 26.0412C90.4752 26.4621 90.6343 26.946 90.6475 27.4929H89.166ZM95.7944 35.1541C95.042 35.1541 94.3941 34.9934 93.8505 34.6719C93.3103 34.3471 92.8926 33.8913 92.5977 33.3047C92.306 32.7147 92.1602 32.0237 92.1602 31.2315C92.1602 30.4493 92.306 29.7599 92.5977 29.1634C92.8926 28.5668 93.3036 28.1011 93.8306 27.7663C94.3609 27.4316 94.9807 27.2642 95.69 27.2642C96.1209 27.2642 96.5385 27.3355 96.9428 27.478C97.3472 27.6205 97.7101 27.8442 98.0316 28.1491C98.3531 28.4541 98.6067 28.8501 98.7923 29.3374C98.9779 29.8213 99.0707 30.4096 99.0707 31.1023V31.6293H93.0004V30.5156H97.614C97.614 30.1245 97.5344 29.7782 97.3754 29.4766C97.2163 29.1716 96.9925 28.9313 96.7042 28.7557C96.4192 28.58 96.0844 28.4922 95.6999 28.4922C95.2823 28.4922 94.9177 28.5949 94.6062 28.8004C94.2979 29.0026 94.0593 29.2678 93.8903 29.5959C93.7246 29.9207 93.6417 30.2737 93.6417 30.6548V31.5249C93.6417 32.0353 93.7312 32.4695 93.9102 32.8274C94.0924 33.1854 94.346 33.4588 94.6708 33.6477C94.9956 33.8333 95.3751 33.9261 95.8093 33.9261C96.091 33.9261 96.3479 33.8864 96.5799 33.8068C96.8119 33.724 97.0124 33.6013 97.1815 33.4389C97.3505 33.2765 97.4798 33.076 97.5692 32.8374L98.9762 33.0909C98.8635 33.5052 98.6613 33.8681 98.3697 34.1797C98.0813 34.4879 97.7184 34.7282 97.2809 34.9006C96.8467 35.0696 96.3512 35.1541 95.7944 35.1541ZM100.72 35V27.3636H102.157V28.5767H102.236C102.376 28.1657 102.621 27.8426 102.972 27.6072C103.327 27.3686 103.728 27.2493 104.175 27.2493C104.268 27.2493 104.377 27.2526 104.503 27.2592C104.633 27.2659 104.734 27.2741 104.807 27.2841V28.706C104.747 28.6894 104.641 28.6712 104.488 28.6513C104.336 28.6281 104.184 28.6165 104.031 28.6165C103.68 28.6165 103.367 28.6911 103.091 28.8402C102.82 28.986 102.604 29.1899 102.445 29.4517C102.286 29.7102 102.206 30.0052 102.206 30.3366V35H100.72ZM112.858 27.3636L110.089 35H108.498L105.724 27.3636H107.32L109.254 33.2401H109.333L111.262 27.3636H112.858ZM114.255 35V27.3636H115.742V35H114.255ZM115.006 26.1854C114.747 26.1854 114.525 26.0992 114.34 25.9268C114.157 25.7512 114.066 25.5424 114.066 25.3004C114.066 25.0552 114.157 24.8464 114.34 24.674C114.525 24.4983 114.747 24.4105 115.006 24.4105C115.264 24.4105 115.485 24.4983 115.667 24.674C115.853 24.8464 115.945 25.0552 115.945 25.3004C115.945 25.5424 115.853 25.7512 115.667 25.9268C115.485 26.0992 115.264 26.1854 115.006 26.1854ZM120.958 35.1541C120.219 35.1541 119.583 34.9867 119.049 34.652C118.519 34.3139 118.111 33.8482 117.826 33.255C117.541 32.6617 117.398 31.9822 117.398 31.2166C117.398 30.4411 117.544 29.7566 117.836 29.1634C118.128 28.5668 118.539 28.1011 119.069 27.7663C119.599 27.4316 120.224 27.2642 120.943 27.2642C121.523 27.2642 122.04 27.3719 122.494 27.5874C122.948 27.7995 123.315 28.0978 123.593 28.4822C123.875 28.8667 124.042 29.3158 124.095 29.8295H122.648C122.569 29.4716 122.387 29.1634 122.102 28.9048C121.82 28.6463 121.442 28.517 120.968 28.517C120.554 28.517 120.191 28.6264 119.879 28.8452C119.571 29.0606 119.331 29.3688 119.158 29.7699C118.986 30.1676 118.9 30.6383 118.9 31.1818C118.9 31.7386 118.984 32.2192 119.153 32.6236C119.322 33.0279 119.561 33.3411 119.869 33.5632C120.181 33.7853 120.547 33.8963 120.968 33.8963C121.25 33.8963 121.505 33.8449 121.734 33.7422C121.966 33.6361 122.16 33.4853 122.315 33.2898C122.474 33.0942 122.585 32.8589 122.648 32.5838H124.095C124.042 33.0777 123.881 33.5185 123.613 33.9062C123.344 34.294 122.985 34.599 122.534 34.821C122.087 35.0431 121.561 35.1541 120.958 35.1541ZM128.976 35.1541C128.224 35.1541 127.576 34.9934 127.032 34.6719C126.492 34.3471 126.074 33.8913 125.779 33.3047C125.488 32.7147 125.342 32.0237 125.342 31.2315C125.342 30.4493 125.488 29.7599 125.779 29.1634C126.074 28.5668 126.485 28.1011 127.012 27.7663C127.543 27.4316 128.162 27.2642 128.872 27.2642C129.302 27.2642 129.72 27.3355 130.124 27.478C130.529 27.6205 130.892 27.8442 131.213 28.1491C131.535 28.4541 131.788 28.8501 131.974 29.3374C132.16 29.8213 132.252 30.4096 132.252 31.1023V31.6293H126.182V30.5156H130.796C130.796 30.1245 130.716 29.7782 130.557 29.4766C130.398 29.1716 130.174 28.9313 129.886 28.7557C129.601 28.58 129.266 28.4922 128.882 28.4922C128.464 28.4922 128.099 28.5949 127.788 28.8004C127.48 29.0026 127.241 29.2678 127.072 29.5959C126.906 29.9207 126.823 30.2737 126.823 30.6548V31.5249C126.823 32.0353 126.913 32.4695 127.092 32.8274C127.274 33.1854 127.528 33.4588 127.852 33.6477C128.177 33.8333 128.557 33.9261 128.991 33.9261C129.273 33.9261 129.53 33.8864 129.762 33.8068C129.994 33.724 130.194 33.6013 130.363 33.4389C130.532 33.2765 130.661 33.076 130.751 32.8374L132.158 33.0909C132.045 33.5052 131.843 33.8681 131.551 34.1797C131.263 34.4879 130.9 34.7282 130.463 34.9006C130.028 35.0696 129.533 35.1541 128.976 35.1541Z" fill="#64B5F6"/>
<path d="M20.6165 66.1406V64.8182H28.4964V66.1406H25.3196V75H23.7884V66.1406H20.6165ZM32.3022 75.1541C31.5498 75.1541 30.9019 74.9934 30.3583 74.6719C29.8181 74.3471 29.4004 73.8913 29.1055 73.3047C28.8138 72.7147 28.668 72.0237 28.668 71.2315C28.668 70.4493 28.8138 69.7599 29.1055 69.1634C29.4004 68.5668 29.8114 68.1011 30.3384 67.7663C30.8687 67.4316 31.4885 67.2642 32.1978 67.2642C32.6287 67.2642 33.0463 67.3355 33.4506 67.478C33.855 67.6205 34.2179 67.8442 34.5394 68.1491C34.8609 68.4541 35.1145 68.8501 35.3001 69.3374C35.4857 69.8213 35.5785 70.4096 35.5785 71.1023V71.6293H29.5082V70.5156H34.1218C34.1218 70.1245 34.0423 69.7782 33.8832 69.4766C33.7241 69.1716 33.5004 68.9313 33.212 68.7557C32.927 68.58 32.5922 68.4922 32.2077 68.4922C31.7901 68.4922 31.4255 68.5949 31.114 68.8004C30.8058 69.0026 30.5671 69.2678 30.3981 69.5959C30.2324 69.9207 30.1495 70.2737 30.1495 70.6548V71.5249C30.1495 72.0353 30.239 72.4695 30.418 72.8274C30.6003 73.1854 30.8538 73.4588 31.1786 73.6477C31.5034 73.8333 31.8829 73.9261 32.3171 73.9261C32.5988 73.9261 32.8557 73.8864 33.0877 73.8068C33.3197 73.724 33.5202 73.6013 33.6893 73.4389C33.8583 73.2765 33.9876 73.076 34.0771 72.8374L35.484 73.0909C35.3713 73.5052 35.1692 73.8681 34.8775 74.1797C34.5891 74.4879 34.2262 74.7282 33.7887 74.9006C33.3545 75.0696 32.859 75.1541 32.3022 75.1541ZM37.2278 75V67.3636H38.6646V68.5767H38.7441C38.8833 68.1657 39.1286 67.8426 39.4799 67.6072C39.8346 67.3686 40.2356 67.2493 40.6831 67.2493C40.7759 67.2493 40.8852 67.2526 41.0112 67.2592C41.1404 67.2659 41.2415 67.2741 41.3145 67.2841V68.706C41.2548 68.6894 41.1487 68.6712 40.9963 68.6513C40.8438 68.6281 40.6913 68.6165 40.5389 68.6165C40.1876 68.6165 39.8743 68.6911 39.5993 68.8402C39.3275 68.986 39.112 69.1899 38.9529 69.4517C38.7939 69.7102 38.7143 70.0052 38.7143 70.3366V75H37.2278ZM42.6009 75V67.3636H44.0277V68.6065H44.1222C44.2813 68.1856 44.5414 67.8575 44.9027 67.6222C45.264 67.3835 45.6965 67.2642 46.2003 67.2642C46.7107 67.2642 47.1383 67.3835 47.483 67.6222C47.831 67.8608 48.0878 68.1889 48.2536 68.6065H48.3331C48.5154 68.1989 48.8054 67.8741 49.2031 67.6321C49.6009 67.3868 50.0748 67.2642 50.625 67.2642C51.3177 67.2642 51.8828 67.4813 52.3203 67.9155C52.7611 68.3497 52.9815 69.0043 52.9815 69.8793V75H51.495V70.0185C51.495 69.5014 51.3542 69.1269 51.0724 68.8949C50.7907 68.6629 50.4543 68.5469 50.0632 68.5469C49.5793 68.5469 49.2031 68.696 48.9347 68.9943C48.6662 69.2893 48.532 69.6688 48.532 70.1328V75H47.0504V69.924C47.0504 69.5097 46.9212 69.1766 46.6626 68.9247C46.4041 68.6728 46.0677 68.5469 45.6534 68.5469C45.3717 68.5469 45.1115 68.6214 44.8729 68.7706C44.6375 68.9164 44.447 69.1203 44.3011 69.3821C44.1586 69.6439 44.0874 69.9472 44.0874 70.2919V75H42.6009ZM60.6962 69.228L59.3489 69.4666C59.2926 69.2943 59.2031 69.1302 59.0804 68.9744C58.9611 68.8187 58.7987 68.6911 58.5932 68.5916C58.3877 68.4922 58.1309 68.4425 57.8226 68.4425C57.4017 68.4425 57.0504 68.5369 56.7686 68.7259C56.4869 68.9115 56.3461 69.1518 56.3461 69.4467C56.3461 69.7019 56.4405 69.9074 56.6294 70.0632C56.8184 70.219 57.1233 70.3466 57.5442 70.446L58.7573 70.7244C59.4599 70.8868 59.9836 71.1371 60.3283 71.4751C60.673 71.8132 60.8453 72.2524 60.8453 72.7926C60.8453 73.25 60.7128 73.6577 60.4476 74.0156C60.1858 74.3703 59.8195 74.6487 59.3489 74.8509C58.8816 75.053 58.3397 75.1541 57.7232 75.1541C56.8681 75.1541 56.1704 74.9718 55.6301 74.6072C55.0899 74.2393 54.7585 73.7173 54.6358 73.0412L56.0726 72.8224C56.1621 73.197 56.3461 73.4804 56.6245 73.6726C56.9029 73.8615 57.2658 73.956 57.7132 73.956C58.2005 73.956 58.5899 73.8549 58.8816 73.6527C59.1732 73.4472 59.3191 73.197 59.3191 72.902C59.3191 72.6634 59.2296 72.4628 59.0506 72.3004C58.8749 72.138 58.6048 72.0154 58.2402 71.9325L56.9476 71.6491C56.235 71.4867 55.708 71.2282 55.3667 70.8736C55.0286 70.5189 54.8596 70.0698 54.8596 69.5263C54.8596 69.0755 54.9855 68.6811 55.2374 68.343C55.4893 68.005 55.8373 67.7415 56.2814 67.5526C56.7256 67.3603 57.2343 67.2642 57.8077 67.2642C58.633 67.2642 59.2826 67.4432 59.7566 67.8011C60.2305 68.1558 60.5437 68.6314 60.6962 69.228ZM69.4015 75.1541C68.6855 75.1541 68.0608 74.9901 67.5272 74.6619C66.9935 74.3338 66.5792 73.8748 66.2843 73.2848C65.9893 72.6948 65.8418 72.0054 65.8418 71.2166C65.8418 70.4245 65.9893 69.7318 66.2843 69.1385C66.5792 68.5452 66.9935 68.0845 67.5272 67.7564C68.0608 67.4283 68.6855 67.2642 69.4015 67.2642C70.1174 67.2642 70.7421 67.4283 71.2757 67.7564C71.8094 68.0845 72.2237 68.5452 72.5186 69.1385C72.8136 69.7318 72.9611 70.4245 72.9611 71.2166C72.9611 72.0054 72.8136 72.6948 72.5186 73.2848C72.2237 73.8748 71.8094 74.3338 71.2757 74.6619C70.7421 74.9901 70.1174 75.1541 69.4015 75.1541ZM69.4064 73.9062C69.8704 73.9062 70.2549 73.7836 70.5598 73.5384C70.8648 73.2931 71.0901 72.9666 71.236 72.5589C71.3851 72.1513 71.4597 71.7022 71.4597 71.2116C71.4597 70.7244 71.3851 70.277 71.236 69.8693C71.0901 69.4583 70.8648 69.1286 70.5598 68.88C70.2549 68.6314 69.8704 68.5071 69.4064 68.5071C68.9391 68.5071 68.5513 68.6314 68.2431 68.88C67.9382 69.1286 67.7111 69.4583 67.562 69.8693C67.4161 70.277 67.3432 70.7244 67.3432 71.2116C67.3432 71.7022 67.4161 72.1513 67.562 72.5589C67.7111 72.9666 67.9382 73.2931 68.2431 73.5384C68.5513 73.7836 68.9391 73.9062 69.4064 73.9062ZM78.2546 67.3636V68.5568H73.9393V67.3636H78.2546ZM75.1225 75V66.4787C75.1225 66.0014 75.2269 65.6053 75.4357 65.2905C75.6445 64.9723 75.9213 64.7353 76.266 64.5795C76.6107 64.4205 76.9852 64.3409 77.3896 64.3409C77.6879 64.3409 77.9431 64.3658 78.1552 64.4155C78.3673 64.4619 78.5247 64.505 78.6275 64.5447L78.2795 65.7479C78.2099 65.728 78.1204 65.7048 78.011 65.6783C77.9016 65.6484 77.7691 65.6335 77.6133 65.6335C77.252 65.6335 76.9935 65.723 76.8377 65.902C76.6853 66.081 76.609 66.3395 76.609 66.6776V75H75.1225ZM89.166 67.4929C89.113 67.0223 88.8942 66.6577 88.5098 66.3991C88.1253 66.1373 87.6414 66.0064 87.0581 66.0064C86.6404 66.0064 86.2792 66.0727 85.9743 66.2053C85.6693 66.3345 85.4324 66.5135 85.2633 66.7422C85.0976 66.9676 85.0147 67.2244 85.0147 67.5128C85.0147 67.7547 85.0711 67.9635 85.1838 68.1392C85.2998 68.3149 85.4506 68.4624 85.6362 68.5817C85.8251 68.6977 86.0273 68.7955 86.2427 68.875C86.4582 68.9512 86.6653 69.0142 86.8642 69.0639L87.8585 69.3224C88.1833 69.402 88.5164 69.5097 88.8578 69.6456C89.1992 69.7815 89.5157 69.9605 89.8074 70.1825C90.099 70.4046 90.3343 70.6797 90.5133 71.0078C90.6956 71.3359 90.7868 71.7287 90.7868 72.1861C90.7868 72.7628 90.6376 73.2749 90.3393 73.7223C90.0443 74.1697 89.6151 74.5227 89.0517 74.7812C88.4915 75.0398 87.8137 75.169 87.0183 75.169C86.256 75.169 85.5964 75.0481 85.0396 74.8061C84.4828 74.5642 84.0469 74.2211 83.7321 73.777C83.4172 73.3295 83.2432 72.7992 83.21 72.1861H84.7512C84.7811 72.554 84.9004 72.8606 85.1092 73.1058C85.3213 73.3478 85.5914 73.5284 85.9196 73.6477C86.251 73.7637 86.6139 73.8217 87.0083 73.8217C87.4425 73.8217 87.8287 73.7538 88.1667 73.6179C88.5081 73.4787 88.7766 73.2865 88.9721 73.0412C89.1677 72.7926 89.2654 72.5026 89.2654 72.1712C89.2654 71.8696 89.1793 71.6226 89.0069 71.4304C88.8379 71.2382 88.6075 71.0791 88.3159 70.9531C88.0275 70.8272 87.7011 70.7161 87.3365 70.62L86.1333 70.2919C85.318 70.0698 84.6717 69.7434 84.1944 69.3125C83.7205 68.8816 83.4835 68.3116 83.4835 67.6023C83.4835 67.0156 83.6426 66.5036 83.9608 66.0661C84.2789 65.6286 84.7098 65.2888 85.2534 65.0469C85.7969 64.8016 86.4101 64.679 87.0929 64.679C87.7823 64.679 88.3904 64.8 88.9174 65.0419C89.4477 65.2839 89.8654 65.617 90.1703 66.0412C90.4752 66.4621 90.6343 66.946 90.6475 67.4929H89.166ZM95.7944 75.1541C95.042 75.1541 94.3941 74.9934 93.8505 74.6719C93.3103 74.3471 92.8926 73.8913 92.5977 73.3047C92.306 72.7147 92.1602 72.0237 92.1602 71.2315C92.1602 70.4493 92.306 69.7599 92.5977 69.1634C92.8926 68.5668 93.3036 68.1011 93.8306 67.7663C94.3609 67.4316 94.9807 67.2642 95.69 67.2642C96.1209 67.2642 96.5385 67.3355 96.9428 67.478C97.3472 67.6205 97.7101 67.8442 98.0316 68.1491C98.3531 68.4541 98.6067 68.8501 98.7923 69.3374C98.9779 69.8213 99.0707 70.4096 99.0707 71.1023V71.6293H93.0004V70.5156H97.614C97.614 70.1245 97.5344 69.7782 97.3754 69.4766C97.2163 69.1716 96.9925 68.9313 96.7042 68.7557C96.4192 68.58 96.0844 68.4922 95.6999 68.4922C95.2823 68.4922 94.9177 68.5949 94.6062 68.8004C94.2979 69.0026 94.0593 69.2678 93.8903 69.5959C93.7246 69.9207 93.6417 70.2737 93.6417 70.6548V71.5249C93.6417 72.0353 93.7312 72.4695 93.9102 72.8274C94.0924 73.1854 94.346 73.4588 94.6708 73.6477C94.9956 73.8333 95.3751 73.9261 95.8093 73.9261C96.091 73.9261 96.3479 73.8864 96.5799 73.8068C96.8119 73.724 97.0124 73.6013 97.1815 73.4389C97.3505 73.2765 97.4798 73.076 97.5692 72.8374L98.9762 73.0909C98.8635 73.5052 98.6613 73.8681 98.3697 74.1797C98.0813 74.4879 97.7184 74.7282 97.2809 74.9006C96.8467 75.0696 96.3512 75.1541 95.7944 75.1541ZM100.72 75V67.3636H102.157V68.5767H102.236C102.376 68.1657 102.621 67.8426 102.972 67.6072C103.327 67.3686 103.728 67.2493 104.175 67.2493C104.268 67.2493 104.377 67.2526 104.503 67.2592C104.633 67.2659 104.734 67.2741 104.807 67.2841V68.706C104.747 68.6894 104.641 68.6712 104.488 68.6513C104.336 68.6281 104.184 68.6165 104.031 68.6165C103.68 68.6165 103.367 68.6911 103.091 68.8402C102.82 68.986 102.604 69.1899 102.445 69.4517C102.286 69.7102 102.206 70.0052 102.206 70.3366V75H100.72ZM112.858 67.3636L110.089 75H108.498L105.724 67.3636H107.32L109.254 73.2401H109.333L111.262 67.3636H112.858ZM114.255 75V67.3636H115.742V75H114.255ZM115.006 66.1854C114.747 66.1854 114.525 66.0992 114.34 65.9268C114.157 65.7512 114.066 65.5424 114.066 65.3004C114.066 65.0552 114.157 64.8464 114.34 64.674C114.525 64.4983 114.747 64.4105 115.006 64.4105C115.264 64.4105 115.485 64.4983 115.667 64.674C115.853 64.8464 115.945 65.0552 115.945 65.3004C115.945 65.5424 115.853 65.7512 115.667 65.9268C115.485 66.0992 115.264 66.1854 115.006 66.1854ZM120.958 75.1541C120.219 75.1541 119.583 74.9867 119.049 74.652C118.519 74.3139 118.111 73.8482 117.826 73.255C117.541 72.6617 117.398 71.9822 117.398 71.2166C117.398 70.4411 117.544 69.7566 117.836 69.1634C118.128 68.5668 118.539 68.1011 119.069 67.7663C119.599 67.4316 120.224 67.2642 120.943 67.2642C121.523 67.2642 122.04 67.3719 122.494 67.5874C122.948 67.7995 123.315 68.0978 123.593 68.4822C123.875 68.8667 124.042 69.3158 124.095 69.8295H122.648C122.569 69.4716 122.387 69.1634 122.102 68.9048C121.82 68.6463 121.442 68.517 120.968 68.517C120.554 68.517 120.191 68.6264 119.879 68.8452C119.571 69.0606 119.331 69.3688 119.158 69.7699C118.986 70.1676 118.9 70.6383 118.9 71.1818C118.9 71.7386 118.984 72.2192 119.153 72.6236C119.322 73.0279 119.561 73.3411 119.869 73.5632C120.181 73.7853 120.547 73.8963 120.968 73.8963C121.25 73.8963 121.505 73.8449 121.734 73.7422C121.966 73.6361 122.16 73.4853 122.315 73.2898C122.474 73.0942 122.585 72.8589 122.648 72.5838H124.095C124.042 73.0777 123.881 73.5185 123.613 73.9062C123.344 74.294 122.985 74.599 122.534 74.821C122.087 75.0431 121.561 75.1541 120.958 75.1541ZM128.976 75.1541C128.224 75.1541 127.576 74.9934 127.032 74.6719C126.492 74.3471 126.074 73.8913 125.779 73.3047C125.488 72.7147 125.342 72.0237 125.342 71.2315C125.342 70.4493 125.488 69.7599 125.779 69.1634C126.074 68.5668 126.485 68.1011 127.012 67.7663C127.543 67.4316 128.162 67.2642 128.872 67.2642C129.302 67.2642 129.72 67.3355 130.124 67.478C130.529 67.6205 130.892 67.8442 131.213 68.1491C131.535 68.4541 131.788 68.8501 131.974 69.3374C132.16 69.8213 132.252 70.4096 132.252 71.1023V71.6293H126.182V70.5156H130.796C130.796 70.1245 130.716 69.7782 130.557 69.4766C130.398 69.1716 130.174 68.9313 129.886 68.7557C129.601 68.58 129.266 68.4922 128.882 68.4922C128.464 68.4922 128.099 68.5949 127.788 68.8004C127.48 69.0026 127.241 69.2678 127.072 69.5959C126.906 69.9207 126.823 70.2737 126.823 70.6548V71.5249C126.823 72.0353 126.913 72.4695 127.092 72.8274C127.274 73.1854 127.528 73.4588 127.852 73.6477C128.177 73.8333 128.557 73.9261 128.991 73.9261C129.273 73.9261 129.53 73.8864 129.762 73.8068C129.994 73.724 130.194 73.6013 130.363 73.4389C130.532 73.2765 130.661 73.076 130.751 72.8374L132.158 73.0909C132.045 73.5052 131.843 73.8681 131.551 74.1797C131.263 74.4879 130.9 74.7282 130.463 74.9006C130.028 75.0696 129.533 75.1541 128.976 75.1541Z" fill="#1E88E5"/>
<path d="M20 77.7841H132.909V78.7386H20V77.7841Z" fill="#1E88E5"/>
</svg>
