<svg width="922" height="302" viewBox="0 0 922 302" fill="none" xmlns="http://www.w3.org/2000/svg">
<path d="M1.70455 19.1761V13.0909H30.375V19.1761H19.6875V48H12.392V19.1761H1.70455ZM42.2216 32.8636V48H34.9602V13.0909H42.017V26.4375H42.3239C42.9148 24.892 43.8693 23.6818 45.1875 22.8068C46.5057 21.9205 48.1591 21.4773 50.1477 21.4773C51.9659 21.4773 53.5511 21.875 54.9034 22.6705C56.267 23.4545 57.3239 24.5852 58.0739 26.0625C58.8352 27.5284 59.2102 29.2841 59.1989 31.3295V48H51.9375V32.625C51.9489 31.0114 51.5398 29.7557 50.7102 28.858C49.892 27.9602 48.7443 27.5114 47.267 27.5114C46.2784 27.5114 45.4034 27.7216 44.642 28.142C43.892 28.5625 43.3011 29.1761 42.8693 29.983C42.4489 30.7784 42.233 31.7386 42.2216 32.8636ZM76.8452 48.5114C74.152 48.5114 71.8338 47.9659 69.8906 46.875C67.9588 45.7727 66.4702 44.2159 65.4247 42.2045C64.3793 40.1818 63.8565 37.7898 63.8565 35.0284C63.8565 32.3352 64.3793 29.9716 65.4247 27.9375C66.4702 25.9034 67.9418 24.3182 69.8395 23.1818C71.7486 22.0455 73.9872 21.4773 76.5554 21.4773C78.2827 21.4773 79.8906 21.7557 81.3793 22.3125C82.8793 22.858 84.1861 23.6818 85.2997 24.7841C86.4247 25.8864 87.2997 27.2727 87.9247 28.9432C88.5497 30.6023 88.8622 32.5455 88.8622 34.7727V36.767H66.7543V32.267H82.027C82.027 31.2216 81.7997 30.2955 81.3452 29.4886C80.8906 28.6818 80.2599 28.0511 79.4531 27.5966C78.6577 27.1307 77.7315 26.8977 76.6747 26.8977C75.5724 26.8977 74.5952 27.1534 73.7429 27.6648C72.902 28.1648 72.2429 28.8409 71.7656 29.6932C71.2884 30.5341 71.044 31.4716 71.0327 32.5057V36.7841C71.0327 38.0795 71.2713 39.1989 71.7486 40.142C72.2372 41.0852 72.9247 41.8125 73.8111 42.3239C74.6974 42.8352 75.7486 43.0909 76.9645 43.0909C77.7713 43.0909 78.5099 42.9773 79.1804 42.75C79.8509 42.5227 80.4247 42.1818 80.902 41.7273C81.3793 41.2727 81.7429 40.7159 81.9929 40.0568L88.7088 40.5C88.3679 42.1136 87.669 43.5227 86.6122 44.7273C85.5668 45.9205 84.2145 46.8523 82.5554 47.5227C80.9077 48.1818 79.0043 48.5114 76.8452 48.5114ZM104.847 48V13.0909H112.227V27.4943H127.21V13.0909H134.574V48H127.21V33.5795H112.227V48H104.847ZM152.455 48.5114C149.761 48.5114 147.443 47.9659 145.5 46.875C143.568 45.7727 142.08 44.2159 141.034 42.2045C139.989 40.1818 139.466 37.7898 139.466 35.0284C139.466 32.3352 139.989 29.9716 141.034 27.9375C142.08 25.9034 143.551 24.3182 145.449 23.1818C147.358 22.0455 149.597 21.4773 152.165 21.4773C153.892 21.4773 155.5 21.7557 156.989 22.3125C158.489 22.858 159.795 23.6818 160.909 24.7841C162.034 25.8864 162.909 27.2727 163.534 28.9432C164.159 30.6023 164.472 32.5455 164.472 34.7727V36.767H142.364V32.267H157.636C157.636 31.2216 157.409 30.2955 156.955 29.4886C156.5 28.6818 155.869 28.0511 155.062 27.5966C154.267 27.1307 153.341 26.8977 152.284 26.8977C151.182 26.8977 150.205 27.1534 149.352 27.6648C148.511 28.1648 147.852 28.8409 147.375 29.6932C146.898 30.5341 146.653 31.4716 146.642 32.5057V36.7841C146.642 38.0795 146.881 39.1989 147.358 40.142C147.847 41.0852 148.534 41.8125 149.42 42.3239C150.307 42.8352 151.358 43.0909 152.574 43.0909C153.381 43.0909 154.119 42.9773 154.79 42.75C155.46 42.5227 156.034 42.1818 156.511 41.7273C156.989 41.2727 157.352 40.7159 157.602 40.0568L164.318 40.5C163.977 42.1136 163.278 43.5227 162.222 44.7273C161.176 45.9205 159.824 46.8523 158.165 47.5227C156.517 48.1818 154.614 48.5114 152.455 48.5114ZM176.676 48.4943C175.006 48.4943 173.517 48.2045 172.21 47.625C170.903 47.0341 169.869 46.1648 169.108 45.017C168.358 43.858 167.983 42.4148 167.983 40.6875C167.983 39.233 168.25 38.0114 168.784 37.0227C169.318 36.0341 170.045 35.2386 170.966 34.6364C171.886 34.0341 172.932 33.5795 174.102 33.2727C175.284 32.9659 176.523 32.75 177.818 32.625C179.341 32.4659 180.568 32.3182 181.5 32.1818C182.432 32.0341 183.108 31.8182 183.528 31.5341C183.949 31.25 184.159 30.8295 184.159 30.2727V30.1705C184.159 29.0909 183.818 28.2557 183.136 27.6648C182.466 27.0739 181.511 26.7784 180.273 26.7784C178.966 26.7784 177.926 27.0682 177.153 27.6477C176.381 28.2159 175.869 28.9318 175.619 29.7955L168.903 29.25C169.244 27.6591 169.915 26.2841 170.915 25.125C171.915 23.9545 173.205 23.0568 174.784 22.4318C176.375 21.7955 178.216 21.4773 180.307 21.4773C181.761 21.4773 183.153 21.6477 184.483 21.9886C185.824 22.3295 187.011 22.858 188.045 23.5739C189.091 24.2898 189.915 25.2102 190.517 26.3352C191.119 27.4489 191.42 28.7841 191.42 30.3409V48H184.534V44.3693H184.33C183.909 45.1875 183.347 45.9091 182.642 46.5341C181.938 47.1477 181.091 47.6307 180.102 47.983C179.114 48.3239 177.972 48.4943 176.676 48.4943ZM178.756 43.483C179.824 43.483 180.767 43.2727 181.585 42.8523C182.403 42.4205 183.045 41.8409 183.511 41.1136C183.977 40.3864 184.21 39.5625 184.21 38.642V35.8636C183.983 36.0114 183.67 36.1477 183.273 36.2727C182.886 36.3864 182.449 36.4943 181.96 36.5966C181.472 36.6875 180.983 36.7727 180.494 36.8523C180.006 36.9205 179.562 36.983 179.165 37.0398C178.313 37.1648 177.568 37.3636 176.932 37.6364C176.295 37.9091 175.801 38.2784 175.449 38.7443C175.097 39.1989 174.92 39.767 174.92 40.4489C174.92 41.4375 175.278 42.1932 175.994 42.7159C176.722 43.2273 177.642 43.483 178.756 43.483ZM197.054 48V21.8182H204.094V26.3864H204.366C204.844 24.7614 205.645 23.5341 206.77 22.7045C207.895 21.8636 209.19 21.4432 210.656 21.4432C211.02 21.4432 211.412 21.4659 211.832 21.5114C212.253 21.5568 212.622 21.6193 212.94 21.6989V28.142C212.599 28.0398 212.128 27.9489 211.526 27.8693C210.923 27.7898 210.372 27.75 209.872 27.75C208.804 27.75 207.849 27.983 207.009 28.4489C206.179 28.9034 205.52 29.5398 205.031 30.358C204.554 31.1761 204.315 32.1193 204.315 33.1875V48H197.054ZM231.933 21.8182V27.2727H216.166V21.8182H231.933ZM219.746 15.5455H227.007V39.9545C227.007 40.625 227.109 41.1477 227.314 41.5227C227.518 41.8864 227.803 42.142 228.166 42.2898C228.541 42.4375 228.973 42.5114 229.462 42.5114C229.803 42.5114 230.143 42.483 230.484 42.4261C230.825 42.358 231.087 42.3068 231.268 42.2727L232.411 47.6761C232.047 47.7898 231.536 47.9205 230.876 48.0682C230.217 48.2273 229.416 48.3239 228.473 48.358C226.723 48.4261 225.189 48.1932 223.871 47.6591C222.564 47.125 221.547 46.2955 220.82 45.1705C220.092 44.0455 219.734 42.625 219.746 40.9091V15.5455ZM259.602 48.5114C256.955 48.5114 254.665 47.9489 252.733 46.8239C250.813 45.6875 249.33 44.108 248.284 42.0852C247.239 40.0511 246.716 37.6932 246.716 35.0114C246.716 32.3068 247.239 29.9432 248.284 27.9205C249.33 25.8864 250.813 24.3068 252.733 23.1818C254.665 22.0455 256.955 21.4773 259.602 21.4773C262.25 21.4773 264.534 22.0455 266.455 23.1818C268.386 24.3068 269.875 25.8864 270.92 27.9205C271.966 29.9432 272.489 32.3068 272.489 35.0114C272.489 37.6932 271.966 40.0511 270.92 42.0852C269.875 44.108 268.386 45.6875 266.455 46.8239C264.534 47.9489 262.25 48.5114 259.602 48.5114ZM259.636 42.8864C260.841 42.8864 261.847 42.5455 262.653 41.8636C263.46 41.1705 264.068 40.2273 264.477 39.0341C264.898 37.8409 265.108 36.483 265.108 34.9602C265.108 33.4375 264.898 32.0795 264.477 30.8864C264.068 29.6932 263.46 28.75 262.653 28.0568C261.847 27.3636 260.841 27.017 259.636 27.017C258.42 27.017 257.398 27.3636 256.568 28.0568C255.75 28.75 255.131 29.6932 254.71 30.8864C254.301 32.0795 254.097 33.4375 254.097 34.9602C254.097 36.483 254.301 37.8409 254.71 39.0341C255.131 40.2273 255.75 41.1705 256.568 41.8636C257.398 42.5455 258.42 42.8864 259.636 42.8864ZM291.29 21.8182V27.2727H275.131V21.8182H291.29ZM278.83 48V19.9261C278.83 18.0284 279.199 16.4545 279.938 15.2045C280.688 13.9545 281.71 13.017 283.006 12.392C284.301 11.767 285.773 11.4545 287.42 11.4545C288.534 11.4545 289.551 11.5398 290.472 11.7102C291.403 11.8807 292.097 12.0341 292.551 12.1705L291.256 17.625C290.972 17.5341 290.619 17.4489 290.199 17.3693C289.79 17.2898 289.369 17.25 288.938 17.25C287.869 17.25 287.125 17.5 286.705 18C286.284 18.4886 286.074 19.1761 286.074 20.0625V48H278.83ZM336.17 13.0909V48H329.795L314.608 26.0284H314.352V48H306.972V13.0909H313.449L328.517 35.0455H328.824V13.0909H336.17ZM342.132 48V21.8182H349.393V48H342.132ZM345.78 18.4432C344.7 18.4432 343.774 18.0852 343.001 17.3693C342.24 16.642 341.859 15.7727 341.859 14.7614C341.859 13.7614 342.24 12.9034 343.001 12.1875C343.774 11.4602 344.7 11.0966 345.78 11.0966C346.859 11.0966 347.78 11.4602 348.541 12.1875C349.314 12.9034 349.7 13.7614 349.7 14.7614C349.7 15.7727 349.314 16.642 348.541 17.3693C347.78 18.0852 346.859 18.4432 345.78 18.4432ZM367.006 58.3636C364.653 58.3636 362.636 58.0398 360.955 57.392C359.284 56.7557 357.955 55.8864 356.966 54.7841C355.977 53.6818 355.335 52.4432 355.04 51.0682L361.756 50.1648C361.96 50.6875 362.284 51.1761 362.727 51.6307C363.17 52.0852 363.756 52.4489 364.483 52.7216C365.222 53.0057 366.119 53.1477 367.176 53.1477C368.756 53.1477 370.057 52.7614 371.08 51.9886C372.114 51.2273 372.631 49.9489 372.631 48.1534V43.3636H372.324C372.006 44.0909 371.528 44.7784 370.892 45.4261C370.256 46.0739 369.438 46.6023 368.438 47.0114C367.438 47.4205 366.244 47.625 364.858 47.625C362.892 47.625 361.102 47.1705 359.489 46.2614C357.886 45.3409 356.608 43.9375 355.653 42.0511C354.71 40.1534 354.239 37.7557 354.239 34.858C354.239 31.892 354.722 29.4148 355.688 27.4261C356.653 25.4375 357.938 23.9489 359.54 22.9602C361.153 21.9716 362.92 21.4773 364.841 21.4773C366.307 21.4773 367.534 21.7273 368.523 22.2273C369.511 22.7159 370.307 23.3295 370.909 24.0682C371.523 24.7955 371.994 25.5114 372.324 26.2159H372.597V21.8182H379.807V48.2557C379.807 50.483 379.261 52.3466 378.17 53.8466C377.08 55.3466 375.568 56.4716 373.636 57.2216C371.716 57.983 369.506 58.3636 367.006 58.3636ZM367.159 42.1705C368.33 42.1705 369.318 41.8807 370.125 41.3011C370.943 40.7102 371.568 39.8693 372 38.7784C372.443 37.6761 372.665 36.358 372.665 34.8239C372.665 33.2898 372.449 31.9602 372.017 30.8352C371.585 29.6989 370.96 28.8182 370.142 28.1932C369.324 27.5682 368.33 27.2557 367.159 27.2557C365.966 27.2557 364.96 27.5795 364.142 28.2273C363.324 28.8636 362.705 29.75 362.284 30.8864C361.864 32.0227 361.653 33.3352 361.653 34.8239C361.653 36.3352 361.864 37.642 362.284 38.7443C362.716 39.8352 363.335 40.6818 364.142 41.2841C364.96 41.875 365.966 42.1705 367.159 42.1705ZM397.517 48.5114C394.824 48.5114 392.506 47.9659 390.562 46.875C388.631 45.7727 387.142 44.2159 386.097 42.2045C385.051 40.1818 384.528 37.7898 384.528 35.0284C384.528 32.3352 385.051 29.9716 386.097 27.9375C387.142 25.9034 388.614 24.3182 390.511 23.1818C392.42 22.0455 394.659 21.4773 397.227 21.4773C398.955 21.4773 400.563 21.7557 402.051 22.3125C403.551 22.858 404.858 23.6818 405.972 24.7841C407.097 25.8864 407.972 27.2727 408.597 28.9432C409.222 30.6023 409.534 32.5455 409.534 34.7727V36.767H387.426V32.267H402.699C402.699 31.2216 402.472 30.2955 402.017 29.4886C401.563 28.6818 400.932 28.0511 400.125 27.5966C399.33 27.1307 398.403 26.8977 397.347 26.8977C396.244 26.8977 395.267 27.1534 394.415 27.6648C393.574 28.1648 392.915 28.8409 392.438 29.6932C391.96 30.5341 391.716 31.4716 391.705 32.5057V36.7841C391.705 38.0795 391.943 39.1989 392.42 40.142C392.909 41.0852 393.597 41.8125 394.483 42.3239C395.369 42.8352 396.42 43.0909 397.636 43.0909C398.443 43.0909 399.182 42.9773 399.852 42.75C400.523 42.5227 401.097 42.1818 401.574 41.7273C402.051 41.2727 402.415 40.7159 402.665 40.0568L409.381 40.5C409.04 42.1136 408.341 43.5227 407.284 44.7273C406.239 45.9205 404.886 46.8523 403.227 47.5227C401.58 48.1818 399.676 48.5114 397.517 48.5114ZM414.273 48V21.8182H421.312V26.3864H421.585C422.063 24.7614 422.864 23.5341 423.989 22.7045C425.114 21.8636 426.409 21.4432 427.875 21.4432C428.239 21.4432 428.631 21.4659 429.051 21.5114C429.472 21.5568 429.841 21.6193 430.159 21.6989V28.142C429.818 28.0398 429.347 27.9489 428.744 27.8693C428.142 27.7898 427.591 27.75 427.091 27.75C426.023 27.75 425.068 27.983 424.227 28.4489C423.398 28.9034 422.739 29.5398 422.25 30.358C421.773 31.1761 421.534 32.1193 421.534 33.1875V48H414.273ZM433.913 48V21.8182H441.175V48H433.913ZM437.561 18.4432C436.482 18.4432 435.555 18.0852 434.783 17.3693C434.021 16.642 433.641 15.7727 433.641 14.7614C433.641 13.7614 434.021 12.9034 434.783 12.1875C435.555 11.4602 436.482 11.0966 437.561 11.0966C438.641 11.0966 439.561 11.4602 440.322 12.1875C441.095 12.9034 441.482 13.7614 441.482 14.7614C441.482 15.7727 441.095 16.642 440.322 17.3693C439.561 18.0852 438.641 18.4432 437.561 18.4432ZM454.457 48.4943C452.787 48.4943 451.298 48.2045 449.991 47.625C448.685 47.0341 447.651 46.1648 446.889 45.017C446.139 43.858 445.764 42.4148 445.764 40.6875C445.764 39.233 446.031 38.0114 446.565 37.0227C447.099 36.0341 447.827 35.2386 448.747 34.6364C449.668 34.0341 450.713 33.5795 451.884 33.2727C453.065 32.9659 454.304 32.75 455.599 32.625C457.122 32.4659 458.349 32.3182 459.281 32.1818C460.213 32.0341 460.889 31.8182 461.31 31.5341C461.73 31.25 461.94 30.8295 461.94 30.2727V30.1705C461.94 29.0909 461.599 28.2557 460.918 27.6648C460.247 27.0739 459.293 26.7784 458.054 26.7784C456.747 26.7784 455.707 27.0682 454.935 27.6477C454.162 28.2159 453.651 28.9318 453.401 29.7955L446.685 29.25C447.026 27.6591 447.696 26.2841 448.696 25.125C449.696 23.9545 450.986 23.0568 452.565 22.4318C454.156 21.7955 455.997 21.4773 458.088 21.4773C459.543 21.4773 460.935 21.6477 462.264 21.9886C463.605 22.3295 464.793 22.858 465.827 23.5739C466.872 24.2898 467.696 25.2102 468.298 26.3352C468.901 27.4489 469.202 28.7841 469.202 30.3409V48H462.315V44.3693H462.111C461.69 45.1875 461.128 45.9091 460.423 46.5341C459.719 47.1477 458.872 47.6307 457.884 47.983C456.895 48.3239 455.753 48.4943 454.457 48.4943ZM456.537 43.483C457.605 43.483 458.548 43.2727 459.366 42.8523C460.185 42.4205 460.827 41.8409 461.293 41.1136C461.759 40.3864 461.991 39.5625 461.991 38.642V35.8636C461.764 36.0114 461.452 36.1477 461.054 36.2727C460.668 36.3864 460.23 36.4943 459.741 36.5966C459.253 36.6875 458.764 36.7727 458.276 36.8523C457.787 36.9205 457.344 36.983 456.946 37.0398C456.094 37.1648 455.349 37.3636 454.713 37.6364C454.077 37.9091 453.582 38.2784 453.23 38.7443C452.878 39.1989 452.702 39.767 452.702 40.4489C452.702 41.4375 453.06 42.1932 453.776 42.7159C454.503 43.2273 455.423 43.483 456.537 43.483ZM482.097 32.8636V48H474.835V21.8182H481.756V26.4375H482.062C482.642 24.9148 483.614 23.7102 484.977 22.8239C486.341 21.9261 487.994 21.4773 489.938 21.4773C491.756 21.4773 493.341 21.875 494.693 22.6705C496.045 23.4659 497.097 24.6023 497.847 26.0795C498.597 27.5455 498.972 29.2955 498.972 31.3295V48H491.71V32.625C491.722 31.0227 491.313 29.7727 490.483 28.875C489.653 27.9659 488.511 27.5114 487.057 27.5114C486.08 27.5114 485.216 27.7216 484.466 28.142C483.727 28.5625 483.148 29.1761 482.727 29.983C482.318 30.7784 482.108 31.7386 482.097 32.8636ZM515.94 48V13.0909H523.321V27.4943H538.304V13.0909H545.668V48H538.304V33.5795H523.321V48H515.94ZM563.446 48.5114C560.798 48.5114 558.509 47.9489 556.577 46.8239C554.656 45.6875 553.173 44.108 552.128 42.0852C551.082 40.0511 550.56 37.6932 550.56 35.0114C550.56 32.3068 551.082 29.9432 552.128 27.9205C553.173 25.8864 554.656 24.3068 556.577 23.1818C558.509 22.0455 560.798 21.4773 563.446 21.4773C566.094 21.4773 568.378 22.0455 570.298 23.1818C572.23 24.3068 573.719 25.8864 574.764 27.9205C575.81 29.9432 576.332 32.3068 576.332 35.0114C576.332 37.6932 575.81 40.0511 574.764 42.0852C573.719 44.108 572.23 45.6875 570.298 46.8239C568.378 47.9489 566.094 48.5114 563.446 48.5114ZM563.48 42.8864C564.685 42.8864 565.69 42.5455 566.497 41.8636C567.304 41.1705 567.912 40.2273 568.321 39.0341C568.741 37.8409 568.952 36.483 568.952 34.9602C568.952 33.4375 568.741 32.0795 568.321 30.8864C567.912 29.6932 567.304 28.75 566.497 28.0568C565.69 27.3636 564.685 27.017 563.48 27.017C562.264 27.017 561.241 27.3636 560.412 28.0568C559.594 28.75 558.974 29.6932 558.554 30.8864C558.145 32.0795 557.94 33.4375 557.94 34.9602C557.94 36.483 558.145 37.8409 558.554 39.0341C558.974 40.2273 559.594 41.1705 560.412 41.8636C561.241 42.5455 562.264 42.8864 563.48 42.8864ZM581.054 48V21.8182H587.974V26.4375H588.281C588.827 24.9034 589.736 23.6932 591.009 22.8068C592.281 21.9205 593.804 21.4773 595.577 21.4773C597.372 21.4773 598.901 21.9261 600.162 22.8239C601.423 23.7102 602.264 24.9148 602.685 26.4375H602.957C603.491 24.9375 604.457 23.7386 605.855 22.8409C607.264 21.9318 608.929 21.4773 610.849 21.4773C613.293 21.4773 615.276 22.2557 616.798 23.8125C618.332 25.358 619.099 27.5511 619.099 30.392V48H611.855V31.8239C611.855 30.3693 611.469 29.2784 610.696 28.5511C609.923 27.8239 608.957 27.4602 607.798 27.4602C606.48 27.4602 605.452 27.8807 604.713 28.7216C603.974 29.5511 603.605 30.6477 603.605 32.0114V48H596.565V31.6705C596.565 30.3864 596.196 29.3636 595.457 28.6023C594.73 27.8409 593.77 27.4602 592.577 27.4602C591.77 27.4602 591.043 27.6648 590.395 28.0739C589.759 28.4716 589.253 29.0341 588.878 29.7614C588.503 30.4773 588.315 31.3182 588.315 32.2841V48H581.054ZM636.767 48.5114C634.074 48.5114 631.756 47.9659 629.812 46.875C627.881 45.7727 626.392 44.2159 625.347 42.2045C624.301 40.1818 623.778 37.7898 623.778 35.0284C623.778 32.3352 624.301 29.9716 625.347 27.9375C626.392 25.9034 627.864 24.3182 629.761 23.1818C631.67 22.0455 633.909 21.4773 636.477 21.4773C638.205 21.4773 639.813 21.7557 641.301 22.3125C642.801 22.858 644.108 23.6818 645.222 24.7841C646.347 25.8864 647.222 27.2727 647.847 28.9432C648.472 30.6023 648.784 32.5455 648.784 34.7727V36.767H626.676V32.267H641.949C641.949 31.2216 641.722 30.2955 641.267 29.4886C640.813 28.6818 640.182 28.0511 639.375 27.5966C638.58 27.1307 637.653 26.8977 636.597 26.8977C635.494 26.8977 634.517 27.1534 633.665 27.6648C632.824 28.1648 632.165 28.8409 631.688 29.6932C631.21 30.5341 630.966 31.4716 630.955 32.5057V36.7841C630.955 38.0795 631.193 39.1989 631.67 40.142C632.159 41.0852 632.847 41.8125 633.733 42.3239C634.619 42.8352 635.67 43.0909 636.886 43.0909C637.693 43.0909 638.432 42.9773 639.102 42.75C639.773 42.5227 640.347 42.1818 640.824 41.7273C641.301 41.2727 641.665 40.7159 641.915 40.0568L648.631 40.5C648.29 42.1136 647.591 43.5227 646.534 44.7273C645.489 45.9205 644.136 46.8523 642.477 47.5227C640.83 48.1818 638.926 48.5114 636.767 48.5114ZM33.8352 86.3125H26.3693C26.233 85.3466 25.9545 84.4886 25.5341 83.7386C25.1136 82.9773 24.5739 82.3295 23.9148 81.7955C23.2557 81.2614 22.4943 80.8523 21.6307 80.5682C20.7784 80.2841 19.8523 80.142 18.8523 80.142C17.0455 80.142 15.4716 80.5909 14.1307 81.4886C12.7898 82.375 11.75 83.6705 11.0114 85.375C10.2727 87.0682 9.90341 89.125 9.90341 91.5455C9.90341 94.0341 10.2727 96.125 11.0114 97.8182C11.7614 99.5114 12.8068 100.79 14.1477 101.653C15.4886 102.517 17.0398 102.949 18.8011 102.949C19.7898 102.949 20.7045 102.818 21.5455 102.557C22.3977 102.295 23.1534 101.915 23.8125 101.415C24.4716 100.903 25.017 100.284 25.4489 99.5568C25.892 98.8295 26.1989 98 26.3693 97.0682L33.8352 97.1023C33.642 98.7045 33.1591 100.25 32.3864 101.739C31.625 103.216 30.5966 104.54 29.3011 105.71C28.017 106.869 26.483 107.79 24.6989 108.472C22.9261 109.142 20.9205 109.477 18.6818 109.477C15.5682 109.477 12.7841 108.773 10.3295 107.364C7.88636 105.955 5.95455 103.915 4.53409 101.244C3.125 98.5739 2.42045 95.3409 2.42045 91.5455C2.42045 87.7386 3.13636 84.5 4.56818 81.8295C6 79.1591 7.94318 77.125 10.3977 75.7273C12.8523 74.3182 15.6136 73.6136 18.6818 73.6136C20.7045 73.6136 22.5795 73.8977 24.3068 74.4659C26.0455 75.0341 27.5852 75.8636 28.9261 76.9545C30.267 78.0341 31.358 79.358 32.1989 80.9261C33.0511 82.4943 33.5966 84.2898 33.8352 86.3125ZM50.821 109.511C48.1733 109.511 45.8835 108.949 43.9517 107.824C42.0313 106.687 40.5483 105.108 39.5028 103.085C38.4574 101.051 37.9347 98.6932 37.9347 96.0114C37.9347 93.3068 38.4574 90.9432 39.5028 88.9205C40.5483 86.8864 42.0313 85.3068 43.9517 84.1818C45.8835 83.0455 48.1733 82.4773 50.821 82.4773C53.4688 82.4773 55.7528 83.0455 57.6733 84.1818C59.6051 85.3068 61.0938 86.8864 62.1392 88.9205C63.1847 90.9432 63.7074 93.3068 63.7074 96.0114C63.7074 98.6932 63.1847 101.051 62.1392 103.085C61.0938 105.108 59.6051 106.687 57.6733 107.824C55.7528 108.949 53.4688 109.511 50.821 109.511ZM50.8551 103.886C52.0597 103.886 53.0653 103.545 53.8722 102.864C54.679 102.17 55.2869 101.227 55.696 100.034C56.1165 98.8409 56.3267 97.483 56.3267 95.9602C56.3267 94.4375 56.1165 93.0795 55.696 91.8864C55.2869 90.6932 54.679 89.75 53.8722 89.0568C53.0653 88.3636 52.0597 88.017 50.8551 88.017C49.6392 88.017 48.6165 88.3636 47.7869 89.0568C46.9688 89.75 46.3494 90.6932 45.929 91.8864C45.5199 93.0795 45.3153 94.4375 45.3153 95.9602C45.3153 97.483 45.5199 98.8409 45.929 100.034C46.3494 101.227 46.9688 102.17 47.7869 102.864C48.6165 103.545 49.6392 103.886 50.8551 103.886ZM80.2585 109.511C77.6108 109.511 75.321 108.949 73.3892 107.824C71.4688 106.687 69.9858 105.108 68.9403 103.085C67.8949 101.051 67.3722 98.6932 67.3722 96.0114C67.3722 93.3068 67.8949 90.9432 68.9403 88.9205C69.9858 86.8864 71.4688 85.3068 73.3892 84.1818C75.321 83.0455 77.6108 82.4773 80.2585 82.4773C82.9062 82.4773 85.1903 83.0455 87.1108 84.1818C89.0426 85.3068 90.5312 86.8864 91.5767 88.9205C92.6222 90.9432 93.1449 93.3068 93.1449 96.0114C93.1449 98.6932 92.6222 101.051 91.5767 103.085C90.5312 105.108 89.0426 106.687 87.1108 107.824C85.1903 108.949 82.9062 109.511 80.2585 109.511ZM80.2926 103.886C81.4972 103.886 82.5028 103.545 83.3097 102.864C84.1165 102.17 84.7244 101.227 85.1335 100.034C85.554 98.8409 85.7642 97.483 85.7642 95.9602C85.7642 94.4375 85.554 93.0795 85.1335 91.8864C84.7244 90.6932 84.1165 89.75 83.3097 89.0568C82.5028 88.3636 81.4972 88.017 80.2926 88.017C79.0767 88.017 78.054 88.3636 77.2244 89.0568C76.4063 89.75 75.7869 90.6932 75.3665 91.8864C74.9574 93.0795 74.7528 94.4375 74.7528 95.9602C74.7528 97.483 74.9574 98.8409 75.3665 100.034C75.7869 101.227 76.4063 102.17 77.2244 102.864C78.054 103.545 79.0767 103.886 80.2926 103.886ZM104.446 101.466L104.463 92.7557H105.52L113.906 82.8182H122.241L110.974 95.9773H109.253L104.446 101.466ZM97.8665 109V74.0909H105.128V109H97.8665ZM114.23 109L106.526 97.5966L111.366 92.4659L122.736 109H114.23ZM125.804 109V82.8182H133.065V109H125.804ZM129.452 79.4432C128.372 79.4432 127.446 79.0852 126.673 78.3693C125.912 77.642 125.531 76.7727 125.531 75.7614C125.531 74.7614 125.912 73.9034 126.673 73.1875C127.446 72.4602 128.372 72.0966 129.452 72.0966C130.531 72.0966 131.452 72.4602 132.213 73.1875C132.986 73.9034 133.372 74.7614 133.372 75.7614C133.372 76.7727 132.986 77.642 132.213 78.3693C131.452 79.0852 130.531 79.4432 129.452 79.4432ZM146.143 93.8636V109H138.882V82.8182H145.803V87.4375H146.109C146.689 85.9148 147.661 84.7102 149.024 83.8239C150.388 82.9261 152.041 82.4773 153.984 82.4773C155.803 82.4773 157.388 82.875 158.74 83.6705C160.092 84.4659 161.143 85.6023 161.893 87.0795C162.643 88.5455 163.018 90.2955 163.018 92.3295V109H155.757V93.625C155.768 92.0227 155.359 90.7727 154.53 89.875C153.7 88.9659 152.558 88.5114 151.104 88.5114C150.126 88.5114 149.263 88.7216 148.513 89.142C147.774 89.5625 147.195 90.1761 146.774 90.983C146.365 91.7784 146.155 92.7386 146.143 93.8636ZM180.537 119.364C178.185 119.364 176.168 119.04 174.486 118.392C172.815 117.756 171.486 116.886 170.497 115.784C169.509 114.682 168.866 113.443 168.571 112.068L175.287 111.165C175.491 111.688 175.815 112.176 176.259 112.631C176.702 113.085 177.287 113.449 178.014 113.722C178.753 114.006 179.651 114.148 180.707 114.148C182.287 114.148 183.588 113.761 184.611 112.989C185.645 112.227 186.162 110.949 186.162 109.153V104.364H185.855C185.537 105.091 185.06 105.778 184.423 106.426C183.787 107.074 182.969 107.602 181.969 108.011C180.969 108.42 179.776 108.625 178.389 108.625C176.423 108.625 174.634 108.17 173.02 107.261C171.418 106.341 170.139 104.937 169.185 103.051C168.241 101.153 167.77 98.7557 167.77 95.858C167.77 92.892 168.253 90.4148 169.219 88.4261C170.185 86.4375 171.469 84.9489 173.071 83.9602C174.685 82.9716 176.452 82.4773 178.372 82.4773C179.838 82.4773 181.065 82.7273 182.054 83.2273C183.043 83.7159 183.838 84.3295 184.44 85.0682C185.054 85.7955 185.526 86.5114 185.855 87.2159H186.128V82.8182H193.338V109.256C193.338 111.483 192.793 113.347 191.702 114.847C190.611 116.347 189.099 117.472 187.168 118.222C185.247 118.983 183.037 119.364 180.537 119.364ZM180.69 103.17C181.861 103.17 182.849 102.881 183.656 102.301C184.474 101.71 185.099 100.869 185.531 99.7784C185.974 98.6761 186.196 97.358 186.196 95.8239C186.196 94.2898 185.98 92.9602 185.548 91.8352C185.116 90.6989 184.491 89.8182 183.673 89.1932C182.855 88.5682 181.861 88.2557 180.69 88.2557C179.497 88.2557 178.491 88.5795 177.673 89.2273C176.855 89.8636 176.236 90.75 175.815 91.8864C175.395 93.0227 175.185 94.3352 175.185 95.8239C175.185 97.3352 175.395 98.642 175.815 99.7443C176.247 100.835 176.866 101.682 177.673 102.284C178.491 102.875 179.497 103.17 180.69 103.17Z" fill="white"/>
<path d="M2.02273 197V173.727H6.94318V183.33H16.9318V173.727H21.8409V197H16.9318V187.386H6.94318V197H2.02273ZM30.7841 197.33C29.6705 197.33 28.678 197.136 27.8068 196.75C26.9356 196.356 26.2462 195.777 25.7386 195.011C25.2386 194.239 24.9886 193.277 24.9886 192.125C24.9886 191.155 25.1667 190.341 25.5227 189.682C25.8788 189.023 26.3636 188.492 26.9773 188.091C27.5909 187.689 28.2879 187.386 29.0682 187.182C29.8561 186.977 30.6818 186.833 31.5455 186.75C32.5606 186.644 33.3788 186.545 34 186.455C34.6212 186.356 35.072 186.212 35.3523 186.023C35.6326 185.833 35.7727 185.553 35.7727 185.182V185.114C35.7727 184.394 35.5455 183.837 35.0909 183.443C34.6439 183.049 34.0076 182.852 33.1818 182.852C32.3106 182.852 31.6174 183.045 31.1023 183.432C30.5871 183.811 30.2462 184.288 30.0795 184.864L25.6023 184.5C25.8295 183.439 26.2765 182.523 26.9432 181.75C27.6098 180.97 28.4697 180.371 29.5227 179.955C30.5833 179.53 31.8106 179.318 33.2045 179.318C34.1742 179.318 35.1023 179.432 35.9886 179.659C36.8826 179.886 37.6742 180.239 38.3636 180.716C39.0606 181.193 39.6098 181.807 40.0114 182.557C40.4129 183.299 40.6136 184.189 40.6136 185.227V197H36.0227V194.58H35.8864C35.6061 195.125 35.2311 195.606 34.7614 196.023C34.2917 196.432 33.7273 196.754 33.0682 196.989C32.4091 197.216 31.6477 197.33 30.7841 197.33ZM32.1705 193.989C32.8826 193.989 33.5114 193.848 34.0568 193.568C34.6023 193.28 35.0303 192.894 35.3409 192.409C35.6515 191.924 35.8068 191.375 35.8068 190.761V188.909C35.6553 189.008 35.447 189.098 35.1818 189.182C34.9242 189.258 34.6326 189.33 34.3068 189.398C33.9811 189.458 33.6553 189.515 33.3295 189.568C33.0038 189.614 32.7083 189.655 32.4432 189.693C31.875 189.777 31.3788 189.909 30.9545 190.091C30.5303 190.273 30.2008 190.519 29.9659 190.83C29.7311 191.133 29.6136 191.511 29.6136 191.966C29.6136 192.625 29.8523 193.129 30.3295 193.477C30.8144 193.818 31.428 193.989 32.1705 193.989ZM49.2102 186.909V197H44.3693V179.545H48.983V182.625H49.1875C49.5739 181.61 50.2216 180.807 51.1307 180.216C52.0398 179.617 53.142 179.318 54.4375 179.318C55.6496 179.318 56.7064 179.583 57.608 180.114C58.5095 180.644 59.2102 181.402 59.7102 182.386C60.2102 183.364 60.4602 184.53 60.4602 185.886V197H55.6193V186.75C55.6269 185.682 55.3542 184.848 54.8011 184.25C54.2481 183.644 53.4867 183.341 52.517 183.341C51.8655 183.341 51.2898 183.481 50.7898 183.761C50.2973 184.042 49.911 184.451 49.6307 184.989C49.358 185.519 49.2178 186.159 49.2102 186.909ZM70.7074 197.284C69.3816 197.284 68.1809 196.943 67.1051 196.261C66.0369 195.572 65.1884 194.561 64.5597 193.227C63.9384 191.886 63.6278 190.242 63.6278 188.295C63.6278 186.295 63.9498 184.633 64.5938 183.307C65.2377 181.973 66.0938 180.977 67.1619 180.318C68.2377 179.652 69.4157 179.318 70.696 179.318C71.6733 179.318 72.4877 179.485 73.1392 179.818C73.7983 180.144 74.3286 180.553 74.7301 181.045C75.1392 181.53 75.4498 182.008 75.6619 182.477H75.8097V173.727H80.6392V197H75.8665V194.205H75.6619C75.4347 194.689 75.1127 195.17 74.696 195.648C74.2869 196.117 73.7528 196.508 73.0938 196.818C72.4422 197.129 71.6468 197.284 70.7074 197.284ZM72.2415 193.432C73.0218 193.432 73.6809 193.22 74.2188 192.795C74.7642 192.364 75.1809 191.761 75.4688 190.989C75.7642 190.216 75.9119 189.311 75.9119 188.273C75.9119 187.235 75.768 186.333 75.4801 185.568C75.1922 184.803 74.7756 184.212 74.2301 183.795C73.6847 183.379 73.0218 183.17 72.2415 183.17C71.446 183.17 70.7756 183.386 70.2301 183.818C69.6847 184.25 69.2718 184.848 68.9915 185.614C68.7112 186.379 68.571 187.265 68.571 188.273C68.571 189.288 68.7112 190.186 68.9915 190.966C69.2794 191.739 69.6922 192.345 70.2301 192.784C70.7756 193.216 71.446 193.432 72.2415 193.432ZM92.5057 197.341C90.7178 197.341 89.1799 196.962 87.892 196.205C86.6117 195.439 85.6269 194.379 84.9375 193.023C84.2557 191.667 83.9148 190.106 83.9148 188.341C83.9148 186.553 84.2595 184.985 84.9489 183.636C85.6458 182.28 86.6345 181.223 87.9148 180.466C89.1951 179.701 90.7178 179.318 92.483 179.318C94.0057 179.318 95.339 179.595 96.483 180.148C97.6269 180.701 98.5322 181.477 99.1989 182.477C99.8655 183.477 100.233 184.652 100.301 186H95.733C95.6042 185.129 95.2633 184.428 94.7102 183.898C94.1648 183.36 93.4489 183.091 92.5625 183.091C91.8125 183.091 91.1572 183.295 90.5966 183.705C90.0436 184.106 89.6117 184.693 89.3011 185.466C88.9905 186.239 88.8352 187.174 88.8352 188.273C88.8352 189.386 88.9867 190.333 89.2898 191.114C89.6004 191.894 90.036 192.489 90.5966 192.898C91.1572 193.307 91.8125 193.511 92.5625 193.511C93.1155 193.511 93.6117 193.398 94.0511 193.17C94.4981 192.943 94.8655 192.614 95.1534 192.182C95.4489 191.742 95.642 191.216 95.733 190.602H100.301C100.225 191.936 99.8617 193.11 99.2102 194.125C98.5663 195.133 97.6761 195.92 96.5398 196.489C95.4034 197.057 94.0587 197.341 92.5057 197.341ZM103.401 197V179.545H108.094V182.591H108.276C108.594 181.508 109.128 180.689 109.878 180.136C110.628 179.576 111.491 179.295 112.469 179.295C112.711 179.295 112.973 179.311 113.253 179.341C113.533 179.371 113.779 179.413 113.991 179.466V183.761C113.764 183.693 113.45 183.633 113.048 183.58C112.647 183.527 112.279 183.5 111.946 183.5C111.234 183.5 110.598 183.655 110.037 183.966C109.484 184.269 109.045 184.693 108.719 185.239C108.401 185.784 108.241 186.413 108.241 187.125V197H103.401ZM120.972 197.33C119.858 197.33 118.866 197.136 117.994 196.75C117.123 196.356 116.434 195.777 115.926 195.011C115.426 194.239 115.176 193.277 115.176 192.125C115.176 191.155 115.354 190.341 115.71 189.682C116.066 189.023 116.551 188.492 117.165 188.091C117.778 187.689 118.475 187.386 119.256 187.182C120.044 186.977 120.869 186.833 121.733 186.75C122.748 186.644 123.566 186.545 124.188 186.455C124.809 186.356 125.259 186.212 125.54 186.023C125.82 185.833 125.96 185.553 125.96 185.182V185.114C125.96 184.394 125.733 183.837 125.278 183.443C124.831 183.049 124.195 182.852 123.369 182.852C122.498 182.852 121.805 183.045 121.29 183.432C120.775 183.811 120.434 184.288 120.267 184.864L115.79 184.5C116.017 183.439 116.464 182.523 117.131 181.75C117.797 180.97 118.657 180.371 119.71 179.955C120.771 179.53 121.998 179.318 123.392 179.318C124.362 179.318 125.29 179.432 126.176 179.659C127.07 179.886 127.862 180.239 128.551 180.716C129.248 181.193 129.797 181.807 130.199 182.557C130.6 183.299 130.801 184.189 130.801 185.227V197H126.21V194.58H126.074C125.794 195.125 125.419 195.606 124.949 196.023C124.479 196.432 123.915 196.754 123.256 196.989C122.597 197.216 121.835 197.33 120.972 197.33ZM122.358 193.989C123.07 193.989 123.699 193.848 124.244 193.568C124.79 193.28 125.218 192.894 125.528 192.409C125.839 191.924 125.994 191.375 125.994 190.761V188.909C125.843 189.008 125.634 189.098 125.369 189.182C125.112 189.258 124.82 189.33 124.494 189.398C124.169 189.458 123.843 189.515 123.517 189.568C123.191 189.614 122.896 189.655 122.631 189.693C122.063 189.777 121.566 189.909 121.142 190.091C120.718 190.273 120.388 190.519 120.153 190.83C119.919 191.133 119.801 191.511 119.801 191.966C119.801 192.625 120.04 193.129 120.517 193.477C121.002 193.818 121.616 193.989 122.358 193.989ZM143.943 179.545V183.182H133.17V179.545H143.943ZM135.636 197V178.284C135.636 177.019 135.883 175.97 136.375 175.136C136.875 174.303 137.557 173.678 138.42 173.261C139.284 172.845 140.265 172.636 141.364 172.636C142.106 172.636 142.784 172.693 143.398 172.807C144.019 172.92 144.481 173.023 144.784 173.114L143.92 176.75C143.731 176.689 143.496 176.633 143.216 176.58C142.943 176.527 142.663 176.5 142.375 176.5C141.663 176.5 141.167 176.667 140.886 177C140.606 177.326 140.466 177.784 140.466 178.375V197H135.636ZM156.185 179.545V183.182H145.673V179.545H156.185ZM148.06 175.364H152.901V191.636C152.901 192.083 152.969 192.432 153.105 192.682C153.241 192.924 153.431 193.095 153.673 193.193C153.923 193.292 154.211 193.341 154.537 193.341C154.764 193.341 154.991 193.322 155.219 193.284C155.446 193.239 155.62 193.205 155.741 193.182L156.503 196.784C156.26 196.86 155.92 196.947 155.48 197.045C155.041 197.152 154.507 197.216 153.878 197.239C152.711 197.284 151.688 197.129 150.81 196.773C149.938 196.417 149.26 195.864 148.776 195.114C148.291 194.364 148.052 193.417 148.06 192.273V175.364ZM167.105 197.341C165.31 197.341 163.764 196.977 162.469 196.25C161.181 195.515 160.188 194.477 159.491 193.136C158.795 191.788 158.446 190.193 158.446 188.352C158.446 186.557 158.795 184.981 159.491 183.625C160.188 182.269 161.17 181.212 162.435 180.455C163.707 179.697 165.2 179.318 166.912 179.318C168.063 179.318 169.135 179.504 170.128 179.875C171.128 180.239 171.999 180.788 172.741 181.523C173.491 182.258 174.075 183.182 174.491 184.295C174.908 185.402 175.116 186.697 175.116 188.182V189.511H160.378V186.511H170.56C170.56 185.814 170.408 185.197 170.105 184.659C169.802 184.121 169.382 183.701 168.844 183.398C168.313 183.087 167.696 182.932 166.991 182.932C166.257 182.932 165.605 183.102 165.037 183.443C164.476 183.777 164.037 184.227 163.719 184.795C163.401 185.356 163.238 185.981 163.23 186.67V189.523C163.23 190.386 163.389 191.133 163.707 191.761C164.033 192.39 164.491 192.875 165.082 193.216C165.673 193.557 166.374 193.727 167.185 193.727C167.723 193.727 168.215 193.652 168.662 193.5C169.109 193.348 169.491 193.121 169.81 192.818C170.128 192.515 170.37 192.144 170.537 191.705L175.014 192C174.787 193.076 174.321 194.015 173.616 194.818C172.92 195.614 172.018 196.235 170.912 196.682C169.813 197.121 168.545 197.341 167.105 197.341ZM184.707 197.284C183.382 197.284 182.181 196.943 181.105 196.261C180.037 195.572 179.188 194.561 178.56 193.227C177.938 191.886 177.628 190.242 177.628 188.295C177.628 186.295 177.95 184.633 178.594 183.307C179.238 181.973 180.094 180.977 181.162 180.318C182.238 179.652 183.416 179.318 184.696 179.318C185.673 179.318 186.488 179.485 187.139 179.818C187.798 180.144 188.329 180.553 188.73 181.045C189.139 181.53 189.45 182.008 189.662 182.477H189.81V173.727H194.639V197H189.866V194.205H189.662C189.435 194.689 189.113 195.17 188.696 195.648C188.287 196.117 187.753 196.508 187.094 196.818C186.442 197.129 185.647 197.284 184.707 197.284ZM186.241 193.432C187.022 193.432 187.681 193.22 188.219 192.795C188.764 192.364 189.181 191.761 189.469 190.989C189.764 190.216 189.912 189.311 189.912 188.273C189.912 187.235 189.768 186.333 189.48 185.568C189.192 184.803 188.776 184.212 188.23 183.795C187.685 183.379 187.022 183.17 186.241 183.17C185.446 183.17 184.776 183.386 184.23 183.818C183.685 184.25 183.272 184.848 182.991 185.614C182.711 186.379 182.571 187.265 182.571 188.273C182.571 189.288 182.711 190.186 182.991 190.966C183.279 191.739 183.692 192.345 184.23 192.784C184.776 193.216 185.446 193.432 186.241 193.432ZM209.469 197L204.719 179.545H209.616L212.321 191.273H212.48L215.298 179.545H220.105L222.969 191.205H223.116L225.776 179.545H230.662L225.923 197H220.798L217.798 186.023H217.582L214.582 197H209.469ZM233.244 197V179.545H238.085V197H233.244ZM235.676 177.295C234.956 177.295 234.339 177.057 233.824 176.58C233.316 176.095 233.062 175.515 233.062 174.841C233.062 174.174 233.316 173.602 233.824 173.125C234.339 172.64 234.956 172.398 235.676 172.398C236.396 172.398 237.009 172.64 237.517 173.125C238.032 173.602 238.29 174.174 238.29 174.841C238.29 175.515 238.032 176.095 237.517 176.58C237.009 177.057 236.396 177.295 235.676 177.295ZM251.247 179.545V183.182H240.736V179.545H251.247ZM243.122 175.364H247.963V191.636C247.963 192.083 248.031 192.432 248.168 192.682C248.304 192.924 248.493 193.095 248.736 193.193C248.986 193.292 249.274 193.341 249.599 193.341C249.827 193.341 250.054 193.322 250.281 193.284C250.509 193.239 250.683 193.205 250.804 193.182L251.565 196.784C251.323 196.86 250.982 196.947 250.543 197.045C250.103 197.152 249.569 197.216 248.94 197.239C247.774 197.284 246.751 197.129 245.872 196.773C245.001 196.417 244.323 195.864 243.838 195.114C243.353 194.364 243.115 193.417 243.122 192.273V175.364ZM259.616 186.909V197H254.776V173.727H259.48V182.625H259.685C260.079 181.595 260.715 180.788 261.594 180.205C262.473 179.614 263.575 179.318 264.901 179.318C266.113 179.318 267.17 179.583 268.071 180.114C268.98 180.636 269.685 181.39 270.185 182.375C270.692 183.352 270.942 184.523 270.935 185.886V197H266.094V186.75C266.101 185.674 265.829 184.837 265.276 184.239C264.73 183.64 263.965 183.341 262.98 183.341C262.321 183.341 261.738 183.481 261.23 183.761C260.73 184.042 260.336 184.451 260.048 184.989C259.768 185.519 259.624 186.159 259.616 186.909ZM282.151 203.545V179.545H286.923V182.477H287.139C287.351 182.008 287.658 181.53 288.06 181.045C288.469 180.553 288.999 180.144 289.651 179.818C290.31 179.485 291.128 179.318 292.105 179.318C293.378 179.318 294.552 179.652 295.628 180.318C296.704 180.977 297.563 181.973 298.207 183.307C298.851 184.633 299.173 186.295 299.173 188.295C299.173 190.242 298.859 191.886 298.23 193.227C297.609 194.561 296.76 195.572 295.685 196.261C294.616 196.943 293.42 197.284 292.094 197.284C291.154 197.284 290.355 197.129 289.696 196.818C289.045 196.508 288.51 196.117 288.094 195.648C287.677 195.17 287.359 194.689 287.139 194.205H286.991V203.545H282.151ZM286.889 188.273C286.889 189.311 287.033 190.216 287.321 190.989C287.609 191.761 288.026 192.364 288.571 192.795C289.116 193.22 289.779 193.432 290.56 193.432C291.348 193.432 292.014 193.216 292.56 192.784C293.105 192.345 293.518 191.739 293.798 190.966C294.086 190.186 294.23 189.288 294.23 188.273C294.23 187.265 294.09 186.379 293.81 185.614C293.529 184.848 293.116 184.25 292.571 183.818C292.026 183.386 291.355 183.17 290.56 183.17C289.772 183.17 289.105 183.379 288.56 183.795C288.022 184.212 287.609 184.803 287.321 185.568C287.033 186.333 286.889 187.235 286.889 188.273ZM307.378 197.33C306.264 197.33 305.272 197.136 304.401 196.75C303.529 196.356 302.84 195.777 302.332 195.011C301.832 194.239 301.582 193.277 301.582 192.125C301.582 191.155 301.76 190.341 302.116 189.682C302.473 189.023 302.957 188.492 303.571 188.091C304.185 187.689 304.882 187.386 305.662 187.182C306.45 186.977 307.276 186.833 308.139 186.75C309.154 186.644 309.973 186.545 310.594 186.455C311.215 186.356 311.666 186.212 311.946 186.023C312.226 185.833 312.366 185.553 312.366 185.182V185.114C312.366 184.394 312.139 183.837 311.685 183.443C311.238 183.049 310.601 182.852 309.776 182.852C308.904 182.852 308.211 183.045 307.696 183.432C307.181 183.811 306.84 184.288 306.673 184.864L302.196 184.5C302.423 183.439 302.87 182.523 303.537 181.75C304.204 180.97 305.063 180.371 306.116 179.955C307.177 179.53 308.404 179.318 309.798 179.318C310.768 179.318 311.696 179.432 312.582 179.659C313.476 179.886 314.268 180.239 314.957 180.716C315.654 181.193 316.204 181.807 316.605 182.557C317.007 183.299 317.207 184.189 317.207 185.227V197H312.616V194.58H312.48C312.2 195.125 311.825 195.606 311.355 196.023C310.885 196.432 310.321 196.754 309.662 196.989C309.003 197.216 308.241 197.33 307.378 197.33ZM308.764 193.989C309.476 193.989 310.105 193.848 310.651 193.568C311.196 193.28 311.624 192.894 311.935 192.409C312.245 191.924 312.401 191.375 312.401 190.761V188.909C312.249 189.008 312.041 189.098 311.776 189.182C311.518 189.258 311.226 189.33 310.901 189.398C310.575 189.458 310.249 189.515 309.923 189.568C309.598 189.614 309.302 189.655 309.037 189.693C308.469 189.777 307.973 189.909 307.548 190.091C307.124 190.273 306.795 190.519 306.56 190.83C306.325 191.133 306.207 191.511 306.207 191.966C306.207 192.625 306.446 193.129 306.923 193.477C307.408 193.818 308.022 193.989 308.764 193.989ZM335.486 184.523L331.054 184.795C330.978 184.417 330.815 184.076 330.565 183.773C330.315 183.462 329.986 183.216 329.577 183.034C329.175 182.845 328.694 182.75 328.134 182.75C327.384 182.75 326.751 182.909 326.236 183.227C325.721 183.538 325.463 183.955 325.463 184.477C325.463 184.894 325.63 185.246 325.963 185.534C326.296 185.822 326.868 186.053 327.679 186.227L330.838 186.864C332.535 187.212 333.8 187.773 334.634 188.545C335.467 189.318 335.884 190.333 335.884 191.591C335.884 192.735 335.546 193.739 334.872 194.602C334.205 195.466 333.289 196.14 332.122 196.625C330.963 197.102 329.626 197.341 328.111 197.341C325.8 197.341 323.959 196.86 322.588 195.898C321.224 194.928 320.425 193.61 320.19 191.943L324.952 191.693C325.096 192.398 325.444 192.936 325.997 193.307C326.55 193.67 327.259 193.852 328.122 193.852C328.971 193.852 329.652 193.689 330.168 193.364C330.69 193.03 330.955 192.602 330.963 192.08C330.955 191.64 330.77 191.28 330.406 191C330.043 190.712 329.482 190.492 328.724 190.341L325.702 189.739C323.997 189.398 322.728 188.807 321.895 187.966C321.069 187.125 320.656 186.053 320.656 184.75C320.656 183.629 320.959 182.663 321.565 181.852C322.179 181.042 323.039 180.417 324.145 179.977C325.259 179.538 326.562 179.318 328.054 179.318C330.259 179.318 331.993 179.784 333.259 180.716C334.531 181.648 335.274 182.917 335.486 184.523ZM353.455 184.523L349.023 184.795C348.947 184.417 348.784 184.076 348.534 183.773C348.284 183.462 347.955 183.216 347.545 183.034C347.144 182.845 346.663 182.75 346.102 182.75C345.352 182.75 344.72 182.909 344.205 183.227C343.689 183.538 343.432 183.955 343.432 184.477C343.432 184.894 343.598 185.246 343.932 185.534C344.265 185.822 344.837 186.053 345.648 186.227L348.807 186.864C350.504 187.212 351.769 187.773 352.602 188.545C353.436 189.318 353.852 190.333 353.852 191.591C353.852 192.735 353.515 193.739 352.841 194.602C352.174 195.466 351.258 196.14 350.091 196.625C348.932 197.102 347.595 197.341 346.08 197.341C343.769 197.341 341.928 196.86 340.557 195.898C339.193 194.928 338.394 193.61 338.159 191.943L342.92 191.693C343.064 192.398 343.413 192.936 343.966 193.307C344.519 193.67 345.227 193.852 346.091 193.852C346.939 193.852 347.621 193.689 348.136 193.364C348.659 193.03 348.924 192.602 348.932 192.08C348.924 191.64 348.739 191.28 348.375 191C348.011 190.712 347.451 190.492 346.693 190.341L343.67 189.739C341.966 189.398 340.697 188.807 339.864 187.966C339.038 187.125 338.625 186.053 338.625 184.75C338.625 183.629 338.928 182.663 339.534 181.852C340.148 181.042 341.008 180.417 342.114 179.977C343.227 179.538 344.53 179.318 346.023 179.318C348.227 179.318 349.962 179.784 351.227 180.716C352.5 181.648 353.242 182.917 353.455 184.523ZM356.901 197V179.545H361.741V197H356.901ZM359.332 177.295C358.613 177.295 357.995 177.057 357.48 176.58C356.973 176.095 356.719 175.515 356.719 174.841C356.719 174.174 356.973 173.602 357.48 173.125C357.995 172.64 358.613 172.398 359.332 172.398C360.052 172.398 360.666 172.64 361.173 173.125C361.688 173.602 361.946 174.174 361.946 174.841C361.946 175.515 361.688 176.095 361.173 176.58C360.666 177.057 360.052 177.295 359.332 177.295ZM373.506 197.341C371.741 197.341 370.214 196.966 368.926 196.216C367.646 195.458 366.657 194.405 365.96 193.057C365.263 191.701 364.915 190.129 364.915 188.341C364.915 186.538 365.263 184.962 365.96 183.614C366.657 182.258 367.646 181.205 368.926 180.455C370.214 179.697 371.741 179.318 373.506 179.318C375.271 179.318 376.794 179.697 378.074 180.455C379.362 181.205 380.354 182.258 381.051 183.614C381.748 184.962 382.097 186.538 382.097 188.341C382.097 190.129 381.748 191.701 381.051 193.057C380.354 194.405 379.362 195.458 378.074 196.216C376.794 196.966 375.271 197.341 373.506 197.341ZM373.528 193.591C374.331 193.591 375.002 193.364 375.54 192.909C376.078 192.447 376.483 191.818 376.756 191.023C377.036 190.227 377.176 189.322 377.176 188.307C377.176 187.292 377.036 186.386 376.756 185.591C376.483 184.795 376.078 184.167 375.54 183.705C375.002 183.242 374.331 183.011 373.528 183.011C372.718 183.011 372.036 183.242 371.483 183.705C370.938 184.167 370.525 184.795 370.244 185.591C369.972 186.386 369.835 187.292 369.835 188.307C369.835 189.322 369.972 190.227 370.244 191.023C370.525 191.818 370.938 192.447 371.483 192.909C372.036 193.364 372.718 193.591 373.528 193.591ZM390.085 186.909V197H385.244V179.545H389.858V182.625H390.062C390.449 181.61 391.097 180.807 392.006 180.216C392.915 179.617 394.017 179.318 395.312 179.318C396.525 179.318 397.581 179.583 398.483 180.114C399.384 180.644 400.085 181.402 400.585 182.386C401.085 183.364 401.335 184.53 401.335 185.886V197H396.494V186.75C396.502 185.682 396.229 184.848 395.676 184.25C395.123 183.644 394.362 183.341 393.392 183.341C392.741 183.341 392.165 183.481 391.665 183.761C391.172 184.042 390.786 184.451 390.506 184.989C390.233 185.519 390.093 186.159 390.085 186.909ZM410.412 193.818L410.287 195.068C410.188 196.068 409.999 197.064 409.719 198.057C409.446 199.057 409.158 199.962 408.855 200.773C408.56 201.583 408.321 202.22 408.139 202.682H405.003C405.116 202.235 405.272 201.61 405.469 200.807C405.666 200.011 405.851 199.117 406.026 198.125C406.2 197.133 406.31 196.121 406.355 195.091L406.412 193.818H410.412ZM427.582 197.284C426.257 197.284 425.056 196.943 423.98 196.261C422.912 195.572 422.063 194.561 421.435 193.227C420.813 191.886 420.503 190.242 420.503 188.295C420.503 186.295 420.825 184.633 421.469 183.307C422.113 181.973 422.969 180.977 424.037 180.318C425.113 179.652 426.291 179.318 427.571 179.318C428.548 179.318 429.363 179.485 430.014 179.818C430.673 180.144 431.204 180.553 431.605 181.045C432.014 181.53 432.325 182.008 432.537 182.477H432.685V173.727H437.514V197H432.741V194.205H432.537C432.31 194.689 431.988 195.17 431.571 195.648C431.162 196.117 430.628 196.508 429.969 196.818C429.317 197.129 428.522 197.284 427.582 197.284ZM429.116 193.432C429.897 193.432 430.556 193.22 431.094 192.795C431.639 192.364 432.056 191.761 432.344 190.989C432.639 190.216 432.787 189.311 432.787 188.273C432.787 187.235 432.643 186.333 432.355 185.568C432.067 184.803 431.651 184.212 431.105 183.795C430.56 183.379 429.897 183.17 429.116 183.17C428.321 183.17 427.651 183.386 427.105 183.818C426.56 184.25 426.147 184.848 425.866 185.614C425.586 186.379 425.446 187.265 425.446 188.273C425.446 189.288 425.586 190.186 425.866 190.966C426.154 191.739 426.567 192.345 427.105 192.784C427.651 193.216 428.321 193.432 429.116 193.432ZM449.449 197.341C447.653 197.341 446.108 196.977 444.812 196.25C443.525 195.515 442.532 194.477 441.835 193.136C441.138 191.788 440.79 190.193 440.79 188.352C440.79 186.557 441.138 184.981 441.835 183.625C442.532 182.269 443.513 181.212 444.778 180.455C446.051 179.697 447.544 179.318 449.256 179.318C450.407 179.318 451.479 179.504 452.472 179.875C453.472 180.239 454.343 180.788 455.085 181.523C455.835 182.258 456.419 183.182 456.835 184.295C457.252 185.402 457.46 186.697 457.46 188.182V189.511H442.722V186.511H452.903C452.903 185.814 452.752 185.197 452.449 184.659C452.146 184.121 451.725 183.701 451.188 183.398C450.657 183.087 450.04 182.932 449.335 182.932C448.6 182.932 447.949 183.102 447.381 183.443C446.82 183.777 446.381 184.227 446.062 184.795C445.744 185.356 445.581 185.981 445.574 186.67V189.523C445.574 190.386 445.733 191.133 446.051 191.761C446.377 192.39 446.835 192.875 447.426 193.216C448.017 193.557 448.718 193.727 449.528 193.727C450.066 193.727 450.559 193.652 451.006 193.5C451.453 193.348 451.835 193.121 452.153 192.818C452.472 192.515 452.714 192.144 452.881 191.705L457.358 192C457.131 193.076 456.665 194.015 455.96 194.818C455.263 195.614 454.362 196.235 453.256 196.682C452.157 197.121 450.888 197.341 449.449 197.341ZM465.46 173.727V197H460.619V173.727H465.46ZM469.338 197V179.545H474.179V197H469.338ZM471.77 177.295C471.05 177.295 470.433 177.057 469.918 176.58C469.41 176.095 469.156 175.515 469.156 174.841C469.156 174.174 469.41 173.602 469.918 173.125C470.433 172.64 471.05 172.398 471.77 172.398C472.49 172.398 473.103 172.64 473.611 173.125C474.126 173.602 474.384 174.174 474.384 174.841C474.384 175.515 474.126 176.095 473.611 176.58C473.103 177.057 472.49 177.295 471.77 177.295ZM494.33 179.545L488.227 197H482.773L476.67 179.545H481.784L485.409 192.034H485.591L489.205 179.545H494.33ZM504.199 197.341C502.403 197.341 500.858 196.977 499.562 196.25C498.275 195.515 497.282 194.477 496.585 193.136C495.888 191.788 495.54 190.193 495.54 188.352C495.54 186.557 495.888 184.981 496.585 183.625C497.282 182.269 498.263 181.212 499.528 180.455C500.801 179.697 502.294 179.318 504.006 179.318C505.157 179.318 506.229 179.504 507.222 179.875C508.222 180.239 509.093 180.788 509.835 181.523C510.585 182.258 511.169 183.182 511.585 184.295C512.002 185.402 512.21 186.697 512.21 188.182V189.511H497.472V186.511H507.653C507.653 185.814 507.502 185.197 507.199 184.659C506.896 184.121 506.475 183.701 505.938 183.398C505.407 183.087 504.79 182.932 504.085 182.932C503.35 182.932 502.699 183.102 502.131 183.443C501.57 183.777 501.131 184.227 500.812 184.795C500.494 185.356 500.331 185.981 500.324 186.67V189.523C500.324 190.386 500.483 191.133 500.801 191.761C501.127 192.39 501.585 192.875 502.176 193.216C502.767 193.557 503.468 193.727 504.278 193.727C504.816 193.727 505.309 193.652 505.756 193.5C506.203 193.348 506.585 193.121 506.903 192.818C507.222 192.515 507.464 192.144 507.631 191.705L512.108 192C511.881 193.076 511.415 194.015 510.71 194.818C510.013 195.614 509.112 196.235 508.006 196.682C506.907 197.121 505.638 197.341 504.199 197.341ZM515.369 197V179.545H520.062V182.591H520.244C520.563 181.508 521.097 180.689 521.847 180.136C522.597 179.576 523.46 179.295 524.438 179.295C524.68 179.295 524.941 179.311 525.222 179.341C525.502 179.371 525.748 179.413 525.96 179.466V183.761C525.733 183.693 525.419 183.633 525.017 183.58C524.616 183.527 524.248 183.5 523.915 183.5C523.203 183.5 522.566 183.655 522.006 183.966C521.453 184.269 521.013 184.693 520.688 185.239C520.369 185.784 520.21 186.413 520.21 187.125V197H515.369ZM535.605 197.341C533.81 197.341 532.264 196.977 530.969 196.25C529.681 195.515 528.688 194.477 527.991 193.136C527.295 191.788 526.946 190.193 526.946 188.352C526.946 186.557 527.295 184.981 527.991 183.625C528.688 182.269 529.67 181.212 530.935 180.455C532.207 179.697 533.7 179.318 535.412 179.318C536.563 179.318 537.635 179.504 538.628 179.875C539.628 180.239 540.499 180.788 541.241 181.523C541.991 182.258 542.575 183.182 542.991 184.295C543.408 185.402 543.616 186.697 543.616 188.182V189.511H528.878V186.511H539.06C539.06 185.814 538.908 185.197 538.605 184.659C538.302 184.121 537.882 183.701 537.344 183.398C536.813 183.087 536.196 182.932 535.491 182.932C534.757 182.932 534.105 183.102 533.537 183.443C532.976 183.777 532.537 184.227 532.219 184.795C531.901 185.356 531.738 185.981 531.73 186.67V189.523C531.73 190.386 531.889 191.133 532.207 191.761C532.533 192.39 532.991 192.875 533.582 193.216C534.173 193.557 534.874 193.727 535.685 193.727C536.223 193.727 536.715 193.652 537.162 193.5C537.609 193.348 537.991 193.121 538.31 192.818C538.628 192.515 538.87 192.144 539.037 191.705L543.514 192C543.287 193.076 542.821 194.015 542.116 194.818C541.42 195.614 540.518 196.235 539.412 196.682C538.313 197.121 537.045 197.341 535.605 197.341ZM553.207 197.284C551.882 197.284 550.681 196.943 549.605 196.261C548.537 195.572 547.688 194.561 547.06 193.227C546.438 191.886 546.128 190.242 546.128 188.295C546.128 186.295 546.45 184.633 547.094 183.307C547.738 181.973 548.594 180.977 549.662 180.318C550.738 179.652 551.916 179.318 553.196 179.318C554.173 179.318 554.988 179.485 555.639 179.818C556.298 180.144 556.829 180.553 557.23 181.045C557.639 181.53 557.95 182.008 558.162 182.477H558.31V173.727H563.139V197H558.366V194.205H558.162C557.935 194.689 557.613 195.17 557.196 195.648C556.787 196.117 556.253 196.508 555.594 196.818C554.942 197.129 554.147 197.284 553.207 197.284ZM554.741 193.432C555.522 193.432 556.181 193.22 556.719 192.795C557.264 192.364 557.681 191.761 557.969 190.989C558.264 190.216 558.412 189.311 558.412 188.273C558.412 187.235 558.268 186.333 557.98 185.568C557.692 184.803 557.276 184.212 556.73 183.795C556.185 183.379 555.522 183.17 554.741 183.17C553.946 183.17 553.276 183.386 552.73 183.818C552.185 184.25 551.772 184.848 551.491 185.614C551.211 186.379 551.071 187.265 551.071 188.273C551.071 189.288 551.211 190.186 551.491 190.966C551.779 191.739 552.192 192.345 552.73 192.784C553.276 193.216 553.946 193.432 554.741 193.432ZM577.969 197L573.219 179.545H578.116L580.821 191.273H580.98L583.798 179.545H588.605L591.469 191.205H591.616L594.276 179.545H599.162L594.423 197H589.298L586.298 186.023H586.082L583.082 197H577.969ZM601.744 197V179.545H606.585V197H601.744ZM604.176 177.295C603.456 177.295 602.839 177.057 602.324 176.58C601.816 176.095 601.562 175.515 601.562 174.841C601.562 174.174 601.816 173.602 602.324 173.125C602.839 172.64 603.456 172.398 604.176 172.398C604.896 172.398 605.509 172.64 606.017 173.125C606.532 173.602 606.79 174.174 606.79 174.841C606.79 175.515 606.532 176.095 606.017 176.58C605.509 177.057 604.896 177.295 604.176 177.295ZM619.747 179.545V183.182H609.236V179.545H619.747ZM611.622 175.364H616.463V191.636C616.463 192.083 616.531 192.432 616.668 192.682C616.804 192.924 616.993 193.095 617.236 193.193C617.486 193.292 617.774 193.341 618.099 193.341C618.327 193.341 618.554 193.322 618.781 193.284C619.009 193.239 619.183 193.205 619.304 193.182L620.065 196.784C619.823 196.86 619.482 196.947 619.043 197.045C618.603 197.152 618.069 197.216 617.44 197.239C616.274 197.284 615.251 197.129 614.372 196.773C613.501 196.417 612.823 195.864 612.338 195.114C611.853 194.364 611.615 193.417 611.622 192.273V175.364ZM628.116 186.909V197H623.276V173.727H627.98V182.625H628.185C628.579 181.595 629.215 180.788 630.094 180.205C630.973 179.614 632.075 179.318 633.401 179.318C634.613 179.318 635.67 179.583 636.571 180.114C637.48 180.636 638.185 181.39 638.685 182.375C639.192 183.352 639.442 184.523 639.435 185.886V197H634.594V186.75C634.601 185.674 634.329 184.837 633.776 184.239C633.23 183.64 632.465 183.341 631.48 183.341C630.821 183.341 630.238 183.481 629.73 183.761C629.23 184.042 628.836 184.451 628.548 184.989C628.268 185.519 628.124 186.159 628.116 186.909ZM658.537 197.341C656.749 197.341 655.211 196.962 653.923 196.205C652.643 195.439 651.658 194.379 650.969 193.023C650.287 191.667 649.946 190.106 649.946 188.341C649.946 186.553 650.291 184.985 650.98 183.636C651.677 182.28 652.666 181.223 653.946 180.466C655.226 179.701 656.749 179.318 658.514 179.318C660.037 179.318 661.37 179.595 662.514 180.148C663.658 180.701 664.563 181.477 665.23 182.477C665.897 183.477 666.264 184.652 666.332 186H661.764C661.635 185.129 661.295 184.428 660.741 183.898C660.196 183.36 659.48 183.091 658.594 183.091C657.844 183.091 657.188 183.295 656.628 183.705C656.075 184.106 655.643 184.693 655.332 185.466C655.022 186.239 654.866 187.174 654.866 188.273C654.866 189.386 655.018 190.333 655.321 191.114C655.632 191.894 656.067 192.489 656.628 192.898C657.188 193.307 657.844 193.511 658.594 193.511C659.147 193.511 659.643 193.398 660.082 193.17C660.529 192.943 660.897 192.614 661.185 192.182C661.48 191.742 661.673 191.216 661.764 190.602H666.332C666.257 191.936 665.893 193.11 665.241 194.125C664.598 195.133 663.707 195.92 662.571 196.489C661.435 197.057 660.09 197.341 658.537 197.341ZM674.409 197.33C673.295 197.33 672.303 197.136 671.432 196.75C670.561 196.356 669.871 195.777 669.364 195.011C668.864 194.239 668.614 193.277 668.614 192.125C668.614 191.155 668.792 190.341 669.148 189.682C669.504 189.023 669.989 188.492 670.602 188.091C671.216 187.689 671.913 187.386 672.693 187.182C673.481 186.977 674.307 186.833 675.17 186.75C676.186 186.644 677.004 186.545 677.625 186.455C678.246 186.356 678.697 186.212 678.977 186.023C679.258 185.833 679.398 185.553 679.398 185.182V185.114C679.398 184.394 679.17 183.837 678.716 183.443C678.269 183.049 677.633 182.852 676.807 182.852C675.936 182.852 675.242 183.045 674.727 183.432C674.212 183.811 673.871 184.288 673.705 184.864L669.227 184.5C669.455 183.439 669.902 182.523 670.568 181.75C671.235 180.97 672.095 180.371 673.148 179.955C674.208 179.53 675.436 179.318 676.83 179.318C677.799 179.318 678.727 179.432 679.614 179.659C680.508 179.886 681.299 180.239 681.989 180.716C682.686 181.193 683.235 181.807 683.636 182.557C684.038 183.299 684.239 184.189 684.239 185.227V197H679.648V194.58H679.511C679.231 195.125 678.856 195.606 678.386 196.023C677.917 196.432 677.352 196.754 676.693 196.989C676.034 197.216 675.273 197.33 674.409 197.33ZM675.795 193.989C676.508 193.989 677.136 193.848 677.682 193.568C678.227 193.28 678.655 192.894 678.966 192.409C679.277 191.924 679.432 191.375 679.432 190.761V188.909C679.28 189.008 679.072 189.098 678.807 189.182C678.549 189.258 678.258 189.33 677.932 189.398C677.606 189.458 677.28 189.515 676.955 189.568C676.629 189.614 676.333 189.655 676.068 189.693C675.5 189.777 675.004 189.909 674.58 190.091C674.155 190.273 673.826 190.519 673.591 190.83C673.356 191.133 673.239 191.511 673.239 191.966C673.239 192.625 673.477 193.129 673.955 193.477C674.439 193.818 675.053 193.989 675.795 193.989ZM687.994 197V179.545H692.688V182.591H692.869C693.188 181.508 693.722 180.689 694.472 180.136C695.222 179.576 696.085 179.295 697.062 179.295C697.305 179.295 697.566 179.311 697.847 179.341C698.127 179.371 698.373 179.413 698.585 179.466V183.761C698.358 183.693 698.044 183.633 697.642 183.58C697.241 183.527 696.873 183.5 696.54 183.5C695.828 183.5 695.191 183.655 694.631 183.966C694.078 184.269 693.638 184.693 693.312 185.239C692.994 185.784 692.835 186.413 692.835 187.125V197H687.994ZM708.23 197.341C706.435 197.341 704.889 196.977 703.594 196.25C702.306 195.515 701.313 194.477 700.616 193.136C699.92 191.788 699.571 190.193 699.571 188.352C699.571 186.557 699.92 184.981 700.616 183.625C701.313 182.269 702.295 181.212 703.56 180.455C704.832 179.697 706.325 179.318 708.037 179.318C709.188 179.318 710.26 179.504 711.253 179.875C712.253 180.239 713.124 180.788 713.866 181.523C714.616 182.258 715.2 183.182 715.616 184.295C716.033 185.402 716.241 186.697 716.241 188.182V189.511H701.503V186.511H711.685C711.685 185.814 711.533 185.197 711.23 184.659C710.927 184.121 710.507 183.701 709.969 183.398C709.438 183.087 708.821 182.932 708.116 182.932C707.382 182.932 706.73 183.102 706.162 183.443C705.601 183.777 705.162 184.227 704.844 184.795C704.526 185.356 704.363 185.981 704.355 186.67V189.523C704.355 190.386 704.514 191.133 704.832 191.761C705.158 192.39 705.616 192.875 706.207 193.216C706.798 193.557 707.499 193.727 708.31 193.727C708.848 193.727 709.34 193.652 709.787 193.5C710.234 193.348 710.616 193.121 710.935 192.818C711.253 192.515 711.495 192.144 711.662 191.705L716.139 192C715.912 193.076 715.446 194.015 714.741 194.818C714.045 195.614 713.143 196.235 712.037 196.682C710.938 197.121 709.67 197.341 708.23 197.341ZM722.23 197.295C721.48 197.295 720.836 197.03 720.298 196.5C719.768 195.962 719.503 195.318 719.503 194.568C719.503 193.826 719.768 193.189 720.298 192.659C720.836 192.129 721.48 191.864 722.23 191.864C722.957 191.864 723.594 192.129 724.139 192.659C724.685 193.189 724.957 193.826 724.957 194.568C724.957 195.068 724.829 195.527 724.571 195.943C724.321 196.352 723.991 196.682 723.582 196.932C723.173 197.174 722.723 197.295 722.23 197.295Z" fill="white"/>
<rect y="248" width="215" height="54" rx="10" fill="#FF7A18"/>
<path d="M33.0909 281H29.1477V269.364H33.1705C34.3258 269.364 35.3182 269.597 36.1477 270.062C36.9811 270.525 37.6212 271.189 38.0682 272.057C38.5152 272.924 38.7386 273.962 38.7386 275.17C38.7386 276.383 38.5133 277.424 38.0625 278.295C37.6155 279.167 36.9697 279.835 36.125 280.301C35.2841 280.767 34.2727 281 33.0909 281ZM31.2557 279.176H32.9886C33.7992 279.176 34.4754 279.028 35.017 278.733C35.5587 278.434 35.9659 277.989 36.2386 277.398C36.5114 276.803 36.6477 276.061 36.6477 275.17C36.6477 274.28 36.5114 273.542 36.2386 272.955C35.9659 272.364 35.5625 271.922 35.0284 271.631C34.4981 271.335 33.839 271.188 33.0511 271.188H31.2557V279.176ZM40.6506 281V272.273H42.7074V281H40.6506ZM41.6847 271.034C41.3589 271.034 41.0786 270.926 40.8438 270.71C40.6089 270.491 40.4915 270.227 40.4915 269.92C40.4915 269.61 40.6089 269.347 40.8438 269.131C41.0786 268.911 41.3589 268.801 41.6847 268.801C42.0142 268.801 42.2945 268.911 42.5256 269.131C42.7604 269.347 42.8778 269.61 42.8778 269.92C42.8778 270.227 42.7604 270.491 42.5256 270.71C42.2945 270.926 42.0142 271.034 41.6847 271.034ZM51.7202 274.58L49.8452 274.784C49.7921 274.595 49.6993 274.417 49.5668 274.25C49.438 274.083 49.2637 273.949 49.044 273.847C48.8243 273.744 48.5554 273.693 48.2372 273.693C47.8092 273.693 47.4493 273.786 47.1577 273.972C46.8698 274.157 46.7277 274.398 46.7315 274.693C46.7277 274.947 46.8205 275.153 47.0099 275.312C47.2031 275.472 47.5213 275.602 47.9645 275.705L49.4531 276.023C50.2789 276.201 50.8925 276.483 51.294 276.869C51.6993 277.256 51.9039 277.761 51.9077 278.386C51.9039 278.936 51.7429 279.42 51.4247 279.841C51.1103 280.258 50.6728 280.583 50.1122 280.818C49.5516 281.053 48.9077 281.17 48.1804 281.17C47.1122 281.17 46.2524 280.947 45.6009 280.5C44.9493 280.049 44.5611 279.422 44.4361 278.619L46.4418 278.426C46.5327 278.82 46.7259 279.117 47.0213 279.318C47.3168 279.519 47.7012 279.619 48.1747 279.619C48.6634 279.619 49.0554 279.519 49.3509 279.318C49.6501 279.117 49.7997 278.869 49.7997 278.574C49.7997 278.324 49.7031 278.117 49.5099 277.955C49.3205 277.792 49.0251 277.667 48.6236 277.58L47.1349 277.267C46.2978 277.093 45.6785 276.799 45.277 276.386C44.8755 275.97 44.6766 275.443 44.6804 274.807C44.6766 274.269 44.8224 273.803 45.1179 273.409C45.4171 273.011 45.8319 272.705 46.3622 272.489C46.8963 272.269 47.5118 272.159 48.2088 272.159C49.2315 272.159 50.0365 272.377 50.6236 272.812C51.2145 273.248 51.58 273.837 51.7202 274.58ZM57.4105 281.17C56.5393 281.17 55.7912 280.979 55.1662 280.597C54.545 280.214 54.0658 279.686 53.7287 279.011C53.3954 278.333 53.2287 277.553 53.2287 276.67C53.2287 275.784 53.3991 275.002 53.7401 274.324C54.081 273.642 54.562 273.112 55.1832 272.733C55.8082 272.35 56.5469 272.159 57.3991 272.159C58.1075 272.159 58.7344 272.29 59.2798 272.551C59.8291 272.809 60.2666 273.174 60.5923 273.648C60.9181 274.117 61.1037 274.667 61.1491 275.295H59.1832C59.1037 274.875 58.9143 274.525 58.6151 274.244C58.3196 273.96 57.9238 273.818 57.4276 273.818C57.0071 273.818 56.6378 273.932 56.3196 274.159C56.0014 274.383 55.7533 274.705 55.5753 275.125C55.401 275.545 55.3139 276.049 55.3139 276.636C55.3139 277.231 55.401 277.742 55.5753 278.17C55.7495 278.595 55.9938 278.922 56.3082 279.153C56.6264 279.381 56.9995 279.494 57.4276 279.494C57.7306 279.494 58.0014 279.437 58.2401 279.324C58.4825 279.206 58.6851 279.038 58.848 278.818C59.0109 278.598 59.1226 278.331 59.1832 278.017H61.1491C61.0999 278.634 60.9181 279.182 60.6037 279.659C60.2893 280.133 59.8613 280.504 59.3196 280.773C58.7779 281.038 58.1416 281.17 57.4105 281.17ZM66.6449 281.17C65.7926 281.17 65.054 280.983 64.429 280.608C63.804 280.233 63.3191 279.708 62.9744 279.034C62.6335 278.36 62.4631 277.572 62.4631 276.67C62.4631 275.769 62.6335 274.979 62.9744 274.301C63.3191 273.623 63.804 273.097 64.429 272.722C65.054 272.347 65.7926 272.159 66.6449 272.159C67.4972 272.159 68.2358 272.347 68.8608 272.722C69.4858 273.097 69.9688 273.623 70.3097 274.301C70.6544 274.979 70.8267 275.769 70.8267 276.67C70.8267 277.572 70.6544 278.36 70.3097 279.034C69.9688 279.708 69.4858 280.233 68.8608 280.608C68.2358 280.983 67.4972 281.17 66.6449 281.17ZM66.6562 279.523C67.1184 279.523 67.5047 279.396 67.8153 279.142C68.1259 278.884 68.357 278.54 68.5085 278.108C68.6638 277.676 68.7415 277.195 68.7415 276.665C68.7415 276.131 68.6638 275.648 68.5085 275.216C68.357 274.78 68.1259 274.434 67.8153 274.176C67.5047 273.919 67.1184 273.79 66.6562 273.79C66.1828 273.79 65.7888 273.919 65.4744 274.176C65.1638 274.434 64.9309 274.78 64.7756 275.216C64.6241 275.648 64.5483 276.131 64.5483 276.665C64.5483 277.195 64.6241 277.676 64.7756 278.108C64.9309 278.54 65.1638 278.884 65.4744 279.142C65.7888 279.396 66.1828 279.523 66.6562 279.523ZM80.071 272.273L76.9631 281H74.6903L71.5824 272.273H73.7756L75.7812 278.756H75.8722L77.8835 272.273H80.071ZM85.0611 281.17C84.1861 281.17 83.4304 280.989 82.794 280.625C82.1615 280.258 81.6747 279.739 81.3338 279.068C80.9929 278.394 80.8224 277.6 80.8224 276.688C80.8224 275.79 80.9929 275.002 81.3338 274.324C81.6785 273.642 82.1596 273.112 82.777 272.733C83.3944 272.35 84.1198 272.159 84.9531 272.159C85.491 272.159 85.9986 272.246 86.4759 272.42C86.9569 272.591 87.3812 272.856 87.7486 273.216C88.1198 273.576 88.4115 274.034 88.6236 274.591C88.8357 275.144 88.9418 275.803 88.9418 276.568V277.199H81.7884V275.812H86.9702C86.9664 275.419 86.8812 275.068 86.7145 274.761C86.5478 274.451 86.3149 274.206 86.0156 274.028C85.7202 273.85 85.3755 273.761 84.9815 273.761C84.5611 273.761 84.1918 273.864 83.8736 274.068C83.5554 274.269 83.3073 274.534 83.1293 274.864C82.955 275.189 82.866 275.547 82.8622 275.938V277.148C82.8622 277.655 82.955 278.091 83.1406 278.455C83.3262 278.814 83.5857 279.091 83.919 279.284C84.2524 279.473 84.6425 279.568 85.0895 279.568C85.3887 279.568 85.6596 279.527 85.902 279.443C86.1444 279.356 86.3546 279.229 86.5327 279.062C86.7107 278.896 86.8452 278.689 86.9361 278.443L88.8565 278.659C88.7353 279.167 88.5043 279.61 88.1634 279.989C87.8262 280.364 87.3944 280.655 86.8679 280.864C86.3414 281.068 85.7391 281.17 85.0611 281.17ZM90.6818 281V272.273H92.6761V273.727H92.767C92.9261 273.223 93.1989 272.835 93.5852 272.562C93.9754 272.286 94.4205 272.148 94.9205 272.148C95.0341 272.148 95.161 272.153 95.3011 272.165C95.4451 272.172 95.5644 272.186 95.6591 272.205V274.097C95.572 274.066 95.4337 274.04 95.2443 274.017C95.0587 273.991 94.8788 273.977 94.7045 273.977C94.3295 273.977 93.9924 274.059 93.6932 274.222C93.3977 274.381 93.1648 274.602 92.9943 274.886C92.8239 275.17 92.7386 275.498 92.7386 275.869V281H90.6818ZM102.795 281L100.33 272.273H102.426L103.96 278.409H104.04L105.608 272.273H107.682L109.25 278.375H109.335L110.847 272.273H112.949L110.477 281H108.335L106.699 275.102H106.58L104.943 281H102.795ZM116.442 275.886V281H114.385V269.364H116.396V273.756H116.499C116.703 273.263 117.019 272.875 117.447 272.591C117.879 272.303 118.429 272.159 119.095 272.159C119.701 272.159 120.23 272.286 120.68 272.54C121.131 272.794 121.48 273.165 121.726 273.653C121.976 274.142 122.101 274.739 122.101 275.443V281H120.044V275.761C120.044 275.174 119.893 274.718 119.589 274.392C119.29 274.062 118.87 273.898 118.328 273.898C117.964 273.898 117.639 273.977 117.351 274.136C117.067 274.292 116.843 274.517 116.68 274.812C116.521 275.108 116.442 275.466 116.442 275.886ZM126.709 281.176C126.156 281.176 125.658 281.078 125.214 280.881C124.775 280.68 124.427 280.384 124.169 279.994C123.915 279.604 123.788 279.123 123.788 278.551C123.788 278.059 123.879 277.652 124.061 277.33C124.243 277.008 124.491 276.75 124.805 276.557C125.12 276.364 125.474 276.218 125.868 276.119C126.266 276.017 126.677 275.943 127.101 275.898C127.612 275.845 128.027 275.797 128.345 275.756C128.663 275.71 128.894 275.642 129.038 275.551C129.186 275.456 129.26 275.311 129.26 275.114V275.08C129.26 274.652 129.133 274.32 128.879 274.085C128.625 273.85 128.26 273.733 127.783 273.733C127.279 273.733 126.879 273.843 126.584 274.062C126.292 274.282 126.095 274.542 125.993 274.841L124.072 274.568C124.224 274.038 124.474 273.595 124.822 273.239C125.171 272.879 125.597 272.61 126.101 272.432C126.605 272.25 127.161 272.159 127.771 272.159C128.192 272.159 128.61 272.208 129.027 272.307C129.444 272.405 129.824 272.568 130.169 272.795C130.514 273.019 130.79 273.324 130.999 273.71C131.211 274.097 131.317 274.58 131.317 275.159V281H129.339V279.801H129.271C129.146 280.044 128.97 280.271 128.743 280.483C128.519 280.691 128.237 280.86 127.896 280.989C127.559 281.114 127.163 281.176 126.709 281.176ZM127.243 279.665C127.656 279.665 128.014 279.583 128.317 279.42C128.62 279.254 128.853 279.034 129.016 278.761C129.182 278.489 129.266 278.191 129.266 277.869V276.841C129.201 276.894 129.091 276.943 128.936 276.989C128.785 277.034 128.614 277.074 128.425 277.108C128.235 277.142 128.048 277.172 127.862 277.199C127.677 277.225 127.516 277.248 127.379 277.267C127.072 277.309 126.798 277.377 126.555 277.472C126.313 277.566 126.122 277.699 125.982 277.869C125.841 278.036 125.771 278.252 125.771 278.517C125.771 278.896 125.91 279.182 126.186 279.375C126.463 279.568 126.815 279.665 127.243 279.665ZM137.743 272.273V273.864H132.726V272.273H137.743ZM133.964 270.182H136.021V278.375C136.021 278.652 136.063 278.864 136.146 279.011C136.233 279.155 136.347 279.254 136.487 279.307C136.627 279.36 136.783 279.386 136.953 279.386C137.082 279.386 137.199 279.377 137.305 279.358C137.415 279.339 137.499 279.322 137.555 279.307L137.902 280.915C137.792 280.953 137.635 280.994 137.43 281.04C137.23 281.085 136.983 281.112 136.692 281.119C136.177 281.134 135.713 281.057 135.3 280.886C134.887 280.712 134.559 280.443 134.317 280.08C134.078 279.716 133.961 279.261 133.964 278.716V270.182ZM141.614 269.364V270.523C141.614 270.856 141.549 271.203 141.42 271.562C141.295 271.919 141.123 272.259 140.903 272.585C140.684 272.907 140.434 273.184 140.153 273.415L139.199 272.795C139.407 272.481 139.589 272.142 139.744 271.778C139.9 271.411 139.977 270.996 139.977 270.534V269.364H141.614ZM149.048 274.58L147.173 274.784C147.12 274.595 147.027 274.417 146.895 274.25C146.766 274.083 146.592 273.949 146.372 273.847C146.152 273.744 145.884 273.693 145.565 273.693C145.137 273.693 144.777 273.786 144.486 273.972C144.198 274.157 144.056 274.398 144.06 274.693C144.056 274.947 144.149 275.153 144.338 275.312C144.531 275.472 144.849 275.602 145.293 275.705L146.781 276.023C147.607 276.201 148.221 276.483 148.622 276.869C149.027 277.256 149.232 277.761 149.236 278.386C149.232 278.936 149.071 279.42 148.753 279.841C148.438 280.258 148.001 280.583 147.44 280.818C146.88 281.053 146.236 281.17 145.509 281.17C144.44 281.17 143.58 280.947 142.929 280.5C142.277 280.049 141.889 279.422 141.764 278.619L143.77 278.426C143.861 278.82 144.054 279.117 144.349 279.318C144.645 279.519 145.029 279.619 145.503 279.619C145.991 279.619 146.384 279.519 146.679 279.318C146.978 279.117 147.128 278.869 147.128 278.574C147.128 278.324 147.031 278.117 146.838 277.955C146.649 277.792 146.353 277.667 145.952 277.58L144.463 277.267C143.626 277.093 143.007 276.799 142.605 276.386C142.204 275.97 142.005 275.443 142.009 274.807C142.005 274.269 142.151 273.803 142.446 273.409C142.745 273.011 143.16 272.705 143.69 272.489C144.224 272.269 144.84 272.159 145.537 272.159C146.56 272.159 147.365 272.377 147.952 272.812C148.543 273.248 148.908 273.837 149.048 274.58ZM156.957 275.886V281H154.901V272.273H156.866V273.756H156.969C157.17 273.267 157.49 272.879 157.929 272.591C158.372 272.303 158.92 272.159 159.571 272.159C160.173 272.159 160.698 272.288 161.145 272.545C161.596 272.803 161.944 273.176 162.19 273.665C162.44 274.153 162.563 274.746 162.56 275.443V281H160.503V275.761C160.503 275.178 160.351 274.722 160.048 274.392C159.749 274.062 159.334 273.898 158.804 273.898C158.444 273.898 158.124 273.977 157.844 274.136C157.567 274.292 157.349 274.517 157.19 274.812C157.035 275.108 156.957 275.466 156.957 275.886ZM168.514 281.17C167.639 281.17 166.884 280.989 166.247 280.625C165.615 280.258 165.128 279.739 164.787 279.068C164.446 278.394 164.276 277.6 164.276 276.688C164.276 275.79 164.446 275.002 164.787 274.324C165.132 273.642 165.613 273.112 166.23 272.733C166.848 272.35 167.573 272.159 168.406 272.159C168.944 272.159 169.452 272.246 169.929 272.42C170.41 272.591 170.834 272.856 171.202 273.216C171.573 273.576 171.865 274.034 172.077 274.591C172.289 275.144 172.395 275.803 172.395 276.568V277.199H165.241V275.812H170.423C170.42 275.419 170.334 275.068 170.168 274.761C170.001 274.451 169.768 274.206 169.469 274.028C169.173 273.85 168.829 273.761 168.435 273.761C168.014 273.761 167.645 273.864 167.327 274.068C167.009 274.269 166.76 274.534 166.582 274.864C166.408 275.189 166.319 275.547 166.315 275.938V277.148C166.315 277.655 166.408 278.091 166.594 278.455C166.779 278.814 167.039 279.091 167.372 279.284C167.705 279.473 168.096 279.568 168.543 279.568C168.842 279.568 169.113 279.527 169.355 279.443C169.598 279.356 169.808 279.229 169.986 279.062C170.164 278.896 170.298 278.689 170.389 278.443L172.31 278.659C172.188 279.167 171.957 279.61 171.616 279.989C171.279 280.364 170.848 280.655 170.321 280.864C169.795 281.068 169.192 281.17 168.514 281.17ZM175.889 281L173.423 272.273H175.52L177.054 278.409H177.134L178.702 272.273H180.776L182.344 278.375H182.429L183.94 272.273H186.043L183.571 281H181.429L179.793 275.102H179.673L178.037 281H175.889Z" fill="white"/>
</svg>
