<svg width="64" height="108" viewBox="0 0 64 108" fill="none" xmlns="http://www.w3.org/2000/svg">
<rect x="0.5" y="0.5" width="63" height="107" rx="4.5" stroke="#8A38F5" stroke-dasharray="10 5"/>
<path d="M32 23.75C30.22 23.75 28.4799 24.2778 26.9999 25.2668C25.5198 26.2557 24.3663 27.6613 23.6851 29.3059C23.0039 30.9504 22.8257 32.76 23.1729 34.5058C23.5202 36.2516 24.3774 37.8553 25.636 39.114C26.8947 40.3726 28.4984 41.2298 30.2442 41.5771C31.99 41.9243 33.7996 41.7461 35.4442 41.0649C37.0887 40.3837 38.4943 39.2302 39.4832 37.7501C40.4722 36.2701 41 34.53 41 32.75C40.9973 30.3639 40.0482 28.0763 38.361 26.3891C36.6737 24.7018 34.3861 23.7527 32 23.75ZM32 40.25C30.5166 40.25 29.0666 39.8101 27.8332 38.986C26.5999 38.1619 25.6386 36.9906 25.0709 35.6201C24.5033 34.2497 24.3547 32.7417 24.6441 31.2868C24.9335 29.832 25.6478 28.4956 26.6967 27.4467C27.7456 26.3978 29.082 25.6835 30.5368 25.3941C31.9917 25.1047 33.4997 25.2532 34.8701 25.8209C36.2406 26.3886 37.4119 27.3499 38.236 28.5832C39.0601 29.8166 39.5 31.2666 39.5 32.75C39.4978 34.7384 38.7069 36.6448 37.3008 38.0508C35.8948 39.4569 33.9884 40.2478 32 40.25ZM36.2806 28.4694C36.3504 28.539 36.4057 28.6217 36.4434 28.7128C36.4812 28.8038 36.5006 28.9014 36.5006 29C36.5006 29.0986 36.4812 29.1962 36.4434 29.2872C36.4057 29.3783 36.3504 29.461 36.2806 29.5306L32.5306 33.2806C32.4609 33.3503 32.3782 33.4056 32.2872 33.4433C32.1961 33.481 32.0986 33.5004 32 33.5004C31.9015 33.5004 31.8039 33.481 31.7128 33.4433C31.6218 33.4056 31.5391 33.3503 31.4694 33.2806C31.3997 33.2109 31.3444 33.1282 31.3067 33.0372C31.269 32.9461 31.2496 32.8485 31.2496 32.75C31.2496 32.6515 31.269 32.5539 31.3067 32.4628C31.3444 32.3718 31.3997 32.2891 31.4694 32.2194L35.2194 28.4694C35.289 28.3996 35.3718 28.3443 35.4628 28.3066C35.5538 28.2688 35.6514 28.2494 35.75 28.2494C35.8486 28.2494 35.9462 28.2688 36.0372 28.3066C36.1283 28.3443 36.211 28.3996 36.2806 28.4694ZM29 21.5C29 21.3011 29.079 21.1103 29.2197 20.9697C29.3603 20.829 29.5511 20.75 29.75 20.75H34.25C34.4489 20.75 34.6397 20.829 34.7803 20.9697C34.921 21.1103 35 21.3011 35 21.5C35 21.6989 34.921 21.8897 34.7803 22.0303C34.6397 22.171 34.4489 22.25 34.25 22.25H29.75C29.5511 22.25 29.3603 22.171 29.2197 22.0303C29.079 21.8897 29 21.6989 29 21.5Z" fill="#1E88E5"/>
<path d="M32 67.75C30.22 67.75 28.4799 68.2778 26.9999 69.2668C25.5198 70.2557 24.3663 71.6613 23.6851 73.3059C23.0039 74.9504 22.8257 76.76 23.1729 78.5058C23.5202 80.2516 24.3774 81.8553 25.636 83.114C26.8947 84.3726 28.4984 85.2298 30.2442 85.5771C31.99 85.9243 33.7996 85.7461 35.4442 85.0649C37.0887 84.3837 38.4943 83.2302 39.4832 81.7501C40.4722 80.2701 41 78.53 41 76.75C40.9973 74.3639 40.0482 72.0763 38.361 70.3891C36.6737 68.7018 34.3861 67.7527 32 67.75ZM32 84.25C30.5166 84.25 29.0666 83.8101 27.8332 82.986C26.5999 82.1619 25.6386 80.9906 25.0709 79.6201C24.5033 78.2497 24.3547 76.7417 24.6441 75.2868C24.9335 73.832 25.6478 72.4956 26.6967 71.4467C27.7456 70.3978 29.082 69.6835 30.5368 69.3941C31.9917 69.1047 33.4997 69.2532 34.8701 69.8209C36.2406 70.3886 37.4119 71.3499 38.236 72.5832C39.0601 73.8166 39.5 75.2666 39.5 76.75C39.4978 78.7384 38.7069 80.6448 37.3008 82.0508C35.8948 83.4569 33.9884 84.2478 32 84.25ZM36.2806 72.4694C36.3504 72.539 36.4057 72.6217 36.4434 72.7128C36.4812 72.8038 36.5006 72.9014 36.5006 73C36.5006 73.0986 36.4812 73.1962 36.4434 73.2872C36.4057 73.3783 36.3504 73.461 36.2806 73.5306L32.5306 77.2806C32.4609 77.3503 32.3782 77.4056 32.2872 77.4433C32.1961 77.481 32.0986 77.5004 32 77.5004C31.9015 77.5004 31.8039 77.481 31.7128 77.4433C31.6218 77.4056 31.5391 77.3503 31.4694 77.2806C31.3997 77.2109 31.3444 77.1282 31.3067 77.0372C31.269 76.9461 31.2496 76.8485 31.2496 76.75C31.2496 76.6515 31.269 76.5539 31.3067 76.4628C31.3444 76.3718 31.3997 76.2891 31.4694 76.2194L35.2194 72.4694C35.289 72.3996 35.3718 72.3443 35.4628 72.3066C35.5538 72.2688 35.6514 72.2494 35.75 72.2494C35.8486 72.2494 35.9462 72.2688 36.0372 72.3066C36.1283 72.3443 36.211 72.3996 36.2806 72.4694ZM29 65.5C29 65.3011 29.079 65.1103 29.2197 64.9697C29.3603 64.829 29.5511 64.75 29.75 64.75H34.25C34.4489 64.75 34.6397 64.829 34.7803 64.9697C34.921 65.1103 35 65.3011 35 65.5C35 65.6989 34.921 65.8897 34.7803 66.0303C34.6397 66.171 34.4489 66.25 34.25 66.25H29.75C29.5511 66.25 29.3603 66.171 29.2197 66.0303C29.079 65.8897 29 65.6989 29 65.5Z" fill="#1E88E5"/>
</svg>
