<svg width="1069" height="78" viewBox="0 0 1069 78" fill="none" xmlns="http://www.w3.org/2000/svg">
<rect width="1069" height="78" rx="8" fill="white"/>
<path d="M37 37L31.0001 31M33 26C33 29.866 29.866 33 26 33C22.134 33 19 29.866 19 26C19 22.134 22.134 19 26 19C29.866 19 33 22.134 33 26Z" stroke="#807373" stroke-width="2" stroke-linecap="round" stroke-linejoin="round"/>
<path d="M83.3949 48L78.4688 30.5455H81.8693L85.0142 43.3722H85.1761L88.5341 30.5455H91.6278L94.9943 43.3807H95.1477L98.2926 30.5455H101.693L96.767 48H93.6477L90.1534 35.7528H90.017L86.5142 48H83.3949ZM106.835 40.3295V48H103.749V30.5455H106.766V37.1335H106.92C107.227 36.3949 107.701 35.8125 108.343 35.3864C108.991 34.9545 109.815 34.7386 110.815 34.7386C111.724 34.7386 112.516 34.929 113.192 35.3097C113.869 35.6903 114.391 36.2472 114.761 36.9801C115.136 37.7131 115.323 38.608 115.323 39.6648V48H112.238V40.142C112.238 39.2614 112.011 38.5767 111.556 38.0881C111.107 37.5937 110.477 37.3466 109.664 37.3466C109.119 37.3466 108.63 37.4659 108.198 37.7045C107.772 37.9375 107.437 38.2756 107.192 38.7188C106.954 39.1619 106.835 39.6989 106.835 40.3295ZM122.235 48.2642C121.406 48.2642 120.658 48.1165 119.994 47.821C119.335 47.5199 118.812 47.0767 118.425 46.4915C118.045 45.9062 117.854 45.1847 117.854 44.3267C117.854 43.5881 117.991 42.9773 118.263 42.4943C118.536 42.0114 118.908 41.625 119.38 41.3352C119.852 41.0455 120.383 40.8267 120.974 40.679C121.57 40.5256 122.187 40.4148 122.823 40.3466C123.59 40.267 124.212 40.196 124.69 40.1335C125.167 40.0653 125.513 39.9631 125.729 39.8267C125.951 39.6847 126.062 39.4659 126.062 39.1705V39.1193C126.062 38.4773 125.871 37.9801 125.491 37.6278C125.11 37.2756 124.562 37.0994 123.846 37.0994C123.09 37.0994 122.491 37.2642 122.048 37.5938C121.61 37.9233 121.315 38.3125 121.161 38.7614L118.281 38.3523C118.508 37.5568 118.883 36.892 119.406 36.358C119.928 35.8182 120.567 35.4148 121.323 35.1477C122.079 34.875 122.914 34.7386 123.829 34.7386C124.46 34.7386 125.087 34.8125 125.712 34.9602C126.337 35.108 126.908 35.3523 127.425 35.6932C127.942 36.0284 128.357 36.4858 128.67 37.0653C128.988 37.6449 129.147 38.3693 129.147 39.2386V48H126.181V46.2017H126.079C125.891 46.5653 125.627 46.9062 125.286 47.2244C124.951 47.5369 124.528 47.7898 124.016 47.983C123.511 48.1705 122.917 48.2642 122.235 48.2642ZM123.036 45.9972C123.656 45.9972 124.192 45.875 124.647 45.6307C125.102 45.3807 125.451 45.0511 125.695 44.642C125.945 44.233 126.07 43.7869 126.07 43.304V41.7614C125.974 41.8409 125.809 41.9148 125.576 41.983C125.349 42.0511 125.093 42.1108 124.809 42.1619C124.525 42.2131 124.244 42.2585 123.965 42.2983C123.687 42.3381 123.445 42.3722 123.241 42.4006C122.781 42.4631 122.369 42.5653 122.005 42.7074C121.641 42.8494 121.354 43.0483 121.144 43.304C120.934 43.554 120.829 43.8778 120.829 44.2756C120.829 44.8438 121.036 45.2727 121.451 45.5625C121.866 45.8523 122.394 45.9972 123.036 45.9972ZM138.786 34.9091V37.2955H131.261V34.9091H138.786ZM133.119 31.7727H136.204V44.0625C136.204 44.4773 136.266 44.7955 136.391 45.017C136.522 45.233 136.692 45.3807 136.903 45.4602C137.113 45.5398 137.346 45.5795 137.602 45.5795C137.795 45.5795 137.971 45.5653 138.13 45.5369C138.295 45.5085 138.42 45.483 138.505 45.4602L139.025 47.8722C138.86 47.929 138.624 47.9915 138.317 48.0597C138.016 48.1278 137.647 48.1676 137.21 48.179C136.437 48.2017 135.741 48.0852 135.121 47.8295C134.502 47.5682 134.011 47.1648 133.647 46.6193C133.289 46.0739 133.113 45.392 133.119 44.5739V31.7727ZM151.087 48.2642C150.257 48.2642 149.51 48.1165 148.845 47.821C148.186 47.5199 147.663 47.0767 147.277 46.4915C146.896 45.9062 146.706 45.1847 146.706 44.3267C146.706 43.5881 146.842 42.9773 147.115 42.4943C147.388 42.0114 147.76 41.625 148.232 41.3352C148.703 41.0455 149.234 40.8267 149.825 40.679C150.422 40.5256 151.038 40.4148 151.675 40.3466C152.442 40.267 153.064 40.196 153.541 40.1335C154.018 40.0653 154.365 39.9631 154.581 39.8267C154.803 39.6847 154.913 39.4659 154.913 39.1705V39.1193C154.913 38.4773 154.723 37.9801 154.342 37.6278C153.962 37.2756 153.413 37.0994 152.697 37.0994C151.942 37.0994 151.342 37.2642 150.899 37.5938C150.462 37.9233 150.166 38.3125 150.013 38.7614L147.132 38.3523C147.359 37.5568 147.734 36.892 148.257 36.358C148.78 35.8182 149.419 35.4148 150.175 35.1477C150.93 34.875 151.766 34.7386 152.68 34.7386C153.311 34.7386 153.939 34.8125 154.564 34.9602C155.189 35.108 155.76 35.3523 156.277 35.6932C156.794 36.0284 157.209 36.4858 157.521 37.0653C157.839 37.6449 157.999 38.3693 157.999 39.2386V48H155.033V46.2017H154.93C154.743 46.5653 154.479 46.9062 154.138 47.2244C153.803 47.5369 153.379 47.7898 152.868 47.983C152.362 48.1705 151.768 48.2642 151.087 48.2642ZM151.888 45.9972C152.507 45.9972 153.044 45.875 153.499 45.6307C153.953 45.3807 154.303 45.0511 154.547 44.642C154.797 44.233 154.922 43.7869 154.922 43.304V41.7614C154.825 41.8409 154.661 41.9148 154.428 41.983C154.2 42.0511 153.945 42.1108 153.661 42.1619C153.376 42.2131 153.095 42.2585 152.817 42.2983C152.538 42.3381 152.297 42.3722 152.092 42.4006C151.632 42.4631 151.22 42.5653 150.857 42.7074C150.493 42.8494 150.206 43.0483 149.996 43.304C149.786 43.554 149.68 43.8778 149.68 44.2756C149.68 44.8438 149.888 45.2727 150.303 45.5625C150.717 45.8523 151.246 45.9972 151.888 45.9972ZM161.101 48V34.9091H164.092V37.0909H164.229C164.467 36.3352 164.876 35.7528 165.456 35.3438C166.041 34.929 166.709 34.7216 167.459 34.7216C167.629 34.7216 167.82 34.7301 168.03 34.7472C168.246 34.7585 168.425 34.7784 168.567 34.8068V37.6449C168.436 37.5994 168.229 37.5597 167.945 37.5256C167.666 37.4858 167.396 37.4659 167.135 37.4659C166.572 37.4659 166.067 37.5881 165.618 37.8324C165.175 38.071 164.825 38.4034 164.57 38.8295C164.314 39.2557 164.186 39.7472 164.186 40.304V48H161.101ZM175.873 48.2557C174.56 48.2557 173.427 47.983 172.472 47.4375C171.523 46.8864 170.793 46.108 170.282 45.1023C169.771 44.0909 169.515 42.9006 169.515 41.5312C169.515 40.1847 169.771 39.0028 170.282 37.9858C170.799 36.9631 171.521 36.1676 172.447 35.5994C173.373 35.0256 174.461 34.7386 175.711 34.7386C176.518 34.7386 177.279 34.8693 177.995 35.1307C178.717 35.3864 179.353 35.7841 179.904 36.3239C180.461 36.8636 180.898 37.5511 181.217 38.3864C181.535 39.2159 181.694 40.2045 181.694 41.3523V42.2983H170.964V40.2188H178.737C178.731 39.6278 178.603 39.1023 178.353 38.642C178.103 38.1761 177.754 37.8097 177.305 37.5426C176.862 37.2756 176.344 37.142 175.754 37.142C175.123 37.142 174.569 37.2955 174.092 37.6023C173.614 37.9034 173.242 38.3011 172.975 38.7955C172.714 39.2841 172.58 39.821 172.575 40.4062V42.2216C172.575 42.983 172.714 43.6364 172.992 44.1818C173.271 44.7216 173.66 45.1364 174.16 45.4261C174.66 45.7102 175.245 45.8523 175.915 45.8523C176.364 45.8523 176.771 45.7898 177.134 45.6648C177.498 45.5341 177.813 45.3438 178.08 45.0938C178.347 44.8438 178.549 44.5341 178.685 44.1648L181.566 44.4886C181.384 45.25 181.038 45.9148 180.526 46.483C180.021 47.0455 179.373 47.483 178.583 47.7955C177.793 48.1023 176.89 48.2557 175.873 48.2557ZM192.175 52.9091C191.754 52.9091 191.365 52.875 191.007 52.8068C190.655 52.7443 190.374 52.6705 190.163 52.5852L190.879 50.1818C191.328 50.3125 191.729 50.375 192.081 50.3693C192.433 50.3636 192.743 50.2528 193.01 50.0369C193.283 49.8267 193.513 49.4744 193.7 48.9801L193.964 48.2727L189.217 34.9091H192.49L195.507 44.7955H195.643L198.669 34.9091H201.95L196.709 49.5852C196.464 50.2784 196.141 50.8722 195.737 51.3665C195.334 51.8665 194.839 52.2472 194.254 52.5085C193.675 52.7756 192.982 52.9091 192.175 52.9091ZM209.35 48.2557C208.072 48.2557 206.964 47.9744 206.026 47.4119C205.089 46.8494 204.362 46.0625 203.844 45.0511C203.333 44.0398 203.077 42.858 203.077 41.5057C203.077 40.1534 203.333 38.9687 203.844 37.9517C204.362 36.9347 205.089 36.1449 206.026 35.5824C206.964 35.0199 208.072 34.7386 209.35 34.7386C210.629 34.7386 211.737 35.0199 212.674 35.5824C213.612 36.1449 214.336 36.9347 214.847 37.9517C215.364 38.9687 215.623 40.1534 215.623 41.5057C215.623 42.858 215.364 44.0398 214.847 45.0511C214.336 46.0625 213.612 46.8494 212.674 47.4119C211.737 47.9744 210.629 48.2557 209.35 48.2557ZM209.367 45.7841C210.06 45.7841 210.64 45.5937 211.106 45.2131C211.572 44.8267 211.918 44.3097 212.146 43.6619C212.379 43.0142 212.495 42.2926 212.495 41.4972C212.495 40.696 212.379 39.9716 212.146 39.3239C211.918 38.6705 211.572 38.1506 211.106 37.7642C210.64 37.3778 210.06 37.1847 209.367 37.1847C208.657 37.1847 208.066 37.3778 207.594 37.7642C207.129 38.1506 206.779 38.6705 206.546 39.3239C206.319 39.9716 206.205 40.696 206.205 41.4972C206.205 42.2926 206.319 43.0142 206.546 43.6619C206.779 44.3097 207.129 44.8267 207.594 45.2131C208.066 45.5937 208.657 45.7841 209.367 45.7841ZM226.585 42.4943V34.9091H229.67V48H226.679V45.6733H226.543C226.247 46.4062 225.761 47.0057 225.085 47.4716C224.415 47.9375 223.588 48.1705 222.605 48.1705C221.747 48.1705 220.989 47.9801 220.33 47.5994C219.676 47.2131 219.165 46.6534 218.795 45.9205C218.426 45.1818 218.241 44.2898 218.241 43.2443V34.9091H221.327V42.767C221.327 43.5966 221.554 44.2557 222.009 44.7443C222.463 45.233 223.06 45.4773 223.798 45.4773C224.253 45.4773 224.693 45.3665 225.119 45.1449C225.545 44.9233 225.895 44.5938 226.168 44.1562C226.446 43.7131 226.585 43.1591 226.585 42.4943ZM244.506 48.2557C243.2 48.2557 242.077 47.9688 241.14 47.3949C240.208 46.821 239.489 46.0284 238.984 45.017C238.484 44 238.234 42.8295 238.234 41.5057C238.234 40.1761 238.489 39.0028 239.001 37.9858C239.512 36.9631 240.234 36.1676 241.165 35.5994C242.103 35.0256 243.211 34.7386 244.489 34.7386C245.552 34.7386 246.492 34.9347 247.31 35.3267C248.134 35.7131 248.79 36.2614 249.279 36.9716C249.768 37.6761 250.046 38.5 250.114 39.4432H247.165C247.046 38.8125 246.762 38.2869 246.313 37.8665C245.87 37.4403 245.276 37.2273 244.532 37.2273C243.901 37.2273 243.347 37.3977 242.87 37.7386C242.393 38.0739 242.021 38.5568 241.754 39.1875C241.492 39.8182 241.362 40.5739 241.362 41.4545C241.362 42.3466 241.492 43.1136 241.754 43.7557C242.015 44.392 242.381 44.8835 242.853 45.2301C243.33 45.571 243.89 45.7415 244.532 45.7415C244.987 45.7415 245.393 45.6562 245.751 45.4858C246.114 45.3097 246.418 45.0568 246.663 44.7273C246.907 44.3977 247.075 43.9972 247.165 43.5256H250.114C250.04 44.4517 249.768 45.2727 249.296 45.9886C248.825 46.6989 248.183 47.2557 247.37 47.6591C246.558 48.0568 245.603 48.2557 244.506 48.2557ZM252.648 48V34.9091H255.639V37.0909H255.776C256.014 36.3352 256.423 35.7528 257.003 35.3438C257.588 34.929 258.256 34.7216 259.006 34.7216C259.176 34.7216 259.366 34.7301 259.577 34.7472C259.793 34.7585 259.972 34.7784 260.114 34.8068V37.6449C259.983 37.5994 259.776 37.5597 259.491 37.5256C259.213 37.4858 258.943 37.4659 258.682 37.4659C258.119 37.4659 257.614 37.5881 257.165 37.8324C256.722 38.071 256.372 38.4034 256.116 38.8295C255.861 39.2557 255.733 39.7472 255.733 40.304V48H252.648ZM265.696 48.2642C264.866 48.2642 264.119 48.1165 263.455 47.821C262.795 47.5199 262.273 47.0767 261.886 46.4915C261.506 45.9062 261.315 45.1847 261.315 44.3267C261.315 43.5881 261.452 42.9773 261.724 42.4943C261.997 42.0114 262.369 41.625 262.841 41.3352C263.313 41.0455 263.844 40.8267 264.435 40.679C265.031 40.5256 265.648 40.4148 266.284 40.3466C267.051 40.267 267.673 40.196 268.151 40.1335C268.628 40.0653 268.974 39.9631 269.19 39.8267C269.412 39.6847 269.523 39.4659 269.523 39.1705V39.1193C269.523 38.4773 269.332 37.9801 268.952 37.6278C268.571 37.2756 268.023 37.0994 267.307 37.0994C266.551 37.0994 265.952 37.2642 265.509 37.5938C265.071 37.9233 264.776 38.3125 264.622 38.7614L261.741 38.3523C261.969 37.5568 262.344 36.892 262.866 36.358C263.389 35.8182 264.028 35.4148 264.784 35.1477C265.54 34.875 266.375 34.7386 267.29 34.7386C267.92 34.7386 268.548 34.8125 269.173 34.9602C269.798 35.108 270.369 35.3523 270.886 35.6932C271.403 36.0284 271.818 36.4858 272.131 37.0653C272.449 37.6449 272.608 38.3693 272.608 39.2386V48H269.642V46.2017H269.54C269.352 46.5653 269.088 46.9062 268.747 47.2244C268.412 47.5369 267.989 47.7898 267.477 47.983C266.972 48.1705 266.378 48.2642 265.696 48.2642ZM266.497 45.9972C267.116 45.9972 267.653 45.875 268.108 45.6307C268.563 45.3807 268.912 45.0511 269.156 44.642C269.406 44.233 269.531 43.7869 269.531 43.304V41.7614C269.435 41.8409 269.27 41.9148 269.037 41.983C268.81 42.0511 268.554 42.1108 268.27 42.1619C267.986 42.2131 267.705 42.2585 267.426 42.2983C267.148 42.3381 266.906 42.3722 266.702 42.4006C266.241 42.4631 265.83 42.5653 265.466 42.7074C265.102 42.8494 264.815 43.0483 264.605 43.304C264.395 43.554 264.29 43.8778 264.29 44.2756C264.29 44.8438 264.497 45.2727 264.912 45.5625C265.327 45.8523 265.855 45.9972 266.497 45.9972ZM286.935 34.9091L282.273 48H278.864L274.202 34.9091H277.491L280.5 44.6335H280.636L283.653 34.9091H286.935ZM289.07 48V34.9091H292.155V48H289.07ZM290.621 33.0511C290.132 33.0511 289.712 32.8892 289.359 32.5653C289.007 32.2358 288.831 31.8409 288.831 31.3807C288.831 30.9148 289.007 30.5199 289.359 30.196C289.712 29.8665 290.132 29.7017 290.621 29.7017C291.115 29.7017 291.536 29.8665 291.882 30.196C292.234 30.5199 292.411 30.9148 292.411 31.3807C292.411 31.8409 292.234 32.2358 291.882 32.5653C291.536 32.8892 291.115 33.0511 290.621 33.0511ZM298.413 40.3295V48H295.327V34.9091H298.276V37.1335H298.43C298.731 36.4006 299.211 35.8182 299.87 35.3864C300.535 34.9545 301.356 34.7386 302.333 34.7386C303.237 34.7386 304.023 34.9318 304.694 35.3182C305.37 35.7045 305.893 36.2642 306.262 36.9972C306.637 37.7301 306.822 38.6193 306.816 39.6648V48H303.731V40.142C303.731 39.267 303.504 38.5824 303.049 38.0881C302.6 37.5937 301.978 37.3466 301.183 37.3466C300.643 37.3466 300.163 37.4659 299.742 37.7045C299.327 37.9375 299.001 38.2756 298.762 38.7188C298.529 39.1619 298.413 39.6989 298.413 40.3295ZM315.646 53.1818C314.538 53.1818 313.586 53.0313 312.79 52.7301C311.995 52.4347 311.356 52.0369 310.873 51.5369C310.39 51.0369 310.055 50.483 309.867 49.875L312.646 49.2017C312.771 49.4574 312.952 49.7102 313.191 49.9602C313.43 50.2159 313.751 50.4261 314.154 50.5909C314.563 50.7614 315.077 50.8466 315.697 50.8466C316.572 50.8466 317.296 50.6335 317.87 50.2074C318.444 49.7869 318.731 49.0938 318.731 48.1278V45.6477H318.577C318.418 45.9659 318.185 46.2926 317.879 46.6278C317.577 46.9631 317.177 47.2443 316.677 47.4716C316.183 47.6989 315.56 47.8125 314.81 47.8125C313.805 47.8125 312.893 47.5767 312.075 47.1051C311.262 46.6278 310.614 45.9176 310.131 44.9744C309.654 44.0256 309.415 42.8381 309.415 41.4119C309.415 39.9744 309.654 38.7614 310.131 37.7727C310.614 36.7784 311.265 36.0256 312.083 35.5142C312.901 34.9972 313.813 34.7386 314.819 34.7386C315.586 34.7386 316.217 34.8693 316.711 35.1307C317.211 35.3864 317.609 35.696 317.904 36.0597C318.2 36.4176 318.424 36.7557 318.577 37.0739H318.748V34.9091H321.79V48.2131C321.79 49.3324 321.523 50.2585 320.989 50.9915C320.455 51.7244 319.725 52.2727 318.799 52.6364C317.873 53 316.822 53.1818 315.646 53.1818ZM315.671 45.392C316.325 45.392 316.881 45.233 317.342 44.9148C317.802 44.5966 318.151 44.1392 318.39 43.5426C318.629 42.946 318.748 42.2301 318.748 41.3949C318.748 40.571 318.629 39.8494 318.39 39.2301C318.157 38.6108 317.81 38.1307 317.35 37.7898C316.896 37.4432 316.336 37.2699 315.671 37.2699C314.984 37.2699 314.41 37.4489 313.95 37.8068C313.489 38.1648 313.143 38.6562 312.91 39.2812C312.677 39.9006 312.56 40.6051 312.56 41.3949C312.56 42.196 312.677 42.8977 312.91 43.5C313.148 44.0966 313.498 44.5625 313.958 44.8977C314.424 45.2273 314.995 45.392 315.671 45.392ZM337.536 34.9091V37.2955H329.798V34.9091H337.536ZM331.732 48V33.6733C331.732 32.7926 331.914 32.0597 332.278 31.4744C332.647 30.8892 333.141 30.4517 333.761 30.1619C334.38 29.8722 335.067 29.7273 335.823 29.7273C336.357 29.7273 336.832 29.7699 337.246 29.8551C337.661 29.9403 337.968 30.017 338.167 30.0852L337.553 32.4716C337.423 32.4318 337.258 32.392 337.059 32.3523C336.86 32.3068 336.638 32.2841 336.394 32.2841C335.82 32.2841 335.414 32.4233 335.175 32.7017C334.942 32.9744 334.826 33.3665 334.826 33.8778V48H331.732ZM345.17 48.2557C343.892 48.2557 342.784 47.9744 341.847 47.4119C340.909 46.8494 340.182 46.0625 339.665 45.0511C339.153 44.0398 338.898 42.858 338.898 41.5057C338.898 40.1534 339.153 38.9687 339.665 37.9517C340.182 36.9347 340.909 36.1449 341.847 35.5824C342.784 35.0199 343.892 34.7386 345.17 34.7386C346.449 34.7386 347.557 35.0199 348.494 35.5824C349.432 36.1449 350.156 36.9347 350.668 37.9517C351.185 38.9687 351.443 40.1534 351.443 41.5057C351.443 42.858 351.185 44.0398 350.668 45.0511C350.156 46.0625 349.432 46.8494 348.494 47.4119C347.557 47.9744 346.449 48.2557 345.17 48.2557ZM345.188 45.7841C345.881 45.7841 346.46 45.5937 346.926 45.2131C347.392 44.8267 347.739 44.3097 347.966 43.6619C348.199 43.0142 348.315 42.2926 348.315 41.4972C348.315 40.696 348.199 39.9716 347.966 39.3239C347.739 38.6705 347.392 38.1506 346.926 37.7642C346.46 37.3778 345.881 37.1847 345.188 37.1847C344.477 37.1847 343.886 37.3778 343.415 37.7642C342.949 38.1506 342.599 38.6705 342.366 39.3239C342.139 39.9716 342.026 40.696 342.026 41.4972C342.026 42.2926 342.139 43.0142 342.366 43.6619C342.599 44.3097 342.949 44.8267 343.415 45.2131C343.886 45.5937 344.477 45.7841 345.188 45.7841ZM354.062 48V34.9091H357.053V37.0909H357.19C357.428 36.3352 357.837 35.7528 358.417 35.3438C359.002 34.929 359.67 34.7216 360.42 34.7216C360.59 34.7216 360.781 34.7301 360.991 34.7472C361.207 34.7585 361.386 34.7784 361.528 34.8068V37.6449C361.397 37.5994 361.19 37.5597 360.906 37.5256C360.627 37.4858 360.357 37.4659 360.096 37.4659C359.533 37.4659 359.028 37.5881 358.579 37.8324C358.136 38.071 357.786 38.4034 357.531 38.8295C357.275 39.2557 357.147 39.7472 357.147 40.304V48H354.062ZM376.067 34.9091V37.2955H368.542V34.9091H376.067ZM370.4 31.7727H373.485V44.0625C373.485 44.4773 373.548 44.7955 373.673 45.017C373.803 45.233 373.974 45.3807 374.184 45.4602C374.394 45.5398 374.627 45.5795 374.883 45.5795C375.076 45.5795 375.252 45.5653 375.411 45.5369C375.576 45.5085 375.701 45.483 375.786 45.4602L376.306 47.8722C376.141 47.929 375.906 47.9915 375.599 48.0597C375.298 48.1278 374.928 48.1676 374.491 48.179C373.718 48.2017 373.022 48.0852 372.403 47.8295C371.783 47.5682 371.292 47.1648 370.928 46.6193C370.57 46.0739 370.394 45.392 370.4 44.5739V31.7727ZM384.217 48.2557C382.939 48.2557 381.831 47.9744 380.893 47.4119C379.956 46.8494 379.229 46.0625 378.712 45.0511C378.2 44.0398 377.945 42.858 377.945 41.5057C377.945 40.1534 378.2 38.9687 378.712 37.9517C379.229 36.9347 379.956 36.1449 380.893 35.5824C381.831 35.0199 382.939 34.7386 384.217 34.7386C385.496 34.7386 386.604 35.0199 387.541 35.5824C388.479 36.1449 389.203 36.9347 389.714 37.9517C390.232 38.9687 390.49 40.1534 390.49 41.5057C390.49 42.858 390.232 44.0398 389.714 45.0511C389.203 46.0625 388.479 46.8494 387.541 47.4119C386.604 47.9744 385.496 48.2557 384.217 48.2557ZM384.234 45.7841C384.928 45.7841 385.507 45.5937 385.973 45.2131C386.439 44.8267 386.786 44.3097 387.013 43.6619C387.246 43.0142 387.362 42.2926 387.362 41.4972C387.362 40.696 387.246 39.9716 387.013 39.3239C386.786 38.6705 386.439 38.1506 385.973 37.7642C385.507 37.3778 384.928 37.1847 384.234 37.1847C383.524 37.1847 382.933 37.3778 382.462 37.7642C381.996 38.1506 381.646 38.6705 381.413 39.3239C381.186 39.9716 381.072 40.696 381.072 41.4972C381.072 42.2926 381.186 43.0142 381.413 43.6619C381.646 44.3097 381.996 44.8267 382.462 45.2131C382.933 45.5937 383.524 45.7841 384.234 45.7841ZM397.967 48.2301C396.938 48.2301 396.018 47.9659 395.205 47.4375C394.393 46.9091 393.751 46.142 393.279 45.1364C392.808 44.1307 392.572 42.9091 392.572 41.4716C392.572 40.017 392.81 38.7898 393.288 37.7898C393.771 36.7841 394.421 36.0256 395.239 35.5142C396.058 34.9972 396.969 34.7386 397.975 34.7386C398.742 34.7386 399.373 34.8693 399.867 35.1307C400.362 35.3864 400.754 35.696 401.043 36.0597C401.333 36.4176 401.558 36.7557 401.717 37.0739H401.844V30.5455H404.938V48H401.904V45.9375H401.717C401.558 46.2557 401.327 46.5937 401.026 46.9517C400.725 47.304 400.327 47.6051 399.833 47.8551C399.339 48.1051 398.717 48.2301 397.967 48.2301ZM398.827 45.6989C399.481 45.6989 400.038 45.5227 400.498 45.1705C400.958 44.8125 401.308 44.3153 401.546 43.679C401.785 43.0426 401.904 42.3011 401.904 41.4545C401.904 40.608 401.785 39.8722 401.546 39.2472C401.313 38.6222 400.967 38.1364 400.506 37.7898C400.052 37.4432 399.492 37.2699 398.827 37.2699C398.14 37.2699 397.566 37.4489 397.106 37.8068C396.646 38.1648 396.299 38.6591 396.066 39.2898C395.833 39.9205 395.717 40.642 395.717 41.4545C395.717 42.2727 395.833 43.0028 396.066 43.6449C396.305 44.2812 396.654 44.7841 397.114 45.1534C397.58 45.517 398.151 45.6989 398.827 45.6989ZM411.993 48.2642C411.163 48.2642 410.416 48.1165 409.751 47.821C409.092 47.5199 408.57 47.0767 408.183 46.4915C407.803 45.9062 407.612 45.1847 407.612 44.3267C407.612 43.5881 407.749 42.9773 408.021 42.4943C408.294 42.0114 408.666 41.625 409.138 41.3352C409.609 41.0455 410.141 40.8267 410.732 40.679C411.328 40.5256 411.945 40.4148 412.581 40.3466C413.348 40.267 413.97 40.196 414.447 40.1335C414.925 40.0653 415.271 39.9631 415.487 39.8267C415.709 39.6847 415.82 39.4659 415.82 39.1705V39.1193C415.82 38.4773 415.629 37.9801 415.249 37.6278C414.868 37.2756 414.32 37.0994 413.604 37.0994C412.848 37.0994 412.249 37.2642 411.805 37.5938C411.368 37.9233 411.072 38.3125 410.919 38.7614L408.038 38.3523C408.266 37.5568 408.641 36.892 409.163 36.358C409.686 35.8182 410.325 35.4148 411.081 35.1477C411.837 34.875 412.672 34.7386 413.587 34.7386C414.217 34.7386 414.845 34.8125 415.47 34.9602C416.095 35.108 416.666 35.3523 417.183 35.6932C417.7 36.0284 418.115 36.4858 418.428 37.0653C418.746 37.6449 418.905 38.3693 418.905 39.2386V48H415.939V46.2017H415.837C415.649 46.5653 415.385 46.9062 415.044 47.2244C414.709 47.5369 414.286 47.7898 413.774 47.983C413.268 48.1705 412.675 48.2642 411.993 48.2642ZM412.794 45.9972C413.413 45.9972 413.95 45.875 414.405 45.6307C414.859 45.3807 415.209 45.0511 415.453 44.642C415.703 44.233 415.828 43.7869 415.828 43.304V41.7614C415.732 41.8409 415.567 41.9148 415.334 41.983C415.107 42.0511 414.851 42.1108 414.567 42.1619C414.283 42.2131 414.001 42.2585 413.723 42.2983C413.445 42.3381 413.203 42.3722 412.999 42.4006C412.538 42.4631 412.126 42.5653 411.763 42.7074C411.399 42.8494 411.112 43.0483 410.902 43.304C410.692 43.554 410.587 43.8778 410.587 44.2756C410.587 44.8438 410.794 45.2727 411.209 45.5625C411.624 45.8523 412.152 45.9972 412.794 45.9972ZM423.456 52.9091C423.036 52.9091 422.646 52.875 422.288 52.8068C421.936 52.7443 421.655 52.6705 421.445 52.5852L422.161 50.1818C422.609 50.3125 423.01 50.375 423.362 50.3693C423.714 50.3636 424.024 50.2528 424.291 50.0369C424.564 49.8267 424.794 49.4744 424.982 48.9801L425.246 48.2727L420.499 34.9091H423.771L426.788 44.7955H426.925L429.95 34.9091H433.232L427.99 49.5852C427.746 50.2784 427.422 50.8722 427.018 51.3665C426.615 51.8665 426.121 52.2472 425.536 52.5085C424.956 52.7756 424.263 52.9091 423.456 52.9091ZM438.315 42.8693V42.6477C438.321 41.6193 438.418 40.8011 438.605 40.1932C438.798 39.5852 439.071 39.0966 439.423 38.7273C439.776 38.3523 440.205 38.0085 440.71 37.696C441.057 37.4801 441.366 37.2443 441.639 36.9886C441.918 36.7273 442.136 36.4375 442.295 36.1193C442.455 35.7955 442.534 35.4347 442.534 35.0369C442.534 34.5881 442.429 34.1989 442.219 33.8693C442.009 33.5398 441.724 33.2841 441.366 33.1023C441.014 32.9205 440.619 32.8295 440.182 32.8295C439.778 32.8295 439.395 32.9176 439.031 33.0938C438.673 33.2642 438.375 33.5256 438.136 33.8778C437.903 34.2244 437.773 34.6648 437.744 35.1989H434.71C434.739 34.1193 435 33.2159 435.494 32.4886C435.994 31.7614 436.653 31.2159 437.472 30.8523C438.295 30.4886 439.205 30.3068 440.199 30.3068C441.284 30.3068 442.239 30.4972 443.062 30.8778C443.892 31.2585 444.537 31.8011 444.997 32.5057C445.463 33.2045 445.696 34.0341 445.696 34.9943C445.696 35.642 445.591 36.2216 445.381 36.733C445.176 37.2443 444.884 37.6989 444.503 38.0966C444.122 38.4943 443.67 38.8494 443.148 39.1619C442.688 39.446 442.31 39.7415 442.014 40.0483C441.724 40.3551 441.509 40.7159 441.366 41.1307C441.23 41.5398 441.159 42.0455 441.153 42.6477V42.8693H438.315ZM439.798 48.1875C439.287 48.1875 438.847 48.0057 438.477 47.642C438.108 47.2784 437.923 46.8352 437.923 46.3125C437.923 45.8011 438.108 45.3636 438.477 45C438.847 44.6364 439.287 44.4545 439.798 44.4545C440.304 44.4545 440.741 44.6364 441.111 45C441.486 45.3636 441.673 45.8011 441.673 46.3125C441.673 46.6591 441.585 46.9744 441.409 47.2585C441.239 47.5426 441.011 47.7699 440.727 47.9403C440.449 48.1051 440.139 48.1875 439.798 48.1875Z" fill="#1F2937"/>
</svg>
